<?xml version="1.0" encoding="utf-8"?>
<!-- Generator: Adobe Illustrator 16.0.0, SVG Export Plug-In . SVG Version: 6.00 Build 0)  -->
<!DOCTYPE svg PUBLIC "-//W3C//DTD SVG 1.1//EN" "http://www.w3.org/Graphics/SVG/1.1/DTD/svg11.dtd">
<svg version="1.1" id="Layer_1" xmlns="http://www.w3.org/2000/svg" xmlns:xlink="http://www.w3.org/1999/xlink" x="0px" y="0px"
	 width="100px" height="100px" viewBox="0 0 100 100" enable-background="new 0 0 100 100" xml:space="preserve">
<g>
	<path fill-rule="evenodd" clip-rule="evenodd" d="M45.585,30.745c3.217,0.884,3.041,4.243,4.895,5.878
		c3.078-3.333,2.269-7.064-1.984-9.218c-3.479-1.76-3.818-3.432-1.103-7.071c0.58,0.79,1.109,1.468,1.589,2.181
		c0.461,0.681,0.871,1.397,1.327,2.137c2.109-2.07,2.106-4.883,0.257-6.939c-0.537-0.599-0.771-1.472-1.145-2.22
		c1.111-0.105,2.403-0.613,3.295-0.219c1.241,0.549,2.1,1.383,3.431,0.113c0.547-0.522,1.617-0.495,2.45-0.718
		c-0.03,0.938,0.064,1.903-0.128,2.807c-0.146,0.691-0.651,1.305-1.428,2.765c1.603-0.501,2.555-0.746,3.466-1.097
		c0.771-0.299,1.463-0.851,2.251-1.042c0.521-0.125,1.146,0.19,1.726,0.308c-0.351,0.555-0.577,1.336-1.082,1.619
		c-1.169,0.649-2.474,1.06-3.665,1.543c0.114,0.531,0.103,0.832,0.201,0.875c4.084,1.771,2.84,5.415,3.132,8.592
		c0.562,6.115,1.594,12.203,1.867,18.326c0.169,3.761,2.391,6.47,3.582,9.689c1.262,3.41,2.754,6.734,4.204,10.074
		c1.183,2.725,2.452,5.412,3.841,8.463c-4.413,1.354-6.438,4.594-8.434,8.068c-1.716,2.988-7.192,3.703-9.82,1.602
		c-0.401-0.32-0.561-1.734-0.448-1.783c1.198-0.533,2.453-1.07,3.735-1.213c0.489-0.055,1.039,0.988,1.658,1.375
		c0.568,0.355,1.461,0.863,1.861,0.648c0.489-0.262,0.932-1.256,0.835-1.842c-0.203-1.248-0.797-2.43-1.171-3.654
		c-0.225-0.736-0.715-1.791-0.412-2.197c0.464-0.621,1.51-1.098,2.312-1.107c1.324-0.012,2.65,0.396,4.176,0.664
		c-0.399-3.248-2.592-4.002-4.893-4.602c-2.195-0.572-3.482,0.613-4.627,2.303c-0.777,1.148-1.829,2.109-3.053,3.484
		c-1.43-3.762,0.845-4.725,3.122-6.529c-1.146-0.402-2.446-1.363-3.406-1.098c-2.454,0.682-3.252-0.527-4.252-2.371
		c-3.517-6.48-4.225-13.74-5.841-20.722c-1.236-5.341-1.693-10.864-2.474-16.31C45.374,31.885,45.51,31.438,45.585,30.745z"/>
</g>
<g>
	<path fill-rule="evenodd" clip-rule="evenodd" d="M46.875,83.934c2.597-2.293,2.644-4.932,0.22-6.654
		c-0.74-0.527-1.734-0.688-2.512-1.174c-0.825-0.518-1.531-1.223-2.288-1.846c1.163-0.176,2.423-0.719,3.463-0.441
		c1.239,0.33,2.288,1.363,3.784,2.328c0.144-3.373-0.658-5.775-3.389-6.924c-5.524-2.324-7.985,2.199-11.252,5.613
		c-0.135-0.756-0.292-1.164-0.262-1.559c0.166-2.213-0.926-2.336-2.613-1.672c-3.483,1.369-3.485,1.352-4.872-2.043
		c-2.494-6.102-3.354-12.512-3.793-19.001c0.267-0.116,0.533-0.23,0.799-0.346c0.782,1.701,1.563,3.404,2.336,5.087
		c2.535-2.34,2.537-6.197,0.002-8.825c-0.26-0.269-0.605-0.461-0.841-0.745c-0.999-1.209-2.595-2.671-0.814-3.969
		c0.792-0.578,2.824,0.211,4.121,0.774c0.914,0.397,1.537,1.461,2.395,2.333c2.271-5.789-0.415-8.082-8.969-7.987
		c-0.783-2-0.812-3.917,1.438-4.926c5.743-2.578,5.52,3.062,7.784,6.346c0.419-1.374,0.699-2.157,0.89-2.96
		c0.234-0.986,0.062-2.33,0.658-2.914c1.008-0.987,2.447-2.005,3.767-2.093c1.892-0.127,2.217,1.689,2.216,3.257
		c-0.002,2.035-0.123,4.07-0.221,6.875c1.669-1.154,2.809-1.941,4.121-2.848c0.706,3.52,1.158,7.204,2.205,10.713
		c2.24,7.501,4.561,14.996,7.288,22.328c1.7,4.568,0.085,12.285-3.868,15.078c-2.155,1.521-6.47,0.055-6.882-2.564
		c-0.159-1.025,0.821-2.23,1.279-3.354c0.84,0.562,1.798,1.008,2.479,1.721C46.141,82.17,46.427,83.096,46.875,83.934z"/>
</g>
<g>
	<path fill-rule="evenodd" clip-rule="evenodd" d="M68.379,30.928c5.191,1.572,9.396-1.04,10.321-5.781
		c0.196-1.008,0.981-1.904,1.495-2.85c0.709,0.517,1.982,1.012,2.006,1.557c0.038,0.943-0.693,1.921-1.115,2.879
		c-0.107,0.244-0.263,0.468-0.53,0.94c0.713,0.552,1.414,1.094,2.335,1.806c-0.361,3.77-1.05,7.738-1.039,11.707
		c0.01,4.167,0.805,8.329,1.009,12.506c0.069,1.416-0.213,3.168-1.022,4.252c-2.249,3.018-4.858,5.764-7.477,8.793
		c-0.558-1.271-1.275-2.889-1.978-4.516c-3.238-7.488-5.946-15.169-6.683-23.333c-0.417-4.619-0.15-9.303-0.114-13.958
		c0.02-2.628,2.246-3.401,4.126-3.923c0.878-0.246,2.989,0.822,3.082,1.496c0.215,1.562-0.135,3.412-0.866,4.833
		C71.254,28.65,69.788,29.559,68.379,30.928z M74.66,57.717c-0.354,0.221-0.707,0.439-1.061,0.66
		c0.872,0.453,1.741,0.906,2.613,1.359c0.421-0.863,0.94-1.697,1.228-2.602c0.188-0.596,0.143-1.318,0.016-1.945
		c-0.146-0.711-0.499-1.381-0.761-2.066c-0.427,0.676-0.943,1.314-1.258,2.039C75.083,55.973,74.911,56.861,74.66,57.717z"/>
</g>
<g>
	<path fill-rule="evenodd" clip-rule="evenodd" d="M19.01,62.576c0.966-0.99,1.931-1.982,2.694-2.766
		c1.649,4.684,3.346,9.377,4.944,14.102c0.672,1.988-0.399,3.186-2.165,3.93c-7.312,3.082-17.892-1.885-20.149-9.516
		c-0.254-0.859-0.466-2.018-0.091-2.709c0.545-1.012,1.533-2.133,2.544-2.395c0.551-0.145,1.679,1.289,2.29,2.188
		c0.669,0.984,1.043,2.17,1.544,3.268c0.885-1.205,2.122-2.299,2.549-3.648c0.388-1.227-0.059-2.738-0.219-4.115
		c-0.22-1.906-0.517-3.947,1.885-4.582c1.763-0.465,3.397,1.688,3.475,4.225c0.016,0.537,0.022,1.074,0.034,1.613
		C18.565,62.307,18.788,62.439,19.01,62.576z"/>
</g>
<g>
	<path fill-rule="evenodd" clip-rule="evenodd" d="M92.82,29.845c1.606,3.393,0.194,6.579-2.713,7.89
		c-0.855,0.386-1.498,1.237-2.237,1.876c1.003,0.303,2.069,0.978,2.997,0.823c1.579-0.263,3.072-1.049,5.094-1.798
		c-1.219,3.814-1.791,7.672-3.654,10.745c-1.405,2.315-4.467,3.625-7.493,5.915c-0.383-3.254-0.92-5.519-0.857-7.768
		c0.157-5.675,0.519-11.348,0.972-17.01c0.073-0.924,0.988-1.81,1.628-2.625c0.07-0.091,1.288,0.41,1.281,0.617
		c-0.026,1.038-0.169,2.109-0.502,3.093c-0.228,0.675-0.987,1.171-1.224,1.847c-0.242,0.688-0.131,1.498-0.174,2.254
		c0.771,0.005,1.783,0.323,2.265-0.048c1.064-0.82,1.902-1.957,2.758-3.025C91.557,31.884,92.032,31.037,92.82,29.845z"/>
</g>
<g>
	<path fill-rule="evenodd" clip-rule="evenodd" d="M20.771,54.764c-0.479-1.168-1.104-2.305-1.37-3.521
		c-0.116-0.524,0.507-1.211,0.793-1.826c0.451,0.445,1.207,0.837,1.292,1.343c0.21,1.252,0.115,2.555,0.143,3.838
		C21.343,54.654,21.057,54.709,20.771,54.764z"/>
</g>
</svg>
