<?xml version="1.0" encoding="utf-8"?>
<!-- Generator: Adobe Illustrator 16.0.0, SVG Export Plug-In . SVG Version: 6.00 Build 0)  -->
<!DOCTYPE svg PUBLIC "-//W3C//DTD SVG 1.1//EN" "http://www.w3.org/Graphics/SVG/1.1/DTD/svg11.dtd">
<svg version="1.1" id="Layer_1" xmlns="http://www.w3.org/2000/svg" xmlns:xlink="http://www.w3.org/1999/xlink" x="0px" y="0px"
	 width="100px" height="100px" viewBox="0 0 100 100" enable-background="new 0 0 100 100" xml:space="preserve">
<path fill="#636466" d="M18.996,41.971l6.076,17.923c0,0,18.834,4.456,20.455,5.468c1.62,1.014,8.101,19.442,8.101,19.442
	L70.03,93.31l8.304-2.025L59.298,71.894L47.551,48.148L18.996,41.971z"/>
<path fill="#333333" d="M18.996,41.971l6.076,17.923c0,0-1.215,3.848,0,8.911c1.215,5.063,10.733,19.442,10.733,19.442
	S14.877,76.399,13.393,67.64c-1.484-8.758,0.338-19.897,1.554-21.922C16.161,43.692,18.996,41.971,18.996,41.971"/>
<path d="M32.565,38.483L31.552,6.834l8.382,3.038l30.704,67.641l28.96,14.581c0,0-8.709,1.216-25.518,3.849
	s-25.719-1.823-42.327-7.695C15.148,82.374,9.478,74.881,3.604,61.312c-5.873-13.569,4.253-35.441,4.253-35.441L32.565,38.483z
	 M76.106,90.069c0,0-17.619-14.784-18.632-17.215c-1.012-2.43-10.328-21.264-11.746-22.479c-1.417-1.215-26.732-8.404-26.732-8.404
	S7.434,61.991,21.19,75.69c13.757,13.7,30.007,17.821,38.107,17.821C67.397,93.512,76.106,90.069,76.106,90.069z"/>
</svg>
