<?xml version="1.0" encoding="utf-8"?>
<!-- Generator: Adobe Illustrator 16.0.0, SVG Export Plug-In . SVG Version: 6.00 Build 0)  -->
<!DOCTYPE svg PUBLIC "-//W3C//DTD SVG 1.1//EN" "http://www.w3.org/Graphics/SVG/1.1/DTD/svg11.dtd">
<svg version="1.1" id="Layer_1" xmlns="http://www.w3.org/2000/svg" xmlns:xlink="http://www.w3.org/1999/xlink" x="0px" y="0px"
	 width="100px" height="100px" viewBox="0 0 100 100" enable-background="new 0 0 100 100" xml:space="preserve">
<path fill="#CCCCCC" d="M7.281,31.021l-6.61,18.285c0,0,15.308-13.182,21.222-13.065c5.915,0.115,22.499,11.828,25.63,16.468
	c3.131,4.638,27.021,27.543,33.051,28.992c6.031,1.449,9.51,1.798,12.178,0.521c2.667-1.276,5.805,0.787,6.494-9.799
	c0.499-7.682-1.624-11.481-2.783-13.801c-1.16-2.32-3.247-4.639-3.247-4.639s2.524,14.689,2.203,18.845
	c-0.245,3.155-3.479,9.684-8.467,7.944c-4.986-1.74-14.147-7.19-26.672-22.847c-12.525-15.655-24.587-36.53-34.56-36.994
	s-12.177,3.711-13.685,4.871C10.528,26.963,7.281,31.021,7.281,31.021z"/>
<path fill="#FFFFFF" d="M0.207,48.649L11.34,64.422c0,0,9.045-10.206,14.612-6.495s28.74,22.011,37.574,27.079
	c7.074,4.059,19.617,5.615,23.832,4.21c6.522-2.175,10.959-7.863,11.191-12.038s-5.334-23.193-5.334-23.193l-2.784,9.973
	c0,0,3.942,11.365,3.131,13.221c-0.812,1.856-3.479,9.394-16.352-0.231C64.338,67.32,56.319,59.162,51.93,54.448
	c-4.479-4.812-11.597-17.512-23.31-20.527C14.78,30.358,0.207,48.649,0.207,48.649z"/>
</svg>
