<?xml version="1.0" encoding="utf-8"?>
<!-- Generator: Adobe Illustrator 16.0.0, SVG Export Plug-In . SVG Version: 6.00 Build 0)  -->
<!DOCTYPE svg PUBLIC "-//W3C//DTD SVG 1.1//EN" "http://www.w3.org/Graphics/SVG/1.1/DTD/svg11.dtd">
<svg version="1.1" id="Layer_1" xmlns="http://www.w3.org/2000/svg" xmlns:xlink="http://www.w3.org/1999/xlink" x="0px" y="0px"
	 width="50px" height="50px" viewBox="0 0 50 50" enable-background="new 0 0 50 50" xml:space="preserve">
<g>
	<path fill="#4D4D4D" d="M4.839,28.876c0.128-1.304-0.235-2.499-0.447-3.764c-0.18,0.073-0.221,0.306-0.298,0.484
		c-0.076,0.178-0.163,0.36-0.224,0.559c-0.371,1.207-0.073,3.212-0.671,4.062c-0.171,0.244-0.562,0.608-1.006,0.41
		c0.675-0.352,0.193-1.241-0.335-1.268C1.271,29.332,0.884,30,1.112,30.553c0.202,0.487,0.826,0.762,1.491,0.672
		C3.646,31.079,4.727,30.01,4.839,28.876z"/>
	<path fill="#4D4D4D" d="M1.82,20.453c0.48-0.01,0.896-0.5,0.597-1.043c-0.014-0.12-0.263-0.128-0.15-0.261
		c0.506-0.083,0.833,0.298,1.007,0.634c0.331,0.642,0.345,1.647,0.41,2.609c0.065,0.966,0.287,1.805,0.67,2.348
		c0.173-0.591,0.299-1.196,0.373-1.789c0.082-0.663,0.188-1.367,0.112-2.05C4.708,19.733,3.578,18.7,2.491,18.59
		c-0.853-0.086-1.379,0.398-1.453,1.045C0.994,20.014,1.443,20.462,1.82,20.453z"/>
	<path fill="#4D4D4D" d="M19.521,47.473c-0.12,0.014-0.128,0.262-0.261,0.148c-0.084-0.507,0.298-0.834,0.634-1.007
		c0.643-0.33,1.648-0.345,2.608-0.41c0.967-0.063,1.806-0.286,2.347-0.67c-0.596-0.175-1.19-0.3-1.789-0.373
		c-0.652-0.08-1.365-0.188-2.049-0.111c-1.167,0.13-2.21,1.265-2.311,2.349c-0.075,0.81,0.408,1.453,1.043,1.453
		c0.394-0.002,0.83-0.367,0.82-0.783C20.554,47.587,20.063,47.173,19.521,47.473z"/>
	<path fill="#4D4D4D" d="M21.049,4.727c0.636,0.065,1.376-0.026,2.05-0.11c0.606-0.078,1.227-0.191,1.75-0.411
		c-0.577-0.337-1.399-0.567-2.384-0.634c-0.959-0.064-1.998-0.08-2.609-0.409c-0.314-0.169-0.727-0.556-0.559-1.044
		c0.211,0.203,0.356,0.325,0.633,0.299c0.311-0.03,0.642-0.385,0.633-0.746c-0.01-0.416-0.45-0.758-0.857-0.746
		c-0.631,0.019-1.097,0.738-1.006,1.491C18.836,3.535,19.906,4.61,21.049,4.727z"/>
	<path fill="#4D4D4D" d="M30.402,45.684c-0.299-0.254-0.873-0.578-1.416-0.634c-1.276-0.132-2.436,0.218-3.727,0.446
		c-0.023,0.002-0.044,0.007-0.037,0.038c0.572,0.417,1.412,0.612,2.273,0.67c0.863,0.057,1.793,0.048,2.459,0.299
		c0.447,0.168,1.001,0.628,0.781,1.192c-0.354-0.676-1.239-0.196-1.266,0.334c-0.022,0.439,0.428,0.826,0.856,0.82
		c0.692-0.012,1.11-0.797,1.006-1.564C31.257,46.716,30.854,46.062,30.402,45.684z"/>
	<path fill="#4D4D4D" d="M30.738,2.119c0.209,0.451-0.199,0.801-0.447,0.969c-0.635,0.432-1.785,0.418-2.832,0.484
		c-0.911,0.058-1.657,0.319-2.198,0.596c0,0.038-0.03,0.045-0.037,0.075c0.572,0.19,1.224,0.295,1.826,0.374
		c0.656,0.083,1.337,0.181,1.976,0.11c1.207-0.131,2.188-1.278,2.311-2.273c0.102-0.826-0.395-1.538-1.044-1.528
		c-0.334,0.006-0.843,0.347-0.819,0.82C29.503,2.374,30.5,2.632,30.738,2.119z"/>
	<path fill="#4D4D4D" d="M48.143,29.359c-0.625,0.031-0.904,1.009-0.373,1.268c-0.451,0.21-0.804-0.203-0.97-0.445
		c-0.595-0.877-0.313-2.871-0.67-4.025c-0.12-0.389-0.276-0.812-0.522-1.043c-0.203,1.157-0.58,2.577-0.446,3.801
		c0.056,0.509,0.403,1.105,0.634,1.378c0.357,0.422,0.984,0.853,1.641,0.933c0.689,0.086,1.236-0.172,1.453-0.67
		C49.122,30.01,48.704,29.333,48.143,29.359z"/>
	<path fill="#4D4D4D" d="M45.16,20.939c-0.038,0.379,0.012,0.735,0.038,1.08c0.077,1.021,0.161,1.932,0.483,2.721
		c0.336-0.578,0.566-1.401,0.633-2.386c0.066-0.958,0.082-1.998,0.41-2.609c0.17-0.313,0.555-0.727,1.043-0.558
		c-0.201,0.211-0.324,0.355-0.297,0.633c0.029,0.311,0.385,0.642,0.744,0.633c0.404-0.009,0.745-0.437,0.745-0.818
		c0-0.714-0.756-1.132-1.489-1.045C46.46,18.71,45.29,19.668,45.16,20.939z"/>
</g>
<g>
	<path fill="#333333" d="M4.056,24.963c-0.903,0.12-1.154,0.75-1.565,1.491c-0.234,0.422-0.443,0.856-0.746,1.044
		C1.594,27.591,1.225,27.792,1,27.46c0.263-0.021,0.383-0.146,0.411-0.336c0.09-0.635-0.891-0.83-1.081-0.188v0.375
		c0.162,0.443,0.46,0.679,0.969,0.707C3.111,28.123,3.36,26.057,4.056,24.963z"/>
	<path fill="#333333" d="M1.411,22.651C1.369,22.464,1.205,22.414,1,22.316c0.268-0.198,0.596-0.125,0.82,0.038
		c0.563,0.413,0.854,1.774,1.416,2.199c0.24,0.18,0.513,0.173,0.82,0.335c-0.158-0.345-0.384-0.76-0.596-1.23
		c-0.383-0.848-0.793-1.893-2.087-1.864c-0.46,0.01-0.922,0.253-1.043,0.708v0.41C0.536,23.531,1.558,23.323,1.411,22.651z"/>
	<path fill="#333333" d="M21.907,48.516c0.009,0.459,0.251,0.922,0.708,1.043h0.41c0.618-0.205,0.41-1.228-0.261-1.08
		c-0.189,0.041-0.239,0.205-0.335,0.408c-0.199-0.268-0.127-0.595,0.037-0.818c0.414-0.563,1.774-0.854,2.199-1.416
		c0.18-0.239,0.173-0.514,0.335-0.819c-0.344,0.158-0.761,0.384-1.23,0.595C22.922,46.811,21.878,47.223,21.907,48.516z"/>
	<path fill="#333333" d="M23.547,2.417c-0.504-0.276-1.179-0.531-1.23-1.081c-0.013-0.142-0.041-0.337,0.149-0.448
		c0.025,0.239,0.139,0.376,0.298,0.41c0.661,0.146,0.883-0.87,0.261-1.08h-0.41c-1.044,0.33-0.761,1.916-0.037,2.533
		c0.336,0.288,0.83,0.417,1.23,0.597c0.477,0.214,0.84,0.486,1.192,0.559C24.796,3.067,24.325,2.843,23.547,2.417z"/>
	<path fill="#333333" d="M25.075,45.832c0.122,0.902,0.748,1.152,1.489,1.564c0.422,0.233,0.857,0.443,1.043,0.744
		c0.095,0.151,0.297,0.521-0.037,0.745c-0.02-0.263-0.146-0.382-0.334-0.409c-0.635-0.091-0.832,0.891-0.188,1.082h0.373
		c0.445-0.162,0.678-0.461,0.707-0.97C28.234,46.775,26.17,46.527,25.075,45.832z"/>
	<path fill="#333333" d="M28.13,1.149c-0.04-0.483-0.272-0.773-0.707-0.931h-0.411c-0.604,0.228-0.396,1.214,0.262,1.08
		c0.188-0.038,0.25-0.198,0.336-0.41c0.252,0.267,0.107,0.62,0,0.783c-0.195,0.292-0.668,0.48-1.082,0.708
		c-0.721,0.397-1.346,0.676-1.416,1.566C26.17,3.224,28.283,2.996,28.13,1.149z"/>
	<path fill="#333333" d="M48.589,27.161c0.038,0.188,0.199,0.25,0.41,0.337c-0.267,0.252-0.619,0.107-0.783,0
		c-0.292-0.196-0.479-0.669-0.708-1.082c-0.396-0.721-0.675-1.346-1.564-1.417c0.722,1.058,0.951,3.174,2.795,3.021
		c0.482-0.041,0.773-0.271,0.933-0.709v-0.373C49.488,26.284,48.452,26.486,48.589,27.161z"/>
	<path fill="#333333" d="M47.137,22.466c-0.287,0.335-0.416,0.831-0.597,1.23c-0.215,0.477-0.485,0.839-0.56,1.192
		c0.842-0.205,1.063-0.674,1.49-1.453c0.274-0.503,0.529-1.179,1.08-1.23c0.143-0.013,0.338-0.041,0.447,0.148
		c-0.26,0.034-0.379,0.139-0.41,0.335c-0.1,0.631,0.864,0.834,1.081,0.223v-0.41C49.341,21.458,47.753,21.743,47.137,22.466z"/>
</g>
<g>
	<path fill="#808080" d="M8.361,33.889l-0.019-0.056c-0.669,0.733-1.191,1.614-1.677,2.532c0.283-1.27,0.917-2.188,1.528-3.131
		l-0.056,0.021l0.019-0.058c-0.951,0.542-1.965,1.216-3.205,1.343c1.022-0.394,1.895-0.938,2.684-1.565l-0.057-0.019L7.597,32.9
		c-1.241,0.478-3.306,0.063-4.174,0.933c-0.495,0.494-0.633,1.584,0,2.048C3.066,36.27,2.594,36.66,2.64,37.334
		c0.038,0.548,0.554,1.004,1.081,1.008c0.55,0.002,0.988-0.379,1.379-0.634c0.433,0.749,1.565,0.597,2.087,0.112
		c0.887-0.826,0.682-2.889,1.229-3.951L8.361,33.889z"/>
	<path fill="#808080" d="M3.423,15.944c0.869,0.868,2.937,0.454,4.174,0.932L7.578,16.82l0.057-0.019
		c-0.778-0.649-1.709-1.148-2.684-1.603c1.277,0.24,2.246,0.787,3.167,1.379l0.019-0.055l0.056,0.019
		c-0.586-0.929-1.314-1.916-1.49-3.131c0.427,0.964,0.991,1.79,1.64,2.534l0.019-0.055l0.056,0.018
		c-0.542-1.054-0.351-3.131-1.229-3.95c-0.225-0.209-0.614-0.439-1.007-0.447c-0.531-0.011-0.801,0.279-1.118,0.559
		c-0.364-0.293-0.836-0.654-1.379-0.635c-0.517,0.02-1.021,0.485-1.043,1.045c-0.027,0.686,0.46,1.019,0.783,1.453
		C2.736,14.389,2.978,15.5,3.423,15.944z"/>
	<path fill="#808080" d="M15.31,44.938c0.219-1.246,0.774-2.158,1.305-3.094l-0.056-0.019l-0.018-0.056
		c-0.891,0.562-1.856,1.25-3.019,1.414c0.967-0.424,1.789-0.992,2.534-1.638L16,41.527l0.019-0.055
		c-1.052,0.543-3.125,0.34-3.95,1.229c-0.202,0.217-0.439,0.611-0.447,1.007c-0.011,0.53,0.28,0.801,0.56,1.117
		c-0.293,0.364-0.653,0.836-0.634,1.379c0.018,0.517,0.483,1.021,1.043,1.044c0.687,0.027,1.019-0.461,1.453-0.783
		c0.458,0.688,1.568,0.445,2.013,0c0.868-0.867,0.454-2.938,0.932-4.174l-0.056,0.02l-0.019-0.056
		C16.262,43.031,15.768,43.966,15.31,44.938z"/>
	<path fill="#808080" d="M12.068,7.075c0.825,0.887,2.886,0.684,3.95,1.23L16,8.25l0.056-0.019
		c-0.735-0.668-1.616-1.192-2.534-1.677c1.25,0.29,2.194,0.886,3.093,1.528l0.019-0.055l0.056,0.018
		c-0.542-0.95-1.216-1.966-1.342-3.204c0.394,1.022,0.936,1.895,1.565,2.683l0.019-0.057l0.056,0.019
		c-0.478-1.24-0.064-3.307-0.932-4.173c-0.496-0.496-1.585-0.634-2.049,0c-0.388-0.357-0.779-0.829-1.454-0.783
		c-0.547,0.038-1.003,0.555-1.006,1.082c-0.003,0.55,0.378,0.987,0.634,1.378C11.432,5.421,11.583,6.554,12.068,7.075z"/>
	<path fill="#808080" d="M37.932,42.701c-0.824-0.887-2.888-0.682-3.951-1.229L34,41.527l-0.057,0.02
		c0.736,0.668,1.617,1.189,2.535,1.676c-1.25-0.289-2.194-0.885-3.094-1.527l-0.019,0.057l-0.058-0.02
		c0.541,0.951,1.217,1.966,1.342,3.205c-0.392-1.023-0.938-1.893-1.563-2.683l-0.019,0.056l-0.057-0.02
		c0.477,1.241,0.062,3.307,0.932,4.174c0.494,0.495,1.586,0.633,2.05,0c0.388,0.355,0.778,0.829,1.452,0.783
		c0.548-0.037,1.004-0.555,1.008-1.08c0.003-0.551-0.379-0.988-0.635-1.38C38.566,44.355,38.416,43.223,37.932,42.701z"/>
	<path fill="#808080" d="M34.689,4.84c-0.221,1.248-0.774,2.157-1.306,3.093l0.056,0.017l0.02,0.057
		c0.891-0.563,1.855-1.25,3.02-1.417c-0.967,0.424-1.789,0.994-2.535,1.64L34,8.249l-0.02,0.056c1.053-0.544,3.125-0.343,3.951-1.23
		c0.201-0.217,0.438-0.611,0.445-1.005c0.012-0.533-0.279-0.803-0.559-1.12c0.291-0.363,0.652-0.836,0.634-1.378
		c-0.019-0.517-0.483-1.021-1.044-1.043c-0.688-0.026-1.02,0.46-1.453,0.783c-0.457-0.687-1.566-0.445-2.014,0
		c-0.867,0.869-0.453,2.936-0.932,4.173l0.057-0.019l0.02,0.057C33.736,6.745,34.23,5.81,34.689,4.84z"/>
	<path fill="#808080" d="M46.577,33.833c-0.859-0.879-2.944-0.448-4.175-0.933l0.02,0.056l-0.056,0.019
		c0.776,0.651,1.708,1.148,2.683,1.604c-1.277-0.238-2.244-0.785-3.168-1.38l-0.02,0.058l-0.055-0.02
		c0.586,0.93,1.313,1.916,1.489,3.13c-0.424-0.966-0.993-1.788-1.639-2.532l-0.021,0.055l-0.056-0.019
		c0.545,1.054,0.343,3.125,1.229,3.95c0.217,0.201,0.61,0.438,1.006,0.447c0.531,0.01,0.802-0.281,1.119-0.56
		c0.363,0.292,0.836,0.651,1.377,0.634c0.519-0.018,1.021-0.482,1.045-1.044c0.026-0.688-0.461-1.019-0.782-1.452
		C47.268,35.385,47.016,34.279,46.577,33.833z"/>
	<path fill="#808080" d="M41.639,15.889l0.021,0.055c0.67-0.734,1.188-1.619,1.676-2.534c-0.282,1.271-0.916,2.19-1.526,3.131
		l0.055-0.019l-0.018,0.055c0.949-0.54,1.965-1.214,3.204-1.341c-1.024,0.391-1.896,0.938-2.683,1.564l0.056,0.019l-0.021,0.057
		c1.234-0.484,3.315-0.055,4.176-0.932c0.49-0.501,0.636-1.583,0-2.05c0.355-0.387,0.828-0.779,0.781-1.453
		c-0.037-0.547-0.553-1.002-1.08-1.007c-0.551-0.002-0.988,0.38-1.379,0.635c-0.434-0.749-1.565-0.597-2.088-0.112
		c-0.886,0.824-0.684,2.886-1.229,3.95L41.639,15.889z"/>
</g>
<g>
	<path fill="#B3B3B3" d="M5.137,31.148c0.551-0.362,1.438-0.975,2.272-0.483l-0.018-0.058l0.056-0.018
		c-0.38-0.447-0.98-0.822-1.602-0.597c-0.519,0.188-1.166,0.871-1.492,1.19c0.503,0.467,0.968,1.491,1.901,1.491
		c0.481,0,0.862-0.308,1.192-0.597l-0.031-0.03L7.41,32.006C6.425,32.461,5.604,31.686,5.137,31.148z"/>
	<path fill="#B3B3B3" d="M6.218,17.1c-0.911,0.017-1.366,1.039-1.864,1.49c0.346,0.344,1,1.015,1.492,1.193
		c0.687,0.248,1.218-0.184,1.602-0.596l-0.056-0.02l0.018-0.056c-0.833,0.479-1.764-0.105-2.272-0.522
		c0.523-0.496,1.224-1.237,2.272-0.856l-0.018-0.038l0.018-0.037C7.079,17.379,6.691,17.09,6.218,17.1z"/>
	<path fill="#B3B3B3" d="M10.484,34.561l-0.055-0.021c0.259,0.587,0.047,1.196-0.224,1.603c-0.055,0.084-0.389,0.601-0.484,0.598
		c-0.096-0.006-0.392-0.553-0.447-0.635c-0.329-0.487-0.555-1.11-0.223-1.713L9.013,34.41l-0.038-0.02
		c-0.28,0.308-0.579,0.586-0.633,1.043c-0.119,0.996,0.893,1.6,1.378,2.088c0.345-0.474,1.268-0.97,1.341-1.752
		c0.049-0.514-0.23-0.944-0.559-1.268L10.484,34.561z"/>
	<path fill="#B3B3B3" d="M8.975,15.385l0.038-0.019l0.038,0.019c-0.467-0.942,0.198-1.794,0.67-2.348
		c0.446,0.492,1.084,1.24,0.708,2.199l0.055-0.019l0.019,0.055c0.328-0.331,0.626-0.765,0.559-1.304
		c-0.088-0.712-1.037-1.339-1.378-1.714c-0.448,0.531-1.49,1.096-1.341,2.125C8.404,14.807,8.706,15.088,8.975,15.385z"/>
	<path fill="#B3B3B3" d="M13.895,38.863c-0.616,0.183-1.141,0.986-1.529,1.341c0.531,0.448,1.097,1.489,2.125,1.343
		c0.427-0.062,0.708-0.365,1.006-0.635l-0.018-0.037l0.018-0.038c-0.966,0.457-1.825-0.214-2.348-0.669
		c0.491-0.445,1.242-1.084,2.199-0.709l-0.019-0.057l0.056-0.02C15.021,39.027,14.506,38.682,13.895,38.863z"/>
	<path fill="#B3B3B3" d="M14.454,8.23c-0.998-0.12-1.597,0.891-2.087,1.379c0.421,0.319,0.913,1.121,1.529,1.304
		c0.611,0.183,1.126-0.165,1.49-0.522l-0.056-0.018l0.019-0.057c-0.958,0.365-1.748-0.247-2.199-0.746
		c0.564-0.403,1.38-1.1,2.348-0.633V8.901h0.038C15.22,8.605,14.929,8.288,14.454,8.23z"/>
	<path fill="#B3B3B3" d="M19.895,44.043c0.249-0.688-0.184-1.218-0.596-1.604l-0.019,0.057l-0.056-0.02
		c0.478,0.836-0.105,1.767-0.521,2.273c-0.496-0.523-1.238-1.225-0.857-2.273l-0.037,0.02l-0.038-0.02
		c-0.281,0.334-0.568,0.721-0.559,1.192c0.018,0.911,1.039,1.366,1.49,1.864C19.051,45.189,19.716,44.535,19.895,44.043z"/>
	<path fill="#B3B3B3" d="M17.808,7.28l0.037,0.018c-0.371-1.049,0.349-1.787,0.895-2.271c0.361,0.551,0.973,1.437,0.484,2.271
		L19.28,7.28l0.019,0.056c0.448-0.379,0.822-0.98,0.596-1.602c-0.208-0.571-0.877-1.155-1.193-1.492
		c-0.47,0.5-1.492,0.98-1.49,1.901c0,0.474,0.292,0.826,0.559,1.154L17.808,7.28z"/>
	<path fill="#B3B3B3" d="M32.161,42.473l-0.043,0.006c0.454,0.984-0.321,1.807-0.856,2.272c-0.361-0.554-0.975-1.438-0.484-2.272
		l-0.057,0.019l-0.02-0.056c-0.447,0.379-0.822,0.979-0.596,1.603c0.188,0.519,0.869,1.164,1.191,1.491
		c0.467-0.506,1.491-0.969,1.49-1.901c-0.001-0.481-0.307-0.86-0.596-1.192L32.161,42.473z"/>
	<path fill="#B3B3B3" d="M30.105,5.734c-0.25,0.687,0.183,1.218,0.596,1.602l0.02-0.056l0.057,0.018
		c-0.479-0.833,0.104-1.764,0.521-2.271c0.496,0.522,1.237,1.225,0.856,2.271l0.037-0.018l0.037,0.018
		c0.28-0.331,0.568-0.718,0.56-1.192c-0.019-0.91-1.038-1.366-1.49-1.863C30.949,4.587,30.283,5.241,30.105,5.734z"/>
	<path fill="#B3B3B3" d="M35.546,41.547c0.997,0.118,1.597-0.893,2.087-1.379c-0.42-0.318-0.912-1.122-1.527-1.305
		c-0.61-0.184-1.127,0.164-1.49,0.521l0.057,0.021l-0.02,0.056c0.588-0.26,1.197-0.047,1.603,0.226
		c0.082,0.054,0.601,0.388,0.597,0.483c-0.004,0.095-0.551,0.392-0.634,0.446c-0.487,0.328-1.11,0.556-1.714,0.223v0.038h-0.038
		C34.779,41.17,35.07,41.49,35.546,41.547z"/>
	<path fill="#B3B3B3" d="M35.919,10.951c0.712-0.091,1.341-1.037,1.714-1.38c-0.529-0.447-1.096-1.49-2.124-1.341
		c-0.427,0.062-0.709,0.363-1.006,0.633l0.019,0.038l-0.019,0.037c0.966-0.455,1.825,0.216,2.349,0.671
		c-0.492,0.446-1.242,1.083-2.199,0.708l0.02,0.057l-0.057,0.018C34.949,10.718,35.374,11.02,35.919,10.951z"/>
	<path fill="#B3B3B3" d="M41.023,34.393l-0.037,0.019l-0.037-0.019c0.333,0.618,0.083,1.258-0.225,1.713
		c-0.107,0.162-0.369,0.642-0.483,0.635c-0.065-0.006-0.425-0.562-0.447-0.598c-0.315-0.472-0.47-1.027-0.224-1.603l-0.057,0.021
		l-0.019-0.058c-0.263,0.29-0.521,0.565-0.56,1.006c-0.08,0.913,0.93,1.534,1.379,2.013c0.447-0.53,1.49-1.097,1.343-2.125
		C41.596,34.967,41.29,34.695,41.023,34.393z"/>
	<path fill="#B3B3B3" d="M39.516,15.218l0.057,0.019c-0.262-0.597-0.066-1.172,0.223-1.604c0.055-0.08,0.389-0.6,0.484-0.596
		c0.051,0.002,0.396,0.501,0.484,0.634c0.321,0.476,0.473,1.199,0.187,1.714l0.038-0.019l0.037,0.019
		c0.276-0.312,0.578-0.583,0.634-1.043c0.118-0.996-0.896-1.6-1.38-2.088c-0.413,0.525-1.446,1.102-1.342,2.05
		c0.045,0.41,0.306,0.688,0.56,0.968L39.516,15.218z"/>
	<path fill="#B3B3B3" d="M43.782,32.677c0.909-0.018,1.364-1.038,1.862-1.491c-0.345-0.343-1-1.014-1.49-1.19
		c-0.688-0.25-1.223,0.181-1.604,0.597l0.057,0.018l-0.019,0.058c0.833-0.479,1.765,0.104,2.272,0.521
		c-0.526,0.494-1.223,1.24-2.272,0.858l0.019,0.036l-0.019,0.038C42.921,32.398,43.309,32.686,43.782,32.677z"/>
	<path fill="#B3B3B3" d="M43.745,17.1c-0.476,0-0.826,0.292-1.155,0.559l0.018,0.037l-0.018,0.038
		c1.049-0.371,1.787,0.348,2.271,0.895c-0.553,0.361-1.438,0.973-2.271,0.484l0.018,0.056l-0.056,0.02
		c0.38,0.448,0.98,0.822,1.603,0.596c0.518-0.188,1.164-0.874,1.492-1.193C45.146,18.12,44.664,17.099,43.745,17.1z"/>
</g>
<g>
	<path d="M19.447,21.088c0.703,1.1-0.027,2.809-1.789,2.458c-0.42-0.547-0.82-1.117-1.751-1.154
		c0.343-0.838,1.637-0.833,2.198-0.335c0.094,0.083,0.155,0.269,0.298,0.259c0.23-0.716,0.102-1.381-0.224-1.75
		c-0.44-0.502-1.293-0.653-1.975-0.82c-0.016-0.329,0.023-0.651,0-0.895c-0.189-2.028-1.938-3.786-4.249-3.54
		c-0.373,0.039-0.789,0.167-1.118,0.411c-0.755,0.559-0.736,2.035,0,2.683c0.673,0.591,2.542,0.707,2.571-0.485
		c0.386,0.349,0.498,0.873,0.447,1.527c-0.063,0.828-0.587,2.087-0.969,2.535c-1.034,1.21-3.676,0.975-5.851,1.042
		c0.632-0.879,1.16-2.716,2.198-3.316c0.376-0.217,1.36-0.387,1.417,0.111c-1.125,0.018-0.832,1.514-0.261,1.789
		c0.072,0.035,0.478,0.116,0.708,0.075c0.543-0.095,1.003-0.693,0.895-1.454c-0.14-0.968-1.025-1.447-1.976-1.489
		c-1.501-0.07-2.732,0.77-3.354,1.75c-0.311,0.49-0.496,1.083-0.745,1.64c-0.249,0.553-0.513,1.106-0.783,1.64
		c1.357-0.022,2.622-0.137,3.689-0.448c-0.417,0.328-1.008,0.483-1.565,0.671l0.056,0.019l-0.018,0.055
		c1.592-0.098,3.037-0.341,4.248-0.82c-1.097,0.754-2.611,1.092-4.248,1.305L7.28,24.609l-0.019,0.057
		c1.383-0.13,3.168,0.172,4.398,0c-0.002,0,0.079-0.028,0.111-0.038c0.597-0.182,0.772-0.851,1.267-1.082
		c0.125-0.997,0.561-1.781,1.043-2.607c0.562-0.961,1.444-2.368,0.708-3.467c1.119,1.02,0.372,3.484-0.261,4.472l0.056-0.02
		l0.019,0.058c0.445-0.638,1.665-1.08,2.684-0.671c-1.584-0.302-2.347,0.788-2.571,2.086c0.281,0.172,0.506,0.392,0.782,0.633
		c0.229,0.2,0.53,0.528,0.857,0.597c0.358,0.076,0.907,0.038,1.378,0.038c0.492,0,0.981,0.019,1.417,0
		c0.464-0.022,1.178-0.056,1.528-0.225c0.377-0.183,0.832-0.974,0.857-1.416C21.596,21.905,20.757,20.848,19.447,21.088z"/>
	<path d="M19.484,28.689c1.291,0.233,2.139-0.865,2.05-1.977c-0.036-0.452-0.392-1.076-0.746-1.266
		c-0.489-0.265-2.205-0.371-3.093-0.298c-0.389,0.03-1.105-0.018-1.417,0.074c-0.305,0.089-0.564,0.409-0.783,0.595
		c-0.132,0.113-0.244,0.242-0.372,0.336c-0.135,0.099-0.319,0.14-0.41,0.299c0.197,1.349,0.941,2.33,2.497,2.197
		c-1.021,0.279-2.032-0.063-2.534-0.633l-0.019,0.055l-0.056-0.018c0.639,0.926,1.242,3.437,0.187,4.285
		c0.722-1.141-0.145-2.521-0.708-3.466c-0.485-0.815-0.919-1.606-1.043-2.608c-0.526-0.234-0.825-1.042-1.491-1.118
		c-1.242-0.143-2.945,0.106-4.323,0l-0.019,0.055L7.187,25.26c1.246,0.129,2.485,0.418,3.428,0.821
		c0.321,0.137,0.667,0.243,0.857,0.483c-1.173-0.504-2.653-0.7-4.21-0.819l0.019,0.057L7.225,25.82
		c0.546,0.199,1.319,0.369,1.603,0.709c-1.007-0.372-2.339-0.42-3.652-0.484c0.805,1.364,1.03,3.051,2.199,4.061
		c0.649,0.562,1.581,0.99,2.683,0.934c1.02-0.053,1.818-0.58,1.938-1.528c0.098-0.78-0.377-1.325-0.895-1.415
		c-1.383-0.242-1.678,1.848-0.41,1.862c-0.144,0.175-0.236,0.295-0.447,0.335c-0.786,0.152-1.307-0.42-1.603-0.782
		c-0.653-0.801-1.206-2.104-1.565-2.757c2.23,0.028,4.911-0.111,5.851,1.117c0.567,0.74,1.484,3.115,0.484,3.949
		c-0.144-1.264-2.077-0.985-2.683-0.334c-0.652,0.699-0.582,2.058,0.112,2.57c1.304,0.967,3.432,0.209,4.322-0.744
		c0.727-0.778,1.088-1.856,1.044-3.316c1.349-0.107,2.779-0.848,2.199-2.534c-0.125,0.011-0.209,0.144-0.298,0.224
		c-0.106,0.097-0.178,0.184-0.335,0.26c-0.699,0.347-1.664,0.021-1.826-0.559c0.512-0.061,0.892-0.203,1.23-0.521
		c0.231-0.22,0.289-0.56,0.522-0.636c0.477-0.154,1.188,0.08,1.453,0.262c0.585,0.402,0.674,1.316,0.447,1.9
		C19.558,28.49,19.354,28.65,19.484,28.689z"/>
	<path d="M18.031,36.479c0.348-0.387,0.877-0.498,1.528-0.447c1.073,0.083,2.46,0.732,2.87,1.38
		c0.781,1.229,0.694,3.448,0.708,5.438c-0.88-0.629-2.716-1.16-3.316-2.197c-0.217-0.377-0.386-1.359,0.111-1.416
		c-0.023,1.021,1.355,0.863,1.715,0.373c0.461-0.631-0.114-1.594-0.708-1.715c-0.729-0.147-1.366,0.281-1.603,0.56
		c-0.976,1.144-0.296,3.2,0.447,4.062c0.993,1.149,2.739,1.406,4.1,2.235c-0.021-1.358-0.136-2.622-0.448-3.688
		c0.328,0.418,0.483,1.008,0.671,1.563l0.018-0.056l0.056,0.02c-0.096-1.593-0.341-3.038-0.819-4.248
		c0.755,1.107,1.103,2.623,1.304,4.284l0.056-0.019l0.055-0.019v-2.162c0-0.778,0.108-1.625,0-2.198
		c-0.123-0.653-0.887-0.875-1.118-1.377c-0.994-0.129-1.785-0.561-2.609-1.045c-0.958-0.564-2.37-1.441-3.465-0.707
		c1.017-1.117,3.487-0.373,4.472,0.26l-0.018-0.057l0.055-0.018c-0.617-0.403-1.1-1.764-0.671-2.646v0.074
		c-0.274,1.51,0.831,2.237,2.087,2.46c0.179-0.278,0.393-0.506,0.634-0.782c0.199-0.229,0.527-0.531,0.596-0.857
		c0.076-0.357,0.037-0.906,0.037-1.379c0-0.49,0.02-0.98,0-1.415c-0.021-0.464-0.055-1.179-0.223-1.527
		c-0.183-0.379-0.973-0.833-1.417-0.858c-1.122-0.062-2.174,0.777-1.938,2.088c1.107-0.699,2.806,0.022,2.459,1.789
		c-0.548,0.422-1.118,0.818-1.155,1.752c-0.603-0.267-0.915-1.211-0.559-1.901c0.07-0.134,0.179-0.207,0.261-0.298
		c0.083-0.092,0.214-0.176,0.224-0.297c-1.782-0.584-2.357,0.884-2.572,2.197c-0.31,0.014-0.659-0.021-0.895,0
		c-2.011,0.176-3.786,1.94-3.54,4.248c0.04,0.373,0.167,0.789,0.41,1.117c0.514,0.694,1.871,0.766,2.572,0.112
		C19.074,38.538,19.31,36.547,18.031,36.479z"/>
	<path d="M15.832,10.727c-0.252,0.341-0.371,0.757-0.41,1.156c-0.221,2.293,1.542,4.056,3.578,4.21c0.24,0.019,0.576-0.012,0.895,0
		c0.123,1.389,0.852,2.773,2.534,2.199c-0.012-0.124-0.145-0.208-0.224-0.298c-0.096-0.106-0.184-0.178-0.261-0.335
		c-0.346-0.7-0.02-1.663,0.559-1.827c0.061,0.512,0.203,0.891,0.522,1.23c0.218,0.232,0.558,0.289,0.633,0.522
		c0.155,0.476-0.078,1.188-0.261,1.453c-0.402,0.585-1.317,0.674-1.9,0.447c-0.098-0.038-0.261-0.241-0.298-0.111
		c-0.225,1.304,0.868,2.138,1.975,2.048c0.263-0.02,0.533-0.169,0.782-0.333c0.507-0.337,0.65-0.556,0.746-1.268
		c0.151-1.122,0.055-2.427,0.037-3.614c-0.245-0.465-0.648-0.812-0.931-1.192c-0.104-0.142-0.176-0.319-0.335-0.41
		c-1.275,0.238-2.229,0.959-2.125,2.458c-0.264-1.113,0.129-2.101,0.745-2.571l-0.055-0.019l0.018-0.056
		c-0.779,0.441-1.977,0.93-3.242,0.82c-0.495-0.044-1.041-0.228-1.192-0.559c1.119,0.717,2.524-0.15,3.466-0.709
		c0.803-0.476,1.575-0.932,2.571-1.043c0.256-0.486,0.827-0.639,1.043-1.23c0.181-0.492,0.074-1.533,0.074-2.347V7.149l-0.055,0.019
		l-0.056,0.02c-0.208,1.619-0.58,3.271-1.304,4.21c0.496-1.18,0.716-2.638,0.819-4.21l-0.056,0.019L24.106,7.15
		c-0.18,0.522-0.37,1.249-0.671,1.527c0.302-1.026,0.474-2.382,0.41-3.65c-1.318,0.84-3.07,1.087-4.062,2.235
		c-0.509,0.588-0.882,1.399-0.932,2.348c-0.062,1.17,0.515,2.145,1.528,2.273c0.78,0.099,1.325-0.378,1.416-0.895
		c0.241-1.382-1.846-1.68-1.863-0.411c-0.174-0.143-0.294-0.236-0.335-0.446c-0.153-0.787,0.421-1.307,0.783-1.604
		c0.801-0.652,2.104-1.205,2.757-1.564c-0.029,2.229,0.111,4.91-1.118,5.851c-0.743,0.568-3.112,1.483-3.95,0.484
		c1.262-0.146,0.985-2.079,0.335-2.683C17.703,9.963,16.346,10.034,15.832,10.727z"/>
	<path d="M34.167,39.049c0.965-1.303,0.208-3.432-0.745-4.322c-0.777-0.727-1.855-1.09-3.316-1.043
		c-0.106-1.35-0.846-2.779-2.533-2.197c-0.002,0.148,0.169,0.193,0.261,0.297c0.542,0.611,0.446,1.947-0.335,2.16
		c-0.082-0.574-0.207-0.896-0.521-1.229c-0.223-0.234-0.565-0.312-0.634-0.521c-0.155-0.477,0.078-1.188,0.261-1.452
		c0.403-0.585,1.316-0.675,1.9-0.448c0.098,0.038,0.262,0.243,0.298,0.113c0.231-1.289-0.862-2.141-1.976-2.051
		c-0.452,0.037-1.075,0.392-1.268,0.746c-0.289,0.535-0.365,2.267-0.297,3.092c0.031,0.388-0.017,1.106,0.075,1.416
		c0.096,0.332,0.436,0.552,0.633,0.783c0.245,0.284,0.383,0.557,0.596,0.82c1.293-0.268,2.354-0.945,2.199-2.535
		c0.279,1.023-0.062,2.031-0.634,2.535l0.056,0.018l-0.019,0.058c0.927-0.64,3.437-1.242,4.286-0.187
		c-1.141-0.724-2.521,0.146-3.467,0.707c-0.814,0.484-1.607,0.918-2.608,1.045c-0.233,0.524-1.041,0.822-1.117,1.489
		c-0.145,1.251,0.107,2.974,0,4.359l0.056-0.019l0.056-0.02c0.135-1.227,0.42-2.457,0.82-3.391c0.137-0.32,0.244-0.668,0.483-0.857
		c-0.503,1.174-0.7,2.652-0.819,4.21l0.056-0.019l0.021,0.057c0.198-0.546,0.368-1.32,0.707-1.602
		c-0.371,1.006-0.418,2.338-0.483,3.65c0.604-0.265,1.106-0.529,1.677-0.783s1.17-0.438,1.678-0.781
		c1.004-0.682,1.715-1.881,1.639-3.316c-0.053-1.034-0.578-1.816-1.527-1.938c-0.783-0.101-1.326,0.383-1.415,0.895
		c-0.237,1.355,1.78,1.71,1.862,0.408c0.175,0.145,0.295,0.236,0.336,0.447c0.152,0.787-0.422,1.309-0.783,1.604
		c-0.8,0.652-2.104,1.206-2.757,1.564c0.028-2.229-0.111-4.91,1.116-5.852c0.744-0.568,3.113-1.482,3.951-0.484
		c-1.266,0.146-0.986,2.078-0.336,2.685C32.297,39.812,33.652,39.743,34.167,39.049z"/>
	<path d="M31.969,13.299c-0.349,0.386-0.875,0.496-1.527,0.447c-1.073-0.082-2.459-0.731-2.869-1.379
		c-0.78-1.23-0.695-3.45-0.709-5.44c0.879,0.633,2.716,1.16,3.316,2.198c0.219,0.375,0.387,1.36-0.111,1.417
		c-0.017-1.126-1.514-0.832-1.789-0.261c-0.034,0.072-0.113,0.478-0.073,0.708c0.095,0.544,0.692,1.003,1.453,0.895
		c0.946-0.136,1.448-0.964,1.489-1.976c0.047-1.102-0.385-2.015-0.932-2.645c-1.007-1.164-2.705-1.399-4.062-2.199
		c0.062,1.33,0.128,2.655,0.484,3.69c-0.365-0.419-0.5-1.065-0.707-1.641l-0.021,0.056L25.855,7.15
		c0.113,1.577,0.334,3.044,0.819,4.249c-0.772-1.103-1.095-2.657-1.305-4.323l-0.056,0.019l-0.056,0.019
		c0.106,1.378-0.143,3.082,0,4.322c0.082,0.718,0.901,0.955,1.117,1.491c0.999,0.125,1.789,0.556,2.607,1.043
		c0.963,0.574,2.425,1.404,3.468,0.746c-0.984,0.98-3.382,0.42-4.286-0.224l0.02,0.056l-0.057,0.02
		c0.559,0.486,0.955,1.582,0.596,2.534c0.229-1.661-0.914-2.262-2.197-2.534c-0.144,0.322-0.367,0.551-0.596,0.819
		c-0.199,0.232-0.507,0.483-0.597,0.82c-0.079,0.288-0.02,0.75-0.038,1.156c-0.04,0.878-0.05,2.742,0.262,3.316
		c0.199,0.371,0.844,0.72,1.305,0.744c1.131,0.063,2.168-0.789,1.938-2.086c-1.105,0.701-2.807-0.024-2.459-1.789
		c0.549-0.42,1.117-0.82,1.155-1.75c0.837,0.343,0.832,1.637,0.335,2.198c-0.083,0.094-0.27,0.155-0.262,0.298
		c0.717,0.23,1.383,0.103,1.752-0.223c0.502-0.442,0.652-1.295,0.82-1.976c1.489,0.046,2.577-0.36,3.315-1.08
		c0.923-0.902,1.667-2.993,0.708-4.287c-0.514-0.693-1.869-0.765-2.571-0.111C30.927,11.239,30.689,13.231,31.969,13.299z"/>
	<path d="M38.9,28.093c-0.553,0.097-1.004,0.699-0.896,1.453c0.138,0.951,0.99,1.45,1.976,1.491c1.104,0.047,2.006-0.38,2.646-0.934
		c1.163-1.002,1.394-2.696,2.199-4.061c-1.331,0.061-2.656,0.125-3.688,0.484c0.42-0.363,1.061-0.506,1.639-0.709L42.721,25.8
		l0.018-0.057c-1.575,0.112-3.045,0.334-4.247,0.819c1.093-0.771,2.642-1.084,4.284-1.305l0.02-0.055l0.02-0.055
		c-1.387,0.106-3.108-0.145-4.359,0c-0.717,0.082-0.953,0.902-1.491,1.118c-0.124,0.998-0.556,1.789-1.043,2.608
		c-0.571,0.961-1.403,2.423-0.746,3.466c-0.952-0.927-0.442-3.261,0.15-4.175l-0.058-0.019l-0.019-0.057
		c-0.485,0.518-1.562,0.865-2.46,0.521c1.66,0.227,2.261-0.916,2.535-2.198c-0.668-0.204-0.986-1.016-1.641-1.192
		c-0.289-0.079-0.752-0.019-1.156-0.038c-0.944-0.042-2.77-0.035-3.315,0.262c-0.37,0.2-0.721,0.843-0.746,1.304
		c-0.062,1.129,0.787,2.174,2.087,1.938c-0.699-1.107,0.024-2.807,1.789-2.461c0.422,0.549,0.82,1.117,1.752,1.155
		c-0.266,0.603-1.21,0.915-1.9,0.56c-0.135-0.069-0.207-0.18-0.299-0.262s-0.176-0.215-0.297-0.223
		c-0.582,1.781,0.885,2.357,2.198,2.57c-0.047,1.49,0.36,2.58,1.08,3.316c0.899,0.924,2.992,1.667,4.286,0.708
		c0.693-0.514,0.764-1.87,0.111-2.569c-0.625-0.672-2.615-0.909-2.684,0.371c-0.387-0.351-0.497-0.873-0.447-1.527
		c0.063-0.828,0.586-2.085,0.969-2.534c1.035-1.212,3.676-0.976,5.852-1.043c-0.633,0.879-1.16,2.715-2.197,3.315
		c-0.377,0.219-1.361,0.388-1.418-0.111C40.646,29.855,40.182,27.869,38.9,28.093z"/>
	<path d="M39.943,18.74c-0.98,0.054-1.817,0.576-1.938,1.527c-0.101,0.787,0.386,1.327,0.896,1.416
		c1.371,0.241,1.686-1.81,0.408-1.863c0.146-0.174,0.236-0.293,0.447-0.335c0.786-0.152,1.309,0.421,1.604,0.783
		c0.652,0.8,1.205,2.104,1.564,2.757c-2.229-0.03-4.91,0.11-5.852-1.118c-0.568-0.744-1.484-3.111-0.483-3.951
		c0.134,1.238,2.022,0.997,2.646,0.374c0.252-0.25,0.443-0.674,0.484-1.044c0.137-1.223-0.722-1.877-1.714-1.974
		c-2.586-0.251-4.419,1.869-4.211,4.472c-1.39,0.123-2.772,0.851-2.198,2.533c0.125-0.01,0.209-0.143,0.297-0.223
		c0.107-0.095,0.18-0.183,0.336-0.261c0.699-0.346,1.664-0.02,1.826,0.56c-0.523,0.059-0.936,0.226-1.268,0.559
		c-0.221,0.22-0.258,0.523-0.484,0.595c-0.477,0.156-1.188-0.079-1.453-0.26c-0.586-0.404-0.674-1.317-0.447-1.901
		c0.039-0.098,0.242-0.261,0.111-0.297c-1.307-0.23-2.138,0.87-2.05,1.974c0.021,0.264,0.17,0.534,0.336,0.783
		c0.337,0.506,0.558,0.649,1.269,0.744c1.123,0.152,2.427,0.056,3.613,0.038c0.463-0.248,0.812-0.649,1.192-0.931
		c0.14-0.105,0.319-0.177,0.41-0.336c-0.239-1.275-0.961-2.229-2.46-2.125c1.113-0.264,2.102,0.128,2.572,0.746l0.019-0.058
		l0.056,0.02c-0.441-0.779-0.931-1.977-0.82-3.242c0.043-0.495,0.228-1.041,0.561-1.192c-0.72,1.118,0.15,2.524,0.708,3.465
		c0.476,0.802,0.935,1.574,1.043,2.57c0.478,0.222,0.794,1.036,1.379,1.12c1.22,0.17,2.988-0.129,4.36,0l0.02-0.057l0.019-0.056
		c-1.634-0.197-3.294-0.575-4.248-1.305c1.181,0.496,2.637,0.716,4.211,0.82l-0.019-0.055l0.055-0.019
		c-0.523-0.174-1.247-0.374-1.527-0.671c1.027,0.302,2.385,0.474,3.652,0.41c-0.858-1.302-1.045-3.032-2.236-4.062
		C41.964,19.098,41.027,18.679,39.943,18.74z"/>
	<path d="M30.721,7.28c0.055,0.077,0.109,0.168,0.187,0.223L30.721,7.28z"/>
	<path d="M32.191,7.28c-0.094,0.193-0.232,0.358-0.316,0.559L32.191,7.28z"/>
	<path d="M43.001,24.072l0.278,0.052C43.193,24.084,43.098,24.078,43.001,24.072z"/>
	<path d="M34.503,40.875l-0.429-0.316C34.207,40.68,34.369,40.757,34.503,40.875z"/>
	<path d="M42.684,24.013c0.1,0.047,0.209,0.053,0.317,0.059L42.684,24.013z"/>
	<path d="M35.268,28.148c0.116-0.107,0.168-0.248,0.26-0.373L35.268,28.148z"/>
	<path d="M42.607,32.08c-0.192-0.094-0.357-0.234-0.56-0.316L42.607,32.08z"/>
	<path d="M42.607,30.607c-0.078,0.057-0.168,0.11-0.224,0.188L42.607,30.607z"/>
	<path d="M33.254,8.175l0.186-0.225C33.383,8.027,33.275,8.079,33.254,8.175z"/>
	<path d="M33.068,7.466l-0.112,0.225C32.993,7.615,33.047,7.551,33.068,7.466z"/>
	<path d="M41.861,16.522l-0.147,0.111C41.766,16.623,41.824,16.556,41.861,16.522z"/>
	<path d="M42.422,16.82c-0.084,0.022-0.146,0.074-0.224,0.112L42.422,16.82z"/>
	<path d="M42.607,19.167l-0.224-0.187C42.434,19.061,42.532,19.109,42.607,19.167z"/>
	<path d="M42.607,17.695l-0.56,0.318C42.25,17.929,42.415,17.791,42.607,17.695z"/>
	<path d="M17.808,7.28l0.317,0.559C18.041,7.638,17.902,7.474,17.808,7.28z"/>
	<path d="M7.578,32.956c0.084-0.021,0.148-0.074,0.225-0.11L7.578,32.956z"/>
	<path d="M17.808,42.496c0.094-0.193,0.235-0.357,0.317-0.559L17.808,42.496z"/>
	<path d="M19.279,42.496c-0.059-0.076-0.107-0.174-0.187-0.223L19.279,42.496z"/>
	<path d="M24.124,42.57l0.061,0.32C24.177,42.782,24.172,42.672,24.124,42.57z"/>
	<path d="M8.137,33.255l0.149-0.112C8.232,33.154,8.176,33.211,8.137,33.255z"/>
	<path d="M16.932,42.311l0.112-0.224C17.012,42.162,16.948,42.225,16.932,42.311z"/>
	<path d="M16.745,41.602l-0.187,0.225C16.616,41.749,16.723,41.698,16.745,41.602z"/>
	<path d="M24.184,42.893c0.006,0.096,0.013,0.189,0.052,0.275L24.184,42.893z"/>
	<path d="M30.721,42.496l0.187-0.223C30.827,42.322,30.777,42.42,30.721,42.496z"/>
	<path d="M33.366,41.751l-0.112-0.149C33.268,41.656,33.323,41.711,33.366,41.751z"/>
	<path d="M42.422,32.956l-0.224-0.11C42.273,32.875,42.337,32.939,42.422,32.956z"/>
	<path d="M41.861,33.255c-0.037-0.032-0.098-0.103-0.147-0.112L41.861,33.255z"/>
	<path d="M33.068,42.311c-0.021-0.084-0.075-0.147-0.112-0.224L33.068,42.311z"/>
	<path d="M32.161,42.473c-0.032-0.108-0.097-0.203-0.16-0.301L32.161,42.473z"/>
	<path d="M7.392,19.167l0.261-0.187C7.557,19.027,7.486,19.115,7.392,19.167z"/>
	<path d="M7.417,32.05c0.109-0.032,0.204-0.098,0.301-0.161L7.417,32.05z"/>
	<path d="M7.392,30.607l0.223,0.188C7.56,30.719,7.47,30.664,7.392,30.607z"/>
	<path d="M6.999,24.072c-0.097,0.006-0.192,0.012-0.277,0.052L6.999,24.072z"/>
	<path d="M7.317,24.013l-0.318,0.059C7.107,24.066,7.218,24.061,7.317,24.013z"/>
	<path d="M24.124,7.206c0.051-0.1,0.055-0.212,0.061-0.323L24.124,7.206z"/>
	<path d="M24.185,6.883l0.051-0.273C24.196,6.693,24.189,6.787,24.185,6.883z"/>
	<path d="M8.137,16.522c0.039,0.042,0.095,0.099,0.149,0.111L8.137,16.522z"/>
	<path d="M7.392,17.695c0.194,0.095,0.358,0.233,0.559,0.318L7.392,17.695z"/>
	<path d="M7.578,16.82l0.225,0.112C7.726,16.894,7.662,16.842,7.578,16.82z"/>
	<path d="M16.932,7.466c0.017,0.085,0.081,0.149,0.112,0.225L16.932,7.466z"/>
	<path d="M16.634,8.026l0.111,0.148C16.735,8.124,16.667,8.064,16.634,8.026z"/>
	<path d="M15.497,8.901l0.429,0.317C15.792,9.099,15.631,9.019,15.497,8.901z"/>
	<path d="M19.279,7.28l-0.187,0.223C19.169,7.448,19.225,7.357,19.279,7.28z"/>
</g>
</svg>
