<?xml version="1.0" encoding="utf-8"?>
<!-- Generator: Adobe Illustrator 16.0.0, SVG Export Plug-In . SVG Version: 6.00 Build 0)  -->
<!DOCTYPE svg PUBLIC "-//W3C//DTD SVG 1.1//EN" "http://www.w3.org/Graphics/SVG/1.1/DTD/svg11.dtd">
<svg version="1.1" id="Layer_1" xmlns="http://www.w3.org/2000/svg" xmlns:xlink="http://www.w3.org/1999/xlink" x="0px" y="0px"
	 width="50px" height="50px" viewBox="0 0 50 50" enable-background="new 0 0 50 50" xml:space="preserve">
<path fill-rule="evenodd" clip-rule="evenodd" fill="#B3B3B3" d="M20.89,1.224C20.907,0.963,21.25,1.308,20.89,1.224L20.89,1.224z"
	/>
<path fill-rule="evenodd" clip-rule="evenodd" fill="#B3B3B3" d="M15.838,3.228C15.828,3.123,15.961,3.174,15.838,3.228
	L15.838,3.228z"/>
<path fill-rule="evenodd" clip-rule="evenodd" fill="#B3B3B3" d="M23.59,3.925C23.552,3.888,23.647,3.982,23.59,3.925L23.59,3.925z"
	/>
<path fill-rule="evenodd" clip-rule="evenodd" fill="#B3B3B3" d="M19.321,12.723c-1.559-2.194-0.434-6.184,1.221-7.491
	c-0.54,1.196-1.983,3.098-1.395,5.139c0.428-3.172,1.651-5.55,4.356-6.445c-3.616,1.397-5.532,7.953-1.831,10.715
	c-1.607,0.038-1.711-2.181-2.353-3.398C18.974,11.467,19.359,12.251,19.321,12.723z"/>
<path fill-rule="evenodd" clip-rule="evenodd" fill="#B3B3B3" d="M36.047,46.61c-3.71,1.085-8.188,0.144-11.238-0.958
	c3.014,2.221,10.131,2.025,14.375,0.783c-10.213,4.154-22.166-1.004-23.262-10.628c0-1.364,0-2.729,0-4.094
	c0.325-0.984,0.36-2.255,0.873-3.049c0.282-0.067,0.515-0.184,0.698-0.349c-0.102,0.626-0.573,1.635-0.611,2.613
	c0.668-1.044,0.655-2.77,1.741-3.397c-0.072,0.944-0.707,2.08-0.784,3.312c0.956-1.224,1.079-3.277,2.005-4.53
	c-1.06,3.261-2.52,9.79,0.347,12.456c-0.7-1.896-1.348-3.292-1.221-5.835c0.249-4.977,2.853-9.511,3.313-14.112
	c0.716-0.882,1.274-1.921,1.22-3.572c1.28-1.45,2.378-3.927,1.567-6.447c-0.412-0.925-1.14-1.531-2.092-1.918
	c-0.615-0.036-1.136,0.025-1.566,0.175c0.316-0.44,0.886-0.623,1.478-0.784c4.954,0.141,3.038,7.242,1.57,9.758
	C26.319,14.431,28,7.98,24.984,6.015c0.026,0,0.058,0,0.086,0c3.895,1.628,1.724,8.38,0.173,10.89
	c3.242-2.137,4.235-13.424-2.528-11.5c0.69-0.872,2.808-0.698,3.75-0.173c2.496,1.545,3.008,5.997,2.436,9.583
	c1.423-4.172,0.301-10.247-4.005-10.629c1.25-0.321,2.453,0.161,3.224,0.61c1.475,1.282,2.057,3.457,2.349,5.922
	c-0.041,2.456-0.513,4.481-1.131,6.36c-2.684,4.4-5.633,8.539-6.449,14.81c0.512,6.751,3.348,11.173,8.803,12.98
	c-3.707-0.535-6.668-2.567-8.887-4.88c-0.055,0.396,0.56,0.82,0.697,1.309c2.218,2.252,5.302,3.64,9.057,4.355
	c0.503-0.007,1.009-0.019,1.396,0.088c0.262,0,0.521,0,0.784,0c0.486-0.02,0.101,0.152-0.175,0.086
	c-0.508,0.046-0.975,0.13-1.568,0.088c-1.245-0.091-2.388-0.285-3.572-0.437c-2.492-0.788-4.664-1.896-6.536-3.31
	c-0.706-0.805-1.443-1.573-2.175-2.353c2.654,4.547,7.863,6.706,15.157,6.359c-7.683,0.88-13.399-1.694-16.115-6.359
	C21.787,45.092,28.069,47.278,36.047,46.61z M25.679,18.3C25.421,18.317,25.763,18.661,25.679,18.3
	c1.275-1.664,2.945-3.849,2.789-6.36C27.824,14.346,26.666,16.236,25.679,18.3z M22.89,26.227c1.531-3.729,4.09-6.426,5.578-10.192
	c-0.087,0-0.175,0-0.261,0C26.581,19.518,23.626,22.138,22.89,26.227z M20.455,31.017c0.489-5.145,2.777-9.414,3.919-13.328
	C22.336,21.287,20.45,25.96,20.455,31.017z M23.329,22.742c0.533-0.783,1.438-2.091,1.306-2.961
	C24.089,20.658,23.516,21.506,23.329,22.742z M22.37,28.142c0.127-0.192,0.219-0.42,0.173-0.783c-0.087,0-0.173,0-0.26,0
	C22.226,27.557,22.058,28.09,22.37,28.142z M21.673,33.021c0.473-0.864,0.345-2.792,0.435-3.745
	C21.726,30.286,21.631,31.585,21.673,33.021z M19.147,39.117c-0.945-2.162-1.51-4.703-1.569-7.752
	C16.947,34.454,17.851,37.39,19.147,39.117z M22.457,39.553c-1.233-2.163-2.033-4.76-2.265-7.926
	C19.752,34.913,20.647,37.98,22.457,39.553z M22.979,44.434c-3.801-2.413-6.14-6.288-6.356-12.284
	C15.967,38.325,19.02,42.6,22.979,44.434z M26.203,41.732c-2.435-1.719-3.592-4.714-4.53-7.928
	C22.131,37.501,23.318,40.465,26.203,41.732z"/>
<path fill-rule="evenodd" clip-rule="evenodd" fill="#B3B3B3" d="M14.529,4.97C14.521,4.865,14.657,4.917,14.529,4.97L14.529,4.97z"
	/>
<path fill-rule="evenodd" clip-rule="evenodd" fill="#B3B3B3" d="M24.984,6.015C24.622,6.099,24.966,5.754,24.984,6.015
	L24.984,6.015z"/>
<path fill-rule="evenodd" clip-rule="evenodd" fill="#666666" d="M24.722,9.761c-0.744-0.81-3.221-1.35-4.094-0.261
	C20.445,6.842,24.866,6.884,24.722,9.761z"/>
<path fill-rule="evenodd" clip-rule="evenodd" fill="#666666" d="M24.635,12.549c0.107-1.857-3.436-2.294-4.007-0.697
	C19.79,7.989,26.125,9.161,24.635,12.549z"/>
<g>
	<path fill-rule="evenodd" clip-rule="evenodd" fill="#E6E6E6" d="M22.108,16.817c-0.342,1.119-2.453,1.021-3.31,0.436
		c0.337,0.791,1.587,1.003,2.528,0.696c-1.62,1.384-3.241-0.755-4.618-0.696c1.294,1.191,2.755,2.624,2.175,5.401
		c0.649-0.729,0.446-2.417,0.174-3.396c1.474,1.966,0.126,4.982-0.958,6.446c0.983-0.879,2.138-2.334,2.005-4.617
		c1.233,4.211-2.064,6.552-4.968,7.751c0.323-0.78,0.994-1.213,1.484-1.828c1.354-3.86-3.395-3.624-3.137-7.229
		c-0.562,0.987,0.3,2.474,0.521,2.961c-1.273-0.305-1.542-1.946-1.566-3.224c-0.586,0.403-0.162,1.85,0.087,2.264
		c-0.758-0.198-1.094-1.577-1.742-2.176c-0.249,0.944,0.508,1.641,0.871,2.264c0.129,2.31-0.27,5.201-3.396,4.791
		c2.637-0.953,0.754-3.687,0.348-5.662c0.111-0.644,0.432-1.076,0.522-1.741c-0.76,0.429-1.079,1.671-0.787,2.875
		c-1.512-1.395,0.024-3.92,0.787-5.142c-1,0.425-1.764,1.838-1.831,3.484c-1.096-2.369,1.479-3.63,2.529-4.963
		c-0.87,0.408-2.142,1.168-2.615,2.264c-0.182-2.478,3.508-3.127,2.702-5.662c-0.668,1.428-1.299,3.343-3.748,2.702
		c0.835-0.126,1.68-0.239,1.917-0.96C7.39,14.2,5.708,14.832,4.774,13.943c0.457-0.208,1.402,0.068,1.567-0.436
		c-0.601-0.002-1.702,0.181-2.005-0.522c-0.02-0.717,0.411-0.984,0.96-1.132c0.712,0.153,1.414,0.397,2.264,0.175
		c0.275-0.103,0.484-0.271,0.699-0.436c1.92-3.393,3.716-6.911,7.579-8.364c-0.135,0.36-0.509,0.482-0.612,0.872
		c-2.87,0.875-3.763,3.728-5.053,6.183c-0.126,0.056,0.011,0.107,0,0c1.634-1.587,2.074-4.369,4.355-5.312
		c-1.127,1.92-2.745,3.352-3.049,6.1c0.768-1.004,0.948-2.6,1.742-3.572c-0.116,1.595-1.036,3.142-0.87,5.313
		c0.195,4.539,3.632,5.833,4.966,9.235c-0.267-3.021-3.496-4.576-4.182-7.755C12.693,7.578,15.678,2.86,20.89,1.224
		c-1.518,0.807-3.037,1.609-3.834,3.137c-0.126,0.052,0.01,0.103,0,0c1.517-1.39,3.097-2.713,5.488-3.224
		c0.311-0.028,1.637,0.013,0.786,0.086c-1.248,0.174-2.196,0.651-2.962,1.306c2.455-1.317,7.313-1.477,8.625,1.222
		c-1.568-1.735-5.708-2.333-7.927-0.787c6.884-2.364,11.634,3.514,9.757,10.715c0.696-5.5-0.917-10.523-6.273-10.975
		c-4.392,0.762-7.152,3.573-6.708,8.887c0.477,2.078,1.452,3.657,3.92,3.746c0.468,0.001,0.608-0.322,0.957-0.436
		c0.122,1.641-1.539,1.829-2.959,1.654C20.083,17.153,21.458,17.045,22.108,16.817z M16.708,9.5
		c0.209-2.726,2.372-4.419,3.136-6.012C18.265,4.9,16.521,6.614,16.708,9.5z M15.663,15.86c-1.22-1.804-1.742-5.409-1.044-7.84
		C13.377,10.28,14.128,14.491,15.663,15.86z M16.708,11.156c0.098-0.191,0.222-0.355,0.174-0.698
		c-0.111-0.004-0.121-0.113-0.26-0.087C16.464,10.632,16.401,10.994,16.708,11.156z M18.884,15.947
		c-1.08-1.011-1.807-2.372-2.089-4.182c-0.086,0-0.173,0-0.26,0C16.764,13.652,17.546,15.455,18.884,15.947z M12.266,17.426
		c-0.756-1.141-0.909-3.219-1.134-4.615C10.654,14.581,11.166,16.674,12.266,17.426z"/>
	<path fill-rule="evenodd" clip-rule="evenodd" fill="#E6E6E6" d="M39.62,19.258c-0.354,1.419-1.978,1.566-2.877,2.438
		c1.743-0.377,3.214-1.024,3.658-2.7c0.15,3.313-3.984,3.097-5.747,4.791c2.432-0.993,5.65-1.199,6.359-3.919
		c-0.055,4.128-5.215,3.905-7.929,5.662c2.732-0.605,6.155-1.28,7.842-3.222c-1.438,4.02-8.322,2.599-10.628,5.749
		c2.812-2.268,8.452-1.71,10.715-4.53c-1.824,3.95-8.773,2.252-11.152,5.664c-1.104,1.391-1.942,3.051-2.265,5.225
		c-0.017,1.396-0.117,2.616,0.174,3.833c-1.541-2.46-1.54-6.739-0.348-9.582c-1.333,0.947-1.534,4.196-1.309,6.707
		c1.851,5.207,4.594,9.52,11.15,10.019c-8.033-0.035-12.229-4.672-13.414-11.846c0.715-10.062,9.071-12.476,11.761-20.561
		c0.02-0.833,0-1.625-0.087-2.353c1.438,3.742-1.114,6.693-2.613,8.886c2.154-1.542,4.492-5.089,3.311-9.147
		c2.322,3.945-0.98,8.192-2.79,10.716c2.307-2.079,4.502-4.733,4.096-9.234c1.93,2.554-0.004,6.349-1.48,8.102
		c0.8-0.447,1.264-1.236,1.744-2.004c0.312,0.501,0.361,1.264,0.87,1.569C39.096,19.683,39.321,19.45,39.62,19.258z M37.44,19.954
		c0.189,0.1,0.357,0.226,0.697,0.174c-0.166-0.299-0.522-0.407-0.697-0.697C37.44,19.606,37.44,19.78,37.44,19.954z M37.265,20.475
		c-0.008-0.308,0.064-0.701-0.259-0.695C36.867,19.964,36.811,20.621,37.265,20.475z M25.854,29.799
		c1.31-3.946,4.037-6.476,6.533-9.235C29.405,22.43,26.508,25.601,25.854,29.799z M34.045,22.307
		c0.646-0.203,1.637-0.966,1.392-1.483C35.019,21.364,34.339,21.644,34.045,22.307z M28.121,27.358
		c1.253-2.171,3.249-3.604,4.702-5.577C30.939,22.92,28.887,25.106,28.121,27.358z M28.902,27.707
		C28.776,27.76,28.913,27.812,28.902,27.707c1.343-1.826,3.122-3.21,4.618-4.878C31.624,24.095,29.887,25.525,28.902,27.707z
		 M32.475,24.832c0.653-0.218,1.291-0.451,1.57-1.046C33.406,24.022,32.833,24.319,32.475,24.832z M31.778,25.966
		c0.114,0,0.233,0,0.35,0c0-0.119,0-0.233,0-0.349C31.854,25.575,31.739,25.694,31.778,25.966z M29.339,28.838
		c-0.911,0.811-2.022,2.325-1.655,3.834C27.735,31.008,29.19,29.826,29.339,28.838z M31.082,43.647
		c-3.756-2.349-5.953-6.596-5.838-12.542C23.95,36.83,27.149,42.021,31.082,43.647z"/>
</g>
<path fill-rule="evenodd" clip-rule="evenodd" fill="#B3B3B3" d="M35.524,10.632C35.264,10.615,35.608,10.27,35.524,10.632
	L35.524,10.632z"/>
<path fill-rule="evenodd" clip-rule="evenodd" fill="#666666" d="M23.851,13.769c-0.197-0.914-2.036-1.236-2.438-0.262
	C19.972,10.729,25.548,10.753,23.851,13.769z"/>
<path fill-rule="evenodd" clip-rule="evenodd" fill="#B3B3B3" d="M19.321,12.723C19.582,12.741,19.238,13.085,19.321,12.723
	L19.321,12.723z"/>
<path fill-rule="evenodd" clip-rule="evenodd" fill="#666666" d="M23.068,13.419c0.282,0.233,0.319,0.724,0.086,1.045
	c-0.193-0.099-0.29-0.292-0.525-0.349c-0.19,0.07-0.219,0.305-0.346,0.435C21.648,14.16,22.044,13.142,23.068,13.419z"/>
<path fill-rule="evenodd" clip-rule="evenodd" fill="#B3B3B3" d="M30.646,13.855C30.746,13.51,30.746,14.2,30.646,13.855
	L30.646,13.855z"/>
<path fill-rule="evenodd" clip-rule="evenodd" fill="#666666" d="M31.256,14.728c0.457,0.676,1.136,1.128,2.439,0.958
	C33.4,17.091,30.65,16.08,31.256,14.728z"/>
<path fill-rule="evenodd" clip-rule="evenodd" fill="#666666" d="M30.734,15.947c0.411,0.663,1.216,0.931,2.264,0.958
	C32.397,17.753,30.18,17.094,30.734,15.947z"/>
<path fill-rule="evenodd" clip-rule="evenodd" fill="#B3B3B3" d="M22.108,16.817C22.1,16.712,22.235,16.764,22.108,16.817
	L22.108,16.817z"/>
<path fill-rule="evenodd" clip-rule="evenodd" fill="#666666" d="M30.209,17.166c0.476,0.454,1.11,0.75,2.092,0.696
	C31.833,18.599,30.094,18.119,30.209,17.166z"/>
<path fill-rule="evenodd" clip-rule="evenodd" fill="#666666" d="M29.687,17.949c0.418,0.484,1.021,0.781,1.831,0.873
	c-0.369,0.834-1.794,0.268-2.092-0.262C29.381,18.222,29.65,18.201,29.687,17.949z"/>
<path fill-rule="evenodd" clip-rule="evenodd" fill="#666666" d="M28.902,19.083c0.57,0.244,0.956,0.669,1.743,0.697
	C30.317,20.463,28.795,19.928,28.902,19.083z"/>
<path fill-rule="evenodd" clip-rule="evenodd" fill="#B3B3B3" d="M19.058,19.258C18.954,19.265,19.006,19.131,19.058,19.258
	L19.058,19.258z"/>
<path fill-rule="evenodd" clip-rule="evenodd" fill="#B3B3B3" d="M21.326,19.171c0.314,0.587-0.276,1.748-0.35,2.524
	C20.705,21.081,21.262,20.007,21.326,19.171z"/>
<path fill-rule="evenodd" clip-rule="evenodd" fill="#B3B3B3" d="M39.62,19.258C39.609,19.151,39.745,19.203,39.62,19.258
	L39.62,19.258z"/>
<path fill-rule="evenodd" clip-rule="evenodd" fill="#B3B3B3" d="M20.542,19.518c0.436,0.1-0.056,0.593,0.086,0.957
	C20.25,20.344,20.579,19.842,20.542,19.518z"/>
<path fill-rule="evenodd" clip-rule="evenodd" fill="#666666" d="M28.381,19.954c0.469,0.288,0.836,0.676,1.568,0.697
	C29.519,21.019,28.062,20.626,28.381,19.954z"/>
<path fill-rule="evenodd" clip-rule="evenodd" fill="#666666" d="M27.858,20.824c0.409,0.201,0.72,0.502,1.394,0.436
	C29.003,21.787,27.663,21.567,27.858,20.824z"/>
<path fill-rule="evenodd" clip-rule="evenodd" fill="#666666" d="M27.249,21.608c0.476,0.105,0.662,0.5,1.219,0.524
	c-0.249,0.496-0.969,0.086-1.305-0.087C27.091,21.797,27.285,21.819,27.249,21.608z"/>
<path fill-rule="evenodd" clip-rule="evenodd" fill="#B3B3B3" d="M40.927,22.307C40.918,22.201,41.052,22.251,40.927,22.307
	L40.927,22.307z"/>
<path fill-rule="evenodd" clip-rule="evenodd" fill="#666666" d="M26.812,22.481c0.254,0.208,0.641,0.289,1.046,0.347
	c0.063,0.268-0.239,0.167-0.175,0.435c-0.531,0.095-0.721-0.151-1.044-0.261C26.617,22.748,26.836,22.734,26.812,22.481z"/>
<path fill-rule="evenodd" clip-rule="evenodd" fill="#B3B3B3" d="M41.187,23.178C41.178,23.072,41.312,23.124,41.187,23.178
	L41.187,23.178z"/>
<path fill-rule="evenodd" clip-rule="evenodd" fill="#B3B3B3" d="M41.187,23.178c-0.02,0.068-0.003,0.172-0.088,0.173
	C41.118,23.283,41.104,23.18,41.187,23.178z"/>
<path fill-rule="evenodd" clip-rule="evenodd" fill="#B3B3B3" d="M41.099,23.351c-0.019,0.067-0.001,0.173-0.085,0.174
	C41.032,23.458,41.016,23.353,41.099,23.351z"/>
<path fill-rule="evenodd" clip-rule="evenodd" fill="#666666" d="M26.291,23.438c0.367,0.039,0.469,0.342,0.958,0.261
	C27.157,24.243,26.269,23.823,26.291,23.438z"/>
<path fill-rule="evenodd" clip-rule="evenodd" fill="#666666" d="M25.942,24.048c0.214,0.193,0.469,0.343,0.785,0.437
	C26.547,25.147,25.41,24.373,25.942,24.048z"/>
<path fill-rule="evenodd" clip-rule="evenodd" fill="#666666" d="M25.419,24.919c0.301,0.077,0.542,0.211,0.784,0.349
	c0.044,0.444-0.771,0.273-0.872,0.086C25.26,25.108,25.455,25.129,25.419,24.919z"/>
<path fill-rule="evenodd" clip-rule="evenodd" fill="#666666" d="M24.984,25.879c0.208,0.138,0.501,0.194,0.695,0.347
	c0.051,0.31-0.255,0.265-0.521,0.261C25.085,26.299,24.932,26.19,24.984,25.879z"/>
<path fill-rule="evenodd" clip-rule="evenodd" fill="#666666" d="M24.635,26.749c0.236,0.112,0.537,0.158,0.609,0.436
	C24.86,27.221,24.525,27.208,24.635,26.749z"/>
<path fill-rule="evenodd" clip-rule="evenodd" fill="#666666" d="M24.897,27.707c-0.122,0.111-0.039,0.428-0.262,0.435
	c-0.273,0.04-0.28-0.186-0.261-0.435C24.529,27.543,24.595,27.778,24.897,27.707z"/>
<path fill-rule="evenodd" clip-rule="evenodd" fill="#666666" d="M24.113,28.49c0.156-0.011,0.183,0.107,0.347,0.087
	c0.018,0.25,0.012,0.478-0.261,0.435C24.1,28.91,24.102,28.707,24.113,28.49z"/>
<path fill-rule="evenodd" clip-rule="evenodd" fill="#B3B3B3" d="M15.138,28.838C15.148,28.944,15.012,28.895,15.138,28.838
	L15.138,28.838z"/>
<path fill-rule="evenodd" clip-rule="evenodd" fill="#666666" d="M23.938,29.449c0.087,0,0.175,0,0.261,0
	c0.012,0.156-0.106,0.185-0.086,0.35C23.995,29.74,23.95,29.61,23.938,29.449z"/>
<path fill-rule="evenodd" clip-rule="evenodd" fill="#666666" d="M23.764,30.233c0.395-0.004,0.027,0.403,0,0.523
	C23.519,30.667,23.789,30.386,23.764,30.233z"/>
<path fill-rule="evenodd" clip-rule="evenodd" fill="#666666" d="M23.59,31.191c0.309,0.018-0.046,0.729-0.086,0.958
	C23.285,31.928,23.541,31.438,23.59,31.191z"/>
<path fill-rule="evenodd" clip-rule="evenodd" fill="#B3B3B3" d="M36.047,46.175C36.15,45.91,36.508,46.27,36.047,46.175
	L36.047,46.175z"/>
<path fill-rule="evenodd" clip-rule="evenodd" fill="#B3B3B3" d="M39.53,46.35C39.496,46.313,39.588,46.405,39.53,46.35L39.53,46.35
	z"/>
<path fill-rule="evenodd" clip-rule="evenodd" fill="#B3B3B3" d="M39.184,46.436C39.2,46.175,39.544,46.519,39.184,46.436
	L39.184,46.436z"/>
<path fill-rule="evenodd" clip-rule="evenodd" fill="#B3B3B3" d="M36.047,46.61C36.328,46.344,36.697,46.714,36.047,46.61
	L36.047,46.61z"/>
</svg>
