<?xml version="1.0" encoding="utf-8"?>
<!-- Generator: Adobe Illustrator 16.0.0, SVG Export Plug-In . SVG Version: 6.00 Build 0)  -->
<!DOCTYPE svg PUBLIC "-//W3C//DTD SVG 1.1//EN" "http://www.w3.org/Graphics/SVG/1.1/DTD/svg11.dtd">
<svg version="1.1" id="Layer_1" xmlns="http://www.w3.org/2000/svg" xmlns:xlink="http://www.w3.org/1999/xlink" x="0px" y="0px"
	 width="50px" height="50px" viewBox="0 0 50 50" enable-background="new 0 0 50 50" xml:space="preserve">
<path d="M24.396,48.98c0.052-0.246,0.146-0.15,0.178-0.388c0.035-0.245-0.091-0.796-0.178-1.097
	c-0.129-0.454-0.408-0.93-0.623-1.365c-0.213-0.436-0.497-0.857-0.742-1.218c-0.253-0.37-0.536-0.793-0.832-1.127
	c-0.15-0.17-0.359-0.308-0.505-0.476c-0.602-0.697-1.327-1.316-2.226-1.811c-0.64-0.354-1.285-0.77-1.96-1.068
	c-0.723-0.324-1.422-0.606-2.077-0.98c-0.327-0.188-0.653-0.368-0.98-0.534c-0.338-0.173-0.604-0.433-0.919-0.594
	c-0.241-0.125-0.562-0.153-0.772-0.267c-0.229-0.125-0.442-0.353-0.683-0.506c-0.706-0.451-1.305-0.979-1.899-1.574
	c-0.78-0.778-1.57-1.56-2.197-2.463c-0.99-1.431-1.557-3.039-2.167-4.839c-0.209-0.618-0.276-1.229-0.416-1.901
	c-0.023-0.108-0.131-0.287-0.149-0.414c-0.021-0.159,0.061-0.336,0.06-0.504c-0.004-0.654-0.207-1.374-0.208-2.02
	c-0.001-0.275,0.074-0.559,0.088-0.832c0.05-0.89,0.016-1.768,0.12-2.582c0.068-0.542,0.164-1.047,0.267-1.544
	c0.098-0.475,0.323-0.907,0.416-1.366c0.025-0.127,0-0.287,0.03-0.414c0.066-0.286,0.282-0.628,0.445-0.921
	c0.172-0.31,0.316-0.631,0.444-0.919c0.849-1.91,1.938-3.58,3.147-5.047c0.812-0.986,1.715-1.89,2.79-2.672
	c0.517-0.377,1.106-0.729,1.663-1.068c0.577-0.352,1.124-0.746,1.692-1.009c1.521-0.706,3.38-0.936,5.314-1.218
	c0.599-0.086,1.204-0.26,1.781-0.386c0.669-0.145,1.358-0.343,2.019-0.534c1.195-0.346,2.085-0.748,2.849-1.603
	c0.261-0.592,0.406-1.296,0.979-1.573c0.133-0.037,0.438-0.059,0.565,0c0.63,0.302,0.731,1.13,1.04,1.752
	c-0.048,0.246,0.064,0.487,0.089,0.742c0.041,0.463-0.122,0.933,0.028,1.277c-0.416,1.202-0.649,2.384-1.307,3.325
	c-0.181,0.261-0.461,0.52-0.713,0.771c-0.494,0.497-0.92,0.979-1.482,1.454c-1.242,1.05-3.028,1.997-4.75,2.583
	c-1.36,0.462-2.715,1.178-4.126,1.751c-1.396,0.567-2.812,1.086-4.008,1.841c-0.243,0.154-0.458,0.368-0.712,0.534
	c-0.736,0.481-1.523,0.917-2.167,1.514c-0.409,0.38-0.842,0.779-1.217,1.247c-0.353,0.441-0.843,0.87-1.099,1.336
	c-0.093,0.171-0.145,0.382-0.237,0.563c-0.173,0.339-0.363,0.703-0.534,1.069c-0.169,0.363-0.424,0.698-0.534,1.039
	c-0.12,0.369-0.134,0.898-0.297,1.424c-0.269,0.87-0.446,1.86-0.268,2.968c0.152,0.939,0.47,1.975,1.128,2.464
	c0.514,0.384,1.373,0.763,2.079,1.069c0.696,0.305,1.502,0.626,2.314,0.8c1.759,0.379,3.771,0.726,5.671,0.595
	c0.158-0.01,0.284-0.048,0.415-0.059c3.83-0.286,6.126,1.598,7.986,3.234c0.304,0.533,0.869,0.882,1.246,1.396
	c0.108,0.146,0.151,0.353,0.269,0.503c0.104,0.139,0.227,0.221,0.324,0.357c0.262,0.363,0.403,0.82,0.625,1.308
	c0.127,0.278,0.318,0.527,0.445,0.8c0.134,0.288,0.227,0.602,0.355,0.891c0.274,0.607,0.688,1.242,0.652,2.17
	c-0.005,0.131,0.02,0.289-0.119,0.385c0.348,0.566-0.121,1.288-0.385,1.691c-0.244,0.369-0.419,0.715-0.684,1.067
	c-0.385,0.511-0.643,1.015-1.129,1.485c-0.557,0.535-0.899,0.781-1.543,1.188c-0.385,0.24-0.651,0.516-1.157,0.683
	c-0.124,0.042-0.328,0.077-0.536,0.12c-0.511,0.1-0.574,0.219-0.771-0.18c-0.05-0.103,0.015-0.117-0.059-0.209
	C24.494,49.037,24.435,49.074,24.396,48.98z M28.88,0.98c0.038-0.141,0.267-0.248,0.208-0.386C28.995,0.68,28.864,0.884,28.88,0.98z
	 M28.672,1.573c0.328-0.215,0.768-0.479,0.771-0.92C29.326,1.102,28.742,1.082,28.672,1.573z M29.682,1.099
	C29.367,1.342,29.091,1.684,28.79,1.9c-0.151,0.109-0.351,0.154-0.505,0.267c-0.098,0.072-0.167,0.218-0.266,0.327
	c-0.084,0.09-0.268,0.165-0.209,0.268c0.342-0.151,0.819-0.262,1.246-0.564c0.367-0.261,1.215-0.874,0.684-1.337
	C29.714,0.933,29.672,0.989,29.682,1.099z M27.336,3.384c0.916-0.192,1.872-0.345,2.671-0.653c0.089-0.333,0.024-0.649-0.028-0.979
	C29.479,2.676,28.415,3.039,27.336,3.384z M29.83,3.236c-0.071,0.023-0.13,0.078-0.18,0.089c-0.764,0.174-1.869,0.556-2.82,0.623
	c-1.342,0.097-2.743,0.107-3.858,0.505c1.324,0.061,2.833,0.125,4.125,0c0.887-0.086,1.678-0.401,2.315-0.742
	c0.17-0.091,0.651-0.145,0.444-0.475C29.848,3.236,29.84,3.236,29.83,3.236z M24.308,4.958c-1.678-0.11-3.277-0.054-4.69,0.267
	c-2.063,0.469-4,0.89-5.314,1.96c-0.016,0-0.033,0.023,0,0.029c0.516-0.251,1.11-0.41,1.722-0.593
	c0.587-0.177,1.202-0.376,1.84-0.504c0.729-0.147,1.548-0.186,2.345-0.297c0.815-0.114,1.623-0.235,2.434-0.238
	c1.55-0.005,3.132,0.046,4.512-0.267c0.521-0.119,1.043-0.319,1.515-0.505c0.225-0.088,0.426-0.237,0.652-0.355
	c0.201-0.104,0.619-0.113,0.595-0.445C28.415,4.562,26.438,5.097,24.308,4.958z M29.414,5.254c-0.135,0.087-0.311,0.15-0.443,0.237
	c-0.312,0.198-0.632,0.281-0.951,0.446c-0.543,0.277-0.863,0.698-1.455,0.919c-0.694,0.26-1.388,0.459-2.107,0.653
	c-0.733,0.198-1.487,0.233-2.405,0.357c-0.31,0.042-0.588,0.171-0.891,0.207c-1.011,0.123-2.143,0.093-3.087,0.238
	c-0.499,0.077-1.003,0.068-1.483,0.119c-0.302,0.032-0.617,0.148-0.921,0.208c-0.323,0.063-0.646,0.109-0.95,0.178
	c-1.533,0.351-2.713,0.981-3.71,1.811c-0.624,0.519-1.228,1.016-1.811,1.484c-0.11,0.248-0.385,0.487-0.416,0.713
	c1.227-1.5,3.111-2.398,5.224-2.998c0.394-0.112,0.784-0.127,1.218-0.208c0.281-0.052,0.522-0.167,0.801-0.207
	c0.303-0.045,0.642-0.044,0.98-0.06c1.476-0.068,2.99-0.01,4.482-0.12c0.992-0.071,2.169-0.385,3.117-0.623
	c0.666-0.166,1.348-0.452,1.959-0.683c1.545-0.584,2.604-1.465,3.205-2.88C29.615,5,29.531,5.178,29.414,5.254z M12.849,8.906
	c1.043-0.421,2.423-0.831,3.681-0.92c0.322-0.023,0.651,0.019,0.979,0c0.67-0.039,1.345-0.189,2.019-0.208
	c0.634-0.018,1.337,0.051,1.959-0.06c0.175-0.03,0.324-0.119,0.504-0.148c0.902-0.147,1.766-0.136,2.554-0.385
	c0.359-0.115,0.735-0.244,1.068-0.387c0.373-0.161,0.765-0.247,1.068-0.415c0.295-0.163,0.637-0.498,0.92-0.684
	c0.104-0.067,0.278-0.161,0.238-0.208c-1.531,0.544-3.474,0.448-5.196,0.446c-1.42-0.002-2.908,0.351-4.244,0.534
	c-0.405,0.056-0.762,0.2-1.158,0.296c-1.215,0.297-2.414,0.653-3.384,1.099c-0.843,0.387-1.623,1.197-2.227,1.721
	C11.999,9.364,12.399,9.087,12.849,8.906z M23.388,9.351c-1.163,0.215-2.338,0.381-3.711,0.327c-0.62-0.025-1.209,0.033-1.811,0.059
	c-0.521,0.023-1.022-0.007-1.514,0.03c-0.328,0.025-0.64,0.155-0.979,0.238c-0.354,0.085-0.74,0.099-1.069,0.178
	c-0.435,0.105-0.88,0.274-1.276,0.416c-1.371,0.49-2.534,1.23-3.415,2.107c0.394-0.365,0.943-0.467,1.454-0.682
	c0.37-0.155,0.707-0.418,1.1-0.564c0.296-0.11,0.588-0.218,0.89-0.327c0.275-0.099,0.621-0.221,0.92-0.178
	c-0.139,0.267-0.48,0.238-0.713,0.326c-0.764,0.293-1.448,0.749-2.107,1.04c-0.167,0.074-0.358,0.1-0.534,0.178
	c-0.935,0.416-1.674,1.171-2.287,1.812c0.769-0.609,1.735-0.917,2.73-1.247c0.336-0.111,0.653-0.252,0.98-0.357
	c1.3-0.414,2.777-0.628,4.274-0.92c1.427-0.278,2.815-0.814,4.186-1.009c1.537-0.218,2.993-0.539,4.274-0.95
	c-1.534,0.387-3.596,0.485-5.254,0.444c-0.904-0.021-1.877,0.202-2.82,0.297c-0.501,0.051-1.009,0.02-1.454,0.09
	c-0.238,0.036-0.531,0.301-0.832,0.118c0.287-0.249,0.666-0.137,1.01-0.208c0.191-0.039,0.365-0.137,0.564-0.177
	c0.217-0.045,0.454-0.047,0.683-0.09c0.637-0.12,1.351-0.296,1.93-0.354c0.499-0.052,0.994-0.016,1.484-0.03
	c0.806-0.022,1.6-0.152,2.375-0.208c0.667-0.048,1.092-0.078,1.632-0.178c0.688-0.126,1.196-0.36,1.722-0.534
	c0.981-0.325,1.812-0.68,2.313-1.307C26.96,8.438,25.105,9.033,23.388,9.351z M11.75,14.13c0.915-0.152,1.803-0.182,2.672-0.326
	c0.257-0.042,0.526-0.174,0.802-0.237c0.902-0.208,1.774-0.366,2.583-0.624c0.512-0.163,1.034-0.41,1.572-0.593
	c0.534-0.181,1.109-0.311,1.693-0.504c0.227-0.076,0.477-0.236,0.771-0.327c0.798-0.244,1.55-0.447,2.139-0.86
	c-0.123,0.085,0.202-0.058,0.029-0.09c-0.007-0.001-0.021-0.001-0.029,0c-0.371,0.084-0.746,0.23-1.129,0.298
	c-0.371,0.065-0.73,0.141-1.098,0.237c-0.739,0.194-1.545,0.199-2.315,0.356c-0.607,0.125-1.177,0.332-1.781,0.446
	c-1.333,0.249-2.596,0.369-3.77,0.682c-0.914,0.244-1.803,0.632-2.583,0.921c-0.324,0.12-0.66,0.186-0.979,0.296
	c-0.782,0.273-1.597,0.782-2.168,1.247C8.1,15.098,7.96,15.151,7.981,15.259C9.109,14.75,10.398,14.356,11.75,14.13z M8.694,16.119
	c0.533-0.193,1.151-0.271,1.75-0.416c2.617-0.633,5.36-1.192,7.362-2.345c-0.021,0-0.04,0-0.06,0
	c-1.352,0.295-2.851,0.57-4.185,0.86c-0.548,0.12-1.135,0.15-1.722,0.268c-0.483,0.097-1.021,0.296-1.543,0.445
	c-1.541,0.439-3.223,0.846-3.651,2.286C7.257,16.872,7.958,16.385,8.694,16.119z M8.337,18.167c0.381-0.242,0.701-0.473,1.099-0.654
	c0.413-0.186,0.833-0.317,1.277-0.504c0.269-0.113,0.53-0.336,0.801-0.475c0.293-0.15,0.573-0.27,0.801-0.445
	c-0.276,0.024-0.462,0.185-0.713,0.267c-0.442,0.143-0.892,0.237-1.306,0.356c-0.445,0.128-0.827,0.235-1.247,0.415
	c-0.768,0.331-1.478,0.746-2.108,1.247c-0.169,0.136-0.4,0.368-0.534,0.564c-0.222,0.326-0.446,0.74-0.534,1.157
	C6.493,19.316,7.417,18.75,8.337,18.167z M6.318,18.138c0.059,0.188-0.137,0.277-0.088,0.356c0.315-0.487,0.91-0.655,1.424-0.92
	c0.27-0.139,0.501-0.349,0.771-0.504c0.696-0.4,1.524-0.606,2.316-0.921C8.887,16.432,7.46,17.143,6.318,18.138z M8.188,18.642
	C7.045,19.375,6,20.182,5.724,21.73c0.246-0.181,0.384-0.476,0.594-0.712c0.218-0.246,0.396-0.552,0.623-0.772
	c0.13-0.125,0.318-0.218,0.475-0.355c0.154-0.136,0.311-0.263,0.475-0.386c0.317-0.239,0.636-0.536,0.95-0.742
	c0.685-0.45,1.455-0.774,2.019-1.306C9.929,17.765,8.997,18.125,8.188,18.642z M8.456,19.503c-0.438,0.307-0.94,0.627-1.306,1.009
	c-0.186,0.194-0.357,0.495-0.534,0.742c-0.328,0.458-0.491,0.758-0.712,1.277c-0.152,0.356-0.31,0.749-0.178,1.247
	c0.792-2.295,2.749-3.584,4.186-5.136C9.423,18.878,8.933,19.168,8.456,19.503z M6.882,22.294c-0.223,0.305-0.35,0.495-0.534,0.861
	c-0.181,0.359-0.198,0.594-0.297,1.039c-0.101,0.45-0.462,0.93-0.237,1.424c0.404-1.911,1.491-3.297,2.315-4.689
	C7.682,21.33,7.241,21.807,6.882,22.294z M6.467,24.372C6.25,25.25,5.966,26.585,6.17,27.607c0.155-1.053,0.309-1.977,0.594-2.851
	c0.241-0.742,0.754-1.386,0.772-2.196C7.159,23.143,6.655,23.611,6.467,24.372z M6.586,27.607c-0.055,1.235,0.48,2.349,0.682,3.324
	c0.036,0.129-0.097,0.168-0.029,0.237c0.129,0.267,0.232,0.56,0.415,0.772c-0.092-1.637-0.712-2.865-0.831-4.426
	c-0.059-0.775,0.085-1.873,0.118-2.493C6.585,25.794,6.626,26.702,6.586,27.607z M7.744,31.438c0.206,1.693,1.224,2.496,2.107,3.531
	c-0.185-0.49-0.571-0.746-0.802-1.156c-0.553-0.984-0.997-2.004-1.396-3.178C7.745,30.908,7.707,31.135,7.744,31.438z
	 M11.217,32.328c0.283,0.135,0.556,0.372,0.831,0.477c0.379,0.139,0.856,0.225,1.307,0.324c0.433,0.1,0.887,0.24,1.335,0.325
	c0.748,0.146,1.547,0.071,2.345,0.149c0.516,0.052,1.026,0.188,1.543,0.209c0.603,0.021,1.213-0.049,1.811,0
	c0.984,0.076,2.004,0.156,2.85,0.028c-0.455-0.007-0.888-0.329-1.396-0.388c-0.466-0.051-0.996,0.062-1.513,0.031
	c-0.946-0.06-2.097-0.239-2.909-0.297c-0.207-0.016-1.356,0.102-1.335-0.119c0.015-0.166,0.379-0.047,0.504-0.062
	c0.604-0.055,1.555-0.008,2.136,0.03c1.051,0.07,2.256-0.123,3.176-0.03c0.377,0.041,0.665,0.265,0.98,0.239
	c-1.053-0.426-2.436-0.659-3.888-0.534c-2.956,0.248-5.897-0.369-7.927-1.099c0.472,0.244,1.026,0.476,1.514,0.652
	c0.195,0.07,0.4,0.08,0.595,0.146c0.121,0.044,0.23,0.168,0.356,0.21c0.203,0.063,0.466,0.054,0.712,0.117
	c0.217,0.057,0.455,0.174,0.653,0.206c0.357,0.064,0.76,0.018,1.068,0.24c-0.118,0.172-0.343,0.073-0.505,0.06
	c-0.204-0.019-0.437-0.002-0.622-0.03c-0.293-0.044-0.597-0.193-0.892-0.238c-0.171-0.024-0.354,0.01-0.505-0.029
	c-0.143-0.033-0.275-0.141-0.415-0.176c-0.465-0.121-0.777-0.198-1.188-0.358c-0.283-0.108-0.597-0.188-0.801-0.295
	c-0.151-0.081-0.267-0.237-0.415-0.326c-0.593-0.356-1.305-0.797-1.692-1.101C9.525,31.391,10.336,31.906,11.217,32.328z
	 M8.486,32.03c0.226,1.335,1.417,2.11,2.048,3.178c-0.07-0.378-0.425-0.625-0.445-0.95c1.178,1.088,1.749,2.781,3.325,3.473
	c-0.396-0.485-0.781-0.981-1.187-1.455c-0.419-0.483-0.757-0.993-1.159-1.481c-0.25-0.308-0.545-0.562-0.801-0.862
	c-0.258-0.303-0.438-0.685-0.683-1.01c-0.495-0.654-0.822-1.39-1.247-2.138c0.1,0.534,0.419,0.849,0.535,1.364
	c0.199,0.113,0.182,0.332,0.267,0.507c0.211,0.432,0.593,0.765,0.742,1.243C9.298,33.396,8.854,32.752,8.486,32.03z M9.703,32.238
	c0.517,0.63,1.207,0.897,1.989,1.275c0.157,0.076,0.276,0.209,0.416,0.27c0.23,0.095,0.527,0.205,0.801,0.296
	c0.34,0.11,0.788,0.221,1.127,0.237c0.166,0.007,0.34-0.037,0.505-0.028c0.215,0.01,0.438,0.106,0.653,0.116
	c1.298,0.053,2.557,0.109,3.74,0.209c0.284,0.023,0.594,0.039,0.832,0.18c-1.688,0.141-3.686,0.061-5.314-0.21
	c-1.64,0.124-2.907-0.79-4.096-1.216c0.99,0.812,1.994,1.41,3.384,1.81c1.09,0.313,2.555,0.445,4.007,0.356
	c0.452-0.027,0.907-0.145,1.366-0.18c0.938-0.068,1.816-0.174,2.73-0.115c1.575,0.095,3.341,0.443,4.306,1.096
	c0.687,0.467,1.199,1.092,1.899,1.544c-0.362-0.751-0.911-1.222-1.483-1.72c-0.191-0.166-0.347-0.402-0.535-0.536
	c-0.622-0.438-1.483-0.474-2.375-0.563c-0.326-0.031-0.779-0.098-1.039-0.09c-0.262,0.01-0.618,0.139-0.831-0.089
	c0.678,0.087,1.434-0.103,2.137-0.03c0.146,0.019,0.282,0.113,0.415,0.119c0.22,0.012,0.396-0.109,0.595-0.061
	c-0.518-0.206-1-0.561-1.574-0.65c-0.943-0.148-1.996-0.209-3.027-0.209c-0.905,0-1.814,0.141-2.702,0.061
	c-0.256-0.022-0.492-0.114-0.742-0.12c-0.579-0.013-1.125,0.046-1.662,0c-0.563-0.044-1.11-0.24-1.663-0.354
	c-0.571-0.119-1.15-0.22-1.633-0.386c-0.246-0.085-0.45-0.286-0.683-0.416c-0.761-0.426-1.454-0.724-2.019-1.248
	C9.438,31.768,9.527,32.025,9.703,32.238z M26.713,37.434c-1.131-1.166-3.104-1.646-5.285-1.662
	c0.295,0.071,0.651,0.082,0.832,0.268c-0.551,0.236-1.117-0.038-1.692-0.089c-0.697-0.062-1.564-0.086-2.256,0
	c-0.199,0.024-0.398,0.151-0.594,0.178c-0.465,0.063-0.937-0.073-1.336,0.031c0.309,0.098,0.546,0.235,0.861,0.266
	c1.967,0.185,3.988-0.041,5.907,0.326c0.612,0.116,1.193,0.344,1.782,0.563c0.572,0.218,1.234,0.431,1.632,0.744
	c0.252,0.195,0.418,0.637,0.684,0.949c0.104,0.123,0.253,0.192,0.327,0.295c0.323,0.459,0.567,1.08,0.801,1.694
	c0.251,0.66,0.437,1.351,0.474,2.047c0.019,0.291-0.063,0.567-0.089,0.86c-0.053,0.72-0.114,1.078-0.296,1.634
	c-0.352,1.078-0.949,1.706-1.515,2.465c0.626-0.528,1.28-1.021,1.78-1.724c0.893-1.254,1.03-3.375,0.595-5.254
	c-0.521-0.563-0.71-1.402-1.128-2.019c-0.124-0.183-0.321-0.461-0.506-0.595c-0.156-0.114-0.434-0.193-0.651-0.327
	c-0.203-0.121-0.376-0.308-0.563-0.416c-0.109-0.062-0.267-0.082-0.387-0.146c-0.188-0.107-0.343-0.287-0.505-0.356
	c-0.148-0.065-0.321-0.06-0.474-0.119c-0.28-0.108-0.513-0.338-0.802-0.444c-0.296-0.11-0.594-0.121-0.86-0.299
	C24.72,36.402,25.723,37.064,26.713,37.434z M14.749,36.038c-0.172-0.065-0.396-0.235-0.534-0.235
	C14.392,35.859,14.586,36.062,14.749,36.038z M13.681,36.188c-0.209-0.078-0.397-0.334-0.564-0.356
	C13.293,35.93,13.675,36.289,13.681,36.188z M15.669,36.453c0-0.081-0.199-0.114-0.237-0.061
	C15.549,36.375,15.551,36.473,15.669,36.453z M16.441,36.632c-0.185-0.032-0.418-0.174-0.563-0.149
	C16.033,36.545,16.284,36.671,16.441,36.632z M18.727,37.225c0.31,0.045,0.649,0.027,0.95,0.09c0.241,0.052,0.45,0.179,0.683,0.209
	c0.156,0.02,0.319-0.021,0.475,0c0.287,0.037,0.636,0.203,0.98,0.326c0.727,0.26,1.19,0.515,1.782,0.83
	c0.908,0.485,1.985,1.139,2.316,2.198c0.032,0.104,0.017,0.229,0.06,0.384c0.125,0.461,0.465,0.863,0.594,1.366
	c0.408,1.616,0.197,3.808-0.209,5.226c0.293-0.232,0.422-0.631,0.623-0.98c0.193-0.333,0.485-0.646,0.623-0.979
	c0.104-0.25,0.098-0.572,0.18-0.892c0.074-0.297,0.238-0.565,0.268-0.801c0.077-0.651-0.125-1.067-0.268-1.544
	c-0.182-0.607-0.357-1.029-0.594-1.514c-0.104-0.213-0.217-0.442-0.328-0.652c-0.2-0.391-0.508-0.881-0.771-1.189
	c-0.157-0.185-0.411-0.312-0.653-0.505c-0.581-0.456-1.019-0.819-1.722-1.098c-1.797-0.712-4.307-0.737-6.59-0.802
	C17.717,36.967,18.203,37.154,18.727,37.225z M15.491,38.266c0.597,0.432,1.182,0.82,1.781,1.217
	c0.303,0.201,0.637,0.379,0.921,0.593c0.188,0.143,0.316,0.364,0.504,0.505c0.157,0.119,0.367,0.146,0.535,0.238
	c0.41,0.23,0.863,0.508,1.276,0.801c0.397,0.283,0.86,0.596,1.187,0.92c0.746,0.74,1.297,1.564,1.959,2.404
	c-0.32-0.729-0.763-1.264-1.158-1.898c-0.275-0.445-0.612-0.846-0.919-1.247c-0.656-0.854-1.35-1.509-2.257-2.078
	c-0.774-0.483-1.725-0.89-2.553-1.276c-0.285-0.131-0.526-0.332-0.802-0.474c-0.7-0.36-1.491-0.562-2.137-1.04
	C14.296,37.48,14.906,37.84,15.491,38.266z M18.935,38.324c0.394,0.185,0.612,0.326,0.95,0.533c0.984,0.604,1.962,1.257,2.761,2.021
	c0.333,0.313,0.696,0.67,0.92,1.009c0.506,0.756,0.878,1.657,1.247,2.551c0.132,0.323,0.172,0.652,0.267,1.011
	c0.066,0.25,0.22,0.481,0.267,0.743c0.109,0.608,0.023,1.293,0.178,1.959c0.256-0.936,0.473-2.075,0.356-3.267
	c-0.062-0.642-0.067-1.294-0.178-1.812c-0.181-0.854-0.626-1.73-1.009-2.314c-0.144-0.219-0.351-0.447-0.535-0.623
	c-1.382-1.316-3.539-1.811-5.758-2.285c-0.719-0.152-1.393-0.418-2.079-0.564C17.163,37.654,18.138,37.951,18.935,38.324z
	 M15.225,38.739c0,0.048,0,0.1,0,0.146c0.759,0.39,1.593,0.861,2.404,1.101c-1.328-0.868-2.79-1.764-3.978-2.672
	C14.163,37.802,14.648,38.316,15.225,38.739z M26.415,39.214c0.966,1.504,2.048,3.341,1.751,5.729
	c0.346-1.316,0.309-2.569-0.117-3.771c-0.207-0.582-0.477-1.226-0.802-1.633c-0.158-0.197-0.377-0.347-0.534-0.533
	c-0.178-0.212-0.33-0.42-0.505-0.595c-0.497-0.155-0.928-0.537-1.425-0.594C25.39,38.223,25.867,38.754,26.415,39.214z M25.05,40.52
	c0.408,0.703,0.781,1.562,0.979,2.465c0.136,0.617,0.111,1.283,0.355,1.931c-0.06-0.829,0.002-1.608-0.148-2.286
	c-0.026-0.127-0.111-0.256-0.147-0.385c-0.167-0.625-0.28-1.161-0.534-1.575c-0.343-0.558-0.73-1.041-1.276-1.394
	c-0.196-0.129-0.366-0.286-0.505-0.356c-0.163-0.083-0.416-0.11-0.624-0.209c-0.176-0.081-0.333-0.211-0.534-0.296
	c-0.534-0.227-1.512-0.551-2.019-0.564C22.438,38.438,24.165,38.997,25.05,40.52z M24.694,45.508
	c-0.169-0.688-0.333-1.361-0.535-1.96c-0.236-0.702-0.721-1.325-1.127-1.81c-0.108-0.129-0.166-0.303-0.268-0.416
	c-0.414-0.463-0.981-0.91-1.514-1.276c-0.86-0.594-1.788-1.116-2.731-1.571c-0.434-0.027-0.852-0.233-1.187-0.356
	c-0.08-0.031-0.305-0.146-0.267-0.091c0.819,0.527,1.747,0.765,2.523,1.248c0.146,0.091,0.28,0.244,0.445,0.354
	c0.164,0.111,0.351,0.21,0.504,0.328c0.665,0.518,1.043,1.141,1.573,1.75c0.267,0.309,0.517,0.625,0.713,0.951
	c0.404,0.673,0.917,1.306,1.247,2.048c0.349,0.786,0.625,1.567,0.92,2.405C25.053,46.445,24.802,45.951,24.694,45.508z"/>
<g>
	<path fill="#4D4D4D" d="M11.632,9.588c0.604-0.524,1.383-1.334,2.227-1.721c0.97-0.446,2.168-0.802,3.384-1.099
		c0.396-0.097,0.753-0.241,1.158-0.296c1.336-0.184,2.824-0.537,4.244-0.534c1.722,0.002,3.666,0.098,5.196-0.446
		c0.04,0.046-0.134,0.14-0.237,0.208c-0.283,0.186-0.627,0.521-0.922,0.684c-0.303,0.168-0.693,0.254-1.067,0.415
		c-0.333,0.143-0.709,0.272-1.068,0.387c-0.788,0.249-1.651,0.238-2.554,0.385c-0.18,0.03-0.329,0.119-0.504,0.148
		c-0.622,0.11-1.325,0.042-1.959,0.06c-0.674,0.019-1.349,0.169-2.019,0.208c-0.329,0.019-0.658-0.023-0.979,0
		c-1.258,0.09-2.638,0.499-3.681,0.92C12.399,9.087,11.999,9.364,11.632,9.588z"/>
	<path fill="#4D4D4D" d="M9.228,31.584c0.564,0.525,1.258,0.822,2.019,1.248c0.233,0.13,0.437,0.331,0.683,0.416
		c0.482,0.166,1.062,0.268,1.633,0.386c0.553,0.114,1.1,0.312,1.663,0.354c0.537,0.046,1.083-0.012,1.662,0
		c0.25,0.006,0.486,0.098,0.742,0.119c0.887,0.082,1.796-0.06,2.702-0.06c1.031,0,2.084,0.06,3.027,0.209
		c0.574,0.091,1.056,0.444,1.574,0.65c-0.198-0.05-0.375,0.071-0.595,0.061c-0.133-0.006-0.269-0.102-0.415-0.12
		c-0.704-0.07-1.459,0.118-2.137,0.031c0.213,0.227,0.569,0.098,0.831,0.089c0.26-0.008,0.713,0.058,1.039,0.089
		c0.891,0.092,1.753,0.127,2.375,0.564c0.188,0.134,0.343,0.37,0.533,0.536c0.574,0.498,1.121,0.969,1.484,1.72
		c-0.699-0.452-1.214-1.077-1.9-1.544c-0.963-0.651-2.729-1.001-4.305-1.097c-0.914-0.059-1.793,0.048-2.729,0.117
		c-0.459,0.035-0.914,0.15-1.366,0.179c-1.452,0.089-2.917-0.043-4.007-0.356c-1.39-0.398-2.394-0.998-3.384-1.81
		c1.189,0.426,2.456,1.34,4.096,1.216c1.629,0.27,3.627,0.35,5.314,0.21c-0.238-0.14-0.547-0.155-0.832-0.181
		c-1.183-0.1-2.442-0.155-3.74-0.209c-0.215-0.008-0.438-0.105-0.653-0.115c-0.165-0.01-0.339,0.035-0.505,0.027
		c-0.339-0.017-0.788-0.127-1.127-0.236c-0.274-0.092-0.571-0.201-0.801-0.296c-0.14-0.062-0.259-0.192-0.416-0.269
		c-0.782-0.379-1.472-0.646-1.989-1.277C9.527,32.025,9.438,31.768,9.228,31.584z"/>
</g>
<g>
	<path fill="#808080" d="M6.645,17.217c0.428-1.44,2.111-1.847,3.651-2.286c0.523-0.149,1.061-0.348,1.543-0.445
		c0.587-0.118,1.174-0.148,1.722-0.268c1.334-0.29,2.833-0.565,4.185-0.86c0.02,0,0.04,0,0.06,0
		c-2.002,1.153-4.745,1.712-7.362,2.345c-0.6,0.144-1.217,0.223-1.75,0.416C7.958,16.385,7.257,16.872,6.645,17.217z"/>
	<path fill="#808080" d="M7.536,22.561c-0.018,0.811-0.531,1.454-0.772,2.196c-0.285,0.874-0.439,1.798-0.594,2.851
		c-0.205-1.022,0.079-2.358,0.297-3.236C6.655,23.611,7.159,23.143,7.536,22.561z"/>
	<path fill="#808080" d="M6.941,25.024c-0.033,0.619-0.177,1.717-0.118,2.494c0.118,1.56,0.738,2.787,0.831,4.424
		c-0.183-0.213-0.285-0.506-0.415-0.771c-0.068-0.07,0.064-0.109,0.029-0.238c-0.202-0.976-0.737-2.088-0.682-3.324
		C6.626,26.702,6.585,25.794,6.941,25.024z"/>
	<path fill="#808080" d="M10.741,16.148c-0.792,0.314-1.62,0.521-2.316,0.921c-0.27,0.156-0.502,0.366-0.771,0.504
		c-0.514,0.265-1.108,0.433-1.424,0.92c-0.049-0.079,0.147-0.167,0.088-0.356C7.46,17.143,8.887,16.432,10.741,16.148z"/>
	<path fill="#808080" d="M10.861,17.455c-0.564,0.532-1.334,0.856-2.019,1.306c-0.314,0.206-0.633,0.503-0.95,0.742
		c-0.164,0.123-0.321,0.25-0.475,0.386c-0.157,0.138-0.345,0.23-0.475,0.355c-0.227,0.22-0.405,0.526-0.623,0.772
		c-0.209,0.237-0.348,0.532-0.594,0.712c0.276-1.548,1.321-2.354,2.464-3.088C8.997,18.125,9.929,17.765,10.861,17.455z"/>
	<path fill="#808080" d="M9.91,18.642c-1.437,1.552-3.393,2.841-4.186,5.136c-0.131-0.498,0.026-0.89,0.178-1.247
		c0.221-0.519,0.385-0.819,0.712-1.277c0.177-0.247,0.348-0.548,0.534-0.742c0.366-0.382,0.869-0.703,1.306-1.009
		C8.933,19.168,9.423,18.878,9.91,18.642z"/>
	<path fill="#808080" d="M8.13,20.929c-0.825,1.393-1.912,2.779-2.315,4.689c-0.226-0.494,0.136-0.975,0.237-1.424
		c0.099-0.445,0.116-0.68,0.297-1.039c0.184-0.366,0.311-0.556,0.534-0.861C7.241,21.807,7.682,21.33,8.13,20.929z"/>
	<path fill="#808080" d="M16.322,37.284c0.686,0.147,1.36,0.411,2.079,0.563c2.219,0.477,4.376,0.969,5.758,2.286
		c0.184,0.177,0.391,0.404,0.535,0.623c0.383,0.584,0.828,1.461,1.009,2.313c0.109,0.519,0.115,1.171,0.178,1.812
		c0.115,1.19-0.102,2.331-0.355,3.268c-0.155-0.666-0.069-1.352-0.179-1.961c-0.047-0.26-0.201-0.492-0.267-0.742
		c-0.095-0.357-0.135-0.688-0.267-1.01c-0.369-0.895-0.741-1.795-1.247-2.552c-0.224-0.339-0.588-0.694-0.92-1.009
		c-0.798-0.764-1.776-1.417-2.761-2.02c-0.338-0.207-0.556-0.351-0.95-0.534C18.138,37.951,17.163,37.654,16.322,37.284z"/>
</g>
<g>
	<path fill="#B3B3B3" d="M29.443,0.653C29.439,1.094,29,1.358,28.672,1.573C28.742,1.082,29.326,1.102,29.443,0.653z"/>
	<path fill="#B3B3B3" d="M29.74,0.86c0.531,0.463-0.315,1.076-0.684,1.337c-0.427,0.302-0.904,0.413-1.246,0.563
		c-0.059-0.103,0.125-0.177,0.209-0.268c0.099-0.109,0.168-0.254,0.266-0.327c0.154-0.113,0.354-0.158,0.505-0.267
		c0.301-0.216,0.576-0.559,0.892-0.801C29.672,0.989,29.714,0.933,29.74,0.86z"/>
	<path fill="#B3B3B3" d="M29.979,1.752c0.054,0.33,0.117,0.646,0.028,0.979c-0.799,0.308-1.755,0.461-2.671,0.653
		C28.415,3.039,29.479,2.676,29.979,1.752z"/>
	<path fill="#B3B3B3" d="M29.857,3.236c0.209,0.33-0.273,0.384-0.443,0.475c-0.639,0.341-1.43,0.656-2.316,0.742
		c-1.293,0.125-2.801,0.061-4.125,0c1.115-0.398,2.516-0.409,3.858-0.505c0.951-0.067,2.058-0.449,2.819-0.623
		c0.051-0.011,0.108-0.065,0.181-0.089C29.84,3.236,29.848,3.236,29.857,3.236z"/>
	<path fill="#B3B3B3" d="M7.981,15.259C7.96,15.151,8.1,15.098,8.158,15.05c0.571-0.464,1.386-0.974,2.168-1.247
		c0.319-0.111,0.655-0.176,0.979-0.296c0.78-0.29,1.67-0.677,2.583-0.921c1.173-0.312,2.437-0.433,3.77-0.682
		c0.604-0.114,1.174-0.321,1.781-0.446c0.771-0.157,1.576-0.163,2.315-0.356c0.368-0.096,0.727-0.171,1.098-0.237
		c0.383-0.068,0.758-0.214,1.129-0.298c0.006-0.001,0.022-0.001,0.029,0c0.173,0.033-0.151,0.176-0.029,0.09
		c-0.588,0.414-1.34,0.616-2.139,0.86c-0.294,0.09-0.544,0.251-0.771,0.327c-0.583,0.194-1.159,0.324-1.693,0.504
		c-0.539,0.183-1.06,0.431-1.572,0.593c-0.808,0.258-1.681,0.416-2.583,0.624c-0.276,0.063-0.545,0.195-0.802,0.237
		c-0.869,0.146-1.757,0.174-2.672,0.326C10.398,14.356,9.109,14.75,7.981,15.259z"/>
	<path fill="#B3B3B3" d="M7.654,30.635c0.398,1.174,0.842,2.192,1.396,3.178c0.23,0.41,0.617,0.666,0.802,1.156
		c-0.883-1.035-1.901-1.838-2.107-3.531C7.707,31.135,7.745,30.908,7.654,30.635z"/>
	<path fill="#B3B3B3" d="M17.124,36.898c2.283,0.063,4.792,0.09,6.59,0.802c0.703,0.278,1.142,0.642,1.722,1.098
		c0.242,0.192,0.496,0.32,0.653,0.505c0.263,0.311,0.57,0.799,0.771,1.189c0.111,0.21,0.226,0.439,0.328,0.652
		c0.235,0.483,0.412,0.905,0.594,1.514c0.143,0.477,0.345,0.893,0.268,1.544c-0.027,0.235-0.191,0.504-0.268,0.801
		c-0.082,0.317-0.074,0.642-0.18,0.892c-0.138,0.332-0.43,0.646-0.623,0.979c-0.201,0.35-0.33,0.748-0.623,0.98
		c0.406-1.418,0.617-3.608,0.209-5.226c-0.129-0.503-0.469-0.905-0.594-1.366c-0.043-0.152-0.027-0.277-0.06-0.384
		c-0.331-1.06-1.408-1.713-2.316-2.198c-0.591-0.315-1.055-0.57-1.782-0.83c-0.344-0.123-0.693-0.289-0.98-0.326
		c-0.155-0.021-0.319,0.02-0.475,0c-0.233-0.03-0.442-0.157-0.683-0.209c-0.3-0.062-0.64-0.045-0.95-0.09
		C18.203,37.154,17.717,36.967,17.124,36.898z"/>
	<path fill="#B3B3B3" d="M24.783,37.818c0.497,0.058,0.928,0.438,1.425,0.595c0.175,0.175,0.327,0.383,0.505,0.595
		c0.157,0.188,0.376,0.336,0.534,0.533c0.325,0.407,0.595,1.051,0.802,1.633c0.426,1.2,0.463,2.453,0.117,3.77
		c0.297-2.389-0.785-4.226-1.751-5.729C25.867,38.754,25.39,38.223,24.783,37.818z"/>
	<path fill="#B3B3B3" d="M20.597,37.85c0.507,0.014,1.484,0.338,2.019,0.563c0.202,0.085,0.358,0.215,0.534,0.296
		c0.208,0.098,0.461,0.126,0.624,0.209c0.139,0.07,0.309,0.229,0.505,0.355c0.544,0.354,0.933,0.836,1.276,1.395
		c0.254,0.414,0.368,0.95,0.534,1.575c0.036,0.129,0.121,0.258,0.147,0.385c0.15,0.677,0.09,1.457,0.148,2.286
		c-0.244-0.646-0.221-1.312-0.355-1.932c-0.198-0.901-0.571-1.76-0.979-2.465C24.165,38.997,22.438,38.438,20.597,37.85z"/>
	<path fill="#B3B3B3" d="M29.088,0.594c0.059,0.138-0.17,0.246-0.208,0.386C28.864,0.884,28.995,0.68,29.088,0.594z"/>
	<path fill="#B3B3B3" d="M29.919,4.008c0.024,0.333-0.394,0.342-0.595,0.445c-0.229,0.118-0.43,0.267-0.652,0.355
		C28.2,4.995,27.68,5.194,27.157,5.313c-1.38,0.313-2.962,0.262-4.512,0.267c-0.811,0.003-1.619,0.124-2.434,0.238
		c-0.797,0.111-1.617,0.15-2.345,0.297c-0.639,0.128-1.253,0.327-1.84,0.504c-0.612,0.183-1.206,0.342-1.722,0.593
		c-0.033-0.005-0.016-0.029,0-0.029c1.314-1.07,3.251-1.491,5.314-1.96c1.413-0.321,3.012-0.377,4.69-0.267
		C26.438,5.097,28.415,4.562,29.919,4.008z"/>
	<path fill="#B3B3B3" d="M29.77,5.046c-0.603,1.415-1.66,2.295-3.205,2.88c-0.611,0.231-1.293,0.517-1.959,0.683
		c-0.948,0.238-2.125,0.552-3.117,0.623c-1.493,0.109-3.006,0.051-4.482,0.12c-0.338,0.015-0.677,0.015-0.98,0.06
		c-0.278,0.041-0.52,0.155-0.801,0.207c-0.434,0.081-0.824,0.096-1.218,0.208c-2.113,0.6-3.998,1.498-5.224,2.998
		c0.031-0.226,0.306-0.465,0.416-0.713c0.583-0.468,1.187-0.965,1.811-1.484c0.997-0.83,2.177-1.46,3.71-1.811
		c0.304-0.069,0.627-0.115,0.95-0.178c0.304-0.06,0.619-0.176,0.921-0.208c0.48-0.051,0.985-0.042,1.483-0.119
		c0.944-0.145,2.076-0.115,3.087-0.238c0.303-0.035,0.582-0.165,0.891-0.207c0.917-0.124,1.672-0.159,2.405-0.357
		c0.72-0.194,1.413-0.393,2.107-0.653c0.592-0.222,0.912-0.642,1.455-0.919c0.319-0.165,0.639-0.248,0.951-0.446
		c0.135-0.087,0.311-0.15,0.443-0.237C29.531,5.178,29.615,5,29.77,5.046z"/>
	<path fill="#B3B3B3" d="M28.136,7.688c-0.502,0.627-1.331,0.981-2.313,1.307c-0.526,0.173-1.034,0.407-1.722,0.534
		c-0.54,0.101-0.965,0.13-1.632,0.178c-0.775,0.055-1.569,0.186-2.375,0.208c-0.49,0.014-0.985-0.021-1.484,0.03
		c-0.58,0.059-1.293,0.236-1.93,0.355c-0.229,0.043-0.466,0.045-0.683,0.09c-0.199,0.04-0.373,0.138-0.564,0.177
		c-0.344,0.072-0.723-0.04-1.01,0.208c0.301,0.183,0.593-0.082,0.832-0.118c0.445-0.07,0.953-0.039,1.454-0.09
		c0.943-0.095,1.917-0.318,2.82-0.297c1.658,0.041,3.721-0.057,5.254-0.444c-1.281,0.411-2.737,0.731-4.274,0.95
		c-1.371,0.195-2.759,0.731-4.186,1.009c-1.497,0.292-2.974,0.506-4.274,0.92c-0.327,0.104-0.644,0.246-0.98,0.357
		c-0.996,0.33-1.962,0.637-2.73,1.247c0.613-0.641,1.352-1.396,2.287-1.812c0.176-0.078,0.366-0.104,0.534-0.178
		c0.66-0.291,1.343-0.746,2.107-1.04c0.233-0.088,0.574-0.059,0.713-0.326c-0.3-0.042-0.645,0.08-0.92,0.178
		c-0.302,0.108-0.594,0.216-0.89,0.327c-0.393,0.146-0.73,0.409-1.1,0.564c-0.511,0.215-1.061,0.317-1.454,0.682
		c0.88-0.877,2.044-1.617,3.415-2.107c0.396-0.142,0.841-0.311,1.276-0.416c0.329-0.079,0.714-0.093,1.069-0.178
		c0.339-0.083,0.651-0.212,0.979-0.238c0.492-0.037,0.993-0.006,1.514-0.03c0.601-0.025,1.191-0.083,1.811-0.059
		c1.373,0.055,2.549-0.111,3.711-0.327C25.105,9.033,26.96,8.438,28.136,7.688z"/>
	<path fill="#B3B3B3" d="M5.873,20.097c0.088-0.417,0.312-0.832,0.534-1.157c0.134-0.197,0.365-0.429,0.534-0.564
		c0.63-0.501,1.34-0.916,2.108-1.247c0.42-0.18,0.802-0.287,1.247-0.415c0.414-0.119,0.863-0.213,1.306-0.356
		c0.251-0.082,0.437-0.243,0.713-0.267c-0.228,0.175-0.508,0.294-0.801,0.445c-0.271,0.139-0.533,0.362-0.801,0.475
		c-0.444,0.188-0.864,0.318-1.277,0.504c-0.397,0.181-0.718,0.412-1.099,0.654C7.417,18.75,6.493,19.316,5.873,20.097z"/>
	<path fill="#B3B3B3" d="M8.931,30.693c0.387,0.304,1.1,0.744,1.692,1.101c0.148,0.089,0.264,0.245,0.415,0.326
		c0.204,0.106,0.518,0.187,0.801,0.295c0.411,0.16,0.723,0.237,1.188,0.358c0.139,0.035,0.271,0.143,0.415,0.176
		c0.15,0.039,0.334,0.005,0.505,0.029c0.295,0.045,0.598,0.194,0.892,0.238c0.186,0.028,0.418,0.012,0.622,0.03
		c0.162,0.015,0.387,0.112,0.505-0.06c-0.309-0.224-0.711-0.176-1.068-0.239c-0.198-0.033-0.436-0.15-0.653-0.207
		c-0.246-0.063-0.509-0.054-0.712-0.117c-0.126-0.042-0.235-0.166-0.356-0.21c-0.195-0.066-0.4-0.076-0.595-0.146
		c-0.488-0.178-1.042-0.408-1.514-0.652c2.03,0.729,4.972,1.347,7.927,1.099c1.452-0.125,2.835,0.108,3.888,0.534
		c-0.315,0.025-0.603-0.198-0.98-0.239c-0.92-0.093-2.125,0.101-3.176,0.03c-0.582-0.038-1.533-0.085-2.136-0.03
		c-0.125,0.015-0.49-0.104-0.504,0.062c-0.021,0.221,1.128,0.104,1.335,0.119c0.812,0.058,1.963,0.237,2.909,0.297
		c0.518,0.031,1.047-0.082,1.513-0.031c0.508,0.059,0.941,0.381,1.396,0.388c-0.846,0.128-1.866,0.048-2.85-0.028
		c-0.598-0.049-1.208,0.021-1.811,0c-0.518-0.021-1.028-0.157-1.543-0.209c-0.798-0.078-1.597-0.006-2.345-0.149
		c-0.449-0.085-0.902-0.228-1.335-0.325c-0.451-0.101-0.927-0.186-1.307-0.324c-0.275-0.104-0.548-0.342-0.831-0.477
		C10.336,31.906,9.525,31.391,8.931,30.693z"/>
	<path fill="#B3B3B3" d="M9.88,33.898c-0.148-0.479-0.531-0.812-0.742-1.244c-0.085-0.176-0.068-0.394-0.267-0.506
		c-0.116-0.518-0.435-0.83-0.535-1.365c0.425,0.748,0.751,1.482,1.247,2.138c0.245,0.325,0.424,0.707,0.683,1.011
		c0.256,0.299,0.552,0.555,0.801,0.861c0.402,0.488,0.74,0.998,1.159,1.48c0.406,0.475,0.792,0.971,1.187,1.455
		c-1.576-0.689-2.147-2.384-3.325-3.472c0.02,0.325,0.375,0.572,0.445,0.95c-0.631-1.066-1.822-1.843-2.048-3.178
		C8.854,32.752,9.298,33.396,9.88,33.898z"/>
	<path fill="#B3B3B3" d="M23.448,36.305c0.266,0.178,0.564,0.188,0.86,0.299c0.289,0.106,0.522,0.336,0.802,0.444
		c0.153,0.062,0.326,0.054,0.474,0.119c0.162,0.069,0.316,0.249,0.505,0.356c0.12,0.063,0.276,0.084,0.386,0.146
		c0.188,0.108,0.361,0.295,0.564,0.416c0.219,0.134,0.495,0.213,0.652,0.327c0.184,0.134,0.381,0.412,0.504,0.595
		c0.419,0.615,0.609,1.454,1.129,2.019c0.437,1.88,0.298,4-0.594,5.254c-0.5,0.703-1.155,1.195-1.781,1.724
		c0.564-0.759,1.162-1.387,1.515-2.465c0.181-0.556,0.243-0.914,0.296-1.634c0.024-0.293,0.106-0.569,0.09-0.86
		c-0.037-0.696-0.224-1.387-0.475-2.047c-0.232-0.614-0.477-1.235-0.801-1.694c-0.074-0.103-0.223-0.172-0.327-0.295
		c-0.267-0.312-0.433-0.754-0.683-0.949c-0.398-0.313-1.062-0.526-1.633-0.744c-0.588-0.221-1.169-0.447-1.782-0.563
		c-1.919-0.367-3.94-0.144-5.907-0.326c-0.315-0.03-0.552-0.168-0.861-0.266c0.399-0.104,0.871,0.032,1.336-0.031
		c0.196-0.026,0.395-0.151,0.594-0.178c0.692-0.086,1.559-0.062,2.256,0c0.575,0.051,1.141,0.325,1.692,0.089
		c-0.181-0.186-0.537-0.195-0.832-0.268c2.181,0.017,4.154,0.496,5.285,1.662C25.723,37.064,24.72,36.402,23.448,36.305z"/>
	<path fill="#B3B3B3" d="M13.829,36.928c0.646,0.479,1.437,0.682,2.137,1.041c0.276,0.143,0.518,0.344,0.802,0.475
		c0.828,0.387,1.779,0.793,2.553,1.275c0.907,0.569,1.601,1.225,2.257,2.078c0.307,0.401,0.644,0.803,0.919,1.247
		c0.396,0.636,0.838,1.171,1.158,1.899c-0.662-0.84-1.213-1.664-1.959-2.405c-0.327-0.324-0.79-0.636-1.187-0.92
		c-0.414-0.293-0.866-0.569-1.276-0.802c-0.168-0.092-0.377-0.118-0.535-0.237c-0.188-0.14-0.317-0.362-0.504-0.505
		c-0.284-0.213-0.618-0.393-0.921-0.592c-0.599-0.396-1.184-0.787-1.781-1.219C14.906,37.84,14.296,37.48,13.829,36.928z"/>
	<path fill="#B3B3B3" d="M13.65,37.314c1.188,0.908,2.65,1.804,3.978,2.672c-0.811-0.238-1.645-0.711-2.404-1.101
		c0-0.048,0-0.1,0-0.146C14.648,38.316,14.163,37.802,13.65,37.314z"/>
	<path fill="#B3B3B3" d="M24.991,47.111c-0.296-0.838-0.572-1.619-0.92-2.405c-0.33-0.742-0.843-1.375-1.247-2.048
		c-0.196-0.326-0.446-0.645-0.713-0.951c-0.53-0.609-0.908-1.232-1.573-1.75c-0.153-0.118-0.341-0.217-0.504-0.328
		c-0.165-0.109-0.299-0.264-0.445-0.354c-0.776-0.483-1.704-0.721-2.523-1.248c-0.038-0.055,0.188,0.06,0.267,0.091
		c0.335,0.123,0.753,0.329,1.187,0.356c0.944,0.455,1.872,0.979,2.731,1.571c0.533,0.366,1.1,0.813,1.514,1.276
		c0.102,0.113,0.159,0.287,0.268,0.416c0.407,0.484,0.891,1.106,1.127,1.81c0.201,0.599,0.366,1.272,0.535,1.96
		C24.802,45.951,25.053,46.445,24.991,47.111z"/>
</g>
</svg>
