<?xml version="1.0" encoding="utf-8"?>
<!-- Generator: Adobe Illustrator 16.0.0, SVG Export Plug-In . SVG Version: 6.00 Build 0)  -->
<!DOCTYPE svg PUBLIC "-//W3C//DTD SVG 1.1//EN" "http://www.w3.org/Graphics/SVG/1.1/DTD/svg11.dtd">
<svg version="1.1" id="Layer_1" xmlns="http://www.w3.org/2000/svg" xmlns:xlink="http://www.w3.org/1999/xlink" x="0px" y="0px"
	 width="50px" height="50px" viewBox="0 0 50 50" enable-background="new 0 0 50 50" xml:space="preserve">
<path d="M30.878,19.179c-0.726-0.147-1.528,0.079-2.487,0c-0.843,1.091,0.758,2.118,1.514,2.813c0.217,0.2,0.304,0.821,0.486,1.19
	c0.158,0.318,0.418,0.526,0.487,0.703c0.224,0.573,0.147,1.447,0.216,2.164c0.043,0.461,0.148,0.895,0.108,1.245
	c-0.065,0.56-0.204,0.966-0.271,1.677c-0.123,1.311-0.811,2.394-1.406,3.407c-0.309,0.522-0.502,1.11-0.812,1.517
	c-0.213,0.277-0.468,0.488-0.648,0.756c-0.205,0.303-0.367,0.652-0.541,0.865c-0.291,0.359-0.801,0.584-1.027,0.92
	c-0.229,0.34-0.197,1.104-0.866,0.866c-0.354-0.183-0.073-0.87,0-1.137c-0.118-0.084-0.454,0.358-0.649,0.055
	c-0.07-0.489,0.462-0.439,0.649-0.864c0.435-0.991,0.108-2.57-0.163-3.463c-1.157-1.66-3.165-2.416-4.76-3.896
	c-0.162-0.148-0.263-0.395-0.433-0.541c-0.499-0.43-1.073-0.678-1.515-1.189c-1.18-1.366-2.47-3.438-2.164-6.274
	c0.133-1.235,0.701-2.442,1.298-3.354c0.025-0.264-0.057-0.634,0.054-0.812c0.175-0.148,0.391,0.009,0.487,0.108
	c1.405-1.703,3.686-3.549,6.762-3.246c0.779,0.077,1.269,0.423,1.947,0.649c0.508,0.169,1.284,0.035,1.354,0.758
	c0.941,0.584,1.954,1.506,2.436,2.813C31.221,17.693,31.562,18.611,30.878,19.179z M21.789,17.826
	c0.062,0.883,0.707,1.894,1.19,2.597c0.332,0.482,0.723,0.913,1.083,1.406c0.455,0.625,0.884,1.302,1.298,1.948
	c0.455,0.708,0.755,1.418,1.137,2.11c0.382,0.694,0.955,1.08,1.136,1.84c0.034-1.145-0.386-1.64-0.758-2.38
	c-0.211-0.421-0.361-0.924-0.596-1.244c-0.254-0.349-0.67-0.564-0.919-0.92c-0.101-0.144-0.112-0.329-0.216-0.487
	c-0.192-0.292-0.534-0.524-0.757-0.812c-0.251-0.324-0.379-0.707-0.595-1.028c-0.129-0.191-0.332-0.279-0.433-0.487
	c-0.114-0.235-0.059-0.528-0.162-0.865c-0.14-0.456-0.389-0.884-0.433-1.353c-0.174-1.823,0.318-3.094,1.298-3.787
	c0.457-0.324,1.028-0.465,1.514-0.757C23.251,13.436,21.616,15.401,21.789,17.826z M20.058,16.582
	c-0.062,0.437-0.14,0.824-0.162,1.19c-0.053,0.835,0.346,1.349,0.595,1.839c0.387,0.763,0.674,1.613,1.136,2.164
	c0.409,0.488,1.176,0.851,1.731,1.352c0.329,0.298,0.529,0.701,0.812,0.975c0.278,0.268,0.683,0.379,0.92,0.649
	c0.172,0.195,0.156,0.495,0.434,0.594c-0.448-1.266-1.384-2.468-2.219-3.732c-0.117-0.177-0.148-0.423-0.27-0.595
	c-0.117-0.165-0.312-0.257-0.433-0.433c-0.348-0.506-0.778-1.076-0.974-1.624c-0.548-1.535-0.319-3.568,0.432-4.544
	c0.108-0.139,0.43-0.229,0.325-0.433C21.196,14.556,20.255,15.19,20.058,16.582z M25.359,16.312c0.627-0.907,2.38-1.56,3.625-0.758
	c0.111,0.061,0.113,0.059,0.054-0.053c-0.715-0.328-1.239-1.276-2.164-1.298c-0.168-0.005-0.333,0.115-0.541,0.162
	c-0.851,0.193-1.383,0.303-2.056,0.542c-0.363,0.488-0.903,0.922-1.028,1.568c-0.225,1.174,0.306,2.276,0.487,2.921
	c0.187,0.667,0.192,0.649,0.486,1.082c0.209,0.307,0.389,0.641,0.65,0.974c0.229,0.292,0.555,0.577,0.757,0.866
	c0.105,0.151,0.119,0.347,0.217,0.486c0.418,0.604,1.178,0.848,1.352,1.407c-0.245-0.59-0.668-1.187-0.973-1.678
	c-0.332-0.532-0.75-1.295-0.975-1.947c-0.118-0.339-0.122-0.777-0.217-1.19c-0.188-0.82-0.541-1.639,0.108-2.056
	c-0.125,0.848,0.093,1.292,0.325,1.894c0.144,0.375,0.188,0.834,0.325,1.136c0.375,0.836,1,1.684,1.406,2.38
	c1.228,2.102,1.937,4.297,1.462,7.249c0.516-1.135,0.733-3.09,0.378-4.599c-0.688-0.583-0.643-1.768-1.082-2.758
	c-0.088-0.197-0.303-0.425-0.434-0.649c-0.148-0.259-0.24-0.578-0.379-0.757c-0.15-0.197-0.39-0.27-0.541-0.433
	c-0.545-0.588-1.051-1.458-0.918-2.543c0.164-1.357,2.844-1.946,4.057-1.19c-0.483-0.718-1.69-1.409-2.813-1.244
	c-0.769,0.112-1.127,0.88-1.676,1.028C25.345,16.729,25.382,16.55,25.359,16.312z M19.03,19.07c0.135,0.56,0.181,1.215,0.325,1.569
	c0.128,0.315,0.436,0.539,0.595,0.811c0.446,0.76,0.862,1.305,1.461,1.947c0.414,0.444,0.781,0.972,1.19,1.354
	c0.899,0.834,2.075,1.312,2.813,2.271c0.24,0.314,0.493,0.787,0.648,1.138c0.465,1.03,0.763,2.212,1.028,3.569
	c0.263-1.487-0.09-2.537-0.541-3.517c-0.227-0.491-0.591-1.085-0.919-1.623c-0.338-0.551-0.642-1.182-0.974-1.569
	c-0.225-0.262-0.622-0.457-0.919-0.703c-0.299-0.247-0.539-0.576-0.812-0.811c-0.564-0.488-1.336-0.786-1.839-1.353
	c-0.162-0.183-0.247-0.486-0.433-0.757c-0.161-0.234-0.425-0.428-0.541-0.65c-0.14-0.265-0.159-0.597-0.325-0.865
	c-0.161-0.259-0.38-0.44-0.487-0.703c-0.379-0.937-0.213-1.758-0.216-2.705C18.372,17.189,18.806,18.144,19.03,19.07z
	 M27.415,17.501c-0.386,0.057-1.122,0.432-1.244,0.757c-0.39,1.039,0.433,1.716,0.757,2.488c0.57,0.359,1.192,0.801,1.678,1.407
	c0.384,0.478,0.379,1.248,0.648,1.948c0.173,0.444,0.536,0.781,0.648,1.136c0.727,2.257-0.399,4.4-0.811,6.22
	c1.045-1.857,1.454-4.575,0.975-7.248c-0.576-0.333-0.377-1.003-0.758-1.569c-0.148-0.221-0.479-0.321-0.648-0.487
	c-0.549-0.532-1.268-1.35-1.354-2.11c-0.062-0.535,0.141-1.152,0.434-1.406c0.531-0.462,1.518,0.031,2.326-0.379
	C29.5,17.888,28.376,17.361,27.415,17.501z M18.543,20.855c0.306,0.518,0.531,0.89,0.866,1.353c0.232,0.321,0.521,0.614,0.703,0.919
	c0.219,0.368,0.398,0.837,0.648,1.083c0.449,0.439,1.051,0.757,1.515,1.189c0.253,0.236,0.41,0.542,0.649,0.758
	c0.386,0.346,0.875,0.562,1.19,0.919c0.716,0.808,0.949,1.878,1.731,2.65c-0.269-0.832-0.663-1.537-0.974-2.326
	c-0.85-0.9-1.948-1.803-2.814-2.649c-0.274-0.271-0.473-0.549-0.757-0.866c-0.506-0.565-1.117-1.073-1.568-1.677
	c-0.273-0.365-0.668-0.854-0.866-1.299c-0.315-0.708-0.245-1.556-0.649-2.326C17.877,19.562,18.247,20.354,18.543,20.855z
	 M18.543,23.507c0.411,0.412,0.932,0.714,1.353,1.136c0.521,0.522,0.964,1.149,1.515,1.677c0.87,0.832,1.796,1.601,2.488,2.488
	c0.289,0.371,0.497,0.998,1.028,1.082c-0.654-0.673-0.867-1.621-1.461-2.326c-0.228-0.271-0.578-0.441-0.865-0.703
	c-0.59-0.541-1.12-1.267-1.677-1.784c-0.218-0.204-0.511-0.314-0.704-0.542c-0.541-0.642-0.76-1.58-1.298-2.218
	c-0.376-0.447-1.058-0.697-1.082-1.407C17.864,21.985,18.133,22.816,18.543,23.507z M19.463,25.725
	c0.414,0.459,1.031,0.686,1.515,1.135c0.647,0.603,1.259,1.36,2.056,1.625c-1.43-1.476-2.956-3.142-4.598-4.221
	C18.78,24.732,19.064,25.281,19.463,25.725z"/>
<path fill="#4D4D4D" d="M22.384,13.985c0.105,0.204-0.217,0.293-0.325,0.433c-0.751,0.976-0.98,3.009-0.432,4.544
	c0.195,0.547,0.625,1.118,0.974,1.624c0.121,0.176,0.316,0.268,0.433,0.433c0.122,0.172,0.153,0.418,0.27,0.595
	c0.834,1.264,1.771,2.467,2.219,3.732c-0.277-0.1-0.261-0.399-0.434-0.594c-0.237-0.27-0.642-0.381-0.92-0.649
	c-0.282-0.273-0.482-0.677-0.812-0.975c-0.555-0.501-1.322-0.864-1.731-1.352c-0.462-0.551-0.749-1.401-1.136-2.164
	c-0.249-0.491-0.647-1.004-0.595-1.839c0.022-0.366,0.1-0.753,0.162-1.19C20.255,15.19,21.196,14.556,22.384,13.985z"/>
<g>
	<path fill="#999999" d="M25.576,13.606c-0.486,0.292-1.057,0.434-1.514,0.757c-0.98,0.693-1.473,1.964-1.298,3.787
		c0.044,0.469,0.292,0.897,0.433,1.353c0.103,0.337,0.048,0.63,0.162,0.865c0.101,0.208,0.304,0.296,0.433,0.487
		c0.215,0.322,0.344,0.705,0.595,1.028c0.223,0.287,0.565,0.519,0.757,0.812c0.104,0.158,0.115,0.343,0.216,0.487
		c0.25,0.356,0.666,0.571,0.919,0.92c0.232,0.32,0.385,0.823,0.596,1.244c0.372,0.741,0.792,1.236,0.758,2.38
		c-0.181-0.76-0.754-1.146-1.136-1.84c-0.382-0.692-0.683-1.402-1.137-2.11c-0.414-0.646-0.843-1.323-1.298-1.948
		c-0.36-0.494-0.751-0.924-1.083-1.406c-0.483-0.703-1.127-1.713-1.19-2.597C21.616,15.401,23.251,13.436,25.576,13.606z"/>
	<path fill="#999999" d="M19.084,16.474c0.003,0.947-0.163,1.769,0.216,2.705c0.107,0.263,0.327,0.444,0.487,0.703
		c0.166,0.269,0.185,0.601,0.325,0.865c0.116,0.222,0.38,0.416,0.541,0.65c0.186,0.271,0.271,0.574,0.433,0.757
		c0.502,0.567,1.275,0.865,1.839,1.353c0.273,0.235,0.513,0.564,0.812,0.811c0.297,0.246,0.694,0.441,0.919,0.703
		c0.333,0.387,0.636,1.018,0.974,1.569c0.329,0.538,0.693,1.133,0.919,1.623c0.451,0.979,0.805,2.028,0.541,3.516
		c-0.267-1.356-0.564-2.539-1.027-3.568c-0.156-0.35-0.408-0.822-0.649-1.137c-0.738-0.961-1.914-1.438-2.813-2.271
		c-0.409-0.381-0.776-0.909-1.19-1.354c-0.599-0.642-1.015-1.187-1.461-1.947c-0.159-0.272-0.467-0.496-0.595-0.811
		c-0.144-0.354-0.189-1.01-0.325-1.569C18.806,18.144,18.372,17.189,19.084,16.474z"/>
	<path fill="#999999" d="M18.219,18.583c0.404,0.771,0.334,1.618,0.649,2.326c0.198,0.445,0.593,0.934,0.866,1.299
		c0.451,0.604,1.062,1.112,1.568,1.677c0.284,0.317,0.482,0.596,0.757,0.866c0.866,0.847,1.964,1.749,2.814,2.649
		c0.312,0.789,0.706,1.494,0.973,2.326c-0.782-0.772-1.015-1.844-1.73-2.65c-0.316-0.355-0.805-0.573-1.19-0.919
		c-0.239-0.216-0.396-0.522-0.649-0.758c-0.464-0.433-1.066-0.75-1.515-1.189c-0.25-0.245-0.429-0.714-0.648-1.083
		c-0.182-0.305-0.471-0.598-0.703-0.919c-0.335-0.463-0.56-0.835-0.866-1.353C18.247,20.354,17.877,19.562,18.219,18.583z"/>
	<path fill="#999999" d="M17.84,20.91c0.024,0.709,0.706,0.96,1.082,1.407c0.538,0.638,0.757,1.576,1.298,2.218
		c0.193,0.228,0.486,0.338,0.704,0.542c0.557,0.519,1.087,1.243,1.677,1.784c0.287,0.262,0.638,0.434,0.865,0.703
		c0.594,0.705,0.807,1.653,1.461,2.326c-0.531-0.084-0.739-0.711-1.028-1.082c-0.692-0.889-1.619-1.656-2.488-2.488
		c-0.551-0.527-0.994-1.155-1.515-1.677c-0.421-0.421-0.941-0.724-1.353-1.136C18.133,22.816,17.864,21.985,17.84,20.91z"/>
	<path fill="#999999" d="M25.251,16.853c0.549-0.147,0.908-0.916,1.676-1.028c1.123-0.165,2.33,0.526,2.813,1.244
		c-1.213-0.756-3.893-0.167-4.057,1.19c-0.133,1.085,0.373,1.955,0.918,2.543c0.151,0.163,0.391,0.236,0.541,0.433
		c0.139,0.179,0.229,0.499,0.379,0.757c0.131,0.225,0.346,0.453,0.434,0.649c0.439,0.991,0.395,2.175,1.082,2.758
		c0.355,1.509,0.138,3.464-0.378,4.599c0.475-2.952-0.234-5.147-1.462-7.249c-0.406-0.696-1.031-1.544-1.406-2.38
		c-0.135-0.302-0.182-0.762-0.325-1.136c-0.232-0.602-0.45-1.045-0.325-1.894c-0.649,0.417-0.296,1.236-0.108,2.056
		c0.095,0.413,0.099,0.851,0.217,1.19c0.225,0.651,0.645,1.415,0.975,1.947c0.305,0.491,0.728,1.088,0.973,1.678
		c-0.174-0.559-0.934-0.804-1.352-1.407c-0.098-0.14-0.111-0.335-0.217-0.486c-0.203-0.289-0.529-0.573-0.757-0.866
		c-0.261-0.333-0.441-0.667-0.65-0.974c-0.294-0.433-0.299-0.415-0.486-1.082c-0.182-0.645-0.712-1.748-0.487-2.921
		c0.125-0.646,0.665-1.081,1.028-1.568c0.672-0.238,1.205-0.348,2.056-0.542c0.208-0.047,0.373-0.167,0.541-0.162
		c0.925,0.022,1.449,0.97,2.164,1.298c0.06,0.112,0.06,0.114-0.054,0.053c-1.245-0.802-2.998-0.149-3.625,0.758
		C25.382,16.55,25.345,16.729,25.251,16.853z"/>
	<path fill="#999999" d="M30.066,18.259c-0.81,0.41-1.795-0.083-2.326,0.379c-0.293,0.254-0.494,0.872-0.434,1.406
		c0.086,0.76,0.805,1.578,1.354,2.11c0.169,0.166,0.5,0.267,0.648,0.487c0.381,0.566,0.182,1.236,0.758,1.569
		c0.479,2.673,0.07,5.392-0.975,7.248c0.41-1.819,1.536-3.963,0.811-6.22c-0.112-0.354-0.477-0.691-0.648-1.136
		c-0.271-0.7-0.266-1.47-0.648-1.948c-0.484-0.606-1.106-1.048-1.678-1.407c-0.324-0.772-1.146-1.449-0.757-2.488
		c0.122-0.325,0.858-0.7,1.244-0.757C28.376,17.361,29.5,17.888,30.066,18.259z"/>
	<path fill="#999999" d="M18.436,24.264c1.643,1.08,3.168,2.746,4.598,4.22c-0.797-0.264-1.409-1.021-2.056-1.623
		c-0.483-0.45-1.101-0.678-1.515-1.137C19.064,25.281,18.78,24.732,18.436,24.264z"/>
</g>
</svg>
