<?xml version="1.0" encoding="utf-8"?>
<!-- Generator: Adobe Illustrator 16.0.0, SVG Export Plug-In . SVG Version: 6.00 Build 0)  -->
<!DOCTYPE svg PUBLIC "-//W3C//DTD SVG 1.1//EN" "http://www.w3.org/Graphics/SVG/1.1/DTD/svg11.dtd">
<svg version="1.1" id="Layer_1" xmlns="http://www.w3.org/2000/svg" xmlns:xlink="http://www.w3.org/1999/xlink" x="0px" y="0px"
	 width="100px" height="100px" viewBox="0 0 100 100" enable-background="new 0 0 100 100" xml:space="preserve">
<g>
	<g>
		<path fill="#231F20" d="M28.79,28.044c1.806-0.134,0.297-0.62,0.189-0.809c-0.108-0.188,0.377,0.081,0.512-0.107
			c0.134-0.189,0.755,0,0.27-1.187c-0.486-1.185,0.485-0.862,0.673-0.808c0.189,0.054,1.428,0.296,1.914,0.754
			c0.485,0.458,0,0.404-0.162,0.324c-0.162-0.081-1.293-0.539-1.779,0.108c0,0,0.62,0.619,0.997,0.781
			c0.378,0.162,0.729,0.512,0.755,0.701c0.027,0.188,0.378,0.026,0.513,0.162c0.135,0.135,0.35,0.404,0.323,0.646
			c-0.027,0.243-1.186-0.7-1.671-0.323c0,0-0.27,0.027,0.188,0.296c0.458,0.27,0.835,0.836,0.916,1.052
			c0.082,0.215,0.432,0.754,0.62,0.942c0.189,0.189,0.782,0.809,0.782,1.078c0,0.27-0.215,0.027-0.351,0
			c-0.134-0.027-0.862-0.108-0.969,0.055c-0.108,0.161,0.404,0.323,0.593,0.458c0.188,0.134,0.188,0.674,0.485,0.943
			c0.296,0.27,1.805,2.615,2.938,2.533c1.131-0.081,1.078,0.755,1.267,0.458c0.188-0.296,1.373,2.856,5.254,2.587
			c3.881-0.27,3.799-2.371,4.339-2.075c0,0-0.082,0.296-0.189,0.377c-0.107,0.081-2.856,3.153-3.853,3.692
			c-0.998,0.539-3.315,4.204-0.647,6.467c2.669,2.264,4.986-0.862,3.828-1.562c0,0-0.324-0.35-0.378,0.188
			c-0.053,0.539-1.185,1.024-1.348,0.97c-0.161-0.054-1.562,0.378-2.02-1.67c-0.458-2.048,0.727-2.83,0.862-2.938
			c0.136-0.108-0.135,2.048,1.158,2.479c1.295,0.432,0.889-0.323,0.782-0.593c-0.107-0.269-1.077-2.102-0.484-2.668
			c0.591-0.566,0.215-1.024,0.484-0.916c0.27,0.107-0.351,2.694,1.132,3.207s1.457-0.215,1.024-0.404
			c-0.431-0.189-1.939-2.075-0.781-3.961c0,0,2.345-2.614,2.237-4.636c-0.109-2.021-0.674-3.422-2.346-4.285
			c-1.67-0.862-3.852,0.54-3.206,1.806c0.647,1.267,1.563,0.97,1.671,0.916c0.107-0.054-2.317,1.482-3.827-0.458
			c-1.509-1.94-0.135-1.294-0.135-1.294s0.27,0.243,0.458,0.135c0.188-0.107,0.728-0.889-0.108-0.97
			c-0.836-0.081-2.129-0.054-1.509,1.158c0.62,1.213,0.997,2.506,3.045,2.749c2.048,0.242,3.638-1.213,3.503-1.833
			c-0.071-0.326-0.031-0.457-0.015-0.521c0.429,0.314,1.628,1.38,0.286,3.512c0,0-2.399,2.344-4.528,0.862
			c0,0-1.159-2.398-1.725-2.371c-0.566,0.027-0.89,1.266-0.593,1.778c0.296,0.512-0.808-0.27-0.754-0.997
			c0.054-0.728,0.35-2.83-0.108-3.288c-0.458-0.458-0.916-0.161-1.348,1.187c-0.431,1.347-0.216-0.944-0.107-1.16
			c0.107-0.215,1.078-2.128,0.917-2.722c-0.163-0.593,0.269-0.351,0.323-0.458c0.053-0.108-0.027-0.162-0.243-0.188
			c-0.215-0.028-0.862,0.134-1.132,0.485c-0.269,0.35,0.944-1.644,0.998-1.913c0.055-0.271,0.377-0.54,0.54-0.621
			c0.162-0.081,0.592-0.593-0.109-0.62c-0.7-0.026-2.101,0.458-2.721,2.533c-0.62,2.076-0.377-3.503,2.614-3.988
			c0,0,0.7-0.243,0.782-0.431c0.081-0.189,0.431-0.485,0.431-0.485s0.62,0.054,0.674-0.108c0.054-0.162,0.242-0.269,0.242-0.269
			s-0.107-0.216-0.431-0.324c-0.323-0.108-0.565-0.512-1.293-0.215c-0.728,0.296-1.158,0.431-1.348,0.593
			c-0.188,0.162,0.512-0.62,0.512-0.62s0.188-0.189,0.351-0.189c0.162,0,2.614-0.862,2.749-1.59c0.134-0.728,0.484-0.512,0.62-0.485
			c0.134,0.027,0.674,0.081,0.349-0.35c-0.323-0.431-0.673-0.512-1.158-0.458c-0.486,0.054-1.482,0.296-2.102,0.943
			c-0.619,0.647-0.944,0.377-0.539,0.054c0,0,6.521-4.473,6.548-9.001c0.027-4.527-3.044-8.084-7.842-5.848
			c0,0-4.097,2.183-1.159,5.875c0,0,1.105,1.671,3.072,0.835c1.968-0.835,1.968-2.587,0.62-3.18
			c-1.346-0.592-1.401,1.913-0.188,1.401c0,0-0.135,1.671-2.534,0.809c0,0,1.348,0.054,1.24-0.809c0,0,0.081-0.835-1.456-0.862
			c0,0-0.728-0.458-0.674-1.024c0,0,0.512,0.863,1.59,0.728c0,0,0.351-0.135-0.107-0.754c-0.458-0.621-0.458-1.078-0.432-1.294
			c0.027-0.215,0.054-0.809,0.377-0.97c0.324-0.161,1.563-0.889,2.292-0.62c0,0-2.577,0.532-1.875,2.174
			c0.005,0.012,0.01,0.023,0.015,0.035c0,0,0.081,0.108,0.27-0.027c0.188-0.134,2.129-1.428,2.587-1.186
			c0.458,0.243-1.967,0.889-0.324,1.725c0,0,0.35-0.162,0.593-0.323c0.242-0.162,0.512,0.592,1.94,0.027c0,0,2.803,2.695-0.43,6.36
			c0,0-1.915,2.641-2.183,2.371c0,0-0.135-3.503-1.968-2.587c0,0,1.859,1.266-0.485,4.419c0,0-3.36,4.615-3.776,8.26
			c-0.482-1.16-1.135-1.804-1.79-2.137c-0.674-0.343-3.92-1.949-5.295-0.167C26.042,26.265,26.985,28.178,28.79,28.044z"/>
		<path fill="#231F20" d="M47.084,62.301c-1.159-1.887,0.349-3.773,0.782-3.961c0.43-0.189,0.457-0.916-1.024-0.404
			c-1.482,0.512-0.862,3.1-1.133,3.207c-0.268,0.107,0.109-0.35-0.486-0.916c-0.591-0.566,0.378-2.398,0.486-2.668
			c0.109-0.27,0.513-1.025-0.781-0.594c-1.294,0.432-1.024,2.588-1.16,2.48c-0.134-0.107-1.319-0.891-0.861-2.938
			c0.458-2.049,1.859-1.617,2.021-1.672c0.162-0.053,1.293,0.432,1.348,0.971c0.053,0.539,0.376,0.188,0.376,0.188
			c1.159-0.699-1.159-3.826-3.827-1.562c-2.668,2.264-0.35,5.93,0.646,6.469c0.998,0.537,3.746,3.609,3.854,3.691
			c0.107,0.08,0.189,0.377,0.189,0.377c-0.539,0.297-0.458-1.805-4.339-2.076c-3.88-0.268-5.066,2.885-5.254,2.59
			c-0.188-0.299-0.135,0.537-1.266,0.457c-1.133-0.082-2.642,2.264-2.938,2.533c-0.297,0.27-0.297,0.809-0.486,0.943
			c-0.189,0.135-0.7,0.295-0.592,0.457c0.107,0.162,0.835,0.082,0.969,0.055c0.136-0.027,0.351-0.27,0.351,0
			s-0.593,0.889-0.782,1.078c-0.189,0.188-0.538,0.727-0.62,0.941c-0.081,0.217-0.458,0.783-0.916,1.053
			c-0.458,0.27-0.189,0.297-0.189,0.297c0.485,0.377,1.645-0.566,1.671-0.324s-0.189,0.512-0.323,0.646s-0.486-0.027-0.512,0.162
			s-0.377,0.539-0.754,0.701c-0.377,0.162-0.998,0.781-0.998,0.781c0.485,0.646,1.617,0.188,1.778,0.107
			c0.162-0.08,0.646-0.135,0.162,0.324c-0.485,0.457-1.725,0.699-1.913,0.754c-0.19,0.053-1.159,0.377-0.674-0.809
			c0.484-1.186-0.134-0.996-0.27-1.186c-0.134-0.188-0.619,0.082-0.511-0.107c0.107-0.188,1.616-0.674-0.189-0.811
			c-1.806-0.133-2.749,1.779-1.293,3.668c1.373,1.78,4.615,0.179,5.293-0.168c0.656-0.333,1.309-0.977,1.791-2.137
			c0.416,3.645,3.776,8.26,3.776,8.26c2.344,3.152,0.485,4.42,0.485,4.42c1.833,0.914,1.968-2.588,1.968-2.588
			c0.269-0.27,2.183,2.371,2.183,2.371c3.234,3.666,0.431,6.359,0.431,6.359c-1.429-0.566-1.698,0.189-1.941,0.027
			c-0.242-0.162-0.593-0.324-0.593-0.324c-1.644,0.838,0.781,1.482,0.324,1.727c-0.458,0.242-2.398-1.051-2.586-1.186
			c-0.189-0.135-0.27-0.027-0.27-0.027c-0.005,0.012-0.011,0.023-0.015,0.035c-0.702,1.643,1.875,2.174,1.875,2.174
			c-0.729,0.27-1.968-0.457-2.292-0.619c-0.322-0.162-0.349-0.756-0.376-0.971c-0.026-0.215-0.026-0.674,0.431-1.295
			c0.458-0.617,0.108-0.752,0.108-0.752c-1.078-0.135-1.59,0.727-1.59,0.727c-0.054-0.564,0.674-1.023,0.674-1.023
			c1.536-0.027,1.456-0.863,1.456-0.863c0.108-0.861-1.24-0.809-1.24-0.809c2.398-0.861,2.533,0.809,2.533,0.809
			c-1.212-0.512-1.159,1.994,0.188,1.402c1.347-0.594,1.347-2.346-0.62-3.18c-1.966-0.838-3.071,0.834-3.071,0.834
			c-2.938,3.693,1.159,5.875,1.159,5.875c4.796,2.238,7.868-1.32,7.842-5.848c-0.027-4.527-6.549-9-6.549-9
			c-0.404-0.324-0.08-0.594,0.539,0.053c0.62,0.648,1.618,0.889,2.103,0.943c0.485,0.053,0.836-0.027,1.159-0.457
			c0.324-0.432-0.215-0.379-0.35-0.352c-0.135,0.027-0.485,0.242-0.62-0.486c-0.135-0.725-2.586-1.59-2.749-1.59
			c-0.162,0-0.35-0.188-0.35-0.188s-0.7-0.781-0.512-0.619c0.189,0.162,0.62,0.297,1.347,0.592c0.729,0.297,0.97-0.107,1.294-0.215
			s0.431-0.322,0.431-0.322s-0.188-0.109-0.243-0.27c-0.054-0.162-0.674-0.109-0.674-0.109s-0.35-0.297-0.431-0.486
			c-0.081-0.188-0.781-0.43-0.781-0.43c-2.991-0.484-3.234-6.062-2.614-3.988c0.62,2.076,2.021,2.561,2.721,2.533
			c0.701-0.025,0.269-0.539,0.108-0.619c-0.161-0.082-0.485-0.352-0.539-0.621c-0.054-0.268-1.266-2.264-0.998-1.912
			c0.27,0.35,0.917,0.512,1.132,0.484c0.216-0.027,0.296-0.08,0.243-0.189c-0.054-0.107-0.485,0.135-0.324-0.457
			c0.161-0.594-0.809-2.506-0.917-2.721c-0.107-0.217-0.323-2.508,0.107-1.16c0.432,1.348,0.89,1.645,1.349,1.186
			c0.458-0.457,0.161-2.561,0.106-3.287c-0.053-0.729,1.052-1.51,0.756-0.998c-0.297,0.512,0.027,1.752,0.593,1.779
			s1.725-2.371,1.725-2.371c2.128-1.482,4.527,0.861,4.527,0.861c1.342,2.131,0.144,3.196-0.285,3.511
			c-0.016-0.063-0.055-0.193,0.016-0.519c0.135-0.619-1.455-2.074-3.504-1.834c-2.048,0.244-2.425,1.537-3.045,2.75
			c-0.62,1.213,0.673,1.24,1.508,1.158c0.836-0.08,0.296-0.861,0.109-0.969c-0.189-0.107-0.459,0.133-0.459,0.133
			s-1.374,0.648,0.134-1.293c1.51-1.939,3.936-0.404,3.829-0.457c-0.109-0.055-1.026-0.352-1.673,0.916
			c-0.646,1.266,1.537,2.668,3.208,1.805c1.67-0.863,2.236-2.264,2.345-4.283C49.429,64.914,47.084,62.301,47.084,62.301z"/>
		<path fill="#231F20" d="M29,68.494c1.499-0.638,1.53-1.888,1.279-2.848c0.784-0.296-0.008-0.208-0.093-0.416
			c-0.087-0.211,0.802,0.582,0.969,0.285c0.167-0.295,0.471,1.047,1.52,0.703c0.746-0.246,0.494-0.186,0.287-0.13
			c0.07-0.05,0.129-0.153,0.087-0.378c0,0,1.685,0.447,1.803-0.604c0,0-0.129-0.377-0.253-0.082
			c-0.124,0.295-0.131-0.504-0.337-0.08c-0.206,0.42-0.336,0.002-0.379-0.209c-0.044-0.209-0.091-0.797-0.846-0.623
			c-0.755,0.174-0.21-0.041-0.21-0.041s1.211-0.809-0.179-1.217c0,0,0.584-0.594-0.427-0.795c-1.01-0.203-1.271-1.209-1.313-1.377
			c-0.044-0.168,0.594,0.793,1.097,0.496c0,0,1.224,0.535,1.258-0.305c0.036-0.842-0.639-0.92-1.024-1.799
			c0,0-1.134-0.908-0.058-2.57c0,0,0.171,1.248,1.212,0.312c1.041-0.936,3.013-1.396,3.833,0.291c0.82,1.688-0.869,2.186-1.03,2.227
			c-0.16,0.041,0.837-1.096-0.295-1.531c-1.132-0.432-1.601,1.547-0.871,1.984s1.824,1.074,3.137-0.994
			c0.457-0.718,0.523-1.48,0.391-2.203c0.371-0.398,0.281-1.189,0.281-1.189c1.206-0.291,0.512-1.375,0.512-1.375
			s0.526,0.279,0.451,0.844c-0.077,0.564,0.166,0.482,0.166,0.482c1.3,1.117,1.085-0.332,1.085-0.332s-0.524,0.045,0.12-0.082
			c0.646-0.127-0.049-1.168-0.049-1.168c1.78,0.67,0.638-0.852,0.638-0.852c1.174,0.432,0.521-0.369,0.521-0.369
			c1.048-0.008,1.45-0.254,1.483-1.182c0.032-0.928-1.218-0.916-1.218-0.916c0.572-0.614-0.132-0.574-0.514-0.518
			c0.077-0.072,0.16-0.22,0.223-0.529c0.156-0.768-0.769-0.316-0.769-0.316c0.88-0.975-0.291-0.925,0.033-0.968
			c0.322-0.043,0.318-0.446,0.114-0.768c-0.205-0.321-0.727-0.034-0.727-0.034c-0.336-0.426-0.773,0.298-1.004,0.799
			c0.095-0.612-0.559-0.846-0.488-0.989c0.066-0.136,0.678-1.996-0.281-1.923c0.014-0.57-0.113-1.15-0.476-1.7
			c-1.348-2.046-2.432-1.392-3.154-0.942c-0.722,0.449-0.221,2.421,0.904,1.968c1.125-0.453,0.109-1.573,0.27-1.535
			s1.858,0.508,1.066,2.209c-0.792,1.701-2.772,1.273-3.829,0.354c-1.055-0.918-1.207,0.333-1.207,0.333
			c-1.102-1.644,0.017-2.569,0.017-2.569c0.372-0.886,1.043-0.976,0.995-1.817c-0.049-0.84-1.263-0.284-1.263-0.284
			c-0.507-0.29-1.129,0.683-1.089,0.513c0.04-0.168,0.284-1.179,1.292-1.397c1.007-0.219,0.413-0.802,0.413-0.802
			c1.384-0.432,0.159-1.221,0.159-1.221s-0.549-0.206,0.209-0.043c0.758,0.162,0.795-0.426,0.835-0.638
			c0.041-0.21,0.164-0.632,0.377-0.213c0.214,0.419,0.208-0.38,0.336-0.086c0.128,0.293,0.251-0.086,0.251-0.086
			c-0.134-1.05-1.812-0.574-1.812-0.574c0.039-0.226-0.022-0.329-0.093-0.377c0.208,0.052,0.458,0.108-0.29-0.125
			c-1.054-0.328-1.336,1.02-1.507,0.727c-0.171-0.292-1.047,0.514-0.964,0.303c0.082-0.21,0.873-0.135,0.087-0.418
			c0.235-0.964,0.183-2.214-1.327-2.828c-2.652-1.081-1.917,1.393-2.023,1.833c-0.106,0.442-0.83-0.433-0.598,0.998
			c0.231,1.43-3.581,0.029-3.694-0.245c-0.112-0.275-0.008-1.102-0.609-0.326c-0.599,0.776,0.32-1.325-0.125-1.817
			c-0.444-0.491-0.993-0.157-0.933,0.449c0.061,0.605-0.502-0.767-0.657,0.556c-0.021,0.181-0.042,0.273-0.062,0.305l-0.052-0.042
			c-0.111-0.354-0.219-2.203-0.345-2.573c-0.169-0.494,0.041-1.653-0.778-0.654c-0.817,0.998,0.593-1.604-0.23-1.32
			c-0.825,0.282,0.485-1.216-0.394-1.043c-0.88,0.172,0.361-3.033,1.079-2.764c0,0-0.871,1.274,1.058,1.258
			c0,0,1.046-0.064,0.592-1.547c0,0-1.064-2.25-2.863,0.134c0,0-0.491,0.61-0.543,0.886c-0.053,0.275-0.122-1.377-0.014-1.543
			c0.109-0.166,0.992-0.063,0.817-1.163c0,0,0.821-0.668,1.318-0.397c0.498,0.271,0.777,0.599,0.993,0.102
			c0.217-0.498,0.714-0.172,0.6-0.832c-0.116-0.661,0.49-0.72-0.011-1.156c-0.499-0.437,0.601-0.777-0.063-1.102
			c-0.663-0.326,0.876-0.558-0.504-1.098c-1.382-0.54-1.217-0.542-1.377,0.012c-0.161,0.552-0.894-1.48-1.323-0.21
			c0,0-2.037,0.292-1.755,1.062c0,0,1.103,0.102,1.218,0.706c0.116,0.605-0.429,1.436-0.647,1.659
			c-0.219,0.221-0.772-0.159-0.988,0.503c-0.005,0.017-0.008,0.058-0.013,0.083c-0.208-0.083-0.604-0.127-0.796,0.628
			c-0.267,1.048-0.06-0.605-0.703,1.604c0,0,0.476-2.429,0.473-2.76c-0.003-0.33,0.103-0.827-0.61-0.436
			c-0.713,0.392,1.256-1.333-0.012-1.543c0,0,0.544-0.831-0.065-1.211c0,0-1.966-4.611-5.943-5.79c0,0-1.823-0.701-0.379,0.884
			c0,0-0.437,0.334-0.654,0.722c0,0,0.773,0.214,0.94,0.433s1.106,0.542,1.601,0.428c0.495-0.115,0.829,0.323,0.995,0.378
			c0.166,0.053-1.047-0.103-1.1,0.174c-0.054,0.276,0.941,0.653,1.603,0.703c0.662,0.049,1.05,0.433,1.218,0.706
			c0.167,0.274,1.003,1.315,1.061,1.59c0.057,0.275-0.38,0.829-0.71,0.722c-0.332-0.108-1.782-2.354-2.556-2.513
			c-0.772-0.159-0.218,0.277-0.161,0.441c0.056,0.165-2.94-2.51-4.2-1.562c0,0-0.219,0.112-0.051,0.496c0,0-2.86,0.575-2.239,2.498
			c0.623,1.923,2.835,3.061,3.972,0.628c0,0-0.006-0.827-0.613-0.822c-0.606,0.006-0.718-0.16-0.38,0.609
			c0,0-0.387-0.162-0.385,0.113c0.002,0.276-0.172-0.825-0.664-0.325c-0.492,0.5-1.103-0.101-0.831-0.434
			c0.273-0.333,0.661-0.171,0.654-0.887c0-0.031-0.001-0.051-0.001-0.073c0.024,0.262,0.153,0.961,0.719,0.232
			c0.818-1.054,3.973,0.793,4.088,1.399c0,0-1.821-0.371-2.091,0.182c-0.271,0.553,3.64,0.466,3.882,3.218
			c0,0-3.1-1.792-4.183,0.531c0,0-1.086,1.937,0.517,2.475c0,0,2.253,0.578,1.778-1.269c0,0-0.467-0.957-0.904-0.049
			c-0.437,0.907-0.93,0.237-0.945,0.051c-0.017-0.186,0.748,0.309,0.686-0.278c-0.062-0.588-0.078-0.688-0.278-0.644
			c-0.2,0.045,1.668-1.628,3.181,0.428c1.513,2.057,1.464,6.634,2.023,7.751s1.324,3.158,1.764,3.11
			c0.44-0.048,1.632,3.068,7.048,3.441c3.606,0.249,4.475,0.237,4.72,0.135c1.423,0.338,2.224,1.943,2.025,2.024
			c-0.117,0.048-0.94,0.081-1.159,0.958c-0.242-0.179-0.506-0.354-0.81-0.524c-4.294-2.395-5.492-0.247-5.658,0.046
			c-0.166,0.294-0.619,1.012-0.489,1.597c0.129,0.586,0.852,1.669,0.629,0.12c0,0,0.379,0.291,0.458-0.381s0.241-1.384,0.574-1.597
			c0.333-0.213-0.458,0.38,0.047,0.628c0.505,0.247,0.751-0.258,1.001-0.469s-0.665,0.55-0.285,0.966
			c0.38,0.416,0.88,0.035,1.13-0.219c0.248-0.253,0.457-0.422,0.625-0.34c0.168,0.082-0.459,0.255-0.288,0.672
			c0.171,0.418,0.714,0.162,1.047-0.051c0.244-0.155,1.384,0.135,2.084,0.874c0.108,0.444,0.301,0.978,0.604,1.619
			c0.093,1.348-0.254,2.824-1.304,2.65l-0.168,0.002c0,0,0.556-0.901-0.107-1.089c0.699-1.062,0.298-1.258,0.298-1.258
			c0.083-0.168-0.083,0.167,0.078-0.629c0.161-0.798-0.843-0.664-0.843-0.664c0.035-0.922-0.842-0.412-0.842-0.412
			c-0.84-0.287-1.079,1.182-1.079,1.182c-0.143-1.843-1.397-1.539-1.397-1.539c-1.05-0.284-0.791,0.635-0.791,0.635
			c-1.343-0.114,0.099,1.885,0.099,1.885c-0.764-1.125-1.389-0.785-1.389-0.785s0.17,0.333-0.126,0.042
			c-0.295-0.291-0.838-0.035-0.838-0.035c-0.71,0.299,0.05,0.964,0.05,0.964c-1.296,0.387,0.891,1.291,0.891,1.291
			c-3.143,0.069-2.255,0.815-2.465,0.817c-0.209,0-0.503,0.088-0.503,0.088l-0.454,0.717l0.214,0.709l0.672,0.121
			c-0.701,1.389,3.024,0.855,2.648,1.025c-0.375,0.172-1.21,0.598-1.21,0.598c-0.961,0.342-0.204,0.754-0.204,0.754
			c-0.29,0.297-0.333,0.299-0.244,0.84c0.072,0.441,0.734,0.248,0.987,0.158c-0.007,0.016-0.013,0.025-0.021,0.045
			c-0.165,0.379,0.84,0.287,0.964,0.033c0.124-0.252,1.29-1.184,1.208-0.889c-0.023,0.084-0.079,0.166-0.144,0.243
			c-0.106,0.078-0.27,0.2-0.521,0.39c-1.458,1.102-0.197,1.553-0.197,1.553c0.007,0.965,1.051,0.494,1.051,0.494
			c1.18,0.744,1.498-1.354,1.498-1.354l0.13,0.459c0,0-0.257-0.75,0,0.127c0.26,0.879,0.76,0.623,0.76,0.623
			c0.635,0.791,0.961-0.428,0.961-0.428c0.883,0.621,0.532-1.303,0.617-1.178c0.084,0.125,0.044,0.252,0.292-0.129
			c0.249-0.379-0.346-1.213-0.346-1.213l-0.007-0.006c0.439-0.276-0.054-1.039-0.054-1.039l0.168-0.002
			c1.086-0.195,1.444,1.39,1.336,2.777c-0.295,0.6-0.502,1.111-0.644,1.554c-0.693,0.692-1.754,0.979-1.992,0.835
			c-0.336-0.207-0.884-0.455-1.048-0.033c-0.164,0.42,0.466,0.582,0.299,0.666c-0.167,0.086-0.377-0.08-0.631-0.328
			c-0.253-0.25-0.759-0.623-1.132-0.201c-0.375,0.422,0.554,1.168,0.301,0.961c-0.252-0.207-0.509-0.707-1.01-0.451
			s0.3,0.834-0.036,0.629c-0.336-0.207-0.511-0.918-0.601-1.588s-0.463-0.373-0.463-0.373c0.196-1.553-0.508-0.459-0.628,0.131
			c-0.12,0.588,0.347,1.295,0.516,1.588c0.17,0.291,1.403,2.418,5.657-0.047c0.191-0.11,0.354-0.226,0.52-0.34
			c0.056,1.272,1.098,1.29,1.231,1.342c0.2,0.079-0.576,1.698-1.993,2.058c-0.249-0.097-1.123-0.094-4.716,0.214
			c-5.408,0.463-6.548,3.598-6.989,3.557c-0.441-0.039-1.171,2.012-1.712,3.139c-0.542,1.127-0.416,5.703-1.895,7.785
			c-1.479,2.08-3.375,0.438-3.174,0.479c0.201,0.041,0.215-0.059,0.269-0.646c0.052-0.588-0.704-0.082-0.691-0.268
			c0.013-0.186,0.494-0.863,0.946,0.035c0.453,0.9,0.903-0.064,0.903-0.064c0.445-1.854-1.799-1.24-1.799-1.24
			c-1.593,0.566-0.475,2.484-0.475,2.484c1.12,2.305,4.191,0.461,4.191,0.461c-0.197,2.756-4.11,2.734-3.829,3.283
			c0.279,0.549,2.094,0.148,2.094,0.148c-0.105,0.605-3.114,2.504-3.95,1.465C6.025,81.807,6,82.493,6,82.761
			c0-0.021,0-0.039,0-0.067c0-0.717-0.506-0.549-0.784-0.877c-0.278-0.328,0.265-0.939,0.765-0.447
			c0.499,0.492,0.626-0.611,0.629-0.336c0.002,0.275,0.372,0.107,0.372,0.107c-0.324,0.773-0.222,0.605,0.383,0.602
			c0.607-0.004,0.596-0.83,0.596-0.83c-1.178-2.414-3.373-1.238-3.963,0.693c-0.59,1.934,2.279,2.461,2.279,2.461
			c-0.163,0.387,0.059,0.494,0.059,0.494c1.274,0.926,4.227-1.797,4.173-1.633c-0.054,0.168-0.601,0.611,0.168,0.441
			c0.771-0.174,2.185-2.441,2.513-2.555c0.331-0.113,0.776,0.434,0.723,0.711c-0.053,0.275-0.871,1.328-1.033,1.604
			c-0.164,0.277-0.546,0.666-1.207,0.727s-1.649,0.453-1.592,0.729c0.058,0.275,1.268,0.102,1.104,0.158
			c-0.166,0.057-0.492,0.5-0.989,0.393C9.7,85.027,8.766,85.369,8.603,85.59c-0.164,0.221-0.933,0.447-0.933,0.447
			c0.223,0.385,0.666,0.711,0.666,0.711c-1.418,1.609,0.394,0.879,0.394,0.879c3.956-1.244,5.846-5.887,5.846-5.887
			c0.603-0.393,0.045-1.215,0.045-1.215c1.265-0.229-0.733-1.922-0.013-1.541c0.72,0.379,0.605-0.115,0.603-0.445
			c-0.003-0.332-0.519-2.752-0.519-2.752c0.679,2.197,0.446,0.547,0.73,1.592c0.204,0.753,0.6,0.702,0.806,0.615
			c0.005,0.025,0.009,0.065,0.015,0.082c0.225,0.66,0.773,0.27,0.995,0.488s0.78,1.041,0.675,1.646
			c-0.105,0.607-1.206,0.727-1.206,0.727c-0.27,0.773,1.771,1.031,1.771,1.031c0.451,1.264,1.15-0.779,1.321-0.23
			c0.17,0.551,0.004,0.551,1.377-0.012c1.372-0.562-0.171-0.771,0.486-1.105c0.659-0.336-0.446-0.658,0.046-1.102
			c0.492-0.445-0.114-0.496-0.011-1.156c0.105-0.664-0.387-0.328-0.612-0.822c-0.224-0.494-0.497-0.16-0.991,0.119
			c-0.494,0.277-1.325-0.375-1.325-0.375c0.156-1.104-0.725-0.986-0.835-1.15c-0.111-0.164-0.07-1.816-0.013-1.543
			c0.058,0.275,0.559,0.877,0.559,0.877c1.836,2.354,2.865,0.088,2.865,0.088c0.429-1.492-0.619-1.537-0.619-1.537
			c-1.928,0.014-1.036,1.273-1.036,1.273c-0.713,0.283-2.007-2.902-1.124-2.744c0.883,0.156-0.452-1.318,0.377-1.051
			c0.828,0.27-0.626-2.307,0.208-1.324c0.835,0.986,0.606-0.17,0.767-0.666c0.12-0.372,0.197-2.221,0.302-2.579l0.052-0.042
			c0.021,0.032,0.043,0.123,0.067,0.303c0.176,1.32,0.716-0.061,0.666,0.547c-0.049,0.605,0.504,0.932,0.94,0.432
			s-0.518-2.586,0.096-1.818c0.612,0.766,0.495-0.059,0.603-0.336c0.107-0.277,3.896-1.74,3.688-0.305
			c-0.209,1.434,0.5,0.545,0.614,0.986C27.06,67.135,26.364,69.619,29,68.494z M22.994,54.562c0,0,0.133-0.106,0.27-0.217
			C23.127,54.473,22.994,54.562,22.994,54.562z M28.386,67.564c0.547-0.445-0.065-1.158-0.065-1.158
			c1.372-0.781-0.225-0.604,0.047-1.045c0.039-0.063,0.074-0.095,0.11-0.138c0.19,0.113,0.478,0.268,0.794,0.372
			C29.876,67.77,28.386,67.564,28.386,67.564z M37.45,48.8c0.044-0.047,0.093-0.102,0.145-0.162
			c0.198,0.834,0.512,1.488,0.512,1.488c-1.577-0.471-1.65,0.416-1.65,0.416c-1.733,0.014-1.567,0.658-1.567,0.658
			c-0.198,0.404,1.537,0.551,1.537,0.551c0.131,1.17,1.777,0.389,1.777,0.389c-0.692,0.612-0.963,1.192-1.046,1.704
			c-0.105-0.126-0.204-0.235-0.286-0.321c-0.519-0.538-3.064-1.696-5.296-0.764c-0.017-0.729-0.975-0.943-0.975-0.943
			c1.842-0.1,1.585-0.893,1.585-0.893c-0.122-0.697-1.206-0.882-1.538-0.918c0.037,0.002,0.085,0.004,0.147,0.006
			c0.542,0.02,0.758-0.314,0.848-0.612C34.002,50.744,36.899,49.39,37.45,48.8z M28.734,34.902c0,0,1.487-0.23,0.919,1.952
			c-0.314,0.111-0.6,0.27-0.788,0.387c-0.037-0.042-0.073-0.073-0.113-0.136c-0.279-0.439,1.319-0.287-0.063-1.046
			C28.688,36.059,29.289,35.337,28.734,34.902z M23.608,37.903l0.247-0.042c0,0,1.22,0.981,2.977,0.141l0.574,0.686l-0.226,0.285
			C26.342,39.203,24.479,39.615,23.608,37.903z M26.564,51.768c-0.018,0.013-0.026,0.033-0.042,0.047
			c-0.33-0.011-0.862-0.186-0.835-1.047c0.025-0.786,0.694-0.917,1.025-0.933c0.051,0.116,0.12,0.222,0.228,0.294
			c0.383,0.258,0.926,0.4,1.446,0.334c-0.152,0.346-0.07,0.777,0.004,1.032C27.765,51.279,27.038,51.436,26.564,51.768z
			 M26.432,64.496c-1.769-0.812-2.973,0.189-2.973,0.189l-0.249-0.037c0.842-1.728,2.712-1.346,3.555-1.131l0.231,0.282
			L26.432,64.496z"/>
	</g>
	<g>
		<path fill="#231F20" d="M71.21,73.176c-1.805,0.135-0.297,0.621-0.188,0.809c0.107,0.189-0.378-0.08-0.512,0.107
			c-0.136,0.189-0.755,0-0.271,1.186c0.485,1.186-0.484,0.861-0.673,0.809c-0.189-0.053-1.43-0.297-1.914-0.754
			c-0.485-0.459,0-0.406,0.162-0.324s1.293,0.539,1.779-0.109c0,0-0.621-0.617-0.999-0.779c-0.376-0.162-0.728-0.512-0.753-0.701
			c-0.027-0.189-0.378-0.027-0.513-0.162s-0.35-0.404-0.324-0.646c0.027-0.242,1.187,0.701,1.672,0.324c0,0,0.27-0.027-0.189-0.297
			c-0.458-0.27-0.835-0.836-0.916-1.051c-0.081-0.217-0.432-0.754-0.619-0.943c-0.189-0.189-0.782-0.809-0.782-1.078
			s0.215-0.027,0.352,0c0.133,0.027,0.861,0.107,0.969-0.055c0.107-0.16-0.403-0.322-0.593-0.457
			c-0.188-0.135-0.188-0.674-0.485-0.943s-1.805-2.615-2.938-2.533c-1.132,0.08-1.077-0.754-1.267-0.457
			c-0.188,0.295-1.373-2.857-5.255-2.59c-3.88,0.271-3.8,2.373-4.338,2.076c0,0,0.08-0.297,0.188-0.377
			c0.109-0.08,2.857-3.154,3.854-3.691c0.997-0.541,3.314-4.205,0.647-6.467c-2.669-2.266-4.986,0.861-3.829,1.561
			c0,0,0.325,0.352,0.379-0.188s1.186-1.023,1.348-0.971c0.161,0.055,1.562-0.377,2.021,1.672c0.458,2.047-0.728,2.83-0.862,2.938
			s0.135-2.049-1.158-2.48c-1.294-0.43-0.89,0.324-0.782,0.594c0.108,0.27,1.078,2.102,0.485,2.668
			c-0.593,0.564-0.216,1.023-0.485,0.916s0.351-2.695-1.132-3.207s-1.455,0.217-1.023,0.404c0.431,0.188,1.94,2.074,0.781,3.961
			c0,0-2.344,2.613-2.236,4.637c0.107,2.02,0.674,3.422,2.344,4.283s3.854-0.539,3.207-1.805c-0.646-1.268-1.562-0.971-1.671-0.916
			c-0.107,0.053,2.317-1.482,3.826,0.457c1.51,1.939,0.135,1.295,0.135,1.295s-0.269-0.242-0.458-0.137
			c-0.188,0.109-0.728,0.891,0.109,0.971c0.835,0.082,2.128,0.055,1.508-1.158s-0.997-2.506-3.045-2.748
			c-2.049-0.242-3.638,1.213-3.504,1.832c0.07,0.325,0.031,0.455,0.016,0.52c-0.428-0.314-1.626-1.381-0.284-3.512
			c0,0,2.397-2.344,4.527-0.861c0,0,1.158,2.398,1.725,2.371c0.565-0.027,0.889-1.268,0.593-1.779
			c-0.297-0.512,0.808,0.27,0.755,0.998c-0.055,0.727-0.35,2.83,0.107,3.287c0.458,0.459,0.916,0.162,1.348-1.186
			c0.431-1.348,0.216,0.943,0.107,1.16c-0.107,0.215-1.077,2.127-0.917,2.721c0.163,0.594-0.27,0.35-0.322,0.459
			c-0.055,0.107,0.027,0.16,0.242,0.188c0.216,0.027,0.862-0.135,1.133-0.484c0.268-0.35-0.943,1.645-0.998,1.914
			c-0.055,0.268-0.377,0.537-0.539,0.619c-0.161,0.08-0.593,0.592,0.107,0.619c0.701,0.027,2.103-0.457,2.722-2.533
			c0.62-2.074,0.378,3.504-2.614,3.988c0,0-0.698,0.244-0.78,0.432s-0.431,0.484-0.431,0.484s-0.62-0.055-0.675,0.109
			c-0.055,0.16-0.242,0.268-0.242,0.268s0.107,0.217,0.431,0.324c0.324,0.109,0.566,0.512,1.294,0.217
			c0.728-0.297,1.158-0.432,1.348-0.594c0.188-0.162-0.512,0.619-0.512,0.619s-0.188,0.189-0.351,0.189s-2.614,0.861-2.748,1.59
			c-0.135,0.727-0.486,0.512-0.621,0.484c-0.134-0.027-0.674-0.08-0.351,0.352c0.324,0.432,0.675,0.512,1.159,0.457
			c0.485-0.053,1.482-0.295,2.103-0.943c0.618-0.646,0.942-0.377,0.538-0.053c0,0-6.521,4.473-6.548,9
			c-0.026,4.527,3.045,8.086,7.843,5.848c0,0,4.097-2.184,1.157-5.875c0,0-1.104-1.67-3.07-0.834
			c-1.969,0.834-1.969,2.586-0.621,3.18c1.347,0.592,1.401-1.914,0.188-1.4c0,0,0.136-1.672,2.533-0.811
			c0,0-1.348-0.055-1.239,0.811c0,0-0.081,0.834,1.456,0.861c0,0,0.728,0.457,0.673,1.023c0,0-0.512-0.861-1.59-0.727
			c0,0-0.351,0.135,0.107,0.754s0.458,1.078,0.431,1.293c-0.025,0.215-0.053,0.809-0.376,0.971c-0.324,0.16-1.562,0.889-2.292,0.619
			c0,0,2.577-0.531,1.876-2.172c-0.005-0.014-0.011-0.027-0.016-0.037c0,0-0.081-0.107-0.27,0.027
			c-0.188,0.133-2.129,1.428-2.586,1.184c-0.459-0.242,1.966-0.889,0.322-1.725c0,0-0.35,0.162-0.594,0.324
			c-0.241,0.162-0.511-0.592-1.938-0.025c0,0-2.804-2.695,0.43-6.361c0,0,1.915-2.641,2.183-2.371c0,0,0.136,3.504,1.968,2.586
			c0,0-1.859-1.266,0.485-4.418c0,0,3.36-4.616,3.776-8.259c0.481,1.158,1.134,1.802,1.789,2.135
			c0.676,0.344,3.922,1.95,5.296,0.169C73.96,74.953,73.016,73.041,71.21,73.176z"/>
		<path fill="#231F20" d="M52.135,42.88c-0.431,0.188-0.458,0.916,1.024,0.404s0.862-3.099,1.132-3.207
			c0.269-0.108-0.107,0.35,0.485,0.916c0.593,0.567-0.377,2.399-0.485,2.668c-0.107,0.27-0.512,1.024,0.781,0.593
			c1.294-0.431,1.024-2.587,1.159-2.479s1.32,0.889,0.862,2.938s-1.859,1.617-2.021,1.671c-0.161,0.054-1.293-0.431-1.348-0.971
			c-0.053-0.539-0.378-0.188-0.378-0.188c-1.157,0.7,1.16,3.827,3.829,1.562c2.666-2.263,0.349-5.928-0.647-6.467
			c-0.999-0.539-3.747-3.611-3.854-3.692c-0.108-0.081-0.19-0.377-0.19-0.377c0.54-0.296,0.46,1.806,4.34,2.076
			c3.88,0.269,5.066-2.884,5.255-2.587c0.189,0.297,0.135-0.539,1.267-0.458c1.133,0.081,2.641-2.264,2.938-2.534
			c0.296-0.269,0.296-0.808,0.485-0.943s0.7-0.296,0.593-0.458c-0.108-0.162-0.835-0.081-0.971-0.054c-0.135,0.027-0.35,0.27-0.35,0
			c0-0.269,0.593-0.889,0.782-1.078c0.188-0.188,0.538-0.727,0.62-0.942c0.08-0.216,0.457-0.782,0.915-1.052
			s0.189-0.296,0.189-0.296c-0.486-0.377-1.645,0.566-1.672,0.324c-0.025-0.243,0.189-0.512,0.324-0.647
			c0.134-0.135,0.485,0.027,0.513-0.161c0.025-0.189,0.376-0.54,0.753-0.701c0.378-0.162,0.998-0.781,0.998-0.781
			c-0.485-0.647-1.618-0.189-1.778-0.108c-0.162,0.081-0.647,0.135-0.162-0.323c0.485-0.458,1.725-0.701,1.913-0.755
			s1.159-0.377,0.674,0.809s0.135,0.997,0.271,1.186c0.133,0.188,0.619-0.081,0.512,0.108c-0.109,0.188-1.617,0.674,0.188,0.809
			c1.805,0.135,2.747-1.778,1.292-3.665c-1.383-1.794-4.66-0.155-5.306,0.173c-0.651,0.334-1.298,0.977-1.777,2.128
			c-0.417-3.644-3.776-8.257-3.776-8.257c-2.345-3.153-0.485-4.419-0.485-4.419c-1.832-0.916-1.968,2.587-1.968,2.587
			c-0.269,0.27-2.184-2.371-2.184-2.371c-3.232-3.665-0.431-6.36-0.431-6.36c1.43,0.566,1.698-0.188,1.94-0.026
			c0.244,0.162,0.593,0.323,0.593,0.323c1.644-0.835-0.78-1.482-0.321-1.725c0.456-0.242,2.397,1.051,2.585,1.186
			c0.188,0.135,0.271,0.026,0.271,0.026c0.005-0.011,0.011-0.023,0.015-0.036c0.702-1.642-1.875-2.173-1.875-2.173
			c0.729-0.27,1.968,0.458,2.291,0.619c0.324,0.162,0.352,0.755,0.379,0.97c0.025,0.216,0.025,0.674-0.433,1.294
			c-0.459,0.62-0.107,0.754-0.107,0.754c1.078,0.135,1.59-0.728,1.59-0.728c0.054,0.566-0.675,1.023-0.675,1.023
			c-1.535,0.027-1.455,0.863-1.455,0.863c-0.107,0.862,1.24,0.809,1.24,0.809c-2.397,0.863-2.534-0.809-2.534-0.809
			c1.214,0.512,1.159-1.994-0.188-1.401c-1.348,0.593-1.348,2.345,0.62,3.18c1.967,0.835,3.072-0.835,3.072-0.835
			c2.937-3.692-1.158-5.875-1.158-5.875c-4.799-2.237-7.869,1.321-7.844,5.848c0.027,4.527,6.549,9.001,6.549,9.001
			c0.405,0.323,0.08,0.593-0.539-0.054c-0.62-0.646-1.616-0.889-2.103-0.943c-0.483-0.054-0.835,0.027-1.157,0.458
			c-0.325,0.431,0.215,0.377,0.35,0.35c0.135-0.027,0.485-0.242,0.62,0.486c0.135,0.727,2.587,1.589,2.749,1.589
			s0.35,0.189,0.35,0.189s0.701,0.781,0.513,0.62c-0.189-0.162-0.62-0.296-1.348-0.593s-0.97,0.107-1.294,0.215
			c-0.323,0.108-0.431,0.324-0.431,0.324s0.188,0.107,0.242,0.269c0.054,0.162,0.674,0.108,0.674,0.108s0.35,0.295,0.432,0.485
			c0.082,0.188,0.782,0.431,0.782,0.431c2.99,0.484,3.232,6.063,2.613,3.988c-0.62-2.075-2.022-2.56-2.723-2.533
			c-0.7,0.027-0.27,0.539-0.108,0.62c0.163,0.081,0.485,0.35,0.54,0.62c0.054,0.27,1.266,2.264,0.996,1.913
			c-0.269-0.351-0.916-0.512-1.131-0.485s-0.297,0.081-0.242,0.188c0.055,0.108,0.484-0.134,0.322,0.458
			c-0.16,0.593,0.81,2.507,0.917,2.722c0.106,0.216,0.323,2.506-0.107,1.16c-0.432-1.348-0.89-1.645-1.349-1.186
			c-0.456,0.458-0.161,2.56-0.107,3.288s-1.051,1.509-0.754,0.997c0.296-0.512-0.027-1.752-0.594-1.779
			c-0.565-0.027-1.724,2.372-1.724,2.372c-2.13,1.482-4.528-0.862-4.528-0.862c-1.341-2.13-0.144-3.196,0.285-3.511
			c0.016,0.064,0.055,0.194-0.016,0.519c-0.135,0.62,1.455,2.076,3.504,1.833c2.048-0.242,2.425-1.536,3.045-2.749
			s-0.674-1.239-1.509-1.159c-0.836,0.081-0.296,0.863-0.108,0.971c0.188,0.107,0.458-0.135,0.458-0.135s1.375-0.646-0.135,1.293
			c-1.51,1.941-3.935,0.404-3.827,0.458c0.109,0.054,1.024,0.35,1.672-0.917c0.646-1.267-1.537-2.668-3.207-1.805
			c-1.671,0.862-2.237,2.263-2.345,4.285c-0.107,2.021,2.237,4.635,2.237,4.635C54.076,40.805,52.566,42.691,52.135,42.88z"/>
		<path fill="#231F20" d="M92.641,19.477c-0.604,0.005-0.597,0.831-0.597,0.831c1.177,2.414,3.37,1.239,3.96-0.693
			c0.59-1.934-2.279-2.461-2.279-2.461c0.163-0.387-0.06-0.495-0.06-0.495c-1.273-0.926-4.227,1.797-4.173,1.632
			c0.054-0.166,0.6-0.611-0.168-0.439c-0.771,0.172-2.185,2.441-2.515,2.555c-0.329,0.113-0.774-0.434-0.722-0.71
			c0.054-0.276,0.872-1.329,1.033-1.605c0.164-0.277,0.545-0.666,1.206-0.726c0.661-0.061,1.65-0.455,1.591-0.73
			c-0.056-0.274-1.268-0.099-1.103-0.156s0.492-0.5,0.988-0.394c0.497,0.106,1.433-0.233,1.594-0.455
			c0.164-0.221,0.934-0.448,0.934-0.448c-0.224-0.383-0.667-0.71-0.667-0.71c1.419-1.61-0.394-0.879-0.394-0.879
			c-3.955,1.245-5.845,5.888-5.845,5.888c-0.604,0.391-0.046,1.213-0.046,1.213c-1.266,0.23,0.732,1.922,0.013,1.542
			s-0.605,0.115-0.603,0.446s0.52,2.75,0.52,2.75c-0.68-2.198-0.446-0.547-0.73-1.592c-0.204-0.753-0.6-0.701-0.806-0.614
			c-0.005-0.026-0.009-0.066-0.015-0.083c-0.226-0.659-0.773-0.269-0.995-0.488c-0.223-0.218-0.781-1.04-0.677-1.647
			c0.106-0.606,1.207-0.726,1.207-0.726c0.27-0.773-1.771-1.032-1.771-1.032c-0.451-1.264-1.151,0.78-1.321,0.231
			c-0.169-0.55-0.004-0.551-1.376,0.011c-1.374,0.562,0.171,0.771-0.487,1.106c-0.659,0.335,0.446,0.658-0.047,1.102
			c-0.491,0.444,0.115,0.495,0.011,1.157c-0.106,0.663,0.387,0.327,0.612,0.822c0.224,0.494,0.496,0.161,0.991-0.119
			c0.493-0.279,1.325,0.375,1.325,0.375c-0.156,1.103,0.725,0.986,0.835,1.149c0.111,0.166,0.07,1.818,0.014,1.543
			c-0.058-0.275-0.559-0.876-0.559-0.876c-1.838-2.354-2.866-0.087-2.866-0.087c-0.429,1.492,0.62,1.538,0.62,1.538
			c1.927-0.016,1.034-1.275,1.034-1.275c0.714-0.282,2.009,2.903,1.126,2.745c-0.884-0.158,0.45,1.319-0.378,1.05
			c-0.828-0.269,0.626,2.308-0.208,1.325c-0.835-0.986-0.606,0.169-0.767,0.667c-0.121,0.372-0.198,2.221-0.304,2.578l-0.051,0.043
			c-0.021-0.032-0.043-0.124-0.067-0.304c-0.176-1.321-0.714,0.061-0.664-0.546c0.048-0.605-0.505-0.932-0.941-0.432
			c-0.437,0.499,0.518,2.585-0.097,1.818c-0.611-0.766-0.493,0.059-0.602,0.336c-0.107,0.277-3.896,1.74-3.689,0.306
			c0.21-1.434-0.499-0.547-0.614-0.987c-0.113-0.439,0.582-2.925-2.053-1.8c-1.499,0.639-1.53,1.889-1.278,2.848
			c-0.783,0.297,0.008,0.209,0.093,0.417c0.088,0.209-0.804-0.582-0.969-0.286c-0.166,0.296-0.472-1.047-1.519-0.702
			c-0.745,0.246-0.495,0.185-0.288,0.13c-0.071,0.049-0.13,0.153-0.087,0.377c0,0-1.686-0.448-1.803,0.604
			c0,0,0.13,0.377,0.252,0.082c0.124-0.295,0.131,0.504,0.339,0.082c0.206-0.422,0.336-0.003,0.38,0.207
			c0.044,0.21,0.09,0.798,0.846,0.624c0.755-0.174,0.21,0.041,0.21,0.041s-1.211,0.809,0.179,1.218c0,0-0.584,0.594,0.427,0.795
			c1.011,0.203,1.271,1.208,1.314,1.376c0.044,0.168-0.595-0.794-1.097-0.496c0,0-1.226-0.537-1.259,0.304
			c-0.036,0.841,0.639,0.92,1.022,1.8c0,0,1.135,0.906,0.06,2.569c0,0-0.171-1.248-1.212-0.312
			c-1.041,0.936-3.014,1.396-3.833-0.291c-0.821-1.688,0.868-2.186,1.03-2.227c0.16-0.042-0.838,1.096,0.295,1.53
			s1.601-1.546,0.871-1.983c-0.73-0.438-1.824-1.074-3.139,0.994c-0.456,0.718-0.522,1.481-0.391,2.204
			c-0.37,0.398-0.279,1.189-0.279,1.189c-1.207,0.292-0.513,1.375-0.513,1.375s-0.526-0.278-0.451-0.843
			c0.077-0.565-0.166-0.483-0.166-0.483c-1.3-1.118-1.085,0.332-1.085,0.332s0.525-0.044-0.119,0.082
			c-0.646,0.127,0.05,1.169,0.05,1.169c-1.782-0.671-0.64,0.852-0.64,0.852c-1.174-0.433-0.521,0.368-0.521,0.368
			c-1.05,0.008-1.451,0.254-1.482,1.182c-0.033,0.928,1.218,0.918,1.218,0.918c-0.572,0.612,0.131,0.572,0.512,0.516
			c-0.077,0.071-0.159,0.221-0.222,0.529c-0.154,0.768,0.769,0.316,0.769,0.316c-0.879,0.975,0.29,0.926-0.032,0.969
			s-0.318,0.445-0.114,0.768c0.204,0.32,0.728,0.033,0.728,0.033c0.335,0.425,0.771-0.292,1.001-0.793
			c-0.089,0.607,0.562,0.84,0.492,0.982c-0.068,0.136-0.681,1.997,0.279,1.923c-0.014,0.57,0.114,1.15,0.477,1.7
			c1.347,2.047,2.43,1.393,3.152,0.943c0.722-0.451,0.221-2.422-0.903-1.969c-1.125,0.451-0.108,1.572-0.271,1.533
			c-0.16-0.037-1.857-0.508-1.066-2.209c0.793-1.699,2.772-1.273,3.828-0.354c1.057,0.918,1.208-0.332,1.208-0.332
			c1.103,1.645-0.017,2.568-0.017,2.568c-0.371,0.887-1.043,0.977-0.994,1.816c0.048,0.842,1.263,0.285,1.263,0.285
			c0.507,0.289,1.129-0.684,1.089-0.514c-0.04,0.168-0.284,1.178-1.291,1.396c-1.008,0.219-0.413,0.803-0.413,0.803
			c-1.384,0.432-0.159,1.221-0.159,1.221s0.548,0.207-0.21,0.045s-0.794,0.426-0.835,0.637c-0.041,0.209-0.163,0.631-0.377,0.213
			c-0.213-0.418-0.207,0.381-0.336,0.086c-0.127-0.293-0.251,0.088-0.251,0.088c0.135,1.049,1.812,0.574,1.812,0.574
			c-0.039,0.225,0.021,0.326,0.093,0.374c-0.208-0.052-0.458-0.107,0.29,0.126c1.054,0.328,1.337-1.02,1.506-0.727
			c0.171,0.293,1.047-0.514,0.966-0.303c-0.082,0.21-0.873,0.134-0.088,0.419c-0.235,0.964-0.183,2.213,1.326,2.827
			c2.653,1.08,1.917-1.395,2.022-1.834c0.107-0.441,0.831,0.432,0.6-0.998c-0.233-1.43,3.58-0.029,3.692,0.244
			c0.113,0.275,0.01,1.102,0.609,0.326c0.599-0.777-0.319,1.326,0.125,1.818c0.445,0.49,0.993,0.156,0.933-0.449
			c-0.06-0.605,0.502,0.766,0.657-0.557c0.021-0.179,0.041-0.271,0.062-0.305l0.053,0.043c0.111,0.358,0.22,2.203,0.345,2.572
			c0.171,0.492-0.041,1.652,0.777,0.654c0.816-0.998-0.593,1.604,0.231,1.32c0.824-0.281-0.485,1.215,0.394,1.043
			c0.88-0.172-0.36,3.033-1.079,2.764c0,0,0.871-1.273-1.058-1.258c0,0-1.046,0.064-0.593,1.547c0,0,1.065,2.25,2.863-0.133
			c0,0,0.49-0.609,0.544-0.887c0.054-0.275,0.122,1.377,0.014,1.543c-0.109,0.164-0.991,0.062-0.817,1.164
			c0,0-0.821,0.668-1.319,0.395c-0.497-0.27-0.775-0.598-0.992-0.1c-0.216,0.496-0.714,0.17-0.601,0.83
			c0.117,0.66-0.488,0.719,0.013,1.156c0.497,0.436-0.601,0.777,0.063,1.102c0.662,0.326-0.878,0.559,0.505,1.098
			c1.381,0.539,1.216,0.541,1.377-0.012c0.16-0.553,0.894,1.48,1.323,0.211c0,0,2.036-0.293,1.755-1.062
			c0,0-1.103-0.102-1.218-0.707c-0.115-0.604,0.428-1.436,0.647-1.656c0.218-0.223,0.771,0.158,0.987-0.504
			c0.005-0.017,0.009-0.058,0.013-0.084c0.209,0.084,0.604,0.127,0.797-0.627c0.267-1.049,0.061,0.604,0.702-1.605
			c0,0-0.476,2.43-0.474,2.76c0.003,0.33-0.103,0.826,0.611,0.436c0.712-0.391-1.258,1.334,0.012,1.543c0,0-0.545,0.832,0.065,1.211
			c0,0,1.966,4.611,5.943,5.791c0,0,1.822,0.701,0.378-0.885c0,0,0.438-0.336,0.654-0.721c0,0-0.772-0.215-0.938-0.434
			c-0.168-0.221-1.107-0.543-1.603-0.428c-0.494,0.113-0.829-0.322-0.995-0.377c-0.165-0.055,1.048,0.102,1.1-0.176
			c0.055-0.275-0.94-0.652-1.602-0.703c-0.661-0.047-1.05-0.432-1.218-0.705s-1.003-1.314-1.061-1.588
			c-0.058-0.275,0.378-0.83,0.709-0.725c0.332,0.109,1.782,2.354,2.557,2.516c0.771,0.158,0.218-0.279,0.16-0.443
			c-0.056-0.164,2.941,2.51,4.201,1.562c0,0,0.219-0.111,0.05-0.496c0,0,2.86-0.574,2.238-2.498
			c-0.621-1.922-2.834-3.061-3.972-0.627c0,0,0.008,0.824,0.614,0.82c0.604-0.004,0.717,0.16,0.38-0.607
			c0,0,0.387,0.162,0.384-0.113c-0.002-0.277,0.173,0.824,0.664,0.322c0.491-0.498,1.037,0.102,0.765,0.436
			C94.447,80.516,94,80.354,94,81.07c0,0.032,0,0.054,0,0.076c0-0.259-0.084-0.969-0.652-0.236c-0.818,1.055-3.94-0.793-4.056-1.396
			c0,0,1.837,0.369,2.108-0.184c0.27-0.555-3.63-0.467-3.874-3.219c0,0,3.104,1.793,4.187-0.531c0,0,1.088-1.936-0.516-2.475
			c0,0-2.251-0.576-1.776,1.27c0,0,0.468,0.955,0.903,0.049c0.438-0.906,0.932-0.236,0.946-0.051
			c0.017,0.186-0.747-0.309-0.686,0.277c0.062,0.59,0.077,0.689,0.278,0.645c0.2-0.045-1.668,1.629-3.181-0.428
			c-1.515-2.057-1.464-6.635-2.022-7.752c-0.56-1.117-1.325-3.156-1.766-3.109c-0.439,0.047-1.632-3.068-7.047-3.441
			c-3.607-0.248-4.476-0.236-4.721-0.136c-1.423-0.337-2.224-1.941-2.026-2.024c0.117-0.047,0.941-0.079,1.16-0.957
			c0.242,0.179,0.506,0.354,0.81,0.523c4.295,2.396,5.492,0.248,5.659-0.045c0.163-0.295,0.618-1.012,0.488-1.598
			s-0.852-1.668-0.629-0.119c0,0-0.38-0.291-0.459,0.379c-0.077,0.672-0.24,1.385-0.574,1.598c-0.333,0.213,0.46-0.381-0.046-0.627
			c-0.505-0.248-0.751,0.256-1.003,0.469c-0.248,0.211,0.667-0.551,0.286-0.967c-0.38-0.416-0.88-0.033-1.13,0.219
			c-0.248,0.254-0.457,0.422-0.625,0.34c-0.169-0.08,0.459-0.254,0.288-0.672s-0.714-0.162-1.047,0.051
			c-0.245,0.155-1.385-0.136-2.085-0.874c-0.108-0.443-0.302-0.978-0.604-1.618c-0.093-1.348,0.255-2.824,1.305-2.65l0.167-0.002
			c0,0-0.556,0.901,0.107,1.09c-0.699,1.062-0.297,1.258-0.297,1.258c-0.083,0.168,0.082-0.168-0.078,0.631
			c-0.16,0.797,0.842,0.662,0.842,0.662c-0.033,0.922,0.843,0.412,0.843,0.412c0.841,0.285,1.079-1.182,1.079-1.182
			c0.142,1.842,1.397,1.539,1.397,1.539c1.05,0.283,0.791-0.635,0.791-0.635c1.342,0.113-0.1-1.887-0.1-1.887
			c0.764,1.127,1.389,0.785,1.389,0.785s-0.171-0.334,0.125-0.043c0.297,0.291,0.838,0.035,0.838,0.035
			c0.711-0.299-0.05-0.963-0.05-0.963c1.297-0.389-0.891-1.291-0.891-1.291c3.144-0.068,2.257-0.814,2.466-0.818
			c0.21,0,0.504-0.088,0.504-0.088l0.455-0.715l-0.217-0.711l-0.671-0.121c0.701-1.388-3.024-0.854-2.649-1.025
			c0.377-0.17,1.211-0.596,1.211-0.596c0.962-0.343,0.202-0.756,0.202-0.756c0.292-0.296,0.334-0.297,0.245-0.84
			c-0.071-0.44-0.733-0.247-0.985-0.156c0.007-0.016,0.013-0.027,0.021-0.046c0.164-0.378-0.841-0.286-0.966-0.034
			c-0.123,0.252-1.289,1.184-1.208,0.89c0.023-0.085,0.08-0.167,0.146-0.245c0.106-0.078,0.27-0.2,0.52-0.389
			c1.458-1.102,0.196-1.552,0.196-1.552c-0.007-0.964-1.051-0.494-1.051-0.494c-1.18-0.745-1.498,1.353-1.498,1.353l-0.13-0.459
			c0,0,0.257,0.751,0-0.126c-0.26-0.878-0.761-0.623-0.761-0.623c-0.636-0.791-0.961,0.427-0.961,0.427
			c-0.883-0.621-0.532,1.304-0.617,1.179c-0.086-0.125-0.045-0.251-0.293,0.128c-0.248,0.379,0.347,1.212,0.347,1.212l0.008,0.153
			C71.933,48.09,72.425,49,72.425,49h-0.167c-1.088,0-1.446-1.537-1.338-2.926c0.295-0.598,0.502-1.182,0.644-1.624
			c0.692-0.693,1.754-1.018,1.992-0.872c0.338,0.207,0.884,0.436,1.049,0.015c0.163-0.42-0.466-0.591-0.3-0.676
			c0.168-0.085,0.378,0.076,0.631,0.325c0.254,0.249,0.759,0.621,1.133,0.198c0.375-0.422-0.554-1.169-0.3-0.962
			c0.253,0.208,0.509,0.708,1.01,0.452c0.5-0.256-0.3-0.835,0.036-0.629c0.337,0.207,0.511,0.917,0.601,1.587
			c0.089,0.669,0.463,0.373,0.463,0.373c-0.197,1.553,0.508,0.458,0.627-0.131c0.121-0.587-0.346-1.296-0.516-1.588
			c-0.169-0.292-1.402-2.418-5.657,0.047c-0.191,0.111-0.354,0.225-0.521,0.339c-0.056-1.272-1.098-1.29-1.231-1.342
			c-0.2-0.079,0.576-1.697,1.992-2.058c0.246,0.097,1.115,0.095,4.717-0.214c5.409-0.462,6.55-3.596,6.99-3.555
			c0.441,0.04,1.172-2.013,1.712-3.14c0.542-1.127,0.415-5.702,1.896-7.784c1.478-2.08,3.375-0.439,3.174-0.479
			c-0.201-0.042-0.215,0.059-0.268,0.647c-0.052,0.588,0.703,0.08,0.691,0.267c-0.013,0.186-0.495,0.864-0.947-0.036
			c-0.452-0.9-0.903,0.065-0.903,0.065c-0.444,1.854,1.8,1.239,1.8,1.239c1.593-0.565,0.476-2.484,0.476-2.484
			c-1.121-2.305-4.191-0.461-4.191-0.461c0.198-2.755,4.109-2.733,3.83-3.282c-0.28-0.549-2.096-0.149-2.096-0.149
			c0.104-0.606,3.113-2.505,3.95-1.465C93.982,19.423,94,18.708,94,18.45c0,0.022,0,0.044,0,0.077c0,0.716,0.505,0.548,0.783,0.876
			c0.278,0.327-0.264,0.939-0.766,0.447c-0.496-0.491-0.625,0.611-0.627,0.336c-0.003-0.275-0.372-0.107-0.372-0.107
			C93.342,19.306,93.248,19.472,92.641,19.477z M77.006,46.658c0,0-0.133,0.105-0.269,0.215
			C76.873,46.748,77.006,46.658,77.006,46.658z M71.615,33.655c-0.548,0.446,0.065,1.157,0.065,1.157
			c-1.372,0.783,0.225,0.604-0.047,1.047c-0.039,0.064-0.074,0.095-0.11,0.138c-0.19-0.114-0.479-0.269-0.795-0.374
			C70.126,33.449,71.615,33.655,71.615,33.655z M62.552,52.42c-0.044,0.048-0.093,0.102-0.146,0.162
			c-0.197-0.834-0.512-1.488-0.512-1.488c1.576,0.471,1.65-0.418,1.65-0.418c1.733-0.014,1.567-0.656,1.567-0.656
			c0.198-0.406-1.537-0.553-1.537-0.553c-0.132-1.168-1.777-0.389-1.777-0.389c0.692-0.612,0.963-1.192,1.046-1.704
			c0.105,0.126,0.204,0.237,0.287,0.323c0.519,0.538,3.063,1.695,5.295,0.763c0.018,0.729,0.977,0.942,0.977,0.942
			c-1.844,0.1-1.586,0.893-1.586,0.893c0.122,0.698,1.206,0.882,1.538,0.919c-0.037-0.003-0.085-0.005-0.147-0.007
			c-0.542-0.02-0.758,0.314-0.848,0.612C65.998,50.475,63.101,51.829,62.552,52.42z M71.268,66.316c0,0-1.485,0.23-0.92-1.95
			c0.315-0.111,0.602-0.271,0.789-0.388c0.037,0.042,0.072,0.072,0.112,0.135c0.278,0.439-1.32,0.289,0.063,1.047
			C71.312,65.16,70.712,65.883,71.268,66.316z M76.392,63.316l-0.246,0.041c0,0-1.221-0.982-2.977-0.141l-0.573-0.687l0.227-0.286
			C73.661,62.016,75.521,61.605,76.392,63.316z M73.437,49.451c0.019-0.013,0.026-0.033,0.043-0.047
			c0.329,0.011,0.861,0.185,0.834,1.047c-0.025,0.788-0.693,0.918-1.024,0.934c-0.052-0.115-0.12-0.221-0.228-0.293
			c-0.383-0.26-0.927-0.401-1.447-0.335c0.152-0.346,0.069-0.78-0.005-1.034C72.235,49.94,72.963,49.783,73.437,49.451z
			 M73.237,37.702l-0.231-0.282l0.563-0.695c1.769,0.812,2.974-0.19,2.974-0.19l0.247,0.037
			C75.948,38.296,74.08,37.917,73.237,37.702z"/>
	</g>
</g>
</svg>
