<?xml version="1.0" encoding="utf-8"?>
<!-- Generator: Adobe Illustrator 16.0.0, SVG Export Plug-In . SVG Version: 6.00 Build 0)  -->
<!DOCTYPE svg PUBLIC "-//W3C//DTD SVG 1.1//EN" "http://www.w3.org/Graphics/SVG/1.1/DTD/svg11.dtd">
<svg version="1.1" id="Layer_1" xmlns="http://www.w3.org/2000/svg" xmlns:xlink="http://www.w3.org/1999/xlink" x="0px" y="0px"
	 width="100px" height="100px" viewBox="0 0 100 100" enable-background="new 0 0 100 100" xml:space="preserve">
<circle fill="#808080" cx="49.701" cy="7.613" r="3.948"/>
<g>
	<path fill="#231F20" d="M95.701,46.875c-3.804,0.284-0.624,1.307-0.396,1.704c0.226,0.398-0.797-0.17-1.08,0.228
		c-0.284,0.397-1.591,0-0.568,2.499c1.021,2.501-1.022,1.818-1.421,1.705c-0.397-0.114-3.01-0.624-4.032-1.592
		c-1.021-0.965,0-0.851,0.34-0.681c0.342,0.17,2.728,1.136,3.75-0.228c0,0-1.308-1.306-2.102-1.647
		c-0.795-0.341-1.533-1.079-1.59-1.477c-0.059-0.397-0.796-0.056-1.078-0.34c-0.285-0.284-0.74-0.852-0.683-1.364
		c0.056-0.511,2.498,1.477,3.521,0.682c0,0,0.568-0.057-0.398-0.625c-0.967-0.568-1.761-1.761-1.931-2.216
		c-0.172-0.454-0.908-1.591-1.308-1.987c-0.396-0.397-1.645-1.705-1.645-2.272c0-0.568,0.452-0.058,0.735,0
		c0.285,0.057,1.818,0.227,2.045-0.114c0.229-0.341-0.851-0.683-1.248-0.965c-0.397-0.285-0.397-1.421-1.023-1.988
		c-0.624-0.568-3.804-5.51-6.19-5.339c-2.386,0.17-2.271-1.591-2.67-0.967c-0.398,0.626-2.896-6.02-11.076-5.452
		c-8.18,0.568-8.01,4.999-9.146,4.374c0,0,0.172-0.625,0.398-0.795c0.227-0.17,6.021-6.646,8.121-7.782
		c2.103-1.136,6.986-8.861,1.364-13.633c-5.623-4.771-10.509,1.818-8.066,3.294c0,0,0.683,0.739,0.797-0.397
		c0.113-1.135,2.497-2.158,2.84-2.044c0.34,0.112,3.295-0.795,4.26,3.521s-1.533,5.964-1.818,6.192
		c-0.283,0.228,0.285-4.317-2.441-5.227c-2.727-0.909-1.874,0.682-1.648,1.25c0.227,0.569,2.271,4.431,1.023,5.625
		c-1.249,1.192-0.455,2.157-1.023,1.931c-0.567-0.227,0.738-5.681-2.386-6.76c-3.124-1.081-3.067,0.455-2.158,0.853
		c0.908,0.397,4.089,4.374,1.647,8.349c0,0-4.941,5.51-4.714,9.771c0.226,4.26,1.42,7.213,4.941,9.032
		c3.522,1.818,8.123-1.136,6.759-3.805c-1.363-2.67-3.294-2.045-3.521-1.932c-0.227,0.115,4.886-3.124,8.067,0.965
		c3.18,4.089,0.282,2.727,0.282,2.727s-0.567-0.51-0.965-0.285c-0.397,0.227-1.534,1.875,0.227,2.046
		c1.761,0.169,4.488,0.113,3.181-2.442c-1.307-2.557-2.102-5.284-6.417-5.795c-4.317-0.511-7.669,2.557-7.385,3.863
		c0.15,0.688,0.065,0.962,0.032,1.097c-0.903-0.663-3.432-2.91-0.601-7.402c0,0,5.056-4.942,9.542-1.817
		c0,0,2.443,5.055,3.635,4.999c1.193-0.058,1.876-2.669,1.25-3.75c-0.623-1.079,1.705,0.568,1.59,2.102
		c-0.111,1.534-0.737,5.963,0.229,6.93c0.965,0.966,1.931,0.341,2.839-2.499c0.909-2.841,0.455,1.989,0.227,2.443
		c-0.227,0.453-2.271,4.486-1.93,5.736c0.34,1.25-0.568,0.739-0.683,0.966c-0.112,0.227,0.059,0.34,0.512,0.397
		c0.454,0.057,1.817-0.284,2.386-1.022c0.567-0.739-1.988,3.465-2.101,4.033c-0.114,0.568-0.797,1.135-1.139,1.306
		c-0.341,0.169-1.248,1.25,0.229,1.306c1.478,0.059,4.43-0.965,5.737-5.34c1.306-4.373,0.795,7.385-5.511,8.408
		c0,0-1.476,0.51-1.647,0.909c-0.171,0.397-0.909,1.021-0.909,1.021s-1.307-0.113-1.42,0.228c-0.112,0.342-0.511,0.569-0.511,0.569
		s0.228,0.453,0.908,0.681c0.683,0.227,1.192,1.079,2.727,0.454c1.535-0.625,2.441-0.908,2.841-1.25
		c0.397-0.34-1.08,1.308-1.08,1.308s-0.396,0.397-0.737,0.397c-0.342,0-5.51,1.817-5.795,3.35c-0.283,1.535-1.022,1.08-1.307,1.025
		c-0.283-0.059-1.419-0.173-0.738,0.737c0.682,0.909,1.421,1.079,2.442,0.965c1.022-0.112,3.123-0.623,4.43-1.987
		c1.308-1.363,1.989-0.795,1.138-0.113c0,0-13.747,9.43-13.803,18.972c-0.057,9.544,6.419,17.04,16.529,12.325
		c0,0,8.633-4.6,2.443-12.382c0,0-2.33-3.521-6.477-1.762c-4.147,1.762-4.147,5.454-1.306,6.702c2.84,1.25,2.954-4.032,0.397-2.952
		c0,0,0.283-3.521,5.339-1.705c0,0-2.841-0.112-2.613,1.705c0,0-0.169,1.761,3.066,1.817c0,0,1.536,0.967,1.422,2.157
		c0,0-1.079-1.817-3.352-1.533c0,0-0.737,0.285,0.227,1.591c0.966,1.308,0.966,2.272,0.91,2.728
		c-0.058,0.454-0.113,1.704-0.796,2.044c-0.682,0.34-3.295,1.875-4.83,1.308c0,0,5.432-1.119,3.954-4.583
		c-0.012-0.024-0.021-0.05-0.032-0.076c0,0-0.17-0.226-0.569,0.058c-0.397,0.284-4.488,3.012-5.452,2.499
		c-0.966-0.512,4.145-1.875,0.682-3.637c0,0-0.738,0.342-1.249,0.683c-0.513,0.342-1.08-1.25-4.09-0.056
		c0,0-5.908-5.681,0.908-13.406c0,0,4.033-5.566,4.6-4.999c0,0,0.284,7.385,4.147,5.453c0,0-3.919-2.67,1.023-9.317
		c0,0,7.052-9.669,7.964-17.338c1.099,2.622,2.628,3.96,4.112,4.607c1.955,0.963,8.107,3.689,10.814,0.18
		C101.495,50.624,99.508,46.59,95.701,46.875z"/>
	<path fill="#231F20" d="M42.585,23.259c-2.443-3.977,0.739-7.952,1.646-8.35c0.909-0.398,0.965-1.931-2.157-0.852
		c-3.125,1.079-1.818,6.531-2.386,6.759c-0.568,0.227,0.227-0.738-1.023-1.931c-1.25-1.193,0.794-5.055,1.023-5.624
		c0.227-0.567,1.078-2.158-1.647-1.249c-2.727,0.908-2.16,5.453-2.442,5.225c-0.285-0.227-2.785-1.874-1.818-6.191
		c0.965-4.318,3.919-3.408,4.26-3.522c0.341-0.113,2.725,0.908,2.84,2.045c0.115,1.136,0.795,0.399,0.795,0.399
		c2.443-1.478-2.443-8.066-8.067-3.294c-5.622,4.771-0.738,12.496,1.364,13.632c2.102,1.136,7.896,7.611,8.122,7.782
		c0.228,0.17,0.397,0.795,0.397,0.795c-1.135,0.625-0.965-3.806-9.144-4.374c-8.181-0.569-10.68,6.077-11.077,5.452
		c-0.398-0.625-0.285,1.136-2.67,0.966c-2.385-0.171-5.566,4.771-6.191,5.339c-0.625,0.568-0.625,1.704-1.022,1.988
		c-0.398,0.284-1.478,0.624-1.25,0.965c0.228,0.341,1.762,0.17,2.045,0.114c0.285-0.057,0.738-0.568,0.738,0
		c0,0.567-1.249,1.874-1.647,2.271c-0.397,0.398-1.136,1.534-1.307,1.989c-0.169,0.454-0.965,1.647-1.931,2.215
		c-0.966,0.568-0.397,0.625-0.397,0.625c1.022,0.796,3.465-1.193,3.522-0.681c0.057,0.51-0.397,1.079-0.682,1.363
		c-0.284,0.285-1.021-0.057-1.079,0.34c-0.057,0.397-0.795,1.135-1.59,1.477c-0.796,0.341-2.103,1.647-2.103,1.647
		c1.022,1.363,3.409,0.398,3.75,0.227c0.34-0.17,1.362-0.285,0.34,0.681c-1.023,0.967-3.635,1.477-4.034,1.59
		c-0.397,0.115-2.442,0.797-1.42-1.703c1.022-2.499-0.284-2.101-0.567-2.499c-0.285-0.397-1.307,0.17-1.08-0.228
		c0.227-0.397,3.407-1.419-0.398-1.704c-3.806-0.284-5.794,3.75-2.727,7.726c2.701,3.5,8.831,0.795,10.802-0.174
		c1.488-0.645,3.023-1.983,4.125-4.613c0.913,7.67,7.964,17.341,7.964,17.341c4.942,6.646,1.023,9.315,1.023,9.315
		c3.863,1.931,4.147-5.453,4.147-5.453c0.567-0.568,4.6,4.999,4.6,4.999c6.817,7.726,0.91,13.404,0.91,13.404
		c-3.01-1.192-3.579,0.399-4.09,0.058c-0.512-0.341-1.25-0.683-1.25-0.683c-3.465,1.762,1.647,3.125,0.683,3.637
		c-0.967,0.511-5.057-2.217-5.454-2.499c-0.397-0.285-0.568-0.058-0.568-0.058c-0.011,0.024-0.022,0.05-0.033,0.076
		c-1.479,3.462,3.953,4.583,3.953,4.583c-1.534,0.567-4.147-0.968-4.83-1.308c-0.682-0.34-0.738-1.592-0.794-2.044
		c-0.057-0.455-0.057-1.42,0.909-2.728c0.966-1.306,0.227-1.591,0.227-1.591c-2.271-0.284-3.351,1.535-3.351,1.535
		c-0.114-1.194,1.42-2.159,1.42-2.159c3.237-0.058,3.067-1.818,3.067-1.818c0.226-1.818-2.613-1.704-2.613-1.704
		c5.054-1.816,5.339,1.704,5.339,1.704c-2.556-1.079-2.441,4.203,0.398,2.953c2.84-1.25,2.84-4.942-1.306-6.702
		c-4.147-1.762-6.476,1.76-6.476,1.76c-6.192,7.782,2.442,12.384,2.442,12.384c10.112,4.715,16.587-2.783,16.53-12.325
		c-0.057-9.544-13.804-18.974-13.804-18.974c-0.852-0.681-0.17-1.25,1.136,0.115c1.308,1.362,3.409,1.875,4.431,1.987
		c1.023,0.112,1.761-0.058,2.442-0.967c0.682-0.908-0.454-0.794-0.739-0.735c-0.283,0.055-1.021,0.51-1.306-1.023
		c-0.284-1.534-5.453-3.352-5.793-3.352s-0.738-0.399-0.738-0.399s-1.477-1.646-1.08-1.306c0.397,0.34,1.307,0.625,2.84,1.25
		c1.533,0.625,2.046-0.228,2.726-0.454c0.682-0.228,0.91-0.683,0.91-0.683s-0.399-0.226-0.513-0.567
		c-0.113-0.341-1.419-0.227-1.419-0.227s-0.738-0.626-0.91-1.023c-0.17-0.398-1.647-0.907-1.647-0.907
		c-6.305-1.023-6.816-12.782-5.51-8.408c1.306,4.373,4.26,5.396,5.737,5.34s0.568-1.135,0.227-1.307
		c-0.34-0.169-1.021-0.738-1.135-1.307c-0.114-0.568-2.669-4.772-2.101-4.033c0.567,0.739,1.931,1.079,2.385,1.022
		c0.454-0.057,0.625-0.17,0.511-0.398c-0.114-0.226-1.022,0.284-0.681-0.965c0.34-1.25-1.704-5.283-1.932-5.736
		c-0.228-0.455-0.682-5.283,0.228-2.443c0.908,2.84,1.874,3.464,2.839,2.5c0.966-0.965,0.341-5.396,0.227-6.929
		c-0.113-1.535,2.215-3.182,1.59-2.103c-0.624,1.08,0.058,3.692,1.249,3.749c1.194,0.057,3.636-4.999,3.636-4.999
		c4.489-3.125,9.543,1.817,9.543,1.817c2.83,4.492,0.303,6.739-0.601,7.401c-0.032-0.134-0.117-0.409,0.033-1.096
		c0.283-1.307-3.068-4.374-7.385-3.862c-4.316,0.511-5.112,3.238-6.418,5.794c-1.307,2.556,1.419,2.612,3.18,2.441
		c1.762-0.17,0.626-1.817,0.228-2.044c-0.397-0.227-0.966,0.284-0.966,0.284s-2.897,1.364,0.285-2.726
		c3.18-4.091,8.293-0.854,8.066-0.966c-0.229-0.114-2.16-0.739-3.522,1.931c-1.364,2.669,3.237,5.622,6.759,3.805
		c3.521-1.817,4.714-4.77,4.942-9.032C47.527,28.768,42.585,23.259,42.585,23.259z"/>
</g>
</svg>
