<?xml version="1.0" encoding="utf-8"?>
<!-- Generator: Adobe Illustrator 16.0.0, SVG Export Plug-In . SVG Version: 6.00 Build 0)  -->
<!DOCTYPE svg PUBLIC "-//W3C//DTD SVG 1.1//EN" "http://www.w3.org/Graphics/SVG/1.1/DTD/svg11.dtd">
<svg version="1.1" id="Layer_1" xmlns="http://www.w3.org/2000/svg" xmlns:xlink="http://www.w3.org/1999/xlink" x="0px" y="0px"
	 width="100px" height="100px" viewBox="0 0 100 100" enable-background="new 0 0 100 100" xml:space="preserve">
<g>
	<g>
		<path fill="#231F20" d="M41.994,55.77c0,0-2.27-6.485-0.648-7.457c1.621-0.975,5.838-9.077,5.513-13.941
			c-0.324-4.866-6.485,4.213-6.809,7.132c-0.324,2.918,0-16.536-8.432-18.805c0,0-0.001,4.54-1.297,5.836
			c-1.297,1.298,2.595,12.644,7.782,20.75C43.293,57.391,41.994,55.77,41.994,55.77z"/>
		<path fill="#231F20" d="M34.538,46.692c0,0-9.728-14.592-28.21-14.592c0,0,5.513,11.999,16.861,10.378
			c0,0,3.241,0.322,4.214,0.322S34.538,46.692,34.538,46.692z"/>
		<path fill="#231F20" d="M37.456,51.88c0,0-14.915-8.756-21.724-3.892c-6.81,4.862-0.324,7.132,5.511,4.538
			C27.08,49.933,37.456,50.905,37.456,51.88z"/>
		<path fill="#231F20" d="M40.728,55.232c0,0-17.188-4.346-23.558,1.195c-6.371,5.54,0.848,6.124,6.569,2.713
			C29.461,55.729,40.563,54.406,40.728,55.232z"/>
	</g>
	<g>
		<path fill="#231F20" d="M58.006,55.77c0,0,2.27-6.485,0.648-7.457c-1.621-0.975-5.838-9.077-5.512-13.941
			c0.324-4.866,6.484,4.213,6.809,7.132c0.324,2.918,0-16.536,8.432-18.805c0,0,0,4.54,1.297,5.836
			c1.297,1.298-2.596,12.644-7.783,20.75C56.707,57.391,58.006,55.77,58.006,55.77z"/>
		<path fill="#231F20" d="M65.463,46.692c0,0,9.727-14.592,28.209-14.592c0,0-5.512,11.999-16.861,10.378
			c0,0-3.24,0.322-4.213,0.322S65.463,46.692,65.463,46.692z"/>
		<path fill="#231F20" d="M62.545,51.88c0,0,14.914-8.756,21.723-3.892c6.811,4.862,0.324,7.132-5.51,4.538
			C72.92,49.933,62.545,50.905,62.545,51.88z"/>
		<path fill="#231F20" d="M59.273,55.232c0,0,17.188-4.346,23.557,1.195c6.371,5.54-0.848,6.124-6.568,2.713
			C70.539,55.729,59.438,54.406,59.273,55.232z"/>
	</g>
</g>
<path fill-rule="evenodd" clip-rule="evenodd" fill="#4D4D4D" d="M67.188,62.309l-0.473,0.4c-10.703,3.51-10.354-5.264-10.354-5.264
	c-0.162,3.067-4.631,5.09-5.347,5.395c-0.64-0.27-5.212-2.304-5.376-5.406c0,0,0.352,8.775-10.354,5.266l-0.473-0.4
	c0,0-1.979,7.039,6.602,6.158c0,0-0.291,1.385-1.98,2.201c-1.691,0.815,2.869,3.304,6.379-1.1c0,0,0.354,4.196,0.002,5.951
	c0,0,1.146,1.089,2.024-0.451c0,0,0.161,7.7,3.161,7.898v0.032c0,0.001-0.002-0.015,0.045-0.017c0.017,0-0.045,0.006-0.045,0.006
	v-0.012c3-0.198,3.16-7.898,3.16-7.898c0.881,1.54,2.002,0.451,2.002,0.451c-0.35-1.755,0.014-5.951,0.014-5.951
	c3.512,4.403,8.076,1.915,6.387,1.1c-1.691-0.816-1.978-2.199-1.978-2.199C69.165,69.348,67.188,62.309,67.188,62.309z"/>
</svg>
