<?xml version="1.0" encoding="utf-8"?>
<!-- Generator: Adobe Illustrator 16.0.0, SVG Export Plug-In . SVG Version: 6.00 Build 0)  -->
<!DOCTYPE svg PUBLIC "-//W3C//DTD SVG 1.1//EN" "http://www.w3.org/Graphics/SVG/1.1/DTD/svg11.dtd">
<svg version="1.1" id="Layer_1" xmlns="http://www.w3.org/2000/svg" xmlns:xlink="http://www.w3.org/1999/xlink" x="0px" y="0px"
	 width="100px" height="100px" viewBox="0 0 100 100" enable-background="new 0 0 100 100" xml:space="preserve">
<g>
	<g opacity="0.85">
		<path fill="#202020" d="M17.719,96.733c-1.042-0.088-2.092,0.242-3.083-0.457c-1.013-0.871-1.498-2.337-2.333-3.033
			c-0.091-0.252,0.838-0.129,0.533-0.739c-0.172-0.286-0.628-0.299-0.404-0.703c0.143,0.119,0.374,0.018,0.502,0.052
			c-0.001-0.235,0.094-0.475,0.132-0.705s0.021-0.451-0.188-0.66c0.324,0.141,0.551-0.015,0.773-0.2
			c0.226-0.187,0.457-0.402,0.762-0.402c0.217-0.322-0.328-0.493-0.192-0.822c0.184,0.007,0.358,0.268,0.541,0.432
			c0.183,0.165,0.373,0.232,0.586-0.119c0.031-0.097,0.01-0.216,0-0.33c-0.005-0.112,0-0.221,0.079-0.295
			c0.167,0.049,0.201,0.253,0.266,0.406c0.065,0.154,0.146,0.252,0.373,0.086c0.187-0.148,0.046-0.724,0.378-0.516
			c0.182,0.388,0.503,0.295,0.864,0.212c0.361-0.085,0.761-0.158,1.107,0.191c0.28-0.087,0.343-0.355,0.625-0.366
			c0.18,0.249-0.091,0.429-0.203,0.593c0.653,0.443,1.54,0.662,2.203,0.774l-0.395,0.401c0.145,0.19,0.332,0.519,0.631,0.608
			c0.344,0.086,0.416-0.414,0.776-0.229c0.314,0.148-0.788,0.383-0.454,0.663c0.343,0.3,0.219,0.827,0.845,0.879
			c0.126,0.396-0.374,0.511-0.563,0.76c0.13,0.187,0.502,0.183,0.486,0.446c-0.901,0.844-1.016,1.353-1.907,2.311
			c-0.504,0.013-1.044,0.265-1.528,0.488C18.447,96.684,18.019,96.876,17.719,96.733z"/>
		<path fill="#202020" d="M6.863,93.465c-0.259-0.264-0.319-0.611-0.284-0.961c0.034-0.35,0.16-0.699,0.286-0.983
			c0.229,0.034,0.513-0.086,0.771-0.128c0.26-0.043,0.482-0.004,0.613,0.324c0.208,0.562,0.278,1.133,0.245,1.611
			C8.144,93.885,7.425,94.283,6.863,93.465z"/>
		<path fill="#FFFFFF" d="M9.389,95.271l-0.101-0.079L9.389,95.271z"/>
		<polygon fill="#FFFFFF" points="18.002,100.137 17.988,100.345 17.922,100.155 		"/>
		<polygon fill="#FFFFFF" points="17.392,100.246 17.433,100.361 17.313,100.391 		"/>
		<polygon fill="#FFFFFF" points="17.512,99.721 17.405,99.786 17.365,99.672 		"/>
		<path fill="#202020" d="M12.784,82.188c-0.324,0.325-0.548,0.122-0.764-0.08c-0.216-0.201-0.426-0.401-0.74-0.009
			c-0.143-0.515-0.576-0.878-0.94-1.244c-0.182-0.183-0.347-0.367-0.448-0.574c-0.051-0.103-0.085-0.212-0.099-0.33
			c-0.009-0.116,0.007-0.24,0.05-0.374c0.087-0.008,0.216,0.033,0.235-0.112c0.142-0.523-0.264-0.322-0.425-0.61
			c0.229-0.176,0.335-0.431,0.348-0.676c0.009-0.246-0.055-0.474-0.211-0.6c0.169-0.053,0.351,0.145,0.46-0.052
			c0.406-0.636-0.391-0.826-0.179-1.322c0.185,0.045,0.347,0.496,0.628,0.173c0.035-0.035,0.07-0.082,0.088-0.107
			c0.02-0.028,0.035-0.057,0.045-0.086c0.021-0.058,0.025-0.119,0.018-0.183c-0.014-0.126-0.073-0.26-0.13-0.391
			c-0.115-0.262-0.223-0.512,0.045-0.668c0.227-0.132,0.173,0.43,0.509,0.385c0.536-0.033,0.554-0.648,0.652-1.033
			c0.287-0.132,0.201,0.291,0.277,0.392c0.456-0.265,1.126-0.632,1.239-1.265c0.206,0.138,0.213,0.829,0.562,0.76
			c0.585-0.015,0.464-0.641,0.921-0.908c0.108,0.306-0.311,0.405-0.067,0.593c0.132,0.1,0.092-0.297,0.23-0.134
			c-0.039,0.232-0.235,0.571,0.04,0.68c0.333,0.108,0.353-0.507,0.627-0.396c-0.013,0.242-0.121,0.437-0.292,0.569
			c0.218,0.676,0.748,0.229,0.944,0.109c0.089,0.204-0.292,0.57,0.062,0.628c0.19,0.034,0.181-0.375,0.385-0.303
			c0.101,0.396-1.024,0.944-0.137,1.118c0.075-0.117,0.195-0.057,0.317,0.007c-0.328,0.3-0.539,0.753-0.309,1.183
			c0.228,0.433,0.598-0.473,0.714,0.025c-0.257,0.211-0.738,0.245-0.786,0.722c-0.019,0.332,0.755,0.138,0.316,0.506
			c-0.779,0.132,0.57,0.734-0.41,0.789c-0.072,0.246,0.298,0.124,0.25,0.382c-0.209,0.079-0.601,0.065-0.642,0.33
			c-0.047,0.286,0.528,0.197,0.275,0.5c-0.421-0.015-0.642,0.463-1.023,0.58c-0.249,0.086,0.131,0.415-0.032,0.5
			c-0.191,0.078-0.463-0.146-0.588,0.085c-0.101,0.269,0.373,0.343,0.163,0.537c-0.265-0.421-0.546-0.126-0.818-0.148l-0.088,0.399
			c-0.316-0.188-0.618-0.44-0.948-0.316l-0.062,0.396C12.87,82.533,12.958,82.269,12.784,82.188z"/>
		<path fill="#202020" d="M19.195,67.871c-0.591,0.294-0.043-0.789-0.603-0.51c0.282-0.522-0.29-1.239-0.201-1.58
			c0.104,0.024,0.516,0.022,0.437-0.343c-0.057-0.35-0.28-0.765,0.034-0.949c0.367,0.101,0.774-0.617,0.946-1.01
			c0.215,0.312,0.58,0.219,0.742-0.015c0.156-0.32,0.268-0.689,0.316-1.065c0.054-0.375,0.045-0.757-0.045-1.104
			c0.13-0.025,0.149,0.444,0.387,0.251c-0.369-0.865,0.866-0.335,0.568-1.229c0.047,0.158,0.08,0.407,0.254,0.476
			c0.285-0.232,0.468-0.755,0.903-0.672l0.057,0.133c0.249,0.043,0.33-0.336,0.456-0.528c0.239,0.237-0.385,0.635,0.048,0.783
			c0.281,0.096,0.702-0.118,0.749-0.389c-0.02,0.22-0.187,0.387-0.198,0.609c0.234,0.136,0.65,0.179,0.802-0.126
			c-0.067,0.191-0.476,0.444-0.219,0.722c0.162,0.158,0.306-0.28,0.49-0.171c-0.034,0.142-0.328,0.202-0.235,0.449
			c0.117,0,0.375-0.045,0.374,0.149c0.045,0.61-0.812,1.255-0.248,1.573c-0.328,0.395-0.785,0.757-1.212,1.09
			c-0.422,0.335-0.819,0.638-1.039,0.901c0.167,0.22,0.3-0.283,0.413,0.065c-0.162,0.231-0.522,0.451-0.422,0.759l0.326-0.011
			c-0.428,0.341-0.589,0.811-0.794,1.228c-0.201,0.42-0.443,0.788-1.043,0.928c-0.475,0.224-1.005,0.101-1.533,0.172
			C19.67,68.059,19.125,68.312,19.195,67.871z"/>
		<polygon opacity="0.3" fill="#FFFFFF" points="24.333,61.386 24.311,61.371 24.369,61.243 24.394,61.256 		"/>
		<path fill="#202020" d="M23.214,55.968c-0.31-0.222-0.726-0.47-0.791-0.884c0.09-1.298,0.338-2.103,0.857-3.087
			c-0.001,0.177,0.236,0.361,0.351,0.258c0.193-0.218,0.32-0.5,0.465-0.786c0.148-0.289,0.293-0.572,0.484-0.769
			c0.016,0.24-0.087,0.698,0.18,0.718c0.225,0.039,0.243-0.485,0.3-0.693c0.156,0.052,0.114,0.194,0.087,0.33
			c-0.029,0.141-0.041,0.271,0.182,0.287c0.28-0.004,0.202-0.407,0.434-0.542c0.068,0.153-0.237,0.525,0.098,0.641
			c0.465,0.165,0.431-0.536,0.766-0.525c-0.059,0.319-0.4,0.483-0.421,0.79c0.646-0.104,0.42,1.28,1.095,0.8
			c-0.917,0.648,0.902,1.46,0.002,1.886l0.392-0.165c-0.471,0.603-0.625,1.316-1.453,1.618c-0.75,0.518-1.683,0.533-2.481,0.593
			C23.656,56.167,23.433,56.135,23.214,55.968z"/>
		<path fill="#202020" d="M29.613,50.089c-0.05-0.567-0.3-1.117-0.271-1.672c0.056-0.791,0.481-0.607,0.535-1.439l0.082,0.256
			c0.27-0.292,0.652-0.427,0.872-0.763c0.153,0.122,0.463-0.062,0.466,0.265c0.448,0.306,0.367-0.371,0.665-0.38
			c0.048,0.219-0.36,0.351-0.104,0.564c0.234,0.2,0.473-0.209,0.67,0.075c-0.005,0.275,0.137,0.475,0.39,0.373
			c0.321,0.612-0.271,1.383,0.421,1.738c-0.101,0.148-0.526-0.03-0.475,0.281c0.057,0.005,0.124,0.05,0.192,0.095
			c0.023,0.486-0.985,0.321-0.542,0.908c-0.455,0.171-1.079,0.566-1.445,0.51C30.518,50.617,30.06,50.499,29.613,50.089z"/>
		<polygon opacity="0.3" fill="#FFFFFF" points="32.21,49.421 32.103,49.569 32.178,49.429 		"/>
		<path fill="#202020" d="M23.597,41.76c-0.043,0.034,0.165,0.085,0.093,0.191L23.597,41.76z"/>
		<path fill="#202020" d="M23.617,41.428c0.166,0.086-0.058,0.004-0.058,0.004C23.542,41.4,23.602,41.397,23.617,41.428z"/>
		<path fill="#202020" d="M34.221,45.251c-0.133-0.089-0.215-0.205-0.268-0.335c-0.057-0.131-0.085-0.275-0.103-0.421
			c-0.018-0.145-0.024-0.292-0.039-0.427c-0.016-0.135-0.046-0.261-0.097-0.361c-0.114-0.252-0.143-0.476-0.155-0.658
			c-0.018-0.178,0.009-0.337,0.047-0.493c0.011-0.037,0.019-0.081,0.025-0.127l0.021-0.136c0.014-0.091,0.026-0.182,0.032-0.273
			c0.026-0.233,0.028-0.479-0.035-0.729l0.576,0.343c0.127-0.145,0.298-0.268,0.422-0.412c0.125-0.144,0.201-0.31,0.125-0.547
			c0.122,0.156,0.246,0.494,0.525,0.403c0.168-0.067,0.088-0.345,0.249-0.337c0.12,0.132-0.059,0.328,0.122,0.419
			c0.259,0.086,0.19-0.324,0.43-0.299c-0.199,0.433,0.345,0.787,0.58,1.053c0.253-0.074,0.104-0.316,0.224-0.478
			c0.276,0.251-0.153,0.521,0.065,0.736c0.168,0.17,0.228-0.269,0.393-0.096c0.29,0.253-0.245,0.773,0.208,0.832
			c0.136,0.004,0.096-0.276,0.27-0.179c-0.108,0.188-0.078,0.535-0.282,0.659c0.062,0.144,0.384,0.153,0.543,0.17
			c-0.032,0.226-0.456,0.239-0.528,0.497c-0.077,0.221,0.412,0.383,0.033,0.593c-0.057,0.071-0.136,0.136-0.227,0.202
			c-0.093,0.066-0.191,0.131-0.274,0.201c-0.167,0.142-0.272,0.3-0.153,0.529c-0.606-0.226-0.798,0.31-1.11,0.41
			C35.4,45.95,34.698,45.683,34.221,45.251z"/>
		<polygon opacity="0.3" fill="#FFFFFF" points="34.686,45.014 34.661,45.003 34.692,44.891 34.718,44.904 		"/>
		<polygon opacity="0.3" fill="#FFFFFF" points="37.089,42.869 37.182,42.972 37.078,42.945 		"/>
		<path opacity="0.3" fill="#FFFFFF" d="M36.943,42.751c0.179,0.071,0.111-0.213,0.096,0.078
			C36.983,42.843,36.992,42.79,36.943,42.751z"/>
		<path fill="#202020" d="M24.874,74.559c-0.349-0.458-0.324-1.011-0.207-1.589c0.12-0.574,0.333-1.172,0.354-1.727l0.16,0.233
			c0.289-0.164,0.285-0.671,0.336-0.86l0.271,0.423c0.344-0.47,0.856-0.763,0.937-1.44c0.355,0.303-0.364,0.931,0.24,0.939
			c0.22-0.01,0.115-0.428,0.311-0.535c0.116,0.071,0.332,0.091,0.406,0.324c0.081-0.089,0.307-0.213,0.411-0.294l-0.062,0.331
			c0.244-0.088,0.331-0.409,0.547-0.593c0.002,0.088-0.155,0.264-0.109,0.398l0.267-0.077c-0.321,0.382-0.298,0.887-0.293,1.386
			c0.2,0.072,0.4-0.059,0.501-0.227c-0.125,0.359-0.497,0.525-0.545,0.919c-0.017,0.169,0.219,0.106,0.29,0.044
			c-0.343,0.582-0.675,1.228-1.044,1.801c-0.359,0.631-1.009,0.943-1.622,1.084C25.621,75.17,25.141,74.799,24.874,74.559z"/>
		<rect x="36.146" y="41.793" opacity="0.3" fill="#FFFFFF" width="0.027" height="0.103"/>
		<polygon opacity="0.3" fill="#FFFFFF" points="25.177,74.339 25.151,74.328 25.186,74.193 25.211,74.201 		"/>
		<path opacity="0.3" fill="#FFFFFF" d="M24.982,73.384c-0.124,0.166,0.144,0.079,0.069,0.262
			C24.921,73.629,24.955,73.494,24.982,73.384z"/>
		<polygon opacity="0.3" fill="#FFFFFF" points="25.209,73.137 25.148,73.263 25.073,73.033 		"/>
		<path opacity="0.3" fill="#FFFFFF" d="M24.861,73.105c-0.044-0.251,0.209,0.042,0.119,0.071
			C24.938,73.132,24.872,73.169,24.861,73.105z"/>
		<path opacity="0.3" fill="#FFFFFF" d="M25.382,73.11l-0.075-0.025c0.283,0.066,0.214-0.192,0.465-0.31l-0.076,0.501
			C25.639,73.286,25.5,72.974,25.382,73.11z"/>
		<path opacity="0.3" fill="#FFFFFF" d="M27.046,73.572c0.044,0.043,0.054,0.105-0.01,0.141L27.046,73.572z"/>
		<path opacity="0.3" fill="#FFFFFF" d="M24.882,72.612c0.204-0.253,0.353-0.821,0.174-0.975c0.533,0.275,0.472-0.542,1.047-0.636
			c-0.129,0.072,0.062,0.079,0.032,0.188c0.223-0.012-0.047-0.134,0.063-0.244l0.055,0.108c0.236-0.064,0.078-0.506,0.268-0.496
			c0.268,0.332-0.437,0.821,0.18,0.773c-0.318,0.271-0.398-0.466-0.685-0.006c0.094,0.27,0.374-0.164,0.302,0.106
			c-0.057,0.216-0.28-0.188-0.395,0.037c0.231-0.035,0.036,0.396,0.241,0.233l-0.031-0.189c0.208,0.458-0.338,0.237-0.146,0.658
			c0.039-0.045-0.025-0.216-0.079-0.117c0.081,0.322,0.047,0.134-0.076,0.389c0.094-0.146-0.329-0.206-0.157-0.441
			c-0.158,0.182-0.05,0.603-0.341,0.561l-0.058-0.197c-0.387,0.219,0.229,0.697-0.329,0.625C25.091,72.861,25,72.683,24.882,72.612z
			"/>
		<path opacity="0.3" fill="#FFFFFF" d="M27.415,73.524c-0.064,0.038-0.151-0.055-0.168,0.117
			C27.312,73.605,27.298,73.336,27.415,73.524z"/>
		<path opacity="0.3" fill="#FFFFFF" d="M25.989,72.997c0.079-0.091-0.014,0.053,0.012,0.063
			C25.944,73.068,25.979,73.023,25.989,72.997z"/>
		<polygon opacity="0.3" fill="#FFFFFF" points="27.471,73.311 27.547,73.337 27.469,73.427 27.486,73.256 		"/>
		<path opacity="0.3" fill="#FFFFFF" d="M26.117,72.512c0.062,0.079-0.086,0.115-0.177,0.146
			C25.905,72.587,26.051,72.546,26.117,72.512z"/>
		<path opacity="0.3" fill="#202020" d="M25.187,72.393l0.068-0.151L25.187,72.393z"/>
		<polygon opacity="0.3" fill="#202020" points="25.422,72.122 25.524,72.363 25.368,72.221 		"/>
		<path fill="#202020" d="M36.932,39.789c-0.847-0.606-1.168-1.676-1.622-2.547c0.252-0.485,0.544-1.017,0.918-1.494
			c0.37-0.481,0.816-0.916,1.316-1.264c0.216-0.027,0.265,0.169,0.287,0.363c0.485-0.049,0.844-0.439,1.014-0.858
			c-0.257,0.568,0.196,0.927,0.284,1.458c0.37,0.185,0.334-0.258,0.575-0.338c0.021,0.307-0.343,0.532-0.248,0.844
			c0.16,0.024,0.145-0.225,0.304-0.149c0.185,0.627,0.254,0.888-0.04,1.45c0.179,0.165,0.533,0.081,0.613,0.092
			c-0.249,0.115-0.367,0.312-0.45,0.534c-0.083,0.221-0.121,0.47-0.191,0.693l0.32,0.052c-0.389,0.157-0.588,0.584-0.835,0.94
			c-0.242,0.358-0.558,0.63-1.135,0.493C37.582,39.781,37.335,40.081,36.932,39.789z"/>
		<polygon opacity="0.3" fill="#202020" points="25.283,72.132 25.154,72.205 25.156,72.087 		"/>
		<path opacity="0.3" fill="#FFFFFF" d="M27.695,72.772c0.189-0.726-0.078-0.44,0.22-1.156c0.065,0.169,0.168,0.296,0.268,0.125
			l-0.223-0.198l0.063-0.035c-0.172,0.144-0.2-0.276-0.47-0.08l0.036,0.07c-0.23-0.169,0.105-0.197,0.135-0.305l-0.03,0.107
			c0.223-0.008,0.078-0.297,0.324-0.386c-0.163-0.114-0.34-0.269-0.441-0.099c0.092-0.142,0.359-0.516,0.431-0.372
			c-0.227,0.123-0.035,0.133,0.026,0.508c0.151,0.054,0.216-0.187,0.106-0.284c0.193,0.305,0.148,0.461,0.138,0.813l-0.024-0.011
			c-0.093,0.144,0.15,0.261,0.187,0.125c-0.093,0.143-0.155,0.062-0.201-0.071c0.227,0.494-0.355,1.463-0.013,1.201
			c-0.22,0.422-0.311,0.036-0.579,0.324C27.602,72.916,27.692,72.887,27.695,72.772z"/>
		<path opacity="0.3" fill="#FFFFFF" d="M27.452,72.864c-0.194,0.108,0.167-0.118,0.097,0.149
			C27.499,72.995,27.565,72.844,27.452,72.864z"/>
		<path opacity="0.3" fill="#FFFFFF" d="M27.406,72.405c-0.122,0.045-0.037-0.071,0.009-0.142c0.03,0.097-0.041,0.367-0.031,0.545
			C27.175,72.765,27.428,72.529,27.406,72.405z"/>
		<path opacity="0.3" fill="#202020" d="M25.252,71.826c0.098-0.055,0.056,0.108,0.073,0.144
			C25.275,71.951,25.418,71.825,25.252,71.826z"/>
		<polygon opacity="0.3" fill="#202020" points="25.543,71.868 25.441,71.95 25.508,71.798 		"/>
		<path opacity="0.3" fill="#FFFFFF" d="M27.553,72.369c-0.034,0.017,0.165,0.206-0.039,0.252
			C27.518,72.503,27.431,72.416,27.553,72.369z"/>
		<path opacity="0.3" fill="#202020" d="M27.708,72.513c0.117-0.134,0.079,0.115,0.172,0.179
			C27.707,72.716,27.808,72.549,27.708,72.513z"/>
		<polygon opacity="0.3" fill="#FFFFFF" points="26.114,71.893 26.13,72.043 26.143,71.992 		"/>
		<polygon opacity="0.3" fill="#202020" points="28.213,72.252 28.229,72.405 28.179,72.386 		"/>
		<polygon opacity="0.3" fill="#202020" points="28.093,72.297 28.003,72.323 28.032,72.215 		"/>
		<path opacity="0.3" fill="#FFFFFF" d="M27.434,71.885l-0.069-0.259l0.131,0.224C27.646,71.697,27.603,72.181,27.434,71.885z"/>
		<path opacity="0.3" fill="#FFFFFF" d="M27.235,71.697c-0.064-0.17,0.055,0.107,0.025,0.215
			C27.284,71.833,27.107,71.771,27.235,71.697z"/>
		<path opacity="0.3" fill="#FFFFFF" d="M26.408,71.611l0.046-0.071L26.408,71.611z"/>
		<path opacity="0.3" fill="#202020" d="M28.121,72.191l-0.007-0.183L28.121,72.191z"/>
		<path opacity="0.3" fill="#FFFFFF" d="M27.68,71.885l0.118-0.136L27.68,71.885z"/>
		<path opacity="0.3" fill="#FFFFFF" d="M27.13,71.365l0.015-0.055l0.1,0.245C27.131,71.572,27.191,71.446,27.13,71.365z"/>
		<path opacity="0.3" fill="#FFFFFF" d="M27.632,71.545c-0.01-0.063,0.054-0.099,0.121-0.045
			C27.665,71.527,27.722,71.723,27.632,71.545z"/>
		<path opacity="0.3" fill="#202020" d="M28.067,71.347c0.088,0.089,0.1-0.174,0.162-0.297c0.042,0.248-0.211,0.277-0.104,0.492
			C28.204,71.453,28.103,71.418,28.067,71.347z"/>
		<polygon opacity="0.3" fill="#FFFFFF" points="27.438,71.033 27.306,71.222 27.375,71.068 		"/>
		<polygon opacity="0.3" fill="#202020" points="27.998,71.085 27.975,71.282 27.871,71.157 		"/>
		
			<rect x="27.708" y="70.992" transform="matrix(0.9123 0.4096 -0.4096 0.9123 31.5319 -5.1213)" opacity="0.3" fill="#FFFFFF" width="0.026" height="0.109"/>
		<polygon opacity="0.3" fill="#FFFFFF" points="27.457,70.86 27.37,70.979 27.392,70.898 		"/>
		<polygon opacity="0.3" fill="#FFFFFF" points="26.725,70.513 26.69,70.646 26.64,70.631 		"/>
		<path opacity="0.3" fill="#FFFFFF" d="M39.316,38.153c-0.002,0.027,0.124,0.156-0.012,0.188L39.316,38.153z"/>
		<path opacity="0.3" fill="#FFFFFF" d="M27.345,70.556c0.082,0.001,0.078,0.116,0.065,0.17
			C27.391,70.689,27.33,70.61,27.345,70.556z"/>
		<polygon opacity="0.3" fill="#FFFFFF" points="27.272,70.619 27.183,70.646 27.147,70.575 		"/>
		<path opacity="0.3" fill="#FFFFFF" d="M28.327,70.793l-0.047-0.132L28.327,70.793z"/>
		<path opacity="0.3" fill="#FFFFFF" d="M28.174,70.445c0.057-0.01,0.097-0.054,0.165,0.001
			C28.288,70.427,28.172,70.65,28.174,70.445z"/>
		<path fill="#202020" d="M43.215,33.619l-0.686-0.988c-0.27-0.663,0.208-0.912-0.149-1.597c0.453-0.025,0.413-1.124,0.364-1.686
			c0.163,0.215,0.184,0.582,0.458,0.624c0.267-0.215,0.417-0.702,0.363-1.095c0.3,0.038-0.119,0.514,0.26,0.547
			c0.138,0.021,0.365-0.077,0.313-0.272c0.24-0.016,0.082,0.418,0.372,0.372c0.183-0.04,0.119-0.319,0.267-0.414
			c0.104,0.166-0.212,0.412,0.071,0.534c0.164-0.177,0.287-0.47,0.575-0.517c-0.67,1.004,0.575,1.098,0.377,2.021
			c-0.01,0.707-0.292,1.298-0.564,1.911c-0.212,0.469-0.721,0.663-0.825,0.927C43.93,34.008,43.667,33.793,43.215,33.619z"/>
		<polygon opacity="0.4" fill="#FFFFFF" points="42.751,37.891 42.799,38.012 42.562,37.922 		"/>
		<path opacity="0.4" fill="#FFFFFF" d="M42.838,37.759c0.193-0.084-0.108,0.043,0.023,0.091
			C42.838,37.79,42.757,37.806,42.838,37.759z"/>
		<path opacity="0.3" fill="#FFFFFF" d="M44.497,33.384c0.161-0.009,0.133-0.007,0.01,0.085L44.497,33.384z"/>
		<polygon opacity="0.4" fill="#FFFFFF" points="42.101,37.457 42.014,37.585 42.044,37.504 		"/>
		<path opacity="0.3" fill="#FFFFFF" d="M39.353,37.035l-0.112,0.121C39.294,37.11,39.274,36.996,39.353,37.035z"/>
		<path opacity="0.3" fill="#FFFFFF" d="M44.519,33.127l0.063-0.145c0.023-0.032-0.026,0.228-0.149,0.319l0.025-0.228L44.519,33.127
			z"/>
		<path opacity="0.4" fill="#FFFFFF" d="M42.212,37.362c0.024,0.086,0.134,0.072,0.048,0.146
			C42.235,37.477,42.184,37.413,42.212,37.362z"/>
		<path opacity="0.4" fill="#FFFFFF" d="M41.965,37.468l-0.049-0.091L41.965,37.468z"/>
		<path opacity="0.4" fill="#FFFFFF" d="M41.65,37.337c0.217-0.052,0.015-0.278,0.021-0.418c0.287,0.179,0.15,0.219,0.03,0.456
			L41.65,37.337z"/>
		<path opacity="0.3" fill="#FFFFFF" d="M44.785,32.885c0.017,0.141-0.101,0.062-0.135,0.206
			C44.628,32.921,44.594,32.866,44.785,32.885z"/>
		<path opacity="0.4" fill="#FFFFFF" d="M41.991,36.964c0.158,0.05,0.123,0.213,0.199,0.337
			C42.171,37.127,41.932,37.067,41.991,36.964z"/>
		<rect x="42.907" y="36.891" opacity="0.4" fill="#FFFFFF" width="0.027" height="0.142"/>
		<polygon opacity="0.4" fill="#FFFFFF" points="41.628,36.662 41.568,36.768 41.518,36.73 		"/>
		<path opacity="0.4" fill="#FFFFFF" d="M42.172,36.566c0.088-0.129,0.104,0.069,0.157,0.106
			C42.247,36.688,42.194,36.654,42.172,36.566z"/>
		<path opacity="0.4" fill="#FFFFFF" d="M41.668,36.388c-0.05-0.062-0.137,0.065-0.192,0.085c0.142-0.147,0.307-0.185-0.006-0.42
			c0.044,0.202,0.261,0.173,0.286,0.205l0.033-0.134c-0.095,0.296,0.066,0.318-0.209,0.42
			C41.583,36.488,41.638,36.438,41.668,36.388z"/>
		<path opacity="0.4" fill="#FFFFFF" d="M42.646,36.235c0.046,0.173,0.345,0.1,0.094,0.293C42.719,36.44,42.75,36.302,42.646,36.235
			z"/>
		<path opacity="0.4" fill="#FFFFFF" d="M42.105,36.304c0.19-0.032,0.068-0.272,0.205-0.339c-0.106-0.014-0.379,0.037-0.225,0.167
			c-0.125-0.155,0.177-0.256-0.036-0.396c0.048,0.231,0.346,0.128,0.366,0.301c-0.052-0.063-0.107-0.015-0.137,0.036
			c0.069,0.208,0.292,0.095,0.175,0.277l0.002-0.056C42.289,36.385,42.285,36.469,42.105,36.304z"/>
		<path opacity="0.3" fill="#FFFFFF" d="M45.3,31.631c0.31,0.325-0.205-0.131-0.078,0.232C45.262,31.747,45.194,31.638,45.3,31.631z
			"/>
		<polygon opacity="0.4" fill="#FFFFFF" points="42.999,36.195 42.973,36.19 42.981,36.051 43.006,36.054 		"/>
		<path opacity="0.3" fill="#FFFFFF" d="M45.398,31.569c-0.067-0.111,0.065,0.08,0.122,0.106
			C45.418,31.709,45.433,31.623,45.398,31.569z"/>
		<path opacity="0.4" fill="#FFFFFF" d="M41.536,35.838c0.135-0.01,0.084-0.128-0.023-0.114c0.083-0.129,0.162-0.036,0.214,0.026
			C41.621,35.71,41.614,35.878,41.536,35.838z"/>
		<path opacity="0.4" fill="#FFFFFF" d="M43.145,35.901l-0.133-0.043L43.145,35.901z"/>
		<polygon opacity="0.4" fill="#FFFFFF" points="42.531,35.825 42.503,35.821 42.507,35.652 42.535,35.658 		"/>
		<path opacity="0.3" fill="#FFFFFF" d="M45.027,31.39l0.007-0.14L45.027,31.39z"/>
		<path opacity="0.4" fill="#FFFFFF" d="M41.978,35.419c0.024,0.087,0.212,0.111,0.129,0.183L41.978,35.419z"/>
		<path opacity="0.3" fill="#FFFFFF" d="M45.097,30.904c0.101,0.166,0.269,0.214,0.05,0.395L45.097,30.904z"/>
		<path opacity="0.3" fill="#FFFFFF" d="M45.349,31.202c0.062,0.053,0.124-0.092,0.111,0.021L45.349,31.202z"/>
		<rect x="42.142" y="35.244" opacity="0.4" fill="#FFFFFF" width="0.027" height="0.084"/>
		<path opacity="0.3" fill="#FFFFFF" d="M45.268,30.384c0.06,0.053,0.16-0.01,0.197,0.074l-0.19,0.38
			C45.119,30.677,45.534,30.568,45.268,30.384z"/>
		<path opacity="0.4" fill="#FFFFFF" d="M42.229,35.058c0.115-0.294-0.127-0.239,0.173-0.4
			C42.186,34.716,42.497,35.088,42.229,35.058z"/>
		<path opacity="0.3" fill="#FFFFFF" d="M45.063,30.454l0.052-0.004L45.1,30.735C45.032,30.625,45.154,30.533,45.063,30.454z"/>
		<path opacity="0.4" fill="#FFFFFF" d="M43.019,34.759l-0.023-0.118L43.019,34.759z"/>
		<path opacity="0.4" fill="#FFFFFF" d="M42.082,34.537l0.057-0.106L42.082,34.537z"/>
		<path opacity="0.4" fill="#FFFFFF" d="M43.105,34.513l0.03-0.108L43.105,34.513z"/>
		<polygon opacity="0.4" fill="#FFFFFF" points="42.954,34.132 42.896,34.322 42.901,34.153 		"/>
		<path fill="#202020" d="M40.851,28.452c-0.546-0.246-0.306-0.653-0.714-1.075c-0.12-0.453-0.035-0.902,0.057-1.329
			c0.087-0.425,0.198-0.838,0.157-1.234c0.14,0.184-0.061,0.417,0.177,0.564c0.269-0.155-0.123-0.568,0.149-0.698
			c-0.003,0.138,0.047,0.437,0.275,0.366c0.038-0.252-0.03-0.66,0.132-0.812c-0.021,0.195-0.165,0.454,0.026,0.633
			c0.241-0.156,0.574-0.266,0.684-0.413c0.094,0.243-0.192,0.46,0.083,0.661c0.305-0.109-0.097-0.579,0.249-0.603
			c0.038,0.553,0.174,1.043,0.287,1.569l0.277-0.105c0.002,0.217,0.009,0.437,0.008,0.653c-0.005,0.218-0.017,0.433-0.043,0.642
			c-0.053,0.419-0.167,0.813-0.415,1.153c-0.182,0.235-0.533,0.597-0.866,0.335C41.17,28.631,40.946,28.757,40.851,28.452z"/>
		<polygon opacity="0.4" fill="#FFFFFF" points="41.718,30.708 41.743,30.85 41.716,30.82 		"/>
		<polygon opacity="0.4" fill="#FFFFFF" points="41.879,30.556 41.717,30.598 41.717,30.542 		"/>
		<path fill="#202020" d="M49.825,25.516c-0.107,0.188,0.126,0.315,0.239,0.334l-0.368-0.115L49.825,25.516z"/>
		<path fill="#202020" d="M50.084,25.819c0.018-0.063,0.075-0.04,0.129-0.043C50.157,25.75,50.144,25.842,50.084,25.819z"/>
		<polygon fill="#202020" points="49.397,25.171 49.58,25.688 49.417,25.318 		"/>
		<polygon opacity="0.4" fill="#FFFFFF" points="41.772,30.212 41.719,30.346 41.639,30.255 		"/>
		<path fill="#202020" d="M50.369,25.551l0.032-0.151L50.369,25.551z"/>
		<polygon fill="#202020" points="49.499,24.423 49.374,25.029 49.45,24.458 		"/>
		<rect x="50.504" y="24.523" fill="#202020" width="0.026" height="0.208"/>
		<rect x="41.481" y="29.352" opacity="0.4" fill="#FFFFFF" width="0.027" height="0.14"/>
		<polygon opacity="0.4" fill="#FFFFFF" points="41.43,29.15 41.321,29.225 41.323,29.139 		"/>
		<rect x="50.441" y="24.173" fill="#202020" width="0.025" height="0.061"/>
		<polygon fill="#202020" points="49.556,24.091 49.486,24.161 49.474,24.073 		"/>
		<polygon fill="#202020" points="50.043,23.745 49.93,23.873 49.964,23.752 		"/>
		<path fill="#202020" d="M43.516,22.988c-0.228-0.205-0.709-0.327-0.978-0.606c-0.555-0.926-0.139-1.441-0.28-2.324
			c0.49,0.167,0.239-0.309,0.249-0.531l0.311,0.215c0.189-0.079,0.283-0.272,0.345-0.47c0.06-0.198,0.091-0.4,0.166-0.495
			c0.034,0.165-0.019,0.427,0.215,0.512c0.162-0.134,0.02-0.425,0.079-0.66c0.075,0.359,0.463,0.649,0.755,0.499
			c0.083-0.124-0.011-0.308,0.122-0.326c0.15,0.208-0.209,0.565,0.052,0.646c0.346,0.103,0.007-0.482,0.304-0.491
			c0.031,0.394-0.139,0.783,0.064,1.157c0.133-0.016,0.159-0.161,0.292-0.178c-0.076,1.031,0.039,2.248-0.932,2.83
			C44.029,22.993,43.78,22.819,43.516,22.988z"/>
		<polygon opacity="0.3" fill="#FFFFFF" points="44.256,21.75 44.222,21.867 44.228,21.751 		"/>
		<path opacity="0.3" fill="#FFFFFF" d="M44.218,21.696l0.038-0.088L44.218,21.696z"/>
		<path opacity="0.3" fill="#FFFFFF" d="M43.395,20.911c-0.09,0.096,0.418,0.208,0.142,0.324L43.395,20.911z"/>
		<polygon opacity="0.3" fill="#FFFFFF" points="44.366,20.179 44.44,20.285 44.334,20.296 		"/>
		<polygon fill="#202020" points="46.33,19.398 46.263,19.466 46.208,19.47 		"/>
		<polygon fill="#202020" points="46.369,18.792 46.385,19.28 46.391,18.903 		"/>
		<polygon fill="#202020" points="46.001,18.469 46.037,18.375 46.192,18.47 46.037,18.375 		"/>
		<path fill="#202020" d="M51.693,15.25c0.11,0.128,0.133-0.138,0.229,0.052C51.836,15.288,51.738,15.329,51.693,15.25z"/>
		<path fill="#202020" d="M51.368,14.89c0.025,0.114,0.063,0.282,0.181,0.322C51.357,15.214,51.445,14.994,51.368,14.89z"/>
		<polygon fill="#202020" points="52.21,14.374 52.268,14.513 52.229,14.459 		"/>
		<path fill="#202020" d="M51.342,14.396l-0.004-0.146L51.342,14.396z"/>
		<path fill="#202020" d="M52.193,14.172l-0.053-0.109L52.193,14.172z"/>
		<polygon opacity="0.3" fill="#FFFFFF" points="46.436,15.002 46.41,15.004 46.391,14.923 46.417,14.918 		"/>
		<polygon opacity="0.3" fill="#FFFFFF" points="46.867,14.735 46.846,14.768 46.602,14.776 		"/>
		<polygon fill="#202020" points="51.561,13.773 51.426,14.033 51.461,13.818 		"/>
		<path opacity="0.3" fill="#FFFFFF" d="M46.875,14.534c0.093-0.071,0.117,0.038,0.136,0.121L46.875,14.534z"/>
		<polygon opacity="0.3" fill="#FFFFFF" points="44.915,14.54 45.019,14.638 44.927,14.597 		"/>
		<polygon opacity="0.3" fill="#FFFFFF" points="46.735,14.154 46.708,14.157 46.683,14.045 46.708,14.042 		"/>
		
			<rect x="44.66" y="14.29" transform="matrix(0.9701 -0.2425 0.2425 0.9701 -2.1527 11.2643)" opacity="0.3" fill="#FFFFFF" width="0.028" height="0.171"/>
		<path opacity="0.3" fill="#FFFFFF" d="M45.997,13.664c0.082-0.243,0.104,0.096,0.137,0.125
			C46.034,13.83,46.068,13.739,45.997,13.664z"/>
		<polygon opacity="0.3" fill="#FFFFFF" points="46.308,13.473 46.418,13.598 46.327,13.556 		"/>
		<polygon opacity="0.3" fill="#FFFFFF" points="45.743,13.276 45.571,13.588 45.625,13.35 		"/>
		<path fill="#FFFFFF" d="M46.743,9.443c0-0.114-0.028-0.339,0.098-0.388c0.19,0.111-0.005,0.316,0.107,0.439
			C46.956,9.637,46.738,9.531,46.743,9.443z"/>
		<path fill="#202020" d="M43.79,9.348l-0.046-0.191c0.04,0.166,0.304,0.231,0.252,0.468l-0.337-0.367L43.79,9.348z"/>
		<path fill="#202020" d="M43.386,8.819c0.195-0.088,0.105,0.21,0.209,0.306C43.5,9.055,43.465,8.92,43.386,8.819z"/>
		<path opacity="0.3" fill="#FFFFFF" d="M46.081,6.292c0.06,0.017-0.023,0.12-0.042,0.151C45.998,6.393,46.044,6.355,46.081,6.292z"
			/>
		<polygon opacity="0.3" fill="#FFFFFF" points="45.572,15.357 45.498,15.511 45.546,15.361 		"/>
		<polygon opacity="0.3" fill="#FFFFFF" points="45.318,15.311 45.33,15.362 45.243,15.348 		"/>
		<polygon opacity="0.3" fill="#FFFFFF" points="45.705,14.626 45.83,14.691 45.778,14.699 		"/>
		<path opacity="0.3" fill="#FFFFFF" d="M43.951,14.458c0.066-0.067,0.17,0.146,0.156,0.204
			C44.089,14.577,44.057,14.441,43.951,14.458z"/>
		<polygon opacity="0.3" fill="#FFFFFF" points="43.683,14.355 43.663,14.5 43.632,14.36 		"/>
		<path opacity="0.3" fill="#FFFFFF" d="M44.102,14.039l0.024,0.109c-0.188-0.229-0.135-0.237-0.009-0.398
			c-0.081,0.239,0.062,0.275,0.147,0.518C44.165,14.198,44.251,14.101,44.102,14.039z"/>
		<path opacity="0.3" fill="#FFFFFF" d="M44.193,13.967l0.015-0.172L44.193,13.967z"/>
		<path fill="#202020" d="M45.632,10.123C45.471,9.691,45.704,9.31,46,9.17c0.388-0.208,0.819-0.685,1.171-0.143
			c-0.142,0.428-0.33,1.006-0.743,1.219C46.211,10.368,45.765,10.555,45.632,10.123z"/>
		<path fill="#202020" d="M56.666,1.592c-0.122-0.252-0.217-0.558-0.135-0.81c0.068-0.51,0.814-0.4,0.744-0.855
			c0.15,0.499,0.401,1.299-0.125,1.731C57.029,1.771,56.775,1.807,56.666,1.592z"/>
		<path fill="#202020" d="M61.44,3.014l-0.067-0.045L61.44,3.014z"/>
		<path fill="#202020" d="M57.914,1.252c0.029,0.008,0.033-0.021,0.045-0.038C57.935,1.233,57.967,1.299,57.914,1.252z"/>
		<path fill="#202020" d="M57.893,1.081l0.007-0.03L57.893,1.081z"/>
		<path opacity="0.3" fill="#FFFFFF" d="M56.967,1.164c0.018,0.013,0.008,0.027-0.012,0.018c-0.069-0.06,0.081-0.06,0.061-0.087
			l0.008,0.029c0.01-0.163,0.17,0.011,0.186-0.126C57.104,1.167,57.17,1.154,56.967,1.164z"/>
		<path opacity="0.3" fill="#FFFFFF" d="M57.261,1.034c0.054-0.012,0.056,0.002,0.028,0.051C57.271,1.073,57.266,1.046,57.261,1.034
			z"/>
		<path opacity="0.3" fill="#FFFFFF" d="M56.703,1.057c0.092-0.063-0.05-0.181,0.035-0.272L56.826,0.9
			c-0.059,0.041-0.061-0.12-0.118-0.021c0.164,0.041,0.09,0.17,0.135,0.193C56.791,1.23,56.811,1.048,56.703,1.057z"/>
		<polygon opacity="0.3" fill="#FFFFFF" points="57.188,0.914 57.196,0.942 57.154,0.951 		"/>
		<path opacity="0.3" fill="#FFFFFF" d="M57.098,0.89c-0.023-0.038-0.053,0.01-0.072-0.016c0.02,0.026,0.084-0.09,0.111,0.006
			C57.111,0.841,57.068,0.982,57.098,0.89z"/>
		<path opacity="0.3" fill="#FFFFFF" d="M56.906,0.794c0.03,0.01-0.016,0.046-0.024,0.065C56.891,0.84,56.885,0.814,56.906,0.794z"
			/>
		<path opacity="0.3" fill="#FFFFFF" d="M57.142,0.748c-0.034-0.083,0.015-0.002,0.03,0.01C57.156,0.745,57.15,0.731,57.142,0.748z"
			/>
		<path opacity="0.3" fill="#FFFFFF" d="M57.26,0.68l0.021-0.077L57.26,0.68z"/>
		<path opacity="0.3" fill="#FFFFFF" d="M57.104,0.609c0.041-0.053,0.021,0.024,0.029,0.053L57.104,0.609z"/>
		<path opacity="0.3" fill="#FFFFFF" d="M57.009,0.466l0.003-0.044L57.009,0.466z"/>
		<path fill="#202020" d="M53.078,0.561c-0.013-0.056,0.014-0.104-0.045-0.165c0.012,0.186-0.16,0.075-0.252,0.138
			c-0.195-0.311-0.102-0.723,0.154-0.95c0.062,0.136,0.103,0.329,0.164,0.448c0.097-0.152,0.166-0.354,0.369-0.409
			c0.085-0.791,0.629-1.484,0.871-2.252c0.084,0.247-0.094,0.458,0.026,0.696c0.107-0.009-0.001-0.146,0.099-0.197
			c0.023,0.083-0.013,0.209,0.076,0.277c0.343,0.046,0.118-0.417,0.281-0.583c0.098,0.564,0.334,1.216,0.339,1.845
			c0.02,0.566-0.326,1.222-0.903,1.279c-0.172,0.02-0.301-0.188-0.468-0.299c-0.026,0.208-0.118,0.475-0.331,0.503
			C53.299,0.908,53.149,0.722,53.078,0.561z"/>
		<path fill="#202020" d="M48.445,6.724c-0.266-0.501-0.127-1.089,0.024-1.563c0.025,0.255-0.086,0.521-0.076,0.723l-0.03-0.009
			c0.009,0.142-0.114,0.25,0.047,0.351c-0.021,0.02-0.041-0.007-0.059-0.019c-0.025,0.223,0.055,0.423,0.206,0.584
			c0.297,0.147,0.008-0.175,0.239-0.188l0.091,0.143c-0.006-0.087,0.126-0.153,0.044-0.21l0.015,0.009
			c0.24-0.349,0.054-0.919-0.085-1.355l-0.026,0.006l0.003-0.203c0.132,0.624,0.528,1.477-0.049,1.902
			C48.694,6.953,48.526,6.883,48.445,6.724z"/>
		<path fill="#202020" d="M48.549,6.705c-0.033-0.08,0.01-0.016,0.032,0.009C48.581,6.714,48.562,6.704,48.549,6.705z"/>
		<path fill="#202020" d="M48.958,6.37L48.86,6.316L48.958,6.37z"/>
		<polygon fill="#202020" points="48.608,5.278 48.633,5.317 48.618,5.307 		"/>
		<polygon fill="#202020" points="48.69,5.221 48.717,5.273 48.679,5.279 		"/>
		<path fill="#202020" d="M48.578,5.211l0.005-0.145L48.578,5.211z"/>
		<path fill="#202020" d="M61.371,2.328l-0.095-0.114L61.371,2.328z"/>
		<path fill="#202020" d="M60.802,2.323l0.063-0.147L60.802,2.323z"/>
		<path fill="#202020" d="M61.006,1.996l0.092,0.085l-0.183,0.063C60.909,2.086,60.988,2.055,61.006,1.996z"/>
	</g>
</g>
</svg>
