<?xml version="1.0" encoding="utf-8"?>
<!-- Generator: Adobe Illustrator 16.0.0, SVG Export Plug-In . SVG Version: 6.00 Build 0)  -->
<!DOCTYPE svg PUBLIC "-//W3C//DTD SVG 1.1//EN" "http://www.w3.org/Graphics/SVG/1.1/DTD/svg11.dtd">
<svg version="1.1" id="Layer_1" xmlns="http://www.w3.org/2000/svg" xmlns:xlink="http://www.w3.org/1999/xlink" x="0px" y="0px"
	 width="100px" height="100px" viewBox="0 0 100 100" enable-background="new 0 0 100 100" xml:space="preserve">
<g>
	<path fill="#202020" d="M51.434,35.601c0.233-0.775,0.464-1.543,0.696-2.317c-2.186,6.496-4.524,13.174-6.944,19.767
		c-0.608,1.654-1.214,3.304-1.817,4.941c-0.577,1.562-1.223,3.16-1.862,4.779c-1.283,3.239-2.546,6.555-3.473,10.043
		c-0.141,0.433-0.352,1.085-0.541,1.758c-0.188,0.673-0.358,1.361-0.458,1.832c-0.077,0.466-0.122,0.959-0.176,1.452
		c-0.034,0.504-0.081,1.007-0.085,1.536c-0.033,1.047,0.018,2.152,0.166,3.289c0.065,0.567,0.182,1.147,0.299,1.727
		c0.145,0.582,0.289,1.167,0.492,1.749l0.146,0.438l0.178,0.451l0.184,0.452l0.093,0.225l0.095,0.198
		c0.127,0.261,0.254,0.525,0.387,0.782l0.409,0.756c0.19,0.326,0.381,0.645,0.587,0.967c0.263,0.371,0.513,0.756,0.786,1.116
		c0.562,0.704,1.153,1.385,1.822,1.925c0.321,0.294,0.673,0.526,1.02,0.765c0.361,0.206,0.715,0.425,1.092,0.58
		c0.744,0.331,1.525,0.556,2.323,0.634c1.602,0.18,3.203-0.225,4.532-1.003c1.341-0.776,2.458-1.944,3.312-3.266
		c0.224-0.322,0.405-0.671,0.591-1.005c0.165-0.349,0.334-0.684,0.469-1.028l0.1-0.256c0.031-0.082,0.069-0.181,0.085-0.234
		c0.039-0.128,0.077-0.254,0.115-0.378c0.074-0.25,0.123-0.475,0.175-0.704c0.188-0.911,0.236-1.734,0.218-2.429
		c-0.02-0.696-0.102-1.257-0.185-1.652c-0.037-0.193-0.077-0.347-0.104-0.45c-0.029-0.103-0.044-0.156-0.044-0.156
		c-0.087-0.574-0.282-1.166-0.481-1.456c-0.198-0.289-0.345-0.246-0.391,0.338c0.022,0.571-0.002,1.302-0.113,2.045
		c-0.108,0.746-0.291,1.515-0.521,2.198c-0.232,0.688-0.497,1.276-0.753,1.714c-0.133,0.231-0.276,0.451-0.38,0.572
		c-0.11,0.125-0.19,0.181-0.236,0.153c-0.046-0.028,0.066-0.288,0.225-0.678c0.15-0.371,0.316-0.784,0.465-1.229
		c-0.199-0.07-0.275-0.821-0.367-1.629c-0.081-0.812-0.207-1.685-0.199-2.114c-0.049-0.218-0.108-0.708-0.3-1.306
		c-0.093-0.297-0.225-0.622-0.418-0.927c-0.191-0.303-0.455-0.585-0.771-0.745c-0.317-0.163-0.667-0.183-0.975-0.132
		c-0.312,0.048-0.592,0.181-0.834,0.301c-0.483,0.26-0.812,0.561-0.953,0.693c-0.488,0.378-0.407,0.516,0.034,0.486
		c0.234-0.02,0.503-0.054,0.815-0.074c0.306-0.027,0.66-0.015,0.86,0.082c0.037,0.034,0.119,0.051,0.13,0.087L51,81.306
		c0,0.001,0,0.005,0,0.005l-0.032-0.018l-0.012-0.034c0.004-0.024,0-0.049,0.008-0.074c0.042-0.168,0.081-0.151-0.052-0.015
		c-0.042,0.049-0.09,0.091-0.137,0.125c-0.045,0.037-0.15,0.123-0.188,0.142c-0.011-0.001-0.021,0.022-0.03,0.033
		c-0.008,0.013-0.014,0.022-0.022,0.049c-0.022,0.066-0.043,0.202-0.064,0.34c-0.048,0.293-0.123,0.657-0.219,1.01
		c-0.095,0.354-0.208,0.697-0.307,0.994c-0.232,0.591-0.376,0.548-0.474,0.366c-0.104-0.185-0.198-0.502-0.357-0.529
		c-0.056,0.565-0.248,0.985-0.445,1.37c-0.248,0.484-0.28,0.415-0.334,0.623c-0.045-0.037-0.197,0.151-0.433,0.266
		c-0.117,0.059-0.268,0.078-0.399,0.037c-0.132-0.041-0.233-0.126-0.305-0.193c0,0-0.038,0.007-0.113-0.036
		c-0.037-0.021-0.084-0.056-0.135-0.111c-0.026-0.026-0.052-0.061-0.081-0.098c-0.009-0.014-0.01-0.012-0.026-0.037
		c-0.017-0.028-0.034-0.056-0.051-0.085c-0.035-0.058-0.071-0.118-0.108-0.181c-0.307-0.571-0.401-0.526-0.494-0.478
		c0.094-0.048,0.094-0.048,0.189-0.096c-0.116-0.119-0.231-0.289-0.336-0.479c-0.076-0.172-0.153-0.356-0.222-0.556
		c-0.062-0.213-0.125-0.426-0.183-0.621c-0.05-0.201-0.105-0.38-0.171-0.52c0.104-0.024,0.104-0.024,0.207-0.049
		c-0.229-0.563-0.337-1.179-0.371-1.82c-0.032-0.645-0.029-1.299-0.046-1.981c0.105,0.004,0.105,0.004,0.212,0.009
		c0.022-0.672,0.098-1.362,0.205-1.352c0.105,0.011,0.105,0.011,0.211,0.022c0.083-0.334,0.13-0.854,0.182-1.291
		c0.063-0.439,0.119-0.788,0.227-0.77c-0.104-0.02-0.104-0.02-0.208-0.039c0.269-1.414,0.62-2.671,0.998-3.839
		c0.38-1.168,0.789-2.251,1.22-3.341c0.608-1.444,1.258-3.003,1.92-4.695c0.33-0.846,0.665-1.729,0.989-2.652
		c0.303-0.874,0.609-1.759,0.918-2.649c1.213-3.549,2.409-7.283,3.479-10.831c0.264-0.779,0.321-1.628-0.14-0.914
		c0.257-0.783,0.515-1.569,0.771-2.351c0.511-1.568-0.04-0.878,0.456-2.452c0.877-3.195,1.752-6.387,2.628-9.579
		c0.84-3.212,1.689-6.427,2.397-9.694c1.471-6.509,2.503-13.207,2.615-20.015c-0.078,0.846-0.151,1.639-0.223,2.406
		c-0.037,0.383-0.074,0.759-0.11,1.131c-0.049,0.37-0.097,0.737-0.145,1.104c-0.095,0.733-0.184,1.466-0.263,2.226
		c-0.076,0.76-0.19,1.538-0.267,2.376c-0.105-0.014-0.315-0.041-0.423,0.791c-0.047,0.311-0.095,0.625-0.142,0.941
		c-0.056,0.314-0.11,0.631-0.165,0.949c-0.106,0.636-0.214,1.277-0.32,1.914c-0.098,0.64-0.224,1.269-0.343,1.887
		c-0.121,0.618-0.239,1.225-0.354,1.813c-0.229,1.177-0.509,2.257-0.75,3.202c-0.243,0.944-0.504,1.734-0.757,2.312
		c-0.149,0.39-0.35,0.767-0.587,1.348c-0.119,0.29-0.244,0.631-0.382,1.049c-0.143,0.416-0.294,0.91-0.453,1.508
		c0.211-0.799,0.431-1.593,0.619-2.399c-0.103-0.026-0.308-0.077-0.308-0.077c-0.906,3.174-2.101,7.113-3.172,10.217
		c0,0-0.202-0.061-0.304-0.092c0,0-0.118,0.392-0.236,0.785c-0.119,0.392-0.239,0.783-0.239,0.783
		c-0.595,0.673-0.202-1.135,0.453-3.606c0.323-1.237,0.694-2.646,1.062-3.99c0.342-1.352,0.67-2.64,0.906-3.635
		c-0.102-0.026-0.308-0.079-0.41-0.104l-0.418,1.579l-0.205-0.054c1.237-4.733,2.143-8.709,2.966-13.531
		c-0.071,0.402-0.152,1.009-0.274,1.608c-0.115,0.601-0.231,1.201-0.309,1.602c-0.104-0.021-0.208-0.041-0.362,0.758
		c0.667-3.185,1.381-7.202,1.528-10.454c-0.041-0.82-0.385-0.039-0.82,2.348c-0.079,0.602-0.151,1.152-0.22,1.678
		c-0.085,0.524-0.167,1.023-0.248,1.522c-0.165,0.998-0.312,1.998-0.556,3.19l-0.208-0.039c0.08-0.396,0.17-0.842,0.265-1.313
		c0.085-0.472,0.175-0.969,0.264-1.466c0.172-0.995,0.351-1.991,0.389-2.8c0.002-0.813-0.527,1.553-0.523,0.74
		c0.104-0.798,0.207-1.596,0.207-2.406c-0.156,1.195-0.298,2.593-0.529,3.983c-0.108,0.696-0.215,1.391-0.334,2.06
		c-0.134,0.667-0.271,1.308-0.41,1.896c-0.257,0.77-0.512,1.539-0.721,1.496c-0.38,1.973-0.807,3.733-1.334,5.262
		c-0.498,1.535-1.071,2.844-1.638,3.94c-0.103,0.18-0.237,0.56-0.392,1.064c-0.159,0.504-0.348,1.131-0.539,1.809
		c-0.19,0.679-0.395,1.406-0.591,2.109C51.804,34.343,51.604,35.021,51.434,35.601z"/>
</g>
</svg>
