<?xml version="1.0" encoding="utf-8"?>
<!-- Generator: Adobe Illustrator 16.0.0, SVG Export Plug-In . SVG Version: 6.00 Build 0)  -->
<!DOCTYPE svg PUBLIC "-//W3C//DTD SVG 1.1//EN" "http://www.w3.org/Graphics/SVG/1.1/DTD/svg11.dtd">
<svg version="1.1" id="Layer_1" xmlns="http://www.w3.org/2000/svg" xmlns:xlink="http://www.w3.org/1999/xlink" x="0px" y="0px"
	 width="100px" height="100px" viewBox="0 0 100 100" enable-background="new 0 0 100 100" xml:space="preserve">
<g>
	<polygon fill="#636466" points="5.021,50.645 79.863,57.991 76.394,71.57 57.829,70.972 56.548,77.076 38.331,74.033 	"/>
	<path fill="#636466" d="M81.431,70.972c0.24,0.338,1.282,0.658,1.282,0.658l11.854,2.002c0,0,0.24,0.241,0.641,0
		c0.4-0.24,0.721-0.641,0.721-0.641l0.385-3.526l-14.882-3.762V70.972z"/>
</g>
<g>
	<path d="M9.026,24.054l68.72,31.558c0,0,1.442,0.48,1.923,1.602s0,2.403,0,2.403l-1.762,4.966c0,0-0.642,1.602-1.763,1.922
		s-2.242,0-2.242,0L9.026,52.407c0,0-2.563-0.32-4.005-1.762c-1.442-1.441-1.122-3.043-1.122-3.043l-0.03-22.266
		c0.211-0.581,0.671-0.801,2.113-1.282C7.424,23.573,9.026,24.054,9.026,24.054z"/>
	<path d="M86.316,58.975l9.211,4.485c0,0,0.561-0.08,0.721,0.641c0.16,0.722,0,1.282,0,1.282l0.071,4.565
		c0,0-0.552,0.561-1.112,0.881s-1.361,0-1.361,0l-11.053-2.804c0,0-0.562-0.48-0.882-0.801s-0.48-1.521-0.48-1.521l2.003-6.327
		c0,0,0.561-0.802,1.121-0.802S86.316,58.975,86.316,58.975z"/>
</g>
</svg>
