<?xml version="1.0" encoding="utf-8"?>
<!-- Generator: Adobe Illustrator 16.0.0, SVG Export Plug-In . SVG Version: 6.00 Build 0)  -->
<!DOCTYPE svg PUBLIC "-//W3C//DTD SVG 1.1//EN" "http://www.w3.org/Graphics/SVG/1.1/DTD/svg11.dtd">
<svg version="1.1" id="Layer_1" xmlns="http://www.w3.org/2000/svg" xmlns:xlink="http://www.w3.org/1999/xlink" x="0px" y="0px"
	 width="1000px" height="1000px" viewBox="0 0 1000 1000" enable-background="new 0 0 1000 1000" xml:space="preserve">
<g>
	<path fill="#999999" d="M1052.347,260.417L858.111,148.275c-14.682-8.475-38.506-8.484-53.105,0L612.032,260.42
		c-14.587,8.476-14.509,22.284,0.173,30.76l194.236,112.142c14.695,8.486,38.52,8.476,53.105,0l192.973-112.144
		C1067.119,282.692,1067.043,268.903,1052.347,260.417"/>
</g>
<g>
	<path fill="#999999" d="M790.898,111.514L724.156,72.98c-5.045-2.912-13.23-2.915-18.247,0l-66.308,38.534
		c-5.013,2.913-4.985,7.657,0.059,10.57l66.742,38.533c5.049,2.916,13.235,2.912,18.247,0l66.308-38.534
		C795.974,119.167,795.947,114.429,790.898,111.514"/>
</g>
<g>
	<path fill="#999999" d="M790.898,852.514l-66.742-38.533c-5.045-2.912-13.23-2.916-18.247,0l-66.308,38.533
		c-5.013,2.913-4.985,7.658,0.059,10.57l66.742,38.533c5.049,2.916,13.235,2.912,18.247,0l66.308-38.534
		C795.974,860.168,795.947,855.43,790.898,852.514"/>
</g>
<g>
	<path fill="#999999" d="M218.898,638.514l-66.742-38.533c-5.045-2.912-13.23-2.916-18.247,0l-66.308,38.533
		c-5.013,2.913-4.985,7.658,0.059,10.57l66.742,38.533c5.049,2.916,13.235,2.912,18.247,0l66.308-38.534
		C223.974,646.168,223.947,641.43,218.898,638.514"/>
</g>
</svg>
