<?xml version="1.0" encoding="utf-8"?>
<!-- Generator: Adobe Illustrator 16.0.0, SVG Export Plug-In . SVG Version: 6.00 Build 0)  -->
<!DOCTYPE svg PUBLIC "-//W3C//DTD SVG 1.1//EN" "http://www.w3.org/Graphics/SVG/1.1/DTD/svg11.dtd">
<svg version="1.1" id="Layer_1" xmlns="http://www.w3.org/2000/svg" xmlns:xlink="http://www.w3.org/1999/xlink" x="0px" y="0px"
	 width="640px" height="480px" viewBox="0 0 640 480" enable-background="new 0 0 640 480" xml:space="preserve">
<path fill="#CCCBCB" stroke="#231F20" stroke-miterlimit="10" d="M276.419,248.891c1.63-15.002,2.783-27.857,4.494-40.637
	c1.972-14.752,5.32-29.362,6.497-44.161c2.302-28.882,16.681-52.664,30.956-76.424C336.3,57.81,362.95,39.715,397.436,34.725
	c21.562-3.12,41.638,3.603,52.284,23.483c15.827,29.549,13.047,51.592-9.918,77.117c-16.641,18.495-38.093,30.041-59.104,42.531
	c-19.422,11.542-40.55,20.141-57.754,35.722C309.272,225.959,293.532,236.06,276.419,248.891z"/>
<path fill="#4D4E4E" stroke="#231F20" stroke-miterlimit="10" d="M258.944,165.455c-1.777,7.603-4.394,15.117-5.191,22.819
	c-3.042,29.344-5.98,58.717-8.043,88.142c-2.656,37.889-3.891,75.88-6.8,113.743c-1.709,22.259-5.478,44.359-8.319,66.532
	c-1.023-0.041-2.049-0.079-3.076-0.118c-0.309-1.86-0.739-3.71-0.905-5.583c-2.654-29.921-5.619-59.819-7.825-89.777
	c-3.125-42.393-7.948-84.88,0.339-127.206c3.937-20.141,12.493-38.644,23.543-55.82c3.518-5.46,9.142-9.565,13.802-14.29
	C257.295,164.417,258.121,164.938,258.944,165.455z"/>
<g>
	<path fill="#FFFFFF" stroke="#231F20" stroke-miterlimit="10" d="M270.193,294.811c2.755-6.319,3.898-12.123,7.248-16.047
		c12.7-14.867,28.557-25.9,46.856-32.604c20.11-7.369,40.733-13.335,61.042-20.188c5.171-1.743,7.726-0.078,9.141,4.692
		c3.015,10.167,0.305,19.229-5.484,27.614c-1.686,2.439-3.947,4.488-5.734,6.865c-11.025,14.643-25.541,22.623-44,21.982
		c-21.629-0.747-42.838,1.199-63.559,7.655C274.972,295.01,274.111,294.811,270.193,294.811z"/>
	<path fill="#FFFFFF" stroke="#231F20" stroke-miterlimit="10" d="M278.652,261.848c4.753-4.397,9.482-8.818,14.263-13.183
		c9.204-8.394,18.235-16.987,27.752-25.001c3.815-3.21,8.851-4.92,13.111-7.656c8.664-5.57,16.952-11.752,25.815-16.977
		c9.82-5.785,20.271-10.495,30.145-16.197c11.211-6.484,22.296-13.236,33.041-20.458c8.235-5.539,15.861-11.991,25.428-19.317
		c0.927,5.354,2.74,9.743,2.211,13.825c-2.677,20.52-12.3,37.431-30.549,47.466c-11.481,6.318-24.432,10.094-36.939,14.403
		c-34.767,11.975-71.248,19.917-100.812,43.865c-0.539,0.442-1.37,0.522-2.069,0.774
		C279.584,262.879,279.122,262.361,278.652,261.848z"/>
</g>
</svg>
