<?xml version="1.0" encoding="utf-8"?>
<!-- Generator: Adobe Illustrator 16.0.0, SVG Export Plug-In . SVG Version: 6.00 Build 0)  -->
<!DOCTYPE svg PUBLIC "-//W3C//DTD SVG 1.1//EN" "http://www.w3.org/Graphics/SVG/1.1/DTD/svg11.dtd">
<svg version="1.1" id="Layer_1" xmlns="http://www.w3.org/2000/svg" xmlns:xlink="http://www.w3.org/1999/xlink" x="0px" y="0px"
	 width="100px" height="100px" viewBox="0 0 100 100" enable-background="new 0 0 100 100" xml:space="preserve">
<path fill="#CCCCCC" d="M21.981,4.268l1.13-5.179c0,0,2.876,45.481,5.006,49.45C30.246,52.507,63,90.85,63,90.85v9.68
	c0,0-37.948-31.941-39.949-43.751c-2.001-11.809-1.971-33.007-1.874-36.201C21.274,17.383,21.981,4.268,21.981,4.268z"/>
<path fill="#FFFFFF" d="M23.111-1c0,0,1.742,43.344,2.839,49.862c1.746,10.372,37.685,44.934,37.685,44.934s2.323-22.748,0-31.007
	C61.312,54.528,30.08-1,30.08-1H23.111z"/>
</svg>
