<?xml version="1.0" encoding="utf-8"?>
<!-- Generator: Adobe Illustrator 16.0.0, SVG Export Plug-In . SVG Version: 6.00 Build 0)  -->
<!DOCTYPE svg PUBLIC "-//W3C//DTD SVG 1.1//EN" "http://www.w3.org/Graphics/SVG/1.1/DTD/svg11.dtd">
<svg version="1.1" id="Layer_1" xmlns="http://www.w3.org/2000/svg" xmlns:xlink="http://www.w3.org/1999/xlink" x="0px" y="0px"
	 width="200px" height="200px" viewBox="0 0 200 200" enable-background="new 0 0 200 200" xml:space="preserve">
<path fill="#613917" d="M90.3,168.274c0,0-1.131-15.118,0.916-14.138c2.044,0.983-10.903-20.154-8.529-22.595
	c0,0-4.092-1.963,5.163,22.372c1.57,8.127-2.154,16.196-2.154,16.196s-3.552,6.486-2.502-17.972
	c2.388-2.18-7.457-16.741-7.457-16.741s-11.093-8.052-0.62-18.915l0.337-0.331c0.383,2.263,4.736-1.537,4.736-1.537
	s2.297-1.662,4.675-0.581c2.38,1.081,3.244,0.391,3.244,0.391s0.23-0.666,0.27-0.727c-2.713-0.2-2.498-1.625-2.498-1.625
	c0.478-2.031,3.184-3.242,3.184-3.242c1.131-0.763,4.066,1.489,4.066,1.489l-0.663-0.958c-2.582-1.232-1.609-1.868-1.609-1.868
	c6.218-6.017,9.951-3.839,9.951-3.839l-0.453-0.659l-3.453-0.337c-13.518,6.343-12.04,9.365-12.04,9.365
	c-0.071,0.771-0.517,0.296-0.517,0.296c-0.334-0.582-4.176,0.593-4.176,0.593c-2.235,0.079-0.767-1.71-0.767-1.71l3.983-3.923
	c-0.026-5.964,10.25-17.8,10.25-17.8s-3.56,0.84-2.495,1.347c-0.48,0.961-3.422,2.652-3.422,2.652
	c-1.054-5.584,4.974-12.616,4.974-12.616c3.293-3.397,6.096-1.737,6.413-2.606c-1.105-2.076,0.213-2.103,0.213-2.103
	c2.939-0.571,10.717-5.98,10.717-5.98c2.978-1.708,6.992-0.104,6.992-0.104c1.728-0.216,2.188,0.81,2.188,0.81l2.383,4.224
	l-0.021-0.935c-2.299-3.626-1.449-3.425-1.449-3.425c12.967,1.841,12.574,3.102,12.923,3.331c0.349,0.23-0.101-1.146-0.101-1.146
	c0.594,0.734,14.92,2.916,14.129,2.509c-0.793-0.405-0.682-0.812-0.682-0.812l-11.509-2.21c-0.471-0.073-0.085-0.378-0.085-0.378
	l4.421-1.81c-2.962,0.754-2.832-0.44-2.832-0.44c-1.209,3.663-12.879,0.341-12.879,0.341c-1.478-0.18-1.095-0.787-1.095-0.787
	l1.964-1.301l-0.562-0.15l-3.295,1.676l-5.816-0.917c-0.98,0.392-0.826-0.687-0.826-0.687c0.634-1.223,5.878-6.169,5.878-6.169
	s-2.731,1.912-3.19,2.088c-4.396,6.569-7.519,4.578-7.519,4.578c-1.771,4.63-9.306,5.816-9.306,5.816
	c-1.264-0.177-0.684-1.115-0.684-1.115c0.309-1.637,7.532-5.633,7.532-5.633c3.514-2.474,6.242-7.71,6.242-7.71
	c1.251-3.013,7.214-6.209,7.214-6.209c6.146-4.676,25.888-14.089,25.888-14.089c0.551-0.289,0.928-0.131,0.928-0.131
	s3.363,0.762,3.416,0.559c0.059-0.204-0.183-0.469-0.183-0.469c-3.474-0.757-1.411-1.108-1.411-1.108s0.08,0.183,1.355-0.637
	c1.279-0.818,4.479-0.736,4.479-0.736c3.98-0.362,14.43-2.235,15.903-2.566c1.472-0.331,9.974-4.152,9.974-4.152l-4.25,0.436
	c-1.734,1.024-6.344,2.238-6.344,2.238c-1.835,0.451-1.436-0.553-1.436-0.553s-0.084-0.696-3.702,1.091
	c-3.615,1.792-9.095,1.04-9.095,1.04s1.69-2.148,2.086-4.352c0.397-2.208,4.861-4.57,3.896-4.104
	c-0.964,0.468-1.312,0.209-1.312,0.209c-0.086,0.051-1.199,0.06-3.139,3.724c-1.937,3.664-3.301,3.989-3.301,3.989
	c-3.191,2.979-2.707,0.979-2.707,0.979s1.251-2.667,0.405-2.095c-0.849,0.572-0.943,0.455-1.063,0.497
	c-0.119,0.039-1.011,2.385-1.011,2.385c-0.03,1.193-0.735,0.939-0.735,0.939c-1.014-0.566-25.568,13.365-25.568,13.365
	s-0.102-0.919-0.288-0.351c-0.19,0.569-1.031,0.906-1.031,0.906c-1.584,0.337-8.792,5.508-8.792,5.508
	c-7.827,6.243-7.891,9.377-7.891,9.377c-0.225,1.505-4.1,3.193-4.1,3.193c-0.267,0.302-0.589-0.136-0.589-0.136
	c-2.165-4.049,5.819-8.208,5.819-8.208l-1.879,0.17l-3.032,2.171c-1.382-7.067,10.544-18.143,10.056-18.343
	c-0.49-0.199-8.037,7.984-8.037,7.984l-2.477,5.273l-0.759-1.224c0,0-1.378-0.17-0.44,0.254c0.938,0.424,0.729,2.202,0.729,2.202
	c-1.779,4.82-1.385,11.278-1.385,11.278c-2.94,4.842-10.654,8.214-10.654,8.214c-2.452-6.965,4.776-8.764,4.776-8.764l0.355-3.472
	c0,0-0.668-0.362-1.031-0.097c-0.363,0.267,0.148,0.259-1.223,1.964c-1.372,1.705-2.087,1.257-2.087,1.257
	c-1.011-2.059-3.134,0.135-3.134,0.135s-0.815-0.434-0.854,6.735l0.108,6.084c0.001,0.092,0.005,0.184,0.01,0.278
	c0.396,10.847-4.406,18.833-6.459,21.73c-1.375,0.076-2.335,0.34-2.335,0.34c-0.109,0.031-0.213,0.046-0.315,0.059l-0.269-0.513
	l-0.497,0.465c-1.504-0.41-2.209-2.562-2.209-2.562c-0.399-1.736-2.124-4.024-2.124-4.024s-3.597-4.162-7.038-5.878
	c-3.439-1.717-3.308-4.215-3.308-4.215s0.933,0.976,0.903,0.163c-0.029-0.812,1.496-4.219-0.229-2.799
	c-1.723,1.417-3.362-1.787-3.362-1.787c7.32-5.288,8.168-12.348,8.168-12.348c2.897-1.5,5.672-3.937,5.672-3.937
	c0.58-0.525,0.663,0.447,0.663,0.447l0.949-1.415c0.548-0.565,5.81,3.91,5.81,3.91l-0.495-0.741c0,0-4.214-3.256-4.858-4.63
	c-0.647-1.375,0.015-6.098,0.015-6.098l-0.431-0.312l-0.493,6.671c-1.29,2.424-6.458,4.017-6.458,4.017l0.333-4.985l-0.634-0.758
	c0.036,5.565-2.828,10.04-2.828,10.04L61.783,70.2c0,0,0.167,1.599-0.818,1.93c-0.986,0.331,1.758,2.676,1.758,2.676
	c1.305,1.128-3.271,5.055-3.271,5.055c-3.484,3.566-6.184-1.477-6.184-1.477s5.789-6.629,8.385-14.99
	c2.596-8.362,3.883-8.895,3.883-8.895c1.177-1.974,5.335-4.472,3.814-4.077c-0.458,0.343-2.566,0.993-2.566,0.993
	c-0.906-0.512,1.9-4.03,1.9-4.03s1.704-2.307,5.066-3.107c3.359-0.798,8.303-4.499,8.303-4.499c-1.604-0.228,0.65-3.874,0.65-3.874
	c5.91-5.011,9.617-5.84,11.408-5.848c-0.085-0.541-0.163-1.059-0.233-1.536c-2.297-0.46-11.762,6.515-11.762,6.515
	c-0.365-0.998,0.65-6.113,0.65-6.113l-1.653,1.773c1.185,3.896-1.251,8.334-1.251,8.334c-1.659,2.971-9.52,5.388-9.52,5.388
	c-0.949,1.068-1.042-0.177-1.042-0.177s1.016-1.409-0.36-12.193c-0.195-1.527,1.475-4.761,1.475-4.761l-0.667-0.026l-0.932,1.263
	c-0.418,0.31-0.557-0.825-0.557-0.825l0.034-6.675c4.148-3.889,5.827-6.316,5.827-6.316c2.293-2.561,3.299-6.828,2.475-5.594
	c-0.823,1.235-1.55,4.061-3.864,2.374c1.492,4.387-4.368,8.423-4.368,8.423c-0.983,0.68-0.756-0.227-0.756-0.227l0.251-0.786
	c0,0-1.491-2.15-1.839-1.835c-0.347,0.313-0.381,3.285-0.771,3.285c-0.389,0.002-2.113-0.818-2.113-0.818l-0.348,0.313l1.264,0.816
	c4.973,4.176,2.391,10.146,2.391,10.146l-8.723-1.484l-0.231,0.209c1.457,1.76,0,3.707,0,3.707
	c-1.209,2.703-6.335,4.955-6.335,4.955l1.029,0.678c2.482-1.192,4.716-3.141,4.716-3.141l0.532,0.357
	c-0.119-1.707,2.826-4.091,2.826-4.091l3.002,0.362l-1.627,1.891l0.544,0.208l4.637-2.301c2.148,8.478-0.91,14.388-0.91,14.388
	l-1.43,0.174c0,0,2.099,1.317,0.529,3.716c-1.57,2.398-3.646,3.783-3.602,4.444c1.273-0.381,2.115-1.073,2.115-1.073
	s-0.028,0.305-2.665,3.875c-2.635,3.572-3.496,7.427-3.496,7.427c-0.521-0.859-1.864-0.832-2.055-0.311
	c-0.19,0.522,3.812,1.521-4.086,9.918c-7.898,8.396-4.325,6.846-4.325,6.846c4.949-1.885,5.439,0.755,5.439,0.755
	s0.753,3.428,4.016,4.917c3.262,1.491,3.276,3.941,3.276,3.941c2.7,2.161-3.835,0.18-4.943,1.344
	c-1.106,1.164,7.484,1.618,7.484,1.618c2.939-0.355,2.715,4.614,2.715,4.614s3.115,1.293,4.373,6.403
	c1.26,5.106,3.768,3.171,3.768,3.171c0.58-0.695,1.229-1.161,1.931-1.438c-0.439,2.004-1.455,5.006-3.788,7.481
	c-3.884,4.124-7.335,8.397-7.335,8.397c-2.403,3.903-0.015,6.662-0.015,6.662c1.601,2.293,2.975,1.39,2.975,1.39
	c1.103-0.576,2.278,1.271,2.278,1.271c15.713,21.663,11.093,18.813,11.093,18.813s-2.179-0.3-0.999,0.858
	c1.181,1.155,0.606,14.734,0.606,14.734c-0.337,1.512,0.008-0.748-0.661,0.148s-1.437,21.883-1.437,21.883l1.415,2.581
	C79.85,186.091,82.328,176.526,90.3,168.274"/>
</svg>
