<?xml version="1.0" encoding="utf-8"?>
<!-- Generator: Adobe Illustrator 16.0.0, SVG Export Plug-In . SVG Version: 6.00 Build 0)  -->
<!DOCTYPE svg PUBLIC "-//W3C//DTD SVG 1.1//EN" "http://www.w3.org/Graphics/SVG/1.1/DTD/svg11.dtd">
<svg version="1.1" id="Layer_1" xmlns="http://www.w3.org/2000/svg" xmlns:xlink="http://www.w3.org/1999/xlink" x="0px" y="0px"
	 width="1000px" height="1000px" viewBox="0 0 1000 1000" enable-background="new 0 0 1000 1000" xml:space="preserve">
<g>
	<g>
		<path fill="#4454A5" d="M425.661,373.017l-3.005-60.654l68.79,22.011L425.661,373.017z M424.871,315.243l2.687,54.259
			l58.851-34.568L424.871,315.243z"/>
	</g>
	<g>
		<path fill="#4454A5" d="M393.989,402.417l32.097-32.049l62.89-36.941l77.616,54.071L393.989,402.417z M427.248,372.084
			l-27.782,27.782l161.254-13.938l-71.84-50.047L427.248,372.084z"/>
	</g>
	<g>
		<path fill="#4454A5" d="M472.301,393.572l93.088-8.048l-25.012,51.112L472.301,393.572z M561.923,387.901l-83.33,7.204
			l60.94,38.55L561.923,387.901z"/>
	</g>
	<g>
		<path fill="#4454A5" d="M511.444,528.676l-37.707-136.643l65.58,41.512l33.885,33.373L511.444,528.676z M477.157,396.644
			l35.336,128.059l57.771-57.772l-32.318-31.832L477.157,396.644z"/>
	</g>
	<g>
		<path fill="#4454A5" d="M511.946,530.5l-38.208-138.467l66.064,41.791L511.946,530.5z M477.157,396.644l34.833,126.234
			l25.393-88.135L477.157,396.644z"/>
	</g>
	<path fill="#4454A5" d="M537.752,437.296l25.234-51.57l60.031-4.632l5.082,14.682L537.752,437.296z M564.325,387.699
		l-22.164,45.294l83.37-38.315l-3.945-11.398L564.325,387.699z"/>
	<path fill="#4454A5" d="M536.752,433.923l34.392-14.184l1.714,49.742L536.752,433.923z M569.178,422.789l-28.745,11.854
		l30.177,29.723L569.178,422.789z"/>
	<path fill="#4454A5" d="M570.739,468.094l-1.637-47.479l95.764-44.525l28.277,76.379L570.739,468.094z M571.219,421.913
		l1.509,43.841l117.573-15.007l-26.596-71.834L571.219,421.913z"/>
	<path opacity="0.3" fill="#80C7B8" d="M452.948,543.589L239.688,214.156L694.785,366.45L452.948,543.589z M244.637,217.993
		l208.857,322.633l236.845-173.483L244.637,217.993z"/>
</g>
<g>
	<g>
		<polygon fill="#CD4977" points="241.978,445.778 590.111,643.585 632.708,352.206 		"/>
	</g>
	<g>
		<polygon fill="#BA1E57" points="632.708,352.206 726.445,490.914 590.111,643.585 		"/>
	</g>
	<polygon fill="#BA1E57" points="241.978,445.778 590.111,643.585 353.951,598.008 	"/>
</g>
<g>
	<polygon fill="#E16684" points="354.878,242.333 417.429,124.072 444.911,230.57 417.429,265.741 	"/>
	<polygon fill="#F58B7E" points="363.817,103.076 354.878,242.333 417.429,124.072 	"/>
	<polygon fill="#CC6F60" points="354.878,242.333 376.065,284.031 417.429,265.741 	"/>
</g>
</svg>
