<?xml version="1.0" encoding="utf-8"?>
<!-- Generator: Adobe Illustrator 16.0.0, SVG Export Plug-In . SVG Version: 6.00 Build 0)  -->
<!DOCTYPE svg PUBLIC "-//W3C//DTD SVG 1.1//EN" "http://www.w3.org/Graphics/SVG/1.1/DTD/svg11.dtd">
<svg version="1.1" id="Layer_1" xmlns="http://www.w3.org/2000/svg" xmlns:xlink="http://www.w3.org/1999/xlink" x="0px" y="0px"
	 width="1000px" height="1000px" viewBox="0 0 1000 1000" enable-background="new 0 0 1000 1000" xml:space="preserve">
<polygon fill="#3FBCA7" points="332.343,486.445 202.206,473.04 279.422,560.245 "/>
<g>
	<polygon fill="#73CBD3" points="506.887,587.287 663.526,628.002 356.774,32.521 392.082,385.603 	"/>
</g>
<g>
	<polygon fill="#73CBD3" points="506.887,587.287 593.359,491.802 663.526,628.002 	"/>
</g>
<g opacity="0.7">
	<polygon fill="#73CBD3" points="506.887,587.287 412.251,587.287 392.082,385.603 	"/>
</g>
<g>
	<polygon fill="#73CBD3" points="412.251,587.287 699.422,828.763 663.526,628.002 506.887,587.287 	"/>
</g>
<g>
	<polygon fill="#04AEB6" points="412.251,587.287 506.887,587.287 547.673,701.164 	"/>
</g>
<g opacity="0.3">
	<polygon fill="#73CBD3" points="699.422,828.763 585.202,867.926 547.673,701.164 	"/>
</g>
<g opacity="0.5">
	<polygon fill="#73CBD3" points="412.251,587.287 479.961,820.488 547.673,701.164 	"/>
</g>
<g>
	<polygon fill="#73CBD3" points="202.206,749.104 479.961,820.488 412.251,587.287 	"/>
</g>
<g>
	<polygon fill="#73CBD3" points="202.206,749.104 479.961,820.488 395.933,968.564 	"/>
</g>
<g opacity="0.5">
	<polygon fill="#73CBD3" points="584.411,864.401 395.933,968.564 547.673,701.164 	"/>
</g>
<g>
	<polygon fill="#56B2B6" points="392.082,385.603 356.774,32.521 272.599,245.82 	"/>
</g>
<g>
	<polygon fill="#73CBD3" points="272.599,558.857 202.206,749.104 412.251,587.287 	"/>
</g>
<g>
	<polygon fill="#2DB0B9" points="392.082,385.603 272.599,558.857 412.251,587.287 	"/>
</g>
<polygon fill="#B2E0E6" points="593.359,491.802 555.835,285.62 490.174,219.819 449.486,212.494 "/>
<polygon fill="#AFDFE4" points="699.422,828.763 799.45,914.458 785.95,942.255 585.207,867.926 "/>
<polygon fill="#8AD6F7" points="585.202,968.564 655.012,893.772 584.411,864.401 "/>
</svg>
