<?xml version="1.0" encoding="utf-8"?>
<!-- Generator: Adobe Illustrator 16.0.0, SVG Export Plug-In . SVG Version: 6.00 Build 0)  -->
<!DOCTYPE svg PUBLIC "-//W3C//DTD SVG 1.1//EN" "http://www.w3.org/Graphics/SVG/1.1/DTD/svg11.dtd">
<svg version="1.1" id="Layer_1" xmlns="http://www.w3.org/2000/svg" xmlns:xlink="http://www.w3.org/1999/xlink" x="0px" y="0px"
	 width="1000px" height="1000px" viewBox="0 0 1000 1000" enable-background="new 0 0 1000 1000" xml:space="preserve">
<polygon fill="#C6E7EC" points="209.436,529.117 160.157,362.218 187.836,391.629 275.537,544.171 "/>
<polygon fill="#61BCC1" points="304.579,519.735 370.388,436.581 423.808,517.027 392.971,616.14 "/>
<polygon fill="#73CBD3" points="298.082,810.463 209.436,529.117 304.579,519.735 400.864,624.747 "/>
<polygon fill="#69C5B5" points="298.082,810.463 423.808,517.027 953.201,950.638 "/>
<polygon fill="#27AA90" points="424.297,517.878 545.132,494.082 580.485,645.355 "/>
<polygon fill="#A3AACD" points="337.431,305.622 126.826,285.512 204.21,45.794 "/>
<polygon fill="#A5DBE2" points="370.388,436.581 336.267,306.291 415.355,443.851 423.81,517.031 "/>
<polygon fill="#9DD8D8" points="304.579,519.735 292.404,436.098 229.262,463.682 263.799,523.755 "/>
<polygon fill="#C6E7EC" points="126.826,285.512 225.619,369.906 300.219,302.065 "/>
<polygon fill="#9DD8D8" points="370.388,436.581 345.907,389.657 292.404,436.098 304.579,519.735 "/>
<polygon fill="#9FC5D5" points="225.619,369.906 292.404,436.098 345.907,389.657 300.219,302.065 "/>
<polygon fill="#AED3DC" points="292.404,436.098 229.262,463.682 187.836,391.629 225.619,369.906 "/>
</svg>
