<?xml version="1.0" encoding="utf-8"?>
<!-- Generator: Adobe Illustrator 16.0.0, SVG Export Plug-In . SVG Version: 6.00 Build 0)  -->
<!DOCTYPE svg PUBLIC "-//W3C//DTD SVG 1.1//EN" "http://www.w3.org/Graphics/SVG/1.1/DTD/svg11.dtd">
<svg version="1.1" id="Layer_1" xmlns="http://www.w3.org/2000/svg" xmlns:xlink="http://www.w3.org/1999/xlink" x="0px" y="0px"
	 width="100px" height="100px" viewBox="0 0 100 100" enable-background="new 0 0 100 100" xml:space="preserve">
<g>
	<path d="M75.917,4.939l0.041-0.052l0.089-0.2c-0.137-0.309,0.062-0.784,0.328-1.407c-0.071-0.023-0.16,0.01-0.128-0.229
		c0.453-0.976,0.154-0.512,0.232-1.291c-0.069,0.227-0.137,0.517-0.243,0.606l0.353-1.434c-0.197,0.156-0.4,0.27-0.442,0.003
		c-0.324,0.062-0.525-0.492-0.771-0.744c-0.11,0.237-0.209,0.422-0.273,0.504c-0.111-0.066-0.095-0.316-0.028-0.61
		C75.037,0.103,75,0.118,74.958,0.154C75,0.118,75.037,0.103,75.073,0.089c0.044-0.193,0.109-0.405,0.176-0.599
		c-0.07,0.101-0.141,0.201-0.179,0.132l-0.247,0.823c-0.035,0.019-0.051-0.014-0.056-0.069l0.006,0.232l0.123-0.143
		c0.071-0.042,0.074,0.079,0.078,0.199c-0.049,0.225-0.12,0.266-0.189,0.364L74.78,1.505c0.167,0.23,0.477-1.123,0.459-0.347
		l-0.12,0.206c-0.046,0.347-0.18,0.79-0.102,1.057c-0.353,0.252-0.087,1.007-0.445,0.952c-0.069,0.152-0.13,0.313-0.193,0.479
		c-0.07,0.163-0.138,0.331-0.203,0.503c-0.127,0.346-0.258,0.704-0.39,1.062c-0.263,0.715-0.552,1.422-0.959,1.971
		c0.145,0.303,0.599,0.485,0.656,1.129c-0.08,0.091-0.183,0.238-0.213,0.162L73.237,9.1c0.09-0.213,0.184-0.485,0.315-0.556
		c-0.142,0.627,0.305-0.187,0.406-0.086l-0.215,0.849l0.088-0.074c0.346-0.704,0.691-1.409,1.038-2.116
		c0.353-0.708,0.711-1.416,1.045-2.136L75.917,4.939z"/>
	<path d="M61.763,27.612l0.273,0.073c-0.307,1.254-0.641,2.541-1.008,3.89l0.034-0.113c-0.56,1.675-0.721,3.499-0.622,5.261
		c0.093,1.77,0.409,3.498,0.693,5.195c0.286,1.695,0.527,3.374,0.479,5c0.006,0.411-0.066,0.801-0.093,1.203
		c-0.029,0.196-0.073,0.385-0.107,0.578c-0.042,0.188-0.056,0.394-0.127,0.562c-0.198,0.715-0.541,1.39-0.951,2.02
		c-0.452,0.612-0.979,1.188-1.604,1.716c-0.636,0.521-1.317,1.018-2.069,1.483c-1.486,0.946-3.143,1.812-4.786,2.896L51.26,57.79
		l-0.618,0.453l-0.308,0.228l-0.275,0.223l-0.55,0.445c-0.732,0.595-1.449,1.185-2.163,1.788c-1.427,1.203-2.824,2.435-4.172,3.697
		l-0.421-1.051c-2.821,3.43-6.068,7.329-8.033,11.033c0,0,0.285-0.281,0.569-0.563c0.291-0.275,0.581-0.551,0.581-0.551
		c-0.243,0.746-0.877,1.888-1.58,3.091c-0.364,0.592-0.724,1.217-1.103,1.787c-0.358,0.586-0.733,1.121-1.059,1.586l-0.112-0.338
		c1.601-2.691-0.196,0.129-0.12-1.35l0.191-0.537l-0.292,0.193l-0.192,0.539c-0.098-0.14-0.294-0.212-0.052-0.684l-0.437,0.603
		c-1.501,0.938-2.052,0.639-2.659,0.012c-0.136,0.435,0.782,0.454-0.376,1.924l-0.116-0.346c0,0-0.037,0.125-0.092,0.313
		c-0.057,0.188-0.13,0.438-0.193,0.695c-0.13,0.507-0.26,1.014-0.26,1.014s-0.19,0.155-0.367,0.322
		c-0.18,0.167-0.359,0.333-0.359,0.333c-0.082,0.368-0.13,0.677-0.212,0.973c-0.076,0.299-0.178,0.586-0.378,0.908l0.423,0.427
		c-0.742,1.487-1.276,3.312-1.67,5.163c-0.396,1.857-0.635,3.737-0.99,5.413c0.241,0.396,0.126,1.025,0.062,1.811
		c-0.096,0.781-0.132,1.72,0.117,2.655l0.577-0.825c0.095-0.253,0.17-0.545,0.229-0.868c0.073-0.323,0.136-0.678,0.186-1.057
		c0.022-0.189,0.044-0.386,0.068-0.586c0.027-0.2,0.056-0.406,0.085-0.616c0.061-0.42,0.087-0.858,0.161-1.302
		c0.222-1.78,0.612-3.698,1.196-5.177l0.271,0.206c-0.1,0.658,0.052,1.18-0.281,1.933l0.496,0.323
		c0.556-0.225,0.879-0.661,1.073-1.213c0.225-0.544,0.275-1.22,0.353-1.895c0.031-0.339,0.051-0.683,0.067-1.017
		c0.03-0.332,0.06-0.65,0.087-0.941c0.055-0.589,0.164-1.058,0.341-1.284c0.719-0.976,0.832-0.488,0.823,0.084
		c-0.009,0.575-0.145,1.245,0.038,0.729c-0.079,0.651,0.041,0.889,0.231,0.864c0.195-0.025,0.482-0.307,0.83-0.672
		c0.34-0.37,0.719-0.834,1.103-1.231c0.369-0.402,0.725-0.746,0.994-0.894c1.219-0.955,2.479-2.775,3.866-4.714
		c1.368-1.94,2.874-3.989,4.153-5.425c1.631-2.851,4.406-5.521,7.347-7.887c1.471-1.185,2.995-2.311,4.432-3.37
		c0.178-0.131,0.354-0.261,0.529-0.389c0.173-0.127,0.358-0.271,0.497-0.355c0.296-0.195,0.581-0.391,0.91-0.591
		c0.67-0.413,1.312-0.81,1.922-1.186c1.262-0.694,2.813-2.141,4.294-3.688c0.74-0.768,1.434-1.586,2.096-2.29
		c0.328-0.359,0.641-0.709,0.978-0.988c0.311-0.309,0.639-0.565,0.995-0.757c0,0,0.069-0.1,0.162-0.296
		c0.095-0.194,0.229-0.473,0.392-0.807c0.298-0.673,0.638-1.673,0.793-2.559c0.109-0.464,0.156-0.902,0.206-1.318
		c0.023-0.209,0.047-0.411,0.068-0.602c0.009-0.186,0.018-0.361,0.025-0.522c0.014-0.324,0.024-0.595,0.032-0.785
		c-0.001-0.183-0.002-0.288-0.002-0.288l0.328,0.127c-0.106-2.871-0.857-5.376-1.317-7.479c-0.231-1.056-0.426-2.041-0.479-2.924
		c-0.054-0.885,0.01-1.694,0.181-2.467l0.086-0.278c0.157-0.691,0.315-1.367,0.479-2.025c0.276-1.013,0.237-1.742,0.329-2.293
		c0.096-0.55,0.255-0.927,0.842-1.229c0.254-0.471,0.484-0.962,0.697-1.468c0.206-0.514,0.415-1.035,0.626-1.562
		c0.415-1.067,0.777-2.182,1.121-3.306c0.746-2.257,1.408-4.541,2.245-6.546c-0.266-0.101-0.294-0.77-0.759-0.104
		c-0.582,2.169-2.255,4.174-2.993,3.935l0.404-0.72l-1.172,1.086l-0.16,0.96c-0.273,0.143-0.453,0.183-0.569,0.149
		c-0.874,1.386-2.072,2.412-3.134,3.823c-0.114,0.606-0.281,1.234-0.547,1.918c-0.133,0.342-0.29,0.698-0.478,1.072
		C62.215,26.792,61.979,27.177,61.763,27.612z"/>
</g>
</svg>
