<?xml version="1.0" encoding="utf-8"?>
<!-- Generator: Adobe Illustrator 16.0.0, SVG Export Plug-In . SVG Version: 6.00 Build 0)  -->
<!DOCTYPE svg PUBLIC "-//W3C//DTD SVG 1.1//EN" "http://www.w3.org/Graphics/SVG/1.1/DTD/svg11.dtd">
<svg version="1.1" id="Layer_1" xmlns="http://www.w3.org/2000/svg" xmlns:xlink="http://www.w3.org/1999/xlink" x="0px" y="0px"
	 width="1000px" height="1000px" viewBox="0 0 1000 1000" enable-background="new 0 0 1000 1000" xml:space="preserve">
<g>
	<path fill="#999999" d="M864.582,480.188L543.041,294.545c-24.305-14.029-63.743-14.045-87.912,0L135.677,480.193
		c-24.146,14.031-24.017,36.889,0.286,50.92l321.543,185.642c24.326,14.048,63.766,14.032,87.911,0l319.451-185.646
		C889.036,517.063,888.91,494.235,864.582,480.188"/>
</g>
<g>
	<path fill="#999999" d="M1052.347,260.417L858.111,148.275c-14.682-8.475-38.506-8.484-53.105,0L612.032,260.42
		c-14.587,8.476-14.509,22.284,0.173,30.76l194.236,112.142c14.695,8.486,38.52,8.476,53.105,0l192.973-112.144
		C1067.119,282.692,1067.043,268.903,1052.347,260.417"/>
</g>
</svg>
