<?xml version="1.0" encoding="utf-8"?>
<!-- Generator: Adobe Illustrator 16.0.0, SVG Export Plug-In . SVG Version: 6.00 Build 0)  -->
<!DOCTYPE svg PUBLIC "-//W3C//DTD SVG 1.1//EN" "http://www.w3.org/Graphics/SVG/1.1/DTD/svg11.dtd">
<svg version="1.1" id="Layer_1" xmlns="http://www.w3.org/2000/svg" xmlns:xlink="http://www.w3.org/1999/xlink" x="0px" y="0px"
	 width="100px" height="100px" viewBox="0 0 100 100" enable-background="new 0 0 100 100" xml:space="preserve">
<path fill="#267F94" d="M92.851,53.88c-0.862-0.352-6.069-3.684-6.062-3.689c0.504-0.045,1.012-0.094,1.519-0.144
	c-0.315,0.066-4.242-2.313-4.24-2.315c0.362-0.023,1.299-0.537,1.299-0.537c-2.145-2.519-4.188-2.497-4.188-2.497
	c0.355-0.882,2.322-0.705,2.322-0.705c-1.468-1.479-3.475-1.616-3.475-1.616c0.225-0.282,1.502-0.121,1.502-0.121
	c-0.845-0.816-2.579-1.295-2.579-1.295c0.242-0.524,1.415-0.341,1.415-0.341c-1.049-0.783-3.758-0.812-3.758-0.812
	c0.312-0.39,2.417-0.604,2.417-0.604c-1.875-1.516-4.987-1.585-4.987-1.585c0.381-0.602,1.31-0.654,1.31-0.654
	c-0.541-0.539-3.13-1.387-3.13-1.387c0.375-0.171,0.744-0.344,1.118-0.519c-0.623-0.427-3.297-0.398-3.291-0.398
	c0.243-0.235,0.484-0.465,0.73-0.696c-5.95-0.616-11.528-1.052-14.799,4.721l-0.015,0.025c-0.587-0.677-1.032-1.361-1.312-2.053
	c4.411-8.506,10.271-20.385,12.401-25.584c3.501-7.985,9.606-10.751,9.618-10.769c0.008,0.02-8.066,3.469-8.812,3.319
	c-0.007-0.135-7.469,16.513-15.05,31.929c-0.219-0.192-1.016-0.647-2.818-1.162c0.64-3.703-0.792-4.942-2.899-7.291
	c-1.573-1.729-6.618-3.698-6.615-3.704c0,0,0,0,0.45,1.209c-0.101-0.344-1.646-1.405-1.646-1.405s0.143,0.425,0.604,1.583
	c-1.031-1.697-3.583-1.304-3.583-1.304s0.846,0.043,1.19,0.908c-0.402-0.433-3.472-0.771-3.472-0.773
	c0.003,0,0.158,0.364,1.442,1.178c-0.559-0.347-3.678-0.066-3.678-0.072c0.075,0.264,0.155,0.519,0.232,0.78
	c-0.872-0.637-3.294-0.052-3.294-0.052c0.298,0.326,0.599,0.653,0.895,0.978c-0.53-0.221-3.167,0.169-3.167,0.167
	c0.301,0.088,1.822,1.195,1.822,1.195c-0.982-0.68-4.789,0.453-4.508,0.406c0.28-0.051,1.068,1.043,1.075,1.043
	c-0.926-0.47-4.507,0.115-3.904,0.307c0.608,0.186,1.427,0.965,1.43,0.965c-0.651-0.267-3.806-0.212-3.569-0.132
	c0.241,0.075,1.648,0.912,1.648,0.912c-0.565-0.109-3.548-0.201-3.548-0.207c0.249,0.258,0.501,0.516,0.753,0.771
	c-0.972-0.307-4.729,0.513-3.904,0.647c-0.001,0.01,0.036,0.018,0.102,0.022c1.06,0.239,6.132,1.855,6.132,1.844
	c-0.407,0.161-0.819,0.315-1.227,0.47c0.242-0.114,4.311,1.012,4.316,1.006c-0.303,0.105-0.922,0.771-0.922,0.771
	c2.625,1.657,4.36,1.107,4.36,1.107c-0.008,0.854-1.74,1.198-1.74,1.198c1.737,0.912,3.488,0.499,3.488,0.499
	c-0.098,0.298-1.238,0.492-1.238,0.492c0.995,0.485,2.634,0.43,2.634,0.43c-0.028,0.517-1.098,0.671-1.098,0.671
	c0.644,0.224,1.649,0.098,2.415-0.059c0.049,0.101,0.118,0.239,0.208,0.415c-0.107,0.06-0.211,0.116-0.315,0.17
	c-1.217-0.674-2.835-0.256-2.835-0.256s0.814-0.046,1.224,0.74c-0.43-0.367-3.405-0.379-3.405-0.382c0,0,0.183,0.33,1.49,0.972
	c-0.565-0.27-3.537,0.304-3.537,0.298c0.097,0.244,0.195,0.481,0.29,0.72c-0.892-0.514-3.167,0.286-3.167,0.283
	c0.319,0.28,0.636,0.556,0.952,0.837c-0.527-0.154-3.027,0.481-3.027,0.481c0.298,0.052,1.864,0.946,1.864,0.944
	c-1.01-0.543-4.564,0.919-4.302,0.85c0.263-0.074,1.125,0.872,1.125,0.872c-0.928-0.349-4.322,0.58-3.721,0.694
	c0.6,0.121,1.462,0.763,1.462,0.763c-0.647-0.178-3.683,0.206-3.445,0.252c0.243,0.051,1.671,0.69,1.671,0.69
	c-0.556-0.042-3.434,0.181-3.434,0.181c0.264,0.217,0.53,0.43,0.794,0.647c-0.962-0.188-4.506,0.98-3.697,1.026
	c0.802,0.052,6.18,1.106,6.186,1.101c-0.381,0.189-0.763,0.381-1.144,0.572c0.22-0.137,4.248,0.502,4.25,0.494
	c-0.284,0.132-0.814,0.824-0.817,0.824c2.688,1.29,4.303,0.586,4.303,0.59c0.077,0.807-1.554,1.31-1.554,1.31
	c1.752,0.676,3.4,0.106,3.4,0.106c-0.065,0.293-1.146,0.594-1.146,0.594c1,0.356,2.574,0.136,2.574,0.136
	c0.023,0.488-0.986,0.745-0.986,0.745c1.154,0.253,3.315-0.664,3.315-0.664c-0.085,0.407-1.67,1.302-1.673,1.302
	c2.113,0.53,4.626-0.534,4.623-0.534c-0.057,0.595-0.773,0.969-0.776,0.975c0.654,0.224,3.07-0.075,3.07-0.081
	c-0.227,0.274-0.45,0.54-0.68,0.809c0.683,0.103,2.8-0.917,2.8-0.917c-0.097,0.27-0.194,0.539-0.292,0.808
	c4.966-1.734,9.547-3.722,9.538-9.219c0.842,0.239,1.562,0.532,2.155,0.877c-1.856,3.314-3.492,5.968-4.741,7.545
	c-3.019-0.367-7.308,1.459-8.652,2.074c-1.502,0.696-1.823,0.937-1.823,0.937c-1.253,0.023-2.488,0.573-2.126,0.643
	c-4.598,1.198-8.777,6.031-10.053,7.361c-1.261,1.329-1.304,2.053-1.001,1.748c0.307-0.305,0.723-0.185,1.364-0.435
	c-0.148,0.147-2.06,1.684-2.697,3.003c-0.625,1.317-1.107,2.093-1.674,3.486c-0.556,1.385-0.633,1.896-0.759,2.313
	c-0.132,0.426-0.177,1.108,0.212,0.672c-1.112,1.395-0.929,3.205-0.929,3.205c0.264-0.402,0.968-0.699,1.464-1.188
	c0.496-0.485,0.209,0.138-0.1,0.442c-0.444,0.486-0.783,2.276-0.806,2.642c-0.025,0.368-0.132,0.765,0.106,0.534
	c0.238-0.229,1.181-0.62,1.181-0.62c-1.023,0.855-0.545,2.775-0.677,3.244c-0.134,0.472,0.029,0.954,0.29,0.695
	c0.267-0.259,0.611-0.546,0.9-0.831c0.29-0.281-0.074,0.395-0.272,0.803c-1.161,1.862-0.387,2.815-0.383,2.815
	c0.343-0.235,1.06-0.448,1.06-0.448c-0.37,0.751-1.361,3.418-1.361,3.418c0.476,0.171,1.574-0.409,1.574-0.409
	c-1.5,1.354-0.034,3.395-0.032,3.395c0.995-0.377,2.414-1.897,2.414-1.903c-0.138,0.229,0.134,0.946,0.134,0.946
	c1.826-0.31,4.062-2.854,4.056-2.854c0.056,0.354,0.113,0.71,0.17,1.059c1.069-0.216,2.852-1.443,2.852-1.443
	c0.063,0.167,0.126,0.334,0.189,0.498c2.359-0.325,4.039-3.405,4.062-3.531c0.407,0.482-0.155,1.697-0.255,1.944
	c-0.103,0.253-0.074,0.612-0.074,0.612c2.637-1.065,3.018-2.9,3.012-2.9c0.467,0.518,0.075,1.812,0.075,1.812
	c2.009-1.096,2.606-3.263,2.606-3.263c0.358,0.334,0.103,1.642,0.103,1.642c1.45-0.885,2.414-3.086,2.414-3.086
	c0.381,0.298,0.261,1.382,0.261,1.382c1.816-1.439,1.876-3.262,1.876-3.262c0.631,0.351,0.241,1.354,0.419,1.169
	c1.508-1.077,1.477-2.956,1.477-2.956c0.327,0.258,0.26,1.135,0.26,1.135c0.534-0.615,0.818-2.529,0.818-2.529
	c0.187,0.512,0.587,0.642,0.587,0.642c0.379-1.009-0.048-2.854-0.048-2.854c0.318,0.252,0.639,0.491,0.96,0.744
	c0.458-0.67,0.387-3.021,0.381-3.021c1.457-2.028-0.069-7.509-0.066-7.509c0.141-0.057,0.281-0.12,0.421-0.178
	c1.296-2.887-1.028-9.177-2.494-11.141c1.016-1.564,2.92-4.732,4.728-7.764c0.476,0.1,0.972,0.241,1.487,0.424
	c-4.74,4.83-2.524,9.748,0.232,14.765c0.155-0.297,0.311-0.604,0.468-0.903c0,0,0.917,2.378,1.597,2.768
	c0.048-0.396,0.094-0.786,0.141-1.178c0,0,1.82,1.969,2.589,2.227c0,0-0.281-0.826,0.197-1.387c0.002,0,1.224,2.698,3.531,3.725
	c0,0-0.568-1.903-0.275-2.322c0,0,1.049,2.336,2.278,2.926c0,0-0.642-0.935-0.182-1.349c0,0,1.164,1.308,2.358,1.696
	c0,0-0.666-1.024-0.456-1.328c0,0,0.913,1.667,3.058,2.316c0,0-0.969-1.601-0.175-2.254c0.003-0.006,0.774,1.748,4.288,2.523
	c0,0,0.166-0.999,0.037-1.308c-0.002,0,4.097,2.288,4.165,2.562c-0.154-0.437-0.318-0.877-0.476-1.312
	c-0.006,0.01,5.673,2.871,6.426,3.4c0.752,0.531-1.292-3.029-2.316-3.544c0.43,0,0.859-0.006,1.29-0.012
	c-0.003,0.006-2.332-2.235-2.866-2.592c0,0,1.836,0.437,2.093,0.562c0.253,0.133-2.083-2.356-2.82-2.654
	c0,0,1.345,0.028,1.978,0.343c0.636,0.327-1.543-2.906-2.674-3.238c0,0,1.603-0.246,1.773,0c0.173,0.252-1.702-3.558-3.078-3.779
	c0,0,2.17,0.299,2.482,0.459c0,0-1.674-2.327-2.276-2.562c0.525-0.028,1.047-0.053,1.574-0.085c-0.003,0-1.344-2.314-2.583-2.478
	c0.29-0.144,0.582-0.287,0.874-0.437c-0.002,0-1.277-1.528-2.203-2.305c0.849,0.251,1.605,0.433,1.607,0.431
	c0.04-0.299,0.08-0.596,0.114-0.894c0.635,0.978,3.523,1.192,3.523,1.192c-0.175-0.442-0.348-0.885-0.52-1.33
	c0.468,0.417,3.497,0.888,3.497,0.886c-0.289-0.193-1.438-1.854-1.438-1.854c0.757,1.052,5.387,1.085,5.065,1.038
	c-0.327-0.041-0.711-1.435-0.711-1.435c0.784,0.791,4.95,1.262,4.371,0.876c-0.582-0.382-1.146-1.449-1.146-1.449
	c0.59,0.482,4.065,1.345,3.836,1.191c-0.235-0.147-1.42-1.438-1.42-1.438c0.568,0.286,3.796,1.233,3.796,1.228
	c-0.17-0.339-0.339-0.685-0.511-1.018C89.235,54.111,93.713,54.25,92.851,53.88z M38.703,43.63
	c-0.064-0.057-0.142-0.113-0.214-0.169c0.535-0.162,0.958-0.316,0.958-0.316c-0.125,0.266-0.255,0.539-0.381,0.806
	C38.946,43.847,38.826,43.74,38.703,43.63z M31.188,40.906c0.495-0.111,0.847-0.221,0.847-0.221
	c-0.041,0.127-0.23,0.285-0.469,0.443C31.429,41.045,31.301,40.97,31.188,40.906z M42.167,50.218
	c0.248-3.355-1.065-4.463-3.096-6.262c5.296-1.268,10.231-2.86,10.805-8.628c0.967,0.392,1.769,0.837,2.378,1.34
	c-2.564,5.192-5.122,10.19-7.389,14.303C44.531,50.795,43.718,50.489,42.167,50.218z M49.604,45.874
	c0.676-0.987,2.38-4.109,4.489-8.15c0.175,0.266,0.567,0.856,1.438,1.695l-0.025,0.041c-2.411,3.507-1.603,5.388-0.591,8.671
	c0.058,0.188,0.142,0.39,0.237,0.595c-2.883,0.181-4.834,0.474-7.254,3.357l-0.012,0.013c-0.694-0.327-1.226-0.524-1.611-0.638
	C47.666,49.123,48.933,46.984,49.604,45.874z"/>
</svg>
