<?xml version="1.0" encoding="utf-8"?>
<!-- Generator: Adobe Illustrator 16.0.0, SVG Export Plug-In . SVG Version: 6.00 Build 0)  -->
<!DOCTYPE svg PUBLIC "-//W3C//DTD SVG 1.1//EN" "http://www.w3.org/Graphics/SVG/1.1/DTD/svg11.dtd">
<svg version="1.1" id="Layer_1" xmlns="http://www.w3.org/2000/svg" xmlns:xlink="http://www.w3.org/1999/xlink" x="0px" y="0px"
	 width="50px" height="50px" viewBox="0 0 50 50" enable-background="new 0 0 50 50" xml:space="preserve">
<circle cx="24.697" cy="25.896" r="3.365"/>
<g>
	<path fill="#939393" d="M20.355,9.28c0,0-1.974-2.442,1.034-3.962c2.671-1.35,2.671-1.35,3.116-3.508
		c2.867,1.292,4.151,2.158,5.063,6.806c1.115,5.681-6.889,3.404-6.889,3.404L20.355,9.28z"/>
	<path fill="#939393" d="M38.521,36.188c0,0,4.306-0.658,3.252,2.547c-0.936,2.842-2.293,2.826-1.08,4.666
		c-3.734-1.08-5.062,1.742-8.965-0.164c-5.199-2.543,3.215-7.344,3.215-7.344L38.521,36.188z"/>
	<path fill="#939393" d="M21.125,42.154c0,0-1.404,2.906-6,1.762c-1.451-0.361-2.75-0.82-3.985-0.35
		c0.581-2.322-3.091-3.74-1.245-7.674c2.458-5.238,11.229,0.108,11.229,0.108L21.125,42.154L21.125,42.154z"/>
	<path fill="#939393" d="M10.559,21.901c0,0,0.897,2.824-3.747,1.892c-2.396-0.482-2.229-4.134-4.805-5.379
		c2.32-0.601,3.408-4.058,7.744-4.318c5.779-0.346,1.721,6.807,1.721,6.807L10.559,21.901z"/>
	<path fill="#939393" d="M37.787,17.914c0,0,1.55-1.968,4.908-1.658c2.729,0.247,2.64,1.659,4.797,2.104
		c-1.733,1.547,0.011,7.192-5.553,8.022c-5.728,0.854-4.373-5.397-4.373-5.397L37.787,17.914z"/>
</g>
<g>
	<path fill="#231F20" d="M24.698,23.053c0.328,0,0.641,0.057,0.935,0.159c-0.035-3.031-0.162-9.426-0.602-12.946
		c-0.535-4.268-6.629-3.542-9.783-3.126c-3.155,0.417-3.858,0-3.858,0s0.464,1.628-0.333,2.887c-1.11,1.754-2.229,5.646-2.244,7.97
		c-0.023,3.781,8.509,5.671,13.435,6.446C22.747,23.61,23.656,23.053,24.698,23.053z"/>
	<path fill="#231F20" d="M40.279,13.266c-1.227-2.575-0.76-5.092-0.76-5.092s-2.045,0.507-4.307-0.47
		c-3.07-1.329-10.394-0.007-10.102,3.488c0.178,2.103,0.377,8.571,0.473,12.002c0.788,0.257,1.426,0.844,1.746,1.599
		c3.055-1.087,9.438-3.417,12.087-4.79C41.5,18.925,41.646,16.137,40.279,13.266z"/>
	<path fill="#231F20" d="M45.759,28.873c-0.416-2.656-2.489-7.531-6.341-8.87c-2.027,0.974-8.697,3.386-12.166,4.624
		c0.193,0.386,0.309,0.822,0.309,1.287c0,0.763-0.303,1.455-0.791,1.967c1.944,2.814,5.252,7.282,8.03,9.46
		c3.274,2.568,7.14,0.417,8.636-1.446c1.498-1.862,4.729-2.869,4.729-2.869S46.173,31.529,45.759,28.873z"/>
	<path fill="#231F20" d="M34.8,37.34c-2.227-1.994-5.815-6.674-7.946-9.553c-0.523,0.602-1.293,0.984-2.155,0.984
		c-0.625,0-1.2-0.203-1.671-0.545c-1.721,2.34-4.142,5.598-5.796,7.682c-2.589,3.257,1.132,8.275,4.369,9.4
		c2.257,0.789,4.519,2.696,4.519,2.696s1.079-1.733,3.558-2.778C32.152,44.182,35.299,42.238,34.8,37.34z"/>
	<path fill="#231F20" d="M21.838,25.913c0-0.524,0.143-1.014,0.388-1.437c-2.888-0.479-7.339-1.409-10.4-2.949
		C8.109,19.658,4.534,24,4.6,27.428c0.083,4.316-1.847,5.815-1.847,5.815s1.663,0.348,3.987,2.021
		c2.183,1.569,6.115,3.623,8.508,2.904c2.281-1.678,5.641-6.58,7.785-9.936C22.312,27.714,21.838,26.871,21.838,25.913z"/>
</g>
<g>
	<path fill="#C6C6C6" d="M24.599,28.768v3.502c0,0.278,0.225,0.506,0.503,0.506c0.281,0,0.507-0.228,0.507-0.506v-3.65
		c-0.288,0.097-0.592,0.152-0.913,0.152C24.665,28.771,24.63,28.768,24.599,28.768z"/>
	<path fill="#C6C6C6" d="M31.592,26.324l-4.035-0.428c0,0.004,0.004,0.008,0.004,0.017c0,0.487-0.127,0.948-0.344,1.354l4.229,0.443
		c0.314,0.035,0.606-0.248,0.647-0.635C32.133,26.693,31.906,26.355,31.592,26.324z"/>
	<path fill="#C6C6C6" d="M21.843,25.811l-4.021,0.869c-0.31,0.068-0.5,0.428-0.417,0.805c0.08,0.375,0.4,0.627,0.711,0.562
		l4.021-0.869c-0.191-0.381-0.3-0.81-0.3-1.263C21.838,25.878,21.841,25.846,21.843,25.811z"/>
	<path fill="#C6C6C6" d="M22.394,20.257c-0.162-0.273-0.563-0.336-0.895-0.138c-0.332,0.198-0.468,0.58-0.304,0.854l1.647,2.764
		c0.355-0.303,0.782-0.522,1.254-0.621L22.394,20.257z"/>
	<path fill="#C6C6C6" d="M29.249,20.69c-0.278-0.267-0.683-0.294-0.901-0.064l-2.533,2.652c0.439,0.185,0.822,0.48,1.115,0.849
		l2.426-2.536C29.577,21.361,29.529,20.957,29.249,20.69z"/>
</g>
</svg>
