<?xml version="1.0" encoding="utf-8"?>
<!-- Generator: Adobe Illustrator 16.0.0, SVG Export Plug-In . SVG Version: 6.00 Build 0)  -->
<!DOCTYPE svg PUBLIC "-//W3C//DTD SVG 1.1//EN" "http://www.w3.org/Graphics/SVG/1.1/DTD/svg11.dtd">
<svg version="1.1" id="Layer_1" xmlns="http://www.w3.org/2000/svg" xmlns:xlink="http://www.w3.org/1999/xlink" x="0px" y="0px"
	 width="100px" height="100px" viewBox="0 0 100 100" enable-background="new 0 0 100 100" xml:space="preserve">
<g>
	<path fill="#666666" d="M52.649,54.61c0,0,1.443,0.921,1.557-0.349c0.113-1.269-1.964-1.957-2.597-1.033s-0.804,2.538,0.294,3.459
		c1.097,0.92,5.831,3.854,9.165-2.032c3.335-5.887,0.391-7.555-0.012-7.786c-0.404-0.229-1.387-0.861-2.193-0.687
		c-0.808,0.173-2.305,1.156-0.171,0.865c0,0-0.403,0.519,0.52,0.633c0.923,0.114,1.903,0.343,2.192,0.804
		c0.289,0.46-0.52-0.634-0.865,0.058c-0.345,0.693,0.348,1.038,0.637,1.383s-0.751-0.921-1.326-0.401
		c-0.576,0.52-0.056,1.211,0.291,1.557c0.345,0.344,0.576,0.633,0.461,0.863c-0.113,0.23-0.346-0.634-0.922-0.402
		c-0.577,0.231-0.229,0.981,0.06,1.441c0.289,0.461-0.571,3.231-2.59,3.58c-2.017,0.35-4.785-0.05-4.499-1.724"/>
	<path fill="#666666" d="M48.322,54.083c0,0-1.44,0.926-1.558-0.344c-0.118-1.268,1.958-1.963,2.593-1.041
		c0.636,0.921,0.811,2.535-0.283,3.46c-1.094,0.924-5.817,3.872-9.172-2.004c-3.353-5.876-0.416-7.553-0.013-7.784
		c0.404-0.231,1.383-0.867,2.19-0.696c0.808,0.172,2.309,1.15,0.175,0.865c0,0,0.404,0.518-0.518,0.635
		c-0.922,0.117-1.902,0.35-2.19,0.811c-0.287,0.462,0.518-0.635,0.866,0.057c0.347,0.691-0.344,1.039-0.632,1.384
		c-0.288,0.347,0.748-0.924,1.325-0.405c0.578,0.519,0.06,1.211-0.286,1.557c-0.345,0.347-0.576,0.636-0.459,0.866
		c0.115,0.23,0.344-0.635,0.921-0.405c0.578,0.229,0.232,0.98-0.056,1.441c-0.287,0.462,0.582,3.229,2.602,3.571
		c2.019,0.344,4.785-0.064,4.494-1.736"/>
</g>
<g>
	<path fill="#B3B3B3" d="M98.667,27.991c0,0-0.455-0.605-0.986-0.908c0,0-0.302,1.062-0.604,1.29
		c-0.303,0.228-0.756,1.518-0.604,2.199c0.154,0.683-0.451,1.138-0.528,1.365c-0.074,0.228,0.15-1.44-0.229-1.515
		c-0.379-0.076-0.907,1.29-0.98,2.199c-0.075,0.91-0.605,1.441-0.983,1.669c-0.378,0.229-1.817,1.368-2.196,1.444
		c-0.379,0.077-1.138-0.529-0.987-0.983c0.151-0.456,3.255-2.431,3.481-3.493c0.226-1.062-0.38-0.302-0.606-0.226
		c-0.228,0.076,3.48-4.023,2.188-5.764c0,0-0.151-0.303-0.683-0.075c0,0-0.765-3.941-3.416-3.103
		c-2.651,0.838-4.238,3.873-0.9,5.459c0,0,1.138-0.002,1.136-0.836s0.227-0.986-0.834-0.529c0,0,0.226-0.531-0.153-0.531
		c-0.379,0.001,1.137-0.229,0.453-0.91c-0.683-0.681,0.149-1.273,0.604-0.895C92.294,24.227,92.067,25,93.053,25
		c0.041,0,0.067,0,0.097,0c-0.365,0-1.316-0.04-0.322,0.743c1.442,1.135-1.129,5.337-1.962,5.491c0,0,0.526-2.563-0.231-2.94
		c-0.76-0.378-0.675,4.973-4.465,5.282c0,0,2.495-4.264-0.691-5.775c0,0-2.656-1.519-3.41,0.681c0,0-0.815,3.09,1.729,2.455
		c0,0,1.321-0.636,0.077-1.245c-1.244-0.61-0.318-1.284-0.062-1.303c0.258-0.021-0.432,1.025,0.378,0.946
		c0.81-0.081,0.946-0.101,0.888-0.377c-0.061-0.276,2.226,2.311-0.618,4.374c-2.844,2.063-9.141,1.953-10.684,2.712
		s-4.357,1.793-4.295,2.398c0.062,0.606-4.236,2.218-4.799,9.667c-0.376,4.959-0.367,6.154-0.229,6.493
		c-0.479,1.954-2.693,3.043-2.805,2.769c-0.11-0.277-0.116-3.44-6.159-0.323c-6.043,3.116-3.203,9.66-2.146,10.656
		c1.056,0.997,4.445,3.544,7.271,1.71c2.827-1.837,1.938-3.333,1.324-4.331c-0.61-0.998-3.329-0.326-2.716,1.225
		c0.612,1.554,2.164,0.164,2.108,0.386c-0.055,0.222-0.717,2.553-3.049,1.447c-2.333-1.105-1.727-3.825-0.452-5.271
		c1.272-1.444-0.447-1.664-0.447-1.664c2.272-1.502,3.536,0.047,3.536,0.047c1.215,0.519,1.333,1.443,2.49,1.384
		c1.155-0.059,0.402-1.735,0.402-1.735c0.402-0.694-0.929-1.561-0.696-1.503c0.229,0.057,1.619,0.402,1.91,1.789
		c0.292,1.389,1.101,0.577,1.101,0.577c0.581,1.907,1.678,0.229,1.678,0.229s0.288-0.753,0.058,0.289
		c-0.229,1.041,0.58,1.097,0.87,1.154c0.289,0.058,0.868,0.23,0.29,0.521s0.521,0.289,0.116,0.464
		c-0.405,0.173,0.116,0.346,0.116,0.346c1.446-0.176,0.807-2.488,0.807-2.488c0.306,0.055,0.449-0.024,0.518-0.121
		c-0.073,0.285-0.15,0.622,0.175-0.401c0.461-1.446-1.392-1.849-0.986-2.08c0.404-0.232-0.697-1.444-0.407-1.329
		c0.288,0.115,0.176,1.203,0.574,0.123c1.324,0.332,3.045,0.272,3.903-1.799c1.511-3.641-1.899-2.649-2.506-2.8
		c-0.606-0.151,0.604-1.139-1.367-0.833c-1.969,0.307-0.007-4.927,0.371-5.08c0.38-0.152,1.517-0.002,0.454-0.834
		c-1.062-0.833,1.82,0.451,2.502-0.156c0.68-0.607,0.225-1.365-0.609-1.288s1.06-0.684-0.759-0.908
		c-0.249-0.031-0.375-0.06-0.419-0.089l0.058-0.071c0.489-0.149,3.033-0.281,3.544-0.452c0.681-0.229,2.274,0.072,0.907-1.063
		c-1.366-1.133,2.2,0.83,1.819-0.306c-0.381-1.137,1.668,0.679,1.438-0.533c-0.229-1.212,4.17,0.523,3.793,1.509
		c0,0-1.745-1.209-1.741,1.444c0,0,0.079,1.439,2.124,0.829c0,0,3.105-1.444-0.158-3.941c0,0-0.835-0.68-1.214-0.755
		s1.896-0.155,2.122-0.004c0.228,0.151,0.078,1.365,1.594,1.135c0,0,0.912,1.136,0.534,1.817c-0.378,0.683-0.832,1.064-0.149,1.365
		c0.682,0.302,0.229,0.985,1.139,0.833c0.909-0.154,0.986,0.68,1.591-0.004c0.605-0.682,1.062,0.833,1.516-0.078
		c0.454-0.91,0.761,1.211,1.516-0.685c0.755-1.896,0.756-1.669-0.004-1.895c-0.758-0.226,2.045-1.216,0.301-1.819
		c0,0-0.384-2.804-1.444-2.424c0,0-0.149,1.516-0.982,1.669c-0.833,0.153-1.971-0.603-2.276-0.906
		c-0.303-0.302,0.227-1.061-0.683-1.363c-0.028-0.009-0.066-0.018-0.112-0.025c0.115-0.287,0.172-0.825-0.859-1.095
		c-1.44-0.376,0.834-0.077-2.2-0.981c0,0,3.337,0.676,3.792,0.676c0.454-0.001,1.137,0.149,0.604-0.835
		c-0.532-0.984,1.822,1.741,2.123-0.003c0,0,1.139,0.756,1.667-0.079c0,0,6.363-2.663,8.022-8.124
		C99.882,28.52,100.862,26.017,98.667,27.991z M68.462,48.757l0.055,0.341c0,0-1.361,1.669-0.221,4.094l-0.949,0.783l-0.392-0.314
		C66.647,52.504,66.099,49.938,68.462,48.757z M69.513,55.844c0.606-0.381,0.382,1.817,1.44-0.079c0,0,0.987,0.832,1.592,0.073
		c0,0,0.303,2.047-2.695,1.247c-0.151-0.44-0.373-0.842-0.532-1.102C69.372,55.938,69.436,55.892,69.513,55.844z"/>
	<path fill="#B3B3B3" d="M44.666,56.212c-6.054-3.097-6.048,0.065-6.158,0.344c-0.11,0.274-2.33-0.809-2.812-2.761
		c0.135-0.341,0.14-1.54-0.252-6.491c-0.586-7.447-4.888-9.044-4.829-9.651c0.06-0.606-2.758-1.63-4.303-2.384
		c-1.546-0.755-7.843-0.624-10.693-2.678c-2.849-2.054-0.572-4.648-0.631-4.372c-0.059,0.276,0.079,0.296,0.888,0.374
		c0.81,0.078,0.118-0.967,0.375-0.948c0.256,0.019,1.185,0.688-0.058,1.302s0.081,1.243,0.081,1.243
		c2.546,0.628,1.721-2.465,1.721-2.465c-0.762-2.197-3.413-0.676-3.413-0.676c-3.182,1.521-0.673,5.762-0.673,5.762
		c-3.791-0.298-3.723-5.68-4.48-5.299c-0.758,0.38-0.224,2.881-0.224,2.881c-0.834-0.15-3.418-4.367-1.979-5.507
		C8.224,24.096,7.252,24,6.894,24c0.03,0,0.059,0,0.103,0c0.985,0,0.757-0.631,1.211-1.01c0.453-0.38,1.289,0.404,0.608,1.086
		c-0.68,0.683,0.836,0.883,0.456,0.884c-0.378,0-0.15,0.518-0.15,0.518c-1.062-0.453-0.834-0.308-0.833,0.526
		c0.001,0.833,1.138,0.829,1.138,0.829c3.333-1.597,1.736-4.629-0.918-5.458c-2.655-0.83-3.406,3.113-3.406,3.113
		c-0.531-0.227-0.682,0.077-0.682,0.077c-1.286,1.746,2.434,5.832,2.207,5.757s-0.835-0.832-0.605,0.228
		c0.229,1.062,3.339,3.027,3.492,3.481c0.152,0.455-0.604,1.062-0.984,0.987c-0.378-0.075-1.821-1.21-2.2-1.437
		c-0.379-0.227-0.912-0.756-0.988-1.666c-0.078-0.91-0.61-2.273-0.99-2.197c-0.378,0.077-0.148,1.744-0.225,1.517
		c-0.076-0.228-0.684-0.681-0.532-1.364c0.15-0.682-0.307-1.971-0.611-2.197c-0.303-0.227-0.608-1.287-0.608-1.287
		c-0.53,0.304-0.984,0.91-0.984,0.91C-0.809,25.331,0.18,27.83,0.18,27.83c1.676,5.455,8.048,8.098,8.048,8.098
		c0.532,0.833,1.668,0.074,1.668,0.074c0.305,1.743,2.65-0.991,2.122-0.004c-0.529,0.986,0.154,0.834,0.608,0.833
		c0.455-0.001,3.789-0.689,3.789-0.689c-3.03,0.915-0.757,0.608-2.196,0.989c-1.03,0.273-0.971,0.812-0.855,1.098
		c-0.046,0.008-0.084,0.016-0.111,0.025c-0.91,0.304-0.377,1.062-0.68,1.366c-0.303,0.304-1.438,1.063-2.273,0.914
		c-0.833-0.15-0.987-1.667-0.987-1.667c-1.062-0.377-1.436,2.428-1.436,2.428c-1.743,0.609,1.063,1.591,0.306,1.819
		c-0.758,0.229-0.758,0.001,0.002,1.895c0.761,1.894,1.062-0.229,1.517,0.68c0.457,0.909,0.91-0.608,1.516,0.073
		c0.608,0.682,0.683-0.152,1.592-0.003c0.911,0.15,0.455-0.531,1.137-0.835c0.681-0.304,0.226-0.683-0.155-1.364
		c-0.379-0.682,0.528-1.82,0.528-1.82c1.516,0.225,1.364-0.987,1.59-1.139c0.228-0.152,2.501-0.08,2.123-0.004
		c-0.378,0.077-1.211,0.761-1.211,0.761c-3.255,2.506-0.146,3.942-0.146,3.942c2.048,0.603,2.122-0.838,2.122-0.838
		c-0.004-2.653-1.745-1.437-1.745-1.437c-0.381-0.985,4.013-2.736,3.787-1.522c-0.225,1.213,1.819-0.609,1.441,0.528
		s3.182-0.84,1.82,0.299c-1.364,1.14,0.228,0.834,0.911,1.06c0.51,0.169,3.054,0.293,3.544,0.441l0.058,0.071
		c-0.044,0.028-0.17,0.058-0.418,0.089c-1.819,0.23,0.078,0.985-0.757,0.911c-0.833-0.073-1.287,0.685-0.604,1.29
		c0.684,0.605,3.562-0.688,2.501,0.148c-1.06,0.835,0.077,0.681,0.456,0.833c0.38,0.15,2.358,5.378,0.387,5.078
		c-1.972-0.301-0.757,0.684-1.364,0.836c-0.605,0.152-4.019-0.827-2.496,2.809c0.866,2.068,2.585,2.123,3.908,1.786
		c0.401,1.081,0.286-0.009,0.574-0.125c0.289-0.116-0.808,1.101-0.403,1.332c0.406,0.229-1.445,0.638-0.98,2.083
		c0.33,1.022,0.251,0.686,0.177,0.4c0.069,0.097,0.212,0.176,0.519,0.12c0,0-0.632,2.313,0.813,2.485c0,0,0.52-0.175,0.115-0.348
		c-0.405-0.173,0.694-0.174,0.115-0.463c-0.579-0.289-0.001-0.463,0.288-0.521c0.29-0.059,1.099-0.117,0.866-1.158
		c-0.232-1.04,0.058-0.288,0.058-0.288s1.103,1.675,1.677-0.236c0,0,0.811,0.811,1.098-0.579c0.288-1.388,1.674-1.737,1.906-1.796
		c0.231-0.059-1.098,0.812-0.692,1.504c0,0-0.75,1.681,0.407,1.735c1.157,0.056,1.272-0.87,2.485-1.392c0,0,1.258-1.553,3.535-0.058
		c0,0-1.718,0.224-0.44,1.665c1.278,1.44,1.894,4.158-0.435,5.271c-2.33,1.114-3-1.216-3.055-1.438
		c-0.056-0.222,1.5,1.162,2.108-0.391c0.607-1.555-2.112-2.217-2.721-1.217c-0.608,1-1.495,2.499,1.338,4.325
		c2.833,1.826,6.214-0.731,7.267-1.732C47.9,65.862,50.72,59.311,44.666,56.212z M33.188,52.866l-0.39,0.314l-0.952-0.782
		c1.132-2.426-0.234-4.092-0.234-4.092l0.054-0.34C34.032,49.14,33.491,51.709,33.188,52.866z M27.605,55.06
		c0.608,0.757,1.592-0.079,1.592-0.079c1.064,1.895,0.833-0.304,1.44,0.075c0.077,0.048,0.141,0.095,0.196,0.14
		c-0.158,0.26-0.378,0.662-0.528,1.102C27.309,57.108,27.605,55.06,27.605,55.06z"/>
</g>
<path fill="#999999" d="M49.422,55.308c0,0,1.267-0.521,1.96,0.055c0.694,0.575,5.311,2.817,1.795,4.438c0,0-1.499,0.06-1.443-1.267
	s0.118,1.672-1.266,1.905c0,0-1.094,0.348-1.214-2.189c0,0-0.344,1.558-1.555,1.329c-1.211-0.229-1.907-2.534-1.907-2.534
	l1.613-0.811L49.422,55.308z"/>
<g>
	<path fill="#4D4D4D" d="M52.013,53.17c0,0,0.171-1.615-1.271-1.67c-1.441-0.056-1.498,1.04-1.439,1.386
		c0.059,0.347-2.075,0.869-2.075,0.869l-0.345,0.403c0,0-1.151,0.81-1.671,0.464c-0.52-0.344-0.347-0.287-0.174-0.402
		c0.173-0.116-2.479,0.35-1.616-0.862c0,0-1.673-0.459-0.579-1.325c0,0-0.346-0.692,0.865-1.04c1.209-0.347,0.173,0,0.173,0
		l0.633-0.174c0,0-2.883-0.457-1.848-2.073c0,0-0.638-1.441,0.688-1.442c0,0,0.632-1.732,2.135,0.285
		c1.502,2.015,0.058,0.172,0.058,0.172s0.404,0.634,0.808,0.749c0.404,0.114-0.867-1.498-1.213-1.669
		c-0.347-0.174-0.464-1.557,0.056-1.328c0.519,0.23,0.115,0.173,0.115,0.173s-0.578-1.382,0.172-1.499
		c0.749-0.117,0.749-0.059,1.154,0.344c0,0,0.574-1.04,1.037,0.286c0,0,0.579,1.152,0.811,1.671s-0.468-4.612,1.436-3.635
		l0.172-0.923l0.979-0.289l0.982,0.632c0,0,0.116,0.404,0.116,0.693c0.001,0.288,1.036-0.925,1.101,3.4c0,0,1.264-3.001,1.785-1.214
		c0,0,0.921-1.04,1.326-0.06c0,0,0.348,0.749-0.056,1.153c-0.402,0.405,0.058,0.173,0.058,0.173s0.463,0.864-1.093,1.904
		c0,0,2.765-1.965,2.596-0.12c0,0,1.268-0.348,0.866,1.094c0,0,0.406,1.729-2.13,1.907c0,0,2.019,0.342,1.616,1.495
		c0,0,0.694,1.211-0.574,1.154c0,0,0.176,1.384-0.921,1.155c-1.096-0.229-0.634,0.002-0.865-0.113c0,0-0.288,0.633-1.961-0.574
		C52.243,53.111,52.013,53.17,52.013,53.17z"/>
	<path fill="#4D4D4D" d="M51.511,68.594c0,0,4.824-2.282,6.382,0.433c1.558,2.717-2.05,1.503-2.272,1.392
		c-0.222-0.109-0.609,1.056-1.719,0.558c-1.111-0.497,2.442,0.718,1.444,1.495c0,0,0.391,0.722-0.054,0.999
		c-0.443,0.278-0.999,0.28-1.055-0.164c-0.056-0.445,0.002,1.165-1.331-0.054c0,0,0.612,1.275-0.442,1.055
		c-1.056-0.22-0.778-0.608-0.778-0.608s0.447,2.052-0.664,1c0,0,0.003,1.72-1.273,1.666c-1.278-0.054-1.611-0.607-1.614-2.05
		c0,0-1.107,0.89-0.501-0.721c0,0-2.105,1.558-1.167-0.887c0,0-1.44,0.947-1.609,0.058c-0.167-0.887-0.111-0.165-0.111-0.165
		s-1.997,0.281-0.447-1.497c0,0-0.111-0.334,0.667-0.223c0.776,0.108,1.163-0.613,1.163-0.613s-1.496,0.946-1.887-0.718
		c0,0-2.331,0.281-1.889-1.551c0,0,0.886-1.056,1.552-0.668c0.667,0.387,2.607-1.17,4.831,1.379c0,0-1.058-2.273,0.551-2.442
		c0,0,0.219-2.387,0.774-2.109c0,0,0.887-0.224,0.891,2.162C50.952,66.319,52.173,66.429,51.511,68.594z"/>
</g>
</svg>
