<?xml version="1.0" encoding="utf-8"?>
<!-- Generator: Adobe Illustrator 16.0.0, SVG Export Plug-In . SVG Version: 6.00 Build 0)  -->
<!DOCTYPE svg PUBLIC "-//W3C//DTD SVG 1.1//EN" "http://www.w3.org/Graphics/SVG/1.1/DTD/svg11.dtd">
<svg version="1.1" id="Layer_1" xmlns="http://www.w3.org/2000/svg" xmlns:xlink="http://www.w3.org/1999/xlink" x="0px" y="0px"
	 width="100px" height="100px" viewBox="0 0 100 100" enable-background="new 0 0 100 100" xml:space="preserve">
<g>
	<path fill="#202020" d="M40.067,100.477c0,0.032,0,0.045-0.032,0.087c-0.185,0.302-0.663,0.718-1.245,0.026
		c-0.011-0.012-0.049-0.072-0.055-0.103c-0.005-0.527-0.014-1.056-0.035-1.589l-0.106-2.854c-0.049-1.516-0.08-3.046,0.018-4.588
		c0.028-0.386,0.07-0.771,0.105-1.157l0.028-0.29l0.13-0.017C38.874,90.025,39,89.904,39,90.065v-0.011l-0.126-0.04l-0.059-0.082
		l-0.022-0.164c0.007-0.223,0.024-0.43,0.062-0.635c0.147-0.819,0.398-1.537,0.539-2.216l0,0c0.025-0.188,0.073-0.386,0.078-0.565
		l0.017-0.272c0.004-0.092-0.01-0.191-0.013-0.288c-0.006-0.192-0.019-0.387-0.056-0.581c-0.026-0.196-0.056-0.392-0.108-0.588
		c-0.176-0.782-0.468-1.563-0.797-2.342c-0.656-1.562-1.488-3.124-1.979-4.895c-0.068-0.218-0.117-0.445-0.163-0.674l-0.07-0.341
		l-0.046-0.35l-0.044-0.35l-0.009-0.132c-0.007-0.028-0.005-0.053-0.017-0.085c-0.031-0.126-0.102-0.288-0.195-0.487
		c-0.091-0.201-0.208-0.444-0.27-0.769c-0.076-0.312,0-0.762,0.119-0.997l0.165-0.363c0.055-0.122,0.136-0.218,0.203-0.328
		c0.136-0.224,0.296-0.402,0.454-0.586c0.639-0.716,1.354-1.268,2.077-1.791c0.724-0.518,1.465-0.993,2.206-1.455h0l1.558-0.958
		c0.253-0.16,0.511-0.319,0.753-0.481c0.127-0.083,0.243-0.162,0.352-0.24c0.111-0.073,0.225-0.163,0.339-0.262
		c0.911-0.763,1.865-1.541,2.556-2.396c0.338-0.431,0.593-0.887,0.748-1.39c0.157-0.503,0.221-1.053,0.241-1.621
		c0.006-0.577-0.014-1.152-0.074-1.759c-0.052-0.601-0.076-1.222-0.115-1.832l-0.107-1.837c-0.027-0.614-0.036-1.229-0.055-1.845
		l-0.049-1.846c0-0.61,0.001-1.224,0.018-1.849c0.031-1.246,0.198-2.562,0.604-3.786l0.333-0.91l0.372-0.846l0.352-0.828
		l0.313-0.822c0.387-1.094,0.567-2.202,0.487-3.332l-0.095-0.899c-0.038-0.286-0.052-0.565-0.109-0.856
		c-0.088-0.573-0.226-1.16-0.353-1.758c-0.127-0.602-0.257-1.218-0.333-1.857l-0.056-0.48c-0.014-0.163-0.016-0.331-0.024-0.496
		c-0.029-0.336,0.006-0.654,0.035-0.976c0.095-1.289,0.361-2.502,0.63-3.702c0.271-1.2,0.562-2.37,0.747-3.539
		c0.04-0.291,0.105-0.586,0.126-0.872l0.076-0.861c0.021-0.287-0.014-0.565-0.017-0.848c-0.021-0.288-0.055-0.583-0.083-0.875
		c-0.144-1.177-0.38-2.39-0.466-3.662c-0.012-0.32-0.048-0.637-0.032-0.96c0.006-0.318,0.01-0.651,0.024-0.938l0.056-1.812h0
		c0.069-2.14,0.137-4.464,0.553-6.719c0.057-0.282,0.106-0.566,0.183-0.848L50.54,6.46l0.132-0.423
		c0.172-0.561,0.419-1.124,0.749-1.661c0.342-0.543,0.805-0.997,1.292-1.375c0.251-0.178,0.504-0.353,0.766-0.495l0.193-0.113
		l0.038-0.019l0.035-0.018c0.369-0.193,0.741-0.366,1.107-0.525c0,0,0.476-0.167,1.119-0.391c0.634-0.219,1.392-0.52,1.962-0.876
		c0.48-0.306,0.754-0.573,0.935-0.714c0.188-0.139,0.276-0.157,0.298-0.07c0.019,0.086-0.042,0.276-0.16,0.537
		c-0.138,0.246-0.345,0.562-0.637,0.842c0.086-0.033-0.642,0.628-1.484,1.087c-0.414,0.236-0.833,0.447-1.144,0.606
		c-0.307,0.156-0.511,0.262-0.511,0.262l-0.479,0.22l-0.229,0.116l-0.115,0.058L54.35,3.537L54.32,3.552l-0.305,0.177
		c-0.211,0.112-0.383,0.255-0.572,0.383c-0.166,0.148-0.35,0.28-0.486,0.448c-0.312,0.307-0.521,0.687-0.726,1.096
		c-0.374,0.845-0.599,1.811-0.76,2.786c-0.316,1.963-0.389,3.997-0.447,6.037v0l-0.058,1.84c-0.016,0.322-0.016,0.593-0.023,0.885
		c-0.016,0.287,0.019,0.578,0.028,0.868c0.078,1.164,0.306,2.35,0.459,3.594c0.031,0.315,0.065,0.626,0.09,0.947
		c0.005,0.326,0.041,0.658,0.019,0.979l-0.084,0.962c-0.025,0.322-0.091,0.624-0.134,0.938c-0.197,1.241-0.497,2.441-0.763,3.619
		c-0.266,1.177-0.519,2.357-0.6,3.502c-0.027,0.287-0.061,0.576-0.033,0.849c0.008,0.14,0.008,0.276,0.02,0.417l0.05,0.428
		c0.068,0.572,0.189,1.151,0.314,1.742c0.125,0.594,0.268,1.195,0.366,1.828c0.061,0.309,0.082,0.639,0.122,0.958l0.097,0.919
		c0.098,1.307-0.128,2.655-0.559,3.857L50,44.499l-0.364,0.856l-0.364,0.829l-0.294,0.808c-0.361,1.097-0.507,2.224-0.539,3.413
		c-0.016,0.595-0.018,1.201-0.017,1.809l0.048,1.812c0.019,0.604,0.027,1.208,0.053,1.812l0.106,1.814
		c0.039,0.607,0.062,1.205,0.114,1.82c0.06,0.606,0.085,1.251,0.077,1.894c-0.023,0.649-0.095,1.322-0.302,1.985
		c-0.203,0.664-0.556,1.29-0.972,1.815c-0.853,1.043-1.815,1.805-2.768,2.608c-0.221,0.195-0.539,0.407-0.788,0.573
		c-0.264,0.177-0.525,0.338-0.787,0.502l-1.558,0.959v0.001c-0.73,0.453-1.448,0.914-2.132,1.404
		c-0.679,0.489-1.34,1.012-1.854,1.59c-0.124,0.146-0.255,0.29-0.342,0.439c-0.044,0.075-0.108,0.146-0.14,0.223l-0.101,0.229
		c-0.065,0.155-0.061,0.154-0.047,0.268c0.019,0.103,0.081,0.259,0.17,0.449c0.088,0.195,0.202,0.426,0.277,0.724
		c0.021,0.069,0.031,0.155,0.045,0.232c0.007,0.041,0.008,0.084,0.011,0.126l0.003,0.064l0.002,0.031l0.232,0.017
		C37.771,75.62,38,75.505,38,75.556v0.005v0.295v0.294l-0.131,0.295c0.039,0.197-0.016,0.394,0.045,0.59
		c0.434,1.577,1.185,3.102,1.875,4.728c0.343,0.815,0.641,1.663,0.845,2.57c0.059,0.225,0.083,0.457,0.115,0.692
		c0.042,0.23,0.053,0.47,0.061,0.709c0.004,0.121,0.014,0.237,0.009,0.362l-0.024,0.376c-0.012,0.252-0.071,0.479-0.106,0.719l0,0
		c-0.171,0.798-0.424,1.507-0.54,2.175c-0.031,0.165-0.058,0.33-0.06,0.486l-0.022,0.322l-0.026,0.274
		c-0.033,0.365-0.074,0.728-0.1,1.095c-0.093,1.469-0.064,2.958-0.016,4.456l0.107,2.857
		C40.053,99.393,40.062,99.934,40.067,100.477z"/>
</g>
</svg>
