<?xml version="1.0" encoding="utf-8"?>
<!-- Generator: Adobe Illustrator 16.0.0, SVG Export Plug-In . SVG Version: 6.00 Build 0)  -->
<!DOCTYPE svg PUBLIC "-//W3C//DTD SVG 1.1//EN" "http://www.w3.org/Graphics/SVG/1.1/DTD/svg11.dtd">
<svg version="1.1" id="Layer_1" xmlns="http://www.w3.org/2000/svg" xmlns:xlink="http://www.w3.org/1999/xlink" x="0px" y="0px"
	 width="100px" height="100px" viewBox="0 0 100 100" enable-background="new 0 0 100 100" xml:space="preserve">
<g>
	<path fill="#A9A9A9" d="M19.853,83.074c-0.152-2.096-0.562-4.644-0.081-7.466c0.078-0.467,0.155-0.933,0.233-1.397
		c0.071-0.466,0.206-0.929,0.308-1.391c0.185-0.918,0.527-1.858,0.82-2.781c0.078-0.232,0.197-0.464,0.295-0.693
		c0.103-0.233,0.207-0.463,0.32-0.675l0.334-0.651l0.371-0.64c0.514-0.844,1.104-1.658,1.784-2.407
		c1.363-1.504,3.108-2.675,4.912-3.419c1.808-0.76,3.639-1.134,5.398-1.392c1.763-0.25,3.474-0.371,5.146-0.481
		c1.673-0.107,3.309-0.204,4.919-0.343c3.417-0.288,6.702-0.303,9.951-0.446c3.245-0.134,6.453-0.346,9.582-0.86
		c1.562-0.26,3.103-0.599,4.589-1.062c1.482-0.465,2.921-1.045,4.217-1.826c1.296-0.779,2.455-1.747,3.374-2.918
		c0.125-0.14,0.229-0.294,0.33-0.45l0.314-0.463c0.198-0.326,0.376-0.678,0.566-1.019c0.391-0.71,0.683-1.385,0.919-2.109
		c0.438-1.443,0.566-2.995,0.331-4.551c-0.213-1.56-0.765-3.106-1.487-4.597c-0.988-1.954-2.27-3.744-3.644-5.396
		c-0.688-0.826-1.404-1.619-2.135-2.382c-0.366-0.381-0.733-0.757-1.104-1.125c-0.484-0.472-0.981-0.948-1.463-1.404
		c0.353-0.753,0.771-1.517,1.129-2.152c0.33-0.57,0.672-1.129,1.019-1.679c0.694-1.102,1.41-2.173,2.113-3.242
		c1.405-2.136,2.784-4.267,3.851-6.549c0.53-1.14,0.975-2.319,1.251-3.538c0.274-1.217,0.377-2.48,0.176-3.715
		c-0.19-1.234-0.667-2.424-1.372-3.487c-0.703-1.065-1.612-2.005-2.618-2.847l0.581,0.509l0.291,0.255
		c0.094,0.09,0.18,0.185,0.271,0.276l0.534,0.557l0.483,0.599c0.617,0.816,1.129,1.709,1.466,2.667
		c0.675,1.929,0.574,4.035,0.099,6.044c-0.363,1.516-0.929,2.965-1.583,4.351c-0.657,1.387-1.394,2.722-2.148,4.039
		c-0.761,1.311-1.518,2.62-2.28,3.936c-0.372,0.66-0.742,1.323-1.088,2l-0.253,0.496l-0.202,0.428
		c-0.069,0.142-0.128,0.278-0.185,0.412c-0.051,0.133-0.129,0.269-0.154,0.395c0.285,0.239,0.576,0.482,0.87,0.728
		c0.354,0.309,0.755,0.67,1.131,1.016c0.765,0.704,1.528,1.445,2.276,2.227c1.338,1.415,2.698,2.988,3.885,4.821
		c1.18,1.826,2.21,3.933,2.652,6.319c0.221,1.187,0.273,2.438,0.128,3.68c-0.141,1.236-0.49,2.473-0.987,3.59
		c-0.245,0.535-0.512,1.072-0.786,1.608c-0.133,0.269-0.319,0.53-0.479,0.793l-0.251,0.394l-0.284,0.369
		c-0.193,0.241-0.369,0.5-0.583,0.722l-0.63,0.672c-0.448,0.411-0.89,0.834-1.379,1.179c-1.199,0.908-2.456,1.598-3.689,2.151
		c-1.239,0.545-2.457,0.949-3.631,1.289c-2.352,0.653-4.528,1.02-6.493,1.272c-3.934,0.496-7.035,0.627-9.272,0.771
		c-4.469,0.252-5.518,0.42-2.929,0.286c-1.747,0.086-3.237,0.301-4.671,0.589c-1.503,0.302-3.027,0.584-4.754,0.787
		c-3.483,0.343-6.698,0.505-9.377,1.395c-1.334,0.447-2.518,1.087-3.539,1.966c-0.505,0.444-0.97,0.943-1.399,1.484
		c-0.413,0.556-0.803,1.143-1.137,1.776c-0.343,0.68-0.921,3.035-1.158,3.873c-1.045,3.695-1.379,7.516-1.508,11.565
		c-0.058,2.03-0.062,4.129-0.052,6.343c0.001,2.214,0.014,4.545-0.104,7.043c-0.032-0.452-0.053-0.904-0.085-1.24
		c-0.033-0.337-0.055-0.562-0.055-0.562c-0.146,1.82-0.265,2.729-0.546,4.522c-0.001-2.702-0.261-5.815-0.617-9.047
		C20.521,89.634,20.09,86.276,19.853,83.074z"/>
</g>
</svg>
