<?xml version="1.0" encoding="utf-8"?>
<!-- Generator: Adobe Illustrator 16.0.0, SVG Export Plug-In . SVG Version: 6.00 Build 0)  -->
<!DOCTYPE svg PUBLIC "-//W3C//DTD SVG 1.1//EN" "http://www.w3.org/Graphics/SVG/1.1/DTD/svg11.dtd">
<svg version="1.1" id="Layer_1" xmlns="http://www.w3.org/2000/svg" xmlns:xlink="http://www.w3.org/1999/xlink" x="0px" y="0px"
	 width="50px" height="50px" viewBox="0 0 50 50" enable-background="new 0 0 50 50" xml:space="preserve">
<g>
	<path fill="#4D4D4D" d="M28.922,19.415c1.866,0.112,4.408-0.337,7.13-1.372c3.882-1.481,7.021-3.715,8.146-5.638
		c0.209-0.352-0.36-0.423-0.937-0.503c-0.465-0.062-0.945-0.13-0.992-0.372c-0.11-0.527,1.508-1.693,1.271-2.098
		c-0.022-0.037-0.058-0.066-0.112-0.087c-1.281-0.551-3.449-0.521-5.988,0.082c0.095-0.294,0.168-0.583,0.234-0.867
		c-0.545,1.547-4.383,8.481-4.383,8.481S31.549,18.456,28.922,19.415z"/>
	<g>
		<g>
			<path id="SVGID_1_" fill="#4D4D4D" d="M30.17,34.197c0.027-0.477-1.37-0.399-1.631-0.828c-0.287-0.465,0.551-1.383,0.001-1.651
				c-1.472-0.72-3.701-0.708-5.757,0.16c-2.813,1.197-4.238,3.546-3.174,5.269c1.067,1.715,4.216,2.139,7.036,0.943
				c0.769-0.329,1.443-0.742,1.985-1.208C29.562,36.07,30.119,35.113,30.17,34.197"/>
		</g>
	</g>
</g>
<g>
	<path fill="#666666" d="M36.654,3.236c-0.521-0.457-2.11,1.261-2.92,1.195c-0.887-0.078-0.933-1.894-1.911-1.486
		c-2.603,1.1-5.282,3.738-6.753,6.943c-1.724,3.73-1.265,7.009,0.898,8.099c0.324,0.859,1.408,1.335,2.954,1.428
		c2.627-0.959,4.37-2.374,4.37-2.374s3.838-6.934,4.383-8.481C38.217,6.242,37.84,4.288,36.654,3.236z"/>
	<g>
		<g>
			<path id="SVGID_3_" fill="#666666" d="M19.191,31.562c-2.527,1.76-3.621,4.562-2.437,6.262c0.309,0.443,0.744,0.761,1.261,0.966
				c1.049,0.899,3.136,1.261,5.387,0.806c3.014-0.615,5.183-2.453,4.848-4.109c-0.029-0.148-0.098-0.286-0.171-0.43
				c1.081-0.961,1.042-2.08-2.177-3.595c0.416-0.831,0.443-1.378,0.219-1.71C25.298,28.57,21.161,30.193,19.191,31.562"/>
		</g>
	</g>
</g>
<g>
	<path fill="#B3B3B3" d="M36.445,17.722c-5.074,2.454,1.632-4.451-3.521-2.322c-5.145,2.134-7.066-6.274-7.696-6.044
		c-0.636,0.224-4.872,3.752-1.883,10.112c0,0-4.34,3.623-9.771,15.084C8.147,46.021,0,47.114,0,47.114l1.612-0.025
		c0,0,2.258-0.678,5.04-2.825c3.508-1.348,8.681-6.087,8.681-6.087c2.426,2.849,4.682,1.332,4.954,1.274
		c0.27-0.053-1.233-0.444-1.233-0.444c-2.668-1.442,1.318-7.272,0.892-7.44c-0.431-0.166-4.295,0.609-5.018,5.069
		c0,0-3.783,6.007-6.221,5.884L8.459,42.7c1.949-1.871,3.971-4.464,5.559-8.048c4.48-10.108,11.336-14.21,11.336-14.21
		C32.016,22.287,41.52,15.266,36.445,17.722z"/>
</g>
</svg>
