<?xml version="1.0" encoding="utf-8"?>
<!-- Generator: Adobe Illustrator 16.0.0, SVG Export Plug-In . SVG Version: 6.00 Build 0)  -->
<!DOCTYPE svg PUBLIC "-//W3C//DTD SVG 1.1//EN" "http://www.w3.org/Graphics/SVG/1.1/DTD/svg11.dtd">
<svg version="1.1" id="Layer_1" xmlns="http://www.w3.org/2000/svg" xmlns:xlink="http://www.w3.org/1999/xlink" x="0px" y="0px"
	 width="50px" height="50px" viewBox="0 0 50 50" enable-background="new 0 0 50 50" xml:space="preserve">
<g>
	<path fill="#4D4D4D" d="M30.184,11c-0.424-0.394-0.942,1.295-1.44,1.279c-0.547-0.014-1.022-1.687-1.5-1.248
		c-1.276,1.171-2.208,3.781-2.291,6.834c-0.115,4.194,1.418,7.638,3.427,7.69c2.006,0.055,3.724-3.302,3.837-7.496
		c0.031-1.152-0.062-2.25-0.256-3.234C31.627,13.122,30.992,11.75,30.184,11"/>
</g>
<g>
	<g>
		<path fill="#E6E6E6" d="M27.916,23.601c13.705-3.488,16.601-1.352,16.601-1.352s-2.446-2.119-16.046,0.425L27.916,23.601z"/>
		<circle fill="#E6E6E6" cx="44.482" cy="21.987" r="0.859"/>
	</g>
	<g>
		<path fill="#E6E6E6" d="M28.066,22.885c10.898-2.844,12.098-5.448,12.098-5.448s-0.891,2.418-11.354,5.879L28.066,22.885z"/>
		<path fill="#E6E6E6" d="M40.216,18.318c-0.378-0.015-0.673-0.333-0.659-0.711c0.018-0.377,0.332-0.671,0.71-0.657
			c0.378,0.013,0.672,0.332,0.657,0.708C40.911,18.036,40.593,18.331,40.216,18.318z"/>
	</g>
	<path fill="#E6E6E6" d="M27.856,23.787c13.555-4.836,17.184-3.452,17.184-3.452s-3.15-1.432-16.843,2.598L27.856,23.787z"/>
</g>
<g>
	<path fill="#666666" d="M41.252,23.215c-0.838-1.048-2.445-1.891-4.431-2.318c1.152-2.285,1.359-4.678,0.603-6.363
		c-0.295-0.658-1.798,0.383-2.384-0.012c-0.641-0.428-0.325-2.218-1.122-2.209c-2.13,0.022-4.609,1.53-6.312,4.066
		c-1.981,2.948-2.271,6.339-0.883,8.268c0.163,2.144,3.391,3.955,7.425,4.104c3.149,0.117,5.886-0.812,7.092-2.234
		c0.218-0.26-0.188-0.556-0.596-0.859c-0.337-0.253-0.674-0.512-0.664-0.767c0.021-0.561,1.435-1.047,1.338-1.54
		C41.309,23.306,41.289,23.261,41.252,23.215"/>
</g>
<g>
	<path fill="#B3B3B3" d="M2.958,36.872c0,0,2.747-4.905,10.13-6.342c7.385-1.435,11.142-5.359,11.142-5.359
		c-0.213-4.702,4.267-11.644,2.923-7.489c-3.75,7.318,3.062,0.745,1.569,3.225c-1.489,2.481,0.181,3.418,2.842,6.027
		c2.663,2.607-3.227,2.659-6.995-0.29c0,0-3.054,2.331-11.483,4.193c-8.43,1.858-10.393,7.101-10.393,7.101L2.958,36.872z"/>
</g>
</svg>
