<?xml version="1.0" encoding="utf-8"?>
<!-- Generator: Adobe Illustrator 16.0.0, SVG Export Plug-In . SVG Version: 6.00 Build 0)  -->
<!DOCTYPE svg PUBLIC "-//W3C//DTD SVG 1.1//EN" "http://www.w3.org/Graphics/SVG/1.1/DTD/svg11.dtd">
<svg version="1.1" id="Layer_1" xmlns="http://www.w3.org/2000/svg" xmlns:xlink="http://www.w3.org/1999/xlink" x="0px" y="0px"
	 width="50px" height="50px" viewBox="0 0 50 50" enable-background="new 0 0 50 50" xml:space="preserve">
<g>
	<path fill="#333333" d="M26.034,26.785c-0.68,0.303-1.272,0.738-1.787,1.275c-0.472-0.938-1.113-1.723-1.898-2.31
		c0.476-0.554,0.852-1.178,1.092-1.882c0.029,0.012,0.056,0.022,0.087,0.031c0.825,0.215,1.663,0.232,2.504,0.077
		c0.006,0.094-0.003,0.19,0.016,0.282c0.116,0.806,0.416,1.55,0.848,2.236c-0.201,0.05-0.396,0.106-0.594,0.185
		C26.214,26.711,26.128,26.746,26.034,26.785 M34.502,45.971c0.492-0.217,1.181,0.033,1.856,0.295
		c0.85,0.331,1.678,0.667,2.043,0.07c1.766-2.859,1.846-7.441-0.104-11.856c-0.629-1.424-1.418-2.694-2.302-3.792
		c1.007,0.031,2.05-0.018,3.112-0.178c4.918-0.732,8.839-3.379,10.209-6.527c0.454-1.045-2.357-1.692-2.522-2.796
		c-0.179-1.205,2.237-2.741,1.385-3.664c-2.291-2.46-6.684-3.747-11.454-3.04c-0.9,0.131-1.762,0.338-2.578,0.586
		c0.072-0.253,0.154-0.499,0.225-0.761c1.232-4.818,0.316-9.46-2.051-11.946c-0.424-0.446-1.111,0.031-1.833,0.525
		c-0.601,0.412-1.227,0.835-1.724,0.71c-1.171-0.302-1.647-3.135-2.828-2.703c-3.165,1.155-6.062,4.703-7.266,9.372
		c-0.323,1.268-0.494,2.528-0.542,3.733c-1.064-0.646-2.255-1.201-3.547-1.622c-4.731-1.544-9.421-0.918-12.055,1.287
		c-0.875,0.732,1.357,2.563,1.012,3.62c-0.378,1.159-3.23,1.456-2.876,2.657c0.951,3.232,4.312,6.349,8.894,7.843
		c0.758,0.246,1.508,0.432,2.249,0.57c-1.093,1.201-2.068,2.646-2.83,4.311c-2.071,4.521-1.991,9.252-0.096,12.118
		c0.34,0.511,1.097,0.167,1.878-0.188c0.672-0.305,1.37-0.618,1.837-0.403c1.106,0.507,1.075,3.376,2.313,3.16
		c3.062-0.533,6.252-3.133,8.304-6.978c0.084,0.219,0.169,0.436,0.266,0.651c2.005,4.552,5.604,7.63,9.002,8.116
		c0.103,0.013,0.195,0.003,0.278-0.026C33.594,48.805,33.574,46.379,34.502,45.971"/>
</g>
<g>
	<g>
		<path id="SVGID_3_" fill="#808080" d="M18.227,19.56c0.066,0.073,0.128,0.155,0.203,0.247c-0.089-0.074-0.172-0.144-0.255-0.219
			C18.189,19.576,18.214,19.569,18.227,19.56 M24.095,17.008c0.114,0.084,0.23,0.141,0.372,0.165
			c-0.074,0.967-0.151,2.574-0.192,4.406c-0.161-1.894-0.328-3.532-0.46-4.5C23.913,17.067,24.013,17.055,24.095,17.008
			 M20.758,27.286c-1.422,0.768-2.647,1.471-3.386,1.92c-0.276-0.347-0.741-0.479-1.116-0.286l-0.008,0.008
			c0.265-0.186,0.396-0.523,0.337-0.876C17.5,27.915,19.009,27.643,20.758,27.286 M23.793,25.324
			c-0.083-0.025-0.175-0.059-0.261-0.09c-0.179-0.208-0.366-0.434-0.568-0.67C23.253,24.832,23.536,25.087,23.793,25.324
			 M20.867,25.931c0.888,0.003,1.708,0,2.467-0.006c-0.165,0.079-0.322,0.167-0.492,0.257c-0.625-0.084-1.305-0.171-2.035-0.256
			C20.83,25.929,20.845,25.928,20.867,25.931 M23.698,26.136c0.032,0.017,0.054,0.033,0.077,0.048
			c-0.017,0.022-0.036,0.043-0.051,0.062c-0.03,0.012-0.069,0.017-0.094,0.023c-0.046-0.006-0.098-0.011-0.136-0.011
			C23.562,26.216,23.631,26.178,23.698,26.136 M25.247,25.231c0.172-0.083,0.365-0.189,0.555-0.28
			c-0.223,0.191-0.432,0.38-0.641,0.568c-0.047,0.004-0.104,0.004-0.158,0.002c0.039-0.069,0.07-0.139,0.108-0.207
			C25.155,25.288,25.204,25.256,25.247,25.231 M23.89,26.688c-0.051,0.051-0.11,0.104-0.161,0.149
			c0.063-0.069,0.123-0.134,0.178-0.2C23.905,26.659,23.896,26.671,23.89,26.688 M30.093,20.201
			c-0.328,0.292-0.354,0.799-0.07,1.188c-0.667,0.519-1.722,1.39-2.916,2.413c-0.447,0.248-0.877,0.482-1.27,0.703
			c0.24-0.268,0.492-0.534,0.758-0.82c1.363-1.513,2.539-2.855,3.18-3.65C29.872,20.109,29.984,20.173,30.093,20.201 M24.964,26.375
			c0.002-0.004,0.002-0.004,0.006,0.001c-0.006-0.001-0.01,0-0.01,0l-0.002-0.002C24.958,26.374,24.958,26.37,24.964,26.375
			 M19.186,31.286c-0.355,0.401-0.667,0.769-0.943,1.088c-0.022-0.085-0.076-0.156-0.127-0.233
			C18.402,31.92,18.767,31.625,19.186,31.286 M31.542,21.527c-0.662,0.307-1.691,0.825-2.891,1.452
			c0.624-0.567,1.159-1.06,1.533-1.427c0.336,0.287,0.814,0.326,1.127,0.051c0.077-0.066,0.127-0.152,0.176-0.229
			C31.501,21.423,31.523,21.478,31.542,21.527 M25.618,26.211c0.293,0.102,0.612,0.21,0.934,0.318
			c-0.348-0.041-0.672-0.067-0.989-0.101c-0.065-0.057-0.123-0.108-0.178-0.157C25.462,26.247,25.54,26.229,25.618,26.211
			 M33.948,25.638c-1.033-0.067-2.812-0.122-4.859-0.138c0.047-0.01,0.087-0.018,0.132-0.027c1.973-0.415,3.702-0.801,4.717-1.076
			c0.099,0.22,0.261,0.398,0.457,0.505c-0.058,0.028-0.11,0.064-0.159,0.106C34.061,25.164,33.956,25.383,33.948,25.638
			 M24.618,30.396c0.133,1.627,0.273,3.111,0.399,4.198c-0.116-0.284-0.374-0.507-0.685-0.577c0.082-0.974,0.158-2.688,0.201-4.66
			C24.564,29.697,24.594,30.029,24.618,30.396 M32.489,27.509c0.034,0.302,0.211,0.565,0.467,0.712
			c-0.006,0.028-0.017,0.053-0.028,0.072c-0.66-0.244-1.642-0.6-2.787-0.98C31.092,27.402,31.909,27.48,32.489,27.509
			 M25.114,35.398c-0.066,0.008-0.136,0.013-0.197,0.039c0.084-0.113,0.135-0.235,0.156-0.391
			C25.085,35.164,25.104,35.294,25.114,35.398 M26.149,35.91c-0.168-0.29-0.46-0.491-0.798-0.531
			c-0.031-1.081-0.144-2.912-0.308-4.986c-0.032-0.385-0.063-0.748-0.096-1.117c0.08,0.293,0.159,0.57,0.24,0.869
			c0.587,2.049,1.135,3.84,1.488,4.893c-0.094,0.029-0.18,0.08-0.246,0.143C26.231,35.355,26.128,35.615,26.149,35.91
			 M29.801,32.749c-0.259,0.292-0.273,0.735-0.024,1.088c-0.16-0.028-0.318-0.021-0.467,0.038c-0.479-0.913-1.328-2.436-2.33-4.148
			c-0.05-0.094-0.102-0.173-0.15-0.259C28.056,30.874,29.14,32.062,29.801,32.749 M31.8,31.197c-0.116,0.322-0.047,0.685,0.17,0.966
			c-0.102,0.03-0.194,0.085-0.281,0.155c-0.664-0.694-1.791-1.812-3.136-3.088C29.89,30.066,31.04,30.768,31.8,31.197 M33.05,33.768
			c0.312-0.344,0.285-0.877-0.028-1.258c0.205-0.062,0.388-0.183,0.503-0.381c0.251-0.441,0.08-1.049-0.383-1.341
			c-0.443-0.283-0.971-0.185-1.243,0.204c-0.911-0.651-2.485-1.698-4.282-2.848c-0.221-0.141-0.437-0.281-0.648-0.412
			c-0.336-0.314-0.653-0.606-0.958-0.889c0.603,0.077,1.231,0.154,1.913,0.233c0.138,0.015,0.272,0.03,0.406,0.038
			c0.031,0.018,0.062,0.027,0.092,0.037c1.853,0.598,3.498,1.099,4.466,1.359c-0.021,0.42,0.241,0.844,0.664,0.98
			c0.478,0.158,0.954-0.1,1.067-0.565c0.092-0.399-0.115-0.808-0.47-1.024c0.05-0.103,0.08-0.211,0.081-0.338
			c0.01-0.494-0.375-0.934-0.861-0.987c-0.465-0.056-0.834,0.257-0.889,0.71c-0.904-0.154-2.389-0.357-4.083-0.555
			c-0.769-0.248-1.493-0.474-2.153-0.67c0.26-0.058,0.541-0.107,0.827-0.162c0.595,0.006,1.218,0.017,1.886,0.028
			c2.115,0.011,3.959-0.012,5.011-0.063c0.094,0.481,0.511,0.861,0.995,0.867c0.525,0.002,0.92-0.432,0.879-0.965
			c-0.033-0.37-0.271-0.688-0.584-0.851c0.367-0.181,0.564-0.608,0.441-1.044c-0.15-0.524-0.681-0.862-1.188-0.757
			c-0.476,0.096-0.748,0.561-0.654,1.048c-1.047,0.16-2.789,0.481-4.753,0.886c-0.734,0.154-1.43,0.303-2.072,0.447
			c-0.449-0.001-0.867,0.006-1.262,0.01c0.373-0.313,0.766-0.652,1.169-1.006c0.146-0.125,0.284-0.247,0.423-0.367
			c0.133-0.073,0.26-0.141,0.395-0.207c1.666-0.905,3.104-1.712,3.893-2.214c0.286,0.372,0.768,0.523,1.146,0.314
			c0.42-0.218,0.548-0.765,0.287-1.198c-0.252-0.443-0.797-0.619-1.215-0.398c-0.146,0.078-0.246,0.21-0.312,0.346
			c-0.034-0.155-0.091-0.301-0.207-0.436c-0.124-0.146-0.28-0.224-0.452-0.276c0.048-0.032,0.09-0.05,0.129-0.085
			c0.344-0.375,0.294-0.99-0.109-1.375c-0.405-0.382-1.01-0.384-1.352-0.008c-0.314,0.345-0.279,0.883,0.043,1.268
			c-0.738,0.705-1.969,2-3.342,3.504c-0.018,0.029-0.041,0.048-0.062,0.074c0.166-0.294,0.344-0.598,0.521-0.905
			c0.982-1.731,1.82-3.284,2.279-4.22c0.434,0.188,0.918,0.07,1.156-0.323c0.248-0.452,0.078-1.049-0.387-1.352
			c-0.467-0.294-1.047-0.171-1.299,0.276c-0.234,0.418-0.084,0.968,0.314,1.275c-0.562,0.875-1.459,2.376-2.441,4.103
			c-0.532,0.931-1.016,1.812-1.434,2.568c-0.082,0.105-0.174,0.21-0.261,0.308c-0.024,0.015-0.053,0.032-0.077,0.042
			c0.053-0.27,0.104-0.524,0.139-0.74c0.213-0.809,0.453-1.775,0.699-2.813c0.442-1.886,0.793-3.541,0.963-4.5
			c0.438,0.092,0.854-0.143,0.959-0.583c0.109-0.464-0.188-0.97-0.66-1.122c-0.479-0.156-0.943,0.104-1.061,0.566
			c-0.103,0.434,0.147,0.885,0.562,1.079c-0.277,0.918-0.704,2.551-1.15,4.44c-0.146,0.63-0.28,1.222-0.413,1.786
			c0.023-0.487,0.035-1.004,0.051-1.538c0.041-1.911,0.053-3.597,0.023-4.603c0.421-0.024,0.748-0.333,0.757-0.776
			c0.019-0.484-0.373-0.937-0.856-0.99c-0.118-0.01-0.232,0-0.34,0.036c-0.186-0.18-0.428-0.287-0.694-0.289
			c-0.527-0.008-0.92,0.419-0.879,0.952c0.044,0.498,0.442,0.891,0.915,0.957c0.026,1.066,0.134,2.943,0.307,5.091
			c0.089,1.037,0.175,2.014,0.256,2.867c-0.044-0.082-0.095-0.171-0.142-0.255c-0.218-0.833-0.479-1.758-0.762-2.771
			c-0.599-2.109-1.162-3.94-1.518-4.979c0.441-0.146,0.688-0.607,0.548-1.091c-0.144-0.525-0.68-0.873-1.182-0.758
			c-0.505,0.102-0.796,0.612-0.652,1.137c0.141,0.48,0.603,0.797,1.071,0.757c0.242,1.062,0.725,2.907,1.324,5.02
			c0.127,0.447,0.257,0.887,0.376,1.304c-0.079-0.14-0.166-0.285-0.248-0.43c-1.039-1.775-1.975-3.301-2.536-4.16
			c0.342-0.245,0.448-0.73,0.208-1.139c-0.259-0.436-0.807-0.616-1.216-0.398c-0.417,0.223-0.542,0.758-0.288,1.205
			c0.243,0.413,0.719,0.58,1.117,0.426c0.47,0.907,1.343,2.472,2.378,4.248c0.264,0.45,0.523,0.882,0.767,1.298
			c-0.524-0.516-1.105-1.065-1.719-1.647c-0.465-0.445-0.919-0.867-1.348-1.262c-0.785-0.892-1.473-1.636-1.953-2.134
			c0.254-0.32,0.247-0.8-0.053-1.144c-0.223-0.259-0.546-0.357-0.839-0.316c-0.392-0.237-0.867-0.216-1.167,0.111
			c-0.343,0.374-0.292,0.986,0.114,1.37c0.299,0.281,0.711,0.364,1.043,0.221c0.139,0.049,0.284,0.064,0.431,0.04
			c0.587,0.604,1.42,1.428,2.394,2.367c0.322,0.373,0.654,0.759,1.004,1.159c0.562,0.648,1.104,1.261,1.598,1.809
			c-0.208-0.074-0.426-0.142-0.639-0.215c-0.566-0.37-1.168-0.769-1.808-1.174c-1.862-1.192-3.509-2.205-4.467-2.741
			c0.174-0.434,0.013-0.966-0.418-1.239c-0.459-0.294-1.043-0.182-1.299,0.267c-0.249,0.443-0.081,1.042,0.386,1.345
			c0.424,0.266,0.941,0.178,1.222-0.184c0.897,0.645,2.507,1.72,4.367,2.907c0.173,0.112,0.337,0.213,0.503,0.329
			c-1.722-0.558-3.223-1.012-4.111-1.249c0.048-0.439-0.226-0.883-0.659-1.027c-0.48-0.149-0.95,0.107-1.062,0.576
			c-0.111,0.469,0.188,0.975,0.657,1.125c0.442,0.146,0.866-0.069,1.016-0.469c0.942,0.364,2.6,0.932,4.506,1.557
			c0.337,0.11,0.655,0.21,0.973,0.312c0.209,0.129,0.414,0.255,0.616,0.375c-0.585-0.007-1.205-0.019-1.861-0.028
			c-1.542-0.008-2.934,0.001-3.984,0.028c-0.361-0.021-0.688-0.052-0.961-0.066c-0.045-0.141-0.117-0.259-0.21-0.362
			c-0.15-0.28-0.415-0.49-0.737-0.531c-0.486-0.054-0.889,0.301-0.908,0.791c0.002,0.072,0.022,0.134,0.039,0.204
			c-0.006,0.045-0.02,0.092-0.017,0.141c0.044,0.533,0.508,0.975,1.03,0.97c0.496,0.004,0.856-0.371,0.863-0.872
			c0.296,0.02,0.67,0.035,1.068,0.053c0.94,0.137,2.116,0.286,3.413,0.432c0.654,0.072,1.268,0.143,1.848,0.201
			c-0.051,0.026-0.109,0.055-0.157,0.086c-0.263,0.051-0.523,0.104-0.788,0.155c-2.036,0.425-3.802,0.832-4.796,1.101
			c-0.19-0.455-0.667-0.752-1.137-0.653c-0.511,0.108-0.801,0.614-0.651,1.14c0.152,0.524,0.683,0.863,1.191,0.762
			c0.084-0.017,0.166-0.049,0.243-0.086c-0.349,0.242-0.445,0.733-0.204,1.144c0.259,0.44,0.8,0.616,1.219,0.396
			c0.388-0.211,0.51-0.693,0.313-1.121c0.864-0.406,2.305-1.136,3.912-1.998c0.249-0.141,0.497-0.271,0.735-0.401
			c0.404-0.084,0.789-0.171,1.151-0.251c-0.057,0.074-0.119,0.139-0.167,0.205c-0.574,0.596-1.236,1.312-1.938,2.083
			c-1.387,1.206-2.57,2.284-3.224,2.934c-0.343-0.315-0.842-0.36-1.168-0.077c-0.295,0.26-0.334,0.691-0.15,1.051
			c-0.257,0.381-0.202,0.918,0.166,1.271c0.401,0.381,1.011,0.386,1.349,0.008c0.291-0.315,0.283-0.794,0.038-1.168
			c0.046-0.093,0.071-0.19,0.082-0.291c0.743-0.745,1.862-1.919,3.092-3.271c0.099-0.108,0.195-0.215,0.296-0.323
			c0.626-0.552,1.216-1.069,1.726-1.538c-0.285,0.484-0.587,1.002-0.894,1.543c-1.014,1.788-1.865,3.371-2.323,4.295
			c-0.442-0.219-0.954-0.101-1.187,0.316c-0.254,0.441-0.083,1.047,0.382,1.343c0.463,0.29,1.041,0.176,1.294-0.272
			c0.238-0.401,0.096-0.942-0.29-1.256c0.56-0.855,1.487-2.402,2.5-4.185c0.202-0.362,0.402-0.716,0.592-1.06
			c-0.035,0.144-0.065,0.276-0.102,0.422c-0.429,1.828-0.772,3.453-0.951,4.418c-0.424-0.066-0.816,0.168-0.917,0.584
			c-0.108,0.473,0.187,0.974,0.664,1.132c0.471,0.155,0.947-0.099,1.063-0.572c0.104-0.437-0.164-0.903-0.584-1.081
			c0.274-0.939,0.683-2.537,1.111-4.354c0.154-0.639,0.285-1.241,0.414-1.812c0.017-0.021,0.028-0.058,0.045-0.081
			c-0.029,0.709-0.054,1.466-0.075,2.296c-0.048,1.969-0.048,3.693-0.017,4.684c-0.444,0-0.797,0.32-0.809,0.779
			c-0.007,0.493,0.38,0.933,0.864,0.988c0.146,0.018,0.275-0.01,0.398-0.059c-0.135,0.17-0.218,0.389-0.193,0.63
			c0.042,0.538,0.502,0.97,1.033,0.978c0.517,0.006,0.896-0.421,0.871-0.945c0.223,0.377,0.646,0.599,1.064,0.513
			c0.499-0.104,0.786-0.612,0.643-1.142c-0.14-0.486-0.621-0.807-1.104-0.752c-0.243-1.084-0.716-2.881-1.298-4.916
			c-0.296-1.053-0.588-2.037-0.849-2.895c-0.008-0.047-0.013-0.092-0.015-0.135c0.245,0.299,0.521,0.617,0.795,0.943
			c0.345,0.6,0.71,1.233,1.117,1.928c0.997,1.716,1.915,3.216,2.487,4.09c-0.324,0.251-0.415,0.711-0.188,1.105
			c0.258,0.441,0.803,0.623,1.217,0.398c0.412-0.227,0.545-0.758,0.285-1.2c-0.016-0.022-0.037-0.046-0.055-0.058
			c0.244,0.037,0.492-0.012,0.682-0.178c0.354-0.31,0.364-0.871,0.03-1.254c-0.312-0.359-0.806-0.425-1.155-0.197
			c-0.636-0.805-1.787-2.185-3.143-3.739c-0.359-0.411-0.71-0.808-1.04-1.183c-0.093-0.143-0.172-0.279-0.254-0.418
			c0.396,0.262,0.802,0.528,1.243,0.812c0.283,0.271,0.574,0.551,0.878,0.834c1.614,1.529,3.053,2.846,3.903,3.561
			c-0.269,0.375-0.217,0.922,0.156,1.276c0.376,0.353,0.93,0.377,1.275,0.078C33.001,33.814,33.027,33.789,33.05,33.768"/>
	</g>
</g>
</svg>
