<?xml version="1.0" encoding="utf-8"?>
<!-- Generator: Adobe Illustrator 16.0.0, SVG Export Plug-In . SVG Version: 6.00 Build 0)  -->
<!DOCTYPE svg PUBLIC "-//W3C//DTD SVG 1.1//EN" "http://www.w3.org/Graphics/SVG/1.1/DTD/svg11.dtd">
<svg version="1.1" id="Layer_1" xmlns="http://www.w3.org/2000/svg" xmlns:xlink="http://www.w3.org/1999/xlink" x="0px" y="0px"
	 width="114.84px" height="114.84px" viewBox="0 -32.42 114.84 114.84" enable-background="new 0 -32.42 114.84 114.84"
	 xml:space="preserve">
<g>
	<path fill="#231F20" d="M26.92,4.772c-2.448,2.809-4.441,3.889-6.554,3.721c-2.113-0.168-2.329,0.192-0.529,1.44
		c1.8,1.249,4.058-0.144,4.658-0.72c0.601-0.577,1.729-0.145,2.28,0.696c0.276,0.422,0.641,0.909,1.099,1.306
		c-0.207-0.017-0.412-0.029-0.613-0.037c0.031-0.011,0.062-0.021,0.093-0.032c-4.861-0.36-8.175,2.161-9.869,3.421
		c-1.693,1.26,0.648-1.621-0.504-3.602s-3.385-0.72-3.349,0.504c0.036,1.224,1.512,1.332,1.26,0.756
		c-0.251-0.577-0.108-1.549,0.756-1.188c0.864,0.361,0.396,2.088-0.287,3.854c-0.637,1.641-2.826,5.619-2.465,11.406l-0.003-0.008
		c0.003,0.04,0.005,0.083,0.008,0.128c0,0.011,0.001,0.021,0.001,0.032c0.043,0.765,0.121,2.146-0.567,0.975
		c-0.738-1.26-2.654-3.249-3.781-4.376c-0.032-0.032-0.066-0.063-0.099-0.094c0.239-0.414,0.495-0.799,0.748-1.058
		c0.684-0.702,1.062-0.648,1.134-0.27c0.072,0.378,0.937,0.541,0.901-0.252c-0.036-0.792-1.153-0.9-1.782-0.756
		c0,0,0.125-1.261-1.189-1.458c-1.314-0.198-1.314,1.225-0.469,1.314c0.636,0.068,0.469,0.715-0.119,1.903
		c-1.849-1.115-4.945-1.533-6.632,0.871c-2,2.844,0.252,5.527,2.521,5.508c2.269-0.017,2.755-1.673,3.89-1.331
		c1.134,0.343,1.116,0.63,1.116,1.026s0.826-0.072,0.52-1.262c-0.306-1.188-1.333-1.062-1.819-1.062S7.06,25.48,7.438,24.85
		c0.122-0.205,0.278-0.512,0.457-0.858c2.122,1.85,4.847,5.478,6.399,8.929c2.434,6.899,7.59,12.313,13.96,14.168
		c7.923,2.306,11.02-0.864,12.967-3.638c1.943-2.771,1.26-6.985-0.865-7.635s-2.918,0.9-2.918,1.548
		c0,0.649-0.396,0.612-0.396,0.612s-0.107-0.433-0.575-1.009c-0.468-0.575-1.403-0.323-1.116-0.145
		c0.287,0.182,0.433,0.433,0.504,1.767c0.07,1.331-1.692,1.764-2.232,1.692c-0.539-0.073-1.477-1.369,0.217-3.817
		c2.311-3.145,3.656-5.668,4.344-7.127c0.213-0.406,0.396-0.831,0.551-1.27c0.023-0.062,0.039-0.104,0.039-0.104v0.002
		c0.397-1.169,0.592-2.434,0.601-3.726l0.012,0.003c0-1.177,0.312-1.152,0.529-0.672c0.216,0.479,2.063,5.451,6.578,5.451
		c4.514,0,4.178-6.794,0.575-6.794c-0.504,0-0.793,0.169-0.793,0.169s-0.312-0.336-0.744-0.336c-0.432,0-0.793,0.216-0.793,0.48
		c0,0-0.646-0.312-1.271,0.144s-0.289,1.32,0,1.488c0,0-0.577,0.84,0.146,1.608c0.719,0.769,1.705-0.432,1.705-0.432
		s1.367,0.408,1.632-0.72c0.264-1.128-0.505-1.177-0.505-1.177s2.09-0.312,2.09,2.088c0,2.4-2.497,2.643-3.913,1.73
		c-1.418-0.914-3.817-5.477-4.875-7.325c-1.058-1.848-2.233-2.689-1.177-2.953c1.058-0.264,2.16-0.72,2.16-1.44
		c0-0.663-1.728-0.35-2.227-0.202c0.588-0.237,3.188-1.505,3.188-4.433c0-3.433-2.281-6.29-5.234-7.178
		C33.523,2.858,29.37,1.963,26.92,4.772z M6.968,23.733c-0.647,1.189-0.882,1.08-0.971,0.775c-0.09-0.306-0.955-0.937-2.072-0.631
		c-1.117,0.307-0.972,1.153-0.792,1.297c0.179,0.144,0.27-0.378,0.899-0.289c0.63,0.09,1.567,0.938,0.685,2.071
		c-0.882,1.135-3.169,0.828-3.116-1.351c0.055-2.179,2.449-3.799,4.826-2.647c0.223,0.108,0.464,0.255,0.721,0.438
		C7.09,23.506,7.031,23.617,6.968,23.733z M32.246,11.551c0.033,0.277,0.096,0.555,0.178,0.826
		c-0.398-0.171-0.794-0.322-1.182-0.454C31.588,11.854,31.93,11.737,32.246,11.551z M29.623,20.654
		c1.654,2.484-0.073,4.286-1.334,4.537c-1.26,0.253-1.117-0.936-0.973-1.295c0.145-0.361-0.359-0.648-0.756-0.648
		c-0.396,0,0.071-0.396-0.146-0.829c-0.216-0.432-0.864-0.9-0.396-1.44c0.467-0.54-0.037-0.648-0.47-0.396
		c-0.431,0.252-2.052,1.98-0.576,4.574c0.576,0.897,2.269,1.368,1.547,1.729c-0.721,0.359-1.088,0.232-1.333,0.675
		c0,0-0.44-0.692-0.945-0.685c-0.505,0.01-0.459-0.468-0.36-0.722c0.099-0.25-0.244-0.313-0.496,0.047
		c-0.252,0.359-0.665,2.423,1.422,3.097c2.09,0.677,2.81-0.604,2.81-0.604s0.108,0.127,0.297,0.812s1.026,2.386,2.549,2.746
		c1.521,0.36,2.8-0.748,2.341-0.802c-0.459-0.055-1.089-0.188-1.217-0.62c-0.125-0.433-0.387-0.722-0.629-0.729
		c-0.243-0.009-0.189-0.188-0.162-0.611c0.026-0.424-0.126-0.784-0.738-0.793c-0.612-0.008-1.721-1.18-0.521-2.241
		c1.197-1.062,2.845-3.062,1.764-5.538c-1.08-2.476-3.033-3.304-5.824-2.692c-1.175,0.258-2.109,0.813-2.826,1.495
		c0.215-1.154,0.012-2.745-1.424-3.241c-1.981-0.685-3.241,0.288-2.484-0.685c0.756-0.973,5.33-4.645,10.911-2.665
		c5.58,1.981,5.404,4.394,5.223,5.906c-0.18,1.513,0.9,1.153,1.117,0.613c0.215-0.541,0.898-1.513,1.404,0.684
		c0.502,2.197,1.656,7.455-2.56,10.587c-4.213,3.135-8.317,1.873-10.119,0.037c-1.801-1.837-3.674-4.862-2.305-8.248
		C23.788,19.321,27.965,18.169,29.623,20.654z M20.415,17.187c0.153,0.032,0.293,0.077,0.418,0.136
		C20.704,17.279,20.564,17.233,20.415,17.187z M19.645,39.994c-4.141-4.719-6.086-12.569-4.896-17.612
		c1.188-5.042,5.69-5.366,6.519-4.718l0.034-0.007c0.473,0.486,0.6,1.216,0.529,1.772c-0.131,1.044-1.332,1.116-1.752,0.792
		c-0.42-0.324,0.036-0.756,0.036-0.756c0.72-0.18,0.564-1.176-0.071-1.213c-0.613-0.034-1.945,0.865-1.189,2.377
		c0.53,1.057,1.707,1.105,2.565,0.755c-0.248,0.494-0.417,0.99-0.502,1.448c-0.326,1.72-0.613,6.061,2.557,8.552
		c1.27,0.981,0.944,1.343,0.296,1.495c-0.249,0.061-0.724,0.148-1.212,0.446c-0.039,0.022-0.073,0.047-0.108,0.071
		c-0.071,0.047-0.139,0.099-0.208,0.155c-0.029,0.025-0.062,0.048-0.091,0.075c-0.627,0.566-1.181,1.582-1.181,3.475
		c0,0,0.021,0.082,0.054,0.213c0.035,0.955,0.235,1.847,0.533,2.39C22.382,41.218,23.788,44.711,19.645,39.994z M32.539,35.239
		c-0.793,1.009-2.521,3.276-1.01,5.364c1.513,2.09,4.322,1.153,5.224,0.435c0.899-0.722,1.403-1.044,2.124-0.794
		c0.721,0.254,0.773-0.126,0.773-0.126l-1.782-1.781c0,0,0.54,0.396,1.153-0.18c0.611-0.577-0.217-1.37,0.541-1.334
		c0.754,0.036,2.052,1.548,1.402,3.602c-1.479,5.043-6.193,7.095-10.912,5.511c-4.718-1.586-7.598-6.59-7.598-9.291
		c0-0.33,0.036-0.615,0.099-0.869c0.091-0.299,0.204-0.555,0.334-0.772c0.515-0.784,1.357-0.989,1.756-1.04
		c1.057,0.025,2.043,0.9,1.917,1.926c-0.254,2.018-2.342,0.539-1.478,0.071s-1.188-1.836-1.512,0.072
		c-0.324,1.909,2.017,3.603,3.746,1.766c1.729-1.838-0.18-3.927,0.576-3.817c0.756,0.106,1.907,0.611,5.649-0.646
		C34.014,33.633,33.223,34.368,32.539,35.239z M40.582,10.462c0,4.226-4.25,3.578-5.354,2.449c-1.104-1.129-1.729-3.457,0.023-3.457
		c1.752,0,1.872,0.888,1.872,1.728c0,0.84,0.771,0.457,0.771-1.008c0-1.367-1.756-3.17-4.156-1.612
		c-0.096-1.564-1.35-2.747-2.711-2.614c-1.729,0.167-2.375,1.205-1.656,2.281c0.143,0.216,0.287-0.72,1.345-0.673
		c1.056,0.048,1.992,2.042,0.167,2.737c-1.824,0.697-3.097-1.584-2.855-2.881c0.238-1.297,1.031-3.361,4.32-3.361
		S40.582,6.236,40.582,10.462z"/>
	<path fill="#231F20" d="M78.657,3.739c-2.953,0.888-5.234,3.745-5.234,7.178c0,2.928,2.6,4.196,3.188,4.433
		c-0.498-0.148-2.227-0.461-2.227,0.202c0,0.72,1.104,1.176,2.16,1.44c1.057,0.264-0.119,1.105-1.176,2.953
		c-1.059,1.848-3.457,6.411-4.875,7.325c-1.416,0.912-3.914,0.67-3.914-1.73c0-2.4,2.09-2.088,2.09-2.088s-0.768,0.049-0.504,1.177
		s1.631,0.72,1.631,0.72s0.986,1.201,1.705,0.432c0.723-0.768,0.146-1.608,0.146-1.608c0.289-0.168,0.623-1.032,0-1.488
		c-0.625-0.456-1.271-0.144-1.271-0.144c0-0.264-0.361-0.48-0.793-0.48s-0.744,0.336-0.744,0.336s-0.289-0.169-0.793-0.169
		c-3.602,0-3.938,6.794,0.576,6.794s6.361-4.972,6.578-5.451c0.217-0.48,0.529-0.505,0.529,0.672l0.012-0.003
		c0.008,1.292,0.203,2.557,0.6,3.726v-0.002c0,0,0.016,0.042,0.039,0.104c0.154,0.438,0.338,0.863,0.551,1.27
		c0.688,1.459,2.033,3.982,4.344,7.127c1.693,2.448,0.756,3.744,0.217,3.817c-0.539,0.071-2.303-0.361-2.232-1.692
		c0.072-1.334,0.217-1.585,0.504-1.767c0.287-0.179-0.648-0.431-1.115,0.145c-0.469,0.576-0.576,1.009-0.576,1.009
		s-0.396,0.037-0.396-0.612c0-0.647-0.793-2.197-2.918-1.548s-2.809,4.863-0.865,7.635c1.947,2.773,5.045,5.943,12.967,3.638
		c6.371-1.854,11.526-7.269,13.961-14.168c1.551-3.451,4.276-7.079,6.398-8.929c0.18,0.346,0.335,0.653,0.457,0.858
		c0.378,0.63,0.648,1.278,0.163,1.278s-1.513-0.127-1.819,1.062c-0.306,1.189,0.52,1.658,0.52,1.262s-0.018-0.684,1.117-1.026
		c1.135-0.342,1.621,1.314,3.89,1.331c2.269,0.02,4.521-2.664,2.521-5.508c-1.687-2.404-4.783-1.986-6.632-0.871
		c-0.588-1.188-0.755-1.835-0.118-1.903c0.844-0.089,0.844-1.512-0.47-1.314c-1.313,0.197-1.188,1.458-1.188,1.458
		c-0.629-0.144-1.746-0.036-1.782,0.756c-0.036,0.793,0.829,0.63,0.901,0.252c0.071-0.378,0.449-0.432,1.133,0.27
		c0.254,0.259,0.51,0.644,0.748,1.058c-0.032,0.031-0.066,0.062-0.099,0.094c-1.127,1.127-3.043,3.116-3.78,4.376
		c-0.688,1.172-0.61-0.21-0.567-0.975c0-0.012,0.001-0.021,0.001-0.032c0.003-0.045,0.005-0.088,0.008-0.128l-0.003,0.008
		c0.36-5.787-1.828-9.765-2.465-11.406c-0.683-1.766-1.151-3.493-0.287-3.854c0.864-0.361,1.007,0.611,0.756,1.188
		c-0.252,0.576,1.224,0.468,1.261-0.756c0.035-1.224-2.197-2.485-3.35-0.504s1.189,4.862-0.504,3.602
		c-1.693-1.26-5.008-3.781-9.869-3.421c0.031,0.01,0.062,0.021,0.094,0.032c-0.201,0.008-0.406,0.021-0.613,0.037
		c0.457-0.397,0.822-0.884,1.098-1.306c0.551-0.841,1.68-1.273,2.281-0.696c0.6,0.576,2.857,1.969,4.658,0.72
		c1.799-1.248,1.584-1.608-0.529-1.44s-4.106-0.912-6.555-3.721C85.743,1.963,81.589,2.858,78.657,3.739z M107.965,23.396
		c0.257-0.183,0.498-0.33,0.722-0.438c2.377-1.152,4.77,0.469,4.825,2.647c0.054,2.179-2.233,2.485-3.116,1.351
		c-0.882-1.134,0.055-1.981,0.686-2.071c0.629-0.089,0.72,0.433,0.898,0.289c0.18-0.144,0.325-0.99-0.791-1.297
		c-1.117-0.306-1.982,0.325-2.072,0.631c-0.09,0.305-0.324,0.414-0.971-0.775C108.081,23.617,108.022,23.506,107.965,23.396z
		 M83.87,11.923c-0.387,0.132-0.783,0.283-1.182,0.454c0.082-0.271,0.145-0.549,0.178-0.826
		C83.183,11.737,83.524,11.854,83.87,11.923z M92.696,22.707c1.369,3.386-0.504,6.411-2.306,8.248
		c-1.802,1.836-5.905,3.098-10.118-0.037c-4.217-3.132-3.062-8.39-2.561-10.587c0.506-2.197,1.189-1.225,1.404-0.684
		c0.217,0.54,1.297,0.9,1.117-0.613c-0.182-1.512-0.357-3.925,5.223-5.906c5.582-1.98,10.156,1.692,10.912,2.665
		c0.757,0.973-0.504,0-2.484,0.685c-1.436,0.496-1.639,2.087-1.424,3.241c-0.717-0.682-1.651-1.237-2.826-1.495
		c-2.791-0.612-4.744,0.216-5.824,2.692s0.566,4.476,1.764,5.538c1.199,1.062,0.092,2.233-0.521,2.241
		c-0.611,0.009-0.764,0.369-0.738,0.793c0.027,0.423,0.082,0.603-0.162,0.611c-0.242,0.008-0.504,0.297-0.629,0.729
		c-0.127,0.432-0.758,0.565-1.217,0.62c-0.459,0.054,0.82,1.162,2.342,0.802s2.359-2.062,2.549-2.746
		c0.188-0.685,0.297-0.812,0.297-0.812s0.719,1.281,2.81,0.604c2.087-0.674,1.675-2.737,1.422-3.097
		c-0.252-0.36-0.595-0.297-0.495-0.047c0.098,0.254,0.145,0.731-0.361,0.722c-0.504-0.008-0.944,0.685-0.944,0.685
		c-0.244-0.442-0.612-0.315-1.333-0.675c-0.721-0.36,0.973-0.831,1.548-1.729c1.476-2.594-0.146-4.322-0.575-4.574
		c-0.434-0.252-0.938-0.144-0.471,0.396c0.469,0.54-0.18,1.008-0.395,1.44c-0.217,0.433,0.25,0.829-0.146,0.829
		s-0.9,0.287-0.756,0.648c0.145,0.359,0.287,1.548-0.973,1.295c-1.26-0.251-2.988-2.053-1.334-4.537
		C87.147,18.169,91.325,19.321,92.696,22.707z M94.28,17.323c0.125-0.059,0.265-0.104,0.418-0.136
		C94.549,17.233,94.409,17.279,94.28,17.323z M93.555,39.704c0.298-0.543,0.498-1.435,0.533-2.39
		c0.032-0.131,0.054-0.213,0.054-0.213c0-1.893-0.554-2.908-1.181-3.475c-0.029-0.027-0.062-0.05-0.091-0.075
		c-0.069-0.057-0.137-0.108-0.209-0.155c-0.034-0.024-0.068-0.049-0.107-0.071c-0.488-0.298-0.963-0.386-1.212-0.446
		c-0.647-0.152-0.974-0.514,0.296-1.495c3.17-2.491,2.883-6.832,2.557-8.552c-0.084-0.458-0.254-0.954-0.502-1.448
		c0.858,0.35,2.035,0.302,2.565-0.755c0.756-1.512-0.576-2.411-1.188-2.377c-0.636,0.037-0.791,1.033-0.072,1.213
		c0,0,0.457,0.432,0.037,0.756c-0.42,0.324-1.621,0.252-1.752-0.792c-0.071-0.556,0.056-1.286,0.529-1.772l0.033,0.007
		c0.829-0.648,5.331-0.324,6.52,4.718c1.189,5.043-0.756,12.894-4.896,17.612C91.325,44.711,92.731,41.218,93.555,39.704z
		 M81.571,33.334c3.742,1.258,4.893,0.753,5.648,0.646c0.756-0.109-1.152,1.979,0.576,3.817c1.729,1.837,4.07,0.144,3.746-1.766
		c-0.324-1.908-2.377-0.54-1.512-0.072c0.863,0.468-1.225,1.946-1.479-0.071c-0.127-1.025,0.859-1.9,1.917-1.926
		c0.399,0.051,1.241,0.256,1.756,1.04c0.13,0.218,0.243,0.474,0.334,0.772c0.063,0.254,0.099,0.539,0.099,0.869
		c0,2.701-2.879,7.705-7.598,9.291c-4.719,1.584-9.434-0.468-10.912-5.511c-0.648-2.054,0.648-3.565,1.402-3.602
		c0.758-0.036-0.07,0.757,0.541,1.334c0.613,0.575,1.154,0.18,1.154,0.18l-1.783,1.781c0,0,0.053,0.38,0.773,0.126
		c0.721-0.25,1.225,0.072,2.125,0.794c0.9,0.719,3.711,1.655,5.223-0.435c1.512-2.088-0.217-4.355-1.01-5.364
		C81.89,34.368,81.099,33.633,81.571,33.334z M82.765,4.051c3.289,0,4.082,2.064,4.32,3.361c0.242,1.297-1.031,3.578-2.855,2.881
		c-1.824-0.695-0.889-2.689,0.168-2.737c1.057-0.047,1.201,0.889,1.344,0.673c0.719-1.076,0.074-2.114-1.656-2.281
		c-1.361-0.133-2.615,1.05-2.711,2.614c-2.4-1.558-4.156,0.245-4.156,1.612c0,1.465,0.771,1.848,0.771,1.008
		c0-0.84,0.119-1.728,1.871-1.728c1.754,0,1.129,2.328,0.023,3.457c-1.104,1.129-5.354,1.777-5.354-2.449S79.476,4.051,82.765,4.051
		z"/>
</g>
</svg>
