<?xml version="1.0" encoding="utf-8"?>
<!-- Generator: Adobe Illustrator 16.0.0, SVG Export Plug-In . SVG Version: 6.00 Build 0)  -->
<!DOCTYPE svg PUBLIC "-//W3C//DTD SVG 1.1//EN" "http://www.w3.org/Graphics/SVG/1.1/DTD/svg11.dtd">
<svg version="1.1" id="Layer_1" xmlns="http://www.w3.org/2000/svg" xmlns:xlink="http://www.w3.org/1999/xlink" x="0px" y="0px"
	 width="50px" height="50px" viewBox="0 0 50 50" enable-background="new 0 0 50 50" xml:space="preserve">
<g>
	<path fill="#BCBCBC" d="M25.037,18.162c-1.229,0-2.224,0.996-2.224,2.224s0.995,2.224,2.224,2.224c1.229,0,2.223-0.996,2.223-2.224
		S26.266,18.162,25.037,18.162z M25.037,21.83c-0.797,0-1.445-0.646-1.445-1.444c0-0.797,0.648-1.445,1.445-1.445
		c0.796,0,1.444,0.648,1.444,1.445C26.481,21.184,25.833,21.83,25.037,21.83z"/>
	<circle fill="#BCBCBC" cx="25.036" cy="29.947" r="0.812"/>
	<circle fill="#BCBCBC" cx="25.037" cy="46.245" r="0.812"/>
</g>
<path fill="#231F20" d="M24.624,14.428c0-0.357-0.39-0.585-0.779-0.585c-0.389,0-0.519-0.486-0.519-0.486
	c-0.357,0.292-0.324,0.909,0.357,0.909c0.683,0,0.584,0.454,0.584,0.454c-1.752,0-1.104,1.786-1.104,1.786s-0.065-0.942,0.942-0.942
	c1.006,0,0.487,1.072,0.487,1.072c-0.585,0-0.552,1.2-0.552,1.2c0.786,0,0.958-0.676,0.997-0.937
	c0.036,0.261,0.209,0.937,0.996,0.937c0,0,0.032-1.2-0.553-1.2c0,0-0.52-1.072,0.487-1.072c1.006,0,0.942,0.942,0.942,0.942
	s0.648-1.785-1.105-1.786c0,0-0.098-0.454,0.585-0.454c0.682,0,0.715-0.617,0.357-0.909c0,0-0.13,0.486-0.52,0.486
	s-0.779,0.228-0.779,0.585c0,0-0.034-0.465-0.402-0.484v-0.002c-0.003,0-0.006,0-0.009,0c-0.004,0-0.008,0-0.011,0v0.002
	C24.658,13.963,24.624,14.428,24.624,14.428z"/>
<g>
	<path fill="#848484" d="M23.112,25.693c1.169,1.17,1.688,1.98,1.688,2.891c0,0,0-1.883,0-3.183c0-1.299-1.364-3.311-2.922-4.739
		c-1.558-1.429-4.09-4.675-0.908-7.144c1.051-0.814,1.831-1.55,2.406-2.258c0.142-0.157,0.45-0.442,0.45,0.083
		c0,0.682,0.357,0.779,0.357,0.779s0-0.616,0-1.071c0-0.455,0.259-0.293,0.259-0.293s0,1.072,0,1.495
		c0,0.422,0.423,0.616,0.423,0.616V6.968c0-0.002,0-0.005,0-0.008c0-2.336,0-2.336,0-2.336s0,1.688-1.688,3.441
		s-2.175,2.175-2.175,4.026c0,0,0.099-0.908,1.136-1.98c1.04-1.072,1.624-1.656,1.624-1.656s-0.227,1.428-3.213,4.351
		c-2.987,2.922-1.462,5.714,0.162,7.825c1.623,2.109,3.441,3.733,3.441,4.999c0,0-1.396-1.493-2.044-2.727
		C22.106,22.902,21.944,24.525,23.112,25.693z"/>
	<path fill="#848484" d="M29.525,12.805c-2.986-2.922-3.215-4.351-3.215-4.351s0.585,0.584,1.624,1.656
		c1.039,1.072,1.137,1.98,1.137,1.98c0-1.851-0.487-2.273-2.176-4.026c-1.688-1.752-1.688-3.441-1.688-3.441s0,0.001,0,1.85l0,0
		v6.396c0,0,0.422-0.194,0.422-0.616c0-0.422,0-1.495,0-1.495s0.26-0.162,0.26,0.293c0,0.455,0,1.071,0,1.071
		s0.356-0.098,0.356-0.779c0-0.526,0.312-0.239,0.451-0.082c0.576,0.706,1.356,1.442,2.406,2.256
		c3.182,2.469,0.65,5.714-0.909,7.144c-1.559,1.428-2.922,3.44-2.922,4.739c0,1.3,0,3.183,0,3.183c0-0.91,0.521-1.721,1.69-2.891
		c1.168-1.168,1.006-2.791,1.006-2.791c-0.649,1.233-2.046,2.727-2.046,2.727c0-1.266,1.818-2.89,3.442-4.999
		C30.986,18.52,32.512,15.727,29.525,12.805z"/>
</g>
<g>
	<path fill="#424242" d="M27.968,8.194c1.07,0.13,1.006-0.713,1.006-0.713c-0.39,0.681-1.07,0.129-1.07,0.129
		c0.324-0.13,0.323-0.551,0.323-0.551c-0.454,0.52-1.299-0.357-1.785-1.494c-0.487-1.136,0.747-2.305,1.331-2.305
		s1.137,0.683,0.26,1.039C27.155,4.656,27.48,5.599,28,5.728c0.52,0.13,0.746-0.487,0.746-0.487
		c-0.162,0.358-0.843,0.13-0.227-0.292c1.024-0.702,0.519-2.078-0.812-2.078c-1.33,0-1.882,1.884-1.882,2.435
		C25.825,6.896,26.896,8.065,27.968,8.194z"/>
	<path fill="#424242" d="M21.554,4.949c0.616,0.422-0.065,0.65-0.227,0.292c0,0,0.226,0.617,0.747,0.487
		c0.519-0.129,0.843-1.072-0.032-1.429C21.164,3.943,21.716,3.26,22.3,3.26c0.585,0,1.818,1.168,1.332,2.305
		c-0.487,1.137-1.332,2.014-1.786,1.494c0,0,0,0.421,0.324,0.551c0,0-0.682,0.552-1.071-0.129c0,0-0.065,0.843,1.007,0.713
		c1.071-0.129,2.143-1.298,2.143-2.889c0-0.551-0.553-2.435-1.884-2.435C21.034,2.871,20.529,4.247,21.554,4.949z"/>
</g>
<g>
	<path fill="#424242" d="M27.357,36.311c-0.364-0.381-0.648-0.697-0.871-0.967c0.65,0.609,1.163,0.869,1.163,0.869
		s-0.162-0.941-0.909-1.785c-0.746-0.844-1.265-1.332-1.265-2.305c0-0.553-0.318-0.805-0.318-0.805s0,1.729,0,2.533
		c0,1.191,0.512,1.559,1.071,2.215c0.562,0.658-0.17,1.242-0.17,1.242s0.427,0.354,0.998-0.219c0,0-0.048,0.438-0.779,1.047
		c-0.363,0.303-0.808,0.754-1.24,1.203c-0.435-0.449-0.878-0.9-1.243-1.203c-0.729-0.609-0.779-1.047-0.779-1.047
		c0.573,0.572,1,0.219,1,0.219s-0.731-0.584-0.171-1.242c0.56-0.656,1.071-1.023,1.071-2.215c0-0.805,0-2.533,0-2.533
		s-0.317,0.252-0.317,0.805c0,0.973-0.519,1.461-1.266,2.305c-0.747,0.844-0.908,1.785-0.908,1.785s0.513-0.26,1.163-0.869
		c-0.224,0.27-0.506,0.586-0.872,0.967c-1.296,1.354,0.396,2.488,1.799,3.57c-0.245,0.25-0.472,0.477-0.664,0.648
		c-0.649,0.586-0.389,1.43-0.389,1.43s-0.909-0.713-0.909-1.688c0,0-1.17,1.104,1.104,3.375c0.325,0.326,0.422,0.812,0.194,1.008
		c0,0,0.65-0.26,0.455-0.877c0,0,0.357,0.846-0.162,1.592c0,0,0.778,0,0.778-0.65s-0.129-1.266-0.681-1.818
		c-0.551-0.551-0.714-1.299,0.715-2.531c0.026-0.023,0.054-0.047,0.082-0.07c0.027,0.023,0.054,0.047,0.081,0.07
		c1.428,1.232,1.267,1.98,0.714,2.531c-0.552,0.553-0.682,1.168-0.682,1.818s0.779,0.65,0.779,0.65
		c-0.52-0.746-0.163-1.592-0.163-1.592c-0.194,0.617,0.456,0.877,0.456,0.877c-0.228-0.195-0.13-0.682,0.194-1.008
		c2.272-2.271,1.104-3.375,1.104-3.375c0,0.975-0.908,1.688-0.908,1.688s0.26-0.844-0.39-1.43c-0.193-0.172-0.42-0.398-0.662-0.648
		C26.963,38.799,28.654,37.664,27.357,36.311z"/>
	<path fill="#424242" d="M24.598,40.133c0.032-0.031,0.067-0.064,0.107-0.104c0.006,0.006,0.013,0.012,0.02,0.018
		C24.641,40.105,24.598,40.133,24.598,40.133z"/>
	<path fill="#424242" d="M24.755,39.633c-0.125-0.09-0.266-0.189-0.424-0.305c-0.779-0.559-1.193-1.217-1.558-1.898
		c0,0,1.236,1.252,2.084,2.096C24.824,39.561,24.789,39.598,24.755,39.633z"/>
	<path fill="#424242" d="M25.037,39.83c-0.024-0.016-0.05-0.033-0.076-0.053c0.024-0.023,0.049-0.049,0.076-0.074
		c0.025,0.025,0.051,0.051,0.075,0.074C25.086,39.797,25.061,39.814,25.037,39.83z"/>
	<path fill="#424242" d="M25.348,40.047c0.006-0.006,0.012-0.012,0.02-0.018c0.039,0.039,0.076,0.072,0.107,0.104
		C25.475,40.133,25.433,40.105,25.348,40.047z"/>
	<path fill="#424242" d="M25.742,39.328c-0.158,0.115-0.3,0.215-0.424,0.305c-0.034-0.035-0.067-0.072-0.102-0.107
		c0.849-0.844,2.085-2.096,2.085-2.096C26.936,38.111,26.521,38.77,25.742,39.328z"/>
</g>
</svg>
