<?xml version="1.0" encoding="utf-8"?>
<!-- Generator: Adobe Illustrator 16.0.0, SVG Export Plug-In . SVG Version: 6.00 Build 0)  -->
<!DOCTYPE svg PUBLIC "-//W3C//DTD SVG 1.1//EN" "http://www.w3.org/Graphics/SVG/1.1/DTD/svg11.dtd">
<svg version="1.1" id="Layer_1" xmlns="http://www.w3.org/2000/svg" xmlns:xlink="http://www.w3.org/1999/xlink" x="0px" y="0px"
	 width="150px" height="150px" viewBox="245 165 150 150" enable-background="new 245 165 150 150" xml:space="preserve">
<path fill="#4D4E4E" d="M377.733,178.449c2.057,1.702,6.014,4.082,8.788,7.434c6.56,7.925,5.096,15.343-4.035,20.001
	c-4.59,2.348-9.786,4.227-14.878,4.749c-14.962,1.539-23.928-9.788-19.683-24.433c0.619-2.121,2.293-4.307,4.09-5.65
	C358.055,176.038,369.118,174.945,377.733,178.449z"/>
<g>
	<path fill="#BCBCBC" d="M319.307,273.667c2.886-5.245,11.012-8.444,13.321-5.854c1.845,2.075,1.919,5.73,2.778,8.688
		c-4.599,1.286-9.162,2.83-13.854,3.5C321.038,280.072,319.807,275.131,319.307,273.667z"/>
	<path fill="#BCBCBC" d="M287.438,230.105c1.953-2.556,2.942-4.814,4.666-5.834c1.63-0.961,4.28-1.279,6.006-0.616
		c1.136,0.433,2.287,3.311,1.928,4.71c-0.956,3.745-2.088,7.8-4.453,10.671c-1.005,1.229-6.807,0.774-7.619-0.588
		C286.601,236.159,287.489,232.529,287.438,230.105z"/>
	<path fill="#BCBCBC" d="M276.586,300.375c-4.648,5.102-13.698,7.129-14.172,4.403c-0.543-3.103,0.599-7.981,2.857-9.822
		C273.166,288.502,270.585,301.051,276.586,300.375z"/>
</g>
</svg>
