<?xml version="1.0" encoding="utf-8"?>
<!-- Generator: Adobe Illustrator 16.0.0, SVG Export Plug-In . SVG Version: 6.00 Build 0)  -->
<!DOCTYPE svg PUBLIC "-//W3C//DTD SVG 1.1//EN" "http://www.w3.org/Graphics/SVG/1.1/DTD/svg11.dtd">
<svg version="1.1" id="Layer_1" xmlns="http://www.w3.org/2000/svg" xmlns:xlink="http://www.w3.org/1999/xlink" x="0px" y="0px"
	 width="100px" height="100px" viewBox="0 0 100 100" enable-background="new 0 0 100 100" xml:space="preserve">
<g>
	<path fill-rule="evenodd" clip-rule="evenodd" fill="#1A1A1A" d="M86.692,59.062c-0.512,0.832-1.021,1.668-1.643,2.387
		c-2.543-2.169-5.883-3.707-8.372-6.04c-0.831-0.779-1.71-1.589-2.277-2.491c-0.407-0.646-0.704-1.487-1.062-2.277
		c-0.35-0.785-0.703-1.648-0.74-2.544c-0.075-1.86,0.568-3.78,1.429-5.033c0.512-0.739,1.294-1.356,1.908-2.066
		c1.238-1.431,2.446-2.739,3.975-3.975c0.689-0.555,1.633-1.13,2.12-1.802c0.355-0.486,0.593-1.143,0.901-1.693
		c1.408-2.509,2.486-7.262,1.007-10.386c-0.261-0.546-0.644-1.092-0.956-1.643c-0.305-0.542-0.581-1.154-0.899-1.642
		c-0.629-0.966-1.649-1.814-2.595-2.648c-0.462-0.408-0.97-0.749-1.484-1.114s-1.04-0.808-1.538-1.06
		c-1.355-0.689-4.053-0.836-6.038-0.69c-4.21,0.314-7.442,1.845-10.704,3.233c-1.1-0.347-1.587-1.309-2.649-1.695
		c0.833-0.696,1.829-1.178,2.809-1.59c2.002-0.842,4.201-1.637,6.517-2.225c2.202-0.558,4.676-0.723,7.154-0.531
		c2.315,0.181,3.757,0.57,5.297,1.589c0.717,0.475,1.418,0.91,2.015,1.378c0.631,0.497,1.194,1.09,1.748,1.641
		c0.597,0.6,1.267,1.123,1.695,1.698c0.47,0.628,0.767,1.425,1.165,2.118c0.386,0.67,0.892,1.339,1.22,2.066
		c1.743,3.884,0.782,9.891-1.22,12.875c-0.707,1.054-1.351,2.279-2.172,3.124c-1.086,1.124-2.513,2.097-3.655,3.233
		c-0.557,0.552-1.087,1.195-1.643,1.803c-0.554,0.603-1.265,1.205-1.644,1.801c-0.65,1.021-0.967,2.553-0.689,3.709
		c0.203,0.841,0.86,2.161,1.326,2.861c1.132,1.7,2.901,2.871,4.663,4.026C83.396,56.6,85.195,57.789,86.692,59.062z"/>
	<path fill-rule="evenodd" clip-rule="evenodd" fill="#1A1A1A" d="M66.027,27.327c-0.997,0.133-1.755,0.505-2.754,0.637
		c-1.392-2.023-3.164-3.52-5.033-5.087c-0.597-0.499-1.294-0.995-1.802-1.537c-0.23-0.244-0.343-0.624-0.584-0.848
		c-0.261-0.244-0.629-0.331-0.9-0.529c-0.347-0.255-0.591-0.652-0.899-0.848c-1.475-0.937-3.396-1.378-5.298-1.906
		c-1.972-0.551-4.189-0.464-6.57-0.32c-1.083,0.067-2.079,0.372-3.125,0.689c-2.915,0.887-5.564,2.057-7.947,3.339
		c-0.817,0.438-1.566,1.012-2.333,1.484c-0.807,0.495-1.62,0.922-2.278,1.482c-0.691,0.587-1.316,1.192-1.958,1.801
		c-1.857,1.754-3.691,4.093-5.298,6.041c-1.155,1.396-1.869,3.029-2.705,4.821c-1.172,2.524-2.341,5.193-3.072,8.265
		c-0.247,1.042-0.542,2.128-0.634,3.126c-0.191,2.024,0.284,3.947,0.582,5.668c0.155,0.902,0.36,1.672,0.635,2.49
		c0.271,0.805,0.427,1.618,0.742,2.331c0.543,1.232,1.454,2.216,2.279,3.18c0.836,0.977,1.565,2.044,2.543,2.859
		c1.34,0.29,3.047,0.547,4.452,0.106c0.871-0.272,1.839-0.95,2.595-1.482c0.583-0.413,1.308-1.073,1.802-1.642
		c0.368-0.428,0.601-0.971,0.954-1.431c2.323-3.063,5.15-6.021,7.575-9.062c0.739-0.923,1.455-1.703,2.332-2.436
		c0.853-0.716,1.819-1.305,2.861-1.909c2.015-1.169,4.125-2.425,6.516-2.967c2.597-0.588,5.475-0.411,8.371,0.211
		c-0.285,0.432-0.824,0.806-1.271,1.219c-0.45,0.416-0.881,0.844-1.271,1.272c-4.977-0.726-8.254,1.326-11.39,3.178
		c-1.007,0.594-1.856,1.132-2.651,1.908c-0.777,0.761-1.348,1.659-2.118,2.385c-1.26,1.735-2.745,3.309-4.133,4.979
		c-1.373,1.651-2.609,3.472-4.134,4.929c-1.015,0.972-2.282,1.654-3.178,2.754c-1.723,1.08-3.962,1.496-6.625,1.113
		c-1.274-0.184-2.206-0.441-2.965-1.113c-0.255-0.223-0.487-0.575-0.742-0.847c-0.727-0.774-1.358-1.623-2.121-2.489
		c-0.986-1.122-1.966-2.466-2.491-3.711c-0.338-0.807-0.546-1.726-0.847-2.596c-0.294-0.856-0.523-1.78-0.688-2.753
		c-0.33-1.972-0.746-4.059-0.583-6.147c0.096-1.237,0.469-2.446,0.741-3.603c0.286-1.199,0.562-2.351,0.901-3.443
		c0.67-2.157,1.808-4.102,2.649-6.041c0.859-1.983,1.872-3.937,3.285-5.405c1.418-1.477,2.634-3.124,3.975-4.662
		c0.644-0.741,1.462-1.441,2.224-2.12c2.263-2.019,5.12-3.567,7.895-5.086c1.979-1.082,4.075-1.788,6.198-2.49
		c1.194-0.394,2.264-0.671,3.497-0.848c1.27-0.18,2.712-0.182,4.079-0.212c3.775-0.081,7.622,1.334,10.334,2.86
		c1.349,1.527,3.125,2.64,4.713,3.974c0.76,0.64,1.551,1.345,2.277,2.067C63.977,24.256,65.293,25.523,66.027,27.327z"/>
	<path fill-rule="evenodd" clip-rule="evenodd" fill="#1A1A1A" d="M51.987,19.857c1.002,0.411,1.866,0.96,2.49,1.749
		c-1.078,0.913-2.536,2.064-3.125,3.551c-0.775,1.955,0.202,3.979,1.431,4.927c0.847,0.653,2.998,0.826,4.661,0.688
		c1.516-0.125,3.254-0.581,4.981-0.899c0.829-0.155,1.679-0.269,2.488-0.426c0.891-0.171,1.798-0.154,2.544-0.371
		c0.215-0.062,0.38-0.217,0.585-0.264c0.481-0.117,1.128-0.097,1.641-0.105c1.929-0.037,3.148,0.377,4.662,0.794
		c0.978,0.269,1.917,0.443,2.755,0.795c1.681,0.702,3.12,1.737,4.61,2.436c-0.616,0.814-1.125,1.737-2.016,2.279
		c-1.369-0.673-2.716-1.656-4.396-2.225c-0.833-0.283-1.704-0.486-2.595-0.742c-0.914-0.264-1.826-0.269-2.81-0.371
		c-0.491-0.052-0.943-0.181-1.696-0.107c-0.521,0.052-1.062,0.178-1.589,0.267c-0.218,0.036-0.464,0.089-0.688,0.158
		c-1.262,0.386-2.951,0.841-4.557,1.115c-2.476,0.418-4.933,0.927-7.841,0.476c-1.598-0.25-2.714-1.259-3.604-2.279
		c-0.303-0.35-0.672-0.717-0.898-1.113c-0.973-1.688-1.237-4.307-0.319-6.358c0.348-0.772,0.883-1.498,1.379-2.12
		C50.608,21.05,51.299,20.488,51.987,19.857z"/>
	<path fill-rule="evenodd" clip-rule="evenodd" fill="#1A1A1A" d="M42.028,26.162c-0.286,0.693-1.091,0.787-1.749,1.112
		c-0.703,0.35-1.296,1.021-1.962,1.538c-0.681,0.526-1.396,1-1.907,1.536c-1.678,1.761-3.05,3.723-4.504,5.615
		c-1.476,1.924-2.428,4.354-3.39,6.73c-1.016,2.505-2.153,4.935-2.224,7.895c-0.042,1.678-0.075,3.188,0.265,4.608
		c0.224,0.948,0.448,1.989,0.794,3.021c0.093,0.282,0.325,0.717,0.315,0.899c-0.02,0.469-0.597,0.921-0.952,1.219
		c-0.411,0.348-0.745,0.783-1.114,0.901c-0.847-1.923-1.475-4.044-1.853-6.359c-0.194-1.178-0.112-2.396-0.054-3.708
		c0.056-1.267,0.055-2.599,0.317-3.761c0.185-0.818,0.56-1.727,0.901-2.597c1.651-4.203,3.44-8.157,6.201-11.284
		c1.115-1.269,2.271-2.6,3.442-3.499c0.249-0.191,0.567-0.276,0.848-0.476c0.338-0.241,0.602-0.595,0.955-0.847
		c0.344-0.251,0.746-0.46,1.113-0.689c0.748-0.47,1.465-1.049,2.171-1.378C40.34,26.312,41.29,25.992,42.028,26.162z"/>
	<path fill-rule="evenodd" clip-rule="evenodd" fill="#1A1A1A" d="M69.05,33.95c0.622,3.098-0.907,5.311-2.227,7.365
		c-0.821,1.276-2.021,2.5-3.073,3.232c-0.479,0.332-1.021,0.551-1.484,0.848c-1.321,0.845-2.552,2.095-3.391,3.496
		c-1.106,0.966-2.096,1.972-3.073,3.233c-0.852,1.097-2.199,2.238-2.172,4.077c0.016,1.011,0.655,2.266,1.06,3.283
		c1.204,3.045,3.323,5.559,5.353,7.686c-0.818,0.543-1.677,1.043-2.544,1.535c-2.615-2.554-4.827-5.819-6.146-9.801
		c-0.284-0.854-0.723-1.65-0.688-2.809c0.075-2.637,1.613-4.271,2.86-5.828c1.229-1.534,2.653-2.986,4.186-4.292
		c0.98-0.834,1.88-1.918,2.914-2.755c1.081-0.873,2.263-1.656,3.072-2.595c0.555-0.642,1.013-1.512,1.537-2.384
		c0.716-1.188,1.466-2.642,0.742-4.028C66.763,33.891,68.094,33.788,69.05,33.95z"/>
	<path fill-rule="evenodd" clip-rule="evenodd" fill="#1A1A1A" d="M62.213,72.841c0.866-0.724,1.913-1.269,2.758-2.015
		c1.974,1.068,4.847,0.982,7.152,0.688c2.462-0.312,4.661-0.925,6.356-1.907c0.876-0.505,1.678-1.059,2.489-1.643
		c1.534-1.103,2.937-2.588,4.187-4.079c1.15-1.376,2.127-2.183,3.072-3.815c0.644-1.109,0.718-2.239,1.007-3.868
		c0.438-2.445,0.507-5.33,0.267-7.736c-0.152-1.514-0.688-3.136-1.221-4.5c-0.538-1.385-1.322-2.722-2.013-3.657
		c-0.413-0.562-0.956-1.027-1.432-1.43c0.669-0.728,1.26-1.53,1.805-2.384c1.61,1.317,3.062,3.372,4.132,5.773
		c1.013,2.279,1.776,5.105,1.854,7.897c0.043,1.566-0.162,3.266-0.265,4.873c-0.196,3.036-0.998,5.95-2.755,7.47
		c-0.154,0.757-0.802,1.145-1.22,1.752c-0.271,0.388-0.416,0.892-0.688,1.269c-0.49,0.678-1.237,1.341-1.908,2.014
		c-0.642,0.646-1.294,1.306-1.96,1.907c-1.351,1.221-2.975,2.289-4.61,3.127c-1.69,0.865-3.687,1.397-6.04,1.749
		c-2.227,0.329-4.858,0.581-7.153,0.053C64.663,74.062,63.516,73.44,62.213,72.841z"/>
	<path fill-rule="evenodd" clip-rule="evenodd" fill="#1A1A1A" d="M53.472,74.694c-0.308-0.972-0.376-1.912,0-2.86
		c1.4-0.177,2.563-0.955,3.76-1.431c1.55-0.614,3.101-1.368,4.399-2.438c0.453-0.374,0.857-0.864,1.271-1.324
		c1.951-2.161,3.547-4.446,3.285-8.795c-0.146-2.408-1.097-4.421-2.119-6.197c-0.732-1.273-1.478-2.514-2.755-3.183
		c0.605-0.859,1.449-1.479,2.331-2.065c2.25,1.949,3.891,4.974,4.981,8.107c0.372,1.077,0.512,2.687,0.528,4.132
		c0.026,2.188-0.329,4.19-1.061,5.723c-0.271,0.571-0.766,1.131-1.164,1.748c-0.386,0.59-0.726,1.188-1.165,1.696
		c-0.86,0.989-1.964,2.104-2.969,2.754c-0.461,0.299-0.999,0.49-1.482,0.794c-0.47,0.296-0.955,0.529-1.432,0.798
		c-0.321,0.179-0.583,0.453-0.9,0.635c-0.765,0.436-1.711,0.779-2.597,1.112C55.476,74.24,54.501,74.622,53.472,74.694z"/>
	<path fill-rule="evenodd" clip-rule="evenodd" fill="#1A1A1A" d="M89.87,65.157c0.623-0.736,1.062-1.659,1.749-2.332
		c0.902,0.748,1.54,1.583,2.172,2.49c1.402,2.012,2.826,4.302,2.702,7.895c-0.02,0.537-0.156,1.272-0.317,1.856
		c-0.687,2.44-1.946,4.598-3.286,6.568c-1.276,1.876-3.133,3.516-5.085,4.77c-0.696,0.446-1.492,0.73-2.172,1.217
		c-2.03,1.452-4.406,2.263-7.047,3.128c-1.808,0.588-3.573,1.027-5.617,1.165c-2.057,0.14-4.083-0.029-6.146-0.267
		c-3.737-0.43-7.236-1.778-10.12-3.39c-1.513-0.845-2.753-1.688-3.814-2.968c-0.49-0.588-0.982-1.24-1.431-1.96
		c-0.557-0.891-1.229-1.809-1.589-2.913c-0.272-0.841-0.369-1.971-0.583-3.021c-0.208-1.024-0.487-2.137-0.583-3.02
		c-0.089-0.843-0.12-1.641-0.265-2.438c-0.272-1.521-0.557-2.994-1.005-4.398c-0.619-1.928-1.18-3.59-3.498-3.814
		c-0.187-0.016-0.401-0.012-0.582,0c-1.551,0.11-2.944,0.732-4.08,1.431c-1.155,0.707-2.163,1.579-2.914,2.541
		c-0.868-0.509-1.728-1.027-2.279-1.853c2.188-2.554,4.99-4.748,9.165-5.034c1.298-0.087,3.008,0.423,4.028,1.061
		c1.765,1.104,2.238,2.651,2.966,4.823c0.617,1.823,0.926,3.729,1.22,5.88c0.144,1.052,0.17,2.126,0.371,3.126
		c0.068,0.338,0.273,0.627,0.369,0.953c0.315,1.04,0.223,2.108,0.585,3.074c0.272,0.726,0.826,1.422,1.271,2.118
		c0.939,1.472,1.783,2.501,3.337,3.443c1.516,0.92,3.039,1.564,4.929,2.226c1.852,0.647,3.653,1.104,6.091,1.324
		c1.185,0.108,2.401,0.254,3.499,0.213c2.187-0.082,4.254-0.6,6.252-1.219c1.887-0.589,3.678-1.275,5.245-2.172
		c0.91-0.523,1.398-1.191,2.542-1.591c1.543-1.098,3.362-2.354,4.61-4.187c0.853-1.247,1.658-2.697,2.278-4.291
		c0.306-0.787,0.649-1.474,0.688-2.437C93.671,69.384,91.59,67.348,89.87,65.157z"/>
	<path fill-rule="evenodd" clip-rule="evenodd" fill="#1A1A1A" d="M46.583,72.203c0.195,0.972,0.434,1.899,0.636,2.863
		c-2.729,0.033-5.221-0.187-7.576-0.85c-1.459-0.409-2.953-0.909-4.029-1.589c-0.499-0.316-0.859-0.869-1.428-1.217
		c-0.278-0.175-0.522-0.352-0.795-0.531c-0.575-0.379-1.213-0.646-1.75-1.113c-0.641-1.073-1.658-1.769-2.383-2.755
		c0.654-0.618,1.436-1.107,2.066-1.749c0.045-0.01,0.049,0.021,0.053,0.053c1.404,1.527,2.284,3.578,4.609,4.186
		C38.555,71.367,42.4,72.276,46.583,72.203z"/>
	<path fill-rule="evenodd" clip-rule="evenodd" fill="#1A1A1A" d="M26.132,79.885c-0.034,0.993-0.342,2.268-0.212,3.445
		c-1.104,0.483-2.139,0.918-3.286,1.323c-1.135,0.404-2.205,1.079-3.285,1.271c-1.506,0.275-3.834,0.15-5.351-0.157
		c-0.705-0.142-1.488-0.458-2.225-0.688c-2.673-0.829-4.38-2.146-6.042-4.133c-0.864-1.034-1.416-2.091-1.907-3.55
		c-0.464-1.388-0.994-4.087-0.316-5.511c0.098-0.207,0.847-1.308,1.058-1.482c0.171-0.144,0.461-0.247,0.637-0.266
		c1.567-0.177,1.739,1.748,0.847,2.542c0.073,3.214,1.095,5.512,2.754,7.314c1.074,1.162,2.436,1.822,4.24,2.382
		c0.865,0.271,1.736,0.56,2.702,0.637c0.947,0.074,2.033,0.162,2.966,0c0.614-0.108,1.269-0.486,1.907-0.742
		C22.479,81.529,24.489,80.878,26.132,79.885z"/>
	<path fill-rule="evenodd" clip-rule="evenodd" fill="#1A1A1A" d="M33.179,72.946c-1.003,2.553-2.803,5.321-2.861,9.007
		c-0.023,1.527-0.029,2.939,0.159,4.396c0.26,2.023,1.535,4.027,3.021,4.928c0.631,0.386,1.82,0.83,2.702,0.954
		c0.49,0.069,1.4,0.013,1.96-0.212c0.645-0.257,1.255-1.294,1.642-2.121c1.541-3.283-0.286-6.489-2.914-7.468
		c-1.484-0.553-3.054-0.913-4.928-1.061c0.09-1.061,0.317-1.978,0.53-2.913c1.152-0.009,2.209,0.315,3.23,0.582
		c1.988,0.517,3.463,1.03,4.824,2.225c1.771,1.558,3.106,4.003,2.647,7.471c-0.045,0.35-0.102,0.698-0.212,1.112
		c-0.388,1.476-1.721,3.768-2.912,4.557c-1.019,0.674-3.268,1.03-4.77,0.688c-0.852-0.193-2.489-0.781-3.232-1.218
		c-1.222-0.721-2.816-2.485-3.497-3.87c-0.738-1.497-0.976-2.982-1.111-4.872c-0.115-1.554,0.093-2.686,0.315-4.186
		c0.143-0.957,0.125-1.959,0.268-2.809c0.196-1.189,0.734-2.381,1.165-3.443c0.497-1.229,0.983-2.324,1.482-3.34
		C31.457,71.949,32.308,72.456,33.179,72.946z"/>
</g>
</svg>
