<?xml version="1.0" encoding="utf-8"?>
<!-- Generator: Adobe Illustrator 16.0.0, SVG Export Plug-In . SVG Version: 6.00 Build 0)  -->
<!DOCTYPE svg PUBLIC "-//W3C//DTD SVG 1.1//EN" "http://www.w3.org/Graphics/SVG/1.1/DTD/svg11.dtd">
<svg version="1.1" id="Layer_1" xmlns="http://www.w3.org/2000/svg" xmlns:xlink="http://www.w3.org/1999/xlink" x="0px" y="0px"
	 width="100px" height="100px" viewBox="0 0 100 100" enable-background="new 0 0 100 100" xml:space="preserve">
<path fill="#231F20" d="M70.379,31.098c0.085-1.104,0.069-1.706-0.189-2.848c0.031-0.064,0.021-0.145-0.037-0.193
	c-0.067-0.059-0.168-0.051-0.227,0.017c-0.91,1.063-1.997,2.207-3.324,3.496c-0.648,0.63-1.304,1.207-1.964,1.729
	c2.435-2.388,4.358-5.821,4.843-8.793c0.375-2.253-0.25-4.554-1.759-6.479c-1.077-1.373-2.555-2.479-4.181-3.188
	c-0.366-0.219-0.744-0.477-1.113-0.767c-0.01-0.011-0.02-0.021-0.033-0.028c-0.005-0.004-0.01-0.008-0.016-0.011
	c-0.375-0.296-0.742-0.625-1.084-0.982c-0.428-0.602-0.64-1.333-0.585-2.111c0.087-1.288,0.899-2.395,2.117-2.887
	c0.044-0.018,0.073-0.056,0.08-0.101c0.007-0.046-0.014-0.091-0.048-0.119c-0.35-0.275-0.803-0.377-1.309-0.296
	c-0.677,0.109-1.393,0.55-1.736,1.065c-0.2,0.25-0.33,0.559-0.392,0.891c-0.036-0.337-0.031-0.68,0.021-1.026
	c0.185-1.212,0.796-2.252,1.679-2.852c0.77-0.523,1.693-0.681,2.67-0.457c0.171,0.041,0.359,0.106,0.558,0.176
	c0.546,0.192,1.163,0.411,1.718,0.137c0.385-0.19,0.613-0.484,0.647-0.828c0.036-0.386-0.183-0.8-0.586-1.108
	c-1.401-1.066-3.448-1.041-4.748-0.464c-1.327,0.588-2.311,1.764-2.769,3.308c-0.545,1.836-0.277,3.976,0.682,5.451
	c0.504,0.778,1.407,1.74,2.443,2.404c-0.499-0.119-1.004-0.2-1.507-0.239c-2.451-0.233-5.76,0.543-7.024,3.492
	c-1.37,2.948,0.569,5.812,3.086,7.008c1.52,0.782,3.514,0.897,4.965,0.289c1.058-0.445,1.794-1.242,2.126-2.312
	c0.345-1.239-0.08-2.514-1.073-3.241c-0.361-0.322-0.937-0.63-1.479-0.536c-0.322,0.058-0.585,0.258-0.758,0.581
	c-0.319,0.61-0.258,1.359-0.199,2.083c0.059,0.73,0.116,1.418-0.252,1.793c-0.263,0.27-0.738,0.38-1.45,0.336
	c-1.602-0.095-3.049-1.161-3.688-2.712c-0.576-1.399-0.341-2.883,0.631-3.972c1.745-1.955,4.671-2.122,6.817-1.312
	c-0.062,0.005-0.125,0.011-0.191,0.02c-1.196,0.008-2.515,0.326-3.289,1.042c-0.525,0.487-0.752,1.094-0.673,1.806
	c0.006,0.066,0.062,0.115,0.127,0.115c0.002,0,0.007,0,0.012-0.002c0.035,0.013,0.073,0.016,0.11,0.001
	c0.286-0.112,0.566-0.23,0.846-0.349c1.166-0.493,2.268-0.958,3.568-0.859c1.844,0.205,3.54,0.959,4.646,2.064
	c0.435,0.483,0.868,1.135,1.089,1.74c-0.615-0.736-1.744-1.218-2.626-1.188c-0.566,0.019-0.981,0.242-1.193,0.622
	c-0.022,0.016-0.043,0.036-0.054,0.063c-0.04,0.086-0.056,0.164-0.062,0.238c-0.006,0.019-0.011,0.036-0.016,0.054
	c-0.008,0.043,0.002,0.087,0.025,0.121c0.062,0.289,0.331,0.499,0.565,0.676c0.132,0.101,0.257,0.196,0.352,0.309
	c0.868,0.869,1.416,1.708,1.626,2.495c0.644,2.315-0.229,4.331-1.268,6.164c-0.482,0.857-0.824,1.39-1.41,2.026
	c0.152-0.898-0.017-1.893-0.518-2.946c-0.038-0.082-0.136-0.114-0.214-0.077c-0.024,0.013-0.044,0.032-0.061,0.052
	c-0.037,0.029-0.062,0.073-0.062,0.125c0,1.405-0.57,2.681-1.647,3.691c-1.979,1.858-5.571,2.722-10.112,2.434
	c-7.724-0.491-16.522,4.08-17.871,12.578c-1.062,6.688,2.897,14.875,6.391,22.101c0.786,1.625,1.528,3.161,2.215,4.672
	c3.79,8.334,3.455,20.714,3.451,20.832c-0.22,3.177-0.012,3.302,0.077,3.355c0.021,0.012,0.045,0.021,0.07,0.022
	c0.006-0.001,0.012,0,0.019,0c0.045,0,0.105-0.012,0.166-0.065c0.364-0.311,0.542-2.434,0.586-3.075
	c0.133-1.792,0.155-3.656,0.073-5.552c0.009-0.021,0.014-0.042,0.013-0.065c-0.041-1.685,0.491-3.635,1.388-5.087
	c0.686-1.128,1.444-1.771,2.387-2.025c0.545-0.154,1.028-0.129,1.364,0.072c0.251,0.153,0.415,0.404,0.485,0.749
	c0.112,0.515-0.102,1.151-0.485,1.5L51.79,85.97c-0.024,0.015-0.056,0.034-0.088,0.056c0.041-0.27-0.024-0.53-0.189-0.715
	c-0.196-0.217-0.5-0.293-0.839-0.202c-0.375,0.117-0.619,0.418-0.674,0.821c-0.065,0.485,0.166,1.017,0.545,1.26
	c0.523,0.359,1.164,0.342,1.806-0.051c0.938-0.572,1.636-1.795,1.522-2.674c-0.102-0.608-0.408-1.107-0.887-1.439
	c-0.621-0.432-1.506-0.578-2.426-0.4c-1.91,0.406-2.961,1.631-3.602,3.107c0.02-0.085,0.037-0.17,0.056-0.26l0.058-0.263
	c0.436-1.981,1.345-3.523,2.667-5.354c0,0,0,0,0.001-0.001c0.084-0.023,0.133-0.114,0.108-0.197
	c-0.023-0.076-0.094-0.118-0.168-0.112c-0.047-0.007-0.091,0.007-0.127,0.036c-1.237,0.399-2.345,1.354-2.989,2.557
	c-0.241-3.979,1.866-7.292,5.492-8.526c0.928-0.31,1.676-0.471,2.352-0.506c0.089-0.004,0.157-0.08,0.151-0.167
	c-0.003-0.075-0.061-0.132-0.131-0.147c-1.041-1.148-3.296-0.458-4.687,0.398c0.381-0.608,0.833-1.017,1.526-1.537
	c0.041-0.03,0.06-0.076,0.061-0.124c0.015-0.025,0.025-0.051,0.025-0.082c-0.003-0.086-0.073-0.156-0.161-0.157l-0.003,0.001
	c-1.033,0.017-2.066,0.341-3.029,0.931c-0.106,0.059-0.203,0.114-0.282,0.162c1.049-2.181,2.989-3.802,5.396-4.485
	c0.005,0,0.009-0.004,0.014-0.007c0.324,0.034,0.524,0.043,0.54,0.043c0.057,0.001,0.129,0.002,0.215,0.002
	c0.578,0,1.791-0.051,3.23-0.406c0.017,0.009,0.034,0.015,0.056,0.018c2.091,0.202,4.468,1.165,5.492,3.229
	c-0.015,0.05-0.007,0.104,0.027,0.146c0.032,0.037,0.058,0.071,0.087,0.108c0.111,0.261,0.206,0.534,0.272,0.828
	c0.329,1.471-0.102,3.267-1.046,4.366c-0.646,0.752-1.477,1.116-2.407,1.051c-0.057-0.001-0.106,0.02-0.139,0.064
	c-0.032,0.044-0.041,0.1-0.023,0.15c0.159,0.431,0.503,0.761,0.973,0.935c0.23,0.086,0.48,0.128,0.728,0.129
	c0.14-0.001,0.277-0.019,0.412-0.044c-0.32,0.28-0.889,0.665-1.704,0.776c-1.884,0.258-2.606-0.809-2.754-1.07
	c0.441-0.198,0.827-0.51,1.073-0.893c0.322-0.506,0.378-1.073,0.163-1.642c-0.354-0.934-1.576-1.403-2.557-1.318
	c-1.145,0.098-1.919,0.824-2.128,1.99c-0.294,1.646,0.606,3.634,1.925,4.253c0.668,0.312,1.41,0.451,2.172,0.451
	c2.177,0,4.51-1.137,5.688-2.639c1.339-1.703,1.348-4.361,0.937-6.199c0.115,0.017,0.23,0.027,0.345,0.026
	c1.038,0.001,1.933-0.678,2.218-1.738c0.064-0.231,0.257-1.039,0.087-1.667c-0.002-0.001-0.003-0.003-0.004-0.005
	c0.008-0.082,0.012-0.168,0.008-0.257c-0.002-0.09-0.077-0.155-0.167-0.155c-0.087,0.005-0.156,0.079-0.153,0.166
	c0.04,1.068-0.889,1.594-1.778,1.631c-0.854,0.077-1.262-0.211-1.854-0.887c-0.002-0.004-0.007-0.004-0.011-0.008
	c-0.864-1.15-2.125-2.035-3.673-2.579c1.041-0.478,2.096-1.146,3.043-2.078c2.336-2.309,3.493-5.695,3.438-10.069
	c-0.034-2.766-0.584-5.005-1.444-6.82c1.293,0.86,4.121,3.042,3.861,5.523c-0.009,0.088,0.055,0.167,0.143,0.176
	c0.006,0.002,0.013,0.001,0.017,0.001c0.081,0.001,0.151-0.061,0.159-0.143c0.003-0.006,0.003-0.011,0.002-0.017
	c0.026-0.015,0.05-0.035,0.065-0.065c0.479-0.897,0.954-1.895,1.046-3.341c0.5-5.43-3.532-8.634-7.748-9.479
	C66.142,39.405,70.139,34.966,70.379,31.098z M53.873,52.404c0.165,0.183,0.455,0.357,0.96,0.357c0.244,0,0.539-0.041,0.895-0.143
	c1.162-0.347,1.982-1.075,2.433-2.163c0.753-1.813,0.294-4.119-0.314-5.602c0.005-0.002,0.009-0.002,0.011-0.003
	c0.08-0.035,0.152-0.09,0.19-0.123c0.004,0.013,0.005,0.032,0.013,0.062c0.012,0.055,0.044,0.166,0.106,0.286
	c0.03,0.057,0.071,0.111,0.116,0.146c0.015,0.013,0.03,0.021,0.048,0.026c0.003,0.008,0.002,0.022,0.005,0.029
	c0.023,0.038,0.054,0.062,0.1,0.064c0.038,0.001,0.066-0.022,0.089-0.058c0.024-0.035,0.044-0.056,0.064-0.092
	c0.042-0.063,0.104-0.136,0.121-0.158c0.038-0.043,0.045-0.053,0.045-0.053s0.006-0.004,0.047-0.056
	c0.004-0.008,0.021-0.028,0.039-0.053c-0.009,0.163-0.029,0.324-0.035,0.375c-0.012,0.131-0.007,0.163-0.007,0.159
	c0,0-0.008,0.026,0.008,0.168c0.005,0.066,0.042,0.319,0.145,0.525c0.082,0.168,0.188,0.301,0.269,0.32
	c0.009,0.029,0.024,0.051,0.05,0.061c0.072,0.024,0.152-0.098,0.238-0.221c0.083-0.127,0.173-0.259,0.198-0.292
	c0.054-0.067,0.065-0.088,0.065-0.088c-0.002-0.001,0.01-0.002,0.067-0.102c0.009-0.017,0.034-0.063,0.059-0.119
	c0.002,0.186-0.04,0.36-0.056,0.412l-0.054,0.165c0,0.003-0.011,0.019-0.071,0.185c-0.025,0.072-0.146,0.373-0.14,0.678
	c0.001,0.239,0.064,0.444,0.133,0.512c0,0.003-0.001,0.007-0.002,0.01c-0.017,0.104,0.019,0.145,0.059,0.16
	c0.038,0.014,0.072-0.048,0.117-0.092c0.042-0.05,0.103-0.117,0.177-0.179c0.148-0.124,0.345-0.256,0.396-0.298
	c0.11-0.085,0.127-0.109,0.127-0.108c-0.001-0.002,0.018-0.004,0.117-0.125c0.004-0.004,0.009-0.012,0.014-0.019
	c-0.071,0.211-0.184,0.38-0.218,0.444l-0.152,0.255c0.002,0.002-0.031,0.032-0.155,0.285c-0.012,0.026-0.041,0.087-0.063,0.147
	c-0.028,0.079-0.053,0.158-0.075,0.256c-0.047,0.194-0.068,0.432-0.066,0.657c0.009,0.39,0.051,0.739,0.12,0.825
	c-0.001,0.037,0.011,0.06,0.032,0.069c0.07,0.029,0.209-0.203,0.424-0.382c0.21-0.186,0.484-0.344,0.556-0.388l0.183-0.11
	l0.178-0.103c0.027-0.018,0.087-0.053,0.164-0.103c-0.11,0.191-0.228,0.34-0.266,0.397l-0.198,0.26c0.001,0-0.033,0.034-0.212,0.277
	c-0.037,0.055-0.146,0.191-0.247,0.387c-0.103,0.192-0.201,0.435-0.266,0.678c-0.136,0.457-0.098,0.914-0.011,0.954
	c-0.035,0.064-0.046,0.117-0.016,0.137c0.058,0.044,0.269-0.151,0.556-0.261c0.28-0.115,0.62-0.188,0.71-0.213
	c0.191-0.047,0.227-0.061,0.227-0.061c-0.001-0.002,0.024-0.002,0.221-0.068c0.037-0.011,0.145-0.049,0.271-0.116
	c-0.036,0.036-0.073,0.071-0.107,0.104c-0.142,0.13-0.258,0.197-0.317,0.229l-0.273,0.155c0.001,0.005-0.045,0.011-0.294,0.188
	c-0.057,0.039-0.207,0.157-0.326,0.337c-0.122,0.179-0.231,0.408-0.307,0.639c-0.131,0.376-0.139,0.758-0.083,0.88
	c-0.035,0.06-0.043,0.107-0.019,0.126c0.058,0.039,0.284-0.151,0.618-0.219c0.325-0.079,0.705-0.112,0.803-0.128
	c0.216-0.028,0.255-0.038,0.255-0.038c-0.001-0.003,0.025,0.003,0.249-0.05c0.059-0.02,0.232-0.057,0.431-0.144
	c-0.232,0.19-0.473,0.311-0.554,0.356l-0.299,0.155c0,0.003-0.047,0.017-0.319,0.169c-0.06,0.034-0.224,0.125-0.396,0.259
	c-0.182,0.138-0.375,0.345-0.51,0.569c-0.073,0.12-0.121,0.223-0.177,0.318c-0.057,0.1-0.107,0.197-0.141,0.286
	c-0.07,0.167-0.048,0.319,0,0.323c-0.011,0.02-0.016,0.037-0.009,0.05c0.018,0.033,0.112,0.018,0.249-0.033
	c0.136-0.051,0.307-0.125,0.48-0.163c0.365-0.054,0.809-0.092,0.916-0.108c0.241-0.029,0.292-0.043,0.287-0.041
	c-0.003-0.003,0.037,0.001,0.281-0.069c0.095-0.025,0.416-0.133,0.723-0.313c-0.341,0.318-0.844,0.53-0.959,0.599l-0.308,0.141
	l-0.332,0.136c-0.124,0.062-0.668,0.225-1.082,0.602c-0.205,0.186-0.344,0.426-0.397,0.611c-0.056,0.19-0.045,0.312-0.004,0.323
	c0.006,0.002,0.011-0.003,0.018-0.006c-0.003,0.008-0.006,0.017,0,0.022c0.036,0.068,0.354-0.062,0.711-0.033
	c0.352,0.02,0.745,0.139,0.852,0.157c0.229,0.053,0.273,0.055,0.272,0.055c0.001-0.002,0.027,0.013,0.269,0.039
	c0.115,0.005,0.54,0.063,0.954-0.089c0.054-0.02,0.105-0.044,0.153-0.075c-0.049,0.054-0.102,0.104-0.165,0.142
	c-0.371,0.245-0.855,0.295-0.979,0.298c-0.269,0.01-0.301,0.001-0.301,0.003c0,0.001-0.048-0.008-0.342-0.008
	c-0.132-0.001-0.661-0.004-1.13,0.17c-0.234,0.084-0.444,0.212-0.574,0.334c-0.093,0.088-0.14,0.159-0.154,0.208
	c-0.025,0.009-0.042,0.021-0.047,0.035c-0.012,0.035,0.082,0.092,0.232,0.119c0.151,0.029,0.333,0.045,0.47,0.14
	c0.169,0.104,0.318,0.23,0.453,0.344l0.177,0.146l0.059,0.052l0.043,0.039l0.215,0.193c0.002,0,0.019,0.024,0.218,0.186
	c0.046,0.037,0.157,0.129,0.32,0.227c0.104,0.062,0.237,0.122,0.379,0.163c-0.434,0.087-0.897-0.127-1.018-0.175l-0.312-0.138
	l-0.316-0.157l-0.41-0.216c-0.096-0.05-0.22-0.109-0.334-0.151c-0.106-0.04-0.246-0.096-0.372-0.127
	c-0.258-0.069-0.519-0.092-0.713-0.065c-0.097,0.014-0.176,0.04-0.229,0.066c-0.041,0.023-0.058,0.047-0.061,0.066
	c-0.023-0.003-0.043,0-0.051,0.011c-0.026,0.03,0.05,0.119,0.168,0.232c0.127,0.114,0.237,0.253,0.337,0.468
	c0.203,0.399,0.391,0.867,0.447,0.984l0.129,0.301l0.097,0.229c-0.054-0.062-0.108-0.126-0.166-0.191
	c-0.388-0.438-0.845-0.859-1.297-1.116c-0.449-0.264-0.866-0.35-1.032-0.374c-0.367-0.058-0.586-0.038-0.708-0.031
	c-0.123,0.01-0.155,0.016-0.155,0.015c0,0-0.023,0.002-0.145,0.02l-0.226,0.031l0.122,0.197c0.054,0.089,0.149,0.25,0.274,0.561
	c0.062,0.146,0.186,0.511,0.325,0.99c0.13,0.431,0.28,0.952,0.488,1.454c-0.023-0.029-0.046-0.06-0.067-0.088
	c-0.384-0.502-0.805-1.013-1.217-1.383c-0.407-0.374-0.802-0.592-0.969-0.67c-0.363-0.172-0.602-0.215-0.733-0.24
	c-0.133-0.023-0.169-0.023-0.169-0.024c0,0-0.021-0.006-0.119-0.012c-0.098-0.006-0.275-0.021-0.583,0.017l-0.23,0.029l0.121,0.202
	c0.028,0.045,0.061,0.098,0.09,0.154c0.082,0.146,0.243,0.53,0.402,1.044c0.126,0.398,0.261,0.873,0.428,1.347
	c-0.266-0.398-0.538-0.786-0.81-1.098c-0.364-0.431-0.725-0.71-0.879-0.815c-0.335-0.233-0.565-0.32-0.692-0.369
	c-0.13-0.051-0.165-0.056-0.166-0.057c0,0-0.022-0.01-0.137-0.04c-0.114-0.026-0.324-0.085-0.701-0.091l-0.232-0.004l0.093,0.215
	l0.027,0.062c0.068,0.152,0.186,0.558,0.273,1.101c0.039,0.22,0.076,0.462,0.115,0.714c-0.09-0.24-0.185-0.469-0.293-0.671
	c-0.229-0.438-0.508-0.729-0.627-0.838c-0.26-0.243-0.444-0.346-0.547-0.407l-0.13-0.069l-0.106-0.053
	c-0.089-0.042-0.25-0.117-0.546-0.202l-0.232-0.068l0.042,0.242l0.014,0.076c0.026,0.141,0.043,0.502,0.005,0.974
	c-0.016,0.246-0.041,0.521-0.062,0.809c-0.018-0.278-0.046-0.549-0.099-0.791c-0.087-0.408-0.237-0.713-0.304-0.833
	c-0.144-0.263-0.26-0.397-0.322-0.474l-0.084-0.094c-0.007,0.007-0.032-0.083-0.493-0.449l-0.046-0.035l-0.227-0.172l-0.011,0.28
	c-0.006,0.15-0.083,0.458-0.23,0.83c-0.032,0.08-0.065,0.166-0.099,0.252c0.012-0.082,0.023-0.16,0.03-0.237
	c0.037-0.344,0.015-0.626-0.001-0.74c-0.032-0.25-0.082-0.395-0.108-0.476c-0.029-0.08-0.039-0.1-0.039-0.1
	s-0.004-0.016-0.037-0.088s-0.089-0.206-0.235-0.412c-0.037-0.053-0.108-0.146-0.21-0.259l-0.166-0.182l-0.086,0.228
	c-0.071,0.195-0.208,0.449-0.393,0.714c-0.107,0.157-0.227,0.321-0.346,0.487c0.04-0.142,0.066-0.256,0.076-0.304
	c0.042-0.2,0.044-0.224,0.045-0.227c-0.001,0,0.012-0.037,0.04-0.245c0.014-0.082,0.046-0.358,0.106-0.625l0.002-0.011l0.001-0.001
	c0.024-0.17,0.091-0.343,0.14-0.487c0.035-0.102,0.051-0.186,0.042-0.234c0.029-0.026,0.044-0.051,0.04-0.074
	c-0.011-0.081-0.339-0.028-0.625,0.137c-0.213,0.113-0.413,0.268-0.531,0.37c0.205-0.339,0.446-0.658,0.521-0.733
	c0.162-0.176,0.193-0.201,0.193-0.202c0,0.003,0.018-0.022,0.199-0.17l0.258-0.214l-0.322-0.053h-0.004
	c-0.063-0.014-0.221-0.038-0.417-0.013c-0.116,0.014-0.244,0.049-0.37,0.103c0.008-0.006,0.013-0.01,0.021-0.017
	c0.233-0.173,0.517-0.319,0.589-0.351l0.192-0.083l0.191-0.068l0.117-0.038l0.154-0.052l-0.06-0.146
	c-0.039-0.094-0.115-0.238-0.273-0.324c-0.157-0.085-0.339-0.078-0.475-0.047c-0.032,0.008-0.062,0.017-0.092,0.026
	c0.747-0.846,1.764-1.283,2.593-1.283c0.553,0,0.96,0.159,1.211,0.471c0.262,0.322,0.347,0.805,0.236,1.323
	c-0.163,0.759-1.149,0.771-1.191,0.771c-0.06,0-0.115,0.034-0.143,0.087c-0.026,0.054-0.021,0.117,0.013,0.167
	c0.563,0.781,1.535,1.081,2.478,0.766c0.938-0.312,1.534-1.118,1.533-2.056c0.141-1.813-0.536-3.253-1.904-4.052
	c-1.472-0.859-3.471-0.758-4.977,0.256c-0.27,0.182-0.516,0.39-0.74,0.617c0.137-0.568,0.119-1.333-0.571-2.024
	c-0.649-0.647-1.406-0.727-1.93-0.678c-0.85,0.078-1.718,0.565-2.165,1.214c-0.449,0.652-0.565,1.681-0.285,2.498
	c0.202,0.582,0.582,0.99,1.074,1.145c0.22,0.07,0.434,0.104,0.637,0.105c0.301,0,0.582-0.077,0.828-0.228
	c0.413-0.253,0.709-0.71,0.795-1.223c0.078-0.475-0.202-0.992-0.667-1.231c-0.41-0.211-0.854-0.139-1.187,0.193
	c-0.003,0.004-0.004,0.008-0.007,0.01c-0.011,0.013-0.022,0.026-0.028,0.043s-0.01,0.034-0.011,0.052
	c0,0.004-0.002,0.006-0.002,0.009c0,0.004,0.002,0.006,0.002,0.009c0.001,0.018,0.004,0.036,0.011,0.053
	c0.006,0.016,0.017,0.03,0.028,0.043c0.002,0.003,0.003,0.007,0.006,0.009c0.003,0.004,0.008,0.006,0.012,0.009
	c0.013,0.01,0.024,0.021,0.04,0.027c0.02,0.008,0.042,0.012,0.062,0.012c0.112,0,0.187,0.059,0.22,0.176
	c0.04,0.139,0,0.343-0.131,0.423c-0.129,0.075-0.273,0.078-0.43,0.007c-0.249-0.115-0.481-0.408-0.527-0.655
	c-0.102-0.927,0.893-1.628,1.872-1.745c0.781-0.093,1.655,0.169,1.786,1.183c0.078,0.661-0.062,1.329-0.407,1.933
	c-0.014,0.025-0.018,0.051-0.019,0.077c-0.52,1.133-0.69,2.522-0.472,4.066c0.699,4.889,4.127,7.135,6.997,8.165
	c-3.455,1.543-5.575,5.294-5.459,9.525c-0.708-2.29-1.552-4.457-2.517-6.41c-2.862-5.787-4.167-10.444-4.179-10.489
	c-0.789-2.958-1.577-7.007-0.854-9.494c1.228-4.534,5.563-7.34,11.043-7.152c2.479,0.055,5.159,1.387,6.673,3.315
	c1.045,1.331,1.445,2.839,1.173,4.376c-0.273-0.151-0.573-0.204-0.876-0.149c-0.442,0.08-0.849,0.386-0.986,0.745
	C53.559,51.721,53.621,52.132,53.873,52.404z"/>
</svg>
