<?xml version="1.0" encoding="utf-8"?>
<!-- Generator: Adobe Illustrator 16.0.0, SVG Export Plug-In . SVG Version: 6.00 Build 0)  -->
<!DOCTYPE svg PUBLIC "-//W3C//DTD SVG 1.1//EN" "http://www.w3.org/Graphics/SVG/1.1/DTD/svg11.dtd">
<svg version="1.1" id="Layer_1" xmlns="http://www.w3.org/2000/svg" xmlns:xlink="http://www.w3.org/1999/xlink" x="0px" y="0px"
	 width="50px" height="50px" viewBox="0 0 50 50" enable-background="new 0 0 50 50" xml:space="preserve">
<g>
	<path fill="#231F20" d="M17.299,6.966c0.307-1.206-1.035-4.141-5.61-2.763C7.116,5.585,7.894,9.125,7.894,9.125
		s-4.66,0.43-5.784,3.708c-1.12,3.279-0.516,4.315,0.521,6.386c-2.589,1.985-2.418,5.587-2.418,5.587s0.629,4.876,5.953,1.749
		c7.842-4.607,13.712-3.462,14.426-3.298c0.007-0.02,0.015-0.039,0.023-0.06C17.629,18.616,16.183,11.342,17.299,6.966z
		 M14.624,18.96c1.051-1.375,5.44,3.62,5.985,4.251c-0.006,0.012-0.01,0.024-0.014,0.037C19.873,22.954,13.565,20.343,14.624,18.96z
		"/>
	<path fill="#231F20" d="M20.615,23.197c-0.008,0.021-0.016,0.04-0.023,0.06c0.048,0.013,0.072,0.02,0.072,0.02
		C20.647,23.249,20.632,23.224,20.615,23.197z"/>
	<path fill="#231F20" d="M20.609,23.211c-0.006,0.012-0.01,0.024-0.014,0.037c0.043,0.017,0.069,0.028,0.069,0.028
		S20.646,23.255,20.609,23.211z"/>
	<path fill="#231F20" d="M34.903,38.203c-6.818-1.293-10.097-9.578-10.097-9.578s1.207,6.561-0.407,6.557
		c-0.854,0-0.37-6.557-0.37-6.557s-2.75,6.842-10.269,9.838c-1.843,0.732-2.332,0.604-3.322,2.588
		c-0.992,1.982,2.114,5.609,8.067,4.4c1.037,3.191,2.503,4.314,5.523,4.314c3.021,0,5.955-3.279,5.695-4.141
		c-0.259-0.865,5.607,1.799,7.939-1.482C40.472,40.191,35.734,38.363,34.903,38.203z"/>
	<path fill="#231F20" d="M45.341,19.134c0,0,2.762-2.502,1.038-6.471c-1.727-3.968-6.473-3.109-6.473-3.109
		s-1.363-3.539-3.796-5.177c-1.185-0.797-5.371-0.535-5.178,1.898c0.948,11.825-3.365,16.482-3.365,16.482s5.436-4.831,6.386-3.363
		c0.95,1.466-6.386,3.363-6.386,3.363s9.32,0.173,14.671,4.847c1.109,0.969,3.794,1.625,5.693-1.914
		C50.231,21.409,45.341,19.134,45.341,19.134z"/>
	<path fill="#231F20" d="M20.377,23.994c-2.706-0.057-6.479,0.307-10.585,2.043C4.268,28.373,2.11,36.736,2.11,36.736l18.708-10.207
		c-0.317-0.549-0.502-1.185-0.502-1.864C20.315,24.435,20.337,24.211,20.377,23.994z"/>
	<path fill="#231F20" d="M20.817,26.529L2.11,36.736c0,0,6.357,3.506,14.585-1.555c3.304-2.031,5.275-4.732,6.421-6.91
		C22.135,28.02,21.311,27.381,20.817,26.529z"/>
	<path fill="#231F20" d="M23.892,0.235l0.443,20.716c0.964,0.073,1.822,0.514,2.441,1.186c1.163-1.465,2.396-4.038,2.776-8.527
		C30.336,4.394,23.892,0.235,23.892,0.235z"/>
	<path fill="#231F20" d="M23.892,0.235c0,0-5.708,5.396-5.473,11.874c0.202,5.531,1.511,8.483,2.854,10.062
		c0.682-0.757,1.669-1.234,2.768-1.234c0.1,0,0.196,0.007,0.293,0.015L23.892,0.235z"/>
	<path fill="#231F20" d="M27.411,26.256c-0.426,0.893-1.189,1.588-2.127,1.92c0.742,2.098,2.792,4.674,6.684,7.439
		c7.184,5.1,14.152,1.465,14.152,1.465L27.411,26.256z"/>
	<path fill="#231F20" d="M27.411,26.256L46.12,37.08c0,0-1.527-7.779-9.32-11.649c-4.191-2.08-7.215-2.047-9.119-1.57
		c0.058,0.259,0.089,0.526,0.089,0.805C27.77,25.236,27.639,25.773,27.411,26.256z"/>
	<path fill="#231F20" d="M23.894,20.937c-1.502,0-2.79,0.886-3.381,2.161c0.038,0.044,0.072,0.084,0.097,0.114
		c-0.006,0.012-0.01,0.024-0.014,0.037c-0.032-0.013-0.076-0.031-0.128-0.053c-0.195,0.451-0.3,0.946-0.3,1.47
		c0,2.059,1.666,3.725,3.727,3.725c2.059,0,3.728-1.666,3.728-3.725C27.621,22.606,25.952,20.937,23.894,20.937z"/>
	<path fill="#231F20" d="M20.609,23.211c-0.025-0.029-0.059-0.069-0.097-0.114c-0.016,0.033-0.032,0.063-0.045,0.098
		c0.052,0.022,0.096,0.04,0.128,0.053C20.599,23.235,20.603,23.224,20.609,23.211z"/>
</g>
</svg>
