<?xml version="1.0" encoding="utf-8"?>
<!-- Generator: Adobe Illustrator 16.0.0, SVG Export Plug-In . SVG Version: 6.00 Build 0)  -->
<!DOCTYPE svg PUBLIC "-//W3C//DTD SVG 1.1//EN" "http://www.w3.org/Graphics/SVG/1.1/DTD/svg11.dtd">
<svg version="1.1" id="Layer_1" xmlns="http://www.w3.org/2000/svg" xmlns:xlink="http://www.w3.org/1999/xlink" x="0px" y="0px"
	 width="100px" height="100px" viewBox="0 0 100 100" enable-background="new 0 0 100 100" xml:space="preserve">
<path fill="#231F20" d="M65.214,24.058c0-3.167-2.565-5.734-5.733-5.734c-0.255,0-0.503,0.018-0.747,0.05
	c-1.79-5.625-7.056-9.699-13.272-9.699c-3.228,0-6.196,1.101-8.558,2.943c0.119-1.319,0.263-2.397,0.438-3.165
	c1.094-0.582,1.839-1.73,1.839-3.055c0-1.911-1.548-3.459-3.459-3.459c-1.911,0-3.459,1.549-3.459,3.459
	c0,1.624,1.121,2.983,2.631,3.355c0.201,1.018,0.36,2.478,0.483,4.25c-2.378,2.499-3.842,5.877-3.842,9.6
	c0,3.896,1.602,7.417,4.18,9.944c-0.092,9.366-0.414,18.138-0.62,19.884c-0.424,3.604,0.991,3.943,0.991,3.943
	c0.001,0,1.417-0.339,0.991-3.943c-0.2-1.704-0.511-10.096-0.612-19.201c1.631,1.382,3.585,2.396,5.733,2.912
	c1.484,10.23,0.595,52.186,0.179,56.782c-0.424,4.7,0.991,5.14,0.992,5.14s1.416-0.439,0.992-5.14
	c-0.396-4.367-1.219-42.48-0.025-55.034c0.952,4.328,4.677,7.614,9.218,7.901c1.959,7.155,0.719,32.847,0.134,35.712
	c-0.609,2.989,1.423,3.271,1.425,3.271c0,0,2.036-0.282,1.425-3.271c-0.594-2.906-1.86-29.319,0.222-36.016
	c4.344-1.133,7.548-5.081,7.548-9.777c0-2.465-0.885-4.723-2.351-6.477C63.882,28.309,65.214,26.339,65.214,24.058z M66.306,11.952
	c-1.305,0-2.366,1.059-2.366,2.366c0,1.308,1.062,2.367,2.366,2.367c1.308,0,2.367-1.059,2.367-2.367
	C68.673,13.011,67.613,11.952,66.306,11.952z M26.527,3.941c-0.553,0-1.001,0.448-1.001,1.001c0,0.553,0.449,1,1.001,1
	c0.553,0,1.001-0.447,1.001-1C27.529,4.389,27.081,3.941,26.527,3.941z M70.859,35.982c-0.604,0-1.095,0.489-1.095,1.093
	c0,0.603,0.491,1.092,1.095,1.092c0.602,0,1.09-0.489,1.09-1.092C71.949,36.471,71.461,35.982,70.859,35.982z"/>
</svg>
