<?xml version="1.0" encoding="utf-8"?>
<!-- Generator: Adobe Illustrator 16.0.0, SVG Export Plug-In . SVG Version: 6.00 Build 0)  -->
<!DOCTYPE svg PUBLIC "-//W3C//DTD SVG 1.1//EN" "http://www.w3.org/Graphics/SVG/1.1/DTD/svg11.dtd">
<svg version="1.1" id="Layer_1" xmlns="http://www.w3.org/2000/svg" xmlns:xlink="http://www.w3.org/1999/xlink" x="0px" y="0px"
	 width="100px" height="100px" viewBox="0 0 100 100" enable-background="new 0 0 100 100" xml:space="preserve">
<g>
	<path fill-rule="evenodd" clip-rule="evenodd" fill="#1A1A1A" d="M95.998,58.813c-0.762-0.556-1.268-1.367-1.851-2.099
		c0.592-0.804,1.663-1.723,2.25-2.85c0.622-1.197,0.988-3.05-0.15-4.1c-0.849-0.26-1.854-0.517-2.799-0.15
		c-1.047,0.405-2.644,1.616-3.15,2.449c-0.276,0.458-0.68,1.446-0.648,1.95c0.043,0.731,1.097,1.642,1.549,2.051
		c0.664,0.596,1.368,1.199,1.851,1.749c0.394,0.45,0.684,0.965,1.048,1.399c0.368,0.441,0.727,0.944,1.102,1.3
		c0.188,0.182,0.484,0.261,0.649,0.449c0.641,0.744,1.016,2.452,0.8,3.75c-0.131,0.785-0.452,1.611-0.7,2.35
		c-1.195,3.577-4.025,5.522-8.099,6.349c-0.622,0.127-1.207,0.366-1.75,0.451c-1.208,0.188-2.404,0.06-3.648-0.051
		c-1.078-0.095-2.281-0.195-3.2-0.55c-0.623-0.239-1.242-0.632-1.85-0.999c-1.173-0.709-1.729-1.246-2.549-2.399
		c-0.514-0.723-1.089-1.164-1.45-2.002c-0.425-0.98-0.688-2.543-1-3.947c-0.493-2.214-0.447-4.651,0.2-6.449
		c0.238-0.664,0.664-1.252,1.048-1.851c0.738-1.145,1.488-2.376,2.2-3.55c0.371-0.607,0.709-1.253,1.101-1.749
		c0.965-1.222,2.351-2.189,3.6-3.15c1.281-0.984,2.597-1.891,3.75-2.948c1.188-1.091,2.58-1.882,3.697-3
		c0.537-0.536,1.033-1.168,1.551-1.799c0.496-0.604,1.146-1.164,1.55-1.8c0.348-0.548,0.647-1.328,1-2.099
		c0.564-1.229,1.263-2.603,1.399-4.25c0.055-0.656-0.027-1.317,0-1.951c0.061-1.345,0.263-2.38-0.15-3.548
		c-0.595-1.683-1.569-3.056-3.049-3.75c-0.416-0.196-0.835-0.433-1.399-0.45c-0.967-0.03-2.363,0.697-3.149,1.25
		c-1.1,0.773-1.926,1.896-2.75,3.149c-1.601,2.435-2.334,5.368-4.049,7.698c-1.537,2.088-3.021,3.492-5.449,4.649
		c-0.958,0.458-2.107,0.748-3.199,1c-2.325,0.538-5.161-0.077-6.799-1.25c-0.431-0.308-0.773-0.913-1.352-1.2
		c-0.302-0.152-0.685-0.286-1.049-0.451c-0.351-0.159-0.684-0.384-1-0.499c-1.938-0.711-3.985,0.036-5.648,0.8
		c-1.421-0.247-2.739-0.595-4.349-0.65c1.227-0.945,2.421-1.581,3.849-2.15c2.169-0.864,4.868-1.517,7.348-0.55
		c0.467,0.181,0.966,0.486,1.451,0.7c0.476,0.209,0.98,0.482,1.35,0.75c0.404,0.294,0.698,0.763,1.149,1.049
		c1.006,0.639,2.407,0.98,3.9,0.851c0.992-0.086,1.979-0.489,2.85-0.851c0.969-0.402,1.925-0.873,2.599-1.449
		c1.627-1.393,2.801-3.355,3.749-5.499c0.694-1.567,1.491-3.11,2.399-4.5c0.318-0.487,0.544-1.025,0.85-1.449
		c0.528-0.729,1.288-1.413,1.999-2c0.728-0.597,1.599-1.198,2.452-1.549c0.618-0.254,1.493-0.364,2.099-0.6
		c0.335-0.13,1.105-0.053,1.399,0c1.501,0.271,2.894,1.068,3.749,1.8c0.499,0.424,1.096,1.155,1.501,1.849
		c0.812,1.399,1.564,2.642,1.649,4.75c0.033,0.833-0.126,1.586-0.151,2.301c-0.022,0.704,0.022,1.419-0.049,2.2
		c-0.119,1.283-0.58,2.58-1.049,3.699c-0.468,1.115-0.964,2.243-1.501,3.2c-0.551,0.983-1.345,1.771-2.049,2.65
		c-0.718,0.895-1.479,1.746-2.25,2.449c-0.814,0.741-1.738,1.351-2.649,2.05c-0.86,0.657-1.696,1.435-2.551,2.149
		c-0.848,0.712-1.807,1.317-2.698,2.001c-0.86,0.657-1.82,1.412-2.449,2.249c-0.374,0.496-0.689,1.135-1.051,1.7
		c-0.885,1.387-1.778,2.712-2.549,4.349c-0.249,0.527-0.522,0.943-0.6,1.65c-0.133,1.224,0.066,2.374,0.35,3.599
		c0.268,1.165,0.427,2.488,0.75,3.25c0.186,0.439,0.671,0.785,1.098,1.349c0.272,0.357,0.414,0.819,0.701,1.101
		c0.321,0.315,0.861,0.587,1.301,0.851c0.461,0.277,0.998,0.63,1.399,0.75c0.637,0.189,1.51,0.196,2.3,0.25
		c1.451,0.098,2.447,0.217,3.85-0.149c2.49-0.651,4.788-1.267,6.049-3.15c0.279-0.42,0.575-1.182,0.8-1.899
		c0.413-1.327,0.729-2.364,0-3.4c-0.152-0.216-0.194-0.291-0.352-0.601c-0.341-0.678-0.808-1.38-1.35-1.8
		c-0.353-0.271-0.836-0.406-1.199-0.699c-0.512-0.412-1.162-1.078-1.748-1.648c-0.598-0.578-1.191-1.325-1.501-1.901
		c-0.278-0.516-0.516-1.219-0.449-2.099c0.037-0.518,0.298-1.179,0.499-1.7c0.571-1.477,1.076-2.133,2.399-3.249
		c0.646-0.545,1.422-1.134,2.05-1.45c2.154-1.084,5.546-0.651,6.899,1.051c0.702,0.883,1.426,2.777,1.051,4.398
		C99.203,55.052,97.66,57.101,95.998,58.813z"/>
	<path fill-rule="evenodd" clip-rule="evenodd" fill="#1A1A1A" d="M44.556,23.72c0.005,0.685-0.433,1.037-0.849,1.349
		c-0.441,0.332-0.857,0.75-1.301,1.001c-0.8,0.453-1.851,0.651-2.899,0.949c-1.088,0.312-2.03,0.608-3.001,0.7
		c-2.076,0.2-4.343,0.07-6.296-0.7c-1.008-0.396-1.86-0.701-2.701-1.148c-0.752-0.403-1.481-0.906-2.35-1.451
		c-0.715-0.451-1.588-0.893-2.449-1.35c-0.995-0.526-2.09-0.958-3.349-0.8c-0.707,0.09-1.512,0.352-2.151,0.602
		c-1.692,0.66-3.246,1.736-4.448,3.048c-0.588,0.644-0.964,1.463-1.45,2.299c-0.466,0.804-1.064,1.549-1.399,2.301
		c-0.223,0.5-0.39,1.147-0.6,1.749c-0.528,1.507-1.214,3.88-1.051,5.9c0.089,1.09,1.23,3.242,2,3.849
		c1.071,0.845,2.336,0.253,3.4-0.451c0.535-0.353,0.917-0.889,1.399-1.398c0.44-0.467,1.021-0.824,1.5-1.25
		c0.958-0.854,1.772-1.868,2.951-2.55c0.999-0.578,2.463-1.018,3.799-1.399c1.374-0.395,2.845-0.847,4.349-0.85
		c0.833-0.002,1.298,0.153,1.849,0.45c0.31,0.168,0.557,0.493,0.9,0.75c0.517,0.385,0.976,0.585,1.401,1.049
		c0.537,0.589,1.082,1.454,1.549,2.25c0.509,0.87,1.058,1.767,1.299,2.45c0.108,0.304,0.115,0.641,0.2,0.949
		c0.336,1.228,1.021,2.326,1.55,3.5c0.868,1.926,1.443,3.662,2.499,5.298c-0.542,0.725-1.453,1.08-2.15,1.651
		c-1.216-1.783-1.989-4.011-2.899-6.1c-0.013-1.11-0.52-1.627-0.951-2.5c-0.286-0.581-0.466-1.199-0.699-1.799
		c-0.498-1.28-1.574-3.134-2.399-4c-0.203-0.21-0.564-0.449-0.901-0.7c-0.357-0.268-0.706-0.604-0.949-0.65
		c-0.517-0.099-1.42,0.127-2.001,0.249c-1.756,0.371-3.67,0.904-5.048,1.65c-0.677,0.367-1.25,0.972-1.85,1.55
		c-0.614,0.588-1.322,1.056-1.852,1.549c-0.638,0.599-0.968,1.219-1.549,1.701c-0.639,0.529-1.919,1.197-2.849,1.5
		c-2.731,0.886-4.77-1.123-5.798-2.901c-0.452-0.781-0.935-1.82-1.151-2.55c-0.352-1.19-0.131-3.154,0.051-4.499
		c0.158-1.153,0.517-2.284,0.851-3.249c0.355-1.038,0.697-2.016,1.2-2.901c0.967-1.704,1.843-3.522,3.198-4.948
		c1.999-2.107,4.642-3.493,7.949-4.25c0.7-0.16,1.958,0,2.697,0.2c1.044,0.281,2.046,0.817,3.052,1.35
		c1.979,1.053,3.479,2.268,5.647,3.15c1.664,0.676,3.37,1.257,5.851,1.05c0.72-0.061,1.437-0.257,2.147-0.351
		c0.734-0.096,1.443-0.226,2.1-0.4C41.887,24.28,43.1,23.654,44.556,23.72z"/>
	<path fill-rule="evenodd" clip-rule="evenodd" fill="#1A1A1A" d="M58.703,42.368c-0.98,0.268-1.647,0.852-2.45,1.299
		c-0.963-1.926-3.69-3.023-6.499-3.101c-0.526-0.013-1.03,0.061-1.55,0.051c-0.504-0.009-0.984-0.116-1.449-0.051
		c-0.352,0.052-0.701,0.208-1.048,0.251c-1.723,0.215-3.35,0.144-4.9,0.6c-1.471,0.433-2.753,0.918-3.95,1.499
		c-0.383-0.799-0.562-1.804-1.049-2.499c2.153-1.3,5.186-2.097,8.648-2.299c1.859-0.109,3.424-0.354,5.55-0.151
		c1.053,0.101,2.248,0.346,3.249,0.5C55.785,38.856,57.716,40.458,58.703,42.368z"/>
	<path fill-rule="evenodd" clip-rule="evenodd" fill="#1A1A1A" d="M48.805,42.267c-0.285,1.484-1.141,3.043-1.9,4.199
		c-0.678,1.031-1.212,2.282-1.851,3.45c-2.083,3.811-5.209,6.553-9.496,8.248c-0.849,0.334-1.822,0.707-2.701,0.8
		c-0.5,0.052-0.995-0.04-1.55-0.05c-0.521-0.009-1.118,0.149-1.549,0.05c-0.434-0.098-0.595-0.52-0.951-0.8
		c-0.008-0.709,0.02-1.381,0.101-2c1.289-0.102,2.594,0.133,3.75,0c0.825-0.094,1.756-0.518,2.55-0.85
		c1.945-0.814,3.324-1.724,4.75-3.149c1.52-1.522,2.603-3.401,3.648-5.448c0.263-0.515,0.521-1.032,0.8-1.5
		c0.534-0.892,1.131-1.669,1.449-2.75C46.744,42.104,47.632,42.244,48.805,42.267z"/>
	<path fill-rule="evenodd" clip-rule="evenodd" fill="#1A1A1A" d="M69.401,53.565c-1.238,0.327-2.538,0.594-3.599,1.101
		c0.451-1.231,1.507-2.583,1.751-4.15c0.079-0.519,0.225-1.208,0.147-1.7c-0.086-0.561-0.501-1.098-0.399-1.799
		c-1-0.494-1.872-1.109-3.099-1.151c-0.768-0.025-1.548,0.18-2.25,0.249c-0.777,0.081-1.415,0.184-2,0.451
		c-1.574,0.722-2.994,1.671-4.199,2.75c-0.595,0.532-1.185,1.099-1.8,1.648c-0.596,0.531-1.116,1.254-1.751,1.699
		c-1.183,0.832-3.059,0.961-4.599,1.351c1.268-2.507,3.741-4.325,5.9-6.399c0.995-0.957,2.271-1.841,3.599-2.549
		c1.336-0.713,2.786-1.493,4.35-1.75c0.926-0.152,1.835-0.113,2.8-0.198c1.09-0.099,2.272,0.439,3.249,0.849
		c0.659,0.274,1.404,0.555,1.8,0.951c0.213,0.209,0.595,0.808,0.699,1.197c0.092,0.342,0.02,0.78,0.101,1.151
		c0.078,0.359,0.353,0.663,0.398,0.951c0.104,0.631-0.07,1.457-0.147,2.199C70.214,51.731,69.89,52.67,69.401,53.565z"/>
	<path fill-rule="evenodd" clip-rule="evenodd" fill="#1A1A1A" d="M31.009,43.217c0.504,0.695,0.685,1.713,1.049,2.549
		c-1.753,1.34-3.105,3.253-4,5.698c-0.342,0.939-0.709,1.954-0.75,3.151c-0.038,1.148-0.249,2.456-0.098,3.649
		c0.062,0.51,0.425,1.226,0.699,1.748c0.48,0.918,1.325,1.772,2.048,2.6c0.712,0.812,1.599,1.483,2.451,2.202
		c1.249,1.052,2.724,1.834,4.399,2.548c0.558,0.238,1.161,0.536,1.649,0.651c1.584,0.373,3.513,0.122,4.85-0.301
		c0.297,0.76,0.376,2.157,0,2.899c-1.895,0.39-4.018,0.58-5.899,0c-1.187-0.364-2.396-1.026-3.599-1.6
		c-1.157-0.553-2.2-1.248-3.15-2.049c-1.457-1.23-2.787-2.353-3.95-3.851c-1.033-1.33-2.133-3.089-2.149-5.448
		c-0.006-0.909,0.052-1.835,0.049-2.751c0-0.809-0.036-1.786,0.151-2.55c0.213-0.869,0.675-1.846,1.049-2.749
		c0.382-0.92,0.789-1.776,1.301-2.5C28.22,45.546,29.272,44.103,31.009,43.217z"/>
	<path fill-rule="evenodd" clip-rule="evenodd" fill="#1A1A1A" d="M60.353,48.266c0.044-0.008,0.049,0.02,0.052,0.051
		c-0.173,1.673-0.865,3.595-1.852,4.75c-0.348,0.407-0.971,0.854-1.499,1.299c-1.229,1.03-2.544,1.98-4.248,2.6
		c-3.055,1.106-8.743,1.708-11.551-0.1c0.688-0.664,1.431-1.271,2.051-1.999c1.014,0.443,2.198,0.485,3.348,0.599
		c0.28,0.027,0.563,0.146,0.852,0.149c0.384,0.005,0.84-0.18,1.299-0.249c0.284-0.043,0.561,0.002,0.799-0.051
		c0.248-0.053,0.462-0.235,0.702-0.3c0.29-0.077,0.6-0.033,0.85-0.101c0.919-0.247,1.768-0.826,2.299-1.399
		c0.579-0.228,1.089-0.642,1.548-1.049c0.458-0.403,1.009-0.752,1.402-1.199c0.188-0.217,0.261-0.529,0.449-0.751
		C57.748,49.466,59.175,49.08,60.353,48.266z"/>
	<path fill-rule="evenodd" clip-rule="evenodd" fill="#1A1A1A" d="M22.909,54.164c-0.108,0.967-0.044,2.126,0.2,2.9
		c-1.558-0.277-2.479-1.052-3.5-1.999c-0.48-0.447-1.019-1.024-1.601-1.251c-0.739-0.287-1.767-0.43-2.698-0.548
		c-1.601-0.206-3.143-0.387-4.399,0.048c-0.508,0.175-1.182,0.612-1.75,1c-1.314,0.896-1.885,1.765-2.701,3.2
		c-0.818,1.441-1.096,2.908-1.249,5.049c-0.069,0.942-0.159,2.041,0.049,2.899c0.112,0.456,0.487,0.905,0.75,1.399
		c0.258,0.486,0.41,0.989,0.75,1.399c0.582,0.706,1.788,1.319,2.999,1.399c1.764,0.12,3.771-0.569,5.399-0.897
		c1.098-0.223,2.008-0.52,3.45-0.401c1.478,0.123,2.663,0.601,3.799,1.2c0.735,0.388,1.589,0.897,2.149,1.749
		c1.391,2.119,0.671,4.885,0.999,7.749c0.103,0.874,0.598,1.542,1,2.3c0.387,0.722,0.764,1.478,1.401,1.898
		c0.442,0.295,0.976,0.339,1.5,0.501c0.522,0.162,1.024,0.399,1.498,0.45c1.038,0.11,2.229-0.042,3.4-0.15
		c1.283-0.117,2.508-0.155,3.45-0.5c0.806-0.294,2.024-1.038,2.699-1.599c1.182-0.981,2.486-2.609,3.25-4.151
		c0.28-0.562,0.663-1.142,0.8-1.647c0.123-0.46,0.127-1.046,0.2-1.601c0.125-0.962,0.252-2.007,0.349-3.149
		c0.082-0.954,0.511-2.043,0.3-3.199c-0.229-1.261-0.833-2.559-1.05-3.899c-0.265-1.643,0.102-3.226,0.55-4.849
		c0.904,0.19,1.828,0.06,2.8,0.149c-0.244,1.229-0.716,2.344-0.65,3.75c0.023,0.513,0.252,1.001,0.299,1.498
		c0.045,0.458-0.043,0.916,0,1.399c0.047,0.534,0.305,1.096,0.401,1.65c0.376,2.178,0.095,4.856-0.25,7.149
		c-0.088,0.581-0.084,1.18-0.199,1.7c-0.099,0.436-0.415,1.036-0.652,1.549c-0.651,1.42-1.61,2.806-2.548,3.9
		c-1.046,1.221-2.047,2.135-3.5,2.999c-1.449,0.863-2.802,1.4-5.248,1.6c-1.909,0.155-3.456,0.406-5.25,0.1
		c-0.573-0.097-1.312-0.382-1.951-0.601c-1.896-0.648-2.999-1.576-3.898-3.249c-0.517-0.961-1.18-2.039-1.399-3.148
		c-0.274-1.378-0.003-3.193-0.102-4.75c-0.042-0.685-0.153-1.578-0.449-2.149c-0.173-0.33-0.75-0.779-1.151-1
		c-1.106-0.61-2.709-1.018-3.849-0.9c-0.536,0.057-1.14,0.279-1.749,0.4c-2.638,0.526-6.11,1.625-8.749,0.251
		c-0.326-0.171-0.726-0.488-1.1-0.75c-0.96-0.67-1.388-1.42-2-2.549c-0.488-0.906-1.046-1.57-1.25-2.701
		c-0.192-1.082-0.09-2.383,0-3.599c0.093-1.253,0.236-2.482,0.5-3.5c0.255-0.981,0.738-1.81,1.25-2.75
		c0.994-1.831,1.752-2.833,3.449-3.949c0.707-0.464,1.473-1.008,2.1-1.249c0.707-0.273,1.824-0.398,2.5-0.451
		c1.162-0.088,2.344,0.14,3.499,0.3c1.188,0.166,2.354,0.332,3.3,0.701C20.685,51.899,21.583,53.328,22.909,54.164z"/>
	<path fill-rule="evenodd" clip-rule="evenodd" fill="#1A1A1A" d="M72.25,54.866c-0.57,0.877-1.024,1.873-1.449,2.897
		c-0.99,0.091-1.739,0.645-2.698,0.751c-0.259,0.027-0.522-0.062-0.801,0c-0.601,0.131-1.354,0.573-2,0.95
		c-0.644,0.375-1.328,0.714-1.899,1.049c-2.591,1.521-4.721,2.938-7.35,4.449c-0.622,0.358-1.315,0.64-1.948,1.001
		c-1.462,0.829-2.865,1.451-4.45,2.148c-0.047-1.086-0.516-1.749-0.6-2.799c2.478-1.058,4.842-2.307,7.099-3.65
		c0.947-0.562,1.948-1.005,2.9-1.65c0.744-0.504,1.498-1.004,2.35-1.447c0.418-0.221,0.792-0.487,1.2-0.7
		c0.395-0.209,0.83-0.286,1.199-0.501c0.206-0.12,0.343-0.33,0.55-0.449c0.748-0.436,1.865-0.611,2.85-0.951
		c1.023-0.352,2.105-0.438,3.1-0.699C70.787,55.137,71.413,54.697,72.25,54.866z"/>
	<path fill-rule="evenodd" clip-rule="evenodd" fill="#1A1A1A" d="M77.701,56.865c1.131,0.873,2.569,1.672,4.349,2.099
		c1.754,0.423,3.316,0.799,5.548,0.7c0.202-0.009,0.457-0.091,0.701-0.05c0.529,0.09,0.991,0.777,1.449,1.101
		c0.512,0.359,1.188,0.55,1.301,1.098c-1.973,0.551-4.285,0.887-6.45,0.551c-0.577-0.09-1.183-0.279-1.8-0.399
		c-1.433-0.277-2.478-0.593-3.649-1.1c-1.021-0.441-1.848-0.669-2.498-1.351C76.781,58.413,77.367,57.764,77.701,56.865z"/>
	<path fill-rule="evenodd" clip-rule="evenodd" fill="#1A1A1A" d="M55.754,74.562c0.361,0.435,0.498,1.169,0.75,1.849
		c0.238,0.646,0.584,1.352,0.6,1.9c0.022,0.71-0.401,1.309-0.5,1.85c-0.095,0.525-0.089,1.099-0.149,1.651
		c-0.289,2.607-0.504,5.62,0.649,7.598c0.218,0.373,0.479,0.724,0.7,1.1c0.227,0.388,0.36,0.854,0.601,1.15
		c0.483,0.599,1.729,1.078,2.6,1.548c0.457,0.251,0.924,0.49,1.398,0.702c0.515,0.228,1.021,0.505,1.4,0.649
		c1.058,0.4,2.531,0.433,2.85,1.399c0.322,0.976-0.31,1.869-1.15,1.95c-0.709,0.068-1.81-0.496-2.449-0.701
		c-1.628-0.52-2.856-1.298-4.249-2.049c-1.062-0.572-1.943-0.986-2.6-1.799c-0.297-0.368-0.518-0.896-0.8-1.399
		c-0.248-0.44-0.604-0.859-0.851-1.301c-1.131-2.039-1.208-4.476-1-7.299c0.099-1.321,0.084-2.746,0.351-3.948
		c0.098-0.438,0.317-0.938,0.449-1.45C54.703,76.592,55.173,75.692,55.754,74.562z"/>
	<path fill-rule="evenodd" clip-rule="evenodd" fill="#1A1A1A" d="M64.353,61.812c-0.623,0.855-1.606,2.329-2.299,3.501
		c-0.233,0.394-0.567,0.711-0.8,1.101c-1.083,1.798-1.951,3.609-1.8,6.249c0.029,0.517-0.088,0.953,0,1.447
		c0.079,0.45,0.352,1.143,0.6,1.65c0.665,1.369,1.813,1.881,3.647,2.15c0.516,0.074,1.435,0.125,1.851-0.102
		c0.25-0.134,0.435-0.659,0.65-0.999c0.246-0.387,0.496-0.645,0.649-1c0.611-1.412,0.275-3.597-0.35-4.499
		c-0.267-0.383-0.987-0.828-1.3-0.899C63.4,70,61.969,71.051,60.953,71.763c0.188-1.579,0.87-2.663,1.398-3.901
		c1.997-0.513,3.766-0.256,5.051,0.603c1.856,1.239,2.977,3.692,2.448,6.998c-0.169,1.072-0.676,1.851-1.199,2.649
		c-0.402,0.617-0.698,1.476-1.249,1.9c-0.472,0.361-1.387,0.626-2,0.699c-2.224,0.265-4.82-0.555-6.349-1.7
		c-0.006-0.562-0.557-0.937-0.801-1.449c-0.401-0.851-0.667-1.919-1.049-2.799c-0.145-0.332-0.437-0.599-0.549-0.9
		c-0.094-0.245-0.12-0.587-0.201-0.851c-0.447-1.442,0.258-3.283,0.85-4.548c0.517-1.108,1.118-2.131,1.6-3.201
		C60.696,64.09,62.559,62.985,64.353,61.812z"/>
</g>
</svg>
