<?xml version="1.0" encoding="utf-8"?>
<!-- Generator: Adobe Illustrator 16.0.0, SVG Export Plug-In . SVG Version: 6.00 Build 0)  -->
<!DOCTYPE svg PUBLIC "-//W3C//DTD SVG 1.1//EN" "http://www.w3.org/Graphics/SVG/1.1/DTD/svg11.dtd">
<svg version="1.1" id="Layer_1" xmlns="http://www.w3.org/2000/svg" xmlns:xlink="http://www.w3.org/1999/xlink" x="0px" y="0px"
	 width="640px" height="640px" viewBox="0 0 640 640" enable-background="new 0 0 640 640" xml:space="preserve">
<path fill="#231F20" d="M429.951,231.441c0-21.134-17.136-38.269-38.271-38.269c-1.688,0-3.349,0.119-4.982,0.337
	c-11.947-37.533-47.075-64.726-88.564-64.726c-21.538,0-41.347,7.347-57.107,19.638c0.794-8.799,1.758-15.998,2.923-21.119
	c7.296-3.878,12.272-11.548,12.272-20.386c0-12.749-10.333-23.086-23.082-23.086c-12.751,0-23.085,10.338-23.085,23.086
	c0,10.839,7.482,19.905,17.559,22.387c1.343,6.789,2.403,16.536,3.223,28.361c-15.874,16.67-25.641,39.219-25.641,64.06
	c0,26.002,10.688,49.49,27.894,66.359c-0.617,62.496-2.766,121.032-4.138,132.681c-2.832,24.055,6.61,26.318,6.613,26.318
	c0.007,0,9.452-2.264,6.618-26.318c-1.339-11.366-3.414-67.37-4.091-128.122c10.889,9.224,23.929,15.984,38.261,19.43
	c9.902,68.27,3.969,348.249,1.196,378.916c-2.835,31.352,6.61,34.306,6.614,34.306c0.005,0,9.445-2.954,6.616-34.306
	c-2.637-29.142-8.128-283.481-0.167-367.254c6.353,28.88,31.208,50.814,61.51,52.734c13.065,47.741,4.799,219.189,0.893,238.311
	c-4.073,19.949,9.5,21.831,9.509,21.831c0.007,0,13.58-1.882,9.507-21.831c-3.967-19.403-12.415-195.657,1.481-240.346
	c28.976-7.556,50.361-33.896,50.361-65.24c0-16.446-5.897-31.52-15.681-43.22C421.059,259.807,429.951,246.664,429.951,231.441z
	 M437.24,150.651c-8.725,0-15.795,7.069-15.795,15.792c0,8.725,7.07,15.794,15.795,15.794c8.719,0,15.789-7.069,15.789-15.794
	C453.029,157.721,445.958,150.651,437.24,150.651z M171.783,97.198c-3.689,0-6.681,2.987-6.681,6.68
	c0,3.692,2.992,6.679,6.681,6.679c3.692,0,6.685-2.987,6.685-6.679C178.467,100.185,175.475,97.198,171.783,97.198z
	 M467.611,311.013c-4.029,0-7.289,3.263-7.289,7.29c0,4.029,3.26,7.294,7.289,7.294c4.025,0,7.287-3.265,7.287-7.294
	C474.898,314.275,471.636,311.013,467.611,311.013z"/>
</svg>
