<?xml version="1.0" encoding="utf-8"?>
<!-- Generator: Adobe Illustrator 16.0.0, SVG Export Plug-In . SVG Version: 6.00 Build 0)  -->
<!DOCTYPE svg PUBLIC "-//W3C//DTD SVG 1.1//EN" "http://www.w3.org/Graphics/SVG/1.1/DTD/svg11.dtd">
<svg version="1.1" id="Layer_1" xmlns="http://www.w3.org/2000/svg" xmlns:xlink="http://www.w3.org/1999/xlink" x="0px" y="0px"
	 width="100px" height="100px" viewBox="0 0 100 100" enable-background="new 0 0 100 100" xml:space="preserve">
<path fill="#CCCCCC" d="M93.575,52.505c0.562-1.851-1.794,2.872-2.193,8.775c-0.141,2.094,1.915,6.861-1.914,7.659
	s-12.525,0.877-14.679,8.297c-1.38,4.75,1.916,18.714,1.916,18.714s-8.299-10.577-8.299-15.203c0-4.628,6.342-20.743,12.585-24.892
	s11.719-9.678,12.571-8.349C94.413,48.835,92.896,54.739,93.575,52.505z"/>
<path fill="#FFFFFF" d="M0.381,9c0,0,36.591,1.915,62.759,17.87c26.167,15.956,29.997,18.083,30.423,20.637
	c0.426,2.553-9.148,8.51-14.893,14.041c-5.744,5.53-10.85,15.104-7.872,22.976c2.979,7.871,7.021,12.977,7.021,12.977
	S60.161,81.119,61.225,69.419c1.064-11.701,1.636-22.029-4.68-29.785C39.738,18.999,0.381,9,0.381,9z"/>
</svg>
