<?xml version="1.0" encoding="utf-8"?>
<!-- Generator: Adobe Illustrator 16.0.0, SVG Export Plug-In . SVG Version: 6.00 Build 0)  -->
<!DOCTYPE svg PUBLIC "-//W3C//DTD SVG 1.1//EN" "http://www.w3.org/Graphics/SVG/1.1/DTD/svg11.dtd">
<svg version="1.1" id="Layer_1" xmlns="http://www.w3.org/2000/svg" xmlns:xlink="http://www.w3.org/1999/xlink" x="0px" y="0px"
	 width="100px" height="100px" viewBox="0 0 100 100" enable-background="new 0 0 100 100" xml:space="preserve">
<g>
	<polygon fill="#E6E6E6" points="39.227,87.803 49.953,93.996 60.678,87.803 49.952,81.61 	"/>
	<polygon fill="#E6E6E6" points="39.224,25.908 49.95,32.102 60.676,25.908 49.949,19.715 	"/>
</g>
<g>
	<polygon fill="#999999" points="39.227,87.803 39.227,93.996 49.952,100.188 49.953,93.996 	"/>
	<polygon fill="#999999" points="7.052,50.677 7.052,63.064 17.778,69.257 17.779,56.871 	"/>
	<polygon fill="#999999" points="39.222,69.225 39.222,81.611 49.948,87.803 49.949,75.418 	"/>
	<polygon fill="#999999" points="7.044,63.032 7.044,75.418 17.771,81.61 17.771,69.225 	"/>
</g>
<polygon fill="#E6E6E6" points="71.295,50.677 71.295,63.064 82.021,69.257 82.021,56.871 "/>
<polygon fill="#E6E6E6" points="28.505,50.677 28.505,63.064 17.779,69.257 17.779,56.871 "/>
<polygon fill="#E6E6E6" points="82.022,19.715 82.022,32.102 71.297,38.293 71.296,25.908 "/>
<g>
	<polygon fill="#666666" points="60.677,25.907 60.677,32.102 49.951,38.293 49.95,32.101 	"/>
	<polygon fill="#666666" points="60.676,7.33 60.676,19.716 49.949,25.908 49.949,13.523 	"/>
</g>
<polygon fill="#E6E6E6" points="17.779,19.714 17.779,32.102 28.504,38.293 28.505,25.908 "/>
<g>
	<g>
		<polygon fill="#666666" points="60.68,87.803 60.68,93.996 49.954,100.188 49.953,93.996 		"/>
		<polygon fill="#666666" points="92.747,50.677 92.747,63.064 82.021,69.257 82.021,56.871 		"/>
		<polygon fill="#666666" points="60.676,69.225 60.676,81.611 49.949,87.803 49.949,75.418 		"/>
		<polygon fill="#666666" points="17.771,81.61 17.771,69.225 92.855,25.939 92.855,38.324 		"/>
	</g>
	<polygon fill="#666666" points="39.231,19.714 39.231,32.102 28.506,38.293 28.505,25.908 	"/>
</g>
<polygon fill="#666666" points="92.855,63.032 92.855,75.418 82.13,81.61 82.13,69.225 "/>
<g>
	<polygon fill="#999999" points="39.224,25.907 39.224,32.102 49.949,38.293 49.95,32.101 	"/>
	<polygon fill="#999999" points="39.222,7.33 39.222,19.716 49.948,25.908 49.949,13.523 	"/>
	<polygon fill="#999999" points="60.569,19.715 60.569,32.102 71.296,38.293 71.296,25.908 	"/>
</g>
<g>
	<polygon fill="#E6E6E6" points="71.295,50.677 82.021,56.871 92.746,50.677 82.021,44.486 	"/>
	<polygon fill="#E6E6E6" points="7.052,50.677 17.779,56.871 28.504,50.677 17.778,44.486 	"/>
	<polygon fill="#E6E6E6" points="60.569,19.715 71.296,25.908 82.021,19.715 71.296,13.522 	"/>
	<polygon fill="#E6E6E6" points="39.222,69.225 49.949,75.418 60.674,69.225 49.948,63.032 	"/>
	<polygon fill="#E6E6E6" points="39.222,7.33 49.949,13.523 60.674,7.33 49.948,1.137 	"/>
	<polygon fill="#E6E6E6" points="17.779,19.714 28.505,25.908 39.23,19.714 28.504,13.522 	"/>
	<polygon fill="#E6E6E6" points="7.044,63.032 82.13,19.746 92.855,25.939 17.771,69.225 	"/>
	<polygon fill="#E6E6E6" points="92.855,63.032 17.771,19.746 7.044,25.939 82.13,69.225 	"/>
</g>
<polygon fill="#999999" points="82.13,81.61 82.13,69.225 7.044,25.939 7.044,38.324 "/>
</svg>
