<?xml version="1.0" encoding="utf-8"?>
<!-- Generator: Adobe Illustrator 16.0.0, SVG Export Plug-In . SVG Version: 6.00 Build 0)  -->
<!DOCTYPE svg PUBLIC "-//W3C//DTD SVG 1.1//EN" "http://www.w3.org/Graphics/SVG/1.1/DTD/svg11.dtd">
<svg version="1.1" id="Layer_1" xmlns="http://www.w3.org/2000/svg" xmlns:xlink="http://www.w3.org/1999/xlink" x="0px" y="0px"
	 width="1000px" height="1000px" viewBox="0 0 1000 1000" enable-background="new 0 0 1000 1000" xml:space="preserve">
<g>
	<path fill="#999999" d="M519.347,729.27L325.111,617.127c-14.681-8.475-38.505-8.484-53.104,0L79.032,729.272
		c-14.586,8.476-14.508,22.284,0.173,30.76l194.236,112.142c14.696,8.486,38.52,8.477,53.105,0L519.52,760.03
		C534.119,751.545,534.043,737.755,519.347,729.27"/>
</g>
<g>
	<path fill="#999999" d="M974.582,480.188L653.041,294.545c-24.305-14.029-63.743-14.045-87.912,0L245.677,480.193
		c-24.146,14.031-24.017,36.889,0.286,50.92l321.543,185.642c24.326,14.048,63.766,14.032,87.911,0l319.451-185.646
		C999.036,517.063,998.91,494.235,974.582,480.188"/>
</g>
<g>
	<path fill="#999999" d="M519.347,260.417L325.111,148.275c-14.681-8.475-38.505-8.484-53.104,0L79.032,260.42
		c-14.586,8.476-14.508,22.284,0.173,30.76l194.236,112.142c14.696,8.486,38.52,8.476,53.105,0L519.52,291.178
		C534.119,282.692,534.043,268.903,519.347,260.417"/>
</g>
</svg>
