<?xml version="1.0" encoding="utf-8"?>
<!-- Generator: Adobe Illustrator 16.0.0, SVG Export Plug-In . SVG Version: 6.00 Build 0)  -->
<!DOCTYPE svg PUBLIC "-//W3C//DTD SVG 1.1//EN" "http://www.w3.org/Graphics/SVG/1.1/DTD/svg11.dtd">
<svg version="1.1" id="Layer_1" xmlns="http://www.w3.org/2000/svg" xmlns:xlink="http://www.w3.org/1999/xlink" x="0px" y="0px"
	 width="1000px" height="1000px" viewBox="0 0 1000 1000" enable-background="new 0 0 1000 1000" xml:space="preserve">
<path fill="#BA0F1C" d="M821.324,545.033c-8.145-11.764-48.867-21.72-61.537-24.435c-12.672-2.714,12.437-45.822,17.195-58.823
	c12.499-34.162,20.812-155.479,15.624-208.642c-1.386-32.5-6.271-81.532-22.641-106.515
	c-25.791-39.366-59.728-87.556-128.278-87.556s-106.419,12.514-122.85,45.475c-6.966,13.974-10.819,24.628-11.771,32.588
	c-88.475,5.826-181.464,42.557-229.855,60.397c-49.095,18.1-86.651,54.298-102.94,80.543
	c-16.289,26.244,29.864,46.153,64.254,66.967c34.39,20.814,160.914,68.164,192.759,69.682c27.63,1.317,44.669-0.408,101.061-0.191
	c5.425,0.683,10.176,1.626,13.869,2.906c50.903,17.647,26.244,64.14,14.026,82.466c-12.216,18.325-75.678,39.366-80.09,62.783
	c-4.411,23.415-0.339,37.669,24.774,52.601c25.113,14.931,84.162-9.163,126.582-14.253c42.421-5.091,109.615,14.253,129.638,37.33
	c20.022,23.076,1.358,54.636-25.792,72.963c-27.149,18.326-66.175-6.109-71.266-11.539c-5.091-5.429,10.182-12.896,10.182-12.896
	s-3.734,0.34-12.558,4.411c-8.824,4.073,1.357,22.399,10.859,28.507c9.502,6.109,29.3,32.468,126.13-20.021
	C895.532,647.295,829.47,556.797,821.324,545.033z M533.091,106.574c10.182-14.931,40.046-41.402,64.479-32.579
	c19.183,6.927,33.959,32.311,50.355,52.46c-32.82,0.132-69.277,4.881-106.714,8.195C534.348,125.467,527.258,115.13,533.091,106.574
	z"/>
</svg>
