<?xml version="1.0" encoding="utf-8"?>
<!-- Generator: Adobe Illustrator 16.0.0, SVG Export Plug-In . SVG Version: 6.00 Build 0)  -->
<!DOCTYPE svg PUBLIC "-//W3C//DTD SVG 1.1//EN" "http://www.w3.org/Graphics/SVG/1.1/DTD/svg11.dtd">
<svg version="1.1" id="Layer_1" xmlns="http://www.w3.org/2000/svg" xmlns:xlink="http://www.w3.org/1999/xlink" x="0px" y="0px"
	 width="50px" height="50px" viewBox="0 0 50 50" enable-background="new 0 0 50 50" xml:space="preserve">
<g>
	<path fill="#231F20" d="M21.825,35.482c-2.007-1.974-3.076-8.099,5.399-9.974c6.673-1.541,12.38,11.026,1.724,14.264
		c-10.181,3.093-14.512-5.062-13.723-10.364c0.476-3.187,2.625-7.725,7.2-11.174c4.575-3.45,7.5-6.9,5.774-11.85
		c-0.299-0.975-1.273-1.425-2.024-0.15c-0.75,1.275-1.95,3.375-1.5,8.024c0.451,4.65,4.274,26.099,4.425,27.149
		c0.15,1.049,1.029,6.521-3.224,7.949c-4.304,1.446-6.695-0.36-6.546-3.286c0.151-2.924,4.37-3.28,5.345-0.73
		c0.974,2.55-0.562,2.98-0.562,2.98s-0.413,0.132,0.562-0.168c2.115-0.651,3.656-2.645,2.326-10.721
		c-1.783-10.828-3.75-21.149-4.05-22.949c-0.301-1.799-0.825-13.274,3.525-14.1C30.824-0.44,31.5,11.259,29.55,15.309
		c-1.949,4.05-6.02,7.421-8.871,9.895c-2.85,2.476-5.454,9.679,0.246,12.455c5.7,2.774,9.159-0.853,9.899-2.25
		c0.938-1.767,1.2-5.399-3.074-6.375c-4.275-0.975-6.375,3.9-4.725,5.7C24.449,36.285,23.154,36.791,21.825,35.482z"/>
</g>
</svg>
