<?xml version="1.0" encoding="utf-8"?>
<!-- Generator: Adobe Illustrator 16.0.0, SVG Export Plug-In . SVG Version: 6.00 Build 0)  -->
<!DOCTYPE svg PUBLIC "-//W3C//DTD SVG 1.1//EN" "http://www.w3.org/Graphics/SVG/1.1/DTD/svg11.dtd">
<svg version="1.1" id="Layer_1" xmlns="http://www.w3.org/2000/svg" xmlns:xlink="http://www.w3.org/1999/xlink" x="0px" y="0px"
	 width="100px" height="100px" viewBox="0 0 100 100" enable-background="new 0 0 100 100" xml:space="preserve">
<path fill="#FFFFFF" d="M65.102,99.934c-1.176-0.865-40.34-41.253-43.229-46.427C18.984,48.333,6.263,9.418,7.266,6.73
	c1.125-3.017,1.773-8.008,5.966-3.816c4.192,4.192,26.876,37.195,31.713,45.258s22.456,45.339,23.542,48.375
	C70.048,100.901,66.402,100.89,65.102,99.934z"/>
<path fill="#CCCCCC" d="M11.728,0.442c2.983,0.564,20.719,6.763,34.615,16.555c14.378,10.132,31.66,25.532,33.433,30.531
	c1.774,4.998-9.514,50.794-11.288,52.245c-1.773,1.451-22.938-39.709-28.884-49.202C33.658,41.077,8.903,5.356,8.622,3.464
	C8.342,1.57,10.482,0.206,11.728,0.442z"/>
</svg>
