<?xml version="1.0" encoding="utf-8"?>
<!-- Generator: Adobe Illustrator 16.0.0, SVG Export Plug-In . SVG Version: 6.00 Build 0)  -->
<!DOCTYPE svg PUBLIC "-//W3C//DTD SVG 1.1//EN" "http://www.w3.org/Graphics/SVG/1.1/DTD/svg11.dtd">
<svg version="1.1" id="Layer_1" xmlns="http://www.w3.org/2000/svg" xmlns:xlink="http://www.w3.org/1999/xlink" x="0px" y="0px"
	 width="100px" height="100px" viewBox="0 0 100 100" enable-background="new 0 0 100 100" xml:space="preserve">
<g>
	<path d="M53-14.91c0,0.083-0.051,0.113-0.201,0.222c-0.879,0.751-3.164,1.833-5.842,0.046c-0.049-0.033-0.239-0.188-0.264-0.268
		l-0.003-5.644l0.019-208.979c0,0,0.637-5.178,1.585-8.808c1.324-6.161,2.747-3.698,3.485,0.121
		c0.137-0.399,1.222,9.133,1.222,9.133v208.533L53-14.91L53-14.91z"/>
</g>
<path fill="#CCCCCC" d="M54.375-119.375c0,2.416-1.959,4.375-4.375,4.375s-4.375-1.959-4.375-4.375s1.959-4.375,4.375-4.375
	S54.375-121.791,54.375-119.375z M49.125-139c0,0-10.5,10-10.5,19s10.5,20.25,10.5,20.25s1.75-2.5,5-5.5s7.25-9,7.25-13.75
	s-3.5-9.25-5.75-12.5S49.125-139,49.125-139z"/>
<path d="M54.375-119.375c0,2.416-1.959,4.375-4.375,4.375s-4.375-1.959-4.375-4.375s1.959-4.375,4.375-4.375
	S54.375-121.791,54.375-119.375z M50-127.75c-4.625,0-8.375,3.75-8.375,8.375S45.375-111,50-111s8.375-3.75,8.375-8.375
	S54.625-127.75,50-127.75z"/>
<circle fill="#4D4D4D" cx="50" cy="-119.375" r="4.375"/>
<path fill="#CCCCCC" d="M54.375-68.375C54.375-65.959,52.416-64,50-64s-4.375-1.959-4.375-4.375S47.584-72.75,50-72.75
	S54.375-70.791,54.375-68.375z M49.125-88c0,0-10.5,10-10.5,19s10.5,20.25,10.5,20.25s1.75-2.5,5-5.5s7.25-9,7.25-13.75
	s-3.5-9.25-5.75-12.5S49.125-88,49.125-88z"/>
<path d="M54.375-68.375C54.375-65.959,52.416-64,50-64s-4.375-1.959-4.375-4.375S47.584-72.75,50-72.75S54.375-70.791,54.375-68.375
	z M50-76.75c-4.625,0-8.375,3.75-8.375,8.375S45.375-60,50-60s8.375-3.75,8.375-8.375S54.625-76.75,50-76.75z"/>
<circle fill="#4D4D4D" cx="50" cy="-68.375" r="4.375"/>
<path fill="#CCCCCC" d="M54.375-21.375C54.375-18.959,52.416-17,50-17s-4.375-1.959-4.375-4.375S47.584-25.75,50-25.75
	S54.375-23.791,54.375-21.375z M49.125-41c0,0-10.5,10-10.5,19s10.5,20.25,10.5,20.25s1.75-2.5,5-5.5s7.25-9,7.25-13.75
	s-3.5-9.25-5.75-12.5S49.125-41,49.125-41z"/>
<path d="M54.375-21.375C54.375-18.959,52.416-17,50-17s-4.375-1.959-4.375-4.375S47.584-25.75,50-25.75S54.375-23.791,54.375-21.375
	z M50-29.75c-4.625,0-8.375,3.75-8.375,8.375S45.375-13,50-13s8.375-3.75,8.375-8.375S54.625-29.75,50-29.75z"/>
<circle fill="#4D4D4D" cx="50" cy="-21.375" r="4.375"/>
<path fill="#CCCCCC" d="M54.375,78.625C54.375,81.041,52.416,83,50,83s-4.375-1.959-4.375-4.375S47.584,74.25,50,74.25
	S54.375,76.209,54.375,78.625z M49.125,59c0,0-10.5,10-10.5,19s10.5,20.25,10.5,20.25s1.75-2.5,5-5.5s7.25-9,7.25-13.75
	s-3.5-9.25-5.75-12.5S49.125,59,49.125,59z"/>
<path d="M54.375,78.625C54.375,81.041,52.416,83,50,83s-4.375-1.959-4.375-4.375S47.584,74.25,50,74.25S54.375,76.209,54.375,78.625
	z M50,70.25c-4.625,0-8.375,3.75-8.375,8.375S45.375,87,50,87s8.375-3.75,8.375-8.375S54.625,70.25,50,70.25z"/>
<circle fill="#4D4D4D" cx="50" cy="78.625" r="4.375"/>
</svg>
