<?xml version="1.0" encoding="utf-8"?>
<!-- Generator: Adobe Illustrator 16.0.0, SVG Export Plug-In . SVG Version: 6.00 Build 0)  -->
<!DOCTYPE svg PUBLIC "-//W3C//DTD SVG 1.1//EN" "http://www.w3.org/Graphics/SVG/1.1/DTD/svg11.dtd">
<svg version="1.1" id="Layer_1" xmlns="http://www.w3.org/2000/svg" xmlns:xlink="http://www.w3.org/1999/xlink" x="0px" y="0px"
	 width="100px" height="100px" viewBox="0 0 100 100" enable-background="new 0 0 100 100" xml:space="preserve">
<g>
	<path fill-rule="evenodd" clip-rule="evenodd" fill="#1A1A1A" d="M63.487,52.101c-1.06-0.589-2.056-1.244-2.761-2.187
		c3.777-1.906,8.196-3.795,10.355-7.769c1.124-2.064,1.881-4.637,1.322-7.192c-0.634-2.918-2.618-5.775-5.349-6.674
		c-0.477-0.155-1.292-0.201-2.017-0.288c-1.504-0.181-3.323-0.343-4.776-0.115c-1.976,0.313-4.024,0.758-5.408,1.669
		c-0.915,0.603-1.854,1.569-2.588,2.532c-0.699,0.917-1.494,2.238-1.726,3.394c-0.222,1.109-0.071,2.823,0.057,3.914
		c0.143,1.229,0.682,2.305,1.151,3.222c0.495,0.964,0.987,1.987,1.61,2.819c0.626,0.839,1.205,1.748,1.956,2.417
		c0.863,0.77,1.905,1.324,2.763,2.071c0.619,0.542,1.154,1.166,1.726,1.727c0.573,0.561,1.288,0.977,1.784,1.611
		c1.428,0.675,2.65,1.639,3.855,2.646c1.151,0.966,2.024,2.237,2.934,3.511c0.466,0.646,0.913,1.233,1.326,1.957
		c0.757,1.336,1.423,2.716,2.185,4.258c0.36,0.728,0.919,1.534,1.037,2.187c0.162,0.917,0.077,2.085,0.115,3.107
		c0.126,3.502-0.324,6.907-1.152,10.012c-1.009-0.432-2.06-1.313-2.705-2.302c0.546-2.732,0.784-5.77,0.574-8.919
		c-0.023-0.384,0.058-0.841,0-1.151c-0.154-0.847-0.875-1.782-1.322-2.646c-0.483-0.938-0.854-1.865-1.264-2.647
		c-0.941-1.787-2.376-3.143-3.338-4.546c-1.381-1.074-2.677-2.234-4.087-3.28c-1.24-1.865-2.844-3.11-4.777-4.199
		c-0.771-0.435-1.54-0.689-2.185-1.324c-0.5-0.492-0.935-1.189-1.381-1.784c-0.982-1.31-1.663-2.432-2.474-4.027
		c-0.37-0.721-0.771-1.547-1.037-2.301c-0.603-1.698-0.637-4.106-0.519-5.985c0.021-0.35,0.091-0.75,0.174-1.093
		c0.691-2.925,2.629-5.163,4.601-6.962c1.557-1.42,3.511-2.141,5.986-2.705c1.718-0.393,4.035-0.585,6.102-0.404
		c0.542,0.049,1.147,0.176,1.725,0.23c4.245,0.398,6.963,3.126,8.515,6.273c1.256,2.543,1.668,5.646,1.035,8.516
		c-0.265,1.212-0.825,2.565-1.437,3.74c-1.072,2.06-2.346,3.473-4.086,4.833C68.059,49.756,65.868,50.997,63.487,52.101z"/>
	<path fill-rule="evenodd" clip-rule="evenodd" fill="#1A1A1A" d="M16.36,35.817c0.691,0.555,0.383,1.479,0.403,2.301
		c0.009,0.438,0.129,0.988,0.171,1.496c0.044,0.527-0.018,1.095,0.058,1.555c0.061,0.351,0.331,0.622,0.519,0.977
		c0.596,1.135,1.008,1.782,2.015,2.707c0.558,0.513,1.264,1.102,1.899,1.322c2.537,0.888,6.458,0.323,8.457-0.862
		c2.411-1.429,3.792-4.607,3.569-8.345c-0.128-2.135-1.041-4.536-2.476-5.58c-0.759-0.555-1.766-0.93-2.646-1.382
		c-1.74-0.892-3.545-1.486-6.387-1.267c-1.113,0.085-2.434,0.504-3.511,0.92c-2.302,0.892-4.054,2.233-5.87,3.684
		c-1.738,1.389-2.649,2.58-3.97,4.314c-1.066,1.403-1.295,2.313-1.782,4.259c-0.201,0.802-0.454,1.628-0.521,2.415
		c-0.136,1.657,0.15,3.462,0.405,5.123c0.248,1.616,0.638,3.179,1.151,4.432c0.265,0.647,0.774,1.312,1.207,2.012
		c0.409,0.656,0.743,1.402,1.095,1.841c0.395,0.492,1.141,1.033,1.785,1.495c1.469,1.064,2.428,1.576,4.717,1.842
		c0.821,0.096,1.688,0.264,2.475,0.29c1.65,0.05,3.426-0.305,4.892-0.635c3.035-0.68,5.907-1.435,8.746-2.302
		c3.712-1.13,7.158-2.741,12.256-2.415c0.031,0.192-0.232,0.376-0.345,0.459c-0.575,0.429-1.149,0.762-1.726,1.266
		c-0.32,0.28-0.744,0.588-1.15,0.865c-0.41,0.275-0.815,0.712-1.151,0.862c-0.71,0.318-1.759,0.35-2.647,0.575
		c-1.681,0.428-3.14,1.116-4.777,1.554c-0.841,0.226-1.63,0.48-2.416,0.747c-1.628,0.554-3.404,0.857-5.122,1.266
		c-1.772,0.423-3.605,0.732-5.464,0.863c-1.412,0.099-2.95-0.156-4.491-0.345c-2.475-0.304-4.241-1.394-5.869-2.646
		c-0.318-0.245-0.674-0.573-0.978-0.865c-0.926-0.887-1.448-1.714-2.187-2.934c-0.425-0.701-0.971-1.316-1.323-2.014
		c-0.278-0.552-0.435-1.235-0.633-1.956c-0.745-2.688-1.651-6.035-1.382-9.496c0.142-1.81,0.675-3.737,1.208-5.409
		c0.477-1.487,1.382-2.47,2.418-3.913c1.511-2.104,2.772-3.345,4.835-4.948c1.772-1.379,3.472-2.598,5.811-3.394
		c2.402-0.821,5.973-1.545,8.975-0.749c0.521,0.138,1.16,0.415,1.728,0.633c0.558,0.216,1.118,0.487,1.611,0.749
		c1.06,0.561,2.215,1.037,3.05,1.668c2.566,1.941,3.895,5.535,3.568,9.839c-0.058,0.736-0.029,1.514-0.174,2.245
		c-0.225,1.114-0.9,2.385-1.494,3.452c-1.252,2.237-3.404,3.911-6.159,4.603c-2.42,0.611-5.645,0.682-7.999-0.112
		c-1.473-0.498-2.839-1.89-3.856-3.051c-0.777-0.89-1.168-1.515-1.61-2.705c-0.469-1.263-0.48-3.31-0.229-4.891
		C15.192,37.249,15.452,36.164,16.36,35.817z"/>
	<path fill-rule="evenodd" clip-rule="evenodd" fill="#1A1A1A" d="M56.755,54.979c-0.816,0.177-1.443,0.763-2.13,0.979
		c-0.459,0.141-0.955,0.103-1.382,0.229c-0.84,0.25-1.957,0.845-2.761,1.324c-1.665,0.991-3.084,2.602-4.429,3.971
		c-1.458,1.48-3.487,3.169-4.028,5.465c-1.193,0.188-2.254,0.507-3.279,0.864c-0.034-3.377,2.024-5.581,3.854-7.365
		c1.251-1.22,2.573-2.27,4.031-3.337c0.681-0.503,1.319-1.125,2.012-1.612c1.62-1.141,3.59-1.812,5.293-2.819
		c0.63,0.192,1.165,0.925,1.726,1.381C56.06,54.381,56.547,54.526,56.755,54.979z"/>
	<path fill-rule="evenodd" clip-rule="evenodd" fill="#1A1A1A" d="M53.935,58.258c0.987,0.35,2.285,1.058,3.107,1.727
		c1.27,1.037,2.436,1.76,2.992,3.222c0.294,0.775,0.385,1.699,0.576,2.647c0.252,1.255,0.608,2.361,0.402,3.74
		c-0.321,2.159-1.22,3.753-2.303,5.235c-0.335,0.464-0.783,0.889-1.091,1.382c-0.286,0.455-0.574,1.066-0.979,1.382
		c-1.33,1.03-3.839,2.15-6.273,2.129c-0.874-0.008-1.861-0.367-2.761-0.691c-0.88-0.316-1.809-0.604-2.475-0.978
		c-0.833-0.47-1.554-1.198-2.243-1.784c-0.753-0.637-1.528-1.251-1.958-2.071c0.911-0.492,2.344-0.46,3.339-0.862
		c1.507,1.349,3.264,2.483,5.581,3.049c1.432,0.35,3.536-0.413,4.66-1.267c0.96-0.729,1.64-2.001,2.302-3.223
		c0.504-0.924,1.107-1.905,1.094-3.279c-0.006-0.604-0.285-1.48-0.462-2.244c-0.173-0.767-0.201-1.593-0.516-2.187
		c-0.192-0.364-0.688-0.749-1.094-1.095c-1.419-1.194-3.257-2.04-5.065-2.876C51.55,59.287,52.938,58.972,53.935,58.258z"/>
	<path fill-rule="evenodd" clip-rule="evenodd" fill="#1A1A1A" d="M56.008,69.997c-0.507,1.085-1.2,1.985-2.073,2.703
		c-1.719-0.643-3.072-1.775-5.062-1.898c-1.542-0.094-3.098,0.449-4.66,0.747c-0.272,0.053-0.55,0.01-0.807,0.06
		c-0.323,0.062-0.725,0.318-1.152,0.46c-1.736,0.573-3.064,1.061-4.487,1.955c-0.862,0.541-2.077,1.374-2.706,2.188
		c-0.503,0.654-0.918,1.504-1.437,2.302c-0.863,1.323-1.51,2.807-0.922,4.719c0.209,0.681,0.697,1.407,1.151,2.013
		c0.462,0.62,0.811,1.298,1.208,1.899c0.829,1.25,1.983,2.237,3.224,2.992c1.331,0.811,2.991,1.122,4.777,1.495
		c1.776,0.374,3.686,0.485,5.521,0.347c1.853-0.14,3.771-0.241,5.583-0.576c1.753-0.323,3.564-0.62,5.005-1.206
		c2.892-1.182,5.192-3.116,7.25-5.18c0.908,0.55,1.741,1.174,2.533,1.842c-1.665,2.158-3.808,3.667-6.158,5.062
		c-3.505,2.082-8.267,2.827-13.522,3.279c-3.745,0.322-7.067-0.316-9.896-1.15c-3.141-0.923-5.473-2.817-7.078-5.35
		c-0.892-1.41-2.063-2.743-2.59-4.26c-0.81-2.327-0.386-4.888,0.576-6.731c0.299-0.576,0.817-1.121,1.207-1.727
		c0.394-0.61,0.698-1.325,1.093-1.842c0.412-0.534,1.143-1.102,1.783-1.611c0.661-0.523,1.383-1.123,1.959-1.439
		c0.385-0.211,0.766-0.203,1.208-0.343c0.62-0.198,1.24-0.663,1.899-0.922c0.725-0.287,1.487-0.442,2.129-0.69
		c0.405-0.157,0.757-0.443,1.149-0.576c0.857-0.289,1.762-0.383,2.649-0.575c0.897-0.193,1.947-0.385,2.992-0.402
		C51.693,67.527,53.368,69.226,56.008,69.997z"/>
	<path fill-rule="evenodd" clip-rule="evenodd" fill="#1A1A1A" d="M59.92,76.038c0.527-0.929,1.043-1.872,1.609-2.762
		c2.062,1.627,3.843,3.346,5.584,5.294c1.07,1.204,1.815,2.309,3.278,3.28c1.36,0.905,2.349,1.686,3.971,2.415
		c0.766,0.347,1.746,0.768,2.531,0.863c0.796,0.101,1.695,0.031,2.534,0.058c2.211,0.077,4.732-0.256,6.674-1.034
		c0.667-0.269,1.324-0.715,1.955-1.15c0.611-0.423,1.315-0.836,1.783-1.266c0.36-0.331,0.643-0.913,1.036-1.382
		c0.371-0.44,0.879-0.779,1.151-1.266c0.388-0.693,0.63-1.571,1.036-2.36c0.384-0.747,0.733-1.58,1.152-2.244
		c0.357-0.571,1.005-1.346,1.725-1.379c0.842-0.042,1.641,0.63,1.669,1.494c0.015,0.452-0.336,1.097-0.574,1.554
		c-0.514,0.992-1.043,1.784-1.499,2.762c-0.384,0.831-0.558,1.63-1.093,2.361c-0.3,0.41-0.812,0.828-1.208,1.321
		c-1.053,1.314-1.78,1.963-3.221,2.994c-2.549,1.817-6.442,2.982-10.53,2.818c-1.049-0.043-2.142,0.021-3.109-0.115
		c-0.852-0.122-1.812-0.475-2.646-0.807c-1.571-0.623-2.635-1.425-3.972-2.244c-0.563-0.347-0.991-0.823-1.494-1.208
		c-2.097-1.596-3.611-3.605-5.524-5.408C61.824,77.768,60.854,76.923,59.92,76.038z"/>
</g>
</svg>
