<?xml version="1.0" encoding="utf-8"?>
<!-- Generator: Adobe Illustrator 16.0.0, SVG Export Plug-In . SVG Version: 6.00 Build 0)  -->
<!DOCTYPE svg PUBLIC "-//W3C//DTD SVG 1.1//EN" "http://www.w3.org/Graphics/SVG/1.1/DTD/svg11.dtd">
<svg version="1.1" id="Layer_1" xmlns="http://www.w3.org/2000/svg" xmlns:xlink="http://www.w3.org/1999/xlink" x="0px" y="0px"
	 width="100px" height="100px" viewBox="0 0 100 100" enable-background="new 0 0 100 100" xml:space="preserve">
<g>
	<path fill="#231F20" d="M85.298,79.467c-3.676-1.575-8.422,0.287-10.291,1.158c-1.017,0.479-1.923,1.022-2.8,1.549
		c-1.586,0.952-3.083,1.851-5.095,2.286c-0.309,0.067-0.625,0.12-0.942,0.161c0.802-0.374,1.521-0.896,2.043-1.521
		c0.811-0.97,1.098-2.094,0.82-3.258c-0.013-0.062-0.064-0.107-0.128-0.113c-0.064-0.007-0.125,0.03-0.15,0.088
		c-0.469,1.07-1.828,2.296-3.02,2.612c2.035-1.375,2.688-3.386,2.895-4.522c0.26-1.424,0.08-2.836-0.438-3.436
		c-0.466-0.54-1.091-0.851-1.762-0.872c-0.668-0.027-1.323,0.234-1.801,0.713c-0.525,0.524-0.79,1.25-0.711,1.942
		c0.067,0.567,0.365,1.042,0.838,1.335c0.759,0.47,1.43,0.28,1.79,0.106c-0.232,1.466-1.033,2.6-2.333,3.292
		c-1.807,0.963-4.355,0.933-6.461-0.046c1.006-0.268,1.979-0.816,2.776-1.572c0.003-0.004,0.003-0.007,0.003-0.007
		c0.021-0.002,0.042-0.002,0.062-0.006c0.079-0.006,0.14-0.079,0.131-0.161c-0.009-0.079-0.08-0.138-0.161-0.131
		c-0.967,0.101-2.125,0.085-3.442-0.052c-1.21-0.122-2.473-0.481-3.685-1.031c0.457-1.158,0.816-2.368,1.081-3.6
		c0.672,0.579,1.556,0.891,2.415,0.891c0.487,0,0.966-0.098,1.394-0.308c0.694-0.339,1.233-1.04,1.475-1.921
		c0.247-0.899,0.131-1.839-0.312-2.509c-0.359-0.546-1.002-0.859-1.816-0.884c-0.076-0.004-0.149,0.061-0.152,0.14
		c0,0.073,0.052,0.134,0.122,0.15c0.497,0.381,0.737,1.008,0.589,1.523c-0.119,0.405-0.464,0.649-0.97,0.689
		c-0.527,0.043-0.97-0.095-1.308-0.408c-0.592-0.543-0.899-1.626-0.924-3.198c0-0.007,0.003-0.01,0.003-0.016
		c0-0.024-0.003-0.052-0.006-0.075c0-0.034,0-0.062,0-0.095c0-0.01-0.003-0.016-0.006-0.025c-0.25-5.638-2.612-11.291-6.85-16.356
		c-0.761-0.911-1.588-1.802-2.453-2.652c0-0.001,0-0.003-0.003-0.003c-0.04-0.039-0.079-0.081-0.118-0.12l0,0
		c-1.217-1.259-2.579-2.389-4.025-3.58c-1.132-0.934-2.303-1.897-3.39-2.931c-1.228-1.041-2.306-2.599-3.037-4.39
		c-0.022-0.056-0.076-0.091-0.135-0.091h-0.002c-0.059,0-0.114,0.037-0.137,0.094c-0.447,1.159-0.383,2.509,0.118,3.712
		l-0.094-0.046c-2.396-1.157-4.874-2.352-7.072-3.704c-0.197-1.177,0.058-2.504,0.716-3.631c0.443-0.762,0.931-1.179,1.579-1.355
		c0.914-0.246,1.954-0.173,2.709,0.192c0.369,0.176,0.611,0.463,0.664,0.782c0.045,0.292-0.069,0.578-0.331,0.83
		c-0.369,0.356-0.91,0.498-1.306,0.552c0.157-0.444,0.064-0.858-0.273-1.14c-0.512-0.429-1.378-0.414-1.929,0.036
		c-0.685,0.558-0.584,1.598-0.089,2.282c0.459,0.636,1.312,0.933,2.341,0.813c1.239-0.146,2.405-0.884,2.971-1.88
		c0.445-0.784,0.483-1.641,0.106-2.479c-1.145-2.556-4.671-2.853-6.778-2.087c-1.373,0.5-2.617,1.443-3.411,2.588
		c-0.524,0.756-0.756,1.603-0.887,2.525c-0.015-0.584,0.024-1.195,0.065-1.796c0.165-2.377,0.334-4.836-2.949-5.576
		c-0.072-0.017-0.144,0.021-0.171,0.087c-0.028,0.066-0.002,0.143,0.061,0.182c1.686,1.033,1.551,3.157,1.344,5.265
		c-1.095-0.978-7.493-6.861-7.178-10.42c0.144-1.625,1.137-2.269,1.566-2.312c0.064-0.007,0.117-0.055,0.13-0.119
		c0.013-0.064-0.019-0.129-0.075-0.158c-0.037-0.019-0.852-0.436-1.655-0.036c-0.506,0.253-0.881,0.769-1.12,1.535
		c-0.108-1.046-0.21-3.004,0.154-5.19c0.549-3.284,3.883-5.02,3.917-5.037c0.049-0.025,0.08-0.074,0.08-0.127
		c0.003-0.054-0.024-0.106-0.073-0.132c-1.046-0.603-1.747-0.437-2.143-0.203c0.334-0.891,1.455-2.77,4.967-2.77
		c1.236,0,2.217,0.384,2.919,1.138c1.399,1.507,1.231,4.023,1.228,4.048c-0.003,0.053,0.021,0.104,0.065,0.134
		c0.044,0.028,0.101,0.033,0.148,0.01c0.666-0.334,1.082-0.781,1.239-1.327c0.041-0.146,0.062-0.291,0.066-0.427
		c0.078,0.29,0.129,0.66,0.129,1.122c0,1.467-0.896,2.95-2.897,2.95c-1.332,0-2.067-0.77-2.381-1.212
		c0.317,0.061,0.782,0.082,1.155-0.172c0.379-0.259,0.573-0.735,0.573-1.416c0-0.994-0.907-1.804-2.021-1.804
		c-0.67,0-1.283,0.301-1.727,0.847c-0.524,0.648-0.792,1.592-0.792,2.805c0,1.85,0.53,3.262,1.575,4.203
		c1.505,1.354,3.582,1.25,4.182,1.187c2.979-0.317,4.427-2.717,4.427-7.337c0-5.156-5.35-6.889-7.79-6.889
		c-1.342,0-3.993,0.798-5.98,3.619c0.106-0.548,0.125-1.168-0.115-1.874c-0.018-0.057-0.071-0.096-0.132-0.099
		c-0.064,0-0.116,0.032-0.141,0.087c-0.765,1.753-1.643,4.098-1.643,6.715c-0.104,0.463-0.192,0.95-0.265,1.462
		c0-0.009,0-0.02,0-0.03c-0.036-1.977-0.073-4.021-0.723-6.037c-0.021-0.061-0.076-0.102-0.144-0.102
		c-0.063,0.001-0.12,0.043-0.14,0.106c-0.861,2.982-0.653,6.16,0.658,9.948c-0.247-0.492-0.515-0.965-0.784-1.43
		c-0.666-1.16-1.354-2.357-1.588-3.781c-0.012-0.069-0.069-0.119-0.137-0.124c-0.064-0.004-0.131,0.039-0.149,0.105
		c-0.908,3.029,0.468,5.938,2.004,8.036c-0.056-0.053-0.113-0.104-0.167-0.156c-0.887-0.814-1.727-1.584-2.395-2.768
		c-0.032-0.057-0.099-0.087-0.162-0.071c-0.065,0.016-0.111,0.072-0.113,0.138c-0.046,1.237,0.759,4.911,4.63,8.603
		c-0.223-0.139-0.442-0.278-0.663-0.414c-0.224-0.137-0.451-0.268-0.678-0.397c-0.576-0.332-1.173-0.675-1.676-1.113
		c-0.802-0.7-1.226-1.263-1.27-1.676c0.001-0.016,0.001-0.034,0.001-0.051c0-0.006,0-0.013,0-0.019
		c0.006-0.003,0.013-0.004,0.019-0.008c0.448-0.309,0.64-0.799,0.53-1.34C9.59,24.13,9.191,23.665,8.75,23.575
		c-0.321-0.067-0.62,0.072-0.843,0.392C7.308,24.835,7.9,26.639,8.503,28C8.996,29.11,9.814,30.257,11,31.506
		c-0.233-0.116-0.499-0.133-0.765-0.035c-0.48,0.175-0.84,0.663-0.855,1.16c-0.03,0.902,0.521,1.783,1.119,2.599
		c0.699,0.952,1.582,1.788,2.625,2.487c-0.519,0.405-0.921,1.081-0.96,1.657c-0.041,0.575,0.054,1.108,0.247,1.603
		c-1.425,0.382-3.272,1.207-4.181,2.989c-0.767,1.505-0.822,3.599,0.779,4.886c0.512,0.41,1.341,0.77,2.051,0.77
		c0.145,0,0.284-0.015,0.415-0.048c0.417-0.102,0.719-0.361,0.896-0.767c0.311-0.714,0.113-1.828-0.619-2.254
		c-0.363-0.211-0.757-0.231-1.113-0.059c-0.365,0.177-0.655,0.543-0.786,0.971c-0.008,0.017-0.017,0.036-0.024,0.054
		c-0.481-0.881-0.537-1.716-0.149-2.487c0.682-1.355,2.536-2.123,3.97-2.26c0.008,0,0.014-0.004,0.023-0.007
		c1.556,1.472,3.987,2.426,5.731,2.963c0.185,0.586,0.509,1.146,0.813,1.473c1.295,1.396,2.99,1.71,4.769,1.71
		c0.726,0,1.468-0.054,2.201-0.104c1.362-0.097,2.653-0.183,3.796,0.052c-0.605,0.974-0.881,2.08-0.787,3.111
		c0.166,1.82,1.52,3.744,4.813,3.744c0.035,0,0.07,0,0.104,0c0.076,0.131,0.218,0.345,0.392,0.536c0,0.001,0.001,0.001,0.003,0.005
		c1.047,1.302,2.395,1.72,3.865,1.162c1.076-0.408,1.832-1.169,2.016-2.035c0.215-1.001-0.369-2.102-1.303-2.458
		c-0.762-0.289-1.722-0.068-2.234,0.512c-0.011,0.014-0.017,0.024-0.027,0.037l-0.284,0.188c-0.07,0.05-0.18,0.115-0.257,0.145
		c-0.093,0.034-0.179,0.052-0.174,0.052c0,0-0.078,0.016-0.177,0.022c-0.102,0.007-0.223-0.003-0.304-0.018
		c-0.074-0.012-0.259-0.042-0.433-0.113c-0.073-0.027-0.142-0.063-0.204-0.097c-0.489-0.865-0.518-1.923-0.058-3.008
		c0.693-1.639,2.241-2.778,3.766-2.778h0.026c1.481,0.012,3.003,0.854,4.652,2.574c1.327,1.382,2.555,3.113,3.86,5.443
		c1.487,2.657,3.038,5.872,3.253,9.559c0.213,3.616-0.455,7.158-1.873,9.999c-2.691-2.481-4.7-5.562-6.645-8.546
		c-1.258-1.934-2.561-3.931-4.041-5.761c-0.004-0.005-0.011-0.009-0.015-0.013c-4.614-5.886-13.443-8.053-20.431-5.03
		c0.182-0.284,0.364-0.58,0.548-0.884c1.208-1.979,2.457-4.034,4.651-3.907c0.431,0.022,1.198,0.133,1.783,0.583
		c-0.244,0.188-0.381,0.447-0.381,0.736c0.003,0.396,0.262,0.774,0.677,0.985c0.394,0.202,0.815,0.194,1.19-0.024
		c0.438-0.253,0.736-0.756,0.761-1.279c0.04-0.848-0.59-1.572-1.82-2.091c-1.768-0.748-3.872-0.604-6.421,0.44v-0.174
		c-0.002-0.041-0.011-0.126-0.026-0.222c0.024-0.599,0.076-1.233,0.21-1.817c0.016-0.065-0.014-0.131-0.07-0.163
		c-0.058-0.032-0.131-0.022-0.176,0.025c-1.105,1.082-1.841,2.829-1.933,4.417c-0.22-0.519-0.546-0.97-0.967-1.306
		c-0.846-0.682-2.61-0.857-3.932-0.392c-0.915,0.323-1.509,0.918-1.674,1.672c-0.312,1.441,0.479,1.803,0.833,1.894
		c0.865,0.219,2.079-0.32,2.278-1.011c0.078-0.273,0.056-0.765-0.876-1.142c0.369-0.266,0.924-0.549,1.479-0.385
		c1.291,0.383,2.099,1.224,2.275,2.371c0.204,1.323-0.479,2.773-1.703,3.646c-0.006,0.005-0.013,0.005-0.021,0.009
		c-0.014,0.012-0.028,0.023-0.04,0.036c-0.008,0.005-0.014,0.009-0.021,0.016c-0.004,0.003-0.006,0.007-0.013,0.012
		c-0.416,0.331-0.816,0.69-1.196,1.07c-0.477-0.982-1.429-1.688-2.486-1.753c-0.625-0.039-1.151,0.154-1.524,0.562
		c-0.439,0.48-0.622,1.205-0.5,1.99c0.012,0.081,0.085,0.135,0.167,0.124c0.08-0.013,0.136-0.088,0.124-0.168
		c-0.002-0.013-0.002-0.024-0.005-0.035c0.002-0.007,0.003-0.009,0.003-0.014c-0.003-0.632,0.191-1.044,0.549-1.166
		c0.384-0.131,0.906,0.108,1.262,0.581c0.227,0.301,0.823,1.306,0.11,2.825c-2.881,4.748-3.628,10.918-1.991,16.545
		c0.616,2.115,1.579,4.088,2.862,5.871c-1.326,0.149-2.421,0.661-3.17,1.49c-0.96,1.062-1.258,2.372-0.848,3.688
		c0.557,1.773,2.277,3.279,4.285,3.746c0.352,0.085,0.7,0.126,1.032,0.126c0.823,0,1.56-0.247,2.07-0.717
		c0.531-0.482,0.762-1.161,0.659-1.908c-0.122-0.863-0.851-1.723-1.869-1.677c-0.551,0.03-0.808,0.299-0.926,0.521
		c-0.196,0.363-0.156,0.87,0.098,1.332c-0.881,0.564-1.744,0.583-2.397,0.021c-0.66-0.563-0.883-1.566-0.505-2.279
		c0.521-0.988,1.969-1.244,3.975-0.705c0.473,0.129,1.344,0.571,2.044,0.927c0.318,0.162,0.602,0.309,0.806,0.403
		c0.003,0,0.009,0,0.012,0.003c3.735,2.305,8.138,3.499,12.682,3.499c2.27,0,4.577-0.299,6.854-0.902
		c6.486-1.723,11.87-5.815,14.79-11.241c0.747,0.621,1.506,1.164,2.292,1.636c0.695,0.421,1.418,0.812,2.118,1.189
		c0.543,0.293,1.104,0.598,1.646,0.911c0.951,0.549,2.042,1.219,2.942,2.055c0.893,0.829,1.42,1.918,1.779,2.771
		c0.021,0.058,0.077,0.092,0.135,0.092c0.009,0,0.021,0,0.03-0.004c0.066-0.016,0.118-0.076,0.118-0.146
		c-0.002-0.131,0-0.271,0.003-0.408c0.007-0.356,0.01-0.732-0.036-1.101c0.006-0.115,0.01-0.257-0.027-0.391l0.003,0.013
		c-0.021-0.122-0.056-0.219-0.075-0.271c-0.025-0.061-0.064-0.143-0.107-0.22c1.575,0.152,3.223,1.019,3.676,2.49
		c-0.356-0.088-0.729-0.023-0.994,0.189c-0.292,0.231-0.398,0.597-0.295,1c0.195,0.759,0.628,0.905,0.933,0.905
		c0.082,0,0.155-0.013,0.211-0.024c0.853-0.183,1.779-1.42,1.594-2.483c-0.22-1.263-1.046-2.269-2.101-2.991
		c2.03,0.033,3.975-1.079,5.71-2.075c0.387-0.223,0.762-0.437,1.131-0.635c2.191-1.183,5.074-2.542,7.94-2.579
		c2.249-0.023,5.094,0.72,6.379,2.909c1.062,1.807,0.735,3.928-0.808,5.279c-1.362,1.194-3.367,1.85-5.358,1.749
		c-1.276-0.064-2.392-0.533-3.06-1.289c-0.519-0.589-0.754-1.317-0.698-2.168c0.002-0.03,0.006-0.061,0.009-0.095
		c0.006-0.052,0.013-0.104,0.019-0.155c0.211,0.379,0.549,0.656,1.04,0.849c0.773,0.304,1.532,0.204,2.026-0.266
		c0.503-0.479,0.649-1.235,0.387-2.024c-0.295-0.89-1.008-1.523-2.061-1.839c-1.5-0.451-3.463-0.133-4.565,0.738
		c-2.211,1.741-1.948,4.932-0.44,6.889c1.616,2.095,4.237,2.918,6.898,2.918c1.629,0,3.271-0.312,4.701-0.829
		c3.307-1.192,5.335-3.686,5.419-6.673C90.667,83.717,88.646,80.9,85.298,79.467z"/>
</g>
</svg>
