<?xml version="1.0" encoding="utf-8"?>
<!-- Generator: Adobe Illustrator 16.0.0, SVG Export Plug-In . SVG Version: 6.00 Build 0)  -->
<!DOCTYPE svg PUBLIC "-//W3C//DTD SVG 1.1//EN" "http://www.w3.org/Graphics/SVG/1.1/DTD/svg11.dtd">
<svg version="1.1" id="Layer_1" xmlns="http://www.w3.org/2000/svg" xmlns:xlink="http://www.w3.org/1999/xlink" x="0px" y="0px"
	 width="100px" height="100px" viewBox="-25 -25 100 100" enable-background="new -25 -25 100 100" xml:space="preserve">
<path fill="#1E1E1E" d="M21.287,75.303c-0.225-0.414-0.449-0.828-0.672-1.242c-0.844-1.572-1.713-3.133-2.526-4.721
	c-1.359-2.66-2.751-5.308-3.997-8.021c-1.053-2.291-1.859-4.694-2.876-7.004c-1.632-3.706-2.392-7.662-3.313-11.558
	c-0.698-2.948-1.092-5.978-1.48-8.99c-0.382-2.963-0.668-5.943-0.85-8.927c-0.196-3.215-0.475-6.458-0.263-9.658
	c0.326-4.91,1.539-9.675,3.075-14.365c0.883-2.695,2.086-5.215,3.426-7.685c1.875-3.459,4.098-6.669,7.044-9.318
	c1.46-1.312,2.854-2.751,4.491-3.799c2.271-1.453,4.636-2.881,7.151-3.8c3.875-1.418,7.918-1.574,12.021-0.655
	c2.359,0.527,4.592,1.21,6.562,2.614c2.006,1.429,3.688,3.139,4.665,5.464c0.482,1.148,1.158,2.221,1.574,3.39
	c0.246,0.687,0.184,1.493,0.21,2.248c0.132,3.758-1.661,6.848-3.558,9.859c-1.622,2.576-3.554,4.918-5.775,7.024
	c-2.462,2.333-4.77,4.831-7.278,7.11c-2.55,2.319-5.233,4.498-7.917,6.665c-2.005,1.618-3.852,3.392-5.364,5.454
	c-1.083,1.475-1.901,3.146-2.798,4.751c-0.572,1.023-1.175,2.047-1.582,3.141c-0.747,2.008-1.481,4.036-1.998,6.111
	c-0.771,3.097-1.51,6.219-1.957,9.373c-0.298,2.105-0.231,4.301-0.029,6.428c0.307,3.225,0.696,6.463,1.378,9.624
	c0.736,3.411,1.851,6.741,2.797,10.108c0.026,0.092,0.032,0.19,0.046,0.285C21.426,75.241,21.356,75.271,21.287,75.303z"/>
</svg>
