<?xml version="1.0" encoding="utf-8"?>
<!-- Generator: Adobe Illustrator 16.0.0, SVG Export Plug-In . SVG Version: 6.00 Build 0)  -->
<!DOCTYPE svg PUBLIC "-//W3C//DTD SVG 1.1//EN" "http://www.w3.org/Graphics/SVG/1.1/DTD/svg11.dtd">
<svg version="1.1" id="Layer_1" xmlns="http://www.w3.org/2000/svg" xmlns:xlink="http://www.w3.org/1999/xlink" x="0px" y="0px"
	 width="100px" height="100px" viewBox="-25 -25 100 100" enable-background="new -25 -25 100 100" xml:space="preserve">
<g id="XMLID_1_">
	<path fill="#1E1E1E" d="M0.37,63.217c-0.71-0.486-1.412-0.973-2.093-1.496c-1.806-1.375-3.714-2.656-5.321-4.236
		c-1.852-1.806-3.657-3.703-4.863-6.078c-1.3-2.544-2.88-4.956-4.076-7.547c-1.814-3.938-2.403-8.209-2.88-12.483
		c-0.542-4.891-0.112-9.688,1.413-14.373c0.748-2.292,1.758-4.396,3.31-6.303C-11.16,7.053-7.158,4.996-2.94,3.35
		c2.553-0.992,5.33-1.431,7.949-2.282c6.312-2.048,12.839-3.133,19.319-4.396c7.836-1.524,15.093-4.376,21.817-8.659
		c2.188-1.394,4.47-2.572,7.145-2.712c1.776-0.093,3.487,0.149,4.703,1.581c2.375,2.814,4.069,5.984,4.462,9.716
		c0.644,6.274-0.824,12.175-3.275,17.889c-0.281,0.637-0.71,1.234-1.178,1.759c-3.012,3.367-6.864,5.17-11.24,6.013
		c-1.46,0.28-2.89,0.71-4.358,0.888c-3.058,0.365-6.134,0.84-9.201,0.823c-2.815-0.02-5.63-0.646-8.444-0.982
		c-3.815-0.449-7.63-0.833-11.436-1.347c-2.796-0.374-5.583-0.393-8.155,0.748c-3.788,1.674-6.424,4.592-7.705,8.557
		c-1.852,5.741-2.787,11.623-1.739,17.655c0.589,3.432,0.421,7.042,2.132,10.239c0.682,1.281,1.579,2.815,2.31,4.067
		C0.221,63.02,0.295,63.123,0.37,63.217z"/>
</g>
</svg>
