<?xml version="1.0" encoding="utf-8"?>
<!-- Generator: Adobe Illustrator 16.0.0, SVG Export Plug-In . SVG Version: 6.00 Build 0)  -->
<!DOCTYPE svg PUBLIC "-//W3C//DTD SVG 1.1//EN" "http://www.w3.org/Graphics/SVG/1.1/DTD/svg11.dtd">
<svg version="1.1" id="Layer_1" xmlns="http://www.w3.org/2000/svg" xmlns:xlink="http://www.w3.org/1999/xlink" x="0px" y="0px"
	 width="50px" height="50px" viewBox="0 0 50 50" enable-background="new 0 0 50 50" xml:space="preserve">
<g>
	<path d="M24.707,22.607c0,0-0.652,1.716-1.87,2.259c-0.803,0.351-2.854,0.599-3.788-0.864c-0.934-1.463-0.716-3.175,0.498-3.61
		c1.214-0.436,2.303,0.467,2.178,1.4c-0.124,0.934-1.742,1.463-1.773,0.249c0,0,0.187-0.715,0.809-0.466
		c0,0-0.249-0.467-0.622-0.249c-0.374,0.217-1.214,1.275,0.218,1.992c1.432,0.716,3.299-1.027,2.645-2.708
		c-0.653-1.68-2.52-3.112-5.135-1.462c0,0-0.094-2.085-2.708-2.148c-2.614-0.062-3.112-1.712-2.334-2.21
		c0,0,0.529-0.373,1.027,0.342c0,0,0.093-0.466-0.25-0.653c-0.342-0.187-2.676-0.529-2.303,2.272c0,0,0.467,1.556,1.681,1.743
		c1.214,0.187,2.583,0.654,2.365,1.743c-0.218,1.089-1.404,1.128-1.276,0.591c-0.248-0.089-0.306,0.092-0.368,0.248
		c-0.062,0.155,0.337,2.071,1.757,1.011c0.361-0.458,0.633-0.699,0.851-0.668c0.218,0.031,0.25,0.156,0.25,0.156
		s-0.311,0.498-0.25,1.089c0.062,0.591,0.062,0.747,0.062,0.747s-3.547-1.619-4.979,0.996c-2.056,3.897,0.849,4.527,1.557,4.108
		c0.283-0.145,0.778-0.405,0.747-1.059s-0.374-0.374-0.623-0.124c-0.249,0.249-1.151,0.436-1.121-0.28s0.716-1.96,1.868-1.463
		c1.151,0.498,2.739,1.93,4.638,0.685c0,0-0.468-0.653,0.187-0.902c0.653-0.249,1.906,0.95,1.525,1.587c0,0-0.623,0.436-0.935,0.062
		c0,0-0.433,0.415-0.558,1.114c-0.788-0.257-1.897-0.586-2.398-0.586c-0.594,0-2.402,0-3.781,2.724
		c-0.015,0.032-0.379,0.775-1.604,0.64c-0.02-0.003-0.501-0.076-0.813,0.429c-0.054,0.089-0.027,0.204,0.062,0.26
		c0.031,0.018,0.064,0.027,0.098,0.027c0.063,0,0.125-0.031,0.161-0.09c0.172-0.28,0.408-0.259,0.442-0.254
		c1.52,0.17,1.978-0.815,1.993-0.849c0.309-0.608,0.639-1.069,0.969-1.419c-0.329,0.798-0.409,2.164,1.727,2.983
		c-0.28-0.062-1.307,0.281-1.027,1.121c0.28,0.84,1.711-0.094,1.711-0.094s0.072,0.335,0.48,0.335c0.707,0,0.734-0.553,0.921-0.802
		s1.121-0.841,1.525-0.187c0.405,0.653-0.653,0.841-0.653,0.841c0.778,0.311,1.058-0.529,1.058-0.529
		c0.436-2.241-2.303-1.276-2.303-1.276c0.591-0.56,0.342-0.934-0.094-1.245c-0.436-0.312-1.12,0.653-1.12,0.653
		c-0.091-0.915-1.331-0.868-1.4-0.308c-0.837-0.28-0.798-1.115-0.588-1.726c0.95-0.858,1.862-0.86,2.237-0.86
		c0.467,0,1.596,0.343,2.366,0.596c0,0.02-0.001,0.037,0,0.058c0,0,0.498,0.934,0.155,1.245c-0.342,0.311-0.342,0.311-0.342,0.311
		s0.622,0.778,1.525-0.155c0,0-0.28,0.56,0.28,1.151s1.275,0.871,1.4,1.898c0,0,0.436-0.373,0.249-0.964
		c0,0,1.649,0.964,1.806,1.711c0.155,0.748,0.062,1.463-0.996,1.494c0,0-0.125,0.404,0.311,0.467
		c0.437,0.062,0.716-0.249,0.716-0.249s-0.404,1.681-1.213,1.307c-0.811-0.374-0.125-0.778-0.125-0.778s-0.124-0.56-0.686-0.497
		c-0.56,0.062-1.12,1.275-0.218,1.805c0,0-1.12,0.155-1.462,1.308c-0.342,1.15-1.899,0.373-1.307-0.28
		c0.591-0.654,0.716,0.28,0.716,0.28s0.56-0.654-0.125-0.935c-0.684-0.28-2.272,1.183-0.28,2.147c0,0-0.218,0.561,0.125,0.654
		c0.342,0.093,0.716-0.374,1.058-0.218c0.342,0.155,0.716,0.436,0.498,0.747c0,0,0.684-0.374,0.062-1.027
		c-0.291-0.305-0.417-0.365-0.462-0.372c0.015-0.01,0.037-0.034,0.057-0.096c0.093-0.279,0.404,0.218,0.685,0.063
		c0.28-0.156,0.466-0.28,0.747-0.997c0.28-0.715,0.498-1.026,0.778-0.934c0.28,0.094-0.498,0.966-0.404,1.525
		s2.116,1.214,1.587,2.179s-0.902,0.094-0.622-0.093c0,0,0.404-0.126,0.342-0.343c-0.062-0.218-0.404-0.188-0.561,0.03
		c-0.154,0.219-0.279,0.219-0.591,0.094c-0.312-0.124-0.841-0.217-1.214,0.343c0,0,0.312-0.155,0.467,0
		c0.155,0.156,0.561,0.498,0.902,0.468c0.343-0.032,0.529-0.095,0.592,0.093c0.062,0.187,0.685,0.436,0.902,0.03
		c0.218-0.404,0.592-0.933-0.374-2.303c0,0-0.56-0.84,0.095-1.93c0.653-1.089,0.715-1.774,0.685-2.521
		c-0.013-0.295-0.021-0.422-0.024-0.469c0.031-0.246,0.11-1.493-1.288-2.743l-0.669-0.781c0,0,0.829-0.388,0.836-0.99
		c0.006-0.604-0.279-0.736-0.279-0.736c-0.04,0.061-0.099,0.272-0.383,0.259c-0.286-0.013-0.338-0.212-0.564-0.092
		c-0.065-0.107-0.167-0.42-0.233-0.834c1.348-0.264,1.967-1.014,2.004-1.059c0.064-0.081,0.052-0.199-0.028-0.264
		c-0.081-0.064-0.199-0.053-0.264,0.028c-0.033,0.039-0.572,0.681-1.757,0.921c-0.072-0.853,0.051-1.949,0.833-2.646
		C24.188,24.482,24.531,23.291,24.707,22.607z"/>
	<path d="M39.124,30.912c-1.237,0.137-1.599-0.606-1.617-0.646c-1.376-2.717-3.183-2.717-3.777-2.717
		c-0.501,0-1.61,0.329-2.398,0.586c-0.124-0.699-0.559-1.114-0.559-1.114c-0.312,0.373-0.934-0.062-0.934-0.062
		c-0.382-0.637,0.871-1.836,1.524-1.587c0.654,0.249,0.188,0.902,0.188,0.902c1.897,1.245,3.485-0.187,4.638-0.685
		c1.151-0.498,1.836,0.747,1.867,1.463s-0.871,0.528-1.12,0.28c-0.25-0.25-0.592-0.529-0.623,0.124s0.464,0.914,0.747,1.059
		c0.707,0.419,3.612-0.211,1.556-4.108c-1.431-2.615-4.979-0.996-4.979-0.996s0-0.155,0.062-0.747
		c0.062-0.591-0.25-1.089-0.25-1.089s0.032-0.125,0.25-0.156c0.218-0.031,0.489,0.21,0.851,0.668c1.422,1.06,1.82-0.856,1.758-1.011
		c-0.062-0.156-0.12-0.337-0.367-0.248c0.127,0.537-1.059,0.498-1.277-0.591c-0.217-1.089,1.153-1.556,2.366-1.743
		c1.214-0.187,1.68-1.743,1.68-1.743c0.374-2.802-1.959-2.459-2.302-2.272c-0.343,0.187-0.249,0.654-0.249,0.654
		c0.498-0.716,1.027-0.343,1.027-0.343c0.777,0.498,0.279,2.148-2.335,2.21c-2.614,0.062-2.708,2.148-2.708,2.148
		c-2.614-1.649-4.482-0.218-5.136,1.462c-0.653,1.681,1.214,3.424,2.646,2.708c1.433-0.716,0.592-1.774,0.218-1.992
		c-0.373-0.218-0.622,0.249-0.622,0.249c0.622-0.249,0.81,0.467,0.81,0.467c-0.031,1.214-1.649,0.685-1.774-0.249
		c-0.124-0.934,0.965-1.836,2.179-1.4c1.215,0.436,1.432,2.148,0.498,3.61c-0.934,1.463-2.984,1.215-3.788,0.864
		c-1.217-0.543-1.869-2.259-1.869-2.259c0.176,0.684,0.52,1.875,2.121,3.226c0.78,0.696,0.904,1.793,0.833,2.646
		c-1.186-0.24-1.725-0.882-1.757-0.921c-0.064-0.081-0.183-0.094-0.263-0.028c-0.081,0.063-0.095,0.183-0.029,0.264
		c0.036,0.045,0.655,0.795,2.003,1.059c-0.065,0.414-0.167,0.726-0.232,0.834c-0.227-0.12-0.279,0.079-0.564,0.092
		c-0.284,0.014-0.346-0.198-0.383-0.259c0,0-0.286,0.133-0.279,0.736c0.007,0.603,0.836,0.99,0.836,0.99l-0.669,0.781
		c-1.399,1.25-1.319,2.498-1.289,2.743c-0.004,0.048-0.011,0.175-0.022,0.469c-0.031,0.746,0.03,1.432,0.684,2.521
		c0.654,1.09,0.094,1.93,0.094,1.93c-0.964,1.37-0.591,1.898-0.373,2.303c0.217,0.405,0.84,0.156,0.902-0.03
		c0.062-0.188,0.248-0.125,0.591-0.093c0.343,0.03,0.747-0.312,0.903-0.468c0.155-0.155,0.467,0,0.467,0
		c-0.374-0.56-0.902-0.467-1.214-0.343c-0.312,0.125-0.437,0.125-0.593-0.094c-0.154-0.218-0.497-0.248-0.56-0.03
		c-0.062,0.217,0.343,0.343,0.343,0.343c0.28,0.187-0.093,1.058-0.623,0.093c-0.528-0.965,1.494-1.619,1.588-2.179
		c0.093-0.56-0.685-1.432-0.404-1.525c0.28-0.093,0.497,0.219,0.778,0.934c0.279,0.717,0.466,0.841,0.746,0.997
		c0.281,0.154,0.592-0.343,0.686-0.063c0.02,0.061,0.041,0.086,0.057,0.096c-0.045,0.007-0.171,0.067-0.461,0.372
		c-0.623,0.653,0.062,1.027,0.062,1.027c-0.218-0.312,0.155-0.592,0.498-0.747c0.343-0.156,0.716,0.311,1.059,0.218
		c0.342-0.094,0.124-0.654,0.124-0.654c1.992-0.965,0.404-2.428-0.28-2.147s-0.124,0.935-0.124,0.935s0.124-0.935,0.715-0.28
		c0.593,0.653-0.964,1.431-1.307,0.28c-0.342-1.152-1.463-1.308-1.463-1.308c0.903-0.529,0.343-1.743-0.218-1.805
		c-0.561-0.062-0.685,0.497-0.685,0.497s0.685,0.404-0.125,0.778c-0.809,0.374-1.214-1.307-1.214-1.307s0.28,0.311,0.716,0.249
		c0.437-0.062,0.312-0.467,0.312-0.467c-1.058-0.031-1.151-0.747-0.996-1.494c0.156-0.747,1.806-1.711,1.806-1.711
		c-0.188,0.591,0.249,0.964,0.249,0.964c0.124-1.027,0.841-1.307,1.4-1.898c0.561-0.592,0.28-1.151,0.28-1.151
		c0.902,0.934,1.525,0.155,1.525,0.155s0,0-0.343-0.311c-0.343-0.312,0.155-1.246,0.155-1.246c0.001-0.02,0-0.037,0-0.057
		c0.77-0.252,1.898-0.596,2.366-0.596c0.375,0,1.288,0.002,2.235,0.858c0.211,0.611,0.251,1.446-0.587,1.728
		c-0.068-0.561-1.309-0.607-1.399,0.308c0,0-0.686-0.965-1.121-0.653c-0.436,0.311-0.684,0.686-0.094,1.245
		c0,0-2.738-0.965-2.303,1.276c0,0,0.28,0.84,1.059,0.529c0,0-1.059-0.188-0.654-0.841c0.404-0.654,1.339-0.062,1.525,0.187
		s0.215,0.802,0.921,0.802c0.408,0,0.48-0.335,0.48-0.335s1.432,0.934,1.711,0.094c0.281-0.84-0.746-1.184-1.027-1.121
		c2.139-0.82,2.057-2.188,1.727-2.987c0.33,0.349,0.658,0.808,0.967,1.415c0.018,0.041,0.478,1.026,2.006,0.855
		c0.003,0,0.252-0.039,0.433,0.255c0.035,0.059,0.097,0.09,0.159,0.09c0.034,0,0.068-0.01,0.099-0.027
		c0.089-0.056,0.116-0.171,0.062-0.26C39.615,30.837,39.134,30.909,39.124,30.912z"/>
</g>
<g>
	<path fill="#8C8C8C" d="M7.584,21.903c-0.481,0.03-0.565,1.208,0.523,1.233c1.429,0.064,1.111-1.569,2.005-2.322
		c0.568-0.501,1.012-0.59,1.012-0.59s-0.674-0.094-1.263,0.523l-0.339,0.326c0,0-0.481-0.48-0.655,0.31
		c-0.174,0.789-0.172,1.51-1.013,1.325c0,0-0.334-0.18-0.167-0.33C8.018,22.473,8.065,21.874,7.584,21.903z"/>
	<path fill="#8C8C8C" d="M3.272,30.718c-0.683-0.113-2.844,0.039-3.223,2.162c-0.379,2.124,1.555,2.39,2.389,1.896
		c0.834-0.492,0.038-1.1,0.038-1.1s-0.265-0.038-0.417,0.493c-0.152,0.53-0.683,0.493-0.986,0.304s-1.441-1.214-0.113-2.654
		c1.327-1.441,2.921-0.267,4.362-0.797c1.441-0.532,1.667-1.858,1.667-1.858C6.306,31.06,3.954,30.832,3.272,30.718z"/>
	<path fill="#8C8C8C" d="M41.9,23.136c1.089-0.026,1.004-1.204,0.522-1.233c-0.48-0.029-0.434,0.57-0.103,0.475
		c0.168,0.15-0.167,0.33-0.167,0.33c-0.84,0.185-0.838-0.536-1.012-1.325c-0.174-0.79-0.655-0.31-0.655-0.31l-0.339-0.326
		c-0.59-0.618-1.263-0.523-1.263-0.523s0.443,0.089,1.011,0.59C40.791,21.567,40.472,23.201,41.9,23.136z"/>
	<path fill="#8C8C8C" d="M49.96,32.88c-0.38-2.123-2.541-2.275-3.225-2.162c-0.682,0.114-3.033,0.342-3.716-1.555
		c0,0,0.227,1.326,1.667,1.858c1.441,0.53,3.036-0.645,4.362,0.797c1.327,1.44,0.19,2.465-0.113,2.654s-0.835,0.227-0.986-0.304
		c-0.151-0.531-0.417-0.493-0.417-0.493s-0.797,0.607,0.038,1.1C48.404,35.27,50.339,35.004,49.96,32.88z"/>
</g>
<g>
	<path fill="#D1D1D1" d="M11.024,21.682c-1.262,1.065,1.025,2.209,1.104,1.025c0,0,0.119-0.434-0.552-0.236
		c0,0-0.592-0.631,0.237-0.868c0.828-0.237,1.301,1.026,1.42,1.026s0.237-0.079,0.237-0.079s0.355-1.775-1.538-2.524
		c0,0,1.104,0.868,0.986,1.696C12.918,21.722,12.287,20.617,11.024,21.682z"/>
	<path fill="#D1D1D1" d="M37.879,22.708c0.079,1.184,2.367,0.04,1.104-1.025c-1.262-1.065-1.893,0.04-1.893,0.04
		c-0.119-0.828,0.985-1.696,0.985-1.696c-1.893,0.75-1.538,2.524-1.538,2.524s0.118,0.079,0.236,0.079s0.592-1.263,1.42-1.026
		s0.236,0.868,0.236,0.868C37.761,22.274,37.879,22.708,37.879,22.708z"/>
</g>
<g>
	<path fill="#565656" d="M9.757,19.381c1.103,0.047,1.655,0.402,1.655,0.402s-0.61-0.779-1.851-0.727H8.878c0,0-0.021-0.989-1-0.336
		C6.9,19.373,6.174,20.129,5.48,19.088c0,0-0.168-0.526,0.158-0.515c0.252,0.434,0.906-0.147,0.372-0.601
		c-0.534-0.455-1.811,0.695-0.697,1.82C6.747,21.301,8.061,19.268,9.757,19.381z"/>
	<path fill="#565656" d="M38.596,19.784c0,0,0.553-0.355,1.655-0.402c1.696-0.114,3.011,1.919,4.443,0.411
		c1.115-1.125-0.162-2.275-0.697-1.82c-0.533,0.454,0.12,1.035,0.372,0.601c0.325-0.011,0.158,0.515,0.158,0.515
		c-0.693,1.041-1.421,0.285-2.398-0.367c-0.979-0.652-0.999,0.336-0.999,0.336h-0.684C39.205,19.005,38.596,19.784,38.596,19.784z"
		/>
	<g>
		<path fill="#565656" d="M10.856,29.239c0.615-1.498-1.213-2.691-2.086-1.972c-0.872,0.721,0.152,1.138,0.418,0.986
			c0.265-0.151-0.19-0.418-0.19-0.418c0-0.455,1.479-0.721,1.138,0.607c-0.341,1.327-1.82,0.834-1.82,0.834
			c-2.124-1.517-0.341-3.451,0.341-4.133c0.589-0.553,1.481-0.745,2.541-0.834c-0.385-0.04-0.948-0.038-1.782,0.114
			c-0.834,0.152-1.896,1.1-1.896,1.1c-0.948-1.669-1.82,0.342-1.82,0.606s0.569-0.304,0.834-0.151
			c0.266,0.151,0.152,1.402-0.455,1.593c-0.607,0.189-0.035-0.476-0.456-0.607c-0.42-0.131-0.341,0.532-0.378,1.631
			c-0.039,1.1-1.176,0.342-1.138,0.151s0.379,0.493,0.455-0.227c0.076-0.722-1.668-0.342-0.796,1.099
			c0.872,1.441,2.957-0.644,3.147-0.682c0.189-0.038,0.265-0.039,0.796,0.909s1.438,0.646,1.858,0.531
			C9.987,30.263,10.692,29.875,10.856,29.239z"/>
		<path fill="#565656" d="M46.243,29.619c0.872-1.441-0.872-1.821-0.797-1.1c0.076,0.72,0.417,0.036,0.456,0.227
			c0.037,0.19-1.101,0.948-1.138-0.151c-0.039-1.099,0.04-1.762-0.38-1.631c-0.421,0.132,0.151,0.797-0.454,0.607
			c-0.606-0.19-0.722-1.441-0.455-1.593c0.266-0.152,0.833,0.417,0.833,0.151c0-0.265-0.872-2.275-1.82-0.606
			c0,0-1.061-0.948-1.896-1.1c-0.834-0.151-1.397-0.154-1.782-0.114c1.06,0.089,1.95,0.281,2.54,0.834
			c0.684,0.682,2.465,2.617,0.342,4.133c0,0-1.479,0.493-1.82-0.834c-0.341-1.328,1.137-1.062,1.137-0.607
			c0,0-0.453,0.267-0.188,0.418c0.266,0.151,1.29-0.266,0.418-0.986c-0.872-0.72-2.701,0.474-2.087,1.972
			c0.164,0.636,0.869,1.023,1.289,1.138c0.421,0.115,1.328,0.417,1.858-0.531c0.531-0.948,0.606-0.947,0.796-0.909
			C43.285,28.975,45.371,31.06,46.243,29.619z"/>
		<path fill="#565656" d="M29.75,16.716c2.057-0.17,3.104,0.327,3.104,0.327s-1.564-0.798-3.164-0.592
			c-2.145,0.278-4.049,1.958-4.687,4.126c-0.638-2.168-2.542-3.849-4.686-4.126c-1.601-0.206-3.165,0.592-3.165,0.592
			s1.049-0.497,3.104-0.327c2.056,0.169,4.175,2.295,4.538,4.644c0.015,0.093,0.095,0.159,0.186,0.159
			c0.008,0,0.015-0.001,0.023-0.002c0.008,0.001,0.015,0.002,0.023,0.002c0.09,0,0.171-0.066,0.185-0.159
			C25.575,19.011,27.694,16.885,29.75,16.716z"/>
	</g>
</g>
</svg>
