<?xml version="1.0" encoding="utf-8"?>
<!-- Generator: Adobe Illustrator 16.0.0, SVG Export Plug-In . SVG Version: 6.00 Build 0)  -->
<!DOCTYPE svg PUBLIC "-//W3C//DTD SVG 1.1//EN" "http://www.w3.org/Graphics/SVG/1.1/DTD/svg11.dtd">
<svg version="1.1" id="Layer_1" xmlns="http://www.w3.org/2000/svg" xmlns:xlink="http://www.w3.org/1999/xlink" x="0px" y="0px"
	 width="50px" height="50px" viewBox="0 0 50 50" enable-background="new 0 0 50 50" xml:space="preserve">
<path fill="#231F20" d="M45.481,29.084c0.106-0.362,0.165-0.743,0.165-1.14c0-2.242-1.817-4.06-4.059-4.06
	c-0.104,0-0.205,0.009-0.308,0.016c-0.951-2.387-3.281-4.075-6.007-4.075c-3.222,0-5.892,2.356-6.383,5.441
	c-0.555-0.395-1.229-0.63-1.962-0.63c-0.555,0-1.077,0.137-1.54,0.374c-0.514-0.929-1.345-1.656-2.349-2.037
	c0.036-0.293,0.056-0.59,0.056-0.893c0-4.068-3.297-7.367-7.366-7.367c-3.968,0-7.202,3.137-7.36,7.066
	c-0.002,0-0.004-0.001-0.007-0.001c-2.823,0-5.111,2.29-5.111,5.112c0,0.714,0.146,1.392,0.41,2.009
	c-1.595,0.246-2.816,1.587-2.816,3.21c0,1.797,1.495,3.254,3.34,3.254h40.076c1.845,0,3.34-1.457,3.34-3.254
	C47.601,30.733,46.721,29.56,45.481,29.084z"/>
</svg>
