<?xml version="1.0" encoding="utf-8"?>
<!-- Generator: Adobe Illustrator 16.0.0, SVG Export Plug-In . SVG Version: 6.00 Build 0)  -->
<!DOCTYPE svg PUBLIC "-//W3C//DTD SVG 1.1//EN" "http://www.w3.org/Graphics/SVG/1.1/DTD/svg11.dtd">
<svg version="1.1" id="Layer_1" xmlns="http://www.w3.org/2000/svg" xmlns:xlink="http://www.w3.org/1999/xlink" x="0px" y="0px"
	 width="960px" height="560px" viewBox="0 0 960 560" enable-background="new 0 0 960 560" xml:space="preserve">
<path fill="#808080" d="M561.363,315.722c-1.488,3.281-2.775,8.488-5.803,12.331c-8.303,10.571-12.559,23.247-19.018,34.758
	c-2.938,5.24-4.903,5.021-8.115,0.742c-7.971-10.624-12.955-23.408-21.551-33.282c-9.545-10.962-2.006-19.551,2.078-27.709
	c5.321-10.638,9.441-21.586,13.44-32.675c0.801-2.235,1.161-5.305,3.945-5.476c2.608-0.16,3.787,2.647,5.069,4.649
	c8.038,12.572,16.261,25.005,25.923,36.426C559.461,308,562.236,310.342,561.363,315.722z"/>
<path fill="#333333" d="M442.971,329.171c-0.252,0.859-0.329,1.885-0.819,2.641c-5.114,7.87-10.287,15.705-15.474,23.53
	c-1.665,2.515-3.608,1.716-5.578,0.378c-7.597-5.178-14.592-11.065-20.979-17.681c-1.655-1.718-2.717-3.571-1.106-5.751
	c7.575-10.267,11.704-22.616,20.03-32.502c3.927-4.659,5.596-3.985,8.893,0.536C434.402,309.188,438.707,319.034,442.971,329.171z"
	/>
<path fill="#333333" d="M467.387,161.262c-2.82,9.772-5.712,19.979-8.722,30.149c-1.363,4.627-2.825,9.23-4.471,13.765
	c-1.511,4.161-3.634,6.473-7.597,1.918c-10.593-12.176-21.866-23.699-33.912-34.449c-2.555-2.283-2.852-4.595-0.985-7.633
	c7.688-12.532,15.204-25.167,22.761-37.776c1.979-3.304,3.644-4.763,6.806-0.697c7.548,9.703,15.528,19.059,23.27,28.608
	C465.872,156.795,467.545,158.379,467.387,161.262z"/>
</svg>
