<?xml version="1.0" encoding="utf-8"?>
<!-- Generator: Adobe Illustrator 16.0.0, SVG Export Plug-In . SVG Version: 6.00 Build 0)  -->
<!DOCTYPE svg PUBLIC "-//W3C//DTD SVG 1.1//EN" "http://www.w3.org/Graphics/SVG/1.1/DTD/svg11.dtd">
<svg version="1.1" id="Layer_1" xmlns="http://www.w3.org/2000/svg" xmlns:xlink="http://www.w3.org/1999/xlink" x="0px" y="0px"
	 width="960px" height="560px" viewBox="0 0 960 560" enable-background="new 0 0 960 560" xml:space="preserve">
<path fill="#333333" d="M566.349,275.662c-1.088,2.885-1.755,6.186-3.423,8.862c-20.805,33.323-37.1,69.372-61.598,100.532
	c-6.882,8.765-10.885,6.49-16.924,0.525c-37.651-37.296-75.185-74.714-113.312-111.521c-6.937-6.687-3.906-11.454-0.41-16.955
	c24.956-39.215,49.862-78.491,82.709-111.888c3.795-3.863,7.029-10.562,13.911-3.19c35.297,37.773,71.462,74.873,94.266,122.253
	C563.268,267.802,564.619,271.506,566.349,275.662z"/>
</svg>
