<?xml version="1.0" encoding="utf-8"?>
<!-- Generator: Adobe Illustrator 16.0.0, SVG Export Plug-In . SVG Version: 6.00 Build 0)  -->
<!DOCTYPE svg PUBLIC "-//W3C//DTD SVG 1.1//EN" "http://www.w3.org/Graphics/SVG/1.1/DTD/svg11.dtd">
<svg version="1.1" id="Layer_1" xmlns="http://www.w3.org/2000/svg" xmlns:xlink="http://www.w3.org/1999/xlink" x="0px" y="0px"
	 width="1000px" height="1000px" viewBox="0 0 1000 1000" enable-background="new 0 0 1000 1000" xml:space="preserve">
<path fill="#A00A1C" d="M236.714,217.262c0,0-136.651,78.506-131.9,122.624c4.75,44.117,59.049,52.262,82.125,61.765
	c23.077,9.502,124.886,38.009,98.416,65.836s-73.303,35.294-91.628,49.548c-18.326,14.253-38.009,38.687-16.969,45.474
	c21.041,6.786,33.258-6.787,59.05,13.575c25.792,20.361,42.76,50.226,27.148,64.479c-15.61,14.252-23.077,25.792-47.51,19.684
	c-24.434-6.109-46.153-21.041-40.045-29.865c6.109-8.824,26.471-13.575,26.471-13.575s-28.507-0.678-33.937,8.146
	c-5.431,8.824,30.542,44.795,59.049,44.795s54.192-8.144,62.729-21.719c8.538-13.573,26.862-62.442-13.862-84.84
	c-40.722-22.398-16.289-34.615,3.395-40.046c19.684-5.429,39.366-2.715,48.868-10.181c9.503-7.466,46.154-49.547,32.579-88.234
	s-102.488-120.813-98.416-157.465c4.072-36.651,16.57-70.342,16.57-70.342S259.259,203.501,236.714,217.262z"/>
</svg>
