<?xml version="1.0" encoding="utf-8"?>
<!-- Generator: Adobe Illustrator 16.0.0, SVG Export Plug-In . SVG Version: 6.00 Build 0)  -->
<!DOCTYPE svg PUBLIC "-//W3C//DTD SVG 1.1//EN" "http://www.w3.org/Graphics/SVG/1.1/DTD/svg11.dtd">
<svg version="1.1" id="Layer_1" xmlns="http://www.w3.org/2000/svg" xmlns:xlink="http://www.w3.org/1999/xlink" x="0px" y="0px"
	 width="100px" height="100px" viewBox="0 0 100 100" enable-background="new 0 0 100 100" xml:space="preserve">
<g>
	<g>
		<path fill-rule="evenodd" clip-rule="evenodd" d="M62.975,46.251c-0.399,0.652-0.562,1.141-0.895,1.425
			c-1.216,1.038-0.967,2.326-0.583,3.553c0.125,0.399,0.837,0.601,1.253,0.929c0.35,0.276,0.656,0.605,0.983,0.911
			c-0.275,0.241-0.667,0.433-0.803,0.736c-0.263,0.588-0.589,1.26-0.528,1.861c0.542,5.317,1.212,10.624,1.74,15.942
			c0.249,2.49,0.271,5,0.395,7.461c2.156-0.301,4.315-0.608,6.474-0.898c0.452-0.06,0.921-0.115,1.366-0.06
			c2.112,0.261,2.266,0.121,2.261-2.06c-0.004-3.345,0.006-6.688,0.027-10.032c0.003-0.526,0.101-1.047,0.156-1.571
			c0.16-0.013,0.322-0.027,0.482-0.041c0.109,0.541,0.304,1.08,0.311,1.62c0.043,3.395,0.105,6.789,0.031,10.182
			c-0.03,1.355,0.298,1.909,1.742,2.254c2.36,0.566,4.371-0.249,6.4-1.042c0.575-0.227,1.171-1.057,1.282-1.69
			c0.377-2.122,0.812-4.297,0.699-6.422c-0.104-1.956-0.856-3.885-1.406-5.799c-0.061-0.216-0.821-0.48-0.963-0.364
			c-0.275,0.229-0.525,0.748-0.454,1.075c0.108,0.501,0.501,0.94,0.808,1.468c-2.229,0.273-4.729-2.053-4.541-4.032
			c0.028-0.303,0.21-0.736,0.075-0.89c-1.477-1.667,0.184-2.112,1.073-2.857c0.158-0.13,0.441-0.197,0.493-0.353
			c0.156-0.463,0.229-0.957,0.334-1.438c-0.456-0.001-1.04-0.187-1.343,0.028c-1.258,0.893-2.197,2.021-2.043,3.729
			c0.039,0.416-0.045,0.845-0.072,1.266c-0.207,0.038-0.414,0.075-0.621,0.112c-0.431-1.506-0.861-3.012-1.348-4.709
			c-1.684,1.11-3.129,2.062-4.55,3c-0.483-1.46,0.135-3.478,1.795-4.489c1.382-0.842,2.981-1.333,4.499-1.942
			c0.667-0.268,1.442-0.325,2.036-0.692c0.488-0.299,0.947-0.87,1.092-1.408c0.086-0.319-0.446-1.14-0.727-1.153
			c-0.593-0.028-1.291,0.207-1.776,0.561c-0.492,0.357-0.78,0.993-1.217,1.585c-0.785-1.569-0.457-2.939,0.718-4.177
			c1.015-1.07,1.99-2.185,2.883-3.356c1.012-1.326,3.028-1.715,4.724-0.712c1.68,0.992,3.303,1.022,4.923-0.077
			c1.145-0.778,1.496-1.766,0.673-3.238c-0.146,0.387-0.173,0.675-0.33,0.822c-0.319,0.298-0.716,0.719-1.071,0.71
			c-0.308-0.007-0.719-0.489-0.875-0.852c-0.281-0.655-0.281-1.452-0.633-2.052c-0.361-0.61-0.924-1.227-1.549-1.513
			c-0.414-0.189-1.323,0.024-1.589,0.376c-0.278,0.371-0.188,1.163-0.016,1.692c0.19,0.586,0.656,1.085,1.057,1.712
			c-1.397,0.644-2.177-0.054-2.775-0.875c-0.601-0.822-0.914-1.866-1.557-2.646c-0.444-0.542-1.409-1.261-1.83-1.098
			c-1.068,0.416-0.32,1.247-0.002,1.914c0.119,0.254,0.188,0.534,0.288,0.828c-2.256,0.308-2.245,0.308-2.077,2.671
			c0.029,0.401,0.028,0.868-0.15,1.201c-0.191,0.362-0.607,0.604-0.927,0.898c-0.258-0.334-0.645-0.634-0.746-1.012
			c-0.217-0.789-0.174-1.658-0.447-2.418c-0.167-0.459-0.73-0.777-1.115-1.158c-0.358,0.5-1.011,1.001-1.007,1.499
			c0.003,0.769,0.456,1.536,0.81,2.573c-0.726-0.017-1.322-0.031-2.153-0.05c0.23,0.892,0.428,1.764,0.683,2.62
			c0.246,0.825,0.549,1.632,0.855,2.529c-4.47-0.651-6.151-2.04-5.943-5.64c0.033-0.566-0.374-1.19-0.696-1.713
			c-0.059-0.095-0.967,0.091-1.021,0.281c-0.184,0.639-0.194,1.336-0.203,2.015c-0.008,0.537,0.083,1.076,0.129,1.613
			c-0.539-0.316-1.226-0.52-1.581-0.979c-0.42-0.543-0.53-1.317-0.821-1.97c-0.17-0.379-0.466-1.034-0.643-1.014
			c-0.441,0.051-1.006,0.313-1.241,0.672c-0.549,0.836-1.034,1.748-1.34,2.695c-0.15,0.463,0.038,1.146,0.309,1.585
			c0.123,0.197,0.82,0.053,1.255,0.04C62.121,46.396,62.36,46.34,62.975,46.251z"/>
	</g>
	<g>
		<path fill-rule="evenodd" clip-rule="evenodd" d="M38.501,69.256c-1.766,0.017-1.755,0.999-1.738,1.946
			c0.029,1.695,0.039,3.393,0.178,5.08c0.04,0.481,0.394,1.137,0.792,1.344c0.799,0.413,1.758,0.868,2.597,0.782
			c3.262-0.331,6.209,0.588,9.116,1.861c1.78,0.781,2.207,0.616,2.063-1.266c-0.372-4.916-0.937-9.816-1.428-14.721
			c-0.072-0.724-0.167-1.443-0.251-2.164c0.201-0.067,0.402-0.136,0.604-0.205c0.251,0.573,0.66,1.128,0.729,1.723
			c0.625,5.306,1.286,10.607,1.716,15.931c0.132,1.646,0.859,2.351,2.227,2.218c1.866-0.182,3.707-0.688,5.548-1.1
			c0.494-0.11,0.934-0.487,1.428-0.566c1.041-0.166,1.323-0.721,1.245-1.72c-0.446-5.739-0.852-11.483-1.272-17.227
			c-0.048-0.658-0.107-1.316-0.157-1.929c-1.298-0.216-2.522-0.347-3.711-0.634c-1.966-0.474-2.634-1.497-2.389-3.465
			c0.045-0.356,0.271-0.775,0.15-1.05c-0.218-0.494-0.635-0.898-0.969-1.343c-0.169,0.434-0.506,0.876-0.479,1.297
			c0.083,1.313,0.477,2.643-0.688,4.06c-0.293-0.697-0.552-1.206-0.722-1.743c-0.244-0.782-0.326-1.632-0.67-2.361
			c-0.183-0.388-0.953-0.91-1.143-0.806c-0.532,0.3-0.922,0.873-1.314,1.378c-0.088,0.11-0.032,0.467,0.083,0.582
			c1.518,1.514-0.123,2.879-0.041,4.317c-0.133,0.038-0.268,0.075-0.402,0.113c-0.745-1.812-1.524-3.613-2.226-5.442
			c-0.514-1.345-1.43-1.797-2.792-1.515c-1.515,0.314-1.769,1.001-0.797,2.208c0.374,0.466,0.762,0.92,0.979,1.684
			c-0.898-0.183-1.796-0.367-2.694-0.552c-0.083,0.146-0.166,0.293-0.248,0.438c0.576,0.38,1.145,0.771,1.731,1.136
			c0.591,0.365,1.199,0.708,1.8,1.06c-0.021,0.146-0.04,0.291-0.061,0.437c-0.43,0.066-0.859,0.184-1.29,0.189
			c-0.556,0.004-1.173-0.255-1.655-0.088c-0.573,0.197-1.254,0.636-1.462,1.144c-0.163,0.395,0.254,1.103,0.548,1.591
			c0.441,0.738,1.087,1.365,1.467,2.126c0.177,0.355-0.072,0.92-0.129,1.392c-0.421-0.091-0.908-0.077-1.252-0.292
			c-0.562-0.349-1.044-0.831-1.536-1.283c-0.909-0.84-1.974-1.409-3.014-0.475c-1.012,0.912-0.747,2.158-0.152,3.258
			C37.254,67.399,37.789,68.14,38.501,69.256z"/>
	</g>
	<g>
		<path fill-rule="evenodd" clip-rule="evenodd" d="M31.657,48.038c-1.329-1.229-2.46-2.275-3.59-3.32
			c-0.157,0.112-0.314,0.225-0.471,0.337c0.301,0.882,0.602,1.763,0.956,2.798c-1.794-0.049-2.678-1.043-3.52-2.182
			c-0.251-0.342-0.766-0.492-1.161-0.729c-0.061,0.518-0.278,1.082-0.143,1.542c0.19,0.652,0.641,1.229,0.98,1.836
			c-0.084,0.143-0.169,0.283-0.253,0.423c-0.81-0.25-1.618-0.501-2.427-0.752c-0.062,0.071-0.124,0.143-0.187,0.214
			c0.922,0.758,1.844,1.517,2.864,2.356c-1.194,1.037-2.217,0.393-3.239,0.064c-0.853-0.273-1.771-1.394-2.569-0.158
			c-0.716,1.109,0.526,1.587,1.108,2.217c0.821,0.887,1.153,1.811,0.967,3.08c-0.172,1.185,0.043,2.432,0.129,3.647
			c0.23,3.225,0.566,6.44,0.693,9.668c0.062,1.563,1.138,1.728,2.178,2.15c3.089,1.253,6.17,2.524,9.234,3.84
			c0.736,0.316,1.39,0.827,2.155,1.293c0.2-0.33,0.44-0.541,0.432-0.742c-0.137-2.989,0.474-6.067-1.214-8.875
			c-0.398-0.664-0.479-1.563-0.546-2.367c-0.066-0.812,0.167-1.65,0.083-2.458c-0.076-0.76-0.356-1.511-0.651-2.221
			c-0.045-0.111-0.899-0.089-0.948,0.037c-0.293,0.771-0.653,1.596-0.625,2.389c0.042,1.106,0.407,2.201,0.638,3.32
			c-1.467-0.046-2.357-0.865-2.657-2.993c-0.191-1.354,0.154-2.782-0.055-4.348c-0.261,0.679-0.523,1.357-0.82,2.123
			c-1.869-0.054-1.116-2.136-2.109-2.952c-2.014,1.274-0.883,3.248-1.042,4.911c-1.972-0.631-3.093-3.491-2.155-5.362
			c0.27-0.539,0.645-1.104,1.125-1.44c1.482-1.041,2.97-1.932,2.569-4.219c-0.087-0.499,0.875-1.309,1.503-1.772
			C29.568,48.891,30.421,48.626,31.657,48.038z"/>
	</g>
	<g>
		<path fill-rule="evenodd" clip-rule="evenodd" d="M17.001,56c0.381,0.706,0.681,1.233,0.951,1.775
			c0.125,0.248,0.341,0.666,0.253,0.759c-0.215,0.229-0.578,0.424-0.89,0.438c-1.677,0.072-3.064-1.124-3.445-2.788
			c-0.089-0.387-0.452-0.943-0.756-0.991c-0.428-0.065-1.234,0.172-1.324,0.455c-0.29,0.92-0.396,1.918-0.431,2.893
			c-0.017,0.461,0.289,0.933,0.511,1.582c-0.657-0.056-1.13-0.095-2.034-0.171c0.294,0.725,0.391,1.353,0.744,1.761
			c0.874,1.008,1.879,1.899,2.801,2.868c0.999,1.049,2.002,1.825,3.608,2.039c1.24,0.168,2.354,1.259,3.628,1.997
			c0.042-0.261,0.183-0.635,0.146-0.994c-0.333-3.428-0.574-6.871-1.12-10.267c-0.188-1.166-1.077-2.265-1.81-3.273
			c-0.23-0.314-1.312-0.479-1.458-0.289c-0.327,0.423-0.449,1.13-0.375,1.685C16.032,55.722,16.744,55.875,17.001,56z"/>
	</g>
	<g>
		<path fill-rule="evenodd" clip-rule="evenodd" d="M86.343,75.947c0.874-0.413,1.365-0.55,1.742-0.838
			c1.707-1.309,3.351-2.701,5.077-3.983c1.601-1.19,2.256-2.719,2.013-4.671c-0.221-1.778-0.4-3.562-0.69-5.33
			c-0.061-0.373-0.483-0.719-0.811-0.987c-0.067-0.054-0.656,0.281-0.667,0.459c-0.027,0.421,0.047,0.918,0.267,1.27
			c0.311,0.495,0.788,0.887,1.192,1.322c-0.059,0.151-0.119,0.305-0.178,0.458c-0.618-0.156-1.298-0.198-1.84-0.496
			c-0.756-0.414-1.357-1.124-2.126-1.5c-0.396-0.194-1.013,0.06-1.529,0.108c0.068,0.461,0.016,0.992,0.233,1.363
			c0.321,0.543,0.837,0.97,1.536,1.743c-1.172,0.136-1.979,0.229-2.827,0.326c-0.371,2.11,2.192,2.228,2.692,4.021
			c-1.254-0.159-2.272-0.291-3.438-0.44C86.778,71.116,86.583,73.286,86.343,75.947z"/>
	</g>
	<g>
		<path fill-rule="evenodd" clip-rule="evenodd" d="M59.428,42.214c0.403-2.887,2.348-3.601,4.347-4.266
			c2.059-0.685,4.19-3.474,4.329-5.626c-1.202-0.086-1.202-0.086-2.589,3.018c-1.793-1.332-1.736-2.203,0.401-5.698
			c-0.854-0.965-1.669-0.557-2.542,0.011c-0.812,0.526-1.68,0.962-2.738,1.559c0.697,0.164,1.312,0.308,1.929,0.452
			c-0.025,0.237-0.052,0.473-0.078,0.709c-1.102,0.314-2.204,0.627-3.409,0.969c1.167,1.451,2.641,0.077,3.854,0.509
			c-0.642,1.599-2.113,2.319-4.07,2.175c-0.767-0.056-1.554,0.217-2.332,0.34c0.684,0.452,1.352,0.932,2.06,1.345
			c0.369,0.216,0.807,0.313,1.29,0.494C58.352,39.66,58.352,39.66,59.428,42.214z"/>
	</g>
	<g>
		<path fill-rule="evenodd" clip-rule="evenodd" d="M2.524,55.267c-0.073,0.597-0.301,1.106-0.139,1.415
			c0.379,0.724,2.96,1.225,3.7,0.79c0.941,0.954,1.892,1.921,2.846,2.887c0.168-0.045,0.334-0.092,0.502-0.136
			c0.01-0.455,0.183-0.988,0.006-1.353c-1.397-2.887-1.38-2.897,0.827-5.078c0.322-0.316,0.476-1.315,0.243-1.567
			c-0.342-0.371-1.3-0.665-1.651-0.444c-1.096,0.688-1.959,1.115-2.809-0.283c-0.098-0.161-0.728-0.169-0.972-0.021
			c-0.226,0.138-0.419,0.616-0.36,0.883C4.95,53.393,5.3,54.4,5.58,55.427c0.087,0.319,0.228,0.873,0.105,0.952
			c-0.295,0.191-0.802,0.325-1.097,0.196C3.951,56.295,3.393,55.835,2.524,55.267z"/>
	</g>
	<g>
		<path fill-rule="evenodd" clip-rule="evenodd" d="M33.387,41.702c0.474,0.501,0.947,1.001,1.668,1.763
			c-0.888,0.027-1.472-0.007-2.036,0.079c-0.437,0.067-0.848,0.287-1.271,0.439c0.304,0.35,0.576,0.736,0.918,1.042
			c0.528,0.471,1.104,0.891,1.658,1.331c-0.062,0.127-0.122,0.255-0.183,0.38c-0.322,0.053-0.687,0.028-0.955,0.178
			c-0.354,0.198-0.631,0.533-0.942,0.81c0.43,0.272,0.88,0.804,1.285,0.771c1.419-0.12,2.283-1.1,2.763-2.358
			c0.523-1.372,0.892-2.909-0.221-4.062c-0.517-0.539-1.662-0.472-2.522-0.679C33.494,41.498,33.44,41.601,33.387,41.702z"/>
	</g>
</g>
<g>
	<path fill-rule="evenodd" clip-rule="evenodd" d="M96.518,67.26c2.089-1.464,3.061-3.457,2.535-4.97
		c-0.478-1.368-1.479-2.163-3.367-2.249C95.962,62.438,96.225,64.715,96.518,67.26z"/>
</g>
</svg>
