<?xml version="1.0" encoding="utf-8"?>
<!-- Generator: Adobe Illustrator 16.0.0, SVG Export Plug-In . SVG Version: 6.00 Build 0)  -->
<!DOCTYPE svg PUBLIC "-//W3C//DTD SVG 1.1//EN" "http://www.w3.org/Graphics/SVG/1.1/DTD/svg11.dtd">
<svg version="1.1" id="Layer_1" xmlns="http://www.w3.org/2000/svg" xmlns:xlink="http://www.w3.org/1999/xlink" x="0px" y="0px"
	 width="100px" height="100px" viewBox="-25 -25 100 100" enable-background="new -25 -25 100 100" xml:space="preserve">
<path fill="#1E1E1E" d="M51.26,51.838c-3.078,4.339-7.439,6.237-12.421,6.816c-2.558,0.297-5.195,0.478-7.728,0.162
	c-1.824-0.228-3.535-1.357-5.292-2.092c-0.346-0.145-0.662-0.365-1.013-0.489c-5.475-1.967-10.24-5.248-14.797-8.689
	c-3.087-2.333-5.848-5.24-7.569-8.934c-1.225-2.628-2.87-5.062-4.11-7.686c-2.736-5.786-3.997-11.831-2.729-18.247
	c0.658-3.334,1.046-6.71,2.748-9.777C1.394-2.579,5.985-6.392,11.618-8.722c4.044-1.672,8.491-1.173,12.818-0.672
	c4.321,0.501,7.047,2.637,8.857,6.728c2.375,5.372,2.925,10.907,2.904,16.614c-0.021,5.459-0.239,10.923-0.053,16.374
	c0.314,9.24,4.151,16.395,12.886,20.386C49.805,51.062,50.551,51.475,51.26,51.838z"/>
</svg>
