<?xml version="1.0" encoding="utf-8"?>
<!-- Generator: Adobe Illustrator 16.0.0, SVG Export Plug-In . SVG Version: 6.00 Build 0)  -->
<!DOCTYPE svg PUBLIC "-//W3C//DTD SVG 1.1//EN" "http://www.w3.org/Graphics/SVG/1.1/DTD/svg11.dtd">
<svg version="1.1" id="Layer_1" xmlns="http://www.w3.org/2000/svg" xmlns:xlink="http://www.w3.org/1999/xlink" x="0px" y="0px"
	 width="100px" height="100px" viewBox="0 0 100 100" enable-background="new 0 0 100 100" xml:space="preserve">
<path fill-rule="evenodd" clip-rule="evenodd" d="M17.688,100.023l0.092-0.092L17.688,100.023z"/>
<path fill-rule="evenodd" clip-rule="evenodd" d="M82.626,0.303l0.292-0.292L82.626,0.303z"/>
<g>
	<polygon fill-rule="evenodd" clip-rule="evenodd" points="17.78,94.389 28.412,83.756 48.676,63.492 48.676,57.25 48.676,52.622 
		48.676,48.219 48.676,47.814 48.957,47.534 57.639,38.852 70.741,25.748 70.741,28.491 67.721,31.512 52.526,46.707 50.609,48.624 
		50.609,49.653 50.609,54.64 50.609,63.898 50.609,64.304 50.329,64.583 23.3,91.611 17.78,97.131 	"/>
	<polygon fill-rule="evenodd" clip-rule="evenodd" points="17.78,99.585 18.73,98.634 72.722,44.53 72.722,15.676 72.722,9.965 
		72.722,9.864 72.792,9.794 82.626,-0.041 82.626,0.303 82.626,0.459 82.626,0.645 82.279,0.993 73.205,10.066 73.205,14.934 
		73.205,44.63 73.205,44.73 73.135,44.8 17.78,100.271 17.78,100.023 17.78,99.932 	"/>
</g>
<polygon fill-rule="evenodd" clip-rule="evenodd" fill="#B3B3B3" points="65.55,35.624 65.55,49.195 70.83,43.917 70.83,30.488 "/>
<g>
	<polygon fill-rule="evenodd" clip-rule="evenodd" fill="#4D4D4D" points="58.811,42.418 58.811,55.989 64.088,50.71 64.088,37.282 
			"/>
	<polygon fill-rule="evenodd" clip-rule="evenodd" fill="#4D4D4D" points="48.617,33.909 48.617,36.651 70.741,14.525 
		70.741,11.783 	"/>
</g>
<g>
	<polygon fill-rule="evenodd" clip-rule="evenodd" fill="#333333" points="52.068,49.093 52.068,62.664 57.347,57.386 
		57.347,43.957 	"/>
	<polygon fill-rule="evenodd" clip-rule="evenodd" fill="#333333" points="48.617,40.892 48.617,43.634 65.543,26.708 
		70.741,21.508 70.741,18.766 70.655,18.853 	"/>
</g>
</svg>
