<?xml version="1.0" encoding="utf-8"?>
<!-- Generator: Adobe Illustrator 16.0.0, SVG Export Plug-In . SVG Version: 6.00 Build 0)  -->
<!DOCTYPE svg PUBLIC "-//W3C//DTD SVG 1.1//EN" "http://www.w3.org/Graphics/SVG/1.1/DTD/svg11.dtd">
<svg version="1.1" id="Layer_1" xmlns="http://www.w3.org/2000/svg" xmlns:xlink="http://www.w3.org/1999/xlink" x="0px" y="0px"
	 width="960px" height="560px" viewBox="0 0 960 560" enable-background="new 0 0 960 560" xml:space="preserve">
<path fill="#333333" d="M626.436,92.125c0.962,1.924,0.794,3.989,0.113,5.833c-3.174,8.584-4.441,17.624-6.594,26.45
	c-1.886,7.732-1.229,15.732-2.951,23.467c-1.64,7.346-2.041,14.905-3.71,22.26c-1.94,8.543-4.503,16.95-5.599,25.68
	c-0.255,2.053-1.5,3.319-3.431,4.104c-6.361,2.588-13.122,3.573-19.785,4.831c-11.736,2.213-23.688,2.93-35.494,4.621
	c-8.17,1.168-16.166,3.526-24.329,4.782c-12.171,1.873-24.126,4.873-36.34,6.558c-6.392,0.881-12.595,3.059-18.924,4.473
	c-6.667,1.491-13.152,4.331-20.244,3.002c-3.612,2.426-7.911,1.885-11.887,2.744c-0.384,0.083-0.794,0.051-1.601,0.095
	c2.004-3.153,4.566-5.417,7.288-7.069c4.618-2.802,8.572-6.416,12.922-9.53c12.252-8.777,23.201-19.19,35.112-28.397
	c5.287-4.088,11.09-7.5,16.541-11.387c7.737-5.52,15.15-11.469,23.168-16.626c10.372-6.674,20.467-13.78,30.659-20.741
	c12.347-8.435,24.407-17.278,36.814-25.617c8.598-5.779,16.813-12.136,25.85-17.262c0.96-0.545,2.159-0.904,2.479-2.211
	C626.48,92.164,626.436,92.125,626.436,92.125z"/>
<path fill="#808080" d="M332.76,397.819c1.968-4.037,4.075-7.632,6.53-11.108c8.823-12.493,15.675-26.189,23.661-39.194
	c6.137-9.991,11.676-20.312,17.398-30.527c6.44-11.497,12.094-23.436,18.643-34.865c4.992-8.712,9.427-17.719,14.558-26.346
	c0.806-1.355,1.947-2.037,3.484-2.389c7.76-1.773,15.637-1.11,23.473-1.185c3.356-0.033,6.642,0.094,9.894-1.15
	c3.454-1.322,7.198-1.173,10.843-1.459c1.706-0.135,2.201,0.638,1.232,2.019c-1.609,2.292-3.356,4.485-5.037,6.727
	c-7.389,9.847-16.072,18.632-23.369,28.565c-2.215,3.016-4.495,6.028-7.268,8.618c-3.065,2.863-5.377,6.377-7.932,9.674
	c-6.229,8.033-14.391,14.295-20.669,22.219c-6.443,8.132-13.81,15.385-20.796,22.975c-8.34,9.062-16.706,18.119-25.059,27.176
	c-5.806,6.294-11.592,12.608-17.481,18.827C334.389,396.897,334.124,397.706,332.76,397.819z"/>
<path fill="#B3B3B3" d="M516.238,140.77c-5.018,4.2-9.472,8.132-14.148,11.778c-3.868,3.016-6.968,6.867-11.172,9.534
	c-6.227,3.947-11.852,8.803-18.242,12.521c-4.103,2.388-7.628,5.513-11.309,8.444c-0.53,0.422-1.124,1.175-1.892,0.676
	c-0.287-0.188-0.301-0.934-0.287-1.421c0.217-6.885,0.45-13.772,0.705-20.655c0.229-6.173,1.849-12.204,1.919-18.396
	c0.021-1.875,1.422-1.679,2.71-1.692c14.427-0.158,28.823-1.92,43.274-0.845C510.361,140.902,512.924,139.767,516.238,140.77z"/>
</svg>
