<?xml version="1.0" encoding="utf-8"?>
<!-- Generator: Adobe Illustrator 16.0.0, SVG Export Plug-In . SVG Version: 6.00 Build 0)  -->
<!DOCTYPE svg PUBLIC "-//W3C//DTD SVG 1.1//EN" "http://www.w3.org/Graphics/SVG/1.1/DTD/svg11.dtd">
<svg version="1.1" id="Layer_1" xmlns="http://www.w3.org/2000/svg" xmlns:xlink="http://www.w3.org/1999/xlink" x="0px" y="0px"
	 width="960px" height="560px" viewBox="0 0 960 560" enable-background="new 0 0 960 560" xml:space="preserve">
<path fill="#333333" d="M210.921,299.653c11.335-3.61,23.125-5.9,35.25-6.145c35.72-0.727,71.24-4.039,106.805-7.232
	c25.896-2.316,51.861-4.321,77.833-6.032c33.219-2.185,66.397-4.908,99.609-7.187c20.338-1.399,40.702-2.332,61.044-3.645
	c4.246-0.271,6.668,2.475,9.433,4.686c13.298,10.639,24.505,23.411,35.708,36.107c10.563,11.959,21.869,23.182,32.824,34.753
	c3.223,3.407,5.724,7.127,7.502,11.576c-2.873,1.369-5.358,0.267-7.833-0.241c-30.865-6.344-62.038-10.263-93.443-12.681
	c-17.465-1.354-34.859-3.626-52.282-5.528c-12.824-1.403-25.675-2.651-38.462-4.378c-16.376-2.207-32.63-5.701-49.072-7.066
	c-24.911-2.072-49.24-8.123-74.44-8.725c-21.869-0.52-43.647-4.592-65.482-6.883c-23.441-2.451-46.886-4.84-70.165-8.529
	C220.781,301.715,215.862,300.616,210.921,299.653z"/>
<g>
	<path fill="#808080" d="M215.833,290.263c9.924-4.539,18.74-8.314,27.333-12.549c31.042-15.295,62.834-28.973,93.854-44.328
		c25.077-12.411,50.142-24.81,74.76-38.104c4.084-2.208,7.744-2.042,12.087-0.515c30.879,10.865,60.044,25.573,89.508,39.582
		c20.992,9.973,42.85,17.619,64.749,25.208c3.347,1.166,9.364,1.866,8.984,4.645c-0.53,3.851-6.062,1.967-9.38,2.208
		c-31.38,2.268-62.755,4.991-94.179,6.25c-33.625,1.346-67.05,5.055-100.592,7.296c-22.448,1.493-45.215,1.08-67.28,6.919
		c-4.065,1.08-8.364,0.312-12.539,0.463c-24.103,0.884-48.224,1.264-72.338,1.835C226.291,289.277,221.94,291.319,215.833,290.263z"
		/>
	<path fill="#808080" d="M748.628,132.838c-21.726,73.462-45.956,145.451-65.103,219.195c-2.761-1.347-3.866-4.858-6.096-7.277
		c-13.377-14.493-26.446-29.255-39.071-44.43c-9.917-11.933-20.556-23.301-32.673-33.117c-2.986-2.422-2.938-4.148-0.406-6.837
		c22.41-23.813,45.817-46.494,71.48-66.896c22.73-18.07,44.264-37.6,65.316-57.622C743.472,134.53,744.743,132.891,748.628,132.838z
		"/>
</g>
<path fill="#B3B3B3" d="M521.105,230.151c-4.396,0.466-7.006-1.534-9.826-2.896c-5.077-2.441-10.169-4.84-15.291-7.183
	c-3.49-1.599-4.122-3.294-0.948-6.107c3.317-2.922,6.262-6.258,9.372-9.41c1.252-1.267,2.764-2.362,3.704,0.045
	C511.527,213.325,516.356,221.366,521.105,230.151z"/>
</svg>
