<?xml version="1.0" encoding="utf-8"?>
<!-- Generator: Adobe Illustrator 16.0.0, SVG Export Plug-In . SVG Version: 6.00 Build 0)  -->
<!DOCTYPE svg PUBLIC "-//W3C//DTD SVG 1.1//EN" "http://www.w3.org/Graphics/SVG/1.1/DTD/svg11.dtd">
<svg version="1.1" id="Layer_1" xmlns="http://www.w3.org/2000/svg" xmlns:xlink="http://www.w3.org/1999/xlink" x="0px" y="0px"
	 width="960px" height="560px" viewBox="0 0 960 560" enable-background="new 0 0 960 560" xml:space="preserve">
<path fill="#808080" d="M543.103,258.215c-1.522,3.552-3.071,7.872-5.149,11.92c-16.826,32.797-28.896,67.625-43.452,101.391
	c-0.717,1.668-1.421,3.388-2.437,4.879c-3.43,5.053-5.733,5.234-9.373,0.366c-21.638-28.939-43.396-57.802-55.815-92.346
	c-2.649-7.376-7.552-13.513-12.517-19.516c-1.459-1.764-2.872-3.562-4.279-5.365c-4.207-5.369-5.183-10.493-0.832-16.713
	c18.687-26.756,31.938-56.456,45.76-85.835c4.186-8.898,7.005-9.281,12.564-1.116c7.198,10.572,13.623,21.673,20.875,32.207
	c9.189,13.36,19.023,26.351,30.768,37.559c8.358,7.967,14.566,17.558,22.049,26.158C542.65,253.403,543.439,255.297,543.103,258.215
	z"/>
<path fill="#333333" d="M304.916,373.584c-0.593-0.38-1.545-0.702-2.052-1.367c-5.802-7.572-14.139-12.231-21.139-18.427
	c-2.62-2.317-2.837-4.415-0.781-7.014c8.11-10.256,14.429-21.632,20.897-32.938c3.916-6.841,7.969-7.181,13.37-1.282
	c5.555,6.059,10.73,12.465,15.999,18.776c1.834,2.192,3.157,4.452,0.678,7.264c-8.498,9.642-14.368,21.154-22.095,31.354
	C308.581,371.552,307.697,373.589,304.916,373.584z"/>
<path fill="#333333" d="M680.147,334.027c-0.767,1.917-1.923,5.668-3.711,9.087c-4.228,8.078-8.95,15.873-12.842,24.155
	c-2.794,5.961-5.806,6.299-10.567,1.852c-9.316-8.702-21.118-14.355-29.463-24.267c-1.735-2.071-3.328-3.628-1.454-6.463
	c5.926-8.942,11.574-18.074,17.637-26.921c4.701-6.855,7.337-6.932,13.702-1.447c7.126,6.137,14.898,11.352,23.168,15.802
	C679.253,327.239,681.202,328.891,680.147,334.027z"/>
</svg>
