<?xml version="1.0" encoding="utf-8"?>
<!-- Generator: Adobe Illustrator 16.0.0, SVG Export Plug-In . SVG Version: 6.00 Build 0)  -->
<!DOCTYPE svg PUBLIC "-//W3C//DTD SVG 1.1//EN" "http://www.w3.org/Graphics/SVG/1.1/DTD/svg11.dtd">
<svg version="1.1" id="Layer_1" xmlns="http://www.w3.org/2000/svg" xmlns:xlink="http://www.w3.org/1999/xlink" x="0px" y="0px"
	 width="960px" height="560px" viewBox="0 0 960 560" enable-background="new 0 0 960 560" xml:space="preserve">
<path fill="#808080" d="M655.579,255.115c-14.459,2.071-28.116,4.055-41.869,5.516c-25.4,2.7-51.035,2.447-76.327,5.792
	c-12.996,1.715-26.079,2.201-39.047,3.254c-17.312,1.415-34.827,2.518-52.305,1.829c-2.105-0.079-4.226,0.521-6.346,0.591
	c-1.533,0.046-3.499,0.758-4.495-0.711c-1.086-1.585,0.52-2.98,1.311-4.294c7.476-12.491,15.026-24.932,22.486-37.43
	c11.363-19.052,22.705-38.117,33.979-57.22c5.856-9.927,13.064-19.034,17.942-29.564c1.295-2.805,2.817-3.205,5.732-1.161
	c24.19,16.936,46.385,36.322,69.084,55.121c18.864,15.625,36.642,32.554,56.43,47.077
	C646.566,247.154,650.586,250.922,655.579,255.115z"/>
<path fill="#333333" d="M751.743,141.692c-7.31,4.055-15.416,4.875-23.281,6.477c-16.682,3.398-33.292,7.503-50.142,9.589
	c-18.18,2.253-35.83,7.037-53.924,9.57c-4.788,0.673-8.385-1.201-11.94-3.056c-9.188-4.792-18.998-7.822-28.7-11.173
	c-15.066-5.201-29.162-12.851-44.434-17.499c-5.17-1.572-10.04-3.708-14.688-6.717C600.172,136.295,676.078,135.444,751.743,141.692
	z"/>
<g>
	<path fill="#B3B3B3" d="M454.423,277.355c30.201-0.793,60.362-2.446,90.485-4.644c28.667-2.1,57.326-4.449,85.936-7.235
		c9.869-0.962,19.638-3.094,29.625-3.029c1.941,0.017,4.023-0.391,5.739,0.69c1.611,1.013,3.712,2.047,3.763,4.193
		c0.054,2.333-2.347,2.277-3.913,2.904c-18.311,7.268-36.607,14.588-54.962,21.751c-4.778,1.862-9.741,3.252-14.631,4.817
		c-19.074,6.12-37.088,14.958-55.889,21.777c-15.817,5.738-31.532,11.778-47.525,16.973c-12.362,4.016-23.849,10.011-35.959,14.556
		c-8.777,3.294-17.393,7.035-26.192,10.27c-5.537,2.034-5.862,1.517-6.074-4.452c-0.758-21.629,2.838-42.769,7.007-63.854
		c0.878-4.444-0.513-10.345,3.221-12.933c4.081-2.836,9.99-1.377,15.102-1.771C451.571,277.262,452.995,277.355,454.423,277.355z"/>
	<path fill="#B3B3B3" d="M207.621,280.85c4.225-2.658,8.041-2.468,11.647-2.505c24.721-0.262,49.391,1.186,74.061,2.619
		c6.424,0.38,12.805-0.151,19.144-0.614c27.127-1.985,54.264-1.788,81.423-1.271c8.7,0.161,17.418-0.18,26.118-0.526
		c3.545-0.144,5.137,0.338,4.453,4.597c-2.213,13.85-3.514,27.861-6.123,41.628c-1.812,9.573-0.463,19.089-1.278,28.592
		c-0.102,1.233-0.231,2.465-0.292,3.705c-0.172,4.077-1.527,4.876-5.712,3.429c-10.322-3.571-19.909-8.593-29.274-13.991
		c-10.681-6.164-22.721-8.059-34.17-11.754c-24.721-7.979-48.654-17.955-72.798-27.424c-13.887-5.441-28.263-9.587-42.003-15.445
		C224.691,288.423,216.63,284.806,207.621,280.85z"/>
	<path fill="#B3B3B3" d="M529.521,140.664c18.246,6.061,36.273,12.012,53.324,20.475c2.689,1.333,5.505,2.602,8.407,3.3
		c13.21,3.172,21.795,11.818,28.351,23.137c8.556,14.765,19.155,28.117,29.176,41.888c4.631,6.361,9.206,12.806,13.607,19.489
		C614.694,216.947,574.123,176.325,529.521,140.664z"/>
</g>
</svg>
