<?xml version="1.0" encoding="utf-8"?>
<!-- Generator: Adobe Illustrator 16.0.0, SVG Export Plug-In . SVG Version: 6.00 Build 0)  -->
<!DOCTYPE svg PUBLIC "-//W3C//DTD SVG 1.1//EN" "http://www.w3.org/Graphics/SVG/1.1/DTD/svg11.dtd">
<svg version="1.1" id="Layer_1" xmlns="http://www.w3.org/2000/svg" xmlns:xlink="http://www.w3.org/1999/xlink" x="0px" y="0px"
	 width="960px" height="560px" viewBox="0 0 960 560" enable-background="new 0 0 960 560" xml:space="preserve">
<g>
	<path fill="#808080" d="M689.863,247.879c9.777-0.927,19.611-0.315,29.391-1.112c1.339-0.11,3.176-0.704,3.897,0.511
		c0.916,1.548-1.07,2.304-1.95,3.193c-11,11.104-23.011,21.022-35.403,30.528c-12.49,9.581-24.736,19.486-37.052,29.295
		c-11.56,9.201-23.129,18.39-34.57,27.738c-4.576,3.741-9.083,7.642-13.146,11.919c-7.065,7.435-15.061,13.821-22.479,20.849
		c-2.492,2.355-4.083,2.148-6.4-0.395c-10.914-11.985-20.448-24.961-29.614-38.334c-6.258-9.135-11.89-18.656-18.191-27.755
		c-6.548-9.446-10.445-20.421-16.379-30.254c-0.938-1.554,0.323-1.705,1.306-2.286c5.959-3.523,12.697-3.508,19.234-4.334
		c14.681-1.854,29.377-3.55,44.058-5.386c15.241-1.909,30.469-3.856,45.691-5.882c11.763-1.566,23.479-3.498,35.269-4.862
		C665.604,249.911,677.75,249.001,689.863,247.879z"/>
	<path fill="#808080" d="M555.969,147.352c5.428,9.901,8.74,20.16,12.847,30.089c4.961,11.98,9.215,24.261,14.973,35.904
		c1.044,2.112,1.132,3.077-1.618,2.827c-0.637-0.06-1.811,0.206-1.903,0.55c-1.85,6.797-8.784,6.823-13.36,9.774
		c-10.566,6.817-21.104,13.631-30.938,21.498c-2.817,2.255-6.119,3.697-9.364,5.275c-4.953,2.404-9.689,5.242-15.163,8.253
		C522.995,221.695,541.146,185.229,555.969,147.352z"/>
</g>
<g>
	<path fill="#B3B3B3" d="M564.884,370.918c-20.343-9.957-39.768-21.592-59.91-31.807c-24.008-12.177-45.62-28.093-68.605-41.845
		c-10.21-6.111-21.06-11.013-31.732-16.25c-8.923-4.383-16.781-10.416-25.892-16.037c3.542-1.303,6.217-0.617,8.82-0.308
		c33.097,3.906,66.22,7.486,99.566,8.436c2.423,0.07,3.921,0.976,5.451,2.956c5.645,7.332,11.56,14.426,18.133,21.009
		c6.57,6.576,10.729,14.999,15.903,22.643c7.205,10.631,14.134,21.48,22.474,31.288c4.824,5.676,8.516,12.274,14.199,17.256
		C563.999,368.88,565.168,369.541,564.884,370.918z"/>
	<path fill="#B3B3B3" d="M563.388,143.696c44.562,30.53,88.305,60.748,133.923,88.198c-10.292-0.72-20.255-1.983-29.808-5.345
		c-10.698-3.769-22.056-4.762-32.919-7.855c-5.319-1.514-10.819-2.44-16.061-4.163c-6.457-2.121-13.216-2.649-19.742-4.357
		c-2.234-0.585-4.969-2.353-6.584,1.453c-0.462,1.099-1.749,0.146-2.249-0.723c-0.687-1.197-1.249-2.469-1.798-3.735
		c-7.164-16.466-14.514-32.86-20.279-49.886C566.488,153.192,563.094,149.823,563.388,143.696z"/>
</g>
<g>
	<path fill="#333333" d="M236.612,356.06c9.297-6.658,18.463-13.507,27.94-19.895c5.19-3.501,9.785-7.683,14.702-11.482
		c9.188-7.094,19.118-13.12,28.072-20.608c6.181-5.173,14.358-7.93,20.418-13.379c8.361-7.514,18.359-13.13,25.443-22.123
		c3.116-3.952,6.939-6.124,12.223-3.751c1.694,0.759,3.632,1.857,5.518-0.495c0.751-0.934,2.523,0.338,3.705,1.097
		c7.561,4.865,15.179,9.646,22.698,14.572c8.144,5.338,17.524,8.247,25.828,13.26c0.828,0.5,1.688,0.954,2.508,1.471
		c0.763,0.482,2.043,0.632,1.754,1.939c-0.209,0.939-1.269,0.991-2.012,1.233c-4.47,1.449-9.011,2.688-13.43,4.271
		c-11.57,4.153-22.907,9.065-34.673,12.543c-19.884,5.876-39.443,12.808-59.616,17.778c-17.864,4.401-35.279,10.474-52.976,15.479
		c-9.305,2.631-17.849,7.512-27.469,9.055C237.036,356.702,236.827,356.379,236.612,356.06z"/>
	<path fill="#333333" d="M705.262,242.236c-16.17,1.27-31.748,1.84-47.167,3.968c-12.137,1.677-24.292,3.062-36.458,4.483
		c-18.772,2.193-37.509,4.832-56.255,7.313c-11.995,1.587-23.903,3.8-36.013,4.463c-0.934,0.049-2.208,0.485-2.646-0.467
		c-0.593-1.282,0.687-1.966,1.6-2.528c10.139-6.22,20.531-12.06,30.383-18.708c9.78-6.593,21.087-10.336,30.64-17.242
		c1.829-1.32,3.967-1.026,6.028-0.978c12.385,0.284,24.339,3.328,36.422,5.608c11.261,2.123,22.361,4.974,33.83,6.129
		c8.503,0.859,16.851,3.184,25.312,4.571C695.596,239.616,700.45,239.379,705.262,242.236z"/>
</g>
</svg>
