<?xml version="1.0" encoding="utf-8"?>
<!-- Generator: Adobe Illustrator 16.0.0, SVG Export Plug-In . SVG Version: 6.00 Build 0)  -->
<!DOCTYPE svg PUBLIC "-//W3C//DTD SVG 1.1//EN" "http://www.w3.org/Graphics/SVG/1.1/DTD/svg11.dtd">
<svg version="1.1" id="Layer_1" xmlns="http://www.w3.org/2000/svg" xmlns:xlink="http://www.w3.org/1999/xlink" x="0px" y="0px"
	 width="100px" height="100px" viewBox="0 0 100 100" enable-background="new 0 0 100 100" xml:space="preserve">
<path fill="#636466" d="M94.989,75.286c0,0,0.861,0.702,1.388,2.108c0.527,1.406,0,3.69,0,3.69l-1.405,9.492L41.364,42.066
	L3.926,20.447l-0.868-1.703c0,0,17.389-2.339,19.147-1.46c1.757,0.878,15.994,7.03,19.509,9.315s24.606,21.971,28.298,25.838
	C73.703,56.303,94.989,75.286,94.989,75.286z"/>
<path d="M93.038,91.455c0,0,1.758,0.176,1.934-0.878c0.176-1.056-0.968-2.109-0.968-2.109S48.57,43.648,40.66,37.848
	c-7.91-5.8-36.559-18.807-36.559-18.807s-1.406-0.703-2.285,0c-0.879,0.703,0,2.988,0,2.988s18.279,27.946,22.146,31.11
	c3.866,3.164,12.655,9.14,16.521,10.897C44.352,65.794,93.038,91.455,93.038,91.455z"/>
</svg>
