<?xml version="1.0" encoding="utf-8"?>
<!-- Generator: Adobe Illustrator 16.0.0, SVG Export Plug-In . SVG Version: 6.00 Build 0)  -->
<!DOCTYPE svg PUBLIC "-//W3C//DTD SVG 1.1//EN" "http://www.w3.org/Graphics/SVG/1.1/DTD/svg11.dtd">
<svg version="1.1" id="Layer_1" xmlns="http://www.w3.org/2000/svg" xmlns:xlink="http://www.w3.org/1999/xlink" x="0px" y="0px"
	 width="1000px" height="1000px" viewBox="0 0 1000 1000" enable-background="new 0 0 1000 1000" xml:space="preserve">
<path fill="#CCCCCC" d="M932,691.484c0-2.562,0-5.145,0-7.709V315H69v368.118c-1,2.83-1,5.686,0,8.517V692h-0.389
	c1.741,8.859,8.465,17.455,20.196,24.229l362.909,209.526c27.458,15.854,71.97,15.836,99.222,0l360.549-209.529
	c11.665-6.779,18.298-15.372,19.943-24.226H932V691.484z"/>
<g>
	<path fill="#999999" d="M911.168,283.012L548.26,73.485c-27.43-15.834-71.942-15.852-99.221,0L88.488,283.017
		c-27.253,15.836-27.107,41.636,0.323,57.472L451.72,550.014c27.458,15.854,71.97,15.836,99.222,0l360.549-209.53
		C938.77,324.63,938.627,298.866,911.168,283.012"/>
</g>
<path fill="#CCCCCC" d="M932,253.484c0-2.562,0-5.145,0-7.709V-123H69v368.118c-1,2.83-1,5.686,0,8.517V254h-0.389
	c1.741,8.859,8.465,17.455,20.196,24.229l362.909,209.526c27.458,15.854,71.97,15.836,99.222,0l360.549-209.529
	c11.665-6.779,18.298-15.372,19.943-24.226H932V253.484z"/>
<g>
	<path fill="#999999" d="M911.168-154.988L548.26-364.515c-27.43-15.834-71.942-15.852-99.221,0L88.488-154.983
		c-27.253,15.836-27.107,41.636,0.323,57.472L451.72,112.014c27.458,15.854,71.97,15.836,99.222,0L911.49-97.516
		C938.77-113.37,938.627-139.134,911.168-154.988"/>
</g>
<path fill="#CCCCCC" d="M932-184.516c0-2.562,0-5.145,0-7.709V-561H69v368.118c-1,2.83-1,5.686,0,8.517V-184h-0.389
	c1.741,8.859,8.465,17.455,20.196,24.229L451.716,49.755c27.458,15.854,71.97,15.836,99.222,0l360.549-209.529
	c11.665-6.779,18.298-15.372,19.943-24.226H932V-184.516z"/>
<g>
	<path fill="#999999" d="M911.168-592.988L548.26-802.515c-27.43-15.834-71.942-15.852-99.221,0L88.488-592.983
		c-27.253,15.836-27.107,41.636,0.323,57.472L451.72-325.986c27.458,15.854,71.97,15.836,99.222,0l360.549-209.53
		C938.77-551.37,938.627-577.134,911.168-592.988"/>
</g>
</svg>
