<?xml version="1.0" encoding="utf-8"?>
<!-- Generator: Adobe Illustrator 16.0.0, SVG Export Plug-In . SVG Version: 6.00 Build 0)  -->
<!DOCTYPE svg PUBLIC "-//W3C//DTD SVG 1.1//EN" "http://www.w3.org/Graphics/SVG/1.1/DTD/svg11.dtd">
<svg version="1.1" id="Layer_1" xmlns="http://www.w3.org/2000/svg" xmlns:xlink="http://www.w3.org/1999/xlink" x="0px" y="0px"
	 width="200px" height="200px" viewBox="0 0 200 200" enable-background="new 0 0 200 200" xml:space="preserve">
<g>
	<path fill-rule="evenodd" clip-rule="evenodd" fill="#999999" d="M26.459,62.478c-3.452,8.064-6.409,16.272-7.443,25.273
		c-0.347-0.372-0.577-0.615-0.804-0.86c-1.401-1.513-2.942-2.806-5.033-3.25C11.11,83.2,9.026,83.878,8.034,85.44
		c-1.22,1.92-1.358,3.949-0.228,5.961c0.64,1.14,1.727,1.708,3.009,1.613c1.186-0.087,1.837-0.969,2.27-2.007
		c0.073-0.179,0.151-0.356,0.233-0.55c1.041,0.864,1.224,1.849,0.621,3.131c-0.641,1.36-1.942,2.125-3.192,1.89
		c-3.474-0.651-5.474-4.411-5.477-7.174c-0.002-3.318,1.759-5.795,3.47-8.325c4.541-6.71,10.087-12.466,16.605-17.279
		c0.248-0.183,0.533-0.312,0.802-0.466C26.25,62.315,26.354,62.396,26.459,62.478z"/>
	<path fill-rule="evenodd" clip-rule="evenodd" fill="#999999" d="M187.186,90.764c0.339,0.402,0.607,0.728,0.882,1.047
		c1.416,1.641,3.563,1.583,4.794-0.208c1.18-1.714,1.139-3.575,0.324-5.427c-0.781-1.782-2.267-2.546-4.129-2.658
		c-2.147-0.129-3.869,0.821-5.369,2.242c-0.618,0.587-1.166,1.251-1.875,2.021c-0.947-8.915-4.274-17.011-7.33-25.481
		c0.576,0.364,0.931,0.577,1.274,0.808c6.688,4.497,11.892,10.421,16.383,17.031c0.45,0.661,0.828,1.375,1.323,1.999
		c1.526,1.922,2,4.155,2.092,6.535c0.11,2.891-2.85,6.464-5.709,6.792c-1.072,0.123-1.978-0.322-2.611-1.167
		C186.556,93.387,186.534,91.81,187.186,90.764z"/>
	<path fill-rule="evenodd" clip-rule="evenodd" fill="#999999" d="M26.251,137.28c-4.557-2.922-8.342-6.309-11.749-10.131
		c-3.316-3.723-6.389-7.666-8.575-12.138c-2.039-4.164-0.604-8.965,3.749-10.726c2.124-0.858,4.436,0.792,4.353,3.062
		c-0.021,0.569-0.349,1.124-0.536,1.686c-0.103-0.015-0.207-0.026-0.31-0.041c-0.084-0.156-0.172-0.312-0.251-0.472
		c-0.48-0.973-0.986-1.936-2.252-1.999c-1.434-0.07-2.511,0.55-3.207,1.806c-0.975,1.754-0.786,4.404,0.5,5.953
		c1.418,1.711,3.308,2.021,5.356,1.521c1.893-0.459,3.311-1.662,4.515-3.142c0.227-0.279,0.442-0.569,0.816-1.052
		C19.665,120.655,22.993,128.812,26.251,137.28z"/>
	<path fill-rule="evenodd" clip-rule="evenodd" fill="#999999" d="M174.171,137.011c3.378-8.252,6.393-16.384,7.53-25.254
		c0.391,0.508,0.643,0.884,0.942,1.216c1.926,2.143,4.241,3.376,7.186,2.721c1.961-0.436,3.38-1.693,3.839-3.674
		c0.438-1.891-0.37-3.472-1.848-4.669c-1.592-1.289-3.154-0.924-4.123,0.884c-0.143,0.263-0.405,0.462-0.612,0.69
		c-0.251-0.29-0.61-0.535-0.735-0.872c-0.531-1.426,1.438-4.568,3.678-3.9c2.685,0.8,5.085,3.398,5.33,6.19
		c0.028,0.321-0.058,0.661-0.13,0.983c-1.188,5.193-3.854,9.614-7.221,13.651c-3.83,4.595-8.371,8.391-13.301,11.743
		C174.606,136.788,174.495,136.835,174.171,137.011z"/>
	<path fill-rule="evenodd" clip-rule="evenodd" fill="#999999" d="M87.672,14.079c0.907-2.337-0.331-4.643-2.913-5.425
		c-2.51-0.763-4.508,0.436-5.062,3.058c-0.414,1.96-0.142,3.864,1.148,5.382c0.79,0.93,1.992,1.511,2.963,2.215
		c-7.476,1.854-15.251,3.632-22.405,7.392c-0.034-0.132-0.097-0.234-0.07-0.297c3.063-7.007,7.317-13.06,13.901-17.222
		c0.87-0.549,1.775-1.084,2.734-1.439c0.942-0.348,1.97-0.472,2.966-0.666c0.517-0.101,1.056-0.095,1.567-0.217
		c2.595-0.618,6.192,1.357,7.051,3.895C90.073,12.289,89.354,13.56,87.672,14.079z"/>
	<path fill-rule="evenodd" clip-rule="evenodd" fill="#999999" d="M116.289,180.438c4.819-1.318,9.486-2.422,14.03-3.902
		c2.824-0.917,5.46-2.407,8.189-3.624c0.24-0.108,0.529-0.104,0.796-0.152c0.006,0.264,0.112,0.582,0.002,0.783
		c-2.562,4.724-5.31,9.323-9.174,13.135c-3.139,3.094-6.751,5.218-11.218,5.832c-3.263,0.446-5.84-0.593-7.84-3.084
		c-0.358-0.445-0.409-1.335-0.263-1.939c0.269-1.12,0.914-2.057,2.202-2.314c-0.173,0.71-0.473,1.393-0.48,2.074
		c-0.021,1.787,1.934,3.616,4.058,3.928c1.451,0.214,2.599-0.207,3.427-1.487c2.37-3.657,1.568-6.617-2.362-8.585
		C117.276,180.91,116.888,180.729,116.289,180.438z"/>
	<path fill-rule="evenodd" clip-rule="evenodd" fill="#999999" d="M83.891,180.402c-1.071,0.704-2.115,1.24-2.978,1.987
		c-2.292,1.984-2.5,4.231-0.742,6.698c1.909,2.678,4.653,2.814,6.733,0.315c0.928-1.116,1.228-2.343,0.541-3.706
		c-0.067-0.135-0.089-0.289-0.143-0.471c2.065,0.396,3.041,2.96,1.785,4.466c-2.349,2.82-5.362,3.272-8.766,2.576
		c-3.923-0.802-7.179-2.771-10.017-5.509c-4.047-3.903-6.853-8.641-9.144-13.719c-0.022-0.05,0.008-0.122,0.025-0.304
		C68.294,176.659,76.169,178.186,83.891,180.402z"/>
	<path fill-rule="evenodd" clip-rule="evenodd" fill="#999999" d="M139.408,26.678c-7.194-3.694-14.989-5.548-23.083-7.532
		c0.663-0.317,1.061-0.518,1.468-0.698c1.355-0.601,2.397-1.559,3.13-2.835c1.394-2.429,0.086-6.208-2.525-7.249
		c-0.379-0.151-0.863-0.146-1.278-0.083c-1.716,0.256-3.034,1.159-3.923,2.641c-0.634,1.055-0.567,2.144,0.124,3.224
		c-1.901-0.353-2.806-1.764-2.115-3.434c0.853-2.063,2.332-3.489,4.675-3.701c4.437-0.4,8.342,1.003,11.856,3.625
		c4.032,3.009,6.933,6.975,9.402,11.286c0.859,1.498,1.633,3.044,2.445,4.567C139.524,26.551,139.466,26.615,139.408,26.678z"/>
	<path fill-rule="evenodd" clip-rule="evenodd" fill="#999999" d="M163.118,172.912c0-1.508-0.016-2.963,0.01-4.418
		c0.009-0.448,0.131-0.85,0.762-0.796c2.548,0.213,5.101,0.398,7.658,0.599C171.269,169.559,165.267,172.883,163.118,172.912z"/>
	<path fill-rule="evenodd" clip-rule="evenodd" fill="#999999" d="M37.345,172.998c-3.546-0.439-5.976-2.426-8.572-4.543
		c0.436-0.132,0.721-0.271,1.016-0.297c1.974-0.179,3.948-0.371,5.927-0.484c1.466-0.085,1.663,0.173,1.635,1.626
		C37.326,170.488,37.345,171.677,37.345,172.998z"/>
	<path fill-rule="evenodd" clip-rule="evenodd" fill="#999999" d="M171.723,31.186c-2.617,0.187-5.231,0.389-7.85,0.533
		c-0.195,0.011-0.582-0.372-0.592-0.583c-0.053-1.389-0.06-2.782,0.012-4.169c0.008-0.149,0.657-0.447,0.918-0.369
		c0.918,0.275,1.844,0.597,2.681,1.06c1.483,0.82,2.902,1.76,4.355,2.636c0.256,0.154,0.553,0.24,0.83,0.356
		C171.959,30.829,171.841,31.008,171.723,31.186z"/>
	<path fill-rule="evenodd" clip-rule="evenodd" fill="#999999" d="M29.02,31.088c2.285-2.134,4.766-3.667,7.647-4.497
		c0.221-0.064,0.811,0.327,0.835,0.548c0.12,1.116,0.121,2.247,0.139,3.373c0.014,0.833-0.181,1.353-1.259,1.233
		c-2.176-0.241-4.368-0.333-6.553-0.496C29.608,31.234,29.389,31.165,29.02,31.088z"/>
	<path fill-rule="evenodd" clip-rule="evenodd" fill="#999999" d="M24.425,43.648c-1.106-0.092-2.085-0.175-3.161-0.266
		c0.008-2.596,1.215-4.639,2.273-6.738c0.143,0.021,0.284,0.043,0.426,0.065C24.115,38.988,24.267,41.266,24.425,43.648z"/>
	<path fill-rule="evenodd" clip-rule="evenodd" fill="#999999" d="M23.666,162.537c-1.651-1.787-2.401-3.926-2.761-6.326
		c1.127-0.098,2.184-0.19,3.346-0.292C24.05,158.191,23.858,160.365,23.666,162.537z"/>
	<path fill-rule="evenodd" clip-rule="evenodd" fill="#999999" d="M176.36,43.38c0.218-2.183,0.433-4.32,0.664-6.63
		c1.661,1.937,2.432,4.082,2.544,6.63C178.462,43.38,177.452,43.38,176.36,43.38z"/>
	<path fill-rule="evenodd" clip-rule="evenodd" fill="#999999" d="M176.892,162.682c-0.231-2.331-0.445-4.494-0.673-6.771
		c1.072,0.11,2.112,0.214,3.242,0.33C179.256,158.683,178.359,160.732,176.892,162.682z"/>
	<path fill-rule="evenodd" clip-rule="evenodd" fill="#999999" d="M45.514,22.796c0.108,0.106,0.595,0.357,0.639,0.672
		c0.111,0.796-1.009,2.13-1.622,2.093c-0.753-0.045-0.896-0.577-0.897-1.187C43.63,23.282,44.138,22.768,45.514,22.796z"/>
	<path fill-rule="evenodd" clip-rule="evenodd" fill="#999999" d="M154.454,23.391c0.519-0.641,1.152-0.897,1.716-0.479
		c0.45,0.333,0.785,0.934,0.954,1.484c0.09,0.288-0.224,0.972-0.461,1.029c-0.363,0.086-0.945-0.1-1.206-0.382
		C155.024,24.575,154.772,23.94,154.454,23.391z"/>
	<path fill-rule="evenodd" clip-rule="evenodd" fill="#999999" d="M46.211,176.468c-0.59,0.06-0.882,0.106-1.176,0.111
		c-1.286,0.029-1.591-0.246-1.533-1.541c0.015-0.337,0.25-0.877,0.488-0.941c0.339-0.094,0.938,0.041,1.138,0.299
		C45.556,174.948,45.799,175.644,46.211,176.468z"/>
	<path fill-rule="evenodd" clip-rule="evenodd" fill="#999999" d="M154.371,176.171c0.83-2.196,0.952-2.294,2.646-1.895
		c-0.166,0.729-0.112,1.718-0.571,2.13C156.021,176.787,155,176.824,154.371,176.171z"/>
	<path fill-rule="evenodd" clip-rule="evenodd" fill="#999999" d="M181.707,149.687c-0.379-0.438-0.838-0.828-0.781-0.932
		c0.183-0.328,0.527-0.685,0.871-0.761c0.186-0.043,0.662,0.439,0.696,0.723C182.519,148.95,182.092,149.239,181.707,149.687z"/>
	<path fill-rule="evenodd" clip-rule="evenodd" fill="#999999" d="M18.834,49.958c0.442,0.286,0.713,0.461,0.983,0.636
		c-0.372,0.322-0.729,0.665-1.137,0.931c-0.043,0.027-0.586-0.46-0.544-0.61C18.227,50.588,18.546,50.327,18.834,49.958z"/>
	<path fill-rule="evenodd" clip-rule="evenodd" fill="#999999" d="M181.854,49.905c0.361,0.413,0.691,0.661,0.815,0.988
		c0.049,0.13-0.476,0.653-0.531,0.623c-0.407-0.226-0.762-0.545-1.133-0.837C181.233,50.473,181.461,50.265,181.854,49.905z"/>
	<path fill-rule="evenodd" clip-rule="evenodd" fill="#999999" d="M18.85,149.701c-0.418-0.495-0.736-0.798-0.942-1.166
		c-0.042-0.078,0.435-0.576,0.474-0.552c0.417,0.252,0.793,0.571,1.181,0.873C19.386,149.064,19.21,149.273,18.85,149.701z"/>
	<path fill-rule="evenodd" clip-rule="evenodd" fill="#999999" d="M117.059,83.699c0.07-1.333,0.143-2.68,0.222-4.024
		c0.034-0.595,0.354-0.852,0.961-0.893c2.021-0.138,4.039-0.311,6.056-0.483c0.666-0.058,1.059,0.104,0.868,0.875
		c-0.45,1.826-0.857,3.665-1.366,5.474c-0.234,0.835-0.773,0.998-1.671,0.647C120.524,84.67,118.843,84.248,117.059,83.699z"/>
	<path fill-rule="evenodd" clip-rule="evenodd" fill="#999999" d="M122.832,113.943c2.115,1.761,1.738,4.516,2.126,7.264
		c-2.541-0.224-4.948-0.422-7.351-0.67c-0.173-0.019-0.412-0.393-0.443-0.625c-0.161-1.219-0.304-2.443-0.351-3.672
		c-0.009-0.235,0.399-0.619,0.688-0.713C119.169,114.991,120.855,114.521,122.832,113.943z"/>
	<path fill-rule="evenodd" clip-rule="evenodd" fill="#999999" d="M75.46,121.223c0.13-2.719,0.533-5.112,1.904-7.324
		c1.937,0.56,3.823,1.08,5.687,1.673c0.229,0.073,0.493,0.525,0.481,0.79c-0.055,1.197-0.17,2.391-0.345,3.575
		c-0.039,0.257-0.397,0.64-0.64,0.663C80.24,120.841,77.925,121.018,75.46,121.223z"/>
	<path fill-rule="evenodd" clip-rule="evenodd" fill="#999999" d="M75.924,78.286c2.497,0.192,4.879,0.377,7.326,0.567
		c0.203,1.478,0.424,2.886,0.56,4.303c0.021,0.225-0.305,0.629-0.551,0.711c-1.67,0.56-3.354,1.078-5.05,1.548
		c-0.248,0.069-0.725-0.096-0.857-0.304C76.062,83.068,75.637,80.827,75.924,78.286z"/>
</g>
<g>
	<path fill-rule="evenodd" clip-rule="evenodd" fill="#1A1A1A" d="M48.67,151.083c0.42-2.771,0.956-5.349,1.179-7.954
		c0.582-6.78-0.325-13.432-2.117-19.971c-0.256-0.935-0.342-1.688,0.873-2.24c0.475,0.818,1.051,1.654,1.472,2.566
		c1.492,3.231,1.877,6.711,2.189,10.204c0.155,1.726,0.464,3.461,0.375,5.177c-0.153,2.953-0.421,5.917-0.916,8.829
		c-0.288,1.699-0.945,3.394-1.733,4.94c-0.895,1.754-1.099,1.727-2.794,0.681c-4.057-2.503-6.833-6.09-8.618-10.465
		c-1.95-4.774-2.346-9.659-0.857-14.642c0.349-1.167,0.557-1.255,1.712-0.836c1.65,0.601,1.656,0.603,1.261,2.286
		c-0.22,0.939-0.527,1.863-0.68,2.814c-0.931,5.818,1.266,13.983,7.188,17.739C47.591,150.458,47.993,150.683,48.67,151.083z"/>
	<path fill-rule="evenodd" clip-rule="evenodd" fill="#1A1A1A" d="M151.737,150.804c4.07-1.891,6.498-5.012,7.789-9.119
		c1.372-4.357,1.3-8.709,0.043-13.078c-0.068-0.231,0.156-0.694,0.38-0.84c1.241-0.802,2.458-0.49,2.848,0.95
		c0.419,1.551,0.568,3.196,0.639,4.812c0.066,1.556,0.017,3.142-0.224,4.678c-0.225,1.425-0.529,2.932-1.213,4.175
		c-1.517,2.764-3.193,5.454-4.997,8.039c-1.156,1.654-2.851,2.766-4.839,3.369c-0.741,0.227-1.117,0.113-1.468-0.626
		c-1.84-3.887-2.732-7.999-2.918-12.265c-0.292-6.72,0.945-13.193,3.314-19.47c0.058-0.15,0.133-0.296,0.234-0.52
		c0.292,0.143,0.54,0.287,0.807,0.39c0.661,0.252,0.83,0.62,0.667,1.371c-0.761,3.515-1.439,7.048-2.142,10.577
		c-0.062,0.323-0.113,0.657-0.115,0.987c-0.004,3.565-0.021,7.131,0.015,10.696C150.577,146.907,150.889,148.839,151.737,150.804z"
		/>
	<path fill-rule="evenodd" clip-rule="evenodd" fill="#1A1A1A" d="M152.169,48.687c-0.993,1.719-1.307,3.553-1.39,5.42
		c-0.336,7.69-0.21,15.338,2.271,22.75c0.244,0.727,0.203,0.741-1.156,1.764c-0.742-1.749-1.57-3.404-2.159-5.14
		c-1.78-5.242-1.949-10.666-1.504-16.116c0.229-2.783,0.57-5.576,1.16-8.3c0.267-1.228,1.246-2.31,1.959-3.422
		c0.079-0.123,0.551-0.063,0.811,0.011c2.307,0.656,4.042,2.132,5.526,3.94c2.31,2.813,3.815,6.088,5.248,9.388
		c0.373,0.859,0.48,1.875,0.52,2.826c0.092,2.392,0.15,4.79,0.061,7.179c-0.032,0.854-0.405,1.763-0.845,2.517
		c-0.6,1.025-2.424,0.883-2.94-0.178c-0.113-0.236,0.031-0.628,0.118-0.93c1.616-5.533,1.205-10.873-1.602-15.948
		C156.838,51.901,154.674,49.916,152.169,48.687z"/>
	<path fill-rule="evenodd" clip-rule="evenodd" fill="#1A1A1A" d="M48.719,48.561c-0.736,0.398-1.445,0.646-1.987,1.097
		c-3.483,2.889-5.735,6.479-6.419,11.042c-0.538,3.577-0.219,7.031,0.933,10.528c-0.714,0.36-1.394,0.785-2.131,1.053
		c-0.834,0.303-1.206-0.26-1.397-0.979c-0.679-2.541-0.886-5.134-0.602-7.735c0.775-7.111,3.872-12.931,9.771-17.138
		c0.082-0.058,0.15-0.134,0.235-0.186c2.007-1.22,2.34-1.246,3.249,0.989c2.265,5.571,2.752,11.362,2.253,17.278
		c-0.365,4.333-1.292,8.558-2.669,12.683c-0.021,0.063-0.036,0.129-0.057,0.193c-0.203,0.607-0.402,1.281-1.203,1.234
		c-0.575-0.034-1.071-1.26-0.899-1.945c0.542-2.164,1.172-4.312,1.578-6.502c1.305-7.026,1.42-14.042-0.472-21.004
		C48.869,49.04,48.827,48.916,48.719,48.561z"/>
	<path fill-rule="evenodd" clip-rule="evenodd" fill="#1A1A1A" d="M155.301,82.465c4.992,7.128,10.524,13.27,19.581,15.171
		c0.094-0.634,0.211-1.142,0.238-1.654c0.318-5.951-2.052-10.851-6.083-15.012c-3.979-4.106-8.762-6.7-14.564-7.128
		c-0.721-0.053-1.049-0.41-1.047-1.058c0.003-0.736,0.57-0.682,1.084-0.665c7.465,0.244,13.259,3.626,17.619,9.545
		c3.693,5.012,5.231,10.708,5.061,16.912c-0.033,1.147-0.729,0.983-1.41,0.963c-4.113-0.124-7.797-1.533-11.17-3.816
		c-4.353-2.948-7.748-6.798-10.471-11.264C153.462,83.347,153.901,82.686,155.301,82.465z"/>
	<path fill-rule="evenodd" clip-rule="evenodd" fill="#1A1A1A" d="M25.828,97.646c9.066-1.978,14.8-7.993,19.634-15.159
		c1.012,0.523,1.358,1.238,0.953,2.287c-0.286,0.734-0.651,1.498-1.177,2.068c-2.455,2.67-4.877,5.387-7.521,7.86
		c-1.229,1.149-2.874,1.939-4.45,2.613c-2.153,0.92-4.418,1.578-6.642,2.333c-0.243,0.082-0.522,0.07-0.786,0.082
		c-1.924,0.085-1.964,0.086-2.087-1.775C23,86.564,30.876,75.085,42.039,72.619c1.421-0.313,2.902-0.391,4.36-0.472
		c0.324-0.019,0.901,0.362,0.961,0.644c0.113,0.529-0.243,0.844-0.889,0.9c-10.055,0.884-18.258,8.389-20.642,18.082
		C25.372,93.636,25.328,95.521,25.828,97.646z"/>
	<path fill-rule="evenodd" clip-rule="evenodd" fill="#1A1A1A" d="M153.41,99.563c-1.974,1.188-3.901,2.244-5.716,3.468
		c-2.181,1.465-4.042,3.301-5.243,5.672c-3.12,6.16-1.363,11.875,4.902,15.412c1.096,0.618,1.122,0.669,0.475,2.047
		c-0.672-0.339-1.382-0.62-2.007-1.03c-6.246-4.078-8.175-10.973-4.982-17.74c1.476-3.124,3.67-5.617,6.586-7.475
		c0.22-0.141,0.432-0.293,0.72-0.492c-3.306-1.556-5.652-3.948-7.11-7.212c-2.972-6.661-0.879-14.342,4.901-17.951
		c0.365-0.229,0.756-0.42,1.136-0.627c0.565-0.311,1.023-0.238,1.32,0.38c0.297,0.62,0.073,0.957-0.544,1.228
		c-3.526,1.542-5.787,4.137-6.26,8.027c-0.449,3.718,0.715,7.053,2.831,10.067C146.642,96.505,149.589,98.677,153.41,99.563z"/>
	<path fill-rule="evenodd" clip-rule="evenodd" fill="#1A1A1A" d="M176.762,101.146c1.372,13.65-10.552,27.416-23.437,25.821
		c-0.218-0.871,0.19-1.142,1.02-1.222c9.562-0.912,18.219-8.451,20.258-17.723c0.346-1.579,0.395-3.235,0.471-4.861
		c0.05-1.132-0.629-1.549-1.641-1.209c-7.876,2.633-13.739,7.698-17.926,14.8c-0.084,0.141-0.19,0.267-0.277,0.391
		c-1.701-0.584-1.754-0.688-0.971-2.229c2.898-5.698,7.361-9.823,12.979-12.738c1.463-0.76,3.03-1.341,4.595-1.87
		c0.546-0.185,1.242-0.027,1.847,0.089C174.679,100.586,175.658,100.871,176.762,101.146z"/>
	<path fill-rule="evenodd" clip-rule="evenodd" fill="#1A1A1A" d="M52.191,100.026c6.271,2.831,8.874,7.858,8.614,14.402
		c-0.225,5.684-3.394,9.96-8.134,11.626c-0.905-0.972-0.848-1.347,0.293-1.891c5.144-2.452,7.308-7.281,5.604-12.914
		c-1.728-5.711-5.418-9.604-11.243-11.447c0.214-0.098,0.378-0.193,0.557-0.252c6.44-2.15,10.113-6.705,11.258-13.281
		c0.813-4.676-1.358-8.667-5.649-10.759c-0.903-0.441-1.344-0.883-0.845-1.949c0.237,0.074,0.512,0.137,0.772,0.241
		c5.051,2.024,8.101,7.234,7.592,12.958C60.461,92.935,57.741,97.04,52.191,100.026z"/>
	<path fill-rule="evenodd" clip-rule="evenodd" fill="#1A1A1A" d="M25.612,102.188c-0.482,2.926-0.233,5.814,0.917,8.522
		c3.654,8.602,10.114,13.675,19.407,15.021c0.708,0.101,1.072,0.386,1.257,1.133c-2.276,0.285-4.482,0.182-6.638-0.445
		c-7.226-2.104-11.969-6.982-15.016-13.666c-1.502-3.297-2.136-6.79-1.879-10.423c0.021-0.299,0.049-0.598,0.084-0.895
		c0.011-0.094,0.055-0.186,0.07-0.234c1.216-0.33,2.404-0.92,3.576-0.894c1.287,0.03,2.614,0.496,3.827,1.004
		c6.75,2.83,11.712,7.635,15.192,14.023c0.492,0.903,0.141,1.599-0.881,1.628c-0.305,0.009-0.735-0.337-0.918-0.638
		c-2.551-4.178-5.708-7.793-9.762-10.573c-2.469-1.696-5.137-2.955-8.105-3.51c-0.262-0.048-0.525-0.088-0.79-0.115
		C25.862,102.116,25.765,102.159,25.612,102.188z"/>
	<path fill-rule="evenodd" clip-rule="evenodd" fill="#1A1A1A" d="M121.269,163.675c1.547-0.509,2.622-0.049,3.617,0.572
		c1.581,0.988,3.246,1.66,5.123,1.812c4.601,0.379,6.748-1.253,8.269-4.931c0.794-1.918,0.578-4.329,0.521-6.509
		c-0.134-5.159-1.476-10.135-2.575-15.145c-0.952-4.332-1.812-8.679-1.671-13.146c0.043-1.361,0.155-2.735,0.41-4.07
		c0.309-1.628,1.694-2.483,2.869-3.447c0.67-0.548,1.274-0.344,1.438,0.499c0.05,0.252-0.148,0.688-0.369,0.836
		c-2.016,1.345-3.045,3.329-3.086,5.625c-0.08,4.635,1.125,9.095,2.186,13.572c1.02,4.308,2.021,8.626,2.789,12.981
		c0.6,3.399,0.371,6.85-0.51,10.21c-0.191,0.734-0.606,1.492-1.125,2.045c-3.515,3.734-9.616,4.502-14.396,1.864
		c-0.729-0.4-1.475-0.793-2.136-1.29C122.148,164.794,121.8,164.267,121.269,163.675z"/>
	<path fill-rule="evenodd" clip-rule="evenodd" fill="#1A1A1A" d="M79.14,35.551c-0.834,0.96-1.671,0.606-2.45,0.094
		c-1.584-1.041-3.29-1.762-5.162-2.039c-3.041-0.452-5.888-0.17-7.978,2.444c-0.439,0.55-0.831,1.218-0.998,1.893
		c-1.059,4.281-0.923,8.607-0.126,12.898c0.821,4.418,1.856,8.797,2.728,13.206c0.803,4.065,1.294,8.165,0.758,12.315
		c-0.285,2.209-1.821,3.469-3.594,4.493c-0.183,0.104-0.652-0.075-0.843-0.267c-0.154-0.156-0.155-0.544-0.096-0.802
		c0.044-0.199,0.257-0.393,0.441-0.524c2.815-2.005,3.388-4.995,2.891-8.015c-0.884-5.381-2.098-10.713-3.343-16.025
		c-0.968-4.129-2.077-8.237-1.832-12.505c0.113-1.963,0.479-3.994,1.174-5.825c1.371-3.604,5.007-5.694,8.841-5.369
		c3.31,0.281,6.433,1.118,9.014,3.373c0.125,0.109,0.244,0.226,0.356,0.349C78.989,35.315,79.036,35.402,79.14,35.551z"/>
	<path fill-rule="evenodd" clip-rule="evenodd" fill="#1A1A1A" d="M78.845,163.658c-0.656,1.374-1.772,2.326-3.149,2.76
		c-2.182,0.69-4.42,1.455-6.669,1.585c-1.555,0.09-3.216-0.718-4.746-1.334c-2.821-1.14-4.285-3.229-4.657-6.358
		c-0.587-4.964,0.054-9.767,1.173-14.562c1.136-4.862,2.306-9.718,3.352-14.598c0.332-1.554,0.306-3.18,0.454-4.771
		c0.178-1.914-0.633-3.513-1.685-4.996c-0.35-0.494-0.902-0.897-1.445-1.187c-0.564-0.302-0.634-0.614-0.351-1.106
		c0.282-0.493,0.608-0.766,1.197-0.373c1.86,1.245,3.259,2.676,3.455,5.148c0.435,5.503-0.668,10.799-1.741,16.13
		c-0.92,4.564-1.73,9.16-2.36,13.773c-0.271,1.986-0.091,4.065,0.116,6.079c0.419,4.068,4.529,6.87,8.876,6.199
		c2.244-0.346,4.311-1.175,6.2-2.397C77.588,163.183,78.165,163.121,78.845,163.658z"/>
	<path fill-rule="evenodd" clip-rule="evenodd" fill="#1A1A1A" d="M141.282,42.854c-0.062,4.672-1.031,8.671-2.034,12.695
		c-1.237,4.971-2.231,10.01-3.126,15.056c-0.269,1.525,0.007,3.192,0.271,4.753c0.284,1.691,1.184,3.119,2.716,4.02
		c0.523,0.307,0.556,0.68,0.22,1.04c-0.213,0.228-0.721,0.476-0.92,0.374c-1.382-0.703-2.649-1.608-3.036-3.214
		c-0.922-3.821-0.857-7.692-0.132-11.519c0.966-5.105,2.155-10.168,3.149-15.267c0.76-3.882,1.071-7.818,0.295-11.729
		c-0.476-2.404-1.808-4.26-4.277-5.094c-3.181-1.071-6.15-0.644-9,1.09c-0.755,0.461-1.619,0.78-2.473,1.025
		c-0.325,0.094-0.763-0.202-1.15-0.32c0.141-0.303,0.211-0.679,0.433-0.897c1.424-1.396,3.223-2.121,5.106-2.61
		c2.382-0.619,4.788-1.245,7.222-0.172c0.243,0.108,0.501,0.184,0.747,0.282c3.438,1.383,5.814,3.566,5.812,7.598
		C141.105,41.094,141.242,42.226,141.282,42.854z"/>
	<path fill-rule="evenodd" clip-rule="evenodd" fill="#1A1A1A" d="M100.154,37.265c-0.542-0.835-1.232-1.61-1.602-2.515
		c-2.029-4.97-7.694-8.297-12.876-7.458c-2.55,0.412-4.466,1.794-5.897,3.916c-0.254,0.376-0.59,0.702-0.915,1.023
		c-0.628,0.622-1.208,0.597-1.689-0.197c2.843-6.449,10.514-9.161,16.251-5.723c2.303,1.38,4.072,3.31,5.537,5.534
		c0.401,0.608,0.774,1.234,1.232,1.967c1.107-1.229,2.166-2.402,3.226-3.578c0.489-0.543,1.021-1.057,1.463-1.638
		c3.486-4.584,9.331-4.455,13.253-2.308c2.413,1.321,4.434,3.361,5.537,5.714c-0.881,0.975-1.289,0.977-2.119-0.02
		c-0.277-0.332-0.508-0.702-0.76-1.052c-2.485-3.433-6.165-4.748-10.213-3.508c-4.123,1.263-7.02,3.94-8.73,7.914
		c-0.289,0.672-0.794,1.25-1.199,1.871C100.488,37.226,100.321,37.246,100.154,37.265z"/>
	<path fill-rule="evenodd" clip-rule="evenodd" fill="#1A1A1A" d="M99.908,165.889c-0.188,0.313-0.329,0.623-0.533,0.881
		c-1.051,1.325-2.109,2.644-3.18,3.955c-2.466,3.018-5.713,4.196-9.503,3.773c-3.968-0.441-7.067-2.394-9.228-5.8
		c-0.479-0.754-0.642-1.37,0.345-2.001c0.617,0.55,1.281,1.129,1.931,1.726c0.613,0.562,1.226,1.129,1.815,1.718
		c3.33,3.312,7.457,2.94,10.948,1.001c2.295-1.276,3.917-3.284,5.395-5.401c0.761-1.087,1.458-2.221,2.261-3.454
		c0.336,0.519,0.635,0.971,0.927,1.43c1.72,2.719,3.581,5.354,6.345,7.091c1.319,0.83,2.874,1.379,4.396,1.768
		c1.887,0.482,3.765,0.087,5.283-1.166c1.478-1.219,2.837-2.586,4.183-3.954c0.871-0.884,1.371-0.998,1.861-0.145
		c0.128,0.224,0.133,0.643,0.009,0.873c-3.944,7.308-15.021,9.032-19.738,1.536C102.578,168.37,101.249,167.326,99.908,165.889z"/>
	<path fill-rule="evenodd" clip-rule="evenodd" fill="#1A1A1A" d="M80.516,40.441c0.867-0.31,1.39-0.089,1.743,0.773
		c1.49,3.637,1.411,7.343,0.617,11.103c-0.955,4.519-2.939,8.562-5.768,12.174c-0.965,1.232-2.22,2.239-3.343,3.349
		c-0.136-0.042-0.273-0.083-0.408-0.125c-0.848-2.261-1.773-4.497-2.524-6.79c-1.362-4.158-2.098-8.406-1.348-12.795
		c0.375-2.198,1.18-4.232,2.453-6.067c0.169-0.243,0.487-0.383,0.736-0.569c0.155,0.3,0.475,0.626,0.432,0.895
		c-0.125,0.775-0.271,1.592-0.632,2.275c-0.839,1.592-1.272,3.196-1.322,5.038c-0.082,3.035-0.459,6.085,0.414,9.037
		c0.609,2.057,1.528,4.024,2.337,6.021c0.302,0.746,0.806,0.72,1.302,0.179c0.359-0.391,0.695-0.81,0.999-1.246
		c2.736-3.934,4.041-8.357,4.481-13.082c0.299-3.199,0.335-6.389-0.166-9.574C80.49,40.848,80.516,40.651,80.516,40.441z"/>
	<path fill-rule="evenodd" clip-rule="evenodd" fill="#1A1A1A" d="M72.509,157.982c-2.569-2.811-3.541-6.097-3.577-9.7
		c-0.042-4.402,1.148-8.558,2.687-12.628c0.469-1.243,0.993-2.467,1.513-3.748c0.173,0.066,0.299,0.087,0.395,0.154
		c7.591,5.307,11.55,17.105,8.683,25.868c-0.426,1.306-0.662,1.428-2.041,1.055c1.189-9.028,0.993-17.72-6.083-25.02
		c-0.512,0.881-0.998,1.581-1.346,2.344c-1.076,2.359-1.572,4.86-1.76,7.44c-0.22,3.033-0.407,6.06,0.505,9.021
		c0.225,0.729,0.439,1.509,0.872,2.11C73.068,155.876,73.036,156.819,72.509,157.982z"/>
	<path fill-rule="evenodd" clip-rule="evenodd" fill="#1A1A1A" d="M126.11,65.307c1.84-2.161,2.84-4.647,3.353-7.321
		c0.945-4.945,0.544-9.738-1.705-14.333c-0.271-0.555,0.052-1.399,0.099-2.109c0.143-0.038,0.287-0.074,0.433-0.111
		c0.559,0.793,1.244,1.529,1.658,2.394c1.264,2.648,1.938,5.387,1.52,8.402c-0.538,3.897-0.901,7.818-2.354,11.519
		c-0.521,1.326-1.168,2.603-1.787,3.966c-0.261-0.136-0.419-0.182-0.529-0.28c-6.227-5.566-9.72-12.382-9.247-20.876
		c0.1-1.792,0.747-3.57,1.272-5.313c0.331-1.092,0.695-1.15,1.848-0.635c-0.013,0.108,0,0.241-0.045,0.352
		c-0.949,2.382-1.188,4.867-0.859,7.375c0.362,2.772,0.821,5.537,1.376,8.277C121.657,59.16,124.33,63.704,126.11,65.307z"/>
	<path fill-rule="evenodd" clip-rule="evenodd" fill="#1A1A1A" d="M126.211,134.173c-1.875,1.442-3.09,3.362-4.104,5.456
		c-1.408,2.913-1.654,6.09-2.166,9.203c-0.559,3.408-0.744,6.82,0.416,10.164c-1.573,0.346-1.824,0.218-2.236-1.219
		c-1.875-6.504-0.65-12.597,2.501-18.413c1.534-2.835,3.511-5.33,6.152-7.666c0.746,1.373,1.592,2.583,2.096,3.919
		c1.562,4.146,2.365,8.495,2.597,12.887c0.139,2.65-0.702,5.268-1.957,7.658c-0.358,0.683-0.969,1.231-1.592,1.997
		c-0.403-1.147-0.612-1.941-0.137-2.991c3.238-7.134,2.495-14.06-1.327-20.763C126.407,134.324,126.312,134.269,126.211,134.173z"/>
	<path fill-rule="evenodd" clip-rule="evenodd" fill="#1A1A1A" d="M76.86,159.443c2.283,0.886,4.543,1.033,6.852,0.897
		c1.907-0.111,3.431-0.718,4.781-2.203c3.91-4.299,7.094-8.985,8.673-14.642c0.139-0.497,0.08-1.048,0.112-1.573
		c-0.64,0.026-1.353-0.12-1.909,0.109c-3.464,1.439-6.595,3.46-9.604,5.681c-0.418,0.309-0.967,0.961-1.425,0.291
		c-0.253-0.373-0.145-1.147,0.063-1.628c0.189-0.436,0.68-0.828,1.131-1.05c2.596-1.278,5.202-2.539,7.843-3.721
		c1.414-0.635,2.856-1.312,4.508-0.91c0.776,0.188,1.068,0.52,0.909,1.398c-0.751,4.125-2.318,7.91-4.599,11.409
		c-0.799,1.228-1.626,2.439-2.503,3.612c-2.292,3.067-5.386,4.915-9.093,5.711c-1.464,0.313-2.93,0.06-4.245-0.721
		C77.418,161.55,76.856,160.744,76.86,159.443z"/>
	<path fill-rule="evenodd" clip-rule="evenodd" fill="#1A1A1A" d="M123.55,159.643c-0.203,1.592-1.114,2.456-2.428,2.891
		c-2.188,0.722-4.314,0.498-6.398-0.501c-3.81-1.826-6.191-5.047-8.43-8.438c-2.285-3.463-3.773-7.252-4.723-11.269
		c-0.312-1.317,0.06-1.802,1.727-1.659c1.299,0.11,2.624,0.477,3.825,0.991c2.288,0.979,4.497,2.145,6.739,3.23
		c0.267,0.13,0.598,0.18,0.809,0.369c0.519,0.461,1.087,0.918,1.435,1.498c0.184,0.304-0.052,0.859-0.099,1.299
		c-0.416-0.105-0.895-0.114-1.236-0.334c-1.877-1.208-3.708-2.482-5.577-3.704c-1.543-1.012-3.184-1.816-5.066-1.968
		c-0.385-0.03-0.771-0.004-1.305-0.004c0.274,0.96,0.478,1.792,0.753,2.603c1.793,5.303,4.746,9.863,8.683,13.84
		c1.196,1.208,2.524,1.854,4.144,1.801c2.053-0.065,4.102-0.298,6.152-0.469C122.864,159.794,123.17,159.713,123.55,159.643z"/>
	<path fill-rule="evenodd" clip-rule="evenodd" fill="#1A1A1A" d="M115.968,51.06c0.62,1.215,0.536,2.1-0.469,2.786
		c-0.924,0.629-1.986,1.056-3.002,1.543c-2.004,0.964-3.97,2.037-6.048,2.808c-1.169,0.436-2.526,0.411-3.805,0.487
		c-0.461,0.028-0.967-0.146-0.807-0.921c1.291-6.283,3.646-12.041,8.243-16.679c2.278-2.3,4.989-3.883,8.198-4.495
		c1.871-0.356,3.464,0.393,4.896,1.488c0.621,0.475,0.777,1.209,0.489,2.065c-3.023-1.342-6.114-1.16-9.223-0.498
		c-0.339,0.072-0.722,0.207-0.966,0.439c-4.857,4.642-8.493,10.055-10.335,16.58c-0.055,0.189-0.09,0.382-0.148,0.642
		c1.151,0.441,2.285,0.188,3.283-0.24c1.396-0.601,2.725-1.385,4.009-2.207c1.676-1.072,3.276-2.261,4.915-3.391
		C115.438,51.306,115.711,51.195,115.968,51.06z"/>
	<path fill-rule="evenodd" clip-rule="evenodd" fill="#1A1A1A" d="M99.095,58.208c-2.261,0.788-4.336,0.27-6.302-0.582
		c-1.766-0.764-3.427-1.772-5.126-2.691c-0.82-0.444-1.613-0.938-2.43-1.388c-1.197-0.658-1.329-1.148-0.582-2.479
		c0.23,0.106,0.483,0.186,0.696,0.327c1.844,1.23,3.628,2.56,5.535,3.682c1.533,0.902,3.192,1.606,4.839,2.292
		c0.545,0.227,1.228,0.121,2.174,0.191c-0.662-1.975-1.137-3.772-1.856-5.465c-1.971-4.646-5.055-8.52-8.674-11.986
		c-0.312-0.3-0.794-0.483-1.229-0.587c-2.68-0.641-5.361-0.438-8.035,0.079c-0.355,0.068-0.709,0.141-1.12,0.223
		c-0.21-1.004,0.226-1.698,0.994-2.107c1.721-0.918,3.453-1.542,5.521-0.937c4.07,1.189,7.13,3.673,9.587,7.001
		c2.854,3.867,4.627,8.226,5.685,12.893C98.88,57.155,98.976,57.64,99.095,58.208z"/>
	<path fill-rule="evenodd" clip-rule="evenodd" fill="#1A1A1A" d="M71.512,125.234c0.831-4.217,0.842-8.313,2.748-11.985
		c0.441-0.849,0.872-0.948,1.384-0.276c0.155,0.203,0.143,0.606,0.082,0.891c-0.542,2.539-1.09,5.076-1.688,7.6
		c-0.171,0.723,0.129,1.072,0.741,1.085c1.183,0.024,2.373-0.028,3.553-0.128c0.792-0.064,1.569-0.318,2.362-0.385
		c0.586-0.051,1.217-0.038,1.772,0.128c0.459,0.139,0.836,0.545,1.251,0.833c-0.428,0.17-0.841,0.407-1.285,0.503
		c-2.211,0.48-4.419,0.98-6.649,1.359C74.433,125.087,73.045,125.108,71.512,125.234z"/>
	<path fill-rule="evenodd" clip-rule="evenodd" fill="#1A1A1A" d="M125.297,112.614c1.285,1.121,1.915,2.623,2.216,4.241
		c0.476,2.552,0.841,5.127,1.25,7.693c0.083,0.525-0.065,0.907-0.676,0.783c-3.714-0.757-7.424-1.536-11.135-2.312
		c-0.049-0.01-0.083-0.095-0.15-0.177c0.839-0.899,1.906-1.012,3.021-0.846c1.187,0.173,2.358,0.429,3.54,0.636
		c0.36,0.063,0.728,0.12,1.092,0.117c1.846-0.027,2.155-0.285,1.784-2.006c-0.49-2.276-0.99-4.554-1.577-6.809
		C124.479,113.233,124.614,112.873,125.297,112.614z"/>
	<path fill-rule="evenodd" clip-rule="evenodd" fill="#1A1A1A" d="M84.029,76.477c-1.016,1.061-2.13,1.129-3.273,0.971
		c-1.186-0.165-2.355-0.48-3.544-0.583c-0.806-0.069-1.64,0.075-2.45,0.2c-0.494,0.078-0.672,0.401-0.538,0.958
		c0.625,2.583,1.225,5.171,1.773,7.771c0.064,0.307-0.241,0.691-0.375,1.042c-0.314-0.14-0.818-0.204-0.911-0.432
		c-0.707-1.745-1.497-3.481-1.939-5.299c-0.469-1.93-0.574-3.947-0.86-5.923c-0.118-0.817,0.291-1.19,1.008-1.045
		C76.565,74.871,80.2,75.664,84.029,76.477z"/>
	<path fill-rule="evenodd" clip-rule="evenodd" fill="#1A1A1A" d="M116.969,76.381c3.914-0.953,7.84-1.821,12.231-2.197
		c-0.734,3.641-1.374,6.96-2.1,10.259c-0.153,0.692-0.587,1.344-0.992,1.945c-0.16,0.238-0.598,0.288-0.909,0.424
		c-0.133-0.35-0.439-0.737-0.375-1.046c0.518-2.471,1.169-4.914,1.646-7.391c0.265-1.368,0.032-1.63-1.357-1.607
		c-1.286,0.021-2.566,0.315-3.854,0.444c-0.952,0.096-1.919,0.202-2.868,0.143c-0.515-0.033-1.007-0.399-1.512-0.615
		C116.909,76.621,116.939,76.501,116.969,76.381z"/>
	<path fill-rule="evenodd" clip-rule="evenodd" fill="#1A1A1A" d="M137.996,89.994c-1.645-0.107-3.133-0.246-4.622-0.286
		c-1.026-0.027-2.06,0.042-3.085,0.136c-1.156,0.107-2.258-0.432-2.817-1.472c-0.562-1.04-0.461-2.293,0.283-3.179
		c0.57-0.681,1.231-1.016,2.19-0.773c3.121,0.787,5.845,2.154,7.682,4.925C137.733,89.506,137.819,89.681,137.996,89.994z"/>
	<path fill-rule="evenodd" clip-rule="evenodd" fill="#1A1A1A" d="M62.896,89.893c0.879-1.48,1.83-2.77,3.491-3.435
		c1.339-0.536,2.59-1.286,3.904-1.891c0.942-0.433,1.948-0.432,2.67,0.355c0.791,0.861,0.984,1.962,0.508,3.075
		c-0.484,1.135-1.399,1.839-2.613,1.873C68.24,89.942,65.619,89.893,62.896,89.893z"/>
	<path fill-rule="evenodd" clip-rule="evenodd" fill="#1A1A1A" d="M137.729,109.794c-2.189,2.918-4.895,4.991-8.726,5.26
		c-0.72,0.052-1.131-0.19-1.46-0.873c-1.387-2.875-1.013-3.052,1.737-4.375c0.383-0.183,0.907-0.188,1.344-0.125
		c1.992,0.294,3.966,0.495,5.926-0.223c0.327-0.121,0.739-0.017,1.114-0.017C137.687,109.56,137.707,109.676,137.729,109.794z"/>
	<path fill-rule="evenodd" clip-rule="evenodd" fill="#1A1A1A" d="M62.89,109.506c1.327,0.143,2.571,0.341,3.822,0.39
		c0.989,0.036,1.985-0.163,2.978-0.153c0.622,0.007,1.313,0.068,1.849,0.346c2.575,1.338,2.469,1.743,1.173,4.362
		c-0.14,0.281-0.589,0.548-0.915,0.575C68.517,115.297,64.259,112.672,62.89,109.506z"/>
	<path fill-rule="evenodd" clip-rule="evenodd" fill="#1A1A1A" d="M41.565,76.697c0.961-1.269,1.652-1.308,2.71-0.221
		c1.75,1.798,3.648,3.403,5.929,4.5c2.159,1.042,4.413,1.479,6.779,0.914c0.588-0.141,0.955,0.026,1.046,0.54
		c0.061,0.343-0.034,0.857-0.265,1.074c-0.334,0.312-0.841,0.545-1.3,0.6c-2.57,0.312-5.039-0.118-7.383-1.21
		C46.064,81.487,43.66,79.333,41.565,76.697z"/>
	<path fill-rule="evenodd" clip-rule="evenodd" fill="#1A1A1A" d="M145.4,115.284c3.543,0.013,6.51,1.131,9.107,3.124
		c1.442,1.107,2.69,2.469,4.007,3.734c0.358,0.346,0.808,0.881,0.224,1.244c-0.415,0.254-1.215,0.313-1.616,0.074
		c-0.813-0.486-1.46-1.249-2.202-1.867c-2.032-1.696-4.153-3.324-6.791-3.86c-1.461-0.298-3.021-0.103-4.534-0.139
		c-0.33-0.009-0.911,0.014-0.942-0.098c-0.105-0.378-0.167-0.929,0.038-1.188c0.322-0.41,0.841-0.734,1.342-0.908
		C144.519,115.233,145.087,115.305,145.4,115.284z"/>
	<path fill-rule="evenodd" clip-rule="evenodd" fill="#1A1A1A" d="M159.223,76.424c-2.592,4.751-9.665,8.366-14.991,7.661
		c-1.196-0.158-1.91-1.039-1.415-1.799c0.147-0.224,0.593-0.441,0.836-0.385c3.217,0.763,6.105-0.103,8.72-1.893
		c1.614-1.104,3.067-2.447,4.547-3.734C157.845,75.468,158.423,75.461,159.223,76.424z"/>
	<path fill-rule="evenodd" clip-rule="evenodd" fill="#1A1A1A" d="M54.441,115.412c0.508,0.027,1.292-0.03,2.026,0.135
		c0.463,0.104,0.928,0.476,1.241,0.855c0.174,0.209,0.168,0.771,0.002,0.998c-0.146,0.201-0.657,0.277-0.957,0.201
		c-2.469-0.612-4.833-0.218-6.928,1.071c-1.999,1.231-3.802,2.78-5.685,4.196c-0.265,0.199-0.476,0.611-0.743,0.637
		c-0.58,0.06-1.337,0.141-1.732-0.162c-0.577-0.444,0.005-0.909,0.406-1.266c1.532-1.372,3.011-2.809,4.605-4.105
		C48.845,116.21,51.411,115.488,54.441,115.412z"/>
	<path fill-rule="evenodd" clip-rule="evenodd" fill="#1A1A1A" d="M85.821,64.25c-0.106,0.538-0.294,1.073-0.306,1.612
		c-0.032,1.496,0.059,2.996,0.004,4.491c-0.036,0.987-0.121,2.002-0.393,2.945c-0.393,1.354-0.82,1.524-2.239,1.291
		c-1.534-0.254-1.583-0.297-1.603-1.818c-0.043-3.303,1.246-6.016,3.68-8.21c0.187-0.168,0.416-0.291,0.626-0.436
		C85.668,64.167,85.744,64.208,85.821,64.25z"/>
	<path fill-rule="evenodd" clip-rule="evenodd" fill="#1A1A1A" d="M85.524,135.347c-2.741-1.831-3.96-4.396-4.415-7.413
		c-0.005-0.034-0.006-0.066-0.01-0.099c-0.285-2.59-0.275-2.631,2.253-3.03c0.333-0.053,0.925,0.223,1.062,0.505
		c0.397,0.824,0.753,1.711,0.883,2.609c0.137,0.942,0.002,1.927-0.026,2.892c-0.021,0.733-0.114,1.468-0.077,2.195
		C85.232,133.731,85.392,134.448,85.524,135.347z"/>
	<path fill-rule="evenodd" clip-rule="evenodd" fill="#1A1A1A" d="M115.17,135.118c0-1.458-0.031-2.877,0.007-4.293
		c0.04-1.453-0.04-2.945,0.273-4.345c0.389-1.729,2.114-2.2,3.542-1.145c0.156,0.114,0.271,0.385,0.277,0.586
		c0.144,3.621-0.83,6.777-3.85,9.055C115.317,135.052,115.198,135.103,115.17,135.118z"/>
	<path fill-rule="evenodd" clip-rule="evenodd" fill="#1A1A1A" d="M115.362,64.332c2.221,1.526,3.432,3.771,3.954,6.445
		c0.101,0.521,0.157,1.056,0.178,1.587c0.076,1.92-0.048,2.031-1.96,2.293c-0.614,0.085-0.944-0.097-1.286-0.632
		c-0.847-1.331-1.244-2.621-0.952-4.288C115.597,68.005,115.362,66.179,115.362,64.332z"/>
	<path fill-rule="evenodd" clip-rule="evenodd" fill="#1A1A1A" d="M74.454,36.476c1.714,0.398,1.816,0.536,1.477,1.888
		c-0.474,1.893-0.105,3.667,0.898,5.272c0.719,1.15,1.69,2.14,2.439,3.274c0.334,0.504,0.524,1.182,0.554,1.792
		c0.031,0.666-0.581,0.912-0.987,0.4c-2.235-2.82-4.623-5.601-4.838-9.43C73.937,38.624,74.288,37.551,74.454,36.476z"/>
	<path fill-rule="evenodd" clip-rule="evenodd" fill="#1A1A1A" d="M126.035,36.506c0.999,1.766,0.959,3.558,0.401,5.362
		c-0.841,2.728-2.545,4.949-4.316,7.116c-0.157,0.192-0.555,0.354-0.764,0.289c-0.186-0.057-0.35-0.44-0.38-0.698
		c-0.092-0.744,0.104-1.335,0.659-1.962c1.022-1.157,1.947-2.436,2.715-3.777c0.723-1.262,0.951-2.744,0.543-4.16
		C124.56,37.519,124.981,36.943,126.035,36.506z"/>
	<path fill-rule="evenodd" clip-rule="evenodd" fill="#1A1A1A" d="M125.783,162.973c-0.983-0.216-1.344-0.588-1.139-1.679
		c0.648-3.444-0.907-6.175-3.219-8.512c-0.806-0.812-0.737-1.59-0.604-2.537C124.985,152.174,127.773,159.344,125.783,162.973z"/>
	<path fill-rule="evenodd" clip-rule="evenodd" fill="#1A1A1A" d="M74.538,162.95c-0.818-1.455-0.938-3.021-0.579-4.611
		c0.72-3.201,2.731-5.642,4.874-7.987c0.431-0.472,0.806-0.181,0.79,0.292c-0.02,0.586-0.138,1.247-0.445,1.728
		c-0.876,1.362-1.981,2.585-2.787,3.983c-0.865,1.502-1.078,3.191-0.688,4.925C75.977,162.508,75.881,162.628,74.538,162.95z"/>
</g>
<g>
	<path fill-rule="evenodd" clip-rule="evenodd" fill="#808080" d="M37.805,24.559c-0.213,0.215-0.394,0.563-0.647,0.628
		c-3.828,0.991-6.933,3.32-10.213,5.358c-1.79,1.113-3.151,2.455-3.961,4.412c-0.927,2.236-1.975,4.422-2.921,6.651
		c-0.203,0.477-0.247,1.041-0.269,1.569c-0.042,0.993-0.601,1.225-1.694,1.113c0.233-1.37,0.356-2.724,0.705-4.019
		c1.252-4.663,4.068-8.261,7.846-11.157c3.032-2.323,6.438-3.871,10.154-4.739c0.248-0.059,0.508-0.071,0.762-0.104
		C37.645,24.367,37.726,24.463,37.805,24.559z"/>
	<path fill-rule="evenodd" clip-rule="evenodd" fill="#808080" d="M163.225,24.235c4.976,0.92,9.31,3.131,12.927,6.715
		c3.695,3.663,5.902,8.048,6.301,13.345c-0.814,0.081-1.318-0.064-1.394-0.924c-0.189-2.168-1.028-4.117-2.08-5.991
		c-0.963-1.711-1.912-3.431-2.872-5.143c-0.096-0.17-0.214-0.358-0.372-0.455c-3.126-1.898-6.244-3.812-9.405-5.649
		c-0.732-0.426-1.639-0.548-2.431-0.883c-0.337-0.142-0.591-0.476-0.882-0.722C163.086,24.432,163.154,24.333,163.225,24.235z"/>
	<path fill-rule="evenodd" clip-rule="evenodd" fill="#808080" d="M162.823,175.085c0.243-0.282,0.443-0.749,0.738-0.819
		c3.141-0.77,5.789-2.49,8.431-4.242c1.108-0.734,2.238-1.442,3.342-2.185c0.262-0.18,0.522-0.419,0.677-0.69
		c0.962-1.673,1.896-3.362,2.835-5.05c1.042-1.876,1.832-3.83,2.092-5.992c0.047-0.388,0.589-0.875,1.004-1.021
		c0.556-0.195,0.631,0.287,0.486,0.734c-0.676,2.083-1.132,4.272-2.073,6.227c-3.429,7.106-9.098,11.474-16.801,13.191
		c-0.159,0.034-0.321,0.049-0.484,0.075C162.987,175.236,162.904,175.161,162.823,175.085z"/>
	<path fill-rule="evenodd" clip-rule="evenodd" fill="#808080" d="M24.325,167.153c-1.858-1.378-3.147-3.192-4.043-5.249
		c-0.833-1.919-1.518-3.903-2.221-5.876c-0.093-0.259,0.089-0.617,0.145-0.929c0.419,0.194,1.184,0.354,1.206,0.587
		c0.402,4.19,2.971,7.435,4.732,11.024C24.213,166.854,24.265,167.006,24.325,167.153z"/>
	<path fill-rule="evenodd" clip-rule="evenodd" fill="#808080" d="M37.48,175.1c-4.281-0.636-10.889-4.479-12.648-7.412
		c4.049,2.624,7.758,5.473,12.289,6.82C37.258,174.551,37.323,174.831,37.48,175.1z"/>
	<path fill-rule="evenodd" clip-rule="evenodd" fill="#808080" d="M90.663,92.785c-4.153-3.583-6.025-8.029-5.439-13.375
		c0.772-7.052,4.389-12.545,9.821-16.911c1.284-1.032,2.717-1.946,4.213-2.617c0.631-0.283,1.689,0.03,2.412,0.37
		c6.423,3.012,10.835,7.911,13.031,14.64c2.101,6.44,1.229,12.375-3.682,17.393c-0.094,0.096-0.189,0.188-0.29,0.275
		c-0.047,0.043-0.11,0.067-0.279,0.167c-1.169-1.363-2.369-2.729-3.517-4.139c-0.163-0.201-0.137-0.625-0.079-0.923
		c0.787-4.205,1.351-8.426,1.062-12.72c-0.311-4.598-1.661-8.759-5.086-12.04c-1.149-1.101-3.521-1.139-4.701-0.073
		c-3.452,3.119-4.836,7.171-5.197,11.66c-0.356,4.426,0.28,8.779,1.026,13.124c0.072,0.419-0.074,0.983-0.325,1.332
		C92.705,90.24,91.689,91.473,90.663,92.785z"/>
	<path fill-rule="evenodd" clip-rule="evenodd" fill="#808080" d="M109.872,106.838c1.344,0.613,2.219,1.543,2.776,2.695
		c1.776,3.667,3.492,7.354,2.892,11.633c-0.556,3.968-2.308,7.393-4.904,10.326c-2.245,2.534-4.673,4.932-7.217,7.166
		c-1.441,1.266-3.284,1.656-5.167,0.505c-7.961-4.873-13.166-11.505-13.319-21.221c-0.065-4.075,1.634-7.558,4.372-10.554
		c0.519-0.569,0.974-0.553,1.403-0.058c1.066,1.229,2.096,2.488,3.093,3.772c0.137,0.178,0.048,0.57-0.006,0.852
		c-0.721,3.698-1.448,7.396-1.284,11.192c0.144,3.358,0.768,6.621,2.221,9.677c1.068,2.246,2.649,3.97,5.147,4.682
		c0.661,0.188,1.186,0.115,1.76-0.297c3.604-2.595,5.265-6.267,5.861-10.514c0.686-4.889,0.045-9.71-0.902-14.499
		c-0.142-0.726-0.036-1.251,0.446-1.814C108.016,109.246,108.911,108.05,109.872,106.838z"/>
	<path fill-rule="evenodd" clip-rule="evenodd" fill="#808080" d="M87.796,92.778c-8.614,0.065-16.336,2.702-23.846,6.54
		c0.076-0.232,0.083-0.331,0.133-0.396c4.727-6.119,10.46-10.888,17.918-13.334c2.032-0.667,2.039-0.653,2.957,1.259
		C85.879,88.763,86.794,90.681,87.796,92.778z"/>
	<path fill-rule="evenodd" clip-rule="evenodd" fill="#808080" d="M136.336,101.061c-5.119,6.032-10.975,11.024-18.851,13.118
		c-0.281,0.076-0.815-0.006-0.922-0.19c-1.312-2.302-2.566-4.637-3.896-7.079c1.88-0.173,3.57-0.27,5.243-0.494
		c5.968-0.798,11.604-2.662,16.973-5.369c0.395-0.197,0.866-0.24,1.302-0.355C136.235,100.814,136.284,100.936,136.336,101.061z"/>
	<path fill-rule="evenodd" clip-rule="evenodd" fill="#808080" d="M113.039,92.77c0.979-2.051,1.893-3.964,2.806-5.878
		c0.855-1.792,0.855-1.785,2.765-1.265c4.604,1.25,8.562,3.671,12.04,6.855c2.206,2.017,4.225,4.235,6.227,6.526
		C129.271,95.692,121.634,92.706,113.039,92.77z"/>
	<path fill-rule="evenodd" clip-rule="evenodd" fill="#808080" d="M64.521,100.804c2.715,1.084,5.427,2.172,8.145,3.248
		c3.71,1.474,7.483,2.592,11.555,2.363c1.076-0.059,2.17,0.212,3.287,0.336c0,0.181,0.044,0.328-0.006,0.423
		c-1.145,2.183-2.31,4.352-3.446,6.537c-0.312,0.603-0.699,0.619-1.296,0.439c-6.238-1.854-11.407-5.385-15.83-10.08
		c-0.909-0.964-1.749-1.996-2.621-2.998C64.38,100.983,64.45,100.894,64.521,100.804z"/>
	<path fill-rule="evenodd" clip-rule="evenodd" fill="#808080" d="M70.475,74.665c-0.068,0.282-0.043,0.662-0.219,0.829
		c-1.671,1.575-2.079,3.644-2.351,5.777c-0.113,0.89-0.194,1.788-0.393,2.659c-0.059,0.256-0.472,0.433-0.721,0.646
		c-0.112-0.249-0.343-0.511-0.316-0.745c0.257-2.309,0.431-4.66,1.586-6.739c0.533-0.958,1.309-1.782,1.974-2.666
		C70.183,74.505,70.329,74.585,70.475,74.665z"/>
	<path fill-rule="evenodd" clip-rule="evenodd" fill="#808080" d="M130.626,74.61c1.574,1.064,2.402,2.639,2.842,4.413
		c0.376,1.512,0.61,3.061,0.852,4.602c0.047,0.294-0.178,0.63-0.275,0.947c-0.297-0.297-0.785-0.556-0.855-0.9
		c-0.224-1.102-0.267-2.239-0.427-3.357c-0.252-1.777-0.839-3.408-2.125-4.735c-0.195-0.201-0.214-0.573-0.312-0.865
		C130.425,74.679,130.527,74.644,130.626,74.61z"/>
	<path fill-rule="evenodd" clip-rule="evenodd" fill="#808080" d="M66.378,114.875c0.788,0.084,1.104,0.467,1.174,1.29
		c0.136,1.588,0.269,3.203,0.699,4.725c0.305,1.076,1.099,2.017,1.671,3.02c0.143,0.251,0.272,0.508,0.486,0.908
		C67.712,123.965,66.283,119.131,66.378,114.875z"/>
	<path fill-rule="evenodd" clip-rule="evenodd" fill="#808080" d="M130.057,124.701c0.089-0.22,0.125-0.495,0.279-0.647
		c1.596-1.565,2.039-3.6,2.375-5.687c0.148-0.917,0.265-1.844,0.481-2.746c0.068-0.281,0.42-0.497,0.784-0.636
		c-0.28,3.681-0.285,7.414-3.603,9.858C130.269,124.795,130.163,124.748,130.057,124.701z"/>
	<path fill-rule="evenodd" clip-rule="evenodd" fill="#808080" d="M72.737,72.982c0.972-1.779,6.976-5.262,8.344-4.795
		c-0.424,0.416-0.714,0.846-1.119,1.071c-2.083,1.159-4.194,2.27-6.3,3.389C73.452,72.757,73.212,72.812,72.737,72.982z"/>
	<path fill-rule="evenodd" clip-rule="evenodd" fill="#808080" d="M120.025,67.876c2.959,1.185,5.741,2.451,7.954,4.691
		c-0.025,0.093-0.051,0.187-0.078,0.281c-0.289-0.072-0.612-0.083-0.86-0.226c-2.365-1.371-4.718-2.762-7.062-4.166
		C119.922,68.421,119.999,68.162,120.025,67.876z"/>
	<path fill-rule="evenodd" clip-rule="evenodd" fill="#808080" d="M119.661,131.216c0.312-0.297,0.572-0.698,0.94-0.875
		c2.238-1.083,4.617-1.899,6.533-3.583c0.136-0.119,0.472-0.013,0.988-0.013c-2.567,2.309-5.238,3.805-8.209,4.77
		C119.83,131.415,119.745,131.315,119.661,131.216z"/>
	<path fill-rule="evenodd" clip-rule="evenodd" fill="#808080" d="M72.794,126.634c0.246,0.139,0.488,0.281,0.738,0.414
		c2.032,1.062,4.076,2.104,6.09,3.201c0.388,0.209,0.666,0.627,0.872,1.084c-3.042-0.819-5.632-2.326-7.935-4.315
		C72.638,126.889,72.716,126.763,72.794,126.634z"/>
</g>
<g>
	<g>
		<path fill-rule="evenodd" clip-rule="evenodd" fill="#4D4D4D" d="M160.277,157.169c-0.664,4.901-2.089,9.471-4.37,13.723
			c-7.469,13.915-18.82,22.775-34.337,26.195c-4.229,0.931-8.273,0.731-11.841-1.861c-1.463-1.062-2.632-2.604-3.718-4.088
			c-0.855-1.167-0.612-2.62-0.218-3.963c0.933-3.181,3.758-5.489,6.606-5.253c1.182,0.098,2.409-0.16,3.562,0.049
			c2.812,0.511,3.679,2.084,4.069,4.514c0.243,1.513-1.152,2.808-2.979,2.984c-1.506,0.146-2.666-0.661-2.839-2.027
			c-0.039-0.3,0.098-0.618,0.155-0.928c0.307,0.066,0.623,0.105,0.915,0.209c0.243,0.084,0.448,0.313,0.689,0.353
			c0.273,0.042,0.672,0.038,0.821-0.124c0.143-0.155,0.135-0.593,0.02-0.816c-0.713-1.402-1.799-2.432-3.374-2.711
			c-0.521-0.092-1.29,0.077-1.65,0.43c-1.266,1.232-2.365,2.592-2.57,4.493c-0.092,0.861,0.113,1.421,0.747,1.995
			c4.72,4.278,10.289,4.694,16.092,1.125c4.848-2.981,8.49-7.17,11.486-11.916c1.521-2.411,2.697-5.041,4.052-7.559
			c0.18-0.334,0.438-0.678,0.747-0.881c6.265-4.086,12.207-8.582,17.595-13.786C159.981,157.282,160.054,157.27,160.277,157.169z"/>
		<path fill-rule="evenodd" clip-rule="evenodd" fill="#4D4D4D" d="M163.141,44.409c0.897,0.198,1.801,0.366,2.688,0.599
			c6.956,1.826,12.96,5.371,18.2,10.231c7.221,6.696,12.173,14.754,14.411,24.398c0.735,3.166,1.025,6.38,0.878,9.63
			c-0.122,2.708-1.554,4.919-2.806,7.183c-1.357,2.454-3.437,3.986-6.16,4.736c-1.188,0.327-2.175,0.018-3.138-0.518
			c-3.202-1.78-4.25-4.784-4.487-8.186c-0.196-2.787,0.783-5.077,3.04-6.807c1.301-0.998,2.666-1.211,4.113-0.494
			c1.523,0.756,2.56,1.953,2.629,3.727c0.053,1.342-0.741,2.242-1.878,2.838c-0.563,0.297-1.348-0.161-1.518-0.849
			c-0.034-0.126,0.02-0.277-0.023-0.396c-0.218-0.624-0.454-1.241-0.684-1.859c-0.663,0.294-1.478,0.433-1.958,0.912
			c-1.205,1.197-2.053,2.719-1.329,4.417c0.737,1.73,2.24,2.688,4.178,2.783c1.971,0.096,3.648-0.52,5.006-2.019
			c2.384-2.637,3.038-5.713,2.352-9.109c-0.186-0.918-0.492-1.875-0.988-2.656c-5.11-8.027-11.3-15.087-18.895-20.868
			c-0.634-0.482-1.256-1.001-1.957-1.363c-1.275-0.66-1.893-1.799-2.642-2.945c-2.057-3.146-4.291-6.178-6.457-9.255
			c-0.913-1.298-1.825-2.6-2.739-3.899C163.032,44.562,163.088,44.485,163.141,44.409z"/>
		<path fill-rule="evenodd" clip-rule="evenodd" fill="#4D4D4D" d="M40.123,42.138c0.34-1.449,0.536-2.952,1.051-4.336
			c1.358-3.649,2.785-7.278,4.331-10.851c0.614-1.419,1.516-2.75,2.459-3.987c7.255-9.513,16.453-16.351,27.927-19.944
			c2.022-0.633,4.15-0.997,6.256-1.278c4.461-0.595,9.706,2.16,11.885,6.101c1.897,3.43,0.688,7.255-2.866,8.922
			c-2.204,1.034-4.516,1.406-6.893,0.695c-1.849-0.553-3.096-1.78-3.653-3.655c-0.419-1.408,0.01-2.633,1.142-3.31
			c1.221-0.732,3.136-0.593,4.029,0.29c0.589,0.582,0.653,1.259,0.388,2.094c-0.532-0.233-0.995-0.464-1.479-0.641
			c-0.646-0.237-1.052,0.033-0.897,0.699c0.338,1.457,1.248,2.502,2.644,3.041c1.186,0.457,2.158-0.039,2.944-0.919
			c0.485-0.543,0.974-1.108,1.33-1.738c1.239-2.189,1-3.318-0.944-4.879c-3.774-3.032-7.93-3.596-12.394-1.821
			c-4.302,1.709-7.603,4.748-10.553,8.202c-3.228,3.777-5.81,7.959-7.703,12.563c-0.142,0.345-0.395,0.713-0.7,0.911
			c-6.267,4.091-12.141,8.686-17.698,13.692c-0.095,0.085-0.205,0.155-0.308,0.231C40.322,42.191,40.222,42.165,40.123,42.138z"/>
		<path fill-rule="evenodd" clip-rule="evenodd" fill="#4D4D4D" d="M37.511,44.631c-0.446,0.835-0.799,1.739-1.356,2.492
			c-1.427,1.927-2.959,3.776-4.419,5.68c-1.42,1.852-2.836,3.707-3.448,6.032c-0.081,0.31-0.411,0.609-0.7,0.799
			c-3.685,2.423-7.091,5.188-10.257,8.254c-4.862,4.709-9.091,9.932-12.595,15.722c-0.989,1.634-0.897,3.531-0.793,5.356
			c0.203,3.529,2.03,5.986,5.221,7.43c1.646,0.746,3.244,0.582,4.729-0.47c1.575-1.115,1.943-2.716,1.746-4.508
			c-0.15-1.364-1.524-2.731-2.814-2.901c-0.801-0.107-1.219,0.196-1.193,1.027c0.007,0.234,0.085,0.487,0.021,0.696
			c-0.153,0.502-0.246,1.182-0.605,1.413c-0.294,0.19-1.002-0.056-1.414-0.3c-0.975-0.579-1.344-1.549-1.289-2.65
			c0.143-2.922,2.966-4.68,5.662-3.547c2.82,1.185,4.646,4.72,4.028,7.976c-0.332,1.749-0.548,3.509-1.632,5.08
			c-2.395,3.466-6.955,4.066-9.908,1.02C2.679,95.296,0.94,90.626,1.53,85.039c0.899-8.524,3.999-16.124,9.109-22.93
			c5.894-7.848,13.351-13.608,22.756-16.677c1.283-0.418,2.605-0.709,3.909-1.06C37.374,44.459,37.442,44.545,37.511,44.631z"/>
		<path fill-rule="evenodd" clip-rule="evenodd" fill="#4D4D4D" d="M160.595,42.33c-2.628-2.205-5.024-4.369-7.583-6.326
			c-3.411-2.609-6.956-5.041-10.415-7.592c-0.474-0.351-0.87-0.899-1.129-1.44c-2.766-5.783-6.097-11.174-10.78-15.623
			c-2.872-2.728-6.095-4.87-10.095-5.552c-3.394-0.579-6.562,0.144-9.5,1.878c-1.298,0.767-1.984,3.023-1.485,4.771
			c0.507,1.784,1.729,2.91,3.501,3.366c1.674,0.429,3.824-1.13,4.08-2.877c0.104-0.704-0.362-0.83-0.859-0.729
			c-0.641,0.133-1.255,0.393-2.23,0.712c0.295-0.752,0.408-1.398,0.76-1.859c0.846-1.102,2.629-1.625,3.34-1.094
			c1.643,1.222,2.302,3.587,1.27,5.052c-0.499,0.708-1.219,1.352-1.98,1.768c-1.992,1.089-4.138,1.305-6.384,0.855
			c-3.813-0.763-7.543-6.299-3.777-10.812c2.193-2.629,4.982-4.417,8.293-5.04c1.665-0.313,3.514,0.11,5.244,0.405
			c8.756,1.489,16.312,5.528,22.896,11.339c3.109,2.745,6.147,5.69,8.633,8.987c2.172,2.882,3.741,6.291,5.173,9.639
			c1.25,2.916,1.942,6.072,2.868,9.125C160.519,41.562,160.525,41.866,160.595,42.33z"/>
		<path fill-rule="evenodd" clip-rule="evenodd" fill="#4D4D4D" d="M40.132,157.333c1.273,1.061,2.51,2.171,3.827,3.175
			c4.714,3.592,9.461,7.141,14.176,10.736c0.395,0.301,0.732,0.76,0.935,1.219c2.85,6.42,6.697,12.123,12.067,16.71
			c2.884,2.463,6.091,4.333,9.977,4.665c3.853,0.328,7.024-1.211,9.716-3.826c0.329-0.319,0.388-1.046,0.367-1.575
			c-0.083-2.015-1.301-3.457-2.694-4.72c-0.366-0.331-1.154-0.436-1.674-0.316c-1.561,0.354-2.585,1.444-3.251,2.864
			c-0.097,0.204-0.095,0.589,0.036,0.727c0.126,0.131,0.491,0.107,0.723,0.047c0.317-0.083,0.599-0.354,0.911-0.382
			c0.339-0.033,0.864,0.014,0.997,0.223c0.15,0.232-0.013,0.701-0.119,1.043c-0.051,0.164-0.295,0.258-0.428,0.407
			c-0.818,0.911-1.745,1.665-3.044,1.166c-1.342-0.515-1.948-1.678-2.151-3.028c-0.208-1.391,0.149-2.627,1.404-3.389
			c4.259-2.589,11.82-1.806,12.958,5.49c0.098,0.625,0.032,1.345-0.185,1.939c-1.213,3.334-3.852,5.001-7.078,6.057
			c-3.174,1.041-6.29,0.557-9.359-0.222c-18.56-4.71-31.217-15.889-37.243-34.242c-0.494-1.505-0.756-3.088-1.125-4.635
			C39.959,157.421,40.045,157.376,40.132,157.333z"/>
		<path fill-rule="evenodd" clip-rule="evenodd" fill="#4D4D4D" d="M5.925,100.696c1.337,0.644,2.669,1.284,4.25,2.045
			c-2.535,0.542-4.254,1.875-5.29,3.903c-1.637,3.211-1.862,6.563,0.052,9.717c5.017,8.261,11.349,15.363,19.121,21.145
			c1.064,0.792,2.22,1.464,3.281,2.26c0.369,0.274,0.669,0.721,0.853,1.152c1.41,3.316,3.549,6.16,5.769,8.952
			c1.276,1.608,2.557,3.209,3.986,5.007c-2.812-0.317-5.266-0.977-7.662-1.873c-6.309-2.356-11.628-6.183-16.151-11.111
			c-6.736-7.344-10.976-15.918-12.814-25.745c-1.093-5.844,0.875-10.649,4.276-15.136C5.673,100.91,5.782,100.833,5.925,100.696z"/>
		<path fill-rule="evenodd" clip-rule="evenodd" fill="#4D4D4D" d="M162.369,154.907c1.374-1.698,2.613-3.094,3.702-4.598
			c1.83-2.531,3.853-4.985,5.238-7.752c0.965-1.93,2.433-3.002,3.948-4.266c3.42-2.854,6.864-5.7,10.052-8.807
			c4.168-4.058,7.795-8.637,10.494-13.794c2.309-4.417,0.47-11.512-5.074-12.805c-0.086-0.021-0.159-0.086-0.328-0.18
			c1.271-0.567,2.457-1.126,3.67-1.609c0.191-0.076,0.604,0.107,0.764,0.299c0.781,0.939,1.651,1.846,2.224,2.908
			c0.798,1.492,1.372,3.104,2.009,4.677c0.12,0.296,0.116,0.651,0.118,0.98c0.012,1.832-0.078,3.67,0.03,5.497
			c0.133,2.251-0.366,4.334-1.147,6.421c-2.365,6.324-5.557,12.197-9.786,17.441c-5.25,6.515-11.532,11.724-19.672,14.298
			c-1.424,0.451-2.906,0.727-4.366,1.052C163.729,154.785,163.194,154.808,162.369,154.907z"/>
		<path fill-rule="evenodd" clip-rule="evenodd" fill="#4D4D4D" d="M39.952,37.53c-0.458,1.769-0.825,3.317-1.281,4.84
			c-0.087,0.292-0.49,0.621-0.803,0.692c-2.103,0.492-4.227,0.895-6.331,1.38c-0.614,0.141-0.846-0.086-1.005-0.609
			c-0.566-1.868-0.157-3.693,0.257-5.509c0.042-0.188,0.416-0.402,0.654-0.426c2.249-0.227,4.501-0.438,6.754-0.596
			C38.734,37.264,39.284,37.437,39.952,37.53z"/>
		<path fill-rule="evenodd" clip-rule="evenodd" fill="#4D4D4D" d="M169.977,44.568c-2.497-0.531-4.935-1.035-7.358-1.593
			c-0.234-0.054-0.495-0.412-0.568-0.677c-0.244-0.884-0.4-1.792-0.609-2.686c-0.095-0.418-0.282-0.82-0.335-1.242
			c-0.09-0.715,0.141-1.117,1.001-1.039c2.42,0.22,4.846,0.367,7.268,0.566c0.224,0.019,0.591,0.173,0.625,0.326
			C170.487,40.304,170.844,42.392,169.977,44.568z"/>
		<path fill-rule="evenodd" clip-rule="evenodd" fill="#4D4D4D" d="M160.67,162.214c0.466-1.938,0.817-3.493,1.235-5.031
			c0.062-0.24,0.397-0.511,0.655-0.581c1.925-0.512,3.867-0.964,5.796-1.462c1.233-0.32,1.726-0.09,1.759,1.195
			c0.038,1.554-0.109,3.117-0.255,4.669c-0.021,0.232-0.45,0.593-0.712,0.615C166.408,161.845,163.664,162.012,160.67,162.214z"/>
		<path fill-rule="evenodd" clip-rule="evenodd" fill="#4D4D4D" d="M38.397,156.811c0.401,1.613,0.801,3.223,1.227,4.937
			c-0.215,0.051-0.49,0.177-0.763,0.172c-2.424-0.063-4.848-0.149-7.272-0.229c-0.719-0.022-1.117-0.415-1.146-1.113
			c-0.065-1.518-0.112-3.039-0.12-4.559c-0.004-0.847,0.484-1.034,1.262-0.841C33.846,155.739,36.116,156.267,38.397,156.811z"/>
		<path fill-rule="evenodd" clip-rule="evenodd" fill="#4D4D4D" d="M105.094,87.588c-3.159-2.088-6.29-1.578-9.426-0.07
			c-1.247-3.402-1.746-6.742-1.676-10.162c0.083-4.121,1-8.049,2.887-11.735c0.676-1.322,1.865-2.055,3.103-2.716
			c0.531-0.284,2.11,0.481,2.668,1.201c2.155,2.786,3.325,5.984,3.821,9.432c0.648,4.523,0.204,8.972-1.103,13.34
			C105.321,87.032,105.252,87.18,105.094,87.588z"/>
		<path fill-rule="evenodd" clip-rule="evenodd" fill="#4D4D4D" d="M95.577,111.863c3.101,2.326,6.178,1.59,9.394,0.09
			c0.369,1.351,0.78,2.576,1.03,3.834c1.239,6.248,0.517,12.262-2.242,18.023c-0.63,1.314-1.737,2.088-2.933,2.752
			c-0.773,0.429-2.211-0.227-2.99-1.286c-1.996-2.715-3.156-5.787-3.666-9.092c-0.715-4.623-0.287-9.17,1.113-13.632
			C95.331,112.403,95.407,112.26,95.577,111.863z"/>
		<path fill-rule="evenodd" clip-rule="evenodd" fill="#4D4D4D" d="M89.569,94.132c-0.137,3.886-0.26,7.401-0.384,10.944
			c-3.6,1.376-16.831-1.53-22.99-5.142c0.536-0.307,0.995-0.602,1.479-0.843c5.045-2.517,10.257-4.433,15.989-4.578
			C85.571,94.465,87.474,94.271,89.569,94.132z"/>
		<path fill-rule="evenodd" clip-rule="evenodd" fill="#4D4D4D" d="M111.262,105.251c0-3.68,0-7.201,0-10.958
			c8.206-0.177,15.95,1.148,23.111,5.523C127.077,103.727,119.417,105.552,111.262,105.251z"/>
		<path fill-rule="evenodd" clip-rule="evenodd" fill="#4D4D4D" d="M65.213,108.492c-1.273-0.32-2.469-0.602-3.65-0.939
			c-0.246-0.069-0.511-0.307-0.635-0.539c-1.544-2.915-3.678-5.294-6.428-7.152c0.064-0.104,0.093-0.209,0.161-0.25
			c2.756-1.669,4.712-4.093,6.339-6.803c0.41-0.683,0.864-1.149,1.667-1.23c0.164-0.017,0.326-0.067,0.488-0.108
			c2.626-0.656,2.75-0.592,3.363,2.016c0.049,0.208-0.156,0.524-0.32,0.727c-1.054,1.286-2.138,2.549-3.197,3.83
			c-0.874,1.056-0.935,2.182-0.134,3.29c0.837,1.156,1.66,2.339,2.633,3.374c0.712,0.76,1,1.396,0.396,2.321
			C65.625,107.438,65.472,107.925,65.213,108.492z"/>
		<path fill-rule="evenodd" clip-rule="evenodd" fill="#4D4D4D" d="M146.104,99.813c-2.891,1.625-4.838,4.05-6.403,6.801
			c-0.421,0.743-0.924,1.132-1.746,1.262c-0.911,0.145-1.812,0.388-2.816,0.611c-0.354-0.812-0.749-1.58-1.01-2.392
			c-0.077-0.243,0.161-0.653,0.358-0.905c1.025-1.308,2.113-2.568,3.129-3.881c0.922-1.193,0.973-2.382-0.076-3.589
			c-1.153-1.327-2.232-2.72-3.338-4.077c0.339-0.817,0.678-1.641,1.093-2.643c1.235,0.289,2.524,0.57,3.798,0.904
			c0.212,0.056,0.42,0.316,0.533,0.533c1.513,2.848,3.635,5.156,6.201,7.076C145.904,99.571,145.96,99.655,146.104,99.813z"/>
		<path fill-rule="evenodd" clip-rule="evenodd" fill="#4D4D4D" d="M70.596,76.462c1.41,2.186,1.066,4.53,1.373,6.816
			c-1.025,0.252-1.947,0.48-3.024,0.745C68.87,81.317,69.185,78.856,70.596,76.462z"/>
		<path fill-rule="evenodd" clip-rule="evenodd" fill="#4D4D4D" d="M131.992,83.845c-1.117-0.198-2.063-0.365-2.996-0.529
			c-0.34-1.952,0.228-5.484,1.117-6.751C131.752,78.709,131.695,81.23,131.992,83.845z"/>
		<path fill-rule="evenodd" clip-rule="evenodd" fill="#4D4D4D" d="M70.475,122.888c-1.257-1.586-1.981-4.708-1.684-7.262
			c0.938,0.175,1.871,0.35,2.781,0.521C71.771,118.754,71.192,122.388,70.475,122.888z"/>
		<path fill-rule="evenodd" clip-rule="evenodd" fill="#4D4D4D" d="M129.699,123.173c-0.69-2.438-0.654-4.707-1.028-7.027
			c1.082-0.165,2.086-0.319,3.218-0.492C131.528,118.233,131.609,120.802,129.699,123.173z"/>
		<path fill-rule="evenodd" clip-rule="evenodd" fill="#4D4D4D" d="M120.667,128.865c0-1.365,0-2.424,0-3.663
			c1.696,0.396,3.256,0.763,4.814,1.129c0.033,0.104,0.065,0.207,0.1,0.313C124.021,127.349,122.462,128.053,120.667,128.865z"/>
		<path fill-rule="evenodd" clip-rule="evenodd" fill="#4D4D4D" d="M80.047,74.118c-1.732-0.364-3.281-0.69-5.069-1.066
			c0.605-0.375,1.044-0.694,1.522-0.936c0.771-0.388,1.568-0.728,2.354-1.088c0.799-0.366,1.349-0.104,1.382,0.77
			C80.265,72.55,80.12,73.308,80.047,74.118z"/>
		<path fill-rule="evenodd" clip-rule="evenodd" fill="#4D4D4D" d="M79.883,128.556c-2.018-0.251-3.584-0.953-5.195-2.251
			c1.194-0.213,2.178-0.388,3.161-0.565c0.324-0.06,0.706-0.035,0.958-0.202c0.774-0.521,0.99,0.037,1.054,0.572
			C79.949,126.862,79.883,127.634,79.883,128.556z"/>
		<path fill-rule="evenodd" clip-rule="evenodd" fill="#4D4D4D" d="M120.701,70.65c1.806,0.769,3.391,1.445,4.974,2.12
			c-0.027,0.116-0.059,0.231-0.087,0.347c-1.526,0.342-3.056,0.684-4.73,1.059C120.81,73.086,120.763,72.045,120.701,70.65z"/>
		<path fill-rule="evenodd" clip-rule="evenodd" fill="#4D4D4D" d="M88.363,67.247c-0.44,1.214-1.135,1.831-1.537,1.422
			c-0.301-0.306-0.538-1.095-0.354-1.378C86.951,66.552,87.665,67.008,88.363,67.247z"/>
		<path fill-rule="evenodd" clip-rule="evenodd" fill="#4D4D4D" d="M113.8,66.558c0.31,0.571,0.688,0.949,0.639,1.26
			c-0.054,0.344-0.5,0.625-0.777,0.934c-0.364-0.391-0.729-0.782-1.095-1.172C112.904,67.299,113.242,67.019,113.8,66.558z"/>
		<path fill-rule="evenodd" clip-rule="evenodd" fill="#4D4D4D" d="M88.108,132.325c-0.752-0.203-1.568,0.665-1.963-0.383
			c-0.109-0.289,0.316-1.111,0.549-1.134C87.589,130.721,87.875,131.425,88.108,132.325z"/>
		<path fill-rule="evenodd" clip-rule="evenodd" fill="#4D4D4D" d="M112.178,132.016c0.466-0.416,0.932-0.83,1.398-1.246
			c0.212,0.436,0.423,0.872,0.632,1.306c-0.587,0.146-1.178,0.292-1.768,0.438C112.354,132.347,112.266,132.18,112.178,132.016z"/>
	</g>
	<path fill-rule="evenodd" clip-rule="evenodd" fill="#4D4D4D" d="M188.282,102.729c-2.539,1.082-3.604,2.883-3.333,5.443
		c0.139,1.296,1.832,2.794,3.118,2.814c0.744,0.014,0.995-0.436,1.006-1.079c0.005-0.259-0.2-0.563-0.117-0.771
		c0.196-0.493,0.422-1.049,0.811-1.354c0.188-0.149,0.869,0.099,1.164,0.356c1.271,1.102,1.604,2.553,1.028,4.051
		c-0.544,1.412-1.771,2.19-3.47,2.197c-2.748,0.011-5.427-1.841-5.753-4.181c-0.41-2.955-0.241-5.87,1.178-8.607
		c0.408-0.79,0.858-1.029,1.642-0.529C186.394,101.606,187.256,102.107,188.282,102.729z"/>
	<path fill-rule="evenodd" clip-rule="evenodd" fill="#4D4D4D" d="M12.556,102.622c0.856-0.513,1.767-1.105,2.731-1.594
		c0.213-0.106,0.747,0.067,0.903,0.281c0.367,0.495,0.664,1.073,0.861,1.66c0.294,0.877,0.562,1.779,0.694,2.69
		c0.331,2.306,0.195,4.588-1.225,6.541c-1.205,1.659-2.904,2.52-5.005,2.364c-1.568-0.115-2.566-1.037-3.086-2.46
		c-0.508-1.384-0.364-2.733,0.745-3.773c0.366-0.342,1.19-0.641,1.53-0.456c0.429,0.234,0.618,0.968,0.832,1.517
		c0.191,0.488,0.154,1.351,0.437,1.457c0.457,0.169,1.175-0.01,1.644-0.281c2.105-1.217,2.607-3.842,1.086-5.864
		C14.097,103.899,13.246,103.279,12.556,102.622z"/>
</g>
<g>
	<path fill-rule="evenodd" clip-rule="evenodd" fill="#333333" d="M26.178,153.2c1.461-0.065,2.488,0.569,2.708,1.882
		c0.185,1.102,0.089,2.247,0.115,3.374c0.026,1.16,0.025,2.322,0.085,3.48c0.034,0.646,0.38,0.953,1.099,0.989
		c2.893,0.15,5.782,0.372,8.674,0.563c1.575,0.105,1.575,0.104,2.075,1.831c-1.045,0.261-2.081,0.568-3.135,0.774
		c-3.746,0.73-7.524,0.933-11.336,0.734c-0.774-0.041-1.02-0.369-1.181-1.024c-0.704-2.851-0.405-5.693,0.072-8.528
		C25.586,155.902,25.904,154.543,26.178,153.2z"/>
	<path fill-rule="evenodd" clip-rule="evenodd" fill="#333333" d="M159.699,33.918c1.419-0.268,2.77-0.58,4.14-0.768
		c2.665-0.368,5.344-0.66,8.015-0.996c2.298-0.29,4.18,1.415,4.009,3.719c-0.188,2.484-0.426,4.964-0.697,7.44
		c-0.088,0.785-0.371,1.547-0.538,2.327c-0.155,0.716-0.58,0.773-1.188,0.591c-1.158-0.347-1.813-1.095-1.866-2.419
		c-0.039-0.992,0.087-1.991,0.141-2.987c0.021-0.399,0.055-0.797,0.066-1.197c0.084-2.686-0.248-3.097-2.904-3.291
		c-2.354-0.172-4.715-0.297-7.076-0.379C160.229,35.905,160.112,35.858,159.699,33.918z"/>
	<path fill-rule="evenodd" clip-rule="evenodd" fill="#333333" d="M159.471,165.295c0.608-1.813,0.613-1.748,2.292-1.828
		c2.788-0.135,5.572-0.368,8.358-0.549c0.888-0.058,1.314-0.536,1.323-1.398c0.008-0.83-0.007-1.661-0.022-2.491
		c-0.024-1.13-0.137-2.265-0.071-3.389c0.072-1.258,0.899-2.249,1.994-2.463c0.312-0.061,0.961,0.18,0.997,0.369
		c0.728,3.754,1.667,7.499,0.979,11.372c-0.322,1.821-0.336,1.85-2.184,1.932c-4.282,0.188-8.518-0.161-12.673-1.256
		C160.147,165.511,159.836,165.404,159.471,165.295z"/>
	<path fill-rule="evenodd" clip-rule="evenodd" fill="#333333" d="M26.317,46.296c-0.949-3.446-1.29-6.909-1.149-10.427
		c0.021-0.533,0.071-1.064,0.11-1.597c0.097-1.317,0.767-2.021,2.084-1.905c3.749,0.328,7.491,0.718,11.231,1.133
		c0.815,0.091,1.607,0.39,2.396,0.59c-0.195,1.667-0.422,1.824-1.942,1.894c-2.86,0.131-5.715,0.345-8.575,0.488
		c-0.739,0.036-1.126,0.404-1.211,1.067c-0.112,0.887-0.178,1.784-0.187,2.678c-0.013,1.264,0.139,2.536,0.048,3.791
		C29.008,45.584,28.073,46.302,26.317,46.296z"/>
	<path fill-rule="evenodd" clip-rule="evenodd" fill="#333333" d="M43.849,181.232c-1.563-0.807-2.778-1.869-3.554-3.318
		c-1.613-3.006-2.055-6.205-1.464-9.568c0.158-0.896,0.771-1.122,1.458-1.23c0.722-0.111,1.413-0.103,1.814,0.789
		c0.658,1.46,0.661,2.965,0.538,4.499c-0.071,0.896-0.165,1.787-0.238,2.682c-0.124,1.527,0.152,2.958,0.898,4.319
		C43.6,179.95,43.673,180.62,43.849,181.232z"/>
	<path fill-rule="evenodd" clip-rule="evenodd" fill="#333333" d="M44.157,18.466c-0.128,0.329-0.194,0.704-0.396,0.979
		c-1.266,1.73-1.333,3.682-1.186,5.711c0.115,1.584,0.146,3.178,0.138,4.768c-0.002,0.478-0.258,0.953-0.401,1.427
		c-0.322,1.082-1.152,1.171-2.063,1.005c-0.864-0.158-1.276-0.741-1.359-1.601c-0.305-3.145-0.019-6.216,1.566-8.993
		c0.672-1.18,1.725-2.15,2.645-3.179c0.183-0.205,0.551-0.243,0.834-0.358C44.009,18.306,44.083,18.386,44.157,18.466z"/>
	<path fill-rule="evenodd" clip-rule="evenodd" fill="#333333" d="M156.624,18.4c2.117,0.784,3.413,2.286,4.202,4.184
		c1.024,2.46,1.354,5.065,1.188,7.722c-0.094,1.505-0.72,2.09-2.22,1.999c-0.396-0.024-1.034-0.372-1.109-0.683
		c-0.319-1.301-0.586-2.639-0.642-3.973c-0.052-1.318,0.193-2.649,0.265-3.976c0.072-1.338-0.361-2.54-1.046-3.682
		C156.975,19.506,156.834,18.934,156.624,18.4z"/>
	<path fill-rule="evenodd" clip-rule="evenodd" fill="#333333" d="M156.607,181.173c0.845-2.189,1.545-4.331,1.487-6.63
		c-0.03-1.191-0.107-2.414-0.412-3.556c-0.403-1.521,0.58-2.536,1.123-3.685c0.307-0.648,2.55,0.023,2.66,0.805
		c0.637,4.521,0.282,8.787-3.358,12.135c-0.146,0.135-0.293,0.277-0.461,0.378C157.308,180.818,156.953,180.989,156.607,181.173z"/>
	<path fill-rule="evenodd" clip-rule="evenodd" fill="#333333" d="M185.536,150.277c-1.741,1.925-3.459,3.541-5.834,4.178
		c-0.774,0.209-1.649,0.191-2.46,0.104c-1.145-0.122-1.856-1.093-1.725-2.221c0.031-0.246,0.254-0.592,0.471-0.678
		c0.92-0.358,1.851-0.773,2.815-0.914c2-0.295,4.024-0.432,6.042-0.62C184.992,150.112,185.149,150.189,185.536,150.277z"/>
	<path fill-rule="evenodd" clip-rule="evenodd" fill="#333333" d="M185.666,49.296c-2.774-0.256-5.251-0.474-7.725-0.728
		c-0.352-0.035-0.724-0.187-1.019-0.384c-0.55-0.368-1.333-0.604-1.13-1.539c0.283-1.299,0.836-1.872,1.963-1.873
		C181.127,44.766,183.445,46.645,185.666,49.296z"/>
	<path fill-rule="evenodd" clip-rule="evenodd" fill="#333333" d="M14.861,150.326c2.328,0.153,4.412,0.196,6.469,0.461
		c1.052,0.135,2.07,0.623,3.071,1.026c0.489,0.198,0.578,0.597,0.342,1.15c-0.703,1.643-1.333,2.017-3.237,1.72
		c-2.062-0.324-3.685-1.46-5.164-2.845C15.852,151.378,15.397,150.875,14.861,150.326z"/>
	<path fill-rule="evenodd" clip-rule="evenodd" fill="#333333" d="M15.644,48.901c1.335-2.25,3.553-3.5,6.146-4.081
		c0.703-0.157,1.629,0.038,2.273,0.396c1.454,0.809,1.393,2.245-0.111,2.893c-0.958,0.412-2.031,0.686-3.071,0.758
		C19.129,48.989,17.361,48.901,15.644,48.901z"/>
	<path fill-rule="evenodd" clip-rule="evenodd" fill="#333333" d="M182.595,97.952c1.846,1.583,1.676,1.856-0.118,3.319
		c-0.018-0.195-0.053-0.346-0.045-0.497C182.477,99.892,182.531,99.01,182.595,97.952z"/>
	<path fill-rule="evenodd" clip-rule="evenodd" fill="#333333" d="M18.194,98.024c-0.057,1.228-0.108,2.313-0.165,3.522
		C16.328,100.093,16.566,99.41,18.194,98.024z"/>
	<path fill-rule="evenodd" clip-rule="evenodd" fill="#333333" d="M100.156,142.533c0.838,2.178,1.568,4.235,2.414,6.246
		c1.778,4.233,3.9,8.26,7.334,11.436c2.451,2.266,5.307,3.65,8.66,3.944c0.323,0.028,0.659,0.116,0.952,0.259
		c1.357,0.657,1.478,1.09,0.713,2.37c-2.231,3.732-6.244,5.123-10.596,3.5c-4.228-1.574-7.062-4.527-8.282-8.947
		c-0.174-0.625-0.55-1.193-0.831-1.788c-0.11,0.017-0.22,0.036-0.33,0.052c-0.395,0.642-0.78,1.288-1.186,1.921
		c-1.169,1.819-2.292,3.676-3.545,5.436c-0.61,0.855-1.417,1.601-2.229,2.277c-3.084,2.577-6.433,2.859-9.748,0.604
		c-1.369-0.933-2.426-2.329-3.614-3.525c-0.42-0.422-0.338-0.89,0.107-1.188c0.562-0.381,1.173-0.874,1.802-0.938
		c3.766-0.391,6.845-2.091,9.447-4.744c3.406-3.474,5.516-7.731,7.249-12.203C99.058,145.732,99.567,144.191,100.156,142.533z"/>
	<path fill-rule="evenodd" clip-rule="evenodd" fill="#333333" d="M100.431,39.876c0.258-0.231,0.48-0.35,0.582-0.534
		c0.623-1.121,1.293-2.227,1.812-3.395c1.821-4.084,4.854-6.619,9.293-7.337c3.62-0.586,7.241,1.378,8.785,4.726
		c0.116,0.253,0.002,0.84-0.197,0.966c-0.648,0.414-1.361,0.88-2.096,0.976c-3.855,0.5-6.991,2.292-9.591,5.103
		c-3.225,3.491-5.234,7.688-6.903,12.072c-0.563,1.48-1.074,2.98-1.694,4.707c-1.495-6.455-4.93-11.658-8.406-16.832
		c-1.297-1.929-3.255-3.029-5.377-3.816c-1.748-0.648-3.535-1.188-5.301-1.792c-0.559-0.19-1.1-0.43-1.648-0.647
		c2.429-6.056,9.774-7.748,14.21-3.191c1.837,1.887,3.197,4.241,4.758,6.396C99.256,38.105,99.81,38.965,100.431,39.876z"/>
	<path fill-rule="evenodd" clip-rule="evenodd" fill="#333333" d="M170.406,99.594c-1.517,0.684-2.921,1.256-4.27,1.937
		c-5.762,2.899-10.168,7.232-13.294,12.852c-0.418,0.749-0.778,0.854-1.543,0.649c-2.916-0.779-5.871-1.187-9.185-0.456
		c0.183-1.311,0.222-2.501,0.533-3.613c0.73-2.605,2.397-4.631,4.562-6.146c1.979-1.384,4.152-2.492,6.243-3.722
		c0.803-0.473,1.831-0.691,2.045-1.675c-2.582-1.499-5.135-2.86-7.557-4.423c-2.185-1.408-3.988-3.272-4.891-5.776
		c-0.449-1.254-0.598-2.614-0.904-4.031c0.803,0,1.324-0.036,1.837,0.005c2.613,0.208,5.189,0.183,7.654-0.907
		c0.678-0.301,1.199-0.084,1.541,0.626c2.771,5.767,7.129,9.981,12.783,12.878c1.147,0.588,2.398,0.973,3.6,1.452
		C169.801,99.342,170.038,99.441,170.406,99.594z"/>
	<path fill-rule="evenodd" clip-rule="evenodd" fill="#333333" d="M30.239,99.743c4.056-1.396,7.548-3.336,10.616-6.018
		c3.049-2.663,5.488-5.795,7.347-9.521c3.309,1.064,6.712,1.2,10.231,0.978c0.105,2.058-0.405,3.844-1.403,5.497
		c-1.6,2.65-3.986,4.455-6.62,5.948c-1.502,0.852-3.09,1.552-4.623,2.353c-0.318,0.166-0.561,0.477-0.839,0.72
		c0.3,0.304,0.545,0.722,0.907,0.895c3.294,1.558,6.5,3.246,9.096,5.873c1.914,1.938,3.137,4.211,3.181,7.007
		c0.005,0.324-0.029,0.65-0.05,1.046c-3.232-0.645-6.31-0.12-9.37,0.595c-0.616,0.143-0.921,0.017-1.228-0.58
		c-3.316-6.438-8.303-11.081-15.014-13.849C31.797,100.407,31.128,100.119,30.239,99.743z"/>
	<path fill-rule="evenodd" clip-rule="evenodd" fill="#333333" d="M73.379,69.385c5.576-3.493,8.034-9.104,10.363-14.931
		c4.079,1.969,8.078,3.9,12.117,5.851c-1.644,1.54-3.287,3.243-5.12,4.708c-0.736,0.588-1.875,0.739-2.861,0.925
		c-0.842,0.159-1.114-0.414-0.954-1.186c0.137-0.65,0.35-1.289,0.445-1.944c0.109-0.753-0.271-1.175-0.973-0.749
		c-1.038,0.634-1.994,1.405-2.967,2.141c-0.79,0.597-1.501,1.315-2.337,1.829c-3.008,1.848-6.127,3.522-9.058,5.481
		c-1.748,1.167-3.226,2.741-4.599,3.937c-0.202-2.625-0.221-5.554-0.695-8.407c-0.677-4.068-1.696-8.08-2.558-12.119
		c-0.894-4.189-1.546-8.406-0.886-12.695c0.217-1.408,0.664-2.779,0.996-4.17c0.46-1.926,1.819-2.902,3.65-3.017
		c1.533-0.096,3.106,0.104,4.634,0.349c0.853,0.137,1.167,0.733,0.792,1.717c-0.491,1.281-1.039,2.465-1.889,3.579
		c-3.041,3.985-3.752,8.612-3.312,13.461c0.48,5.295,2.265,10.185,4.881,14.789C73.127,69.072,73.237,69.193,73.379,69.385z"/>
	<path fill-rule="evenodd" clip-rule="evenodd" fill="#333333" d="M116.765,145.032c-4.074-1.988-8.071-3.939-12.174-5.945
		c0.401-0.341,0.896-0.744,1.367-1.172c1.511-1.359,3.047-2.694,4.505-4.109c0.673-0.654,1.377-0.58,2.116-0.369
		c0.792,0.224,0.858,0.926,0.889,1.615c0.035,0.818,0.085,1.635,0.135,2.573c0.293-0.145,0.413-0.188,0.516-0.258
		c2.335-1.593,4.601-3.303,7.017-4.759c4.3-2.594,8.8-4.887,12.124-9.09c0,1.729-0.072,3.242,0.011,4.748
		c0.279,4.986,1.664,9.771,2.771,14.604c0.932,4.068,1.803,8.161,1.484,12.36c-0.157,2.075-0.563,4.155-1.084,6.176
		c-0.461,1.801-1.854,2.829-3.683,3.073c-1.652,0.222-3.323,0.317-4.901-0.47c-0.583-0.293-0.812-0.597-0.606-1.321
		c0.395-1.392,0.942-2.625,1.862-3.794c3.184-4.041,3.822-8.772,3.319-13.725c-0.507-5.002-2.182-9.663-4.375-14.15
		c-0.501-1.02-0.747-1.064-1.653-0.433c-3.615,2.528-5.942,6.054-7.705,10.006C118.049,142.049,117.424,143.515,116.765,145.032z"/>
	<path fill-rule="evenodd" clip-rule="evenodd" fill="#333333" d="M95.586,139.181c-3.883,1.899-7.897,3.861-12,5.868
		c-0.228-0.55-0.456-1.091-0.675-1.637c-1.627-4.039-3.505-7.931-6.691-11.017c-0.69-0.669-1.46-1.266-2.235-1.837
		c-0.873-0.644-1.167-0.564-1.631,0.458c-0.687,1.516-1.36,3.041-1.966,4.589c-1.691,4.322-2.721,8.777-2.507,13.457
		c0.192,4.195,1.534,7.917,4.289,11.162c0.653,0.771,0.767,2.009,1.069,3.049c0.04,0.139-0.246,0.438-0.443,0.568
		c-2.589,1.726-7.39,0.783-8.666-1.995c-0.796-1.73-1.031-3.783-1.208-5.721c-0.438-4.812,0.637-9.47,1.666-14.133
		c0.881-3.996,1.688-8.014,2.349-12.052c0.288-1.756,0.125-3.587,0.165-5.386c0.005-0.217,0.001-0.435,0.001-0.902
		c3.746,4.438,8.694,6.769,13.317,9.579c1.953,1.188,3.751,2.63,5.63,3.938c0.221,0.154,0.581,0.346,0.756,0.265
		c0.208-0.099,0.423-0.493,0.391-0.726c-0.086-0.612-0.259-1.221-0.48-1.801c-0.264-0.682-0.124-1.031,0.615-1.233
		c1.085-0.293,2.065-0.085,2.952,0.516c0.631,0.425,1.208,0.941,1.757,1.471C93.278,136.855,94.483,138.082,95.586,139.181z"/>
	<path fill-rule="evenodd" clip-rule="evenodd" fill="#333333" d="M133.521,75.951c-2.137-2.899-4.893-4.752-7.792-6.434
		c-2.305-1.337-4.639-2.632-6.886-4.059c-1.114-0.708-2.072-1.668-3.095-2.519c-0.153-0.127-0.263-0.342-0.435-0.406
		c-0.557-0.208-1.133-0.365-1.701-0.542c-0.028,0.567-0.064,1.133-0.077,1.7c-0.002,0.125,0.084,0.25,0.124,0.377
		c0.533,1.633,0.186,2.118-1.523,1.794c-0.882-0.166-1.869-0.54-2.49-1.146c-1.581-1.548-2.987-3.281-4.356-4.819
		c3.998-0.812,7.504-3.841,11.812-5.224c2.317,5.766,4.698,11.426,10.494,14.748c1.568-2.641,2.748-5.346,3.61-8.186
		c1.603-5.261,2.187-10.563,0.553-15.94c-0.709-2.328-1.928-4.366-3.393-6.299c-0.536-0.707-0.776-1.655-1.055-2.522
		c-0.067-0.204,0.188-0.692,0.405-0.778c2.198-0.873,4.448-1.241,6.688-0.198c0.521,0.243,1.042,0.742,1.302,1.254
		c2.213,4.371,2.528,9.039,1.692,13.753c-0.809,4.555-1.925,9.056-2.904,13.58c-0.814,3.764-1.291,7.556-0.906,11.415
		C133.598,75.585,133.563,75.678,133.521,75.951z"/>
	<path fill-rule="evenodd" clip-rule="evenodd" fill="#333333" d="M58.668,163.444c-3.381-2.462-6.932-4.446-9.967-7.432
		c1.939-0.776,2.356-2.49,2.922-4.073c2.363-6.608,2.715-13.401,1.769-20.3c-0.145-1.055-0.309-2.11-0.539-3.151
		c-0.121-0.549-0.004-0.83,0.501-1.101c2.586-1.382,4.89-3.1,6.531-5.602c0.137-0.209,0.729-0.382,0.895-0.267
		c0.573,0.401,1.188,0.855,1.539,1.439c1.01,1.687,0.831,3.577,0.7,5.446c-0.387,5.477-1.805,10.76-3.013,16.084
		c-1.166,5.146-2.126,10.313-1.699,15.632C58.392,161.173,58.534,162.22,58.668,163.444z"/>
	<path fill-rule="evenodd" clip-rule="evenodd" fill="#333333" d="M141.89,36.172c3.613,2.202,6.957,4.456,9.966,7.297
		c-0.191,0.176-0.293,0.343-0.43,0.381c-1.359,0.385-1.673,1.58-2.1,2.684c-2.526,6.521-3.027,13.274-2.287,20.161
		c0.16,1.489,0.463,2.962,0.643,4.449c0.034,0.279-0.128,0.753-0.344,0.865c-2.587,1.354-4.645,3.333-6.594,5.451
		c-0.704,0.768-1.18,0.823-1.81-0.062c-0.89-1.243-1.73-2.596-1.517-4.215c0.49-3.726,0.954-7.461,1.639-11.156
		c0.945-5.103,2.184-10.153,3.103-15.26c0.57-3.162,0.39-6.379-0.151-9.558C141.959,36.929,141.941,36.643,141.89,36.172z"/>
	<path fill-rule="evenodd" clip-rule="evenodd" fill="#333333" d="M48.92,43.509c2.924-3.145,6.688-4.893,9.896-7.586
		c0.116,0.328,0.234,0.486,0.207,0.609c-1.48,6.542-0.31,12.904,1.25,19.252c1.229,5.007,2.625,9.985,2.947,15.168
		c0.114,1.854,0.356,3.734-0.684,5.448c-0.189,0.312-0.345,0.652-0.577,0.929c-0.757,0.907-1.091,0.837-1.971,0.069
		c-2.101-1.833-4.241-3.622-6.422-5.357c-0.466-0.372-0.472-0.68-0.427-1.168c0.333-3.573,0.809-7.144,0.907-10.726
		c0.11-4.048-0.612-8.031-1.962-11.861C51.443,46.475,51.129,44.412,48.92,43.509z"/>
	<path fill-rule="evenodd" clip-rule="evenodd" fill="#333333" d="M151.557,155.957c-1.248,1.579-7.93,6.425-9.824,7.15
		c0.135-1.01,0.292-1.991,0.393-2.98c0.563-5.358-0.533-10.535-1.664-15.725c-1.091-5.006-2.125-10.026-3-15.071
		c-0.342-1.964-0.576-4.048,0.462-5.967c0.111-0.204,0.199-0.422,0.315-0.625c0.82-1.442,1.232-1.529,2.466-0.424
		c1.143,1.024,2.224,2.114,3.377,3.122c0.7,0.611,1.419,1.28,2.251,1.637c1.113,0.474,1.276,1.054,1.055,2.195
		c-1.066,5.476-1.263,10.993-0.236,16.494c0.4,2.15,1.03,4.268,1.679,6.361C149.31,153.67,149.798,155.285,151.557,155.957z"/>
	<path fill-rule="evenodd" clip-rule="evenodd" fill="#333333" d="M110.236,99.992c-0.171,3.614-1.265,6.84-3.991,9.301
		c-4.029,3.637-8.243,3.612-12.183-0.193c-4.013-3.877-4.523-8.8-2.839-13.955c1.185-3.633,3.603-6.19,7.303-7.349
		c0.82-0.256,1.789-0.309,2.638-0.158c4.782,0.851,8.229,4.68,8.892,9.779C110.165,98.27,110.18,99.133,110.236,99.992z
		 M105.637,99.69c0.189-3.065-1.431-5.898-3.959-7.069c-1.078-0.5-2.011-0.442-2.985,0.228c-2.855,1.961-3.835,4.752-3.568,8.063
		c0.218,2.699,1.424,4.807,3.905,6.095c0.845,0.438,1.611,0.438,2.443-0.04C104.294,105.347,105.457,102.805,105.637,99.69z"/>
	<path fill-rule="evenodd" clip-rule="evenodd" fill="#333333" d="M174.189,96.386c-4.655-1.578-8.525-3.84-11.845-7.022
		c-2.212-2.121-3.973-4.563-5.206-7.384c-0.246-0.562-0.207-0.959,0.23-1.415c0.943-0.985,1.862-2,2.731-3.054
		c0.423-0.513,0.781-0.518,1.356-0.272c4.148,1.772,7.238,4.741,9.458,8.578c1.176,2.036,2.176,4.206,2.961,6.419
		C174.297,93.429,174.096,94.842,174.189,96.386z"/>
	<path fill-rule="evenodd" clip-rule="evenodd" fill="#333333" d="M26.596,96.152c0.246-1.658,0.309-3.367,0.768-4.963
		c1.836-6.377,6.108-10.792,11.734-14.013c0.344-0.197,1.156-0.002,1.493,0.299c0.81,0.723,1.369,1.741,2.21,2.413
		c1.348,1.078,0.969,2.099,0.312,3.336c-2.853,5.369-7.275,9.012-12.64,11.629c-1.13,0.55-2.321,0.979-3.484,1.464
		C26.857,96.263,26.726,96.207,26.596,96.152z"/>
	<path fill-rule="evenodd" clip-rule="evenodd" fill="#333333" d="M26.687,103.019c3.964,1.528,7.363,3.502,10.394,6.105
		c2.66,2.285,4.814,4.959,6.356,8.128c0.329,0.676,0.258,1.128-0.241,1.673c-0.854,0.933-1.675,1.903-2.423,2.921
		c-0.449,0.61-0.87,0.616-1.515,0.378c-3.651-1.339-6.47-3.767-8.497-6.98c-1.57-2.488-2.904-5.165-3.993-7.897
		C26.291,106.153,26.687,104.61,26.687,103.019z"/>
	<path fill-rule="evenodd" clip-rule="evenodd" fill="#333333" d="M173.481,102.765c0.244,0.72,0.459,1.058,0.45,1.388
		c-0.049,1.48,0.002,2.963-0.607,4.397c-1.998,4.703-4.581,8.964-8.899,11.902c-1.091,0.742-2.331,1.278-3.537,1.825
		c-0.246,0.11-0.777-0.041-0.978-0.257c-1.02-1.097-2.008-2.226-2.923-3.412c-0.207-0.269-0.22-0.874-0.066-1.21
		c1.974-4.338,5.151-7.668,9.066-10.271C168.328,105.572,170.846,104.284,173.481,102.765z"/>
	<path fill-rule="evenodd" clip-rule="evenodd" fill="#333333" d="M152.425,148.881c-0.226-1.954-0.502-3.725-0.622-5.505
		c-0.306-4.603-0.131-9.185,0.649-13.742c0.107-0.638,0.351-0.971,0.977-0.99c1.329-0.045,2.658-0.116,3.985-0.069
		c0.258,0.01,0.587,0.471,0.738,0.791c1.367,2.945,1.577,6.062,0.997,9.188c-0.718,3.886-2.602,7.158-5.734,9.644
		C153.162,148.398,152.886,148.565,152.425,148.881z"/>
	<path fill-rule="evenodd" clip-rule="evenodd" fill="#333333" d="M49.002,60.838c-0.252,2.458-0.594,5.732-0.917,9.009
		c-0.071,0.714-0.383,1.029-1.132,1.03c-1.031,0.001-2.067,0.067-3.091,0.182c-0.645,0.072-0.963-0.187-1.234-0.729
		c-1.865-3.733-1.905-7.58-0.597-11.449c0.995-2.945,2.635-5.521,5.016-7.573c0.284-0.246,0.664-0.379,1-0.564
		c0.121,0.357,0.322,0.709,0.349,1.073C48.597,54.541,48.767,57.267,49.002,60.838z"/>
	<path fill-rule="evenodd" clip-rule="evenodd" fill="#333333" d="M152.689,50.76c2.474,1.62,4.185,3.748,5.356,6.307
		c1.979,4.321,2.272,8.687,0.243,13.1c-0.326,0.703-0.726,0.996-1.532,0.876c-0.951-0.142-1.926-0.162-2.889-0.169
		c-0.673-0.004-0.989-0.229-1.106-0.936c-0.753-4.552-1.028-9.127-0.737-13.73c0.102-1.593,0.312-3.178,0.479-4.766
		C152.527,51.236,152.612,51.037,152.689,50.76z"/>
	<path fill-rule="evenodd" clip-rule="evenodd" fill="#333333" d="M48.139,148.895c-2.088-1.273-3.542-2.789-4.646-4.636
		c-2.807-4.694-3.212-9.62-1.341-14.751c0.258-0.706,0.614-1.074,1.451-0.983c1.056,0.117,2.127,0.11,3.192,0.101
		c0.605-0.004,0.857,0.193,0.972,0.821c0.686,3.749,0.939,7.53,0.823,11.331C48.51,143.402,48.304,146.021,48.139,148.895z"/>
	<path fill-rule="evenodd" clip-rule="evenodd" fill="#333333" d="M36.385,141.587c-5.392-7.591-8.984-15.947-10.813-25.091
		c3.311,3.664,5.857,8.153,10.976,9.891C35.512,131.462,35.166,136.505,36.385,141.587z"/>
	<path fill-rule="evenodd" clip-rule="evenodd" fill="#333333" d="M163.931,141.255c1.311-5.096,0.854-10.005-0.019-14.958
		c2.46-0.864,4.529-2.255,6.189-4.17c1.624-1.881,3.124-3.871,4.682-5.818C175.881,118.824,167.573,138.112,163.931,141.255z"/>
	<path fill-rule="evenodd" clip-rule="evenodd" fill="#333333" d="M174.809,82.947c-0.896-1.145-1.79-2.293-2.687-3.437
		c-2.062-2.624-4.365-4.942-7.551-6.215c-0.22-0.087-0.36-0.677-0.336-1.02c0.205-3.02,0.583-6.031,0.649-9.052
		c0.036-1.698-0.419-3.406-0.688-5.373C169.633,65.558,173.275,73.782,174.809,82.947z"/>
	<path fill-rule="evenodd" clip-rule="evenodd" fill="#333333" d="M25.712,83.419c1.095-7.827,7.011-21.406,10.971-25.185
		c-1.331,4.852-1.039,9.558-0.061,14.268c0.044,0.218-0.175,0.65-0.377,0.736c-3.571,1.514-6.072,4.249-8.352,7.241
		C27.212,81.374,26.551,82.286,25.712,83.419z"/>
	<path fill-rule="evenodd" clip-rule="evenodd" fill="#333333" d="M117.249,40.387c-0.205,0.888-0.419,1.518-0.486,2.163
		c-0.203,1.949-0.395,3.902-0.492,5.859c-0.037,0.708-0.242,1.161-0.832,1.548c-2.585,1.695-5.116,3.473-7.732,5.12
		c-0.964,0.609-2.104,0.944-3.457,1.532c0.297-0.799,0.474-1.31,0.675-1.81c1.547-3.88,3.259-7.695,6.238-10.705
		c1.288-1.301,2.915-2.277,4.441-3.325C115.985,40.506,116.567,40.535,117.249,40.387z"/>
	<path fill-rule="evenodd" clip-rule="evenodd" fill="#333333" d="M83.502,158.927c0.213-1.406,0.452-2.739,0.608-4.081
		c0.16-1.386,0.216-2.787,0.372-4.176c0.035-0.32,0.213-0.715,0.458-0.903c3.168-2.442,6.435-4.734,10.083-6.425
		c0.319-0.147,0.652-0.267,1.114-0.452c-0.035,0.374-0.003,0.61-0.082,0.802c-1.381,3.427-2.749,6.865-4.931,9.891
		c-1.797,2.488-3.993,4.46-7.065,5.238C83.906,158.859,83.749,158.882,83.502,158.927z"/>
	<path fill-rule="evenodd" clip-rule="evenodd" fill="#333333" d="M96.093,56.549c-1.558-0.794-3.186-1.475-4.655-2.406
		c-2.165-1.372-4.224-2.913-6.304-4.414c-0.258-0.186-0.507-0.558-0.535-0.865c-0.255-2.742-0.459-5.487-0.683-8.3
		c1.329,0.232,2.645,0.875,3.854,1.751c2.237,1.618,3.897,3.75,5.132,6.176c1.278,2.514,2.38,5.118,3.56,7.684
		C96.338,56.299,96.216,56.424,96.093,56.549z"/>
	<path fill-rule="evenodd" clip-rule="evenodd" fill="#333333" d="M104.345,143.007c0.824,0.353,1.635,0.576,2.31,1.008
		c2.972,1.898,5.908,3.853,8.847,5.801c0.178,0.118,0.375,0.34,0.395,0.532c0.308,2.842,0.587,5.687,0.89,8.703
		c-0.539-0.169-0.944-0.265-1.324-0.42c-2.926-1.188-5.023-3.331-6.73-5.904c-1.912-2.879-3.216-6.05-4.382-9.284
		C104.32,143.361,104.345,143.262,104.345,143.007z"/>
	<path fill-rule="evenodd" clip-rule="evenodd" fill="#333333" d="M126.033,63.214c-0.82-1.273-1.608-2.334-2.229-3.485
		c-1.343-2.488-2.071-5.186-2.426-7.98c-0.039-0.297,0.088-0.77,0.306-0.922c2.067-1.448,3.588-3.354,4.784-5.546
		c0.047-0.085,0.116-0.155,0.259-0.34c0.279,0.309,0.627,0.527,0.719,0.824c1.696,5.481,2,10.917-0.662,16.223
		C126.611,62.333,126.382,62.651,126.033,63.214z"/>
	<path fill-rule="evenodd" clip-rule="evenodd" fill="#333333" d="M74.671,63.056c-3.133-3.794-3.506-14.059-0.679-17.935
		c0.703,0.939,1.336,1.918,2.103,2.776c0.926,1.037,1.977,1.961,2.949,2.959c0.202,0.208,0.445,0.547,0.408,0.786
		c-0.527,3.371-1.317,6.666-3.289,9.537C75.716,61.831,75.18,62.421,74.671,63.056z"/>
	<path fill-rule="evenodd" clip-rule="evenodd" fill="#333333" d="M73.82,154.344c-2.869-4.199-2.573-13.382,0.618-17.967
		c0.498,0.646,1.009,1.237,1.437,1.882c1.838,2.776,2.844,5.854,3.248,9.145c0.08,0.651-0.093,1.052-0.607,1.526
		c-1.167,1.081-2.212,2.296-3.266,3.492C74.729,153.015,74.303,153.687,73.82,154.344z"/>
	<path fill-rule="evenodd" clip-rule="evenodd" fill="#333333" d="M126.597,154.367c-0.879-1.153-1.649-2.278-2.537-3.303
		c-0.739-0.847-1.628-1.559-2.42-2.362c-0.204-0.207-0.433-0.544-0.407-0.8c0.389-4.24,1.835-8.066,4.485-11.436
		C128.692,139.586,129.805,148.796,126.597,154.367z"/>
	<path fill-rule="evenodd" clip-rule="evenodd" fill="#333333" d="M99.998,167.851c2.762,2.852,4.61,6.604,9.21,7.155
		c-1.931,1-12.885,1.357-17.59,0.169C95.515,173.856,98.054,171.255,99.998,167.851z"/>
	<path fill-rule="evenodd" clip-rule="evenodd" fill="#333333" d="M100.439,31.764c-2.31-3.3-4.667-6.311-8.701-7.37
		c1.475-0.967,14.372-1.046,17.223-0.086C105.032,25.602,102.603,28.458,100.439,31.764z"/>
	<path fill-rule="evenodd" clip-rule="evenodd" fill="#333333" d="M65.871,79.274c-0.138,0.969-0.275,1.938-0.417,2.906
		c-0.072,0.492-0.283,1.003-0.21,1.471c0.355,2.295-1.616,2.971-2.921,4.189c-0.082-1.708-0.182-3.417-0.227-5.126
		c-0.006-0.243,0.205-0.547,0.402-0.73c1.02-0.949,2.068-1.867,3.107-2.794C65.694,79.218,65.782,79.247,65.871,79.274z"/>
	<path fill-rule="evenodd" clip-rule="evenodd" fill="#333333" d="M134.692,120.313c0.25-1.46,0.638-2.728,0.647-3.999
		c0.015-1.673,0.426-3.017,1.875-3.963c0.312-0.204,0.521-0.562,0.893-0.977c0.117,0.36,0.22,0.553,0.236,0.753
		c0.084,1.062,0.037,2.149,0.238,3.187c0.268,1.38-0.246,2.245-1.359,2.976C136.372,118.848,135.621,119.561,134.692,120.313z"/>
	<path fill-rule="evenodd" clip-rule="evenodd" fill="#333333" d="M134.987,79.266c1.107,0.905,2.303,1.852,3.45,2.852
		c0.201,0.176,0.299,0.576,0.291,0.87c-0.047,1.558-0.14,3.115-0.233,4.953c-1.028-0.865-1.92-1.607-2.797-2.366
		c-0.079-0.069-0.09-0.239-0.102-0.365C135.393,83.239,135.194,81.271,134.987,79.266z"/>
	<path fill-rule="evenodd" clip-rule="evenodd" fill="#333333" d="M65.714,120.358c-1.324-1.085-2.516-2.036-3.667-3.028
		c-0.174-0.151-0.254-0.52-0.231-0.771c0.146-1.586,0.334-3.167,0.522-4.883c1.211,1.102,2.742,1.779,2.645,3.916
		C64.915,117.081,65.421,118.598,65.714,120.358z"/>
	<path fill-rule="evenodd" clip-rule="evenodd" fill="#333333" d="M70.337,30.016c3.119-1.242,6.02-2.508,8.977-3.621
		c0.077,0.132,0.154,0.265,0.231,0.397c-1.296,1.53-2.587,3.063-3.896,4.583c-0.082,0.096-0.312,0.147-0.44,0.109
		C73.658,31.029,72.115,30.555,70.337,30.016z"/>
	<path fill-rule="evenodd" clip-rule="evenodd" fill="#333333" d="M130.372,169.629c-3.024,1.128-6.05,2.258-9.075,3.387
		c-0.043-0.068-0.085-0.136-0.128-0.205c0.065-0.128,0.096-0.308,0.202-0.383c1.349-0.964,2.249-2.293,3.061-3.702
		c0.339-0.59,0.804-0.749,1.5-0.541c1.451,0.433,2.929,0.771,4.394,1.147C130.342,169.43,130.356,169.53,130.372,169.629z"/>
	<path fill-rule="evenodd" clip-rule="evenodd" fill="#333333" d="M56.737,119.197c-1.048,1.755-2.632,2.78-4.363,3.589
		c-0.233,0.107-0.863-0.173-1.017-0.441c-0.375-0.653-0.611-1.398-0.828-2.127c-0.055-0.188,0.112-0.513,0.274-0.679
		C51.838,118.502,55.406,118.266,56.737,119.197z"/>
	<path fill-rule="evenodd" clip-rule="evenodd" fill="#333333" d="M143.555,80.333c0.734-0.734,1.261-1.371,1.898-1.867
		c0.785-0.61,1.693-1.06,2.486-1.659c0.617-0.464,1.053-0.218,1.297,0.292c0.34,0.71,0.582,1.484,0.734,2.257
		c0.045,0.225-0.299,0.636-0.563,0.795C147.618,81.224,145.757,81.177,143.555,80.333z"/>
	<path fill-rule="evenodd" clip-rule="evenodd" fill="#333333" d="M143.544,119.048c0.657-0.186,1.188-0.499,1.682-0.444
		c1.331,0.15,2.663,0.387,3.958,0.729c0.708,0.188,0.909,0.792,0.539,1.511c-0.349,0.674-0.656,1.367-1.02,2.134
		C146.533,122.313,144.969,120.981,143.544,119.048z"/>
	<path fill-rule="evenodd" clip-rule="evenodd" fill="#333333" d="M79.208,173.068c-3.142-1.174-6.174-2.307-9.206-3.439
		c0.014-0.115,0.029-0.233,0.044-0.35c0.429-0.061,0.87-0.086,1.287-0.195c1.047-0.274,2.081-0.601,3.127-0.881
		c0.26-0.072,0.562-0.103,0.819-0.041c0.206,0.049,0.412,0.231,0.548,0.408C76.921,170.006,77.998,171.453,79.208,173.068z"/>
	<path fill-rule="evenodd" clip-rule="evenodd" fill="#333333" d="M57.045,80.162c-1.546,1.088-4.464,1.033-5.902-0.099
		c-0.171-0.136-0.286-0.517-0.231-0.733c0.238-0.929,0.549-1.84,0.862-2.847C53.928,77.227,55.605,78.499,57.045,80.162z"/>
	<path fill-rule="evenodd" clip-rule="evenodd" fill="#333333" d="M130.441,30c-1.708,0.523-3.281,1.017-4.864,1.474
		c-0.162,0.046-0.441-0.083-0.578-0.219c-0.256-0.256-0.484-0.555-0.661-0.872c-0.631-1.125-1.253-2.24-2.427-2.931
		c-0.229-0.135-0.324-0.502-0.31-0.939C124.513,27.661,127.423,28.81,130.441,30z"/>
	<path fill-rule="evenodd" clip-rule="evenodd" fill="#333333" d="M79.823,155.671c-0.192,0.73-0.327,1.483-0.604,2.181
		c-0.115,0.289-0.688,0.705-0.787,0.641c-0.409-0.258-0.878-0.623-1.025-1.052c-0.222-0.655,1.019-2.642,1.702-2.875
		c0.142-0.047,0.474,0.135,0.546,0.291c0.104,0.222,0.051,0.519,0.065,0.783C79.754,155.65,79.788,155.66,79.823,155.671z"/>
	<path fill-rule="evenodd" clip-rule="evenodd" fill="#333333" d="M79.344,44.999c-0.563-0.751-1.206-1.457-1.668-2.266
		c-0.398-0.694-0.036-1.525,0.648-1.717c0.819-0.23,1.213,0.372,1.324,0.994c0.165,0.92,0.14,1.875,0.195,2.815
		C79.677,44.883,79.512,44.941,79.344,44.999z"/>
	<path fill-rule="evenodd" clip-rule="evenodd" fill="#333333" d="M121,154.511c0.931,0.589,1.651,1.365,1.97,2.469
		c0.213,0.726-0.081,1.229-0.769,1.51c-0.755,0.309-0.994-0.294-1.113-0.771c-0.246-0.997-0.366-2.027-0.54-3.043
		C120.699,154.62,120.851,154.565,121,154.511z"/>
	<path fill-rule="evenodd" clip-rule="evenodd" fill="#333333" d="M120.906,44.796c0.117-0.992,0.196-1.991,0.367-2.973
		c0.089-0.507,0.247-1.075,1.035-0.827c0.715,0.225,1.075,0.655,0.894,1.403c-0.271,1.108-0.939,1.923-1.895,2.502
		C121.175,44.866,121.041,44.832,120.906,44.796z"/>
	<path fill-rule="evenodd" clip-rule="evenodd" fill="#333333" d="M154.715,122.908c0.184,0.429,0.366,0.86,0.55,1.291
		c-0.31,0.036-0.706,0.209-0.91,0.079c-0.576-0.369-0.313-0.828-0.026-1.24C154.456,122.996,154.585,122.951,154.715,122.908z"/>
	<path fill-rule="evenodd" clip-rule="evenodd" fill="#333333" d="M46.477,124.345c-0.632-0.03-0.973-0.047-1.588-0.077
		c0.36-0.574,0.596-0.952,0.833-1.329c0.096,0.006,0.192,0.013,0.288,0.021C46.142,123.352,46.275,123.745,46.477,124.345z"/>
	<path fill-rule="evenodd" clip-rule="evenodd" fill="#333333" d="M155.581,75.542c-0.241,0.303-0.485,0.604-0.905,1.124
		c-0.191-0.54-0.305-0.866-0.418-1.192c0.389-0.075,0.776-0.15,1.165-0.226C155.477,75.346,155.529,75.445,155.581,75.542z"/>
	<path fill-rule="evenodd" clip-rule="evenodd" fill="#333333" d="M46.569,75.304c-0.116,0.489-0.203,0.851-0.34,1.427
		c-0.423-0.462-0.727-0.792-1.243-1.356C45.679,75.344,46.058,75.327,46.569,75.304z"/>
</g>
<g>
	<path fill-rule="evenodd" clip-rule="evenodd" fill="#666666" d="M181.782,97.116c0.335,14.156-2.843,27.508-9.438,40.014
		c-8.501,16.112-20.809,28.378-37.299,36.299c-5.521,2.652-11.288,4.641-17.333,5.654c-4.55,0.761-9.133,1.396-13.728,1.759
		c-4.47,0.354-8.959,0.023-13.416-0.578c-18.303-2.473-34.185-10.055-47.662-22.654c-4.72-4.409-8.778-9.394-12.239-14.858
		c-5.405-8.533-8.895-17.787-10.33-27.784c-0.654-4.544-1.431-9.109-1.553-13.681c-0.27-10.125,1.473-19.984,5.145-29.44
		c7.729-19.902,20.885-35.028,39.888-44.933c5.916-3.083,12.188-5.229,18.711-6.556c5.704-1.161,11.496-1.758,17.326-1.779
		c5.157-0.019,10.275,0.459,15.349,1.446c16.328,3.175,30.519,10.5,42.599,21.906c4.867,4.597,9.042,9.785,12.563,15.491
		c5.153,8.356,8.519,17.376,9.972,27.088c0.625,4.18,1.127,8.377,1.688,12.568C181.943,97.09,181.863,97.103,181.782,97.116z
		 M21.898,100.833c0.084,1.563,0.151,4.165,0.375,6.749c1.063,12.288,5.299,23.453,12.078,33.692
		c3.25,4.909,6.993,9.417,11.28,13.461c17.159,16.179,37.367,24.058,61.062,22.344c6.446-0.466,12.73-1.833,18.802-4.057
		c18.943-6.936,33.43-19.226,43.428-36.693c8.746-15.28,11.54-31.732,8.831-49.105c-1.659-10.637-5.757-20.329-11.706-29.261
		c-3.997-6.001-8.708-11.391-14.179-16.08c-14.493-12.425-31.116-19.435-50.387-19.735c-7.154-0.112-14.184,0.672-21.036,2.663
		C59.189,30.982,43.018,43.775,31.83,62.8C25.137,74.181,21.809,86.554,21.898,100.833z"/>
	<path fill-rule="evenodd" clip-rule="evenodd" fill="#666666" d="M104.26,99.327c-0.11,2.458-0.864,4.328-2.642,5.723
		c-0.77,0.604-1.509,0.657-2.385,0.199c-2.001-1.048-2.818-2.855-2.884-4.913c-0.079-2.463,0.81-4.614,2.938-6.108
		c0.621-0.436,1.193-0.459,1.851-0.132C103.417,95.23,104.137,97.228,104.26,99.327z"/>
</g>
</svg>
