<?xml version="1.0" encoding="utf-8"?>
<!-- Generator: Adobe Illustrator 16.0.0, SVG Export Plug-In . SVG Version: 6.00 Build 0)  -->
<!DOCTYPE svg PUBLIC "-//W3C//DTD SVG 1.1//EN" "http://www.w3.org/Graphics/SVG/1.1/DTD/svg11.dtd">
<svg version="1.1" id="Layer_1" xmlns="http://www.w3.org/2000/svg" xmlns:xlink="http://www.w3.org/1999/xlink" x="0px" y="0px"
	 width="100px" height="100px" viewBox="0 0 100 100" enable-background="new 0 0 100 100" xml:space="preserve">
<path fill="#B3B3B3" d="M34.537,56.342l-4.723-15.575l-8.298,2.809l-1.149-5.744l-3.063,0.894c0,0-4.723,13.277-12.765,17.234
	l0.511,2.553c0,0,15.573,0.254,21.317,7.148l2.297-1.277l-3.446-10.85l2.681,5.105L34.537,56.342z"/>
<polygon fill="#808080" points="29.558,34.896 34.409,52.639 36.451,52.256 34.153,31.704 "/>
<polygon fill="#333333" points="35.43,35.917 37.345,54.553 39.004,54.682 38.622,35.662 "/>
<path fill="#231F20" d="M69.386,60.682c-21.446,7.148-21.19,0.893-8.936-5.744c12.255-6.638,17.36-9.064,15.574-16.212
	c-1.788-7.148-17.361-9.318-36.255-4.34l-0.127,15.063c0,0,12.638-4.979,19.276-3.957c6.639,1.02-9.19,5.872-16.978,17.487
	c-7.787,11.617,10.085,8.936,21.447,2.938c11.359-6.002,26.04-8.938,34.082-4.979C97.469,60.938,90.832,53.533,69.386,60.682z"/>
</svg>
