<?xml version="1.0" encoding="utf-8"?>
<!-- Generator: Adobe Illustrator 16.0.0, SVG Export Plug-In . SVG Version: 6.00 Build 0)  -->
<!DOCTYPE svg PUBLIC "-//W3C//DTD SVG 1.1//EN" "http://www.w3.org/Graphics/SVG/1.1/DTD/svg11.dtd">
<svg version="1.1" id="Layer_1" xmlns="http://www.w3.org/2000/svg" xmlns:xlink="http://www.w3.org/1999/xlink" x="0px" y="0px"
	 width="100px" height="100px" viewBox="-25 -25 100 100" enable-background="new -25 -25 100 100" xml:space="preserve">
<g>
	<path fill="#BCBCBC" d="M25.037,8.773c-2.925,0-5.294,2.371-5.294,5.293c0,2.924,2.369,5.294,5.294,5.294
		c2.925,0,5.291-2.37,5.291-5.294C30.328,11.144,27.962,8.773,25.037,8.773z M25.037,17.505c-1.896,0-3.44-1.538-3.44-3.438
		c0-1.897,1.544-3.439,3.44-3.439c1.895,0,3.437,1.542,3.437,3.439C28.474,15.967,26.932,17.505,25.037,17.505z"/>
	<circle fill="#BCBCBC" cx="25.035" cy="36.827" r="1.933"/>
	<circle fill="#BCBCBC" cx="25.037" cy="75.625" r="1.932"/>
</g>
<path fill="#231F20" d="M24.054-0.117c0-0.849-0.929-1.393-1.854-1.393s-1.235-1.157-1.235-1.157
	c-0.851,0.695-0.772,2.165,0.85,2.165c1.626,0,1.39,1.08,1.39,1.08c-4.17,0-2.628,4.252-2.628,4.252s-0.154-2.242,2.242-2.242
	c2.395,0,1.159,2.552,1.159,2.552c-1.393,0-1.313,2.857-1.313,2.857c1.871,0,2.28-1.609,2.373-2.231
	c0.086,0.622,0.498,2.231,2.371,2.231c0,0,0.074-2.857-1.316-2.857c0,0-1.238-2.552,1.158-2.552c2.395,0,2.244,2.242,2.244,2.242
	s1.541-4.25-2.63-4.252c0,0-0.234-1.08,1.391-1.08c1.622,0,1.702-1.469,0.851-2.165c0,0-0.309,1.157-1.236,1.157
	c-0.93,0-1.855,0.544-1.855,1.393c0,0-0.081-1.107-0.958-1.152v-0.005c-0.007,0-0.014,0-0.021,0c-0.01,0-0.02,0-0.027,0v0.005
	C24.135-1.224,24.054-0.117,24.054-0.117z"/>
<g>
	<path fill="#848484" d="M20.454,26.701c2.784,2.785,4.019,4.712,4.019,6.881c0,0,0-4.481,0-7.577c0-3.092-3.247-7.882-6.956-11.281
		c-3.709-3.402-9.735-11.128-2.162-17.006c2.502-1.938,4.359-3.69,5.728-5.376c0.338-0.373,1.072-1.052,1.072,0.197
		c0,1.624,0.85,1.855,0.85,1.855s0-1.467,0-2.55s0.616-0.697,0.616-0.697s0,2.552,0,3.559c0,1.004,1.008,1.467,1.008,1.467v-14.048
		c0-0.005,0-0.012,0-0.019c0-5.561,0-5.561,0-5.561s0,4.018-4.019,8.191c-4.017,4.173-5.177,5.179-5.177,9.584
		c0,0,0.236-2.161,2.705-4.714c2.475-2.551,3.866-3.941,3.866-3.941s-0.541,3.399-7.649,10.358
		c-7.11,6.956-3.48,13.602,0.386,18.627c3.864,5.021,8.191,8.887,8.191,11.9c0,0-3.323-3.554-4.865-6.491
		C18.06,20.056,17.674,23.92,20.454,26.701z"/>
	<path fill="#848484" d="M35.722-3.979c-7.108-6.957-7.653-10.357-7.653-10.357s1.391,1.39,3.864,3.941
		c2.474,2.553,2.706,4.713,2.706,4.713c0-4.405-1.158-5.411-5.18-9.583c-4.017-4.171-4.017-8.191-4.017-8.191s0,0.002,0,4.404l0,0
		v15.226c0,0,1.004-0.462,1.004-1.467s0-3.559,0-3.559s0.618-0.386,0.618,0.697s0,2.55,0,2.55s0.849-0.233,0.849-1.855
		c0-1.251,0.741-0.568,1.071-0.195c1.372,1.681,3.229,3.434,5.729,5.371c7.576,5.877,1.548,13.602-2.162,17.006
		c-3.713,3.399-6.957,8.189-6.957,11.281c0,3.095,0,7.577,0,7.577c0-2.167,1.24-4.096,4.023-6.884
		c2.78-2.779,2.395-6.643,2.395-6.643c-1.544,2.935-4.871,6.491-4.871,6.491c0-3.014,4.329-6.878,8.195-11.899
		C39.199,9.625,42.831,2.977,35.722-3.979z"/>
</g>
<g>
	<path fill="#424242" d="M32.014-14.957c2.548,0.31,2.396-1.697,2.396-1.697c-0.93,1.621-2.547,0.307-2.547,0.307
		c0.771-0.31,0.767-1.312,0.767-1.312c-1.079,1.238-3.092-0.85-4.249-3.557c-1.158-2.705,1.78-5.487,3.17-5.487
		c1.391,0,2.706,1.626,0.619,2.474c-2.09,0.851-1.316,3.095-0.079,3.402c1.236,0.309,1.776-1.159,1.776-1.159
		c-0.387,0.852-2.009,0.309-0.54-0.695c2.437-1.671,1.234-4.947-1.935-4.947c-3.166,0-4.479,4.484-4.479,5.796
		C26.913-18.046,29.464-15.264,32.014-14.957z"/>
	<path fill="#424242" d="M16.746-22.681c1.466,1.004-0.154,1.547-0.54,0.695c0,0,0.537,1.468,1.778,1.159
		c1.234-0.307,2.006-2.551-0.077-3.402c-2.09-0.848-0.776-2.474,0.614-2.474c1.392,0,4.328,2.78,3.171,5.487
		c-1.159,2.707-3.171,4.795-4.251,3.557c0,0,0,1.002,0.771,1.312c0,0-1.624,1.314-2.549-0.307c0,0-0.155,2.007,2.396,1.697
		c2.549-0.307,5.102-3.089,5.102-6.876c0-1.312-1.317-5.797-4.484-5.797C15.508-27.627,14.305-24.352,16.746-22.681z"/>
</g>
<g>
	<path fill="#424242" d="M30.561,51.976c-0.867-0.907-1.543-1.657-2.073-2.302c1.546,1.451,2.767,2.069,2.767,2.069
		s-0.387-2.241-2.162-4.25c-1.776-2.009-3.012-3.171-3.012-5.486c0-1.315-0.757-1.915-0.757-1.915s0,4.114,0,6.03
		c0,2.833,1.218,3.71,2.55,5.272c1.337,1.566-0.404,2.957-0.404,2.957s1.014,0.842,2.376-0.523c0,0-0.116,1.044-1.854,2.492
		c-0.865,0.723-1.926,1.797-2.953,2.864c-1.035-1.067-2.09-2.142-2.959-2.864c-1.735-1.448-1.854-2.492-1.854-2.492
		c1.363,1.362,2.38,0.523,2.38,0.523s-1.74-1.391-0.408-2.957c1.333-1.562,2.551-2.437,2.551-5.272c0-1.918,0-6.03,0-6.03
		s-0.755,0.6-0.755,1.915c0,2.315-1.235,3.478-3.014,5.486s-2.162,4.25-2.162,4.25s1.222-0.618,2.769-2.069
		c-0.533,0.645-1.204,1.395-2.076,2.302c-3.085,3.225,0.943,5.923,4.283,8.499c-0.583,0.596-1.124,1.135-1.581,1.544
		c-1.545,1.395-0.927,3.403-0.927,3.403s-2.164-1.697-2.164-4.018c0,0-2.785,2.627,2.629,8.034c0.773,0.776,1.004,1.933,0.462,2.399
		c0,0,1.547-0.618,1.083-2.088c0,0,0.85,2.014-0.386,3.789c0,0,1.852,0,1.852-1.548s-0.307-3.013-1.62-4.329
		c-1.312-1.311-1.701-3.092,1.701-6.022c0.062-0.054,0.128-0.112,0.195-0.168c0.064,0.056,0.128,0.114,0.193,0.168
		c3.398,2.931,3.015,4.712,1.699,6.022c-1.313,1.318-1.624,2.781-1.624,4.329s1.856,1.548,1.856,1.548
		c-1.239-1.775-0.391-3.789-0.391-3.789c-0.46,1.47,1.088,2.088,1.088,2.088c-0.544-0.465-0.312-1.623,0.461-2.399
		c5.406-5.407,2.627-8.034,2.627-8.034c0,2.32-2.162,4.018-2.162,4.018s0.62-2.009-0.926-3.403c-0.46-0.409-1.002-0.948-1.576-1.544
		C29.621,57.898,33.648,55.197,30.561,51.976z"/>
	<path fill="#424242" d="M23.992,61.074c0.076-0.074,0.159-0.153,0.255-0.246c0.014,0.014,0.03,0.027,0.048,0.042
		C24.095,61.01,23.992,61.074,23.992,61.074z"/>
	<path fill="#424242" d="M24.365,59.885c-0.297-0.215-0.632-0.451-1.009-0.726c-1.855-1.33-2.84-2.897-3.709-4.52
		c0,0,2.942,2.98,4.961,4.989C24.53,59.712,24.447,59.801,24.365,59.885z"/>
	<path fill="#424242" d="M25.037,60.354c-0.057-0.037-0.119-0.079-0.181-0.125c0.057-0.057,0.116-0.116,0.181-0.177
		c0.06,0.061,0.121,0.12,0.178,0.177C25.153,60.274,25.094,60.316,25.037,60.354z"/>
	<path fill="#424242" d="M25.777,60.87c0.015-0.015,0.028-0.028,0.048-0.042c0.093,0.093,0.181,0.172,0.255,0.246
		C26.08,61.074,25.98,61.01,25.777,60.87z"/>
	<path fill="#424242" d="M26.716,59.159c-0.377,0.274-0.715,0.511-1.01,0.726c-0.081-0.084-0.159-0.173-0.243-0.256
		c2.02-2.009,4.963-4.989,4.963-4.989C29.557,56.262,28.571,57.829,26.716,59.159z"/>
</g>
</svg>
