<?xml version="1.0" encoding="utf-8"?>
<!-- Generator: Adobe Illustrator 16.0.0, SVG Export Plug-In . SVG Version: 6.00 Build 0)  -->
<!DOCTYPE svg PUBLIC "-//W3C//DTD SVG 1.1//EN" "http://www.w3.org/Graphics/SVG/1.1/DTD/svg11.dtd">
<svg version="1.1" id="Layer_1" xmlns="http://www.w3.org/2000/svg" xmlns:xlink="http://www.w3.org/1999/xlink" x="0px" y="0px"
	 width="100px" height="100px" viewBox="0 0 100 100" enable-background="new 0 0 100 100" xml:space="preserve">
<path fill-rule="evenodd" clip-rule="evenodd" d="M17.688,82.569l0.092-0.092L17.688,82.569z"/>
<path fill-rule="evenodd" clip-rule="evenodd" d="M82.626,0.303l0.292-0.292L82.626,0.303z"/>
<path fill-rule="evenodd" clip-rule="evenodd" d="M97.8,19.207l0.373-0.386L97.8,19.207z"/>
<path fill-rule="evenodd" clip-rule="evenodd" d="M91.703,13.292l0.868-0.895L91.703,13.292z"/>
<path fill-rule="evenodd" clip-rule="evenodd" d="M94.874,16.37l0.577-0.595L94.874,16.37z"/>
<g>
	<rect x="10.229" y="65.816" fill="#4D4D4D" width="1" height="0.999"/>
	<rect x="12.2" y="65.816" fill="#4D4D4D" width="0.999" height="0.999"/>
	<rect x="14.17" y="65.816" fill="#4D4D4D" width="1" height="0.999"/>
	<rect x="16.142" y="65.816" fill="#4D4D4D" width="1" height="0.999"/>
</g>
<g>
	<polygon fill="#666666" points="43.728,47.661 27.072,47.661 -1.409,19.179 -0.077,19.179 7.085,26.342 7.085,27.175 
		27.239,47.328 32.402,47.328 32.402,39.583 37.482,39.583 	"/>
	<polygon fill="#666666" points="36.531,49.007 68.76,49.007 68.76,49.424 47.357,49.424 42.235,54.545 31.688,54.545 
		36.531,49.701 	"/>
</g>
<g>
	<rect x="28.799" y="48.505" width="6.601" height="1.009"/>
	<polygon points="35.4,49.514 18.079,66.835 18.079,61.958 18.246,61.958 18.246,64.859 19.802,64.859 35.21,49.45 	"/>
	<rect x="36.503" y="48.494" width="62.542" height="0.167"/>
</g>
</svg>
