<?xml version="1.0" encoding="utf-8"?>
<!-- Generator: Adobe Illustrator 16.0.0, SVG Export Plug-In . SVG Version: 6.00 Build 0)  -->
<!DOCTYPE svg PUBLIC "-//W3C//DTD SVG 1.1//EN" "http://www.w3.org/Graphics/SVG/1.1/DTD/svg11.dtd">
<svg version="1.1" id="Layer_1" xmlns="http://www.w3.org/2000/svg" xmlns:xlink="http://www.w3.org/1999/xlink" x="0px" y="0px"
	 width="100px" height="100px" viewBox="0 0 100 100" enable-background="new 0 0 100 100" xml:space="preserve">
<g>
	<polygon fill="#4D4D4D" points="44.673,46.916 6.831,68.871 17.656,75.121 55.593,53.209 	"/>
	<polygon fill="#4D4D4D" points="61.312,56.354 23.096,78.098 28.886,81.441 66.823,59.529 	"/>
	<polygon fill="#4D4D4D" points="76.6,65.664 38.757,87.619 49.582,93.869 87.52,71.957 	"/>
</g>
<g>
	<polygon fill="#999999" points="44.673,46.916 55.495,53.184 55.495,9.411 44.657,3.084 	"/>
	<polygon fill="#999999" points="61.314,56.555 66.727,59.502 66.727,15.731 61.034,12.755 	"/>
	<polygon fill="#999999" points="76.6,65.664 87.422,71.932 87.422,28.159 76.582,21.832 	"/>
</g>
<path fill="#E6E6E6" d="M61.014,6.281L17.656,31.313v50.066l43.378-25.045L61.014,6.281z M55.593,53.209l-32.5,18.773l-0.017-37.538
	l32.638-18.847L55.593,53.209z"/>
<path fill="#E6E6E6" d="M71.873,12.764l-42.987,24.87v50.064L71.873,62.88V12.764z M66.823,59.529L34.322,78.301l-0.017-37.535
	l32.638-18.847L66.823,59.529z"/>
<g>
	<polygon fill="#4D4D4D" points="50.173,-0.027 6.816,24.936 17.656,31.262 61.014,6.231 	"/>
	<polygon fill="#4D4D4D" points="66.453,9.65 23.151,34.458 28.886,37.582 71.873,12.764 	"/>
	<polygon fill="#4D4D4D" points="82.1,18.721 38.742,43.683 49.582,50.01 92.939,24.979 	"/>
	<polygon fill="#4D4D4D" points="55.012,53.254 65.852,59.512 76.688,53.254 65.852,46.996 	"/>
</g>
<polygon fill="#999999" points="55.012,53.254 55.012,65.77 65.852,72.027 65.852,59.512 "/>
<g>
	<path fill="#E6E6E6" d="M92.939,25.029L49.582,50.061v50.066L92.96,75.082L92.939,25.029z M87.52,71.957L55.018,90.729
		l-0.017-37.535l32.64-18.846L87.52,71.957z"/>
	<polygon fill="#E6E6E6" points="76.689,53.254 76.689,65.77 65.852,72.027 65.852,59.512 	"/>
</g>
<g>
	<polygon fill="#999999" points="6.833,75.111 17.656,81.379 17.656,31.349 6.816,25.022 	"/>
	<polygon fill="#999999" points="23.115,84.535 28.886,87.697 28.886,37.668 23.151,34.458 	"/>
	<polygon fill="#999999" points="38.759,93.859 49.582,100.127 49.582,50.096 38.742,43.771 	"/>
</g>
</svg>
