<?xml version="1.0" encoding="utf-8"?>
<!-- Generator: Adobe Illustrator 16.0.0, SVG Export Plug-In . SVG Version: 6.00 Build 0)  -->
<!DOCTYPE svg PUBLIC "-//W3C//DTD SVG 1.1//EN" "http://www.w3.org/Graphics/SVG/1.1/DTD/svg11.dtd">
<svg version="1.1" id="Layer_1" xmlns="http://www.w3.org/2000/svg" xmlns:xlink="http://www.w3.org/1999/xlink" x="0px" y="0px"
	 width="100px" height="100px" viewBox="0 0 100 100" enable-background="new 0 0 100 100" xml:space="preserve">
<path fill="#9BDBF8" d="M18.442,78.303c0.53-0.081,0.982,0.047,1.446-0.241c0.69,0.249,1.303,0.573,2.25,0.564
	c0.477,0.327,0.856,0.75,1.607,0.804c0.289,0.378,0.596,0.745,1.205,0.802c0.2,0.205,0.261,0.544,0.643,0.563
	c0.104,0.706,0.856,0.752,0.966,1.447c0.214,0.105,0.427,0.216,0.641,0.32c0.018,0.357,0.342,0.464,0.564,0.726
	c0.2,0.233,0.323,0.567,0.564,0.803c0.229,0.232,0.493,0.341,0.719,0.563c0.163,0.152,0.313,0.322,0.426,0.511
	c0.28-0.003,0.546,0.051,0.792,0.194c0.859,0.499,0.473,2.037,0.082,2.894c0.188,0.373,0.599,0.525,0.8,0.885
	c1.05,0.303,1.944,0.806,2.817,1.366c0.46,0.294,0.862,0.725,1.284,0.884c0.761,0.284,2.131,0.08,2.111,1.144
	c0.489-0.034,0.963,0.092,1.417,0c1.102-0.228,2-0.795,2.891-1.207c2.065-0.955,3.841-1.979,5.146-3.533
	c0.682-0.817,1.214-1.268,1.205-2.253c-0.361-0.369-0.847-0.125-1.283-0.239c-0.289-0.077-0.574-0.312-0.885-0.403
	c-0.474-0.14-1.026-0.13-1.527-0.322c-0.445-0.434-0.856-0.799-1.208-1.233c-0.119,0.039-0.251,0.07-0.393,0.09
	c-0.071,0.009-1.276-0.103-1.446-0.159c-0.145-0.049-0.769-0.36-0.966-0.645c-0.203-0.303-0.257-0.721-0.159-1.105
	c-0.631,0.164-1.31,0.318-2.018,0c-0.211-0.097-0.486-0.419-0.723-0.643c-0.567-0.541-0.853-0.956-1.207-1.609
	c-0.87-0.279-1.798-0.509-2.891-0.564c0.885-0.338,2.038-0.555,2.891-0.643c0.844-0.084,1.879-0.075,2.733,0
	c0.373,0.035,0.763,0.23,1.125,0.241c0.697,0.025,1.277-0.347,1.928-0.319c1.224-0.683,1.882-1.511,2.655-2.571
	c0.096-0.136,0.162-0.188,0.241-0.322c0.22-0.386,0.558-0.679,0.722-0.965c0.31-0.537,0.301-0.871,0.643-1.285
	c0.164-0.198,0.277-0.401,0.405-0.564c0.489-0.624,0.939-0.949,1.449-1.365c0.572-0.475,1.777-1.11,2.489-1.285
	c0.188-0.049,0.46,0.024,0.642,0c0.434-0.065,0.992-0.276,1.443-0.403c0.934-0.259,1.665-0.507,2.333-0.805
	c0.874-0.387,1.564-0.832,2.331-1.285c0-0.51,0.298-0.723,0.32-1.207c0.671-0.888,1.955-1.158,3.057-1.525
	c0.59-0.199,1.035-0.442,1.446-0.562c0.552-0.161,1.094-0.183,1.608-0.403c1.11-0.475,2.137-0.876,3.135-1.368
	c0.515-0.253,1.005-0.592,1.525-0.723c0.55-0.14,2.111-0.167,3.298-0.157c1.044,0.666,1.83,1.595,2.972,2.167
	c1.387-0.181,2.331,0.141,3.213,0.643c0.131,0.585,0.455,0.877,0.726,1.206c0.414,0.5,0.746,0.998,1.045,1.529
	c0.445,0.786,0.714,1.686,1.205,2.169c0.272,0.262,0.805,0.579,1.207,0.882c0.696,0.531,1.23,0.951,2.09,1.128
	c0.277,0.714,0.767,0.728,1.527,0.965c0.306,0.095,0.606,0.252,0.885,0.32c0.625,0.158,1.31,0.116,1.928,0.243
	c1.174,0.237,2.285,0.574,3.376,0.88c0.653,0.087,1.419,0.265,2.09,0.084c0.87-0.237,0.973-0.37,1.531-0.805
	c0.343-0.272,0.719-0.474,0.797-0.805c-0.118-0.547-0.317-1.018-0.562-1.446c-0.123-0.142-0.43-0.105-0.563-0.242
	c0.009-0.388-0.442-0.384-0.639-0.642c-0.064-0.081-0.015-0.284-0.081-0.403c-0.254-0.445-0.653-0.562-0.966-0.885
	c-0.089-0.45-0.428-0.667-0.642-1.043c-0.218-0.378-0.256-0.859-0.646-1.124c-0.668-0.458-1.92-0.375-2.893-0.483
	c-1.249-0.142-2.053-1.053-3.053-1.286c-0.563-1.156-1.168-2.264-2.333-2.814c-0.47-1.18-2.88-1.136-2.409-2.732
	c1.336-0.611,2.397,0.081,3.699-0.16c0.549-0.103,0.896-0.557,1.522-0.644c0.512-0.069,0.96,0.325,1.609,0.485
	c0.295,0.071,0.6,0.002,0.885,0.079c0.979,0.257,2.023,0.812,3.053,1.042c0.214,0.05,0.547,0.029,0.804,0.082
	c1.221,0.249,2.16-0.324,3.377-0.481c0.244-0.639,0.94-0.826,0.884-1.769c-0.59-0.453-1.546-0.545-2.008-1.127
	c-0.059-0.761-0.862-1.624-1.368-1.849c-0.248-0.109-0.515,0.005-0.804-0.081c-0.474-0.134-1.116-0.791-1.851-0.64
	c-0.749-1.099-2.495-1.199-3.536-2.011c-0.003-0.151,0.022-0.296,0.053-0.436c-0.157,0.004-0.308,0.009-0.452,0.018
	c-1.998,0.169-3.649,0.752-5.302,0c-0.452-0.202-0.896-0.616-1.366-0.883c-0.984-0.559-1.475-0.811-2.092-1.606
	c-0.126-0.17-0.349-0.351-0.421-0.564c-0.213-0.006-0.417-0.005-0.625,0.017c-0.607,0.051-1.446,0.21-1.932,0.48
	c-0.296,0.167-0.475,0.472-0.723,0.644c-0.322,0.218-0.718,0.426-1.045,0.641c-0.79,0.528-1.399,0.799-2.409,1.046
	c-0.86,0.208-2.143,0.565-3.296,0.161c-0.271-0.64-0.802-1.021-1.047-1.686c-1.029-0.271-1.632-0.46-2.411-0.322
	c-1.116,0.194-2.406,1.354-3.375,1.607c-0.547,0.138-0.828-0.143-1.287-0.241c-0.173-0.04-0.427,0.03-0.643,0
	c-0.326-0.051-0.593-0.232-0.885-0.243c-1.705-0.057-3.229,1.327-5.303,1.045c-0.295-0.241-0.456-0.616-0.726-0.885
	c0.424-0.567,1.063-0.828,1.525-1.365c0.348-0.403,0.508-0.962,0.886-1.368c0.59-0.625,1.489-0.906,2.092-1.527
	c0.285-0.296,0.413-0.701,0.641-1.044c0.325-0.051,0.856,0.105,1.044-0.08c-0.109-0.349,0.023-0.721-0.078-1.126
	c-0.06-0.262-0.257-0.476-0.401-0.804c-0.125-0.278-0.167-0.646-0.32-0.885c-0.255-0.396-0.762-0.644-0.885-1.121
	c-0.148-0.59,0.092-1.503,0.482-2.012c0.625-0.826,2.25-1.589,3.618-2.092c0.204-0.074,0.474-0.074,0.722-0.158
	c0.81-0.283,1.548-0.846,2.01-0.807c0.263,0.025,0.607,0.324,0.963,0.481c0.153,0.072,0.307,0.089,0.479,0.163
	c0.807,0.34,1.863,0.405,2.172-0.644c0.264-0.879-0.74-1.512-1.444-1.926c-0.851,0.197-1.475-0.116-2.409-0.322
	c-0.336-0.074-0.759-0.036-1.048-0.164c-0.326-0.137-0.543-0.479-0.885-0.64c-0.211-0.103-0.468-0.054-0.723-0.161
	c-0.718-0.303-1.587-1.124-2.253-1.288c-0.223-0.056-0.537,0.083-0.882,0.083c-0.301-0.001-0.633-0.131-0.882-0.083
	c-0.648,0.129-1.345,0.636-1.932,0.967c-0.631,0.354-1.293,0.893-1.927,0.965c-0.148,0.014-0.412-0.129-0.726-0.164
	c-0.335-0.033-0.925-0.024-1.446-0.238c-0.427-0.178-0.792-0.59-1.287-0.807c-0.546-0.233-1.124-0.284-1.688-0.641
	c-0.474-0.302-0.925-0.646-1.446-0.966c-0.48-0.292-1.003-0.562-1.526-0.802c-0.51-0.232-1.064-0.506-0.966-1.125
	c1.704-0.282,2.768-1.198,3.776-2.172c0.105-0.713,0.671-1.172,0.646-1.848c-0.022-0.601-0.662-1.002-0.646-1.69
	c-1.205-0.981-3.42-1.065-5.461-0.885c-0.218,0.021-0.405,0.137-0.646,0.166c-0.277,0.029-0.609-0.038-0.882,0
	c-1.07,0.15-1.892,0.729-2.814,0.318c-1.214-0.713-1.705-2.152-2.736-3.051c-0.214-0.64-0.789-0.924-0.961-1.608
	c-1.12-0.52-1.722-1.55-3.297-1.607c-0.524-0.578-1.227-0.288-2.007-0.324c-0.485-0.021-0.992-0.213-1.526-0.161
	c-0.37,0.041-0.865,0.119-1.208,0.242c-0.275,0.101-0.486,0.375-0.885,0.481c-0.362,0.101-0.727,0.024-1.204,0.083
	c-0.376,0.045-0.731,0.298-1.046,0.319c-0.684,0.053-0.813-0.203-1.365-0.319c-0.338-0.077-0.686-0.014-0.966-0.083
	c-0.351-0.083-0.715-0.505-1.123-0.804c-0.679-0.489-0.908-0.683-1.29-1.204c-0.377-0.518-0.459-0.883-0.719-1.609
	c-0.142-0.391-0.399-0.864-0.405-1.285c-0.006-0.713,0.312-1.771,0.966-1.77c0,0.333-0.467,0.781,0,0.885
	c0.685-0.065,1.071-1.121,1.526-1.688c0.021-0.018,0.041-0.035,0.06-0.051c-0.312-0.003-0.606,0.003-0.849,0.043
	c-0.775,0.131-1.672,0.968-2.817,1.125c-0.433,0.062-1.073,0.083-1.446,0c-0.835-0.187-1.277-1.04-2.009-1.445
	c-0.859-0.477-1.58-0.484-2.247-0.968C9.05,7.54,8.595,8.148,7.522,8.61c-1.229,0.525-2.932,0.536-3.135,1.446
	c-0.126,0.578,0.427,1.076,0.804,1.609c1.911,0.313,4.188,0.259,5.544,1.124c0.414,0.685,0.712,1.44,0.644,2.331
	c-0.083,1.118-1.067,2.235-0.722,3.935c0.132,0.674,0.844,0.887,0.483,1.771c-0.951,0.459-2.018-0.143-2.786-0.688
	c0.044,0.053,0.084,0.097,0.116,0.133c0.204,0.21,0.536,0.338,0.805,0.564c0.297,0.249,0.494,0.583,0.726,0.723
	c0.509,0.305,0.977,0.293,1.607,0.402c0.22,0.038,0.449,0.216,0.643,0.244c0.757,0.093,1.556-0.103,2.331,0
	c1.156,0.145,2.449,0.725,3.537,0.799c0.474,0.389,0.807,0.911,1.043,1.531c0.408,0.295,0.643,0.412,1.21,0.643
	c0.223,0.092,0.488,0.239,0.719,0.32c0.908,0.324,1.645,0.25,2.416,0.161c1.228-0.142,2.746-0.167,3.211,0.804
	c-0.59,0.667-1.367,1.15-1.604,2.168c-1.014,1.124-2.344,1.735-3.699,1.85c-0.437,0.038-2.009-0.682-2.411-0.965
	c-0.284-0.197-0.495-0.572-0.803-0.802c-0.163-0.124-0.333-0.202-0.483-0.322c-0.168-0.135-0.341-0.316-0.483-0.403
	c-0.975-0.602-1.842-0.009-2.733,0.403c-0.066,0.327-0.012,0.278,0,0.643c0.379,0.235,0.801,0.071,1.206,0.161
	c0.269,0.06,0.463,0.271,0.724,0.32c0.381,0.075,0.688-0.067,1.046,0.08c0.518,0.215,0.75,0.679,1.206,1.046
	c0.853,0.608,2.32,0.511,3.055,1.047c-0.582,1.184-1.839,1.01-3.294,0.883c-1.318-0.114-3.195-0.024-3.777,0.56
	c-0.188,0.187-0.335,0.455-0.43,0.748c0.234,0.06,0.468,0.104,0.683,0.125c1.184,0.128,2.489-0.047,3.776,0
	c0.486,0.021,0.969,0.202,1.446,0.242c0.974,0.083,2.08-0.15,2.894,0.083c0.542,0.15,2.105,1.282,2.328,1.767
	c0.064,0.135,0.102,0.316,0.119,0.516c0.063,0.093,0.107,0.188,0.113,0.298c0.012,0.175-0.066,0.385-0.191,0.588
	c-0.06,0.257-0.15,0.498-0.28,0.688c-0.402,0.596-1.255,0.939-2.189,1.043c-0.483,0.077-1.026,0.087-1.677,0.093
	c-0.16-0.08-0.322-0.172-0.48-0.264c-0.397-0.113-0.752-0.271-1.039-0.472c-2.255,0.069-3.777,0.731-4.662,2.252
	c-0.418,0.727-0.558,1.6-0.966,2.33c-0.361,0.65-0.82,1.43-1.365,1.929c-0.265,0.243-0.704,0.382-1.124,0.643
	c-0.393,0.244-0.703,0.581-1.125,0.643c-1.448,0.205-2.006-0.79-2.95-1.274c-0.08,0-0.164,0-0.245,0
	c-0.197,0.011-0.393,0.014-0.587,0.017c0.223,0.579,0.602,0.932,0.555,1.751c-0.257,0.816-0.975,1.169-1.527,1.69
	c-0.337-0.01-0.625,0.283-0.962,0.402c-0.391,0.133-1.01,0.012-1.125,0.483c0.078,0.675,1.203,0.661,2.087,0.561
	c0.651-0.074,1.255-0.476,1.77-0.244c1.508-0.36,2.393-0.812,3.693-1.365c1.86-0.791,3.756-1.413,5.227-2.572
	c0.416-0.326,0.554-0.643,0.885-0.724c0.659-0.161,1.482,0.05,2.251,0c0.432-0.029,0.96-0.158,1.524-0.241
	c0.555-0.082,1.177-0.271,1.691-0.322c0.235-0.022,0.486,0.107,0.724,0.082c0.327-0.033,0.632-0.211,0.963-0.242
	c0.566-0.053,1.957,0.242,2.573,0.483c0.688,0.271,2.163,0.372,2.489-0.322c0.395-0.833-0.822-1.326-0.804-2.007
	c0.012-0.458,0.741-1.091,1.126-1.288c0.352-0.179,0.829-0.259,1.205-0.321c1.043-0.174,2.238,0.012,3.456-0.4
	c0.978,0.265,1.857,0.31,2.895,0.641c0.619,0.196,1.165,0.462,1.448,0.723c0.446,0.418,0.637,0.836,1.044,1.287
	c0.142,0.16,0.411,0.247,0.564,0.403c0.491,0.504,0.888,1.11,1.368,1.526c0.772,0,1.552,0,2.325,0
	c0.208,0.525,0.541,0.713,0.647,1.207c0.151,0.698-0.06,1.181,0.16,1.605c0.185,0.361,0.841,0.81,1.284,0.965
	c0.879,0.305,2.001,0.227,3.455,0.566c0.437,0.418,0.835,0.88,1.208,1.363c0.05,0.512,0.257,0.867,0.48,1.204
	c1.11,0.245,1.173,1.339,1.609,2.171c0.104,0.194,0.387,0.498,0.562,0.723c0.403,0.515,0.935,0.862,1.285,1.287
	c0.298,0.364,0.378,0.844,0.726,1.127c0.885,0.498,2.203,0.962,3.536,0.962c0.923,0.004,1.513,0.022,1.767,0.725
	c-0.757,0.242-1.547,0.369-2.331,0.322c-0.39-0.025-0.729-0.272-1.043-0.24c-0.215,0.022-0.498,0.156-0.727,0.24
	c-0.781,0.292-1.359,0.569-2.169,0.723c-0.86,0.502-1.414,1.132-2.168,1.689c-0.48,0.353-0.945,0.778-1.45,0.965
	c-0.873,0.32-1.18,0-1.928-0.323c-1.053-0.451-2.519-0.854-3.294-1.368c-0.455-0.297-0.721-0.787-1.206-0.963
	c-0.269-0.098-0.695-0.098-1.044-0.16c-0.763-0.143-1.232-0.296-1.851,0.16c-0.352-0.37-0.835-0.37-1.202-0.642
	c-0.963-0.701-1.502-1.768-2.334-2.573c-0.46-1.214-1.88-1.992-2.73-3.135c-0.153-0.203-0.324-0.429-0.483-0.643
	c-0.164-0.217-0.286-0.541-0.483-0.722c-0.534-0.494-1.584-0.514-2.576-0.646c-0.379-0.049-0.697-0.224-0.96-0.239
	c-0.506-0.033-1.227,0.013-1.851,0.078c-1.686,0.177-2.627,0.567-3.456,1.449c-0.272,0.285-0.439,0.357-0.48,0.562
	c-0.078,0.379,0.167,0.756,0.399,1.205c0.498,0.96,0.703,1.18,1.368,1.849c0.313,0.314,0.614,0.683,0.803,0.802
	c0.254,0.162,0.57,0.123,0.804,0.244c0.392,0.198,0.57,0.596,0.966,0.725c0.266,0,0.536,0,0.805,0
	c0.101,0.188,0.265,0.309,0.474,0.395c0.615-0.37,1.035-0.985,1.783-0.812c0.307,0.069,1.145,1.243,1.284,1.607
	c0.075,0.188,0.021,0.47,0.084,0.726c0.197,0.827,0.951,1.575,0.882,2.167c-0.054,0.466-0.731,0.776-1.205,1.044
	c-0.056,0.031-0.11,0.063-0.166,0.092c0,0.034-0.001,0.061-0.005,0.083c-0.062,0.518-0.46,0.811-0.643,1.286
	c-0.352,0.926-0.163,1.543,0.05,2.449c0.45,0.085,0.942,0.124,1.485,0.109c0.301,0.668,0.775,1.432,1.287,2.009
	c0.709,0.8,1.744,1.646,1.207,3.298c-0.292,0.888-0.715,1.069-1.929,1.202c-0.534,0.059-1.538,0.343-2.09-0.078
	c0.006-0.11-0.006-0.2-0.018-0.286c-0.022,0.054-0.047,0.104-0.072,0.137c-0.917,1.262-2.263,0.731-4.098,1.129
	c-1.061-0.307-1.431-1.305-2.816-1.285c-0.466-0.757-1.509-0.514-2.651-0.645c-0.42-0.049-0.771-0.226-1.042-0.24
	c-0.819-0.048-2.099-0.035-2.817,0.158c-0.731,0.2-1.393,0.644-2.087,0.883c-0.452,0.16-0.75,0.202-1.126,0.405
	c-0.998,0.535-1.962,1.341-2.733,2.011c-0.583-0.089-0.739,0.421-1.365,0.481c-0.882,0.084-2.096-0.781-2.251,0.564
	c0.783,0.662,1.767,1.122,2.813,1.524c0.335,0.042,0.445-0.141,0.721-0.16C15.203,79.079,16.829,78.557,18.442,78.303z"/>
</svg>
