<?xml version="1.0" encoding="utf-8"?>
<!-- Generator: Adobe Illustrator 16.0.0, SVG Export Plug-In . SVG Version: 6.00 Build 0)  -->
<!DOCTYPE svg PUBLIC "-//W3C//DTD SVG 1.1//EN" "http://www.w3.org/Graphics/SVG/1.1/DTD/svg11.dtd">
<svg version="1.1" id="Layer_1" xmlns="http://www.w3.org/2000/svg" xmlns:xlink="http://www.w3.org/1999/xlink" x="0px" y="0px"
	 width="100px" height="100px" viewBox="0 0 100 100" enable-background="new 0 0 100 100" xml:space="preserve">
<path d="M49.042,7.849c1.021-0.06,3.039-0.013,4.479,0.133c1.383,0.145,2.709,0.688,4.076,0.819c0.777,0.073,1.782-0.154,2.576,0
	c2.146,0.405,4.191,1.474,6.105,2.442c1.209,0.609,2.47,0.861,3.395,1.356c2.373,1.279,4.229,3.492,5.837,5.704
	c0.714,0.975,1.519,1.788,1.767,2.442c0.504,1.344,0.658,3.105,0.951,4.615c1.15,5.985-0.371,11.442-4.48,13.983
	c-2.111,1.302-5.02,1.539-5.562,4.207c-0.649,3.165,1.151,6.021,1.625,8.275c0.217,1.01,0.099,2.304,0.273,3.532
	c0.189,1.345,0.93,2.686,1.087,4.211c0.196,1.918,0.115,4.438,0,6.787c-0.108,2.127,0,4.568-0.272,6.512
	c-0.31,2.203-1.83,4.9-3.256,7.197c-1.482,2.373-2.646,4.754-4.211,6.24c-1.146,1.094-3.021,2.135-4.072,2.988
	c-2.325,1.889-4.396,3.467-7.602,4.75c-1.625,0.65-3.066,1.252-4.346,1.086c-1.98-0.258-3.979-2.775-5.023-4.342
	c-1.703-2.564-2.52-5.938-3.938-9.369c-0.693-1.688-1.391-4.309-2.304-5.293c-1.294-1.396-4.846-1.923-7.058-2.984
	c-1.51-0.722-4.076-3.342-5.024-4.75c-1.009-1.494-1.98-3.576-2.851-5.434c-1.453-3.074-2.974-5.646-3.39-9.641
	c-0.309-2.88-0.212-5.794-0.274-8.819c-0.035-1.737,0.135-3.641,0.274-5.43c0.701-9.308,5.339-16.126,10.586-21.173
	c2.52-2.435,5.702-4.08,8.957-5.975c2.377-1.385,4.195-2.136,7.193-3.259C45.991,8.13,47.62,7.93,49.042,7.849z M57.189,86.443
	c1.252-1.01,2.828-1.688,3.799-2.713c0.683-0.729,1.316-1.998,2.033-3.127c1.504-2.352,3.982-5.451,4.479-8.41
	c0.222-1.307-0.085-2.879,0-4.346c0.179-2.9,0.511-5.893,0.14-8.279c-0.186-1.18-0.754-2.28-0.951-3.397
	c-0.195-1.098-0.047-2.219-0.271-3.252c-0.646-2.951-2.313-5.75-2.038-8.962c0.123-1.406,0.624-2.566,1.086-3.392
	c1.729-3.092,5.29-3.017,7.469-5.163c2.537-2.499,2.057-9.816,0.543-13.166c-0.863-1.905-4.064-5.186-5.838-6.108
	c-0.649-0.337-1.55-0.343-2.312-0.678c-1.303-0.574-2.479-1.629-3.801-2.173c-0.762-0.31-1.692-0.397-2.579-0.678
	c-0.862-0.276-1.694-0.796-2.438-0.952c-3.311-0.69-7.042-0.682-9.913,0.139c-0.617,0.173-1.214,0.689-1.899,0.948
	c-0.748,0.285-1.626,0.249-2.312,0.543c-1.044,0.455-2.215,1.171-3.251,1.765c-2.901,1.655-5.764,3.19-8.013,5.158
	c-2.15,1.89-3.722,4.042-5.293,6.515c-3.198,5.034-5.07,9.655-4.885,17.785c0.085,3.912,0.008,8.924,0.948,11.941
	c0.517,1.66,1.626,3.225,2.443,5.025c1.333,2.939,2.458,4.879,4.345,6.924c0.462,0.492,1.433,1.67,1.899,1.902
	c0.905,0.447,2.015,0.361,2.855,0.675c1.603,0.612,3.529,1.476,4.746,2.442c1.464,1.167,2.188,3.829,3.125,5.977
	c2.1,4.801,2.735,10.016,6.784,12.352C51.869,90.489,54.471,88.636,57.189,86.443z"/>
<path d="M56.373,16.536c5.609,0.063,9.335,3.134,13.029,5.565c1.502,2.618,3.344,5.966,2.037,9.639
	c-1.229,3.444-6.398,4.796-9.504,6.381c-1.213,0.617-3.713,2.136-3.799,3.391c-0.107,1.578,2.78,3.211,3.395,4.479
	c0.548,1.132,0.921,2.895,1.083,4.208c0.436,3.468,0.729,7.076,0.95,10.587c0.24,3.694,0.035,7.243-0.678,10.86
	c-0.658,3.348-2.263,5.399-4.212,7.601c-1.884,2.139-3.993,4.146-6.782,5.024c-5.268,1.66-7.291-3.248-8.824-6.649
	c-0.689-1.53-1.521-3.392-1.764-4.479c-0.358-1.584,0.019-3.588-0.682-4.891c-0.532-0.986-2.319-1.363-3.798-2.169
	c-4.223-2.308-7.173-5.59-8.822-10.451c-1.133-3.337-1.826-7.205-1.495-11c0.431-4.893,2.342-9.321,4.21-13.57
	c1.838-4.191,3.918-8.292,6.649-10.995C41.21,16.265,49.824,12.354,56.373,16.536z M63.292,23.186
	c-0.901-0.574-2.071-1.502-2.708-1.764c-1.083-0.438-2.412-0.38-3.533-0.813c-1.471-0.57-2.346-1.608-3.667-1.901
	c-2.809-0.618-5.987-0.181-8.549,0.954c-5.763,2.542-8.063,7.522-10.86,13.98c-2.196,5.072-4.03,9.417-3.394,15.609
	c0.228,2.222,1.183,5.172,2.177,7.19c0.601,1.23,1.745,2.941,2.712,3.807c2.581,2.304,6.726,2.874,8.552,5.562
	c1.245,1.603,0.793,4.176,1.356,6.519c0.332,1.387,1.164,2.989,1.899,4.478c0.566,1.155,1.626,3.545,2.716,3.668
	c1.39,0.153,3.505-1.932,4.479-2.852c1.43-1.355,2.687-2.666,3.391-3.938c2.301-4.131,1.707-11.319,0.955-17.105
	c-0.394-3.01-0.592-6.611-1.358-8.281c-0.744-1.599-2.67-2.708-3.26-4.072c-0.683-1.576-0.56-3.413,0-4.752
	c2.146-5.139,9.331-5.426,13.032-9.229C67.619,25.763,65.857,24.821,63.292,23.186z"/>
<path d="M44.292,61.333c-1.718-2.292-4.407-3.213-6.241-5.293c-0.405-0.459-0.844-1.356-1.364-2.034
	c-0.493-0.663-1.171-1.349-1.356-2.042c-0.574-2.13,0.023-5.881,0.543-8.549c0.982-5.008,3.81-11.236,6.38-14.799
	c2.627-3.643,5.031-5.087,11.27-4.346c2.802,0.337,5.613,1.714,5.297,4.619c-0.354,3.206-5.047,4.107-7.199,5.838
	c-1.387,1.116-2.604,3.394-2.851,5.698c-0.089,0.869,0.204,1.695,0.273,2.716c0.069,0.952-0.243,2.296,0,3.392
	c0.212,0.934,1.198,1.676,1.629,2.581c0.324,0.684,0.438,1.562,0.812,2.31c0.352,0.686,0.877,1.202,1.086,1.896
	c0.421,1.371,0.566,3.144,0.543,4.754c-0.012,0.912-0.393,1.502-0.543,2.576c-0.348,2.539-0.203,5.213-3.125,5.293
	C46.634,66.033,45.455,63.066,44.292,61.333z M47.277,27.395c-4.812,5.916-8.356,13.093-8.688,23.483
	c0.632,1.001,1.502,1.756,1.903,2.99c2.073,1.722,4.77,3.159,6.38,5.424c0.801,1.142,1.236,2.81,2.573,3.26
	c-0.008-3.112,1.017-5.282,0.273-8.145c-0.146-0.562-0.72-1.349-1.083-2.034c-0.4-0.743-0.632-1.564-0.955-2.173
	c-0.617-1.171-1.568-1.857-1.765-2.985c-0.216-1.266,0.108-2.77,0-4.072c-0.27-3.346,0.039-4.962,0.817-7.466
	c0.312-0.998,1.996-2.901,2.581-3.392c1.841-1.558,4.63-1.788,6.106-4.072C53.407,27.244,49.728,27.096,47.277,27.395z"/>
<path fill="#FFFFFF" d="M48.09,91.736c-4.049-2.334-4.685-7.551-6.784-12.353c-0.936-2.146-1.661-4.808-3.125-5.975
	c-1.217-0.97-3.144-1.83-4.746-2.442c-0.84-0.312-1.95-0.228-2.855-0.675c-0.466-0.233-1.437-1.41-1.899-1.901
	c-1.888-2.045-3.013-3.983-4.345-6.925c-0.817-1.803-1.926-3.366-2.443-5.026c-0.94-3.018-0.863-8.028-0.948-11.94
	c-0.185-8.13,1.688-12.751,4.885-17.785c1.572-2.473,3.144-4.625,5.293-6.515c2.25-1.968,5.112-3.503,8.013-5.158
	c1.036-0.593,2.208-1.31,3.251-1.765c0.686-0.294,1.564-0.258,2.312-0.543c0.686-0.258,1.283-0.774,1.899-0.948
	c2.87-0.821,6.603-0.829,9.912-0.139c0.744,0.156,1.576,0.676,2.438,0.952c0.887,0.281,1.817,0.368,2.581,0.678
	c1.318,0.543,2.496,1.599,3.799,2.173c0.763,0.335,1.661,0.341,2.312,0.678c1.771,0.922,4.973,4.203,5.836,6.108
	c1.515,3.35,1.996,10.667-0.543,13.166c-2.178,2.146-5.74,2.071-7.468,5.163c-0.462,0.826-0.963,1.986-1.086,3.392
	c-0.276,3.213,1.396,6.012,2.038,8.962c0.225,1.033,0.073,2.154,0.271,3.252c0.194,1.117,0.767,2.219,0.951,3.396
	c0.368,2.39,0.039,5.379-0.141,8.279c-0.085,1.469,0.221,3.039,0,4.346c-0.497,2.959-2.979,6.062-4.479,8.41
	c-0.717,1.129-1.354,2.399-2.035,3.129c-0.971,1.023-2.545,1.703-3.799,2.711C54.471,88.636,51.869,90.489,48.09,91.736z
	 M37.369,20.067c-2.731,2.703-4.812,6.804-6.649,10.995c-1.868,4.25-3.779,8.678-4.21,13.57c-0.332,3.795,0.362,7.663,1.495,11
	c1.649,4.861,4.6,8.144,8.822,10.451c1.479,0.806,3.267,1.183,3.798,2.169c0.701,1.303,0.324,3.307,0.682,4.891
	c0.243,1.09,1.075,2.949,1.764,4.479c1.534,3.401,3.556,8.31,8.822,6.649c2.789-0.879,4.9-2.888,6.784-5.024
	c1.949-2.199,3.554-4.253,4.212-7.601c0.713-3.617,0.916-7.166,0.678-10.86c-0.224-3.511-0.517-7.119-0.95-10.587
	c-0.162-1.313-0.535-3.076-1.083-4.208c-0.612-1.268-3.501-2.901-3.395-4.479c0.084-1.254,2.584-2.774,3.799-3.391
	c3.104-1.585,8.274-2.938,9.504-6.381c1.307-3.673-0.534-7.021-2.039-9.639c-3.692-2.431-7.42-5.501-13.027-5.565
	C49.824,12.354,41.21,16.265,37.369,20.067z"/>
<path fill="#FFFFFF" d="M67.232,30.245c-3.701,3.803-10.887,4.09-13.032,9.229c-0.56,1.339-0.683,3.176,0,4.752
	c0.59,1.364,2.516,2.473,3.26,4.072c0.767,1.67,0.967,5.272,1.358,8.281c0.752,5.786,1.346,12.976-0.955,17.104
	c-0.704,1.271-1.961,2.582-3.391,3.938c-0.976,0.92-3.091,3.005-4.479,2.852c-1.09-0.123-2.15-2.513-2.716-3.668
	c-0.736-1.486-1.568-3.091-1.899-4.478c-0.562-2.343-0.111-4.916-1.356-6.521c-1.826-2.688-5.971-3.259-8.552-5.562
	c-0.967-0.863-2.111-2.574-2.712-3.808c-0.994-2.02-1.949-4.97-2.177-7.189c-0.636-6.191,1.198-10.537,3.394-15.609
	c2.797-6.458,5.097-11.438,10.86-13.98c2.562-1.135,5.74-1.572,8.549-0.954c1.321,0.293,2.196,1.331,3.667,1.901
	c1.121,0.433,2.45,0.375,3.533,0.813c0.637,0.262,1.807,1.19,2.708,1.764C65.857,24.821,67.619,25.763,67.232,30.245z
	 M49.446,65.943c2.92-0.08,2.777-2.754,3.125-5.293c0.15-1.074,0.531-1.664,0.543-2.576c0.023-1.61-0.122-3.383-0.543-4.754
	c-0.209-0.693-0.734-1.211-1.086-1.896c-0.375-0.748-0.488-1.626-0.812-2.31c-0.431-0.905-1.417-1.647-1.629-2.581
	c-0.243-1.096,0.069-2.44,0-3.392c-0.069-1.021-0.362-1.847-0.273-2.716c0.247-2.304,1.464-4.583,2.851-5.698
	c2.152-1.731,6.846-2.633,7.199-5.838c0.316-2.905-2.495-4.282-5.297-4.619c-6.236-0.742-8.642,0.703-11.27,4.346
	c-2.57,3.563-5.397,9.791-6.38,14.799c-0.52,2.668-1.117,6.418-0.543,8.549c0.185,0.693,0.863,1.379,1.356,2.042
	c0.52,0.678,0.959,1.575,1.364,2.034c1.833,2.08,4.523,3.001,6.241,5.293C45.455,63.066,46.634,66.033,49.446,65.943z"/>
<path fill="#FFFFFF" d="M55.422,28.211c-1.477,2.284-4.265,2.514-6.106,4.072c-0.585,0.491-2.269,2.395-2.581,3.392
	c-0.778,2.504-1.086,4.121-0.817,7.466c0.108,1.302-0.216,2.807,0,4.072c0.196,1.128,1.148,1.814,1.765,2.985
	c0.323,0.608,0.555,1.43,0.955,2.173c0.362,0.686,0.937,1.472,1.083,2.033c0.744,2.863-0.281,5.031-0.273,8.146
	c-1.337-0.45-1.772-2.118-2.573-3.26c-1.61-2.265-4.307-3.702-6.38-5.424c-0.401-1.233-1.271-1.988-1.903-2.99
	c0.332-10.39,3.876-17.567,8.688-23.483C49.728,27.096,53.407,27.244,55.422,28.211z"/>
</svg>
