<?xml version="1.0" encoding="utf-8"?>
<!-- Generator: Adobe Illustrator 16.0.0, SVG Export Plug-In . SVG Version: 6.00 Build 0)  -->
<!DOCTYPE svg PUBLIC "-//W3C//DTD SVG 1.1//EN" "http://www.w3.org/Graphics/SVG/1.1/DTD/svg11.dtd">
<svg version="1.1" id="Layer_1" xmlns="http://www.w3.org/2000/svg" xmlns:xlink="http://www.w3.org/1999/xlink" x="0px" y="0px"
	 width="100px" height="100px" viewBox="0 0 100 100" enable-background="new 0 0 100 100" xml:space="preserve">
<path d="M43.762,74.68c-0.746-0.389-1.842-0.008-2.689-0.211c-0.464-0.115-1.204-0.555-1.91-1.104
	c-0.607-0.469-1.397-0.828-1.797-1.305c-0.24-0.287-0.458-0.748-0.712-1.082c-0.557-0.725-1.388-2.105-1.453-3.518
	c-0.033-0.732,0.487-2.004,0.848-2.859c0.807-1.934,1.208-3.641,2.097-5.486c0.458-0.955,0.634-1.98,1.045-2.742
	c0.482-0.895,1.493-1.646,1.711-2.498c-1.727,0.609-3.243,0.096-4.465-0.502c-1.527-0.743-2.366-1.627-3.05-3.769
	c-0.643-2.012-0.306-3.853-0.433-5.744c-0.086-1.215-0.189-2.713-0.523-3.854c-0.42-1.417-1.364-2.848-1.844-4.347
	c-0.284-0.883-0.226-1.819-0.407-2.778c-0.492-2.632-1.835-5.494-2.452-8.514c-0.733-3.602-1.6-7.326-2.601-10.345
	c-0.567-1.716-1.201-3.786-1.464-5.466c-0.072-0.454,0.079-0.96,0.091-1.554c0.032-1.586-0.17-2.11,0.62-3.396
	c0.696-1.127,2.255-2.691,4.335-2.519c1.443,0.119,2.642,1.522,3.69,2.665c0.957,1.047,2.295,1.955,3.195,3.049
	c0.472,0.58,0.877,1.351,1.306,2.029c0.436,0.685,0.989,1.283,1.364,1.925c0.574,0.986,0.94,2.152,1.548,3.238
	c0.561,0.999,1.134,2.072,1.586,3.058c1.012,2.223,1.481,4.707,3.399,5.712c2.719-1.08,4.685-2.835,7.128-4.459
	c2.286-1.515,5.013-3.352,8.359-3.343c2.526,0.006,4.745,1.413,6.209,3.516c0.692,1,0.958,2.504,1.305,4.237
	c0.55,2.724,1.181,5.167,0.981,7.465c-0.076,0.913-0.531,1.833-0.688,2.819c-0.155,1.001-0.286,1.982-0.485,2.931
	c-0.215,1.014-0.14,2.052-0.389,2.994c-0.236,0.886-0.757,1.67-1.01,2.563c-0.229,0.793-0.314,1.551-0.582,2.278
	c-0.727,1.996-1.928,4.374-2.035,6.661c4.229-0.841,7.891-1.208,11.219-0.287c2.517,0.694,4.512,2.756,5.051,6.799
	c0.08,0.588-0.189,1.23-0.166,1.914c0.02,0.609,0.271,1.225,0.229,1.809c-0.092,1.145-0.729,2.611-1.127,4.037
	c-1.157,4.127-2.921,7.543-5.229,10.914c-1.504,2.197-3.076,4.492-4.685,6.604c-1.235,1.623-2.466,3.162-3.719,4.821
	c-0.888,1.167-1.642,2.175-2.751,3.37c-0.579,0.615-1.037,1.34-1.562,1.771c-0.734,0.613-1.643,1.111-2.418,1.755
	c-1.211,0.998-2.461,2.043-4.137,2.639c-3.264,1.164-6.975,1.578-10.453,1.869c-1.794,0.147-3.376,0.526-4.969,0.479
	c-3.669-0.11-6.47-0.293-8.938-2.616c-0.313-0.296-0.541-0.787-0.895-1.119c-0.403-0.375-0.811-0.552-1.01-0.916
	c-0.333-0.604-0.443-1.487-0.633-2.037c0.59-2.918,2.677-5.272,4.509-7.582c0.663-0.832,1.111-1.821,1.867-2.539
	c0.415-0.394,0.853-0.694,1.236-1.094c1.26-1.308,3.136-2.67,4.829-3.845C41.09,76.309,42.288,75.285,43.762,74.68z M38.204,65.043
	c-0.591,1.682-1.311,2.711-0.007,4.42c0.869,1.129,2.201,2.561,3.475,2.805c0.94,0.186,2.081,0.172,3.581,0.062
	c1.11-0.084,3.008-0.445,3.351,0.461c0.512,1.344-1.76,2.459-2.833,3.051c-4.168,2.305-8.082,5.104-10.85,8.008
	c-0.578,0.605-0.92,1.422-1.477,2.094c-0.547,0.664-1.036,1.328-1.578,2.033c-0.676,0.885-2.536,3.314-2.247,4.596
	c0.121,0.559,1.194,1.486,1.72,1.998c1.616,1.572,3.241,1.992,5.548,2c2.937,0.012,5.844-0.361,9.32-0.715
	c2.473-0.252,5.285-0.768,7.635-1.619c1.205-0.441,1.975-1.031,3.395-1.59c2.039-1.694,3.789-3.33,5.328-5.168
	c0.506-0.605,0.824-1.355,1.338-1.971c2.008-2.4,3.781-5.018,5.742-7.736c1.771-2.463,3.687-5.068,5.057-8.066
	c0.923-2.01,1.771-4.6,2.41-6.848c0.242-0.842,0.658-1.705,0.72-2.398c0.028-0.383-0.172-0.988-0.188-1.65
	c-0.014-0.574,0.213-1.158,0.15-1.654c-0.182-1.469-0.779-3.17-1.479-3.932c-0.709-0.781-1.879-1.021-2.862-1.188
	c-1.058-0.176-2.402-0.396-3.41-0.357c-0.995,0.036-2.158,0.227-3.296,0.371c-1.124,0.143-2.502,0.659-3.495,0.6
	c-2.407-0.151-1.688-3.633-1.22-5.193c0.654-2.187,1.478-3.854,2.128-6.006c0.573-1.92,1.062-3.155,1.346-5.118
	c0.291-2.005,1.026-4.469,1.187-6.347c0.187-2.193-0.297-4.044-0.846-6.654c-0.246-1.144-0.299-2.426-0.837-3.426
	c-0.346-0.647-1.502-1.861-2.026-2.176c-3.176-1.906-7.654,0.595-10.774,2.889c-1.035,0.758-2.153,1.571-3.285,2.323
	c-1.199,0.798-2.91,1.913-4.244,1.903c-2.358-0.023-3.506-2.856-4.594-5.734c-0.698-1.835-2.03-3.646-2.963-5.662
	c-0.212-0.459-0.324-1.014-0.561-1.463c-0.321-0.608-0.938-1.181-1.323-1.769c-0.479-0.732-0.814-1.484-1.206-1.969
	C33.24,7.27,31.943,6.335,30.93,5.25c-0.917-0.987-1.634-2.102-2.896-1.941c-2.104,0.267-2.57,3.003-2.347,4.875
	c0.228,1.886,0.931,3.724,1.487,5.547c0.946,3.095,1.805,6.614,2.561,10.185c0.65,3.077,2.009,6.015,2.536,8.832
	c0.14,0.745,0.03,1.461,0.258,2.225c0.15,0.505,0.531,0.924,0.717,1.42c0.17,0.444,0.217,0.979,0.385,1.426
	c0.24,0.641,0.64,1.172,0.806,1.738c0.237,0.819,0.25,1.84,0.405,2.777c0.161,0.972,0.37,1.918,0.405,2.78
	c0.056,1.526-0.112,4.135,0.989,5.594c0.546,0.726,2.721,1.489,3.562,1.257c0.865-0.244,1.147-1.117,1.923-1.707
	c0.321-0.246,0.729-0.455,1.061-0.791c0.392-0.401,0.578-0.792,1.139-0.819c1.062-0.051,1.168,1.373,0.934,2.213
	c-0.729,2.598-2.387,4.547-3.771,6.531C40.006,59.609,39.088,62.537,38.204,65.043z"/>
<path d="M53.141,70.383c-2.968-0.637-6.791,0.76-9.361-0.378c-1.409-0.624-3.327-2.429-3.542-4.655
	c-0.056-0.602,0.026-1.383,0.145-1.994c0.272-1.369,0.875-2.896,1.382-4.361c1.416-4.117,4.62-7.916,6.086-11.822
	c0.258-0.691,0.396-1.382,0.643-2.04c0.258-0.691,0.393-1.431,0.363-2.134c-2.237,1.246-4.114,4.085-7.341,4.938
	c-3.534,0.935-5.094-1.784-5.629-5.795c-0.208-1.572-0.292-3.151-0.534-4.527c-0.565-3.22-1.488-6.975-2.434-9.71
	c-1.775-5.164-3.298-8.2-4.921-13.29c-0.484-1.526-1.25-3.757-1.32-5.251c-0.049-1.036,0.438-2.921,0.936-3.479
	c1.556-1.742,3.661,0.102,4.681,1.294c1.018,1.196,1.788,2.802,2.463,4.438c0.668,1.631,1.658,2.974,2.44,4.355
	c0.845,1.493,1.566,3.12,2.268,4.659c1.346,2.959,2.048,6.618,4.584,7.604c3.55-1.658,5.373-4.417,8.347-6.568
	c0.687-0.493,1.289-1.134,1.965-1.547c2.738-1.668,6.566-2.764,8.5-0.918c1.094,1.044,1.878,3.444,2.268,5.593
	c0.414,2.311-0.091,4.891-0.479,7.093c-0.4,2.274-0.879,4.397-1.403,6.49c-1.108,4.406-3.043,8.419-3.405,12.632
	c-0.119,1.392,0.039,2.886-0.013,4.082c3.749,0.938,8.673-2.184,11.998-1.176c0.879,0.265,2.75,1.453,3.286,2.431
	c0.439,0.807,0.966,3.485,0.854,4.78c-0.165,1.978-1.629,4.597-2.776,6.435c-1.313,2.104-2.244,4.073-3.58,5.974
	c-2.01,2.852-3.629,5.928-5.522,8.87c-0.646,1-1.543,1.772-2.161,2.701c-0.344,0.513-0.438,1.092-0.714,1.463
	c-0.491,0.666-1.354,1.474-2.151,2.104c-0.777,0.617-1.586,1.388-2.373,1.91c-1.446,0.967-3.287,1.601-4.979,2.354
	c-3.641,1.627-10.03,2.681-13.654,1.959c-0.775-0.149-2.861-0.899-3.528-1.431c-0.514-0.409-1.525-1.45-1.732-2.338
	c-0.307-1.34,0.561-2.219,0.759-3.521c1.313-1.969,3.297-3.489,5.245-5.142c1.872-1.584,3.762-3.346,5.849-4.795
	c1.097-0.758,2.193-1.396,3.227-2.226C49.88,73.842,51.884,72.455,53.141,70.383z M38.522,92.223
	c4.172,0.84,12.524-1.229,16.652-3.783c0.791-0.49,1.641-1.334,2.516-2.035c1.459-1.17,2.424-2.186,3.399-3.459
	c0.336-0.432,0.716-0.926,0.993-1.369c1.825-2.889,3.555-6.092,5.384-8.746c1.246-1.803,2.233-3.809,3.522-5.869
	c1.222-1.945,2.729-4.434,2.82-6.273c0.037-0.734-0.184-2.514-0.635-3.314c-0.389-0.693-1.801-1.475-2.872-1.523
	c-1.762-0.084-3.854,1.072-5.924,1.332c-1.678,0.213-4.19,0.615-5.37,0.248c-1.693-0.521-1.555-2.719-1.49-4.611
	c0.129-3.917,0.83-7.128,1.855-10.174c1.463-4.335,2.795-8.736,3.309-13.031c0.146-1.253,0.17-2.649,0.096-3.764
	c-0.109-1.526-0.713-4.246-1.68-4.985c-0.779-0.595-1.906-0.224-3.078,0.23c-1.606,0.625-2.646,1.268-3.711,2.016
	c-2.598,1.816-4.041,3.976-6.708,5.703c-1.024,0.666-2.237,1.699-3.513,1.791c-0.674,0.047-1.916-0.609-2.505-1.113
	c-1.826-1.559-2.856-4.313-4.019-7.076c-1.139-2.703-2.466-5.23-3.789-7.478c-1.531-2.601-2.418-6.036-4.481-7.205
	c-0.464,1.614,0.082,3.296,0.705,5.161c1.55,4.616,3.814,9.148,5.37,14.017c1.259,3.935,2.106,8.084,2.687,11.596
	c0.2,1.235,0.156,2.455,0.376,3.638c0.14,0.749,0.617,3,1.153,3.342c0.611,0.392,1.963-0.161,2.792-0.663
	c2.629-1.588,3.674-3.606,6.829-4.631c2.479,0.504,2.049,3.929,1.428,5.645c-0.359,1.005-0.65,2.064-1.004,2.903
	c-1.65,3.908-4.079,6.764-5.429,10.799c-0.625,1.855-1.986,4.34-1.309,6.207c1.768,4.893,10.917-0.589,12.541,3.689
	c0.532,1.414-0.39,2.438-1.218,3.383c-0.884,1.01-1.502,1.988-2.321,2.748c-2.003,1.857-4.164,2.971-6.25,4.562
	c-2.002,1.521-3.971,3.209-5.848,4.793c-1.851,1.562-4.033,3.238-4.343,5.664C36.243,91.449,37.337,91.98,38.522,92.223z"/>
<path d="M58.689,66.688c-1.381-0.262-2.901,0.188-4.375,0.156c-0.625-0.018-1.271-0.215-1.936-0.248
	c-0.695-0.037-1.458,0.053-2.052-0.045c-1.022-0.174-2.843-0.941-3.236-1.936c-0.1-0.254-0.072-0.863-0.104-1.332
	c-0.198-2.996,0.391-4.902,1.25-7.383c0.741-2.139,1.443-4.232,2-6.482c0.285-1.138,0.703-2.175,1-3.24
	c0.269-0.951,0.359-1.948,0.672-2.895c0.566-1.734,1.29-3.398,1.135-5.574c-0.334-0.342-0.628-0.763-1.086-0.896
	c-2.752,0.2-5.092,2.763-7.204,3.544c-1.688,0.623-3.844,0.881-4.41-0.603c-0.296-0.786,0.145-3.203,0.394-3.927
	c0.186-0.542,0.74-1.549,1.222-1.772c0.47-0.215,0.977-0.03,1.49-0.145c2.026-0.447,4.382-2.574,5.981-3.982
	c2.495-2.188,4.177-3.719,6.772-5.466c1.549-1.038,3.567-1.709,4.254,0.645c0.414,1.437-0.021,3.444-0.237,4.82
	c-0.242,1.521-0.449,3.084-0.863,4.392c-0.236,0.756-0.737,1.492-0.994,2.304c-0.868,2.735-1.213,6.148-1.73,9.382
	c-0.26,1.61-0.793,3.113-1.058,4.616c-0.294,1.648-0.957,3.105-1.181,4.48c-0.185,1.141-0.229,2.768,0.524,3.85
	c1.31,1.881,6.087,0.188,8.985-0.373c1.67-0.318,3.299-0.346,4.658-0.055c1.347,0.287,2.781,0.566,3.109,2.73
	c0.062,0.438-0.007,1.227-0.131,1.732c-0.505,2.064-1.953,3.729-3.127,5.766c-1.036,1.787-2.314,3.779-3.45,5.51
	c-0.606,0.928-1.305,1.787-1.903,2.723c-1.203,1.877-2.582,3.363-4.15,5.102c-0.723,0.801-1.836,1.576-2.329,2.412
	c-0.241,0.406-0.272,1.102-0.552,1.416c-1.272,1.451-4.519,2.104-6.973,3.145c-1.599,0.682-6.841,2.225-8.047,0.711
	c-1.497-1.873,0.925-4.055,2.34-5.211c0.759-0.623,1.527-1.148,2.18-1.688c0.733-0.604,1.289-1.275,1.9-1.783
	c1.668-1.389,3.82-2.424,5.646-3.979c0.801-0.684,1.709-1.387,2.471-2.189c1.081-1.139,2.44-1.803,2.991-3.094
	C59.033,70.658,59.423,68.123,58.689,66.688z M48.222,86.902c1.252-0.576,3.51-1.215,5.025-1.855
	c1.466-0.623,2.237-2.199,3.345-3.361c0.908-0.943,1.916-1.859,2.719-2.848c1.043-1.279,1.933-2.818,2.955-4.189
	c2.125-2.854,3.549-5.561,5.508-8.609c0.688-1.074,2.429-3.752,1.728-4.965c-0.229-0.396-1.806-0.764-2.421-0.797
	c-0.712-0.031-1.682,0.092-2.482,0.242c-2.299,0.434-5.184,1.252-7.279,1.354c-1.375,0.069-3.322-0.672-4.008-1.644
	c-2.143-3.026-0.468-6.657,0.125-9.033c0.305-1.217,0.519-2.441,0.812-3.617c0.621-2.434,0.701-4.996,1.229-7.463
	c1.062-4.961,3.521-9.144,2.957-14.636c-2.695,1.307-4.58,3.388-6.855,5.148c-2.389,1.85-5.013,4.923-8.787,5.244
	c-0.582,0.849-0.515,2.07-0.685,3.158c3.039-0.657,4.699-2.732,7.162-3.706c0.857-0.337,2.009-0.753,2.974-0.627
	c0.767,0.101,2.386,1.268,2.724,2.244c0.288,0.834,0.163,2.78-0.054,3.92c-0.248,1.308-0.977,2.717-1.362,4.103
	c-0.183,0.656-0.163,1.375-0.325,1.954c-0.14,0.503-0.391,0.947-0.531,1.501c-0.688,2.686-1.473,5.432-2.375,7.941
	c-0.833,2.334-1.73,4.414-1.088,7.342c0.647,0.621,1.553,0.58,2.533,0.594c0.846,0.01,1.748,0.281,2.717,0.297
	c2.156,0.025,4.682-0.787,5.838,0.557c1.431,2.074,1.033,4.787,0.531,6.732c-0.468,1.822-1.822,2.719-3.177,3.994
	c-1.623,1.541-3.094,2.963-5.043,4.324c-1.228,0.861-2.575,1.66-3.716,2.609c-1.089,0.904-1.99,1.924-3.099,2.697
	c-0.601,0.422-1.168,0.816-1.688,1.307c-0.454,0.422-0.946,0.898-1.132,1.486C44.904,87.809,46.935,87.498,48.222,86.902z"/>
<path fill="#FFFFFF" d="M41.08,57.393c1.385-1.982,3.042-3.934,3.771-6.531c0.235-0.839,0.128-2.263-0.934-2.211
	c-0.561,0.027-0.747,0.417-1.139,0.819c-0.332,0.336-0.74,0.545-1.061,0.791c-0.775,0.59-1.058,1.463-1.923,1.707
	c-0.841,0.232-3.016-0.531-3.562-1.257c-1.102-1.459-0.934-4.068-0.989-5.594c-0.035-0.862-0.245-1.808-0.405-2.78
	c-0.156-0.937-0.168-1.958-0.405-2.777c-0.166-0.566-0.566-1.097-0.806-1.738c-0.168-0.447-0.214-0.982-0.385-1.426
	c-0.186-0.497-0.567-0.916-0.717-1.42c-0.228-0.763-0.118-1.48-0.258-2.225c-0.527-2.817-1.886-5.755-2.536-8.832
	c-0.756-3.571-1.615-7.09-2.561-10.185c-0.556-1.823-1.259-3.661-1.487-5.547c-0.224-1.872,0.242-4.608,2.347-4.875
	c1.262-0.161,1.979,0.954,2.896,1.941c1.013,1.085,2.31,2.02,3.099,2.993c0.392,0.484,0.727,1.236,1.206,1.969
	c0.384,0.588,1.001,1.16,1.323,1.769c0.237,0.449,0.349,1.004,0.561,1.463c0.934,2.015,2.265,3.826,2.963,5.662
	c1.088,2.878,2.236,5.711,4.594,5.734c1.334,0.01,3.045-1.105,4.244-1.903c1.132-0.752,2.25-1.565,3.285-2.323
	c3.119-2.294,7.601-4.795,10.775-2.889c0.523,0.315,1.682,1.528,2.025,2.176c0.538,1,0.591,2.282,0.837,3.426
	c0.55,2.61,1.03,4.461,0.847,6.654c-0.158,1.878-0.896,4.341-1.188,6.347c-0.284,1.962-0.771,3.197-1.348,5.118
	c-0.648,2.152-1.473,3.819-2.127,6.006c-0.469,1.56-1.188,5.042,1.221,5.194c0.992,0.061,2.371-0.457,3.495-0.601
	c1.138-0.146,2.301-0.335,3.296-0.371c1.008-0.04,2.354,0.183,3.408,0.357c0.984,0.166,2.154,0.405,2.863,1.187
	c0.698,0.764,1.299,2.465,1.479,3.934c0.062,0.496-0.164,1.08-0.151,1.654c0.02,0.662,0.221,1.269,0.189,1.649
	c-0.061,0.692-0.477,1.558-0.719,2.397c-0.641,2.248-1.488,4.838-2.412,6.849c-1.369,2.998-3.282,5.604-5.055,8.065
	c-1.962,2.722-3.736,5.336-5.742,7.737c-0.515,0.613-0.832,1.363-1.338,1.97c-1.539,1.838-3.289,3.475-5.328,5.168
	c-1.42,0.56-2.188,1.147-3.396,1.59c-2.353,0.854-5.162,1.367-7.635,1.619c-3.476,0.354-6.383,0.728-9.32,0.715
	c-2.308-0.008-3.932-0.428-5.548-2c-0.526-0.512-1.599-1.438-1.72-1.998c-0.29-1.278,1.571-3.709,2.247-4.596
	c0.542-0.705,1.031-1.369,1.578-2.033c0.557-0.672,0.898-1.485,1.477-2.094c2.768-2.904,6.682-5.703,10.85-8.007
	c1.073-0.592,3.346-1.707,2.833-3.051c-0.342-0.906-2.241-0.545-3.351-0.461c-1.5,0.11-2.64,0.123-3.581-0.062
	c-1.274-0.244-2.605-1.677-3.475-2.806c-1.303-1.709-0.584-2.737,0.007-4.42C39.088,62.537,40.006,59.609,41.08,57.393z
	 M47.873,75.445c-1.034,0.828-2.13,1.467-3.227,2.225c-2.087,1.449-3.977,3.211-5.849,4.795c-1.948,1.65-3.932,3.172-5.245,5.141
	c-0.198,1.303-1.066,2.182-0.759,3.521c0.207,0.889,1.218,1.93,1.732,2.338c0.667,0.529,2.752,1.279,3.528,1.432
	c3.625,0.721,10.014-0.332,13.654-1.959c1.691-0.754,3.531-1.389,4.979-2.354c0.787-0.522,1.597-1.293,2.375-1.91
	c0.795-0.633,1.66-1.438,2.15-2.104c0.275-0.37,0.37-0.95,0.714-1.463c0.618-0.929,1.517-1.701,2.161-2.701
	c1.895-2.942,3.514-6.021,5.523-8.87c1.336-1.898,2.266-3.869,3.58-5.974c1.146-1.838,2.609-4.457,2.775-6.435
	c0.109-1.295-0.416-3.976-0.855-4.781c-0.535-0.977-2.406-2.165-3.285-2.43c-3.325-1.009-8.249,2.112-11.998,1.176
	c0.052-1.196-0.105-2.69,0.013-4.082c0.362-4.213,2.298-8.227,3.405-12.632c0.525-2.093,1.003-4.216,1.404-6.49
	c0.389-2.202,0.894-4.782,0.479-7.093c-0.391-2.149-1.174-4.549-2.268-5.593c-1.934-1.845-5.76-0.75-8.498,0.918
	c-0.678,0.413-1.28,1.054-1.965,1.547c-2.976,2.151-4.797,4.911-8.349,6.568c-2.536-0.986-3.239-4.645-4.584-7.604
	c-0.701-1.539-1.423-3.166-2.268-4.659c-0.782-1.381-1.772-2.725-2.44-4.355c-0.675-1.636-1.446-3.242-2.463-4.438
	c-1.02-1.192-3.125-3.036-4.681-1.294c-0.498,0.559-0.984,2.444-0.936,3.479c0.07,1.495,0.836,3.726,1.32,5.251
	c1.623,5.09,3.146,8.126,4.921,13.29c0.946,2.736,1.868,6.49,2.434,9.71c0.242,1.376,0.326,2.955,0.534,4.527
	c0.535,4.011,2.095,6.73,5.629,5.795c3.227-0.853,5.104-3.692,7.341-4.938c0.03,0.704-0.104,1.443-0.363,2.134
	c-0.247,0.658-0.384,1.349-0.643,2.04c-1.466,3.906-4.671,7.705-6.086,11.822c-0.507,1.467-1.11,2.994-1.382,4.363
	c-0.119,0.609-0.201,1.393-0.145,1.994c0.214,2.227,2.132,4.029,3.542,4.653c2.57,1.14,6.393-0.259,9.361,0.378
	C51.884,72.455,49.88,73.842,47.873,75.445z"/>
<path fill="#FFFFFF" d="M35.452,90.58c0.31-2.426,2.492-4.102,4.343-5.664c1.876-1.584,3.846-3.271,5.848-4.793
	c2.088-1.594,4.248-2.705,6.251-4.562c0.818-0.76,1.438-1.74,2.32-2.748c0.828-0.945,1.75-1.969,1.219-3.383
	c-1.621-4.279-10.772,1.201-12.542-3.689c-0.678-1.867,0.684-4.352,1.309-6.207c1.351-4.035,3.779-6.893,5.429-10.799
	c0.354-0.839,0.645-1.897,1.004-2.903c0.622-1.716,1.054-5.141-1.428-5.645c-3.154,1.025-4.2,3.042-6.829,4.631
	c-0.829,0.502-2.181,1.055-2.792,0.663c-0.536-0.342-1.013-2.593-1.153-3.342c-0.22-1.183-0.176-2.402-0.376-3.638
	c-0.581-3.511-1.428-7.661-2.687-11.596c-1.556-4.868-3.819-9.4-5.37-14.017c-0.623-1.865-1.168-3.547-0.705-5.161
	c2.062,1.169,2.95,4.604,4.481,7.205c1.323,2.248,2.649,4.775,3.789,7.478c1.162,2.763,2.193,5.517,4.019,7.076
	c0.589,0.503,1.831,1.16,2.505,1.113c1.276-0.092,2.489-1.125,3.513-1.791c2.668-1.727,4.111-3.887,6.708-5.703
	c1.065-0.748,2.104-1.391,3.709-2.016c1.174-0.454,2.301-0.825,3.08-0.23c0.965,0.739,1.568,3.458,1.68,4.985
	c0.072,1.115,0.052,2.511-0.096,3.764c-0.514,4.295-1.846,8.696-3.309,13.031c-1.025,3.046-1.729,6.258-1.857,10.174
	c-0.062,1.895-0.201,4.09,1.492,4.611c1.18,0.367,3.692-0.035,5.37-0.248c2.067-0.26,4.162-1.416,5.925-1.332
	c1.07,0.049,2.482,0.83,2.871,1.523c0.451,0.803,0.67,2.58,0.633,3.314c-0.092,1.844-1.599,4.326-2.818,6.273
	c-1.289,2.062-2.276,4.066-3.522,5.869c-1.829,2.654-3.559,5.857-5.384,8.744c-0.275,0.445-0.657,0.939-0.993,1.371
	c-0.978,1.273-1.94,2.289-3.399,3.459c-0.873,0.701-1.725,1.543-2.516,2.035c-4.128,2.557-12.48,4.623-16.652,3.783
	C37.337,91.98,36.243,91.449,35.452,90.58z M58.536,71.826c-0.55,1.291-1.91,1.955-2.991,3.094c-0.762,0.803-1.67,1.508-2.471,2.189
	c-1.825,1.555-3.977,2.59-5.646,3.979c-0.611,0.508-1.167,1.18-1.9,1.783c-0.652,0.537-1.42,1.064-2.18,1.688
	c-1.416,1.156-3.837,3.338-2.34,5.211c1.206,1.514,6.448-0.029,8.047-0.711c2.457-1.041,5.7-1.691,6.974-3.145
	c0.277-0.314,0.31-1.01,0.551-1.416c0.493-0.836,1.605-1.611,2.329-2.412c1.569-1.738,2.946-3.225,4.149-5.102
	c0.602-0.936,1.297-1.795,1.904-2.725c1.135-1.729,2.414-3.721,3.45-5.508c1.174-2.035,2.622-3.697,3.127-5.766
	c0.124-0.51,0.192-1.295,0.131-1.732c-0.328-2.164-1.765-2.443-3.108-2.73c-1.36-0.291-2.99-0.266-4.66,0.055
	c-2.897,0.561-7.676,2.254-8.984,0.373c-0.753-1.082-0.709-2.709-0.523-3.85c0.223-1.375,0.885-2.832,1.18-4.48
	c0.265-1.503,0.798-3.006,1.058-4.616c0.521-3.234,0.862-6.647,1.729-9.382c0.258-0.812,0.759-1.548,0.996-2.304
	c0.414-1.308,0.621-2.871,0.863-4.392c0.215-1.376,0.65-3.383,0.236-4.82c-0.688-2.354-2.705-1.682-4.254-0.645
	c-2.596,1.747-4.277,3.278-6.772,5.466c-1.599,1.408-3.956,3.535-5.981,3.982c-0.513,0.115-1.02-0.07-1.49,0.145
	c-0.482,0.223-1.036,1.23-1.222,1.772c-0.25,0.724-0.69,3.141-0.394,3.927c0.566,1.484,2.722,1.226,4.41,0.603
	c2.112-0.781,4.451-3.344,7.204-3.544c0.458,0.133,0.752,0.554,1.086,0.896c0.155,2.176-0.567,3.839-1.135,5.574
	c-0.312,0.947-0.403,1.944-0.673,2.895c-0.295,1.065-0.713,2.102-0.999,3.24c-0.557,2.25-1.26,4.346-2,6.482
	c-0.859,2.479-1.448,4.387-1.25,7.383c0.033,0.469,0.005,1.078,0.104,1.332c0.393,0.994,2.214,1.762,3.236,1.936
	c0.594,0.098,1.354,0.008,2.052,0.045c0.664,0.033,1.312,0.23,1.937,0.248c1.473,0.031,2.994-0.418,4.373-0.156
	C59.423,68.123,59.033,70.658,58.536,71.826z"/>
<path fill="#FFFFFF" d="M42.993,88.303c0.186-0.588,0.678-1.066,1.132-1.488c0.52-0.486,1.087-0.885,1.688-1.305
	c1.108-0.775,2.009-1.793,3.099-2.699c1.141-0.949,2.488-1.748,3.716-2.607c1.949-1.361,3.42-2.783,5.043-4.324
	c1.354-1.273,2.709-2.172,3.177-3.994c0.502-1.943,0.897-4.656-0.531-6.73c-1.156-1.344-3.683-0.531-5.838-0.557
	c-0.97-0.018-1.871-0.287-2.717-0.299c-0.979-0.014-1.886,0.027-2.533-0.594c-0.643-2.93,0.254-5.01,1.088-7.344
	c0.901-2.51,1.686-5.254,2.375-7.939c0.143-0.554,0.394-0.998,0.531-1.501c0.162-0.579,0.145-1.298,0.325-1.954
	c0.388-1.385,1.114-2.794,1.362-4.103c0.217-1.141,0.342-3.086,0.054-3.92c-0.338-0.976-1.957-2.143-2.724-2.244
	c-0.965-0.126-2.117,0.29-2.974,0.627c-2.463,0.974-4.123,3.048-7.162,3.706c0.17-1.088,0.104-2.31,0.685-3.158
	c3.774-0.321,6.398-3.394,8.787-5.244c2.275-1.76,4.16-3.841,6.855-5.148c0.564,5.492-1.895,9.675-2.957,14.636
	c-0.527,2.467-0.607,5.029-1.229,7.463c-0.295,1.175-0.511,2.399-0.812,3.617c-0.593,2.376-2.268,6.007-0.125,9.033
	c0.686,0.972,2.633,1.713,4.008,1.644c2.098-0.103,4.98-0.922,7.279-1.354c0.803-0.151,1.771-0.274,2.482-0.241
	c0.615,0.032,2.191,0.396,2.421,0.795c0.701,1.213-1.037,3.891-1.728,4.965c-1.959,3.051-3.383,5.758-5.508,8.61
	c-1.022,1.371-1.912,2.908-2.955,4.188c-0.803,0.986-1.811,1.902-2.719,2.849c-1.107,1.162-1.879,2.737-3.345,3.36
	c-1.515,0.642-3.772,1.279-5.025,1.854C46.935,87.498,44.904,87.809,42.993,88.303z"/>
</svg>
