<?xml version="1.0" encoding="utf-8"?>
<!-- Generator: Adobe Illustrator 16.0.0, SVG Export Plug-In . SVG Version: 6.00 Build 0)  -->
<!DOCTYPE svg PUBLIC "-//W3C//DTD SVG 1.1//EN" "http://www.w3.org/Graphics/SVG/1.1/DTD/svg11.dtd">
<svg version="1.1" id="Layer_1" xmlns="http://www.w3.org/2000/svg" xmlns:xlink="http://www.w3.org/1999/xlink" x="0px" y="0px"
	 width="100px" height="100px" viewBox="0 0 100 100" enable-background="new 0 0 100 100" xml:space="preserve">
<path fill-rule="evenodd" clip-rule="evenodd" fill="#4D4D4D" d="M54.581,70.987c1.973-2.486,3.859-2.851,6.415-3.884
	c3.214-1.298,5.054-2.17,8.236-2.157c1.759,0.004,5.324,0.487,6.992,1.357c1.686,0.873,4.001,2.996,5.039,4.741
	c1.165,1.962,1.685,5.581,1.436,7.694c-0.281,2.352-1.909,4.853-3.328,7.479c-3.588,6.643-9.77,9.311-15.291,8.329
	c-1.004-0.179-2.188-0.653-3.299-1.038c-2.661-0.92-5.101-1.705-8.025-5.082c-1.036-1.199-2.331-4.243-2.521-6.103
	c-0.122-1.192,0.358-2.479,0.737-3.854c0.384-1.385,0.22-2.494,0.811-3.782C52.355,73.436,53.379,72.501,54.581,70.987z
	 M53.328,81.385c0.293,3.204,4.34,6.484,7.114,7.805c1.972,0.938,2.951,1.699,4.737,1.847c2.714,0.228,6.732-1.141,9-2.819
	c3.547-2.627,5.356-5.972,5.404-9.246c0.029-1.979-0.136-4.45-1.247-6.135c-1.073-1.628-3.224-3.022-4.501-3.413
	c-4.259-1.313-10.81-1.039-15.074,1.366c-1.822,1.03-3.417,2.593-4.778,3.903c-0.025,0.022-0.051,0.047-0.07,0.073
	c-1.262,1.735-1.798,4.056-1.738,5.943C52.567,81.275,52.94,81.08,53.328,81.385z"/>
<path fill-rule="evenodd" clip-rule="evenodd" fill="#4D4D4D" d="M54.829,79.352c0.694-2.228,3.031-4.796,5.354-6.118
	c0.915-0.524,3.358-1.246,4.567-1.485c1.253-0.244,3.143-0.113,4.612-0.063c2.179,0.074,4.769-0.11,6.674,2.57
	c0.844,1.179,1.097,4.617,0.814,5.863c-0.225,0.981-1.027,2.778-1.81,3.672c-0.312,0.359-0.873,0.674-1.249,1.03
	c-2.695,2.586-7.168,4.497-9.896,3.484c-0.755-0.274-1.708-0.969-2.743-1.479C58.341,85.459,54.908,82.101,54.829,79.352z
	 M60.245,82.525c0.477,0.725,1.264,1.951,2.063,2.494c0.816,0.556,2.5,0.692,3.567,0.746c2.156,0.111,4.722,0.108,6.536-2.108
	c0.679-0.827,1.635-3.383,1.72-4.31c0.181-1.981-1.431-4.786-4.074-5.769c-1.542-0.572-5.738-0.064-7.844,1.154
	c-0.793,0.458-1.979,1.803-2.41,2.412C58.292,79.281,58.968,80.564,60.245,82.525z"/>
<path fill-rule="evenodd" clip-rule="evenodd" fill="#4D4D4D" d="M61.352,79.156c1.171-2.049,3.289-2.748,5.089-3.057
	c1.137-0.198,2.536-0.479,3.188-0.168c0.615,0.292,1.644,1.113,1.966,1.576c0.653,0.941-0.14,3.771-0.925,4.782
	c-0.338,0.431-1.335,1.131-1.947,1.333c-1.355,0.449-4.548,0.281-5.622-0.471c-0.961-0.677-1.216-1.673-1.989-2.569
	C60.985,80.115,61.144,79.635,61.352,79.156z M65.464,79.037c-2.857,2.114,0.849,4.173,2.568,2.835
	c2.868-2.243-0.123-6.295-2.379-3.622C65.362,78.519,65.757,78.766,65.464,79.037z"/>
<path fill-rule="evenodd" clip-rule="evenodd" fill="#4D4D4D" d="M67.452,79.121c0.366,0.483-0.478,1.486-1.022,1.377
	C66.695,79.977,66.794,79.046,67.452,79.121z"/>
<path fill-rule="evenodd" clip-rule="evenodd" fill="#4D4D4D" d="M73.451,12.888c1.182-1.489,2.312-1.707,3.842-2.326
	c1.925-0.778,3.026-1.3,4.932-1.292c1.054,0.003,3.188,0.292,4.188,0.813c1.009,0.523,2.396,1.794,3.017,2.839
	c0.698,1.174,1.009,3.342,0.859,4.607c-0.168,1.409-1.143,2.906-1.993,4.479c-2.147,3.978-5.851,5.576-9.156,4.988
	c-0.602-0.106-1.311-0.392-1.975-0.621c-1.594-0.551-3.056-1.021-4.806-3.044c-0.621-0.718-1.396-2.54-1.51-3.654
	c-0.074-0.714,0.214-1.484,0.441-2.308c0.229-0.829,0.131-1.493,0.484-2.265C72.119,14.354,72.732,13.794,73.451,12.888z
	 M72.701,19.114c0.176,1.918,2.599,3.884,4.26,4.674c1.182,0.561,1.768,1.017,2.838,1.105c1.624,0.136,4.031-0.683,5.389-1.688
	c2.124-1.573,3.208-3.576,3.237-5.537c0.018-1.185-0.082-2.665-0.747-3.673c-0.643-0.975-1.931-1.81-2.696-2.044
	c-2.55-0.786-6.473-0.622-9.026,0.818c-1.092,0.617-2.047,1.552-2.861,2.337c-0.016,0.014-0.03,0.028-0.042,0.043
	c-0.756,1.039-1.078,2.429-1.041,3.56C72.245,19.049,72.469,18.932,72.701,19.114z"/>
<path fill-rule="evenodd" clip-rule="evenodd" fill="#4D4D4D" d="M73.6,17.896c0.417-1.333,1.815-2.872,3.207-3.664
	c0.548-0.314,2.011-0.746,2.735-0.889c0.749-0.147,1.881-0.068,2.761-0.039c1.306,0.044,2.856-0.066,3.997,1.54
	c0.506,0.706,0.656,2.764,0.488,3.511c-0.135,0.588-0.616,1.664-1.085,2.199c-0.186,0.215-0.522,0.404-0.747,0.617
	c-1.614,1.549-4.293,2.693-5.926,2.087c-0.452-0.164-1.022-0.58-1.643-0.885C75.703,21.554,73.647,19.543,73.6,17.896z
	 M76.844,19.797c0.285,0.434,0.757,1.168,1.235,1.494c0.488,0.333,1.496,0.415,2.136,0.446c1.291,0.067,2.828,0.065,3.914-1.262
	c0.406-0.496,0.979-2.026,1.03-2.581c0.108-1.187-0.856-2.866-2.439-3.455c-0.924-0.343-3.437-0.038-4.697,0.691
	c-0.475,0.274-1.186,1.08-1.443,1.445C75.674,17.855,76.078,18.624,76.844,19.797z"/>
<path fill-rule="evenodd" clip-rule="evenodd" fill="#4D4D4D" d="M77.506,17.78c0.701-1.227,1.97-1.646,3.048-1.831
	c0.681-0.119,1.519-0.287,1.908-0.1c0.368,0.175,0.984,0.666,1.177,0.943c0.392,0.564-0.083,2.258-0.554,2.864
	c-0.202,0.258-0.8,0.677-1.166,0.798c-0.812,0.269-2.723,0.169-3.365-0.282c-0.577-0.405-0.729-1.001-1.192-1.538
	C77.286,18.354,77.381,18.067,77.506,17.78z M79.968,17.708c-1.71,1.266,0.51,2.499,1.538,1.698
	c1.719-1.343-0.073-3.769-1.424-2.169C79.907,17.398,80.145,17.546,79.968,17.708z"/>
<path fill-rule="evenodd" clip-rule="evenodd" fill="#4D4D4D" d="M81.159,17.758c0.22,0.29-0.286,0.891-0.612,0.826
	C80.705,18.271,80.766,17.714,81.159,17.758z"/>
<path fill-rule="evenodd" clip-rule="evenodd" fill="#4D4D4D" d="M44.793,33.335c1.5-2.108,4.146-3.712,6.238-5.009
	c4.591-2.847,9.626-4.179,14.35-4.256c1.381-0.027,3.42,0.406,5.41,0.55c3.541,0.247,5.456,0.51,8.874,2.573
	c1.34,0.807,2.676,1.312,4.046,2.435c4.752,3.901,7.192,8.66,7.494,13.402c0.126,2.009-0.335,5.214-0.845,7.334
	c-1.07,4.391-3.008,9.917-6.818,14.254c-1.995,2.264-4.152,4.469-6.496,5.864c-2.143,1.28-4.216,1.882-6.675,2.258
	c-1.06,0.159-2.157,0.135-3.33,0.17c-1.149,0.033-2.359,0.29-3.329,0.171c-0.892-0.115-1.931-0.402-2.999-0.621
	c-5.609-1.16-11.914-5.924-15.186-11.97c-0.612-1.132-1.105-2.646-1.606-3.995c-0.526-1.416-1.304-2.749-1.61-3.999
	c-0.244-0.988-0.091-2.553-0.19-4.038C41.784,43.478,41.255,38.312,44.793,33.335z M47.671,37.014
	c-2.697,2.661-1.604,5.871-1.596,8.417c0.007,2.326,0.08,4.572,0.833,6.576c0.444,1.176,1.202,2.206,1.883,3.702
	c0.532,1.163,1.355,2.419,2.014,3.277c2.76,3.583,6.524,4.918,9.329,5.896c0.91,0.317,1.835,0.793,2.728,1.058
	c0.824,0.244,1.823,0.231,2.777,0.414c1.018,0.192,2.031,0.559,2.858,0.625c2.278,0.171,4.906-0.271,7.136-1.136
	c3.018-1.168,6.362-3.977,8.438-7.346c0.543-0.883,0.854-2.131,1.251-3.228c1.955-5.405,2.297-11.627-0.637-16.729
	c-0.378-0.658-1.199-1.549-1.918-2.499c-0.655-0.868-1.227-1.807-1.847-2.43c-3.449-3.452-7.514-4.042-11.061-4.495
	c-1.049-0.136-2.018-0.456-2.854-0.484c-1.64-0.056-3.419,0.434-5.301,0.654c-1.645,0.189-3.896,0.335-5.296,0.935
	c-1.248,0.537-2.749,1.674-4.247,2.754c-1.496,1.078-3.246,2.622-4.354,3.891C47.765,36.915,47.718,36.968,47.671,37.014z"/>
<path fill-rule="evenodd" clip-rule="evenodd" fill="#4D4D4D" d="M49.035,39.949c0.771-1.365,3.092-3.063,4.283-3.955
	c1.458-1.1,2.943-2.369,4.31-2.967c0.582-0.255,1.441-0.187,2.336-0.282c2.337-0.25,4.513-1.022,6.994-0.987
	c0.713,0.007,1.66,0.247,2.564,0.348c2.889,0.319,6.59,1.006,9.257,3.487c0.604,0.561,1.141,1.423,1.696,2.149
	c0.559,0.729,1.269,1.453,1.697,2.148c0.997,1.624,1.471,4.045,1.657,5.7c0.266,2.329-0.181,5.921-1.166,8.55
	c-0.359,0.961-0.631,1.954-1.122,2.8c-1.51,2.598-4.614,5.299-6.841,6.238c-1.492,0.625-4.239,1.067-6.291,0.82
	c-0.769-0.088-1.538-0.434-2.357-0.566c-0.812-0.134-1.655-0.097-2.353-0.285c-1.841-0.512-3.705-1.14-5.017-1.698
	c-1.624-0.692-3.976-2.135-5.504-3.811c-1.126-1.235-1.84-3-2.614-4.392c-0.576-1.032-1.151-1.695-1.421-2.44
	c-0.576-1.594-0.456-3.446-0.512-5.306c-0.055-1.893-0.295-3.583,0.195-5.331C48.851,40.089,48.993,40.023,49.035,39.949z
	 M53.596,50.176c0.791,1.897,3.375,5.157,5.447,6.65c3.445,2.482,9.542,3.72,13.273,2.587c3.59-1.089,7.342-4.913,7.981-8.468
	c0.431-2.387-1.271-6.754-2.747-8.931c-1.589-2.339-2.458-3.045-4.598-4.333c-0.83-0.498-1.608-1.242-2.247-1.564
	c-0.873-0.442-1.928-0.511-2.859-0.625c-2.274-0.271-3.535-0.258-5.808,0.313c-1.009,0.253-2.733,0.918-3.508,1.381
	c-1.286,0.77-3.345,2.787-4.276,4.099C52.371,43.946,52.599,47.792,53.596,50.176z"/>
<path fill-rule="evenodd" clip-rule="evenodd" fill="#4D4D4D" d="M55.867,43.086c-0.066-0.093,0.03-0.114,0.068-0.077
	c1.554-0.684,2.425-2.155,3.884-3.094c1.147-0.737,4.303-1.64,5.7-1.659c0.708-0.007,3.148,0.251,3.846,0.599
	c0.396,0.189,0.779,0.593,1.235,0.884c0.739,0.468,1.697,0.856,2.31,1.349c1.7,1.36,3.044,3.51,3.778,5.352
	c0.373,0.939,0.913,2.93,0.823,3.808c-0.123,1.193-1.01,2.552-1.539,3.239c-3.073,4.013-7.877,3.869-11.773,2.553
	c-3.005-1.022-7.376-4.74-8.328-8.13C55.489,46.557,55.305,44.436,55.867,43.086z M60.742,49.468
	c1.549,3.184,6.018,4.876,8.207,4.013c1.746-0.686,2.88-2.354,3.229-3.571c1.091-3.787-4.104-9.517-7.845-8.495
	c-0.806,0.219-2.29,1.384-2.777,2.068C60.099,45.54,59.872,47.685,60.742,49.468z"/>
<path fill-rule="evenodd" clip-rule="evenodd" fill="#4D4D4D" d="M62.519,47.145c0.939-1.244,0.949-2.851,2.528-3.269
	c1.957-0.519,5.809,3.817,4.571,5.826c-0.413,0.673-0.902,0.844-1.733,1.399C65.93,51.106,62.773,49.686,62.519,47.145z
	 M67.021,48.217c0.75-0.859-0.971-2.981-1.887-1.362C64.455,48.049,66.286,49.056,67.021,48.217z"/>
<path fill-rule="evenodd" clip-rule="evenodd" fill="#4D4D4D" d="M43.827,73.188c2.946-0.122,5.73,0.984,7.423,2.707
	c0.394,0.402,0.803,1.205,1.404,1.905c1.533,1.794,3.436,4.216,3.608,7.223c0.305,5.157-2.737,8.412-6.518,10.133
	c-1.604,0.73-3.484,1.733-5.013,2.006c-1.326,0.239-4.177,0.322-5.618,0c-0.867-0.189-1.686-0.814-2.408-1.403
	c-1.35-1.104-3.112-2.195-3.71-3.912c-0.459-1.319-0.478-3.504-0.302-4.816c0.109-0.812,0.611-1.685,0.904-2.606
	c0.294-0.936,0.361-1.962,0.603-2.809C35.543,76.868,39.16,74.577,43.827,73.188z M41.52,77.3c-0.307,0.228-0.484,0.729-0.903,1.104
	c-0.446,0.398-1.17,0.606-1.605,1.004c-1.632,1.479-2.653,3.219-3.21,5.416c-2.15,8.485,9.758,9.422,14.144,5.313
	c2.562-2.396,3.058-6.587,1.504-9.928c-1.1-2.367-4.017-4.278-7.924-3.611C42.677,76.742,42.039,76.916,41.52,77.3z"/>
<path fill-rule="evenodd" clip-rule="evenodd" fill="#4D4D4D" d="M44.329,78.904c2.582-0.434,4.527,0.937,5.215,2.407
	c2.081,4.45-1.439,8.317-4.812,8.826c-3.588,0.545-7.613-0.426-6.924-4.413C38.354,82.582,40.879,79.489,44.329,78.904z
	 M41.42,82.92c-0.282,0.538-0.717,1.771-0.603,2.505c0.398,2.555,5.292,2.602,6.118,0c0.743-2.335-0.785-4.4-2.507-4.413
	C42.542,80.999,41.922,81.953,41.42,82.92z"/>
<path fill-rule="evenodd" clip-rule="evenodd" fill="#4D4D4D" d="M42.623,85.323c-0.565-1.749,2.085-3.668,2.708-2.004
	C45.913,84.862,44.236,86.354,42.623,85.323z"/>
<path fill-rule="evenodd" clip-rule="evenodd" fill="#4D4D4D" d="M74.202,9.31c0.073,1.759-0.588,3.421-1.615,4.432
	c-0.24,0.235-0.721,0.479-1.138,0.838c-1.071,0.915-2.516,2.051-4.312,2.154c-3.079,0.182-5.021-1.634-6.05-3.892
	c-0.436-0.958-1.034-2.079-1.197-2.992c-0.144-0.792-0.192-2.494,0-3.355c0.113-0.517,0.486-1.006,0.838-1.437
	c0.659-0.805,1.312-1.857,2.336-2.215c0.787-0.274,2.092-0.285,2.875-0.18c0.484,0.065,1.006,0.365,1.556,0.541
	c0.56,0.174,1.171,0.215,1.677,0.359C72.005,4.365,73.372,6.524,74.202,9.31z M71.747,7.933c-0.137-0.184-0.435-0.288-0.659-0.54
	c-0.238-0.266-0.362-0.698-0.6-0.957c-0.882-0.974-1.921-1.584-3.232-1.917c-5.066-1.283-5.625,5.826-3.173,8.443
	c1.431,1.53,3.934,1.826,5.927,0.898c1.413-0.656,2.555-2.396,2.155-4.73C72.079,8.624,71.977,8.244,71.747,7.933z"/>
<path fill-rule="evenodd" clip-rule="evenodd" fill="#4D4D4D" d="M70.79,9.61c0.258,1.541-0.56,2.702-1.438,3.112
	c-2.657,1.243-4.965-0.858-5.27-2.872c-0.325-2.141,0.256-4.544,2.635-4.134C68.594,6.043,70.439,7.55,70.79,9.61z M68.393,7.873
	c-0.321-0.168-1.058-0.427-1.495-0.358c-1.524,0.238-1.553,3.159,0,3.651c1.394,0.443,2.625-0.469,2.634-1.496
	C69.54,8.543,68.97,8.173,68.393,7.873z"/>
<path fill-rule="evenodd" clip-rule="evenodd" fill="#4D4D4D" d="M66.957,8.592c1.044-0.337,2.189,1.246,1.196,1.616
	C67.232,10.556,66.343,9.555,66.957,8.592z"/>
<path fill-rule="evenodd" clip-rule="evenodd" fill="#4D4D4D" d="M22.563,54.463c3.159-0.269,4.718,0.857,7.221,2.007
	c3.151,1.45,5.046,2.188,7.224,4.514c1.199,1.285,3.296,4.21,3.811,6.02c0.518,1.82,0.559,4.964,0,6.92
	c-0.628,2.192-2.903,5.05-4.616,6.319c-1.901,1.411-4.84,1.94-7.723,2.707c-7.292,1.946-13.478-0.72-16.551-5.415
	c-0.556-0.852-1.024-2.039-1.505-3.109c-1.152-2.567-2.258-4.883-1.805-9.327c0.161-1.578,1.486-4.606,2.707-6.021
	c0.784-0.905,2.051-1.438,3.312-2.106c1.272-0.668,1.967-1.549,3.31-2.002C19.253,54.524,20.635,54.628,22.563,54.463z
	 M14.137,60.683c-2.132,2.41-1.745,7.608-0.802,10.533c0.669,2.076,0.788,3.313,1.904,4.716c1.698,2.125,5.444,4.111,8.226,4.614
	c4.345,0.777,8.02-0.202,10.434-2.407c1.458-1.337,3.146-3.155,3.608-5.119c0.449-1.899-0.012-4.417-0.601-5.611
	c-1.966-4.003-6.659-8.586-11.335-10.036c-1.999-0.62-4.23-0.71-6.117-0.804c-0.032,0-0.071,0-0.103,0
	c-2.128,0.271-4.183,1.475-5.516,2.81C13.692,60.057,14.092,60.192,14.137,60.683z"/>
<path fill-rule="evenodd" clip-rule="evenodd" fill="#4D4D4D" d="M16.645,60.382c2.099-1.022,5.57-1.086,8.126-0.298
	c1.005,0.306,3.21,1.588,4.211,2.305c1.038,0.739,2.242,2.211,3.21,3.308c1.442,1.637,3.349,3.398,2.709,6.624
	c-0.283,1.426-2.61,3.965-3.713,4.611c-0.866,0.512-2.724,1.161-3.911,1.207c-0.478,0.018-1.089-0.176-1.604-0.203
	c-3.733-0.189-8.192-2.134-9.329-4.814c-0.312-0.736-0.459-1.905-0.802-3.009C14.609,67.128,14.697,62.327,16.645,60.382z
	 M18.048,66.5c-0.204,0.844-0.552,2.259-0.4,3.212c0.154,0.975,1.213,2.291,1.906,3.108c1.398,1.645,3.161,3.508,6.017,3.311
	c1.067-0.075,3.581-1.132,4.313-1.706c1.569-1.227,2.5-4.321,1.406-6.922c-0.638-1.514-3.89-4.219-6.22-4.915
	c-0.877-0.261-2.667-0.205-3.412-0.102C19.07,62.854,18.601,64.225,18.048,66.5z"/>
<path fill-rule="evenodd" clip-rule="evenodd" fill="#4D4D4D" d="M21.257,64.996c2.295-0.556,4.258,0.506,5.719,1.605
	c0.919,0.694,2.085,1.517,2.306,2.206c0.209,0.648,0.318,1.956,0.201,2.509c-0.237,1.124-2.841,2.486-4.113,2.606
	c-0.545,0.05-1.739-0.195-2.306-0.501c-1.259-0.679-3.325-3.121-3.511-4.415c-0.169-1.163,0.382-2.033,0.501-3.209
	C20.312,65.386,20.766,65.171,21.257,64.996z M24.168,67.903c-3.501-0.627-2.455,3.483-0.301,3.812
	c3.597,0.554,4.492-4.404,1.004-4.213C24.474,67.477,24.562,67.932,24.168,67.903z"/>
<path fill-rule="evenodd" clip-rule="evenodd" fill="#4D4D4D" d="M25.472,69.409c-0.103,0.604-1.412,0.67-1.706,0.201
	C24.326,69.449,25.071,68.879,25.472,69.409z"/>
<path fill-rule="evenodd" clip-rule="evenodd" fill="#4D4D4D" d="M43.622,18.909c2.466,0.782,4.803,2.806,6.681,4.4
	c4.115,3.499,6.924,7.884,8.45,12.355c0.445,1.306,0.659,3.379,1.136,5.317c0.847,3.444,1.186,5.349,0.268,9.237
	c-0.357,1.523-0.427,2.95-1.077,4.596c-2.257,5.719-6.037,9.501-10.46,11.243c-1.87,0.735-5.067,1.28-7.242,1.441
	c-4.507,0.327-10.36,0.177-15.655-2.122c-2.766-1.2-5.527-2.578-7.576-4.383c-1.875-1.649-3.081-3.438-4.192-5.661
	c-0.48-0.958-0.792-2.015-1.183-3.116c-0.386-1.088-1.003-2.161-1.183-3.119c-0.165-0.88-0.21-1.961-0.328-3.044
	c-0.619-5.695,1.985-13.155,6.737-18.123c0.89-0.931,2.18-1.863,3.311-2.757c1.184-0.932,2.215-2.083,3.313-2.757
	c0.864-0.532,2.4-0.866,3.785-1.417C33.047,19.152,37.798,17.064,43.622,18.909z M41.004,22.771
	c-3.362-1.749-6.083,0.275-8.502,1.065c-2.216,0.717-4.329,1.475-6.003,2.809c-0.985,0.779-1.734,1.82-2.949,2.927
	c-0.947,0.86-1.887,2.025-2.503,2.919c-2.561,3.726-2.684,7.721-2.754,10.688c-0.021,0.963-0.192,1.991-0.165,2.919
	c0.021,0.859,0.335,1.81,0.456,2.772c0.129,1.02,0.087,2.103,0.282,2.909c0.535,2.223,1.763,4.586,3.265,6.446
	c2.04,2.515,5.735,4.837,9.58,5.78c1.01,0.247,2.292,0.162,3.458,0.202c5.742,0.205,11.77-1.381,15.727-5.735
	c0.508-0.56,1.104-1.613,1.79-2.592c0.624-0.89,1.348-1.723,1.747-2.502c2.229-4.343,1.546-8.389,0.893-11.903
	c-0.196-1.043-0.188-2.06-0.418-2.867c-0.45-1.575-1.461-3.119-2.246-4.846c-0.685-1.506-1.513-3.603-2.516-4.753
	c-0.891-1.019-2.435-2.103-3.92-3.198c-1.485-1.094-3.491-2.29-5.037-2.952C41.125,22.833,41.062,22.804,41.004,22.771z"/>
<path fill-rule="evenodd" clip-rule="evenodd" fill="#4D4D4D" d="M38.624,24.971c1.538,0.32,3.864,2.007,5.081,2.864
	c1.491,1.054,3.158,2.076,4.144,3.196c0.42,0.474,0.62,1.314,0.984,2.135c0.955,2.147,2.354,3.984,3.083,6.354
	c0.21,0.682,0.271,1.655,0.453,2.553c0.579,2.841,1.063,6.581-0.48,9.875c-0.35,0.748-1.004,1.522-1.527,2.275
	c-0.526,0.753-0.993,1.647-1.525,2.272c-1.239,1.45-3.397,2.64-4.917,3.324c-2.137,0.966-5.691,1.644-8.494,1.513
	c-1.024-0.05-2.057-0.004-3.011-0.212c-2.936-0.638-6.458-2.77-8.029-4.601c-1.056-1.227-2.318-3.707-2.716-5.732
	c-0.148-0.761-0.057-1.602-0.179-2.419c-0.124-0.817-0.419-1.604-0.451-2.326c-0.081-1.911-0.053-3.875,0.078-5.293
	c0.159-1.762,0.812-4.442,1.94-6.414c0.829-1.451,2.29-2.667,3.379-3.832c0.808-0.867,1.261-1.616,1.887-2.1
	c1.339-1.038,3.14-1.49,4.896-2.116c1.78-0.63,3.318-1.378,5.132-1.445C38.434,24.841,38.542,24.956,38.624,24.971z M30.288,32.449
	c-1.561,1.333-3.873,4.795-4.661,7.223c-1.309,4.042-0.615,10.225,1.606,13.429c2.14,3.084,6.926,5.479,10.508,4.998
	c2.405-0.316,6.04-3.276,7.658-5.35c1.742-2.233,2.148-3.273,2.716-5.706c0.221-0.944,0.691-1.909,0.801-2.618
	c0.152-0.961-0.101-1.991-0.279-2.912c-0.439-2.252-0.84-3.446-2.081-5.432c-0.55-0.88-1.714-2.323-2.39-2.916
	c-1.127-0.99-3.678-2.334-5.215-2.816C35.847,29.373,32.255,30.77,30.288,32.449z"/>
<path fill-rule="evenodd" clip-rule="evenodd" fill="#4D4D4D" d="M37.738,32.438c0.065-0.096,0.112-0.005,0.088,0.043
	c1.13,1.269,2.799,1.644,4.137,2.744c1.055,0.873,2.88,3.595,3.325,4.917c0.226,0.674,0.728,3.077,0.614,3.848
	c-0.066,0.431-0.331,0.921-0.466,1.445c-0.219,0.844-0.297,1.871-0.579,2.611c-0.771,2.038-2.407,3.976-3.936,5.24
	c-0.778,0.639-2.509,1.764-3.371,1.948c-1.173,0.247-2.737-0.182-3.555-0.472c-4.764-1.697-6.101-6.309-6.036-10.426
	c0.051-3.172,2.248-8.473,5.183-10.419C34.312,33.144,36.274,32.314,37.738,32.438z M33.155,39.031
	c-2.555,2.456-2.8,7.225-1.307,9.045c1.19,1.451,3.125,2.017,4.39,1.98c3.94-0.127,7.802-6.827,5.682-10.07
	c-0.455-0.703-2.018-1.759-2.819-2.013C36.693,37.218,34.584,37.657,33.155,39.031z"/>
<path fill-rule="evenodd" clip-rule="evenodd" fill="#4D4D4D" d="M35.909,40.01c1.468,0.513,3.006,0.034,3.887,1.408
	c1.095,1.706-1.853,6.698-4.145,6.134c-0.768-0.186-1.083-0.596-1.863-1.216C33.18,44.473,33.565,41.035,35.909,40.01z
	 M36.269,44.625c1.048,0.455,2.536-1.836,0.718-2.214C35.641,42.134,35.247,44.183,36.269,44.625z"/>
</svg>
