<?xml version="1.0" encoding="utf-8"?>
<!-- Generator: Adobe Illustrator 16.0.0, SVG Export Plug-In . SVG Version: 6.00 Build 0)  -->
<!DOCTYPE svg PUBLIC "-//W3C//DTD SVG 1.1//EN" "http://www.w3.org/Graphics/SVG/1.1/DTD/svg11.dtd">
<svg version="1.1" id="Layer_1" xmlns="http://www.w3.org/2000/svg" xmlns:xlink="http://www.w3.org/1999/xlink" x="0px" y="0px"
	 width="100px" height="100px" viewBox="0 0 100 100" enable-background="new 0 0 100 100" xml:space="preserve">
<path d="M18.177,89.762c-2.56-2.055-2.624-5.26-2.639-7.57c-0.011-1.928-0.494-3.646-0.339-5.34
	c0.486-5.338,5.595-12.516,12.238-17.045c1.949-1.334,4.611-2.639,7.039-3.74c2.085-0.939,5.542-2.004,6.854-3.758
	c1.617-2.165,0.038-6.017-2.865-8.927c-2.556-2.572-7.695-4.291-10.771-5.859c-3.989-2.024-7.566-3.378-10.692-5.75
	c-2.032-1.538-4.569-4.392-5.218-6.545c-1.229-4.121,3.046-9.429,8.219-10.79c2.304-0.607,5.414-0.034,7.405,0.554
	c1.851,0.547,3.725,1.388,5.621,2.149c1.87,0.75,3.736,2.002,5.489,2.42c2.292,0.54,4.98-0.456,7.39-0.958
	c1.274-0.268,2.582-0.381,3.842-0.509c7.684-0.777,14.424,3.487,21.861,9.753c2.433,2.051,4.498,4.596,6.625,7.465
	c2.111,2.842,4.949,5.033,6.81,7.483c1.259,1.663,2.271,3.51,3.121,4.988c1.116,1.926,2.515,4.053,2.997,6.104
	c0.684,2.943-0.079,8.66-1.832,11.984c-1.342,2.545-3.814,5.369-6.989,7.436c-1.077,0.701-2.483,1.301-3.722,1.941
	c-4.062,2.115-6.602,2.902-10.439,2.881c-5.521-0.031-10.673-0.645-16.236-1.84c-1.811-0.389-2.688-0.916-4.377-0.592
	c-5.406,1.043-8.075,7.004-12.43,10.408c-2.699,2.109-5.957,3.986-9.406,4.605c-1.143,0.203-2.157,0.059-3.672-0.133
	C20.465,90.383,19.828,91.092,18.177,89.762z M24.635,31.132c1.727,0.878,3.57,1.738,5.286,2.583
	c3.638,1.772,7.585,3.11,10.549,5.354c4.931,3.736,7.393,10.956,4.901,15.111c-1.772,2.961-5.41,4.237-8.479,5.567
	c-2.281,0.983-4.814,2.217-6.937,3.653c-5.478,3.722-9.421,9.007-10.296,13.298c-0.291,1.409,0.094,3.071,0.113,4.838
	c0.03,2.387-0.075,4.885,2.417,6.229c2.907,1.561,8.917-2.33,11.816-5.006c3.887-3.576,6.605-8.77,11.39-10.424
	c2.635-0.912,4.577-0.465,7.076,0.141c1.369,0.332,2.831,0.336,4,0.547c4.27,0.775,7.781,1.373,11.947,1.355
	c3.217-0.012,4.698-0.602,8.223-2.473c3.262-1.73,6.609-3.662,8.627-6.865c1.84-2.943,2.603-7.848,1.766-10.584
	c-0.396-1.297-1.396-2.479-2.126-3.734c-0.759-1.291-1.41-2.705-2.136-3.738c-2.201-3.178-4.858-5.123-6.971-7.694
	c-1.641-2.002-2.964-4.219-4.615-6.002c-2.092-2.266-4.832-4.403-7.246-6.119c-3.854-2.745-8.522-4.667-12.418-4.72
	c-4.762-0.057-9.401,2.417-13.775,1.47c-3.732-0.814-7.721-3.668-11.567-4.72c-3.442-0.938-9.271-0.686-10.074,4.63
	C18.437,27.946,21.344,29.443,24.635,31.132z"/>
<path d="M46.773,58.5c1.746-1.98,3.965-3.375,4.952-5.301c0.504-0.992,0.402-2.43,0.232-3.752c-0.166-1.342-0.079-2.673-0.509-3.842
	c-0.622-1.704-2.575-4.362-4.095-5.568c-1.221-0.969-2.888-1.315-4.392-2.104c-1.071-0.558-2.153-1.373-3.276-1.983
	c-2.047-1.109-3.819-2.059-5.78-4.057c-0.291-1.418-0.453-2.636,0.588-3.525c0.943-0.803,2.685-0.381,4.11-0.384
	c1.519-0.004,2.82,0.038,3.962,0.071c4.66,0.132,9.067-1.037,13.218,0.17c4.705,1.372,9.398,4.942,13.979,9.248
	c1.986,1.866,4.041,3.891,5.775,5.757c0.679,0.724,1.488,1.761,1.986,2.496c2.184,3.212,4.381,7.235,4.207,10.401
	c-0.108,2.014-1.389,4.205-2.42,6.346c-0.606,1.264-0.576,2.447-1.418,3.336c-3.744,3.967-10.056,5.32-14.238,4.721
	c-2.028-0.293-3.959-1.279-5.848-1.799c-1.414-0.387-3.209-0.223-4.688-0.342c-1.646-0.137-3.088-0.145-4.626-0.053
	c-2.681,0.146-6.975,0.508-9.61,2.225c-0.86,0.549-1.527,1.613-2.473,2.646c-0.86,0.926-2.014,1.703-2.749,2.529
	c-0.716,0.795-1.06,1.756-1.791,2.436c-0.882,0.83-1.911,1.326-3.054,1.93c-1.832,0.961-3.054,2.406-4.795,0.588
	c-1.158-1.217-0.4-3.148,0.366-4.871c1.236-2.779,2.206-4.322,4.584-7.049c1.757-2.021,4.811-5.166,7.687-6.975
	C39.995,59.697,43.64,59.92,46.773,58.5z M31.595,73.982c0.611-0.855,1.538-1.58,2.266-2.48c0.837-1.037,1.376-2.213,2.33-3.049
	c1.881-1.645,4.536-2.705,6.522-3.326c3.827-1.195,8.137-0.834,11.68-0.471c1.498,0.154,2.998-0.035,4.129,0.279
	c3.433,0.957,6.554,2.461,10.019,1.703c1.854-0.406,5.224-1.869,6.417-3.246c0.521-0.594,0.539-1.609,0.941-2.443
	c0.746-1.553,2.052-3.531,2.106-5.244c0.117-3.963-4.692-9.338-7.938-12.532c-1.02-0.991-1.879-2.149-2.774-3.054
	c-3.826-3.834-8.286-6.699-12.308-8.2c-2.863-1.067-6.924-0.418-9.979-0.374c-1.813,0.026-3.4-0.034-4.995-0.098
	c-0.385-0.011-1.048-0.204-1.35,0.227c2.096,0.788,3.94,2.277,6.047,3.336c1.369,0.686,2.857,0.984,4.147,1.791
	c5.025,3.163,6.774,8.867,6.94,12.984c0.137,3.283-0.605,5.771-3.527,8.576c-1.061,1.021-2.337,2.334-3.46,3.111
	c-2.899,1.971-7.333,1.631-10.742,3.791c-5.398,3.424-8.886,8.797-10.337,12.817c-0.057,0.053-0.109,0.117-0.022,0.183
	C30.501,77.354,30.603,75.375,31.595,73.982z"/>
<path fill="#FFFFFF" d="M62.404,44.863c3.793,3.355,6.65,8.415,7.005,12.418c-2.681,3.412-5.651,2.771-8.091,1.35
	c-0.096-0.068-0.043-0.125,0.019-0.184C64.157,54.197,65.1,49.738,62.404,44.863z"/>
<path fill="#FFFFFF" d="M16.103,23.829c0.803-5.316,6.632-5.568,10.074-4.63c3.846,1.052,7.834,3.906,11.567,4.72
	c4.374,0.946,9.015-1.527,13.775-1.47c3.896,0.053,8.562,1.976,12.42,4.72c2.412,1.715,5.152,3.853,7.246,6.119
	c1.649,1.784,2.975,4,4.613,6.002c2.11,2.571,4.77,4.517,6.973,7.694c0.724,1.033,1.375,2.447,2.133,3.737
	c0.732,1.258,1.729,2.438,2.127,3.735c0.837,2.737,0.074,7.64-1.764,10.584c-2.02,3.203-5.365,5.135-8.627,6.864
	c-3.524,1.873-5.008,2.462-8.225,2.474c-4.166,0.017-7.682-0.58-11.945-1.356c-1.171-0.211-2.633-0.215-4-0.547
	c-2.5-0.604-4.443-1.052-7.078-0.14c-4.785,1.654-7.503,6.847-11.39,10.424c-2.899,2.675-8.909,6.564-11.816,5.005
	c-2.492-1.345-2.386-3.843-2.417-6.229c-0.019-1.768-0.403-3.43-0.113-4.84c0.875-4.291,4.818-9.574,10.296-13.297
	c2.123-1.438,4.656-2.67,6.937-3.652c3.069-1.33,6.707-2.605,8.479-5.568c2.492-4.154,0.03-11.374-4.901-15.11
	c-2.963-2.243-6.911-3.582-10.549-5.354c-1.716-0.845-3.559-1.704-5.286-2.583C21.344,29.443,18.437,27.946,16.103,23.829z
	 M36.662,61.795c-2.876,1.809-5.93,4.953-7.687,6.975c-2.379,2.727-3.348,4.27-4.584,7.049c-0.766,1.723-1.523,3.654-0.366,4.871
	c1.742,1.818,2.963,0.373,4.795-0.588c1.143-0.604,2.171-1.1,3.054-1.93c0.731-0.68,1.075-1.641,1.791-2.436
	c0.735-0.826,1.889-1.604,2.749-2.529c0.946-1.033,1.613-2.098,2.473-2.646c2.635-1.717,6.929-2.078,9.61-2.225
	c1.538-0.092,2.979-0.084,4.626,0.053c1.479,0.119,3.271-0.045,4.688,0.342c1.89,0.52,3.818,1.506,5.849,1.801
	c4.185,0.6,10.493-0.756,14.237-4.723c0.843-0.889,0.812-2.072,1.418-3.336c1.033-2.141,2.312-4.332,2.42-6.346
	c0.176-3.166-2.022-7.189-4.207-10.401c-0.498-0.735-1.309-1.772-1.985-2.496c-1.733-1.866-3.789-3.891-5.774-5.757
	c-4.58-4.306-9.273-7.876-13.979-9.248c-4.149-1.207-8.559-0.038-13.218-0.17c-1.143-0.034-2.443-0.075-3.962-0.071
	c-1.425,0.003-3.167-0.418-4.11,0.384c-1.041,0.89-0.878,2.107-0.588,3.525c1.96,1.998,3.732,2.948,5.78,4.057
	c1.123,0.61,2.205,1.425,3.276,1.983c1.504,0.788,3.171,1.135,4.392,2.104c1.52,1.207,3.473,3.864,4.095,5.568
	c0.43,1.169,0.343,2.5,0.509,3.842c0.17,1.322,0.271,2.76-0.231,3.752c-0.984,1.926-3.207,3.32-4.953,5.301
	C43.64,59.92,39.995,59.697,36.662,61.795z"/>
<path fill="#FFFFFF" d="M27.704,78.266c-0.087-0.062-0.034-0.129,0.022-0.182c1.452-4.021,4.939-9.395,10.337-12.818
	c3.408-2.16,7.842-1.82,10.742-3.791c1.123-0.775,2.401-2.09,3.46-3.109c2.922-2.807,3.664-5.295,3.527-8.577
	c-0.166-4.117-1.915-9.821-6.94-12.984c-1.29-0.807-2.779-1.105-4.147-1.791c-2.107-1.06-3.951-2.549-6.047-3.336
	c0.302-0.43,0.965-0.238,1.35-0.227c1.595,0.064,3.182,0.125,4.995,0.098c3.054-0.045,7.114-0.694,9.979,0.374
	c4.021,1.5,8.479,4.366,12.307,8.2c0.896,0.905,1.757,2.062,2.773,3.054c3.246,3.193,8.059,8.569,7.939,12.532
	c-0.057,1.713-1.361,3.69-2.107,5.244c-0.401,0.834-0.422,1.853-0.94,2.442c-1.195,1.377-4.562,2.84-6.417,3.246
	c-3.465,0.758-6.586-0.746-10.02-1.703c-1.131-0.313-2.631-0.125-4.127-0.278c-3.545-0.363-7.854-0.726-11.681,0.471
	c-1.987,0.621-4.641,1.683-6.522,3.326c-0.954,0.836-1.493,2.012-2.33,3.049c-0.728,0.899-1.655,1.625-2.266,2.479
	C30.603,75.375,30.501,77.354,27.704,78.266z M58.302,61.033c2.688,1.029,4.042,2.119,5.784,2.355
	c2.221,0.312,7.751-1.643,8.825-5.33c1.007-3.438-2.179-9.745-5.734-13.601c-0.588-0.642-1.433-1.173-1.968-1.833
	c-0.721-0.889-1.066-2.024-1.761-2.85c-1.281-1.535-3.726-2.704-5.097-2.556c-2.808,0.294-2.979,2.797-1.771,4.807
	c1.687,2.809,5.161,7.419,4.269,10.691c-0.22,0.807-0.873,1.557-1.209,2.322c-0.353,0.826-0.511,1.678-1.02,2.342
	c-0.917,1.203-2.334,2.133-0.589,3.521C58.166,61.018,58.195,60.994,58.302,61.033z"/>
<path d="M58.034,60.904c-1.745-1.391-0.328-2.318,0.589-3.521c0.509-0.664,0.667-1.516,1.018-2.342
	c0.336-0.768,0.991-1.518,1.211-2.322c0.895-3.272-2.582-7.882-4.269-10.691c-1.21-2.01-1.037-4.513,1.769-4.807
	c1.373-0.147,3.815,1.021,5.099,2.556c0.692,0.826,1.041,1.96,1.761,2.85c0.535,0.66,1.38,1.191,1.969,1.833
	c3.557,3.856,6.74,10.164,5.733,13.599c-1.074,3.689-6.604,5.645-8.825,5.33c-1.74-0.236-3.096-1.326-5.783-2.354
	C58.195,60.994,58.166,61.018,58.034,60.904z M61.337,58.447c-0.062,0.059-0.112,0.115-0.019,0.184
	c2.438,1.422,5.41,2.062,8.091-1.35c-0.354-4.004-3.212-9.063-7.005-12.418C65.1,49.738,64.157,54.197,61.337,58.447z
	 M60.587,41.726C61.307,43.279,61.654,42.517,60.587,41.726L60.587,41.726z"/>
</svg>
