<?xml version="1.0" encoding="utf-8"?>
<!-- Generator: Adobe Illustrator 16.0.0, SVG Export Plug-In . SVG Version: 6.00 Build 0)  -->
<!DOCTYPE svg PUBLIC "-//W3C//DTD SVG 1.1//EN" "http://www.w3.org/Graphics/SVG/1.1/DTD/svg11.dtd">
<svg version="1.1" id="Layer_1" xmlns="http://www.w3.org/2000/svg" xmlns:xlink="http://www.w3.org/1999/xlink" x="0px" y="0px"
	 width="100px" height="100px" viewBox="0 0 100 100" enable-background="new 0 0 100 100" xml:space="preserve">
<path d="M19.935,49.934c-1.422,0.85-2.726,2.08-4.516,2.449c-3.837,0.794-7.004-0.842-9.189-3.041
	c-0.464-0.465-0.906-1.005-1.41-1.45c-0.507-0.444-1.173-0.786-1.541-1.24C0.307,42.95,2.302,35.087,3.712,29.845
	c0.551-2.046,0.691-4.112,1.292-5.718c0.448-1.187,1.294-2.275,1.861-3.463c0.588-1.242,1.4-2.326,1.854-3.463
	c1.41-1.231,3.019-2.133,4.292-3.573c0.411-0.462,0.669-1.055,1.123-1.438c0.492-0.417,1.332-0.674,1.973-1.142
	c0.657-0.478,1.139-1.112,1.78-1.38c3.084-1.285,8.545-1.926,12.279-0.643c1.774,0.616,3.429,1.176,4.867,2.208
	c1.699,1.223,4.549,5.072,5.514,7.109c0.672,1.427,1.12,3.261,1.637,4.996c0.479,1.625,1.052,3.261,1.646,4.884
	c0.535,1.458,1.354,3.054,1.883,4.685c0.569,1.76,1.282,3.556,1.288,5.183c0.006,1.381-0.66,2.631-0.775,3.67
	c-0.09,0.835,0.206,2.228,0.208,3.765c0,1.433-0.155,3.032,0.087,3.862c0.364,1.251,1.743,2.819,2.897,3.237
	c2.062,0.741,4.977,0.036,6.541-0.507c1.148-0.396,2.091-1.383,3.275-2.122c2.254-1.399,4.399-2.427,6.642-4.018
	c1.021-0.722,2.179-1.624,3.168-2.131c1.743-0.892,4.238-1.509,6.05-2.312c1.773-0.788,2.495-1.975,5.422-1.489
	c3.971,0.663,6.729,3.031,8.73,5.642c1.668,2.178,2.838,3.47,3.945,6.196c0.404,0.987,1.021,1.862,1.295,2.762
	c0.729,2.377,1.275,5.448,0.803,8.109c-0.279,1.559-0.846,3.332-1.257,5.277c-0.373,1.773-1.089,3.037-1.843,4.568
	c-1.48,2.996-2.563,6.031-4.494,8.178c-1.717,1.914-4.131,3.32-6.483,4.695c-2.267,1.327-4.762,2.82-7.271,3.629
	c-1.231,0.399-2.582,0.362-3.907,0.635c-1.164,0.236-2.216,0.867-3.509,1.002c-0.637,0.063-1.227-0.109-2.08-0.078
	c-1.188,0.031-2.446,0.225-3.764,0.206c-2.562-0.035-5.425-0.146-7.98-0.616c-1.487-0.277-3.006-0.461-4.002-0.811
	c-1.033-0.36-1.951-1.019-2.938-1.586c-0.971-0.562-1.973-0.983-2.947-1.481c-1.92-0.983-3.653-2.377-5.408-3.468
	c-1.845-1.141-3.354-2.444-4.932-3.86c-3.053-2.748-5.8-5.737-7.848-9.308C21.553,64.385,20.557,57.623,19.935,49.934z
	 M23.233,53.646c0.236,2.479,0.803,5.029,1.319,7.276c0.996,4.338,2.991,8.472,5.85,11.871c0.909,1.087,2.284,2.169,3.445,3.29
	c1.155,1.113,2.269,2.434,3.442,3.286c0.94,0.687,2.007,1.207,3.015,1.929c1.985,1.406,3.958,2.422,6.273,3.653
	c1.083,0.575,2.166,1.537,3.137,1.83c0.806,0.241,1.879,0.292,2.82,0.476c4.53,0.875,10.082,0.999,14.047,0.512
	c1.019-0.127,1.879-0.652,2.831-0.845c1.205-0.237,2.311-0.184,3.343-0.467c1.244-0.336,2.39-1.17,3.685-1.752
	c1.259-0.562,2.429-1.187,3.584-1.876c2.197-1.312,4.824-2.819,6.287-4.938c1.275-1.842,2.229-4.506,3.248-6.635
	c0.373-0.777,0.928-1.375,1.185-2.094c0.452-1.291,0.489-2.838,0.84-4.439c0.343-1.531,0.878-2.97,0.849-4.438
	c-0.052-2.57-1.164-5.116-2.006-7.01c-0.424-0.967-0.685-1.993-1.076-2.631c-0.504-0.811-1.543-1.744-2.385-2.856
	c-0.747-0.998-1.849-2.273-2.502-2.762c-1.12-0.839-3.938-2.116-5.427-2.039c-0.878,0.048-1.587,0.907-2.539,1.312
	c-1.692,0.717-4.077,1.422-5.714,2.231c-1.029,0.51-2.104,1.479-3.176,2.244c-2.203,1.565-4.537,2.615-6.752,4.005
	c-1.221,0.771-2.188,1.712-3.275,2.125c-1.948,0.736-4.732,1.335-7.257,1.099c-3.271-0.305-5.894-3.009-6.678-5.231
	c-0.563-1.583-0.308-3.331-0.277-5.42c0.019-1.461-0.342-3.009-0.155-4.308c0.146-1.041,0.653-2.027,0.616-3.135
	c-0.025-0.67-0.38-1.393-0.675-2.265c-1.366-4.015-2.767-7.313-3.937-11.148c-0.485-1.59-0.887-3.234-1.457-4.539
	c-0.815-1.853-3.149-5.099-4.727-6.155c-3.526-2.362-9.809-3.045-13.767-1.145c-0.445,0.215-0.877,0.663-1.419,1.08
	c-0.538,0.414-1.254,0.625-1.627,0.955c-0.778,0.674-1.494,1.681-2.315,2.429c-0.853,0.776-2.066,1.415-2.614,2.073
	c-0.647,0.781-1.114,2.069-1.608,3.158c-0.532,1.178-1.413,2.144-1.708,3.036c-0.405,1.235-0.485,2.653-0.806,4.002
	C6.323,32.974,4.795,37.69,4.951,41.63c0.003,0.142-0.112,0.425-0.072,0.764c0.056,0.444,0.924,0.875,1.201,1.321
	c0.429,0.689,0.517,1.221,0.846,1.62c0.859,1.049,2.801,2.335,4.344,3.039c0.977,0.445,2.377,0.99,3.218,0.954
	c2.797-0.132,3.049-3.107,6.473-2.161C23.052,48.734,23.027,51.507,23.233,53.646z"/>
<path d="M24.039,43.592c-1.786-0.944-2.885,0.436-3.943,0.961c-1.089,0.543-2.558,1.416-3.98,1.397
	c-3.706-0.047-7.64-4.641-8.256-8.459c-0.467-2.891,0.249-6.585,1.413-9.449c0.352-0.865,0.996-1.802,1.469-2.841
	c2.225-4.881,5.172-10.145,10.387-11.273c0.896-0.193,2.097-0.112,3.218-0.256c1.064-0.136,2.147-0.495,3.118-0.374
	c1.876,0.226,3.429,1.783,4.693,2.847c2.717,2.287,4.329,4.095,5.707,7.458c1.425,3.487,2.464,8.494,2.309,13.312
	c-0.122,3.624-0.563,7.591,0.215,10.921c0.532,2.284,1.963,6.078,3.271,7.564c2.303,2.609,8.302,4.137,13.035,3.172
	c2.586-0.522,5.172-2.153,7.267-3.629c0.804-0.566,1.698-0.892,2.215-1.338c0.993-0.873,1.662-2.123,2.701-3.059
	c1.763-1.595,4.302-3.231,6.972-3.993c0.951-0.271,1.998-0.709,2.818-0.732c1.338-0.036,3.404,0.796,4.594,1.521
	c4.973,3.029,6.696,8.718,5.993,16.399c-0.397,4.324-1.362,8.16-3.411,10.812c-1.469,1.902-4.008,3.469-5.969,5.07
	c-3.329,2.725-5.545,4.896-10.213,5.781c-1.467,0.275-2.906,0.679-4.254,0.716c-1.924,0.047-3.891-0.343-6.002-0.548
	c-4.635-0.46-7.668-1.303-10.842-3.08c-5.894-3.32-11.535-6.848-15.677-11.562c-0.61-0.69-1.151-1.531-1.777-2.252
	c-1.621-1.871-3.917-4.636-4.882-6.834c-0.906-2.062-1.332-4.713-1.765-7.205c-0.442-2.539-1.002-5.312-0.812-8
	C23.731,45.552,24.25,44.48,24.039,43.592z M12.485,39.894c0.672,1.003,2.433,2.602,3.613,2.644c0.747,0.026,2.274-0.776,3.09-1.262
	c0.971-0.576,1.802-1.255,2.987-1.377c2.234-0.231,4.68,0.82,4.823,2.642c0.122,1.519-0.719,1.744-0.915,2.779
	c-0.218,1.161-0.068,3.253,0.125,4.638c0.236,1.624,0.825,3.562,1.164,5.39c0.828,4.479,1.886,6.748,4.394,9.762
	c1.854,2.229,3.516,4.174,5.508,6.007c0.697,0.641,1.276,1.419,1.914,1.936c1.976,1.591,4.341,2.831,6.737,4.58
	c2.079,1.507,5.144,3.138,7.562,3.989c2.078,0.732,5.018,0.82,7.181,0.988c1.369,0.105,2.687,0.41,4.257,0.388
	c1.965-0.028,5.082-0.872,6.961-1.457c1.812-0.562,4.288-2.933,5.9-4.308c3.188-2.727,6.035-4.399,7.419-8.898
	c1.237-4.039,1.024-10.85-0.354-14.232c-0.777-1.916-3.336-4.593-5.845-4.72c-0.892-0.045-2.692,0.546-3.614,0.989
	c-1.303,0.629-3.344,2.043-4.228,2.92c-0.886,0.871-1.325,1.917-2.597,3.064c-0.76,0.68-1.836,1.261-2.817,1.944
	c-3.38,2.349-7.644,4.261-12.599,4.132c-4.971-0.123-9.875-1.895-12.427-4.983c-0.89-1.076-1.481-2.7-2.141-4.271
	c-0.66-1.564-1.388-3.307-1.659-4.777c-1.279-6.966,0.719-13.944-1.214-20.477c-1.03-3.484-2.629-6.09-5.181-8.4
	c-0.84-0.764-2.116-2.306-3.51-2.524c-0.604-0.092-1.761,0.171-2.782,0.299c-0.983,0.123-1.967,0.211-2.679,0.414
	c-3.619,1.031-5.754,5.212-7.428,9.012c-0.467,1.058-1.114,1.98-1.469,2.839c-0.831,2.004-1.382,5.233-1.282,6.816
	C11.461,37.798,11.959,39.111,12.485,39.894z"/>
<path d="M27.029,34.947c-4.823-1.487-5.713,2.732-10.303,1.921c-0.426-0.463-0.893-0.459-1.329-1.112
	c-0.355-0.524-0.23-1.327-0.498-1.808c-0.354-0.635-0.98-0.501-1.083-1.419c-0.096-0.91,0.339-2.355,0.598-2.917
	c0.473-1.028,1.687-2.248,2.701-3.056c0.386-0.31,0.958-0.336,1.381-0.647c0.641-0.465,1.077-1.549,1.827-1.923
	c0.376-0.188,1.146-0.248,1.808-0.495c1.005-0.383,1.982-0.851,3.373-0.795c4.064,0.162,7.045,3.63,8.197,6.692
	c0.697,1.85,0.694,4.576,0.893,7.128c0.047,0.633,0.339,1.299,0.376,1.909c0.043,0.689-0.127,1.383-0.081,2.085
	c0.243,3.524,0.563,8.087,0.551,12.051c1.173,3.35,3.793,5.936,6.51,8.299c0.513,0.451,0.912,1.031,1.31,1.336
	c0.688,0.515,1.736,0.949,2.62,1.447c0.871,0.49,1.842,1.172,2.62,1.445c0.678,0.243,1.466,0.23,2.166,0.421
	c1.725,0.476,3.46,0.709,5.875,0.757c2.925,0.061,5.159-0.505,7.089-1.662c1.493-0.901,2.179-1.672,3.463-2.986
	c0.566-0.582,1.343-1.039,1.908-1.588c1.453-1.411,2.179-3.051,3.871-3.834c1.039-0.479,3.305-1.156,4.28-1.038
	c1.356,0.161,3.269,1.812,3.811,2.882c1.002,1.979,1.025,5.969-0.417,8.215c-0.653,1.016-1.924,1.537-3.101,2.583
	c-0.666,0.591-1.045,1.476-1.611,1.94c-0.971,0.814-2.303,1.302-3.373,2.009c-1.133,0.746-2.135,1.886-3.068,2.253
	c-0.51,0.197-1.226,0.188-1.904,0.376c-1.17,0.324-2.487,1.086-3.95,1.069c-0.703-0.012-1.552-0.312-2.386-0.438
	c-1.604-0.234-3.321-0.177-4.475-0.406c-1.449-0.285-3.111-1.016-4.705-1.531c-2.701-0.877-5.167-1.869-7.307-3.198
	c-0.989-0.616-2.041-1.07-2.829-1.581c-0.974-0.628-1.615-1.523-2.53-2.434c-1.481-1.47-2.826-2.267-4.039-4.002
	c-1.992-2.849-3.958-5.906-4.724-9.789c-0.118-0.606-0.218-1.435-0.246-2.114c-0.174-4.195-0.087-8.25-0.977-12.199
	C29.033,37.503,27.863,36.119,27.029,34.947z M28.953,27.194c-2.153-1.918-4.954-1.634-7.22-0.549
	c-0.784,1.554-3.622,2.281-4.562,4.098c-0.753,1.469-1.002,3.924,0.498,4.23c2.013,0.409,3.787-2.399,6.395-2.5
	c0.874-0.034,2.215,0.021,3.382,0.31c1.543,0.383,3.255,3.376,3.762,4.637c0.756,1.891,0.414,4.17,1.438,5.969
	C31.812,38.263,32.519,30.376,28.953,27.194z M38.574,62.863c0.657,0.682,1.646,1.304,2.452,2.095
	c0.778,0.769,1.478,1.638,2.334,2.196c1.792,1.177,4.254,2.613,6.616,3.467c1.213,0.436,2.5,0.945,3.734,1.332
	c2.67,0.84,6.74,2.007,10.177,1.92c0.746-0.021,1.623-0.572,2.606-0.865c0.679-0.199,1.399-0.171,1.907-0.376
	c0.757-0.306,1.709-1.351,2.604-1.964c1.059-0.729,2.159-1.093,3.023-1.816c0.572-0.474,0.885-1.386,1.617-2.055
	c1.054-0.959,2.385-1.342,2.863-2.381c1.139-2.461,0.329-6.332-1.705-6.652c-0.679-0.104-2.688,0.623-3.285,1.023
	c-1.15,0.766-1.86,2.318-3.062,3.357c-1.931,1.674-3.188,3.342-5.259,4.58c-2.186,1.308-4.09,1.99-7.456,2.071
	c-5.472,0.127-9.666-0.931-13.172-2.854c-0.993-0.545-2.138-1.11-2.928-1.695c-1.718-1.273-3.115-3.121-4.546-4.493
	c-0.974-0.935-1.708-1.937-2.291-2.63C36.001,58.927,37.012,61.236,38.574,62.863z"/>
<path fill="#FFFFFF" d="M20.961,47.166c-3.423-0.946-3.675,2.029-6.473,2.161c-0.84,0.036-2.241-0.509-3.218-0.954
	c-1.543-0.703-3.485-1.99-4.344-3.039c-0.33-0.398-0.417-0.931-0.846-1.62c-0.277-0.447-1.145-0.877-1.201-1.321
	c-0.041-0.339,0.075-0.622,0.072-0.764C4.795,37.69,6.323,32.973,7.166,29.39c0.321-1.349,0.401-2.767,0.806-4.002
	c0.295-0.892,1.176-1.858,1.708-3.036c0.495-1.089,0.961-2.377,1.608-3.158c0.548-0.658,1.762-1.296,2.614-2.073
	c0.821-0.748,1.537-1.755,2.315-2.429c0.374-0.33,1.089-0.542,1.627-0.955c0.542-0.417,0.974-0.865,1.419-1.08
	c3.958-1.9,10.241-1.217,13.767,1.145c1.578,1.057,3.912,4.302,4.727,6.155c0.57,1.304,0.971,2.949,1.457,4.539
	c1.17,3.835,2.57,7.134,3.937,11.148c0.295,0.873,0.65,1.595,0.675,2.265c0.037,1.108-0.47,2.094-0.616,3.135
	c-0.187,1.299,0.174,2.847,0.155,4.308c-0.031,2.091-0.286,3.839,0.277,5.421c0.784,2.224,3.407,4.928,6.678,5.23
	c2.523,0.236,5.309-0.359,7.257-1.1c1.089-0.412,2.057-1.354,3.276-2.125c2.215-1.391,4.549-2.438,6.752-4.004
	c1.069-0.764,2.146-1.733,3.174-2.244c1.638-0.809,4.021-1.514,5.715-2.231c0.951-0.405,1.66-1.264,2.539-1.312
	c1.486-0.078,4.307,1.2,5.427,2.039c0.653,0.488,1.755,1.764,2.502,2.762c0.841,1.114,1.88,2.047,2.384,2.857
	c0.395,0.637,0.653,1.664,1.077,2.631c0.841,1.893,1.954,4.438,2.004,7.009c0.031,1.469-0.504,2.905-0.847,4.438
	c-0.35,1.604-0.387,3.148-0.84,4.439c-0.256,0.719-0.811,1.314-1.184,2.094c-1.021,2.131-1.974,4.793-3.248,6.637
	c-1.463,2.114-4.091,3.621-6.287,4.936c-1.156,0.689-2.326,1.312-3.584,1.876c-1.295,0.582-2.439,1.416-3.686,1.752
	c-1.031,0.283-2.138,0.228-3.343,0.467c-0.952,0.19-1.812,0.716-2.831,0.845c-3.965,0.487-9.518,0.363-14.047-0.512
	c-0.94-0.184-2.016-0.232-2.82-0.476c-0.971-0.293-2.054-1.255-3.137-1.83c-2.315-1.231-4.288-2.247-6.273-3.653
	c-1.008-0.722-2.075-1.244-3.015-1.929c-1.173-0.854-2.287-2.173-3.442-3.286c-1.161-1.121-2.536-2.203-3.445-3.29
	c-2.859-3.399-4.854-7.532-5.85-11.871c-0.517-2.247-1.083-4.799-1.319-7.278C23.027,51.507,23.052,48.734,20.961,47.166z
	 M23.65,46.642c-0.19,2.688,0.37,5.459,0.812,8c0.433,2.491,0.859,5.145,1.765,7.203c0.965,2.199,3.261,4.965,4.882,6.834
	c0.625,0.723,1.167,1.562,1.777,2.254c4.142,4.717,9.784,8.241,15.677,11.562c3.173,1.778,6.208,2.62,10.841,3.08
	c2.113,0.206,4.08,0.595,6.003,0.548c1.348-0.037,2.788-0.438,4.254-0.716c4.668-0.886,6.884-3.06,10.213-5.781
	c1.961-1.604,4.5-3.168,5.969-5.071c2.048-2.647,3.013-6.484,3.411-10.812c0.703-7.685-1.021-13.37-5.994-16.399
	c-1.188-0.725-3.255-1.558-4.593-1.521c-0.821,0.023-1.867,0.462-2.819,0.732c-2.67,0.761-5.209,2.398-6.971,3.993
	c-1.039,0.937-1.708,2.185-2.701,3.058c-0.517,0.449-1.412,0.771-2.215,1.338c-2.095,1.477-4.682,3.105-7.268,3.63
	c-4.732,0.965-10.731-0.562-13.034-3.171c-1.307-1.487-2.739-5.281-3.271-7.565c-0.778-3.33-0.336-7.297-0.215-10.921
	c0.155-4.819-0.884-9.826-2.309-13.312c-1.378-3.362-2.99-5.17-5.707-7.458c-1.264-1.064-2.816-2.622-4.693-2.847
	c-0.971-0.122-2.054,0.238-3.118,0.374c-1.121,0.145-2.322,0.063-3.218,0.256c-5.215,1.128-8.163,6.392-10.387,11.273
	c-0.473,1.039-1.117,1.976-1.469,2.841c-1.164,2.864-1.88,6.558-1.413,9.449c0.616,3.818,4.55,8.413,8.256,8.459
	c1.422,0.019,2.891-0.854,3.98-1.397c1.058-0.526,2.157-1.906,3.943-0.961C24.25,44.48,23.731,45.552,23.65,46.642z"/>
<path fill="#FFFFFF" d="M11.377,36.378c-0.1-1.583,0.451-4.812,1.282-6.816c0.354-0.859,1.002-1.781,1.469-2.839
	c1.674-3.799,3.809-7.98,7.428-9.012c0.712-0.203,1.696-0.291,2.679-0.414c1.021-0.127,2.178-0.391,2.782-0.299
	c1.394,0.218,2.67,1.76,3.51,2.524c2.552,2.311,4.151,4.917,5.181,8.4c1.933,6.533-0.065,13.511,1.214,20.477
	c0.271,1.471,0.999,3.212,1.659,4.777c0.66,1.568,1.251,3.192,2.141,4.27c2.552,3.092,7.456,4.861,12.428,4.984
	c4.955,0.129,9.218-1.783,12.598-4.132c0.982-0.687,2.061-1.267,2.818-1.944c1.271-1.147,1.711-2.193,2.596-3.064
	c0.884-0.877,2.925-2.292,4.227-2.92c0.922-0.443,2.728-1.035,3.615-0.989c2.508,0.127,5.066,2.804,5.844,4.72
	c1.383,3.387,1.594,10.193,0.355,14.232c-1.383,4.499-4.232,6.174-7.419,8.898c-1.612,1.375-4.089,3.746-5.9,4.308
	c-1.879,0.585-4.997,1.429-6.961,1.457c-1.571,0.022-2.888-0.28-4.257-0.388c-2.163-0.168-5.102-0.256-7.18-0.988
	c-2.418-0.854-5.482-2.482-7.562-3.989c-2.396-1.749-4.761-2.989-6.737-4.58c-0.638-0.517-1.217-1.295-1.914-1.936
	c-1.992-1.833-3.653-3.778-5.508-6.007c-2.508-3.014-3.566-5.28-4.394-9.762c-0.339-1.828-0.927-3.766-1.164-5.39
	c-0.193-1.385-0.342-3.478-0.125-4.638c0.196-1.035,1.036-1.26,0.915-2.779c-0.143-1.822-2.589-2.874-4.823-2.642
	c-1.186,0.122-2.016,0.801-2.987,1.377c-0.815,0.486-2.343,1.289-3.09,1.262c-1.18-0.042-2.941-1.64-3.613-2.644
	C11.959,39.111,11.461,37.798,11.377,36.378z M29.323,38.789c0.89,3.949,0.803,8.004,0.977,12.199
	c0.028,0.682,0.128,1.508,0.246,2.113c0.765,3.885,2.732,6.941,4.724,9.791c1.213,1.734,2.558,2.531,4.039,4.002
	c0.915,0.906,1.556,1.805,2.53,2.433c0.788,0.511,1.839,0.965,2.829,1.581c2.138,1.328,4.605,2.32,7.307,3.199
	c1.594,0.517,3.256,1.244,4.705,1.531c1.151,0.229,2.869,0.17,4.475,0.405c0.834,0.125,1.683,0.429,2.386,0.438
	c1.463,0.017,2.78-0.746,3.952-1.069c0.679-0.187,1.395-0.177,1.902-0.376c0.936-0.367,1.938-1.508,3.068-2.253
	c1.07-0.707,2.402-1.192,3.373-2.009c0.566-0.467,0.946-1.352,1.612-1.94c1.176-1.046,2.444-1.567,3.1-2.583
	c1.443-2.246,1.419-6.236,0.417-8.215c-0.542-1.07-2.451-2.721-3.811-2.883c-0.978-0.117-3.241,0.562-4.28,1.039
	c-1.692,0.785-2.418,2.423-3.871,3.834c-0.565,0.549-1.342,1.006-1.907,1.588c-1.285,1.316-1.971,2.085-3.464,2.986
	c-1.93,1.157-4.164,1.723-7.089,1.662c-2.415-0.048-4.15-0.279-5.875-0.757c-0.7-0.188-1.488-0.178-2.166-0.421
	c-0.778-0.271-1.749-0.955-2.62-1.445c-0.884-0.498-1.933-0.935-2.62-1.447c-0.398-0.305-0.797-0.883-1.31-1.334
	c-2.717-2.365-5.337-4.951-6.51-8.299c0.013-3.963-0.308-8.527-0.551-12.053c-0.046-0.702,0.125-1.396,0.081-2.085
	c-0.037-0.61-0.33-1.276-0.376-1.909c-0.199-2.552-0.196-5.278-0.893-7.128c-1.151-3.062-4.132-6.53-8.197-6.692
	c-1.391-0.056-2.368,0.413-3.373,0.795c-0.663,0.247-1.432,0.306-1.808,0.495c-0.75,0.374-1.186,1.458-1.827,1.923
	c-0.423,0.312-0.996,0.338-1.381,0.647c-1.015,0.808-2.228,2.027-2.701,3.056c-0.258,0.562-0.694,2.007-0.598,2.917
	c0.103,0.918,0.729,0.784,1.083,1.419c0.268,0.481,0.143,1.284,0.498,1.808c0.436,0.653,0.902,0.649,1.329,1.112
	c4.59,0.811,5.48-3.409,10.303-1.921C27.863,36.119,29.033,37.503,29.323,38.789z"/>
<path fill="#FFFFFF" d="M32.646,43.388c-1.023-1.799-0.681-4.078-1.438-5.969c-0.507-1.26-2.219-4.254-3.762-4.637
	c-1.167-0.289-2.508-0.344-3.382-0.31c-2.608,0.101-4.382,2.91-6.395,2.5c-1.5-0.307-1.251-2.762-0.498-4.23
	c0.94-1.817,3.778-2.544,4.562-4.098c2.266-1.084,5.066-1.369,7.22,0.549C32.519,30.376,31.812,38.263,32.646,43.388z"/>
<path fill="#FFFFFF" d="M34.806,57.125c0.582,0.693,1.316,1.695,2.291,2.63c1.431,1.372,2.829,3.218,4.546,4.493
	c0.791,0.585,1.936,1.15,2.928,1.695c3.507,1.924,7.703,2.979,13.172,2.854c3.366-0.081,5.271-0.766,7.456-2.07
	c2.072-1.24,3.328-2.908,5.259-4.582c1.201-1.039,1.911-2.593,3.062-3.356c0.599-0.401,2.607-1.13,3.285-1.024
	c2.035,0.321,2.846,4.192,1.707,6.653c-0.479,1.039-1.812,1.422-2.863,2.381c-0.733,0.669-1.047,1.581-1.619,2.054
	c-0.863,0.727-1.967,1.09-3.022,1.817c-0.896,0.613-1.849,1.658-2.604,1.964c-0.508,0.205-1.229,0.178-1.907,0.376
	c-0.981,0.293-1.86,0.845-2.606,0.865c-3.437,0.087-7.507-1.08-10.177-1.92c-1.231-0.386-2.521-0.896-3.734-1.332
	c-2.362-0.853-4.823-2.29-6.616-3.468c-0.856-0.559-1.556-1.428-2.334-2.195c-0.806-0.791-1.795-1.413-2.452-2.096
	C37.012,61.236,36.001,58.927,34.806,57.125z"/>
</svg>
