<?xml version="1.0" encoding="utf-8"?>
<!-- Generator: Adobe Illustrator 16.0.0, SVG Export Plug-In . SVG Version: 6.00 Build 0)  -->
<!DOCTYPE svg PUBLIC "-//W3C//DTD SVG 1.1//EN" "http://www.w3.org/Graphics/SVG/1.1/DTD/svg11.dtd">
<svg version="1.1" id="Layer_1" xmlns="http://www.w3.org/2000/svg" xmlns:xlink="http://www.w3.org/1999/xlink" x="0px" y="0px"
	 width="100px" height="100px" viewBox="0 0 100 100" enable-background="new 0 0 100 100" xml:space="preserve">
<path fill-rule="evenodd" clip-rule="evenodd" d="M71.481,41.166c2.267,4.272,5.785,7.958,6.818,14.145
	c0.273,1.627,0.347,3.514,0.515,5.277c0.095,1.033,0.504,1.994,0.511,2.953c0.015,0.916-0.313,1.896-0.511,2.836
	c-0.211,0.984-0.183,2.023-0.387,2.953c-0.176,0.791-0.737,1.695-1.029,2.574c-0.317,0.961-0.452,2.045-0.771,2.699
	c-0.784,1.627-2.639,3.197-3.985,4.629c-1.324,1.416-2.916,3.156-4.5,4.113c-1.38,0.84-3.381,1.471-5.274,2.318
	c-2.808,1.252-4.896,2.152-8.361,2.957c-2.672,0.619-6.067,1.543-9.257,1.93c-1.975,0.244-3.854,0.93-5.658,1.416
	c-3.31,0.891-6.277,2.105-10.292,1.156c-1.45-0.346-2.898-1.354-4.373-1.93c-2.416-0.945-4.541-1.496-6.3-2.828
	c-1.029-0.785-2.109-1.785-3.087-2.701c-1.956-1.822-3.949-4.139-5.274-6.686c-0.73-1.414-0.964-3.059-1.544-4.633
	c-0.554-1.523-1.146-3.076-1.671-4.629c-0.511-1.533-1.307-3.188-1.54-4.629c-0.27-1.664-0.117-3.674,0-5.404
	c0.35-5.309,1.715-9.926,3.985-13.37c1.354-2.058,3.256-3.217,5.533-4.763c2.051-1.391,5-3.641,8.614-2.831
	c1.664,0.38,4.636,2.876,5.271,3.99c0.335,0.58,0.606,1.777,0.905,2.828c0.251,0.904,0.693,1.865,0.898,2.702
	c0.35,1.412,0.241,2.792,0.642,3.987c0.219,0.666,0.679,1.15,1.157,2.188c0.259,0.554,0.602,2.229,1.412,1.93
	c0.526-0.195,0.548-1.376,0.387-2.445c-0.131-0.863-0.715-1.707-1.153-2.701c-0.405-0.916-0.65-2-1.029-2.829
	c-0.504-1.087-1.343-1.919-1.803-2.959c-0.289-0.657-0.372-1.539-0.643-2.312c-0.27-0.781-0.883-1.52-1.029-2.187
	c-0.292-1.33-0.066-3.095-0.387-4.63c-0.189-0.916-0.792-1.739-0.897-2.445c-0.679-4.495,1.328-8.681,3.087-11.187
	c3.187-4.548,9.012-7.137,14.917-9.517c1.712-0.691,3.515-0.967,5.274-1.543c0.869-0.281,1.518-0.862,2.314-1.156
	c1.683-0.625,3.767-0.976,5.789-1.159c1.993-0.181,3.927-0.635,5.912-0.901c2.993-0.396,6.089-0.303,8.877-0.773
	c5.3-0.887,9.781,2.553,12.862,4.761c1.708,1.232,2.277,1.387,3.599,3.214c0.964,1.336,2.452,3.566,2.956,5.404
	c0.146,0.525,0.015,1.133,0.125,1.671c0.175,0.816,0.744,1.46,0.904,2.187c0.168,0.801,0.008,1.849,0.124,2.829
	c0.081,0.666,0.481,1.387,0.52,1.929c0.123,2.014-1.614,6.922-2.702,8.23c-0.795,0.957-2.511,1.938-4.24,3.088
	c-2.432,1.61-5.008,3.754-8.489,3.472C76.04,44.126,73.457,42.807,71.481,41.166z M67.624,11.715
	c-3.738,0.305-6.489,1.323-9.516,1.803c-1.609,0.254-3.317,0.329-5.018,0.643c-3.384,0.625-6.629,1.927-9.257,3.084
	c-1,0.441-2.07,0.742-2.956,1.159c-3.38,1.584-6.004,3.575-7.976,6.303c-1.507,2.081-2.938,5.099-2.314,8.744
	c0.084,0.511,0.486,1.161,0.643,1.803c0.391,1.584,0.215,3.595,0.646,5.143c0.117,0.425,0.533,0.991,0.771,1.668
	c0.197,0.573,0.267,1.303,0.515,1.933c0.357,0.92,1.259,1.76,1.796,2.958c0.405,0.896,0.69,2.082,1.16,3.086
	c0.504,1.073,1.073,2.043,1.285,3.084c0.606,2.967-0.167,5.775-2.182,6.305c-3.256,0.846-4.482-1.279-5.402-3.346
	c-0.416-0.923-1.124-1.934-1.417-2.828c-0.387-1.191-0.357-2.604-0.642-3.857c-0.183-0.782-0.569-1.628-0.774-2.444
	c-0.577-2.325-2.084-4.802-4.241-5.145c-2.964-0.473-4.519,1.259-6.303,2.442c-2.975,1.969-4.661,3.487-6.175,6.818
	c-1.267,2.797-2.194,9.021-1.544,13.375c0.277,1.852,1.307,4.047,2.059,6.172c0.358,1,0.687,2.123,1.03,3.086
	c0.416,1.16,0.635,2.332,1.029,3.219c0.347,0.762,0.796,1.084,1.285,1.797c0.394,0.562,0.547,1.352,0.905,1.803
	c0.657,0.838,1.581,1.488,2.314,2.311c0.756,0.859,1.65,1.553,2.442,2.32c1.814,1.744,3.898,2.158,6.304,3.082
	c2.5,0.967,5.299,2.551,8.486,1.799c1.924-0.449,3.759-1.352,5.657-1.926c2.099-0.637,4.274-0.662,6.69-1.027
	c1.398-0.215,3.211-0.777,4.759-1.289c1.624-0.531,3.3-0.705,4.884-1.152c1.614-0.461,3.438-1.482,5.016-2.188
	c1.7-0.758,3.627-1.529,4.891-2.318c1.241-0.773,2.445-2.139,3.729-3.34c2.432-2.287,3.855-4.441,4.757-8.363
	c0.711-3.115,0.748-5.529,0.383-8.746c-0.431-3.792-1.46-7.434-2.825-10.026c-1.38-2.604-3.689-4.659-4.632-7.462
	c-0.577-1.713-0.88-4.805,0.901-5.529c2.906-1.181,4.416,2.148,7.202,3.214c1.212,0.471,3.223,1.063,4.756,0.772
	c1.48-0.281,3.117-1.497,4.503-2.443c1.227-0.84,3.219-1.802,3.985-2.955c0.38-0.578,0.489-1.553,0.774-2.316
	c0.723-1.965,0.781-2.668,0.511-4.632c-0.109-0.832,0.036-1.817-0.132-2.701c-0.087-0.493-0.466-1.084-0.634-1.672
	c-0.204-0.673-0.197-1.432-0.388-2.056c-0.504-1.592-2.24-4.376-3.219-5.271c-0.562-0.518-1.592-0.854-2.314-1.416
	c-2.832-2.208-5.992-4.216-10.804-3.858C71.248,11.463,69.398,11.572,67.624,11.715z"/>
<path fill-rule="evenodd" clip-rule="evenodd" d="M64.795,14.161c1.157-0.146,3.476,0.049,5.53,0
	c2.073-0.053,4.248-0.183,5.788,0.126c1.701,0.343,4.095,1.748,5.526,2.83c3.227,2.427,7.03,7.292,4.372,12.86
	c-0.884,1.869-3.044,3.599-4.752,4.502c-1.971,1.037-3.364,1.13-5.661,0.643c-0.828-0.179-1.777-0.077-2.441-0.259
	c-1.292-0.348-2.073-1.509-3.347-1.795c-3.661-0.833-8.23,0.925-8.742,3.856c-0.357,2.042,0.953,3.873,1.672,5.141
	c0.872,1.555,1.687,2.803,2.569,4.119c1.629,2.418,3.348,6.888,3.986,9.517c0.584,2.375,0.657,6.537,0.131,9.135
	c-0.729,3.566-3.559,6.959-6.308,9.641c-2.816,2.768-5.693,4.889-9.124,6.686c-3.555,1.859-8.099,2.883-12.22,3.729
	c-4.588,0.949-9.858,1.111-14.016,0c-2.263-0.598-4.387-1.648-6.431-2.568c-2.489-1.117-4.066-4.822-5.402-7.584
	c-0.661-1.371-1.551-2.797-2.059-4.248c-2.603-7.414-3.211-18.725,1.803-23.276c1.413-1.285,4.118-2.319,7.202-1.674
	c0.938,0.2,3.022,1.232,3.603,2.316c1.332,2.5-0.128,6.818,0.124,9.904c0.109,1.285,0.817,5.189,1.671,6.172
	c0.862,0.988,3.329,1.314,4.632,1.283c1.792-0.037,3.066-0.967,4.628-1.672c2.898-1.297,5.631-2.693,6.044-6.424
	c0.215-1.959-0.15-3.637-0.643-5.149c-1.383-4.247-5.624-6.088-6.946-8.871c-1.562-3.301-1.266-9.252-0.127-12.476
	c1.084-3.055,3.467-6.463,5.661-7.973c2.193-1.513,5.46-2.327,8.358-3.217c2.997-0.916,6.482-1.276,9-2.569
	c0.846-0.433,1.562-1.613,2.314-1.928C62.156,14.527,64.032,14.253,64.795,14.161z M15.285,60.203
	c0.255,2.939,0.851,6.502,1.927,9.256c0.569,1.449,1.603,3.068,2.446,4.887c0.792,1.713,2.029,3.922,3.215,4.633
	c4.409,2.65,11.016,3.338,17.359,2.057c3.442-0.697,7-1.383,9.902-2.57c5.374-2.207,11.045-6.588,13.76-11.066
	c1.686-2.773,2.062-7.035,1.416-10.416c-0.606-3.175-2.19-6.803-3.861-9.258c-2.259-3.323-6.146-8.749-3.468-13.629
	c1.785-3.263,6.885-6.423,13.118-4.889c1.314,0.321,2,1.4,3.088,1.799c0.704,0.261,2.993,0.693,3.6,0.645
	c1.678-0.148,4.226-2.234,4.759-3.86c1.175-3.556-1.285-6.071-3.475-7.716c-0.964-0.724-3.11-1.978-4.113-2.186
	c-1.617-0.33-3.529,0.07-5.146,0c-1.866-0.084-3.479-0.547-5.144-0.383c-0.555,0.479-1.518,0.289-2.314,0.513
	c-1.35,0.375-2.748,1.277-4.244,1.927c-1.456,0.635-3.04,1.221-4.628,1.674c-7.121,2.027-12.15,3.443-14.534,10.032
	c-0.901,2.485-1.223,6.885,0,9.646c0.872,1.964,3.416,3.116,4.628,4.627c3.887,4.849,5.526,13.729,0.387,18.521
	c-1.909,1.779-6.271,3.836-9.004,4.5c-3.88,0.945-8.961-0.664-10.417-3.344C22.336,61.535,22.584,55.34,23,49.526
	C17.073,46.781,14.715,53.694,15.285,60.203z"/>
<path fill-rule="evenodd" clip-rule="evenodd" d="M78.3,24.834c-0.3,1.506-2.544,2.936-4.632,2.829
	c-2.021-0.102-2.497-1.858-5.402-1.416c-0.923,0.142-2.824,1.169-4.627,2.058c-2.628,1.298-5.183,2.046-6.942,3.732
	c-0.504,0.48-1.461,1.533-1.676,2.058c-0.216,0.519-0.178,1.342-0.384,2.055c-0.51,1.765-0.558,2.991,0.257,4.887
	c0.459,1.066,1.467,1.715,2.189,2.831c0.42,0.653,0.69,1.562,1.153,2.314c0.485,0.781,1.303,1.461,1.676,2.186
	c0.271,0.531,0.339,1.283,0.638,1.931c0.277,0.595,0.73,1.084,0.898,1.668c0.241,0.825,0.132,1.634,0.387,2.446
	c0.215,0.66,0.861,1.2,1.033,1.93c0.639,2.699,0.251,6.811-0.646,9c-1.22,2.975-3.921,5.004-6.688,6.945
	c-1.504,1.053-3.102,2.328-4.628,3.215c-3.237,1.875-8.037,4.188-12.603,4.629c-4.968,0.479-6.979-1.461-10.29-3.088
	c-1.211-0.594-2.46-1.117-3.088-1.67c-1.175-1.031-3.577-3.531-2.825-5.143c0.971-2.102,5.015-0.033,6.299,0.385
	c1.548,0.496,3.694,1.244,5.658,1.287c1.401,0.029,3.256-0.516,4.76-0.902c3.584-0.912,5.719-1.795,8.358-3.982
	c2.35-1.953,4.671-5.475,4.632-9.521c-0.008-0.547-0.297-1.119-0.387-1.799c-0.318-2.324-0.354-4.246-1.544-5.917
	c-1.468-1.333-2.285-3.11-3.343-4.628c-0.646-0.927-1.592-1.566-2.059-2.575c-0.416-0.905-0.876-2.297-1.161-3.34
	c-0.335-1.261-0.365-2.576-0.124-3.732c0.263-1.268,0.986-3.931,1.413-4.755c0.781-1.495,3.117-3.265,4.759-4.504
	c3.562-2.681,7.005-4.123,11.83-5.398c3.379-0.896,7.146-1.422,10.288-0.129c1.438,0.588,2.395,2.025,3.858,2.699
	C76.395,23.902,77.479,23.898,78.3,24.834z M47.309,32.422c0.116,1.511-0.887,2.603-1.034,3.988
	c-0.178,1.737,0.898,2.983,1.034,4.756c1.741,1.235,2.47,3.457,3.73,5.148c0.488,0.655,1.168,1.026,1.54,1.67
	c0.894,1.542,1.307,2.657,1.671,4.625c0.096,0.516,0.471,1.085,0.516,1.545c0.032,0.345-0.267,0.693-0.259,1.031
	c0.025,0.751,0.51,1.49,0.514,2.186c0.011,1.326-0.384,3.049-0.771,4.373c-0.861,2.961-3.105,5.986-5.27,7.715
	c-1.317,1.051-3.248,2.504-4.759,3.09c-0.54,0.201-1.248,0.191-1.931,0.381c-2.573,0.715-6.092,2.178-8.873,1.93
	c-1.058-0.088-1.971-0.838-3.087-0.385c1.054,0.842,2.336,1.088,3.73,1.676c0.525,0.219,0.898,0.684,1.285,0.771
	c2.153,0.455,4.745-0.178,6.303-0.645c2.69-0.803,5.632-2.074,7.844-3.348c0.781-0.443,1.68-1.314,2.701-1.928
	c1.704-1.021,2.744-1.996,3.985-3.086c0.504-0.438,1.106-0.689,1.416-1.027c1.92-2.117,3.18-6.025,2.318-9.771
	c-1.216-0.984-0.844-3.006-1.417-4.631c-0.354-1.012-1.324-1.659-1.288-2.705c-1.32-1.019-1.661-2.657-2.57-4.114
	c-0.784-1.252-1.854-2.031-2.444-3.343c-1.219-2.71-1.06-6.488,0-9.258c1.146-3.008,4.529-5.172,7.328-6.305
	c2.644-1.069,6.132-2.752,8.622-3.603C59.108,23.646,52.192,27.362,47.309,32.422z"/>
<path fill-rule="evenodd" clip-rule="evenodd" fill="#FFFFFF" d="M73.025,11.332c4.812-0.358,7.972,1.65,10.804,3.858
	c0.723,0.562,1.752,0.898,2.314,1.416c0.979,0.895,2.715,3.679,3.219,5.271c0.19,0.624,0.184,1.383,0.388,2.056
	c0.168,0.588,0.547,1.179,0.634,1.672c0.168,0.883,0.022,1.869,0.132,2.701c0.271,1.964,0.212,2.667-0.511,4.632
	c-0.285,0.763-0.395,1.738-0.774,2.316c-0.767,1.153-2.759,2.115-3.985,2.955c-1.386,0.947-3.022,2.162-4.503,2.443
	c-1.533,0.292-3.544-0.301-4.756-0.772c-2.786-1.065-4.296-4.395-7.202-3.214c-1.781,0.725-1.479,3.816-0.901,5.529
	c0.942,2.803,3.252,4.858,4.632,7.462c1.365,2.593,2.395,6.234,2.825,10.026c0.365,3.217,0.328,5.631-0.383,8.746
	c-0.901,3.922-2.325,6.076-4.757,8.363c-1.284,1.201-2.488,2.566-3.729,3.34c-1.264,0.789-3.19,1.561-4.891,2.318
	c-1.577,0.705-3.401,1.727-5.016,2.188c-1.584,0.447-3.26,0.621-4.884,1.152c-1.547,0.512-3.361,1.074-4.759,1.289
	c-2.417,0.365-4.592,0.391-6.69,1.027c-1.898,0.574-3.733,1.477-5.657,1.926c-3.187,0.752-5.986-0.832-8.486-1.799
	c-2.405-0.924-4.49-1.338-6.304-3.082c-0.792-0.768-1.686-1.461-2.442-2.32c-0.733-0.822-1.657-1.473-2.314-2.311
	c-0.357-0.451-0.511-1.24-0.905-1.803c-0.489-0.713-0.938-1.035-1.285-1.797c-0.394-0.887-0.613-2.059-1.029-3.219
	c-0.343-0.963-0.672-2.086-1.03-3.086c-0.751-2.125-1.781-4.32-2.059-6.172c-0.649-4.354,0.277-10.578,1.544-13.375
	c1.515-3.331,3.201-4.85,6.175-6.818c1.785-1.183,3.339-2.915,6.303-2.442c2.157,0.343,3.665,2.82,4.241,5.145
	c0.205,0.815,0.591,1.662,0.774,2.444c0.285,1.253,0.255,2.666,0.642,3.857c0.292,0.895,1,1.905,1.417,2.828
	c0.92,2.066,2.146,4.191,5.402,3.346c2.015-0.529,2.788-3.338,2.182-6.305c-0.211-1.041-0.781-2.012-1.285-3.084
	c-0.47-1.004-0.755-2.19-1.16-3.086c-0.537-1.199-1.438-2.038-1.796-2.958c-0.248-0.629-0.317-1.359-0.515-1.933
	c-0.237-0.677-0.653-1.243-0.771-1.668c-0.43-1.547-0.255-3.559-0.646-5.143c-0.157-0.642-0.559-1.292-0.643-1.803
	c-0.624-3.645,0.807-6.663,2.314-8.744c1.971-2.728,4.595-4.719,7.976-6.303c0.886-0.417,1.956-0.717,2.956-1.159
	c2.628-1.157,5.873-2.458,9.257-3.084c1.7-0.314,3.408-0.389,5.018-0.643c3.026-0.48,5.777-1.498,9.516-1.803
	C69.398,11.572,71.248,11.463,73.025,11.332z M61.193,14.934c-0.753,0.314-1.469,1.495-2.314,1.928
	c-2.519,1.293-6.004,1.653-9,2.569c-2.898,0.891-6.165,1.705-8.358,3.217c-2.194,1.51-4.577,4.918-5.661,7.973
	c-1.139,3.223-1.435,9.174,0.127,12.476c1.322,2.783,5.563,4.625,6.946,8.871c0.493,1.513,0.858,3.19,0.643,5.149
	c-0.413,3.73-3.146,5.127-6.044,6.424c-1.562,0.705-2.836,1.635-4.628,1.672c-1.303,0.031-3.77-0.295-4.632-1.283
	c-0.854-0.982-1.562-4.887-1.671-6.172c-0.252-3.086,1.208-7.403-0.124-9.904c-0.581-1.083-2.665-2.116-3.603-2.316
	c-3.084-0.646-5.789,0.389-7.202,1.674c-5.014,4.552-4.405,15.862-1.803,23.276c0.508,1.451,1.398,2.877,2.059,4.248
	c1.336,2.762,2.913,6.467,5.402,7.584c2.044,0.92,4.168,1.971,6.431,2.568c4.157,1.111,9.428,0.949,14.016,0
	c4.121-0.846,8.665-1.869,12.22-3.729c3.431-1.797,6.308-3.918,9.124-6.686c2.749-2.682,5.578-6.074,6.308-9.641
	c0.526-2.598,0.453-6.76-0.131-9.135c-0.639-2.629-2.357-7.099-3.986-9.517c-0.883-1.316-1.697-2.564-2.569-4.119
	c-0.719-1.268-2.029-3.099-1.672-5.141c0.512-2.931,5.081-4.688,8.742-3.856c1.273,0.286,2.055,1.447,3.347,1.795
	c0.664,0.183,1.613,0.08,2.441,0.259c2.297,0.487,3.69,0.394,5.661-0.643c1.708-0.903,3.868-2.633,4.752-4.502
	c2.658-5.568-1.146-10.433-4.372-12.86c-1.432-1.082-3.825-2.487-5.526-2.83c-1.54-0.309-3.715-0.179-5.788-0.126
	c-2.055,0.049-4.373-0.146-5.53,0C64.032,14.253,62.156,14.527,61.193,14.934z"/>
<path fill-rule="evenodd" clip-rule="evenodd" fill="#FFFFFF" d="M23,49.526c-0.416,5.814-0.665,12.009,1.54,16.076
	c1.456,2.68,6.537,4.289,10.417,3.344c2.734-0.664,7.096-2.721,9.004-4.5c5.139-4.793,3.5-13.673-0.387-18.521
	c-1.212-1.511-3.756-2.663-4.628-4.627c-1.223-2.761-0.901-7.161,0-9.646c2.383-6.588,7.413-8.004,14.534-10.032
	c1.588-0.453,3.172-1.039,4.628-1.674c1.496-0.65,2.895-1.551,4.244-1.927c0.797-0.225,1.76-0.035,2.314-0.513
	c1.665-0.164,3.277,0.299,5.144,0.383c1.617,0.07,3.529-0.33,5.146,0c1.003,0.208,3.149,1.462,4.113,2.186
	c2.189,1.645,4.649,4.16,3.475,7.716c-0.533,1.626-3.081,3.712-4.759,3.86c-0.606,0.049-2.896-0.383-3.6-0.645
	c-1.088-0.399-1.773-1.478-3.088-1.799c-6.233-1.535-11.333,1.626-13.118,4.889c-2.679,4.88,1.209,10.306,3.468,13.629
	c1.671,2.455,3.255,6.083,3.861,9.258c0.646,3.381,0.27,7.643-1.416,10.416c-2.715,4.479-8.387,8.859-13.76,11.066
	c-2.901,1.188-6.46,1.873-9.902,2.57c-6.343,1.281-12.95,0.594-17.359-2.057c-1.186-0.711-2.423-2.92-3.215-4.633
	c-0.843-1.818-1.876-3.438-2.446-4.887c-1.076-2.754-1.671-6.316-1.927-9.256C14.715,53.694,17.073,46.781,23,49.526z M75.34,23.418
	c-1.464-0.674-2.42-2.111-3.858-2.699c-3.143-1.292-6.909-0.767-10.288,0.129c-4.825,1.276-8.268,2.717-11.83,5.398
	c-1.643,1.239-3.978,3.009-4.759,4.504c-0.427,0.825-1.15,3.487-1.413,4.755c-0.241,1.156-0.211,2.471,0.124,3.732
	c0.285,1.042,0.745,2.435,1.161,3.34c0.467,1.009,1.413,1.648,2.059,2.575c1.058,1.518,1.875,3.295,3.343,4.628
	c1.19,1.671,1.226,3.593,1.544,5.917c0.09,0.68,0.379,1.252,0.387,1.799c0.039,4.047-2.282,7.568-4.632,9.521
	c-2.639,2.188-4.774,3.07-8.358,3.982c-1.504,0.387-3.358,0.932-4.76,0.902c-1.964-0.043-4.11-0.791-5.658-1.287
	c-1.285-0.418-5.329-2.486-6.299-0.385c-0.752,1.611,1.649,4.111,2.825,5.143c0.628,0.553,1.876,1.076,3.088,1.67
	c3.311,1.627,5.322,3.566,10.29,3.088c4.566-0.441,9.365-2.754,12.603-4.629c1.526-0.887,3.124-2.162,4.628-3.215
	c2.767-1.941,5.468-3.971,6.688-6.945c0.896-2.189,1.284-6.301,0.646-9c-0.172-0.729-0.818-1.27-1.033-1.93
	c-0.255-0.812-0.146-1.621-0.387-2.446c-0.168-0.584-0.621-1.073-0.898-1.668c-0.299-0.648-0.367-1.4-0.638-1.931
	c-0.373-0.725-1.19-1.405-1.676-2.186c-0.463-0.752-0.733-1.661-1.153-2.314c-0.723-1.115-1.73-1.765-2.189-2.831
	c-0.814-1.896-0.767-3.123-0.257-4.887c0.206-0.713,0.168-1.537,0.384-2.055c0.215-0.525,1.172-1.578,1.676-2.058
	c1.76-1.687,4.314-2.435,6.942-3.732c1.803-0.889,3.704-1.916,4.627-2.058c2.905-0.442,3.381,1.314,5.402,1.416
	C75.756,27.771,78,26.34,78.3,24.834C77.479,23.898,76.395,23.902,75.34,23.418z"/>
<path fill-rule="evenodd" clip-rule="evenodd" fill="#FFFFFF" d="M68.143,23.159c-2.49,0.851-5.979,2.534-8.622,3.603
	c-2.799,1.133-6.183,3.297-7.328,6.305c-1.06,2.77-1.219,6.548,0,9.258c0.591,1.312,1.66,2.091,2.444,3.343
	c0.909,1.457,1.25,3.095,2.57,4.114c-0.036,1.045,0.934,1.693,1.288,2.705c0.573,1.625,0.201,3.646,1.417,4.631
	c0.861,3.746-0.398,7.654-2.318,9.771c-0.31,0.338-0.912,0.59-1.416,1.027c-1.241,1.09-2.281,2.064-3.985,3.086
	c-1.021,0.613-1.92,1.484-2.701,1.928c-2.211,1.273-5.154,2.545-7.844,3.348c-1.559,0.467-4.15,1.1-6.303,0.645
	c-0.387-0.088-0.759-0.553-1.285-0.771c-1.394-0.588-2.676-0.834-3.73-1.676c1.117-0.453,2.029,0.297,3.087,0.385
	c2.781,0.248,6.3-1.215,8.873-1.93c0.683-0.189,1.391-0.18,1.931-0.381c1.511-0.586,3.442-2.039,4.759-3.09
	c2.165-1.729,4.409-4.754,5.27-7.715c0.387-1.324,0.781-3.047,0.771-4.373c-0.004-0.695-0.488-1.435-0.514-2.186
	c-0.008-0.338,0.291-0.687,0.259-1.031c-0.045-0.46-0.42-1.029-0.516-1.545c-0.364-1.968-0.777-3.083-1.671-4.625
	c-0.372-0.644-1.052-1.015-1.54-1.67c-1.26-1.691-1.989-3.913-3.73-5.148c-0.136-1.772-1.212-3.019-1.034-4.756
	c0.146-1.385,1.15-2.477,1.034-3.988C52.192,27.362,59.108,23.646,68.143,23.159z"/>
</svg>
