<?xml version="1.0" encoding="utf-8"?>
<!-- Generator: Adobe Illustrator 16.0.0, SVG Export Plug-In . SVG Version: 6.00 Build 0)  -->
<!DOCTYPE svg PUBLIC "-//W3C//DTD SVG 1.1//EN" "http://www.w3.org/Graphics/SVG/1.1/DTD/svg11.dtd">
<svg version="1.1" id="Layer_1" xmlns="http://www.w3.org/2000/svg" xmlns:xlink="http://www.w3.org/1999/xlink" x="0px" y="0px"
	 width="960px" height="560px" viewBox="0 0 960 560" enable-background="new 0 0 960 560" xml:space="preserve">
<path fill="#333333" d="M758.73,371.517c-9.406-4.023-17.807-7.532-26.146-11.2c-26.865-11.801-54.33-22.206-80.844-34.846
	c-18.558-8.855-37.19-17.603-56.12-25.599c-28.803-12.176-56.771-26.09-84.727-39.988c-26.622-13.235-53.688-25.535-79.895-39.688
	c-24.248-13.095-48.715-25.99-74.273-36.535c-38.434-15.856-74.766-36.12-112.384-53.683c-3.66-1.71-7.121-3.856-11.093-6.034
	c2.25-2.206,4.707-1.555,6.721-1.199c25.566,4.507,51.692,4.255,77.207,8.683c28.755,4.991,57.818,7.085,86.726,10.529
	c17.183,2.05,34.633,1.834,51.96,2.646c11.544,0.547,22.977,2.461,34.575,2.434c7.885-0.016,12.628,5.97,17.755,10.602
	c18.117,16.368,34.856,34.146,52.027,51.497c13.703,13.834,28.896,26.178,43.312,39.312c23.765,21.654,48.691,41.926,73.807,61.966
	c8.523,6.801,17.383,13.267,26.562,19.152c11.396,7.312,21.771,15.96,32.388,24.236C743.47,359.4,751.55,363.893,758.73,371.517z"/>
<path fill="#808080" d="M405.629,214.046c-38.385-2.485-76.272-5.994-114.333-7.225c-15.832-0.511-31.637-1.786-47.457-2.469
	c-3.005-0.128-4.879-1.155-6.13-3.672c-6.37-12.839-12.516-25.802-19.149-38.506c-6.246-11.96-11.373-24.359-15.948-37.019
	c-0.635-1.754-2.27-3.692-0.743-5.351c1.603-1.738,3.632-0.104,5.303,0.591c25.515,10.614,50.77,21.743,75.089,34.985
	c15.041,8.192,31.345,13.854,46.817,21.163c23.241,10.993,47.133,20.616,69.586,33.239
	C401.034,211.121,403.312,212.62,405.629,214.046z"/>
</svg>
