<?xml version="1.0" encoding="utf-8"?>
<!-- Generator: Adobe Illustrator 16.0.0, SVG Export Plug-In . SVG Version: 6.00 Build 0)  -->
<!DOCTYPE svg PUBLIC "-//W3C//DTD SVG 1.1//EN" "http://www.w3.org/Graphics/SVG/1.1/DTD/svg11.dtd">
<svg version="1.1" id="Layer_1" xmlns="http://www.w3.org/2000/svg" xmlns:xlink="http://www.w3.org/1999/xlink" x="0px" y="0px"
	 width="100px" height="100px" viewBox="0 0 100 100" enable-background="new 0 0 100 100" xml:space="preserve">
<path fill="#CCCCCC" d="M54.375,78.625C54.375,81.041,52.416,83,50,83s-4.375-1.959-4.375-4.375S47.584,74.25,50,74.25
	S54.375,76.209,54.375,78.625z M49.125,59c0,0-10.5,10-10.5,19s10.5,20.25,10.5,20.25s1.75-2.5,5-5.5s7.25-9,7.25-13.75
	s-3.5-9.25-5.75-12.5S49.125,59,49.125,59z"/>
<path d="M54.375,78.625C54.375,81.041,52.416,83,50,83s-4.375-1.959-4.375-4.375S47.584,74.25,50,74.25S54.375,76.209,54.375,78.625
	z M50,70.25c-4.625,0-8.375,3.75-8.375,8.375S45.375,87,50,87s8.375-3.75,8.375-8.375S54.625,70.25,50,70.25z"/>
<circle fill="#4D4D4D" cx="50" cy="78.625" r="4.375"/>
</svg>
