<?xml version="1.0" encoding="utf-8"?>
<!-- Generator: Adobe Illustrator 16.0.0, SVG Export Plug-In . SVG Version: 6.00 Build 0)  -->
<!DOCTYPE svg PUBLIC "-//W3C//DTD SVG 1.1//EN" "http://www.w3.org/Graphics/SVG/1.1/DTD/svg11.dtd">
<svg version="1.1" id="Layer_1" xmlns="http://www.w3.org/2000/svg" xmlns:xlink="http://www.w3.org/1999/xlink" x="0px" y="0px"
	 width="1200px" height="1200px" viewBox="0 0 1200 1200" enable-background="new 0 0 1200 1200" xml:space="preserve">
<g>
	<path fill="#231F20" d="M305.595,664.768c-1.472-8.893-2.261-20.266-6.729-31.556c-4.507-11.26-11.29-4.507-13.551,6.768
		C283.068,651.239,307.856,678.266,305.595,664.768z"/>
	<path fill="#231F20" d="M373.183,646.732c-9.014-4.521-9.014-20.258,24.757-20.258c33.809,0,51.829,2.23,67.603,11.26
		c15.766,8.998,8.999,13.505,8.999,13.505s-27.033,0-38.316,0c-11.221,0-24.727-13.505-40.516-13.505
		C379.92,637.734,373.183,646.732,373.183,646.732z"/>
	<path fill="#231F20" d="M427.227,353.907c8.999-6.783,13.521-20.304,13.521-38.286c0-18.035-24.787-29.333-49.537-29.333
		c-24.811,0-63.089,11.298-83.355,29.333c-20.28,17.981-20.28,31.502-20.28,31.502s18.019-33.794,56.305-33.794
		C382.167,313.33,427.227,353.907,427.227,353.907z"/>
	<path fill="#231F20" d="M634.476,329.127c18.042-2.292,56.321-36.07,81.101-49.567c24.804-13.521,92.368-18.028,150.911,13.497
		c58.598,31.548,101.367,99.137,110.381,112.642c9.052,13.536,9.052-6.737-15.759-40.547
		c-24.787-33.794-85.6-130.646-216.261-130.646c-130.64,0-166.679,96.852-148.674,96.852
		C614.209,331.357,634.476,329.127,634.476,329.127z"/>
	<path fill="#231F20" d="M616.471,447.368c-6.79-1.115-6.79-6.768,1.108-6.768c7.883,0,56.327-1.131,69.825-3.353
		c13.528-2.261,47.322-4.477,70.965-2.261c23.634,2.261,83.347,22.512,95.752,27.019c12.366,4.529,21.646,15.318,36.024,18.043
		c18.042,3.376,45.031,5.606,45.031,5.606s-17.99,4.553-29.265,5.637c-11.229,1.146-32.664,2.277-32.664,2.277
		s19.174,6.737,30.418,6.737c11.289,0,23.68,0,23.68,0s-24.795,6.783-39.446,6.783s-21.412,0-21.412,0s7.907,10.114,18.051,12.36
		c10.145,2.276,21.374,2.276,21.374,2.276s-25.896,6.738-42.784-0.015c-16.905-6.737-21.412-10.129-21.412-10.129l10.144,13.521
		c0,0-19.15-6.783-28.148-12.375c-9.021-5.637-14.675-6.783-14.675-6.783l15.806,15.766c0,0-14.674-3.376-31.533-11.244
		c-16.897-7.907-30.433-13.551-30.433-13.551l6.752,19.158c0,0-7.883-10.129-12.374-14.659c-4.508-4.499-4.508-4.499-4.508-4.499
		s-9.006,1.13-9.006,6.783c0,5.622-6.753,16.882-6.753,16.882s-1.131-25.896-7.905-23.665c-6.737,2.261-10.129,13.551-10.129,13.551
		s-2.246-19.174-7.898-16.897c-5.615,2.246-16.859,7.845-16.859,7.845s5.622-16.858,0-14.598c-5.66,2.231-16.897,4.476-16.897,4.476
		s5.601-11.244-1.13-12.375c-6.783-1.146-20.289,2.246-20.289,2.246s7.898-3.392,0-7.845c-7.921-4.522-11.259-4.522-20.272-4.522
		c-8.983,0-20.267-2.261-16.897-4.522c3.392-2.269,12.391-3.384,6.753-7.861C619.854,451.875,616.471,447.368,616.471,447.368z"/>
	<path fill="#231F20" d="M379.109,446.525c0,0-29.606,0-41.412,0.842c-11.835,0.88-28.741,0.88-35.493,0.88
		c-6.76,0-20.266,2.496-30.402,2.496c-10.122,0-30.41-5.888-30.41-5.888s4.227,10.129,11.002,14.348
		c6.737,4.219,11.798,7.58,11.798,7.58s-2.511,1.715-10.144,0c-7.595-1.662-14.348-4.188-14.348-4.188s10.979,13.497,17.739,16.04
		c6.752,2.526,14.363,2.526,14.363,2.526s-2.542,5.083-7.61,5.083c-5.061,0-12.64,1.669-12.64,1.669l19.416,2.527
		c0,0-5.068,10.971-9.287,12.701c-4.241,1.677-7.633,13.498-7.633,13.498s7.633-4.218,11.852-5.918
		c4.233-1.677,8.445-1.677,8.445-1.677s-7.58,8.459-8.445,12.663c-0.88,4.249-0.88,12.671-0.88,12.671s6.783-10.949,9.325-11.813
		c2.526-0.857,5.076,0,5.076,0s6.768-9.302,10.971-11.844c4.203-2.519,13.536-17.739,23.635-18.589
		c10.175-0.842,21.146-5.888,27.072-5.888c5.895,0,18.551-11.001,23.656-17.747C369.792,461.73,379.109,446.525,379.109,446.525z"/>
	<path fill="#231F20" d="M541.015,899.041c-3.407-7.913-24.795-75.485-87.854-112.664c-63.097-37.155-83.37-38.285-101.367-37.155
		c-18.043,1.131-25.933,2.262-36.07,0c-10.129-2.245-60.828,0.016-78.817,31.548c-18.02,31.548-22.542,77.725-16.905,92.346
		c5.623,14.636,11.245,13.506,11.245,13.506s-11.245,21.418-11.245,39.446c0,18.027,18.028,38.285,61.936,38.285
		c43.924,0,108.127,0,156.549-9.006c48.453-9.028,74.341-23.657,86.761-25.889c12.36-2.261,18.027-12.404,18.027-12.404
		C546.652,914.777,544.391,906.909,541.015,899.041z M378.821,784.161c-6.738,0-11.26-7.913-6.738-11.289
		c4.476-3.361,8.71-0.448,16.867,2.261c6.76,2.246,8.991,4.507,16.866,11.244c7.914,6.776,1.146,13.551-1.1,9.044
		c-2.269-4.529-12.375,4.507-15.767,4.507c-3.392,0-6.783-4.507-3.392-6.774C388.95,790.892,385.558,784.161,378.821,784.161z
		 M375.429,753.729c9.014,0,20.281,9.029,15.782,9.029c-4.507,0-5.653,0-18.028-1.131
		C360.8,760.497,368.691,753.729,375.429,753.729z M350.664,758.251c1.13-5.614,7.868,1.115,8.983,7.868
		C360.8,772.872,348.76,767.743,350.664,758.251z M303.334,774.002c2.261,6.768-8.847,5.652-7.891-1.13
		C296.604,764.988,301.088,767.249,303.334,774.002z M349.502,957.562h-10.129c-3.088,0-5.622-2.497-5.622-5.607
		c0-3.088,2.534-5.637,5.622-5.637h10.129c3.134,0,5.676,2.549,5.676,5.637C355.178,955.065,352.637,957.562,349.502,957.562z
		 M375.982,957.562h-10.144c-2.147,0-3.908-1.769-3.908-3.885c0-2.193,1.76-3.968,3.908-3.968h10.144
		c2.186,0,3.938,1.774,3.938,3.968C379.92,955.794,378.168,957.562,375.982,957.562z M390.064,928.882
		c0,4.045-3.262,7.329-7.306,7.329c-4.044,0-7.33-3.284-7.33-7.329v-3.361c0-4.074,3.285-7.358,7.33-7.358
		c4.044,0,7.306,3.284,7.306,7.358V928.882z M404.716,953.101c0,2.489-2.003,4.462-4.53,4.462c-2.48,0-4.477-1.973-4.477-4.462
		v-3.391c0-2.482,1.996-4.516,4.477-4.516c2.527,0,4.53,2.033,4.53,4.516V953.101z M410.338,927.736
		c0,2.822-2.261,5.083-5.039,5.083c-2.83,0-5.114-2.261-5.114-5.083V922.1c0-2.785,2.284-5.046,5.114-5.046
		c2.778,0,5.039,2.261,5.039,5.046V927.736z M456.499,883.268c-8.99,0-23.635-2.27-34.886-2.27c-11.275,0-19.166-7.883-19.166-7.883
		s1.153,5.661-19.15,1.131c-20.25-4.477-28.119-4.477-33.794-4.477c-4.756,0-6.957-4.645-7.564-6.146
		c0.099,0.986-1.305,2.755-12.686,2.755c-15.774,0-25.918-2.276-25.918-2.276s-4.469,3.392-10.106,4.522
		c-4.446,0.91-9.029-3.392-9.029-3.392s5.637-11.26,11.244-14.629c5.645-3.392,5.645,0,5.645,0s-1.13-5.638,14.636-11.26
		c15.781-5.659,16.896-5.659,24.78-5.659c7.899,0,7.899,6.79,7.899,6.79s3.361-4.515,14.644-3.392
		c11.267,1.146,30.41,6.737,38.27,10.129c7.892,3.392,9.022,7.892,9.022,7.892s4.522-5.615,13.536,0
		c8.99,5.622,25.896,14.666,33.756,18.012C465.543,876.507,465.543,883.268,456.499,883.268z M420.498,801.059
		c4.507-3.392,4.507-2.246,10.121,2.23c5.607,4.507-2.261,3.376-7.875,4.507C417.091,808.927,416.673,803.927,420.498,801.059z
		 M480.179,831.438c-4.507-4.492-15.766-11.26-20.288-16.89c-4.469-5.622-8.976-5.622-20.289-12.36
		c-11.245-6.768-15.728-15.812-23.641-23.664c-7.854-7.884-13.514-13.536-7.854-13.536c5.623,0,11.245,6.783,17.998,12.391
		c6.759,5.652,20.288,8.998,27.056,14.643c6.73,5.646,18.004,14.644,24.757,20.296c6.76,5.623,6.76,13.499,13.543,23.643
		C498.192,846.097,486.394,837.667,480.179,831.438z"/>
</g>
</svg>
