<?xml version="1.0" encoding="utf-8"?>
<!-- Generator: Adobe Illustrator 16.0.0, SVG Export Plug-In . SVG Version: 6.00 Build 0)  -->
<!DOCTYPE svg PUBLIC "-//W3C//DTD SVG 1.1//EN" "http://www.w3.org/Graphics/SVG/1.1/DTD/svg11.dtd">
<svg version="1.1" id="Layer_1" xmlns="http://www.w3.org/2000/svg" xmlns:xlink="http://www.w3.org/1999/xlink" x="0px" y="0px"
	 width="100px" height="100px" viewBox="0 0 100 100" enable-background="new 0 0 100 100" xml:space="preserve">
<g>
	<path d="M53-54.215c0,0.104-0.051,0.141-0.201,0.275c-0.879,0.936-3.164,2.283-5.842,0.057c-0.049-0.041-0.239-0.234-0.264-0.332
		l-0.003-7.032l0.019-260.391c0,0,0.636-6.452,1.584-10.975c1.324-7.676,2.747-4.608,3.486,0.15
		c0.136-0.497,1.221,11.38,1.221,11.38v259.835V-54.215z"/>
	<path d="M53,1.254c0,0.068,0.055,0.094-0.098,0.184c-0.879,0.626-3.581,1.527-6.258,0.038C46.595,1.448,46,1.318,46,1.254
		c0-0.367,0-26.846,0-26.846s1.095-4.314,2.043-7.34c1.324-5.135,2.872-3.082,3.611,0.1C51.79-33.164,53-25.221,53-25.221
		S53,0.885,53,1.254z"/>
	<path d="M53,48.254c0,0.068,0.055,0.094-0.098,0.184c-0.879,0.626-3.581,1.527-6.258,0.038C46.595,48.448,46,48.319,46,48.254
		c0-0.366,0-26.846,0-26.846s1.095-4.314,2.043-7.34c1.324-5.135,2.872-3.082,3.611,0.1C51.79,13.836,53,21.779,53,21.779
		S53,47.885,53,48.254z"/>
	<path d="M46,62.994c0-0.068,0.447-0.094,0.597-0.184c0.879-0.627,3.331-1.527,6.008-0.039C52.654,62.8,53,62.93,53,62.994
		c0,0.365,0,26.846,0,26.846s-0.594,4.314-1.543,7.34c-1.324,5.135-3.121,3.082-3.861-0.101C47.461,97.411,46,89.468,46,89.468
		S46,63.363,46,62.994z"/>
</g>
<path fill="#CCCCCC" d="M54.375-44.375C54.375-41.959,52.416-40,50-40s-4.375-1.959-4.375-4.375S47.584-48.75,50-48.75
	S54.375-46.791,54.375-44.375z M49.125-64c0,0-10.5,10-10.5,19s10.5,20.25,10.5,20.25s1.75-2.5,5-5.5s7.25-7.5,7.25-12.25
	s-3.5-10.75-5.75-14S49.125-64,49.125-64z"/>
<g>
	<path fill="#CCCCCC" d="M54.375-44.375C54.375-41.959,52.416-40,50-40s-4.375-1.959-4.375-4.375S47.584-48.75,50-48.75
		S54.375-46.791,54.375-44.375z M49.125-64c0,0-10.5,10-10.5,19s10.5,20.25,10.5,20.25s1.75-2.5,5-5.5s7.25-7.5,7.25-12.25
		s-3.5-10.75-5.75-14S49.125-64,49.125-64z"/>
</g>
<path fill="#CCCCCC" d="M54.375-44.375C54.375-41.959,52.416-40,50-40s-4.375-1.959-4.375-4.375S47.584-48.75,50-48.75
	S54.375-46.791,54.375-44.375z M49.125-64c0,0-10.5,10-10.5,19s10.5,20.25,10.5,20.25s1.75-2.5,5-5.5s7.25-9,7.25-13.75
	s-3.5-9.25-5.75-12.5S49.125-64,49.125-64z"/>
<path d="M54.375-44.375C54.375-41.959,52.416-40,50-40s-4.375-1.959-4.375-4.375S47.584-48.75,50-48.75S54.375-46.791,54.375-44.375
	z M50-52.75c-4.625,0-8.375,3.75-8.375,8.375S45.375-36,50-36s8.375-3.75,8.375-8.375S54.625-52.75,50-52.75z"/>
<circle fill="#4D4D4D" cx="50" cy="-44.375" r="4.375"/>
<path fill="#CCCCCC" d="M54.375-212.375c0,2.416-1.959,4.375-4.375,4.375s-4.375-1.959-4.375-4.375s1.959-4.375,4.375-4.375
	S54.375-214.791,54.375-212.375z M49.125-232c0,0-10.5,10-10.5,19s10.5,20.25,10.5,20.25s1.75-2.5,5-5.5s7.25-9,7.25-13.75
	s-3.5-9.25-5.75-12.5S49.125-232,49.125-232z"/>
<path d="M54.375-212.375c0,2.416-1.959,4.375-4.375,4.375s-4.375-1.959-4.375-4.375s1.959-4.375,4.375-4.375
	S54.375-214.791,54.375-212.375z M50-220.75c-4.625,0-8.375,3.75-8.375,8.375S45.375-204,50-204s8.375-3.75,8.375-8.375
	S54.625-220.75,50-220.75z"/>
<circle fill="#4D4D4D" cx="50" cy="-212.375" r="4.375"/>
<path fill="#CCCCCC" d="M54.375,6.625C54.375,9.041,52.416,11,50,11s-4.375-1.959-4.375-4.375S47.584,2.25,50,2.25
	S54.375,4.209,54.375,6.625z M49.125-13c0,0-10.5,10-10.5,19s10.5,20.25,10.5,20.25s1.75-2.5,5-5.5s7.25-9,7.25-13.75
	s-3.5-9.25-5.75-12.5S49.125-13,49.125-13z"/>
<path d="M54.375,6.625C54.375,9.041,52.416,11,50,11s-4.375-1.959-4.375-4.375S47.584,2.25,50,2.25S54.375,4.209,54.375,6.625z
	 M50-1.75c-4.625,0-8.375,3.75-8.375,8.375S45.375,15,50,15s8.375-3.75,8.375-8.375S54.625-1.75,50-1.75z"/>
<circle fill="#4D4D4D" cx="50" cy="6.625" r="4.375"/>
<path fill="#CCCCCC" d="M54.375,53.625C54.375,56.041,52.416,58,50,58s-4.375-1.959-4.375-4.375S47.584,49.25,50,49.25
	S54.375,51.209,54.375,53.625z M49.125,34c0,0-10.5,10-10.5,19s10.5,20.25,10.5,20.25s1.75-2.5,5-5.5s7.25-9,7.25-13.75
	s-3.5-9.25-5.75-12.5S49.125,34,49.125,34z"/>
<path d="M54.375,53.625C54.375,56.041,52.416,58,50,58s-4.375-1.959-4.375-4.375S47.584,49.25,50,49.25S54.375,51.209,54.375,53.625
	z M50,45.25c-4.625,0-8.375,3.75-8.375,8.375S45.375,62,50,62s8.375-3.75,8.375-8.375S54.625,45.25,50,45.25z"/>
<circle fill="#4D4D4D" cx="50" cy="53.625" r="4.375"/>
</svg>
