<?xml version="1.0" encoding="utf-8"?>
<!-- Generator: Adobe Illustrator 16.0.0, SVG Export Plug-In . SVG Version: 6.00 Build 0)  -->
<!DOCTYPE svg PUBLIC "-//W3C//DTD SVG 1.1//EN" "http://www.w3.org/Graphics/SVG/1.1/DTD/svg11.dtd">
<svg version="1.1" id="Layer_1" xmlns="http://www.w3.org/2000/svg" xmlns:xlink="http://www.w3.org/1999/xlink" x="0px" y="0px"
	 width="1000px" height="1000px" viewBox="0 0 1000 1000" enable-background="new 0 0 1000 1000" xml:space="preserve">
<g>
	<path fill="#E6E6E6" d="M638.52,361.78c0,0-106.786-55.204-162.44-47.058c-36.788,5.381-86.318,24.204-115.679,36.35
		c-0.233,14.769-0.212,33.467,0.766,50.095c2,34,24.667,73.333,25.333,81.333s-9.556,86.001-13.111,91.334
		s3.778,15.333,9.111,21.333s7.396,30.001,4.031,34.667s5.302,12.666,10.635,16.666s34.667,23.334,35.333,31.334
		s-5.334,26.667,9.333,28S608.688,605.116,627.834,598.5c5.46-1.887,10.296-3.51,14.425-4.867
		C644.074,538.604,638.52,361.78,638.52,361.78z"/>
</g>
</svg>
