<?xml version="1.0" encoding="utf-8"?>
<!-- Generator: Adobe Illustrator 16.0.0, SVG Export Plug-In . SVG Version: 6.00 Build 0)  -->
<!DOCTYPE svg PUBLIC "-//W3C//DTD SVG 1.1//EN" "http://www.w3.org/Graphics/SVG/1.1/DTD/svg11.dtd">
<svg version="1.1" id="Layer_1" xmlns="http://www.w3.org/2000/svg" xmlns:xlink="http://www.w3.org/1999/xlink" x="0px" y="0px"
	 width="100px" height="100px" viewBox="-25 -25 100 100" enable-background="new -25 -25 100 100" xml:space="preserve">
<g>
	<path fill="#4D4D4D" d="M35.762,13.798c3.743,0.224,8.843-0.676,14.302-2.752c7.786-2.971,14.084-7.452,16.34-11.31
		c0.42-0.705-0.723-0.848-1.878-1.009c-0.935-0.124-1.896-0.26-1.99-0.746c-0.222-1.057,3.024-3.396,2.548-4.208
		C65.038-6.3,64.968-6.358,64.858-6.4c-2.57-1.106-6.919-1.045-12.012,0.164c0.192-0.59,0.337-1.169,0.47-1.738
		c-1.093,3.103-8.791,17.011-8.791,17.011S41.031,11.875,35.762,13.798z"/>
	<g>
		<g>
			<path id="SVGID_1_" fill="#4D4D4D" d="M38.266,43.448c0.055-0.956-2.748-0.801-3.271-1.661c-0.576-0.933,1.104-2.773,0.002-3.312
				c-2.952-1.443-7.424-1.42-11.547,0.321c-5.643,2.401-8.501,7.112-6.367,10.568c2.14,3.439,8.457,4.291,14.112,1.892
				c1.543-0.66,2.895-1.488,3.982-2.423C37.047,47.205,38.163,45.286,38.266,43.448"/>
		</g>
	</g>
</g>
<g>
	<path fill="#666666" d="M51.271-18.655c-1.046-0.917-4.232,2.53-5.856,2.397c-1.778-0.157-1.873-3.799-3.833-2.981
		c-5.221,2.207-10.596,7.498-13.547,13.927c-3.457,7.482-2.536,14.059,1.802,16.245c0.65,1.724,2.824,2.678,5.925,2.865
		c5.27-1.923,8.766-4.762,8.766-4.762s7.698-13.909,8.791-17.011C54.406-12.625,53.649-16.544,51.271-18.655z"/>
	<g>
		<g>
			<path id="SVGID_3_" fill="#666666" d="M16.244,38.163c-5.069,3.53-7.263,9.15-4.888,12.561c0.62,0.889,1.492,1.525,2.53,1.937
				c2.104,1.805,6.29,2.529,10.805,1.616c6.045-1.233,10.396-4.92,9.724-8.242c-0.059-0.296-0.195-0.572-0.343-0.862
				c2.169-1.928,2.091-4.172-4.366-7.21c0.835-1.667,0.89-2.764,0.439-3.43C28.493,32.162,20.195,35.417,16.244,38.163"/>
		</g>
	</g>
</g>
<g>
	<path fill="#B3B3B3" d="M50.853,10.402c-10.178,4.921,3.273-8.928-7.063-4.658C33.471,10.025,29.615-6.84,28.353-6.379
		c-1.276,0.45-9.772,7.526-3.776,20.283c0,0-8.706,7.267-19.599,30.255C-5.909,67.166-22.25,69.357-22.25,69.357l3.233-0.051
		c0,0,4.53-1.359,10.109-5.667c7.037-2.703,17.413-12.209,17.413-12.209c4.866,5.714,9.391,2.672,9.937,2.556
		c0.542-0.105-2.473-0.891-2.473-0.891c-5.352-2.894,2.644-14.588,1.789-14.925c-0.864-0.333-8.615,1.223-10.064,10.169
		c0,0-7.588,12.048-12.479,11.802l-0.498,0.362c3.91-3.753,7.965-8.954,11.15-16.143c8.986-20.276,22.738-28.504,22.738-28.504
		C41.968,19.559,61.03,5.476,50.853,10.402z"/>
</g>
</svg>
