<?xml version="1.0" encoding="utf-8"?>
<!-- Generator: Adobe Illustrator 16.0.0, SVG Export Plug-In . SVG Version: 6.00 Build 0)  -->
<!DOCTYPE svg PUBLIC "-//W3C//DTD SVG 1.1//EN" "http://www.w3.org/Graphics/SVG/1.1/DTD/svg11.dtd">
<svg version="1.1" id="Layer_1" xmlns="http://www.w3.org/2000/svg" xmlns:xlink="http://www.w3.org/1999/xlink" x="0px" y="0px"
	 width="640px" height="480px" viewBox="0 0 640 480" enable-background="new 0 0 640 480" xml:space="preserve">
<path fill="#4D4E4E" d="M239.234,447.377c-4.732-6.651-10.832-12.729-13.934-20.072c-9.048-21.398-14.957-43.842-15.008-67.236
	c-0.04-18.342,1.57-36.633,9.716-53.598c8.619-17.953,16.018-36.646,26.269-53.611c11.036-18.271,23.923-35.616,40.297-49.806
	c19.302-16.725,38.552-33.525,58.21-49.826c8.99-7.454,14.598-16.701,18.797-27.295c5.32-13.414,11.25-26.72,8.308-41.613
	c-1.317-6.649-3.788-13.091-6.029-19.527c-2.99-8.567-6.272-17.035-10.087-27.315c2.747,1.849,4.621,2.583,5.731,3.939
	c14.241,17.412,23.451,36.45,25.815,59.623c2.11,20.687-6.757,36.43-17.957,50.85c-12.298,15.833-27.26,29.647-41.408,43.996
	c-17.379,17.615-35.458,34.562-52.606,52.395c-15.345,15.962-22.82,36.608-30.746,56.716c-4.939,12.521-8.86,25.493-12.527,38.465
	c-4.12,14.581-1.186,29.383-0.122,44.102c0.449,6.213,0.747,12.455,0.71,18.687c-0.063,10.772,1.285,21.071,6.999,30.57
	c1.578,2.622,1.763,6.081,2.585,9.155C241.243,446.438,240.24,446.908,239.234,447.377z"/>
<g>
	<path fill="#FFFFFF" d="M240.359,381.202c2.442-7.771,4.365-15.753,7.416-23.277c14.478-35.726,36.894-65.418,68.888-87.235
		c17.446-11.896,35.793-22.474,53.329-34.246c23.803-15.986,40.379-37.008,46.442-65.984c3.853-18.408,5.089-36.507,1.812-54.962
		c-0.097-0.558,0.204-1.19,0.691-3.756c1.838,6.242,3.697,10.665,4.391,15.263c3.382,22.405,8.178,44.717,5.142,67.61
		c-2.831,21.383-9.507,41.777-21.884,59.158c-6.986,9.812-17.759,17.549-28.126,24.183c-13.255,8.483-28.062,14.483-41.765,22.323
		c-19.284,11.027-38.713,21.949-57.044,34.445c-14.197,9.672-24.892,23.213-32.122,39.125c-1.273,2.799-2.891,5.442-4.35,8.16
		C242.238,381.742,241.298,381.475,240.359,381.202z"/>
	<path fill="#FFFFFF" d="M412.242,147.363c0.221,12.269-2.642,24.001-6.747,35.536c-9.586,26.916-29.824,43.832-53.379,57.99
		c-16.354,9.832-33.261,19.238-47.93,31.256c-15.321,12.562-30.41,26.112-40.274,43.982c-6.621,11.988-12.986,24.125-19.497,36.178
		c-0.441,0.812-1.18,1.461-2.656,3.245c2.14-23.954,5.391-45.93,21.514-63.726c3.887-4.289,7.146-9.26,10.109-14.262
		c13.489-22.771,33.146-38.988,54.78-53.519c19.639-13.19,38.954-26.956,57.568-41.54
		C395.398,174.932,403.978,166.739,412.242,147.363z"/>
	<path fill="#FFFFFF" d="M248.236,413.299c-6.432-11.494-0.992-20.318,2.517-29.203c2.512-6.365,5.083-12.886,8.83-18.539
		c4.298-6.496,9.812-12.213,14.996-18.098c14.063-15.969,33.134-24.572,51.255-34.562c20.719-11.424,41.44-22.857,62.179-34.256
		c1.021-0.564,2.184-0.879,3.532-1.399c2.715,8.288,0.228,14.891-4.737,21.09c-11.448,14.302-25.793,24.576-42.688,31.515
		c-23.754,9.762-45.816,22.469-66.67,37.502c-12.813,9.238-20.248,21.748-25.544,36.033
		C250.834,406.271,249.764,409.162,248.236,413.299z"/>
	<path fill="#FFFFFF" d="M310.908,224.8c7.515-7.342,15.316-14.417,22.483-22.082c15.999-17.109,35.673-30.915,46.96-52.275
		c2.61-4.936,5.439-9.792,8.589-14.4c9.502-13.914,8.312-29.154,5.935-44.603c-0.592-3.872-1.061-7.766-0.793-11.978
		c0.701,1.306,1.626,2.546,2.072,3.932c3.629,11.301,8.322,22.419,10.461,33.998c3.347,18.144-3.577,34.289-14.841,47.995
		c-13.166,16.016-29.188,28.889-47.469,39.097c-9.321,5.211-17.521,12.425-26.267,18.684c-1.782,1.272-3.711,2.343-5.572,3.51
		C311.947,226.047,311.427,225.422,310.908,224.8z"/>
	<path fill="#FFFFFF" d="M252.678,428.545c8.356-34.531,24.198-62.521,58.652-76.033c5.756-2.264,10.82-6.262,16.562-8.566
		c2.263-0.909,6.772-0.326,7.979,1.283c1.562,2.09,1.998,6.397,0.902,8.844c-3.445,7.683-8.999,13.468-16.564,17.906
		c-22.274,13.082-43.713,27.401-60.829,47.198c-1.217,1.405-2.136,3.066-3.22,4.591
		C255.097,425.268,253.999,426.742,252.678,428.545z"/>
	<path fill="#FFFFFF" d="M259.8,441.81c-0.583-12.068,16.252-34.569,30.948-41.165c3.604,4.918,2.684,9.028-1.901,12.845
		c-5.242,4.358-10.507,8.731-15.379,13.495C268.651,431.686,264.312,436.876,259.8,441.81z"/>
</g>
<g>
	<path fill="#BCBCBC" d="M292.28,186.962c5.756-8.453,10.978-17.34,17.385-25.273c11.071-13.703,23.46-26.363,34.199-40.31
		c9.288-12.07,16.083-25.709,16.739-41.604c0.581-0.027,1.168-0.055,1.746-0.082c0.677,5.523,1.862,11.039,1.931,16.567
		c0.161,14.264-5.335,27.064-13.091,38.418c-5.412,7.915-13.032,14.422-20.129,21.059c-10.626,9.936-21.644,19.444-32.534,29.098
		c-1.442,1.276-3.097,2.323-4.653,3.478C293.343,187.866,292.812,187.418,292.28,186.962z"/>
	<path fill="#BCBCBC" d="M321.797,134.084c2.451-24.546,17.918-44.338,24.214-68.46C358.852,85.859,341.819,116.25,321.797,134.084z
		"/>
	<path fill="#BCBCBC" d="M326.858,33.222c8.218,9.452,13.488,18.188,9.916,31.589C332.208,54.06,326.397,45.564,326.858,33.222z"/>
</g>
</svg>
