<?xml version="1.0" encoding="utf-8"?>
<!-- Generator: Adobe Illustrator 16.0.0, SVG Export Plug-In . SVG Version: 6.00 Build 0)  -->
<!DOCTYPE svg PUBLIC "-//W3C//DTD SVG 1.1//EN" "http://www.w3.org/Graphics/SVG/1.1/DTD/svg11.dtd">
<svg version="1.1" id="Layer_1" xmlns="http://www.w3.org/2000/svg" xmlns:xlink="http://www.w3.org/1999/xlink" x="0px" y="0px"
	 width="640px" height="480px" viewBox="0 0 640 480" enable-background="new 0 0 640 480" xml:space="preserve">
<path fill="#BCBCBC" d="M376.566,334.674c-1.545,9.909-2.891,20.438-4.857,30.842c-4.515,23.854-13.65,45.729-27.779,65.637
	c-15.183,21.378-39.011,23.517-57.497,14.533c-17.437-8.47-34.28-18.174-51.257-27.563c-14.165-7.835-18.799-21.687-22.412-35.136
	c28-7.088,55.608-13.203,82.676-21.176C322.246,353.917,348.502,344.15,376.566,334.674z"/>
<path fill="#4D4E4E" d="M334.326,313.211c-23.468-1.336-28.961-7.623-34.347-28.85c-2.803-11.021-1.408-21.242-0.765-31.812
	c1.505-24.938,27.019-40.979,46.911-38.626c11.04,1.305,23.9,5.881,30.176,18.711c7.428,15.185,10.615,30.993,9.854,47.743
	c-0.607,13.075-7.528,20.102-19.447,25.812C355.257,311.678,344.027,312.948,334.326,313.211z"/>
<g>
	<path fill="#FFFFFF" d="M264.112,197.317c-0.883-9.449-2.206-17.925-2.374-26.424c-0.701-35.422,7.599-68.604,27.253-98.256
		c8.768-13.228,22.099-21.734,36.157-29.025c24.271-12.588,49.229-20.342,77.09-15.017c14.895,2.845,24.295,10.479,27.911,25.398
		c2.614,10.766,0.165,14.802-10.622,17.471c-22.97,5.67-46.431,10.042-68.588,18.013c-20.096,7.234-36.189,21.33-50.692,37.736
		c-16.345,18.493-25.223,39.824-31.573,62.878c-0.473,1.726-1.248,3.381-2,5.016C266.465,195.574,265.849,195.853,264.112,197.317z"
		/>
	<path fill="#FFFFFF" d="M270.547,285.927c-13.094-17.805-30.375-31.577-39.201-52.815c-11.942-28.736-20.796-57.71-18.686-88.827
		c2.342-34.562,11.285-67.103,39.188-90.654c9.054-7.647,19.731-13.448,30.023-19.478c3.146-1.837,7.563-2.415,11.266-2.1
		c3.11,0.263,7.756,2.035,8.585,4.293c0.922,2.512-0.69,7.659-2.938,9.369c-25.818,19.626-35.919,47.883-43.317,77.619
		c-7.461,29.983-6.404,60.11-0.165,90.11c4.752,22.856,10.152,45.582,15.208,68.373
		C270.801,283.128,270.547,284.555,270.547,285.927z"/>
	<path fill="#FFFFFF" d="M290.761,209c-2.134-12.158,4.843-18.762,9.969-25.738c3.803-5.175,8.924-9.436,13.735-13.799
		c16.556-15.019,36.86-17.428,56.543-11.245c37.525,11.788,57.365,40.232,65.368,77.751c4.121,19.354,2.659,38.786,0.024,58.094
		c-1.454,10.619-5.407,20.498-16.1,25.506c-9.84,4.613-13.975,1.582-14.941-9.146c-2.104-23.213-3.52-46.582-7.469-69.501
		c-5.393-31.271-15.248-42.779-51.826-48.866c-15.162-2.525-29.08,0.118-41.525,9.802C300.775,204.78,295.976,206.357,290.761,209z"
		/>
	<path fill="#FFFFFF" d="M355.5,139.417c6.483-1.187,12.941-3.188,19.465-3.415c23.382-0.804,46.096,2.493,66.944,13.953
		c20.708,11.39,35.427,28.617,45.241,49.735c5.273,11.348,9.081,23.484,12.517,35.561c5.512,19.424-4.446,33.5-17.627,46.038
		c-1.944,1.857-4.15,3.484-6.37,5.025c-4.518,3.145-8.578,8.49-15.076,4.332c-6.562-4.207-11.951-7.812-10.993-18.217
		c4.035-43.717-10.907-80.79-42.766-110.901c-11.83-11.183-26.716-15.683-42.493-17.74c-2.857-0.374-5.701-0.917-8.549-1.381
		C355.693,141.409,355.592,140.414,355.5,139.417z"/>
	<path fill="#FFFFFF" d="M201.675,130.882c0,14.886-1.457,29.939,0.286,44.614c4.495,37.797,18.745,71.761,43.916,100.758
		c10.787,12.426,21.247,25.158,32.396,37.244c8.839,9.579,19.905,15.172,33.386,15.273c2.616,0.021,5.23,1.451,7.849,2.229
		c-0.05,1.01-0.1,2.014-0.151,3.02c-9.256,0.922-18.486,2.279-27.763,2.67c-24.22,1.021-45.862-6.315-62.805-23.705
		c-19.411-19.916-39.835-39.584-46.312-68.332c-2.904-12.878-6.393-25.86-7.113-38.937c-0.769-13.979,0.699-28.213,2.513-42.166
		c1.828-14.089,9.657-25.016,20.564-33.474C199.52,130.348,200.595,130.616,201.675,130.882z"/>
	<path fill="#FFFFFF" d="M495.085,137.235c-10.858-3.543-20.859-7.897-31.323-9.982c-19.337-3.86-39.452-10.619-58.307-8.369
		c-22.241,2.655-46.394,0.954-66.75,14c-18.79,12.045-35.656,26.353-50.067,43.462c-1.112,1.319-2.263,2.598-4.118,3.408
		c5.1-16.35,12.213-31.327,23.75-44.355c25.455-28.738,58.366-41.793,95.174-47.938c18.711-3.125,37.018-6.419,56.043-1.425
		c14.355,3.766,25.799,11.248,34.812,22.518C501.39,117.404,498.588,127.177,495.085,137.235z"/>
	<path fill="#FFFFFF" d="M179.569,258.156c10.104,23.273,24.013,40.277,39.096,56.677c17.916,19.481,38.265,32.479,65.798,30.962
		c2.681-0.146,5.394,0.221,8.085,0.43c0.554,0.043,1.076,0.455,4.103,1.82c-7.681,2.641-13.414,5.295-19.441,6.562
		c-20.178,4.234-40.349,8.73-60.73,11.679c-17.735,2.56-40.626-15.606-45.484-34.276c-5.224-20.097-6.761-40.22,1.04-60.07
		C173.625,267.889,176.209,264.227,179.569,258.156z"/>
	<path fill="#FFFFFF" d="M446.619,137.019c26.156,5.224,51.987,12.152,70.626,32.171c7.912,8.504,12.017,20.998,16.334,32.258
		c2.896,7.562-2.921,12.799-9.68,14.776c-6.462,1.887-14.184,5.468-18.646-4.08c-4.667-9.999-9.007-20.201-14.443-29.771
		C480.096,163.535,464.415,149.326,446.619,137.019z"/>
	<path fill="#FFFFFF" d="M298.084,215.702c-5.025,16.044-9.318,29.733-13.296,42.422
		C285.932,244.54,280.237,227.913,298.084,215.702z"/>
</g>
</svg>
