<?xml version="1.0" encoding="utf-8"?>
<!-- Generator: Adobe Illustrator 16.0.0, SVG Export Plug-In . SVG Version: 6.00 Build 0)  -->
<!DOCTYPE svg PUBLIC "-//W3C//DTD SVG 1.1//EN" "http://www.w3.org/Graphics/SVG/1.1/DTD/svg11.dtd">
<svg version="1.1" id="Layer_1" xmlns="http://www.w3.org/2000/svg" xmlns:xlink="http://www.w3.org/1999/xlink" x="0px" y="0px"
	 width="100px" height="100px" viewBox="0 0 100 100" enable-background="new 0 0 100 100" xml:space="preserve">
<g>
	<path fill="#63CCF5" d="M2.163,35.57c0.413-0.132,1.042-0.317,1.499-0.221c0.23,0.139,0.523,0.423,0.555,0.72
		c0.036,0.345-0.239,0.549-0.276,0.887c-0.79,0.453-1.504,0.874-2.108,1.386c-0.175,0.15-0.397,0.28-0.539,0.429
		c0.143-0.034,0.287-0.064,0.428-0.096c1.001-0.211,1.667-0.011,2.552,0.333c0.243,0.363,0.319,0.58,0.22,1.108
		c-0.141-0.063-0.124,0.108-0.22,0.167c-0.576,0.341-1.586,0.08-2.274,0.331C1.496,40.801,1.246,41.004,1,41.504
		c0.199,0.241,0.331,0.627,0.666,0.775c0.226,0.1,0.51,0.035,0.775,0.111c0.306,0.086,0.495,0.257,0.721,0.388
		c0.028,0.278,0.162,0.402,0.168,0.61c0.008,0.456-0.386,0.865-0.444,1.385c-0.095,0.846,0.577,1.815,0.998,2.662
		c0.097,0.195,0.174,0.449,0.277,0.666c0.259,0.547,0.831,1.446,0.886,1.94c0.078,0.67-0.22,1.318-0.166,1.997
		c0.038,0.472,0.216,1.39,0.444,1.773c0.277,0.469,0.817,0.542,1.497,0.666c0.274,0.05,0.523,0.189,0.776,0.221
		c1.198,0.153,1.298-0.297,1.939-0.774c0.052-0.04,0.126-0.021,0.168-0.057c0.415-0.34,1.034-0.714,1.607-0.441
		c0.562-0.195,0.693-0.824,1.165-1.109c-0.467-0.072-0.727-0.232-1.053-0.224c-0.583,0.017-1.135,0.531-1.498,0.446
		C8.875,52.284,10,50.811,10.316,50.54c0.608-0.521,1.832-0.655,2.661-0.444c0.707-0.277,1.429-0.789,2.216-0.831
		c0.255-0.013,0.687,0.19,0.943,0.221c0.479,0.057,0.82-0.151,1.22,0c0.378,0.144,0.579,0.677,1.053,0.888
		c0.166,0.073,0.419,0.019,0.61,0.056c0.891,0.166,1.224,0.33,1.941,0c0.525-0.242,0.87-0.772,1.329-1.11
		c0.108-0.077,0.261-0.083,0.39-0.167c0.379-0.245,0.737-0.456,1.164-0.665c0.306-0.149,0.618-0.327,0.931-0.456
		c-0.239-0.232-0.156-0.124-0.488-0.155c-0.189-0.017-0.227-0.122-0.331-0.111c-0.253,0.029-0.522,0.257-0.833,0.333
		c-0.118,0.029-0.25-0.018-0.387,0c-0.253,0.033-0.504,0.193-0.723,0.223c-1.196,0.157-1.481-0.491-2.161-0.942
		c0.928-0.422,1.767-0.93,2.884-1.166c0.525,0.235,1.451,0.098,1.883-0.111c0.592,0.059,1.03,0.267,1.497,0.334
		c0.173,0.024,0.357-0.038,0.5,0c0.259,0.068,0.625,0.299,0.942,0.442c1.021,0.462,2.218,1.06,2.994,1.662
		c0.013,0.273,0.27,0.475,0.334,0.833c0.116,0.68-0.189,1.555,0.22,1.996c0.803,0.305,1.547-0.437,2.217,0.058
		c0.382,0.278,0.397,0.922,0.611,1.385c0.151,0.331,0.688,1.024,0.942,1.163c1.105,0.612,2.178-0.232,3.492-0.386
		c0.884-0.104,1.696,0.581,2.163,0.942c0.185,0.143,0.363,0.343,0.554,0.498c0.604,0.49,1.065,0.664,2.051,0.776
		c0.129,0.015,0.278,0.004,0.388,0c1.383-0.074,2.319-1.082,3.438-1.775c1.324-0.268,2.24,0.28,3.16,0.723
		c-0.756,0.149-1.582,0.359-2.217,0.887c-0.299,0.764-0.463,1.412-0.388,2.273c0.025,0.293,0.268,0.606,0.055,0.887
		c-0.021,0.262-0.275-0.052-0.388-0.057c-0.158,0.086-0.38,0.169-0.499,0c-0.32,0.221-0.565,0.04-0.833,0
		c-0.318-0.048-0.681,0.027-0.998,0c-0.487-0.039-0.919-0.259-1.22-0.332c-0.184-0.043-0.316-0.01-0.442-0.056
		c-0.662-0.234-0.968-0.562-1.553-0.498c-0.391,0.041-0.92,0.305-1.33,0.498c-0.637,0.301-1.106,0.76-2.108,0.61
		c-0.282-0.234-0.606-0.428-0.886-0.664c-0.649,0.095-1.512-0.127-2.33,0c-0.747,0.113-1.451,0.69-1.052,1.162
		c0.211,0.249,0.457,0.133,0.775,0.11c0.528,0.282,1.175,0.168,1.774,0.224c0.299,0.027,0.715,0.183,1.11,0.276
		c0.375,0.089,0.822,0.12,1.165,0.223c0.196,0.06,0.344,0.216,0.554,0.275c0.865,0.266,1.622,0.112,2.05,0.833
		c-0.097,0.579-0.557,1.046-1.109,1.331c-0.506,0.813-1.082,1.37,0,1.885c0.438,0.208,1.066,0.49,1.497,0.555
		c0.284,0.041,0.691-0.127,1.055-0.167c0.137-0.014,0.324,0.077,0.498,0.059c0.2-0.027,0.414-0.153,0.665-0.225
		c0.27-0.076,0.591-0.089,0.776-0.168c0.133-0.054,0.253-0.188,0.389-0.276c0.146-0.095,0.308-0.133,0.443-0.222
		c0.862-0.553,1.773-1.429,2.772-1.604c0.871-0.158,1.551,0.03,2.439-0.225c0.289-0.083,0.589-0.155,0.777-0.22
		c0.307-0.108,0.6-0.112,0.721-0.335c0.895,0.062,1.559-0.413,2.273-0.056c0.146,0.072,0.25,0.274,0.443,0.444
		c0.168,0.149,0.434,0.255,0.555,0.391c0.1,0.104,0.129,0.328,0.223,0.441c0.041,0.05,0.178,0.064,0.221,0.11
		c0.318,0.334,0.59,0.548,0.998,0.774c0.756,0.144,1.701,0.216,2.551,0.332c0.322,0.048,0.986,0.218,1.221,0.337
		c0.182,0.091,0.33,0.354,0.555,0.5c0.178,0.108,0.414,0.114,0.553,0.218c0.078,0.059,0.227,0.264,0.332,0.391
		c0.33,0.393,0.459,0.66,0.389,1.219c-0.438,0.28-0.85,0.271-1.33,0.444c-0.396,0.139-1.242,0.635-1.219,1.108
		c0.037,0.833,1,0.181,1.496,0.108c1.121-0.156,1.943,0.218,2.662,0.334c0.168,0.029,0.328,0.146,0.498,0.168
		c0.676,0.094,1.611,0.056,2.271,0c0.418-0.037,0.893-0.278,1.166-0.225c0.264,0.055,0.498,0.44,0.498,0.501
		c0.01,0.384-1.396,1.048-1.664,1.108c-0.205,0.046-0.418-0.027-0.609,0c-0.18,0.025-0.307,0.17-0.498,0.223
		c-0.18,0.047-0.35,0-0.5,0.054c-0.371,0.139-0.689,0.43-1.051,0.554c-0.609-0.627-1.281,0.197-1.941,0.223
		c-0.293,0.013-0.406-0.155-0.666-0.223c-0.145-0.035-0.352,0.027-0.498,0c-0.398-0.066-0.686-0.36-1.055-0.441
		c-0.266-0.527-0.912-0.68-1.385-0.999c-0.445,0.077-0.631-0.107-0.889-0.22c-0.67,0.06-1.143-0.075-1.717-0.112
		c-0.83-0.78-1.543-1.676-2.164-2.662c-0.545-0.336-1.564-0.72-2.66-0.886c-0.309-0.048-0.737-0.108-1.054-0.11
		c-0.227-0.002-0.445,0.112-0.665,0.11c-0.164,0-0.338-0.116-0.5-0.11c-0.297,0.008-0.87,0.181-1.331,0.332
		c-1.002,0.328-1.55,0.997-1.108,2.105c0.147,0.139,0.318,0.365,0.554,0.444c1.069,0.359,3.478-0.151,4.825,0.056
		c0.471,0.212,0.787,0.579,0.664,1.385c-0.158,0.282-0.496,0.26-0.775,0.389c-0.131,0.062-0.105,0.146-0.223,0.166
		c-0.334,0.066-0.678-0.046-0.997,0c-0.179,0.026-0.4,0.149-0.61,0.224c-0.735,0.256-1.668,0.569-2.111,1.148
		c0.341,0.004,0.691,0.042,1.057,0.07c0.382,0,0.765,0,1.145,0c0.03-0.002,0.06-0.006,0.091-0.008
		c0.004,0.002,0.011,0.006,0.015,0.008c0.047,0,0.089,0,0.137,0c-0.021,0.015-0.042,0.027-0.066,0.044
		c0.521,0.361,0.38,1.387-0.03,1.779c-0.088,0.658,0.122,1.023,0.333,1.385c0.644,0.26,1.224,0.649,1.939,0.555
		c1.139-0.156,1.625-1.449,2.717-2.054c0.395-0.216,1.09-0.389,1.664-0.442c0.275-0.024,0.848-0.058,1.162,0.054
		c0.443,0.16,0.654,0.783,1.221,1.055c0.547,0.262,1.426,0.094,1.729,0.557c0.416-0.037,0.826-0.085,1.199-0.157
		c0.195-0.042,0.383-0.154,0.555-0.169c0.242-0.019,0.455,0.079,0.664,0.057c0.273-0.031,0.609-0.237,0.943-0.334
		c0.762-0.223,1.193-0.401,1.773-0.774c0.135-0.088,0.254-0.197,0.389-0.278c0.404-0.247,0.951-0.615,1.162-1.055
		c0.084-0.168,0.068-0.438,0.168-0.662c0.146-0.339,0.439-0.675,0.609-1.055c0.275-0.603,0.471-1.062,0.83-1.554
		c0.26-0.351,0.539-0.647,0.832-0.996c0.178,0.122,0.174-0.106,0.277-0.168c0.35-0.204,0.773-0.237,0.998-0.608
		c0.332,0.064,0.568-0.223,0.887-0.223c0.404,0,0.6,0.206,0.834,0.499c-0.014,0.562-0.047,0.957-0.279,1.387
		c-0.02,0.037-0.092-0.017-0.109,0.056c-0.104,0.387-0.742,0.8-0.775,1.219c-0.02,0.22,0.123,0.363,0.168,0.61
		c0.682,0.158,1.119-0.308,1.605-0.555c0.193-0.1,0.498-0.386,0.721-0.5c0.229-0.118,0.496-0.122,0.721-0.22
		c0.533-0.237,1.1-0.7,1.719-0.942c0.812-0.741,1.975-1.132,2.994-1.665c0.516,0.113,0.889-0.256,1.33-0.333
		c0.508-0.087,1.049-0.035,1.664-0.111c0.102,0.222,0.439,0.321,0.553,0.556c0.064,0.129,0.037,0.426,0.113,0.665
		c0.076,0.238,0.256,0.521,0.166,0.998c-0.193,0.237-0.322,0.534-0.457,0.831c-0.123,0.054-0.248,0.107-0.379,0.164
		c0.672-0.287,1.195-0.507,1.898-0.949c0.354-0.222,0.742-0.438,1.107-0.664c0.814-0.499,1.719-0.835,2.328-1.221
		c0.307-0.191,0.717-0.501,0.889-0.721c0.229-0.295,0.305-0.697,0.498-0.94c0.113-0.142,0.324-0.271,0.498-0.444
		c0.33-0.328,0.463-0.566,0.998-0.721c0.332-0.181,1.107,0.133,1.803,0.301c0.066-0.203,0.168-0.388,0.297-0.517
		c0.402-0.402,1.697-0.465,2.605-0.386c1.004,0.087,1.871,0.207,2.273-0.608c-0.506-0.37-1.52-0.304-2.107-0.723
		c-0.314-0.253-0.475-0.573-0.832-0.723c-0.246-0.102-0.459-0.002-0.721-0.054c-0.18-0.035-0.314-0.181-0.5-0.223
		c-0.279-0.062-0.57,0.052-0.832-0.109c-0.008-0.252-0.045-0.219,0-0.444c0.096-0.044,0.189-0.09,0.283-0.135
		c-0.572,0.128-1.16,0.506-1.721,0.633c-0.125,0.029-0.232-0.031-0.334,0c-0.391,0.124-0.777,0.354-1.166,0.5
		c-0.641,0.241-1.186,0.398-1.83,0.61c-0.184,0.059-0.361,0.195-0.498,0.223c-0.24,0.043-0.523-0.035-0.775,0
		c-0.166,0.021-0.279,0.135-0.443,0.166c-0.25,0.046-0.684,0.05-0.943,0c-0.439-0.09-0.762-0.488-0.998-0.664
		c-0.115-0.088-0.307-0.136-0.443-0.225c-0.248-0.162-0.486-0.422-0.83-0.496c-0.529-0.71-1.383-1.103-1.996-1.611
		c-0.562-0.463-0.906-1.225-1.498-1.717c-0.496-0.415-1.01-0.689-1.609-1.001c-0.055-0.124-0.189-0.176-0.168-0.388
		c-0.273-0.031-0.5-0.324-0.607-0.44c-0.076-0.085-0.195-0.048-0.277-0.112c-0.135-0.104-0.244-0.229-0.389-0.332
		c-0.066-0.05-0.143-0.056-0.223-0.11c-0.084-0.062-0.115-0.197-0.164-0.222c-0.066-0.037-0.189,0.031-0.277,0
		c-0.213-0.081-0.506-0.365-0.609-0.112c-0.758-0.749-2.043-0.179-2.553,0.389c-0.195,0.218-0.287,0.525-0.441,0.718
		c-0.211,0.271-0.461,0.355-0.5,0.557c-0.076,0.389,0.145,0.787,0.334,1.055c0.254,0.363,0.717,0.604,0.996,0.887
		c0.365,1.225,1.48,1.7,2.164,2.605c0.721,0.369,1.277,0.905,1.83,1.442c-0.469,0.974-1.246-0.218-1.83-0.554
		c0,0.183,0,0.369,0,0.554c-0.285-0.087-0.375-0.367-0.5-0.61c-0.475-0.375-1.115-0.774-1.607-1.164
		c-0.176-0.142-0.326-0.374-0.498-0.444c-0.316-0.129-1.107-0.05-1.555-0.057c-0.715-0.006-1.926,0.897-2.66,1.331
		c-0.453,0.268-0.871,0.452-1.332,0.61c-0.465,0.16-1.014,0.282-1.385,0.276c-0.154,0-0.748-0.087-0.887-0.164
		c-0.246-0.14-0.598-0.933-0.719-1.443c-0.201-0.815,0.275-1.478,0.664-1.885c0.457-0.478,0.838-0.767,1.383-1.165
		c0.184-0.133,0.357-0.247,0.516-0.365c-0.182-0.041-0.352-0.107-0.568-0.131c-1.545-0.185-2.643,0.403-3.549,0.94
		c-0.598,0.357-1.025,0.579-1.719,0.887c-0.32,0.142-0.629,0.444-0.887,0.5c-0.504,0.108-1.154,0.103-1.607,0
		c-0.521-0.116-0.826-0.651-1.332-0.942c-1.363,0.059-1.518-1.461-0.721-2.163c0.123-0.105,0.414-0.22,0.609-0.334
		c0.479-0.272,1.293-0.642,1.553-1.163c0.1-0.199,0.234-0.647,0.168-0.942c-0.062-0.274-0.719-0.778-0.998-0.887
		c-0.787-0.301-1.982-0.031-2.994,0.057c-0.857,0.074-1.482-0.129-1.998-0.444c-0.246-0.378-0.24-1.001-0.166-1.441
		c1.166,0.011,1.719-0.232,2.607-0.667c0.494-0.24,1.029-0.442,1.441-0.664c0.744-0.403,1.047-0.999,2.162-0.888
		c0.131,0.014,0.264,0.033,0.391,0.057c0.121-0.371,0.305-0.668,0.49-0.95c-0.635,0.196-1.203,0.405-1.713,0.117
		c-0.525-0.298-0.4-1.909-0.168-2.496c0.195-0.481,0.531-0.562,0.945-0.83c0.262-0.175,0.484-0.326,0.719-0.444
		c0.098-0.05,0.195-0.094,0.293-0.139c0.033-0.065,0.064-0.131,0.096-0.195c0.104,0.03,0.197,0.04,0.283,0.04
		c0.205-0.079,0.402-0.155,0.584-0.232c0.074-0.057,0.145-0.119,0.221-0.177c-0.332-0.171-0.621-0.424-0.922-0.629
		c-0.334-0.225-0.678-0.421-0.887-0.773c-0.01-0.539-0.771-1.105-1.107-1.222c-0.209-0.072-0.975-0.138-1.221-0.109
		c-1.26,0.152-2.451,0.145-3.049-0.555c-0.205-0.24-0.207-0.607-0.277-0.943c-0.096-0.441-0.197-0.775-0.443-1.053
		c-0.256-0.287-0.188-0.281-0.5-0.443c-0.701-0.364-1.354-0.146-1.996,0.109c-0.329,0.133-0.708,0.208-0.999,0.334
		c-0.735,0.324-1.233,0.904-1.883,0.999c-0.577,0.082-1.217-0.064-1.775,0c-0.294-0.176-0.531-0.38-0.833-0.556
		c-0.292-0.169-0.713-0.248-0.941-0.499c-0.236-0.256-0.25-0.701-0.5-0.998c-0.278-0.335-0.581-0.497-0.999-0.665
		c-0.168-0.241-0.334-0.447-0.515-0.621c-0.451,0.044-0.813,0.241-1.188,0.506c-0.301,0.21-0.556,0.422-0.667,0.665
		c-0.179,0.392-0.023,0.879-0.055,1.386c-0.069,1.084-0.608,2.178-0.833,2.994c-0.283,0.086-0.362,0.376-0.555,0.553
		c-0.49,0.456-1.223,0.612-1.55,1.22c0.126,1.712-0.68,3.151-2.273,3.27c-0.483,0.036-0.877-0.109-1.442-0.109
		c-0.49-0.417-1.279-0.532-1.719-1c-1-0.15-1.364,0.632-2.105,0.557c-0.376-0.181-0.425-1.327-0.223-1.776
		c0.092-0.205,0.335-0.295,0.609-0.497c0.428-0.318,0.584-0.456,1.165-0.666c0.449-0.163,1.113-0.369,1.387-0.776
		c0.002-0.1-0.108-0.221-0.166-0.276c-0.244-0.24-0.681-0.499-1.052-0.721c-0.289-0.171-0.422-0.312-0.721-0.553
		c-0.301-0.243-0.5-0.449-0.945-0.557c-0.118-0.322-0.372-0.513-0.497-0.831c-0.589-0.405-0.809-1.08-1.332-1.552
		c-0.079-0.072-0.21-0.113-0.316-0.173c-0.289,0.138-0.603,0.253-0.976,0.398c-0.696,0.273-1.225,0.581-1.829,0.666
		c0.762,0.125,1.516,0.261,2.052,0.611c0.256,0.739-0.414,0.942-1.276,1.163c-0.492,0.127-1.021,0.289-1.497,0.333
		c-0.273,0.025-0.523-0.023-0.777,0c-1.098,0.097-2.358,0.715-2.994,1.276c-0.191,0.167-0.307,0.406-0.5,0.552
		c-0.21,0.165-0.461,0.335-0.72,0.391c-0.178,0.037-0.787-0.075-0.887-0.059c-0.486,0.088-1.055,0.602-1.553,0.943
		c-0.538,0.372-1.061,0.724-1.498,0.999c-0.239,0.152-0.454,0.35-0.719,0.499c-0.273,0.155-0.567,0.278-0.888,0.389
		c-0.292,0.1-0.599,0.216-0.886,0.332c-0.342,0.136-0.697,0.293-0.944,0.334c-0.39,0.06-1.017-0.049-1.441,0
		c-0.289,0.208-0.72,0.446-1.221,0.277c-0.269-0.556-0.385-1.397-0.22-1.831c0.129-0.34,0.508-0.656,0.776-0.831
		c0.348-0.229,0.867-0.468,1.331-0.61c0.458-0.141,0.991-0.15,1.442-0.388c0.179-0.097,0.39-0.325,0.61-0.5
		c0.216-0.17,0.504-0.329,0.665-0.497c0.423-0.457,0.639-1.009,1.052-1.386c0.463-0.423,1.358-0.773,1.997-0.942
		c0.447-0.12,1.096-0.114,1.275-0.666c0.056-0.356-0.13-0.692-0.334-0.943c-0.087-0.111-0.25-0.148-0.385-0.276
		c-0.116-0.11-0.169-0.288-0.277-0.388c-0.236-0.216-0.521-0.404-0.776-0.609c-0.52-0.418-1.092-0.969-1.553-1.22
		c-0.374-0.206-0.781-0.278-1.11-0.446c-0.377-0.19-0.751-0.352-0.998-0.61c-0.712-0.736-0.048-1.883,0.776-2.271
		c0.562-0.265,1.173-0.077,1.663-0.222c0.608-0.181,1.04-0.609,1.387-1.164c-0.436-0.644-1.04-0.901-1.773-1.277
		c-0.305-0.151-0.639-0.42-0.944-0.497c-0.433-0.108-0.854-0.052-1.331-0.111c-0.475-0.058-1.499-0.21-1.773-0.61
		c-0.372-0.542,0.126-1.258,0.665-1.719c1.256-0.296,2.209-0.897,3.504-1.154c-0.008-0.02-0.019-0.039-0.026-0.058
		c-0.372-0.237-0.9-0.314-1.316-0.505c-0.322-0.418-0.97-0.848-1.442-1.11c-0.073-0.04-0.06-0.133-0.11-0.165
		c-0.004-0.004-0.006-0.004-0.012-0.007c-0.016,0.003-0.03,0.005-0.044,0.007c-0.621,0.254-1.165,0.429-1.663,0.774
		c-0.47,0.33-0.853,0.794-1.386,1.056c-0.572,0.832-1.136,1.671-1.498,2.714c-0.125-0.569,0.208-1.169-0.166-1.774
		c-0.348-0.025-0.518-0.052-0.666,0c-0.647,0.233-0.696,0.729-0.83,1.222c-0.06,0.207-0.194,0.428-0.223,0.609
		c-0.092,0.569,0.211,1.171,0.056,1.606c-0.145,0.407-0.866,0.636-1.052,0.666c-0.632,0.103-0.818,0.015-1.277,0.111
		C1.449,31.775,0.575,34.276,2.163,35.57z"/>
	<path fill="#63CCF5" d="M72.855,57.692c-0.145-0.201-0.393-0.552-0.223-0.888C72.695,57.111,72.916,57.263,72.855,57.692z"/>
</g>
</svg>
