<?xml version="1.0" encoding="utf-8"?>
<!-- Generator: Adobe Illustrator 16.0.0, SVG Export Plug-In . SVG Version: 6.00 Build 0)  -->
<!DOCTYPE svg PUBLIC "-//W3C//DTD SVG 1.1//EN" "http://www.w3.org/Graphics/SVG/1.1/DTD/svg11.dtd">
<svg version="1.1" id="Layer_1" xmlns="http://www.w3.org/2000/svg" xmlns:xlink="http://www.w3.org/1999/xlink" x="0px" y="0px"
	 width="100px" height="100px" viewBox="0 0 100 100" enable-background="new 0 0 100 100" xml:space="preserve">
<g>
	<path d="M76.465,71.107c-0.056-0.016-0.083-0.058-0.174-0.045C76.225,71.186,76.48,71.186,76.465,71.107z"/>
	<path d="M57.931,32.219c-0.082-0.018-0.08-0.122-0.215-0.086C57.685,32.24,57.897,32.316,57.931,32.219z"/>
	<path d="M56.071,82.6c-0.066,0.007-0.033,0.113-0.127,0.086c0.096,0.223,0.283,0.351,0.39,0.566
		c-0.142,0.098-0.02,0.254,0.042,0.387c0.206,0.019,0.342-0.031,0.432-0.129C56.552,83.219,56.397,82.822,56.071,82.6z"/>
	<path d="M55.987,84.461c0.032-0.098,0.202-0.055,0.217-0.174c-0.138-0.066-0.174-0.232-0.391-0.216
		C55.686,84.241,55.872,84.391,55.987,84.461z"/>
	<path d="M54.516,43.976C54.296,44.075,54.667,44.083,54.516,43.976L54.516,43.976z"/>
	<path d="M49.897,86.4c-0.014-0.035-0.055-0.059-0.093-0.043c-0.032,0.01-0.052,0.039-0.052,0.07c0,0.008,0,0.016,0.006,0.021
		l0.051,0.153c0,0.062,0.011,0.113,0.043,0.149c0.248,0.057,0.251-0.172,0.09-0.216L49.897,86.4z"/>
	<path d="M49.071,40.211c0.091,0.039,0.194-0.107,0.086-0.129C49.146,40.146,49.091,40.158,49.071,40.211z"/>
	<path d="M44.62,86.062c0.056,0.004,0.1,0.071,0.133,0C44.699,86.055,44.651,85.98,44.62,86.062z"/>
	<path d="M43.712,42.459c0.084,0.023,0.166,0.264,0.259,0.132C43.884,42.579,43.835,42.299,43.712,42.459z"/>
	<path d="M42.85,90.811C42.722,90.96,43.011,90.944,42.85,90.811L42.85,90.811z"/>
	<path d="M36.066,9.062c-0.021,0.133,0.114,0.11,0.131,0.215c0.64,0.449,1.187,1.018,1.771,1.555
		c0.754,0.695,1.657,1.334,2.119,2.249c0.105,0.005,0.148,0.078,0.216,0.13c0.237-0.058,0.327,0.005,0.603,0
		c0.117-0.188,0.243-0.365,0.346-0.561c-0.031-0.303-0.207-0.457-0.215-0.778c-0.363-0.431-0.69-0.899-1.166-1.212
		c-0.008-0.226-0.34-0.327-0.309-0.494c0.029,0.022,0.056,0.047,0.086,0.077c0.063,0.068,0.133,0.138,0.229,0.172
		c0.024,0.006,0.045-0.004,0.051-0.026c0.005-0.021-0.006-0.039-0.023-0.045c-0.08-0.025-0.141-0.087-0.203-0.155
		c-0.04-0.043-0.083-0.086-0.137-0.123c0,0-0.002,0.003-0.002,0l0.002-0.01c-0.844-0.888-1.85-1.669-2.764-2.465
		c-0.309-0.266-0.635-0.6-0.949-0.821c-0.157-0.108-0.37-0.136-0.518-0.258c-0.151-0.123-0.221-0.332-0.389-0.432
		c-0.627-0.015-0.824-0.36-1.17-0.689c-0.228-0.221-0.449-0.423-0.648-0.606c-0.469-0.438-0.889-0.838-1.382-1.167
		c0.02-0.177-0.153-0.162-0.173-0.3c-0.053-0.063-0.205-0.03-0.258-0.088c-0.094-0.278-0.34-0.184-0.518-0.474
		c-0.192,0.042-0.443,0.013-0.52,0.171c-0.014,0.215,0.13,0.271,0.26,0.346c-0.031,0.212,0.305,0.403,0.387,0.647
		c0,0.129,0,0.26,0,0.389C32.491,6.041,34.212,7.618,36.066,9.062z"/>
	<path d="M40.303,90.467l-0.017,0.014c-0.025-0.029-0.061-0.059-0.094-0.087c-0.041-0.044-0.09-0.087-0.125-0.136
		c-0.021-0.026-0.057-0.029-0.082-0.012c-0.014,0.012-0.026,0.029-0.026,0.047c0,0.014,0.005,0.024,0.016,0.035
		c0.04,0.055,0.093,0.102,0.142,0.148c0.032,0.029,0.061,0.058,0.088,0.086c0.008,0.008,0.016,0.008,0.021,0.011
		c0.325,0.371,0.344,1.048,0.811,1.274c0.402-0.264-0.141-0.562-0.302-0.778c0.062-0.063,0.088-0.167,0.128-0.259
		C40.687,90.688,40.606,90.322,40.303,90.467z"/>
	<path d="M37.968,86.406C37.823,86.273,37.837,86.566,37.968,86.406L37.968,86.406z"/>
	<path d="M34.253,56.116c0.086,0.07,0.082-0.032,0.174,0.043C34.493,56.037,34.237,56.037,34.253,56.116z"/>
	<path d="M34.296,56.462c0-0.03,0-0.059,0-0.087c-0.032,0-0.059,0-0.084,0c0,0.028,0,0.057,0,0.087
		C34.237,56.462,34.264,56.462,34.296,56.462z"/>
	<path d="M33.731,92.542c-0.051-0.008-0.097-0.078-0.129,0C33.657,92.545,33.701,92.617,33.731,92.542z"/>
	<path d="M31.528,27.984C31.606,28.149,31.403,27.711,31.528,27.984L31.528,27.984z"/>
	<path d="M30.147,92.801c0.082,0.018,0.074,0.123,0.216,0.087C30.383,92.747,30.181,92.639,30.147,92.801z"/>
	<path d="M29.284,29.625c-0.062,0.003-0.096-0.02-0.131-0.043c-0.011,0.126-0.006,0.236,0.131,0.215
		C29.284,29.744,29.284,29.684,29.284,29.625z"/>
	<path d="M27.639,89.516c0.089,0.043,0.069,0.191,0.217,0.173C27.866,89.576,27.738,89.383,27.639,89.516z"/>
	<path d="M27.296,89.215c0.084,0.043,0.148,0.105,0.215,0.171C27.669,89.263,27.343,89.119,27.296,89.215z"/>
	<path d="M27.38,31.355c0.043,0,0.086,0,0.131,0c0-0.042,0-0.086,0-0.128C27.415,31.22,27.372,31.263,27.38,31.355z"/>
	<path d="M27.38,31.789l0.043-0.022l0.043-0.022c0.131-0.09-0.031-0.25-0.086-0.301c-0.008,0.107-0.143,0.01-0.174,0
		C27.179,31.644,27.306,31.691,27.38,31.789z"/>
	<path d="M27.165,88.955c-0.03,0.104,0.205,0.162,0.215,0.086C27.321,88.999,27.224,88.999,27.165,88.955z"/>
	<path d="M26.646,34.684c-0.005-0.111-0.079-0.15-0.13-0.215C26.452,34.533,26.514,34.691,26.646,34.684z"/>
	<path d="M26.386,34.21c0-0.071,0-0.145,0-0.216C26.255,33.924,26.255,34.273,26.386,34.21z"/>
	<path d="M26.216,34.643c0.066,0.017,0.034,0.135,0.17,0.084c0-0.043,0-0.084,0-0.129C26.321,34.605,26.229,34.582,26.216,34.643z"
		/>
	<path d="M25.396,87.227c0.049,0.008,0.095,0.076,0.13,0C25.475,87.22,25.427,87.148,25.396,87.227z"/>
	<path d="M23.968,85.716c0-0.046,0-0.09,0-0.133c-0.053,0.007-0.119-0.008-0.128,0.043C23.901,85.637,23.912,85.697,23.968,85.716z"
		/>
	<path d="M23.36,85.799c0.061-0.003,0.099,0.021,0.133,0.043C23.536,85.665,23.347,85.615,23.36,85.799z"/>
	<path d="M23.017,85.323c-0.008,0.126,0.146,0.241,0.174,0.086C23.129,85.389,23.081,85.35,23.017,85.323z"/>
	<path d="M22.712,85.021c0.057,0.007,0.102,0.074,0.131,0C22.792,85.018,22.747,84.945,22.712,85.021z"/>
	<path d="M22.369,84.721c0.063,0.024,0.11,0.064,0.172,0.086C22.552,84.68,22.397,84.568,22.369,84.721z"/>
	<path d="M67.911,42.114c-0.031,0.04-0.196-0.021-0.215,0.131c0.605,0.593,1.242,1.148,1.855,1.73
		c0.102-0.005,0.13,0.072,0.262,0.042c0.014,0.102,0.053,0.176,0.085,0.262c1.749,1.59,3.407,3.401,5.055,5.051
		c0.314,0.316,0.616,0.65,0.952,0.82c-0.006,0.078,0.013,0.137,0.043,0.172c0.186,0.254,0.455,0.491,0.693,0.738
		c0.223,0.233,0.512,0.45,0.736,0.69c0.063,0.073,0.087,0.165,0.169,0.261c0.225,0.259,0.644,0.463,0.649,0.775
		c2.303,2.264,4.742,4.387,6.652,7.041c0.197,0.061,0.26,0.084,0.433,0.088c0.205,0.289,0.683,0.299,0.949,0.519
		c0.114-0.072,0.37,0,0.476-0.087c0.119-0.078,0.092-0.311,0.261-0.346c0.299-0.079,0.53-0.348,0.909-0.215
		c-0.07-0.282,0.125-0.303,0.301-0.346c-0.301-0.39-0.258-1.127-0.604-1.469c-0.18-1.16-0.953-1.76-1.686-2.461
		c-0.074-0.356-0.443-0.604-0.649-0.82c-0.21-0.227-0.271-0.367-0.562-0.432c-0.013-0.217-0.183-0.281-0.343-0.348
		c-0.121-0.315-0.358-0.509-0.606-0.691c-0.098-0.264-0.276-0.443-0.562-0.52c-0.153-0.205-0.259-0.463-0.431-0.647
		c-0.107-0.112-0.34-0.174-0.475-0.303c-0.083-0.075-0.094-0.197-0.174-0.259c-0.104-0.08-0.282-0.097-0.393-0.172
		c-0.106-0.084-0.09-0.248-0.258-0.22c-0.422-0.8-1.184-1.26-1.686-1.987c-0.12-0.021-0.182-0.102-0.301-0.13
		c-0.301-0.546-0.824-0.878-1.295-1.251c-0.456-0.682-1.208-1.07-1.646-1.77c-0.302-0.131-0.488-0.376-0.647-0.648
		c-0.135,0.021-0.168-0.066-0.26-0.088c-0.113-0.287-0.29-0.518-0.559-0.647c0.01-0.173-0.155-0.161-0.132-0.345
		c-0.284-0.064-0.351-0.375-0.517-0.562c-0.243-0.279-0.574-0.511-0.906-0.694c-0.387-0.593-1.057-0.903-1.427-1.512
		c-0.272-0.115-0.421-0.355-0.604-0.561c-0.089,0-0.176,0-0.26,0c-0.062-0.229-0.29-0.291-0.477-0.389
		c0.046-0.19-0.144-0.143-0.131-0.307c-0.586-0.273-0.823-0.9-1.469-1.123c-0.086-0.096-0.154-0.215-0.26-0.303
		c-0.023,0.094-0.066,0.094-0.127,0.045c-0.216-0.195-0.487-0.488-0.778-0.475c-0.28-0.455-0.775-0.692-1.079-1.123
		c-0.105-0.086-0.525-0.078-0.39-0.259c0,0.024,0.034,0.05,0.044,0c-0.049,0.005-0.068-0.065-0.087,0
		c-0.474-0.307-0.704-0.85-1.299-1.038c0.003-0.129-0.091-0.168-0.131-0.258c-0.591-0.213-0.845-0.767-1.423-0.994
		c-0.112-0.395-0.645-0.365-0.733-0.776c-0.442-0.21-0.757-0.544-1.036-0.907c-0.33-0.123-0.58-0.316-0.779-0.564
		c-0.416-0.162-0.701-0.451-0.996-0.734c-0.816-0.336-1.259-1.041-2.03-1.424c0.011-0.17-0.185-0.135-0.173-0.303
		c-0.056,0-0.114,0-0.17,0c0.002-0.076-0.012-0.134-0.044-0.178c-0.53-0.329-0.853-0.873-1.468-1.121
		c-0.033,0.137,0.234,0.34,0.215,0.604c0.072,0.07,0.317,0.201,0.217,0.303c-0.066,0.023-0.109-0.166-0.131-0.044
		c0.108,0.11,0.285,0.151,0.259,0.394c0.224,0.133,0.448,0.272,0.647,0.432l0.008-0.006c0.002,0.022,0.008,0.042,0.025,0.07
		c0.047,0.024,0.098,0.043,0.143,0.059l-0.002,0.006c0.133,0.457,0.658,0.522,0.82,0.951c0.152-0.033,0.165,0.063,0.302,0.043
		c0.197,0.535,0.812,0.657,1.079,1.122c0.137,0.023,0.192,0.126,0.347,0.134c0.473,0.594,1.157,0.971,1.688,1.512
		c-0.067,0.106-0.161,0.185-0.174,0.344c0.104,0.212,0.266,0.363,0.344,0.605c-0.145-0.06-0.209-0.198-0.301-0.303
		c-0.527-0.107-0.795-0.475-1.213-0.69v0.007c-0.238-0.191-0.465-0.381-0.688-0.568c-0.529-0.439-1.031-0.857-1.606-1.264
		c-0.023-0.017-0.059-0.012-0.074,0.011c-0.008,0.011-0.011,0.022-0.011,0.032c0,0.019,0.008,0.033,0.021,0.047
		c0.572,0.402,1.071,0.82,1.598,1.26c0.223,0.188,0.447,0.37,0.676,0.561h-0.002c0.083,0.102,0.179,0.184,0.086,0.348
		c0.82,0.776,1.676,1.517,2.551,2.244c-0.051,0.051-0.154,0.051-0.259,0.043c0.052,0.225,0.276,0.352,0.433,0.475
		c1.182,0.959,2.005,2.254,3.284,3.066C66.966,40.989,67.489,41.504,67.911,42.114z M57.458,30.377
		c-0.002-0.01-0.008-0.032-0.018-0.055l0.016-0.002c0.043,0,0.086,0,0.127,0c-0.01,0.032-0.005,0.074-0.039,0.082
		C57.512,30.392,57.478,30.38,57.458,30.377z"/>
	<path d="M48.812,56.678c0.465,0.443,1.051,0.768,1.296,1.426c-0.076,0.146,0.006,0.208,0,0.387c0.898,0.73,1.597,1.66,2.507,2.376
		c0.087,0.259,0.248,0.445,0.476,0.562c-0.01,0.086,0.049,0.098,0.044,0.171c0.736,0.52,1.13,1.379,1.985,1.775
		c0.064,0.158,0.137,0.212,0.133,0.345c0.35,0.154,0.521,0.486,0.818,0.691c-0.016,0.105,0.082,0.098,0.047,0.217
		c0.176,0.025,0.277,0.125,0.301,0.306c0.125,0.058,0.285,0.087,0.389,0.173c-0.008,0.331,0.228,0.396,0.39,0.561
		c0.094,0.094,0.136,0.263,0.216,0.346c0.146,0.15,0.448,0.273,0.26,0.389c2.018,1.953,4.006,3.943,5.96,5.963
		c0.012-0.076,0.075-0.098,0.173-0.09c0.369,0.398,0.724,0.805,0.992,1.299c0.264-0.053,0.235-0.387,0.262-0.562
		c0.187,0.103,0.051,0.313,0.258,0.431c0.251,0.033,0.379-0.053,0.523-0.128c0.236,0.283,0.838,0.248,1.035-0.044
		c0.104-0.003,0.207-0.008,0.258,0.044c-0.021-0.562,1.074-0.81,1.21-0.217c0.123,0.004,0.28-0.026,0.345,0.042l0.016-0.003
		c0.014,0.05,0.046,0.104,0.069,0.142c0.016,0.024,0.048,0.031,0.074,0.017c0.024-0.017,0.032-0.048,0.02-0.078
		c-0.024-0.03-0.038-0.058-0.048-0.088c0.023-0.315-0.24-0.401-0.131-0.679c0.277-0.037,0.389-0.195,0.647-0.043
		c-0.099-0.256-0.153-0.458-0.343-0.694c0.161-0.08,0.207-0.28,0.43-0.304c0.082,0.238,0.212,0.425,0.476,0.475
		c0.04-0.359-0.435-0.498-0.217-0.775c0.204,0.172,0.343,0.41,0.519,0.604l0.008-0.008c0.031,0.079,0.082,0.144,0.136,0.204
		c0.031,0.032,0.062,0.066,0.087,0.103c0.018,0.027,0.057,0.036,0.087,0.017c0.028-0.021,0.036-0.063,0.019-0.092
		c-0.029-0.037-0.062-0.076-0.094-0.113c-0.048-0.049-0.083-0.1-0.109-0.154c0-0.044,0.031-0.049,0.039-0.087
		c0.196,0.099,0.577,0,0.779,0.087c0.145-0.016,0.088-0.227,0.259-0.216c0.174,0.034,0.189,0.216,0.349,0.26
		c0-0.112-0.026-0.252,0.086-0.26c0.082,0.144,0.392,0.028,0.475,0.044c-0.011-0.064-0.006-0.312-0.043-0.477
		c0.043,0,0.051-0.035,0.086-0.043c0.16,0.03,0.314,0.062,0.52,0.043c-0.026-0.237,0.02-0.408,0.217-0.432
		c0.207,0.029,0.348,0.209,0.517,0.045c0.173,0.114,0.141,0.433,0.216,0.646c0.234-0.049,0.408-0.164,0.521-0.344
		c0.282-0.016,0.515,0.127,0.818,0.084c0.108,0.051,0.042,0.275,0.173,0.303l0.002-0.006c0.018,0.021,0.027,0.039,0.041,0.062
		c0.025,0.058,0.059,0.135,0.148,0.145c0.024,0.004,0.049-0.014,0.053-0.043c0.008-0.028-0.016-0.049-0.041-0.055
		c-0.03-0.002-0.046-0.027-0.07-0.085c-0.011-0.024-0.023-0.051-0.042-0.075c0.011-0.231,0.165-0.313,0.341-0.375
		c-0.029-0.172,0.043-0.244,0.043-0.388c-0.195-0.065-0.578-0.333-0.259-0.519c-0.245-0.04-0.259-0.318-0.347-0.52
		c0.214-0.283,0.344-0.539,0.217-0.906c0.287-0.078,0.449-0.312,0.777-0.129c-0.04-0.381-0.279-0.461-0.605-0.474
		c0.049-0.186,0.171-0.298,0.217-0.477c0.171,0.043,0.191,0.231,0.379,0.252c0.002,0.036,0.008,0.067,0.01,0.115
		c0,0.028,0.021,0.036,0.049,0.032c0.023-0.004,0.045-0.04,0.041-0.061c0-0.043-0.008-0.087-0.018-0.13l0.013,0.007
		c-0.074-0.255-0.21-0.447-0.216-0.777c0.072,0,0.145,0,0.216,0c0.038-0.15-0.062-0.166-0.042-0.303
		c0.192,0,0.246-0.129,0.346-0.215c0.012,0.008,0.016,0.014,0.031,0.028c0.025,0.031,0.059,0.071,0.119,0.078
		c0.026,0,0.045-0.021,0.045-0.042c0-0.021-0.019-0.043-0.039-0.043c-0.022,0-0.033-0.014-0.059-0.048
		c-0.014-0.017-0.035-0.039-0.064-0.06h0.014c-0.387-0.519,0.389-0.512,0.689-0.734c0.192,0.078,0.267,0.279,0.52,0.303
		c-0.008-0.18,0.011-0.335,0.086-0.434c-0.051-0.182-0.234-0.229-0.173-0.517c0.149-0.044,0.165-0.21,0.346-0.217
		c0.022-0.153-0.153-0.108-0.13-0.263c0.079-0.118,0.166-0.232,0.261-0.346c-0.139-0.082,0.054-0.198,0.128-0.215
		c0.051,0.207,0.225,0.293,0.389,0.388l0.012-0.011c0.019,0.037,0.034,0.076,0.045,0.117c0.017,0.042,0.027,0.077,0.045,0.113
		c0.011,0.029,0.043,0.04,0.072,0.029c0.027-0.014,0.043-0.051,0.027-0.08c-0.014-0.028-0.025-0.062-0.035-0.094
		c-0.01-0.041-0.029-0.078-0.049-0.123l0.015,0.006c-0.354-0.566-0.849-1.277-1.253-1.771c-0.064-0.078-0.049-0.166,0-0.215
		c-0.225-0.127-0.353-0.437-0.258-0.653c0.33,0.139,0.422,0.682,0.775,0.694c0.646,0.026,0.15-0.556,0.13-0.91
		c-0.304-0.057-0.399-0.315-0.562-0.517c0.171-0.165,0.248-0.591,0.605-0.432c0.019-0.418,0.284-0.749,0.775-0.562
		c0,0.058,0,0.115,0,0.172c0.12,0.086,0.221,0.188,0.304,0.303c0.106,0.314,0.359,0.453,0.561,0.689
		c0.178,0.211,0.314,0.577,0.647,0.52c-0.062-0.143,0.118-0.174,0.13-0.303c0.021-0.159-0.173-0.592-0.215-0.647
		c-0.309-0.389-0.812-0.835-1.037-1.208c0.186-0.109,0.327,0.15,0.389,0.303c0.08,0.005,0.145,0.028,0.174,0.086
		c0.319,0.504,0.775,0.863,1.207,1.25c0.1,0.354,0.392,0.504,0.432,0.912c0.228,0.036,0.328,0.189,0.566,0.217
		c0.037-0.22-0.145-0.279-0.174-0.476c-0.023-0.17,0.061-0.351,0.04-0.522c-0.074-0.645-0.567-1.065-0.775-1.598
		c0.159,0.028,0.279,0.098,0.477,0.086c0.204,0.223,0.389,0.486,0.567,0.742c0.164,0.23,0.328,0.468,0.512,0.68
		c0.02,0.024,0.054,0.024,0.081,0.004c0.021-0.019,0.024-0.055,0.008-0.08c-0.181-0.207-0.347-0.442-0.504-0.67
		c-0.184-0.258-0.376-0.528-0.587-0.757l0.006-0.005c-0.029-0.418-0.35-0.597-0.56-0.864c-0.171-0.212-0.278-0.468-0.476-0.647
		c-0.084-0.072-0.215-0.089-0.304-0.172c-0.312-0.303-0.515-0.734-0.821-0.951c-0.061-0.041-0.082,0-0.128-0.041
		c-0.267-0.264-0.429-0.627-0.821-0.735c0.038-0.122-0.061-0.114-0.043-0.216c-0.08-0.067-0.17-0.122-0.258-0.174
		c-0.246-0.377-0.664-0.574-0.906-0.948c-0.107,0-0.131-0.075-0.262-0.044c-0.182-0.338-0.283-0.755-0.777-0.777
		c-0.502-0.741-1.182-1.293-1.771-1.946c-0.399-0.579-1.037-0.925-1.384-1.559c-0.807-0.731-1.594-1.483-2.377-2.245
		c-0.622-0.604-1.12-1.389-1.813-1.856c0.031-0.134-0.12-0.083-0.088-0.217c-0.449-0.24-0.641-0.74-1.209-0.862
		c0.044-0.188-0.09-0.201-0.13-0.303c-0.179,0.036-0.205-0.087-0.343-0.087c-0.092-0.271-0.331-0.393-0.562-0.519
		c0-0.078-0.012-0.135-0.044-0.172c-0.464-0.316-0.794-0.828-1.169-1.17c-0.087-0.082-0.271-0.137-0.346-0.215
		c-0.059-0.062-0.025-0.127-0.087-0.174c-0.071-0.058-0.187-0.068-0.259-0.129c-0.155-0.137-0.258-0.35-0.432-0.475
		c-0.251-0.186-0.601-0.299-0.907-0.434c-0.139-0.023-0.2,0.029-0.3,0.045c-0.153-0.206-0.361-0.399-0.691-0.303
		c0.034,0.227-0.171,0.205-0.217,0.346c-0.051-0.035-0.117-0.059-0.215-0.043c-0.223,0.285-0.586,0.42-0.995,0.518
		c-0.04,0.141,0.069,0.133,0.089,0.216c-0.391,0.177-0.741,0.206-0.912,0.647c0.04,0.201,0.291,0.367,0.084,0.566
		c-0.375,0.057-0.535-0.099-0.775-0.175c-0.018,0.403,0.39,0.39,0.433,0.735c-0.04,0.072-0.079,0.147-0.217,0.129
		c0.118,0.342,0.442,0.479,0.433,0.951c-1-0.611-1.821-1.404-2.676-2.164c-0.105-0.017-0.095,0.08-0.217,0.043
		c-0.27-0.219-0.472-0.506-0.779-0.691c0.039,0.186-0.084,0.206-0.084,0.348c0.144,0.187,0.271,0.309,0.258,0.563
		c-0.186-0.175-0.677-0.042-0.82-0.263c-0.859,0.457-1.228-0.578-2.077-0.648c-0.005,0.155-0.161,0.155-0.259,0.217
		c0.234,0.214,0.541,0.357,0.735,0.605c-0.134,0.146-0.099,0.211-0.216,0.392c0.109,0.007,0.125,0.115,0.2,0.159
		c-0.013,0.003-0.031,0.011-0.044,0.006c-0.023,0-0.047,0.016-0.052,0.04c0,0.004,0,0.004,0,0.012c0,0.021,0.019,0.039,0.04,0.042
		c0.035,0.008,0.076,0,0.117-0.014l-0.003,0.014c0.185-0.011,0.35-0.007,0.302,0.217c-0.082-0.003-0.054-0.123-0.174-0.086
		c0.018,0.143-0.074,0.18-0.128,0.258c-0.016,0-0.028,0-0.043,0v0.008l-0.016-0.021c-0.046-0.051-0.077-0.091-0.134-0.123
		c-0.023-0.011-0.053,0-0.066,0.021c-0.008,0.008-0.008,0.019-0.008,0.029c0,0.014,0.008,0.037,0.023,0.045
		c0.038,0.021,0.062,0.049,0.102,0.099l0.021,0.021l-0.01,0.008c-0.004,0.058,0.148,0.16,0.043,0.173
		c-0.006-0.05-0.067-0.05-0.129-0.042l-0.029,0.007c0.018-0.036,0.029-0.08,0.002-0.13l-0.025-0.016
		c-0.016-0.002-0.025,0-0.03,0.016c0,0.015,0.012,0.029,0.024,0.037c0,0.005-0.002,0.023-0.005,0.043c-0.038,0-0.071,0-0.11,0
		c0.004,0.187,0.096,0.352-0.043,0.346c0.146-0.008,0.34,0.058,0.476,0.172c-0.13,0.107,0.003,0.209-0.043,0.26
		c-0.202-0.115-0.245,0.043-0.346-0.087c0.026-0.004,0.042-0.011,0.042-0.036c0.048,0.005,0.096,0.008,0.122-0.021
		c0.008-0.008,0.019-0.047,0.019-0.059c-0.003-0.013-0.019-0.021-0.034-0.021c-0.016,0.004-0.03,0.021-0.026,0.04
		c-0.009,0.006-0.053,0.003-0.075,0.003h-0.005c0.017-0.251-0.282-0.276-0.387-0.166c0.112-0.118-0.299-0.173-0.389-0.085
		c-0.374-0.273-0.742-0.559-1.166-0.777l-0.021,0.021c-0.095-0.128-0.194-0.213-0.304-0.248c-0.023-0.011-0.051,0.003-0.062,0.028
		c0,0.004,0,0.011,0,0.019c0,0.019,0.011,0.036,0.033,0.043c0.09,0.03,0.182,0.104,0.264,0.224c0.332,0.367,0.658,0.752,1.125,0.992
		c0.266,0.482,1.056,0.678,1.036,1.296c-0.565-0.422-1.164-1.015-1.771-1.252c0.004-0.081-0.01-0.137-0.041-0.173
		c-0.132,0.051-0.15,0.012-0.26-0.044c-0.088,0.159-0.148,0.115-0.045,0.304c-0.135-0.115-0.447-0.275-0.56-0.045
		c-0.317-0.191-0.552-0.459-0.864-0.647c0.03,0.108,0.041,0.177-0.043,0.261c-0.407-0.088-0.535-0.446-0.863-0.605l-0.02,0.008
		c-0.028-0.069-0.08-0.112-0.131-0.151c-0.041-0.036-0.082-0.067-0.105-0.11c-0.008-0.021-0.029-0.023-0.043-0.013
		c-0.01,0.003-0.018,0.015-0.018,0.028c0,0.004,0.002,0.008,0.002,0.016c0.034,0.053,0.08,0.094,0.123,0.129
		c0.039,0.029,0.076,0.064,0.1,0.104c-0.008,0.035-0.002,0.072-0.041,0.076c-0.398-0.205-0.707-0.709-1.166-0.776
		c-0.276-0.216-0.365-0.619-0.82-0.651c0.013-0.176-0.166-0.12-0.259-0.172c-0.259-0.145-0.366-0.4-0.563-0.606
		c-0.66-0.308-1.027-0.802-1.596-1.208c0.021,0.018-0.089,0.031-0.131,0c-0.194-0.141-0.391-0.361-0.608-0.518
		c-0.224-0.167-0.444-0.313-0.677-0.465c-0.021-0.025-0.043-0.043-0.055-0.068c-0.018-0.036-0.063-0.055-0.1-0.032
		c-0.027,0.013-0.043,0.038-0.043,0.063c0,0.016,0.005,0.027,0.01,0.037c0.027,0.05,0.059,0.086,0.092,0.115h-0.003
		c-0.017,0.064-0.051,0.075,0,0.131c-0.165-0.048-0.222-0.211-0.389-0.262c-0.062,0.178-0.235,0.198-0.433,0.131
		c0.045,0.115,0.054,0.266,0.042,0.432c0.409,0.259,0.565,0.763,1.079,0.91c0.275,0.465,0.854,0.619,1.084,1.123
		c-0.014,0.053-0.176,0.161-0.043,0.217c0.051-0.106-0.021,0.129,0.131,0.129l0.023-0.012c-0.019,0.036-0.029,0.068-0.034,0.102
		c-0.005,0.01-0.011,0.021-0.016,0.033c-0.046-0.01-0.062-0.033-0.02-0.08c-0.469,0.151-0.589-0.008-1.039-0.086
		c-0.032,0.25,0.21,0.227,0.13,0.521c0.822,0.791,1.712,1.512,2.594,2.244c-0.153,0.133,0.004,0.116,0.044,0.26
		c-0.04-0.029-0.158-0.102-0.128,0.043c0.218,0.354,1.1,0.597,0.775,1.08c0.139-0.051,0.1-0.004,0.258,0
		c-0.125,0.159,0.066,0.086,0.09,0.129c-0.008,0.058-0.055,0.058-0.044,0.129c-0.077-0.15-0.216,0.016-0.304-0.086
		c0.005-0.068,0.112-0.036,0.088-0.131c-0.32,0.01-0.377-0.242-0.693-0.127c0.203,0.344,0.564,0.528,0.648,0.992
		c-0.128,0-0.259,0-0.387,0c0.039,0.236-0.232,0.212-0.174,0.346c-0.063-0.05-0.109-0.05-0.174,0
		c0.105,0.152,0.021,0.288,0.216,0.389c-0.023-0.111,0.02-0.155,0.132-0.129c-0.14,0.135-0.006,0.252,0.085,0.387l0.011-0.027
		c0.061,0.037,0.141,0.059,0.207,0.021c0.035,0.108,0.117,0.194,0.223,0.222h-0.008c0.079,0.11,0.191,0.188,0.301,0.261l0.008-0.016
		c0.003,0.016,0.008,0.029,0.011,0.043c0.016,0.059,0.019,0.103,0.005,0.146c-0.087-0.008-0.071,0.086-0.15,0.086
		c-0.148-0.173-0.215-0.252-0.425-0.299l-0.027-0.024c-0.023-0.03-0.069-0.03-0.093,0c-0.011,0.01-0.019,0.027-0.019,0.041
		c0,0.019,0.008,0.037,0.019,0.047l0.037,0.035c0.165,0.225-0.016,0.37,0.16,0.545c-0.021,0.008-0.043,0.016-0.074,0.037
		c-0.008,0.021-0.011,0.041-0.019,0.071c0,0.007-0.003,0.015-0.003,0.022c-0.027,0-0.051,0-0.078,0
		c-0.026-0.094,0.123-0.137-0.042-0.131c-0.04-0.078,0.131-0.144,0-0.172c-0.012,0.035-0.035,0.049-0.086,0.044l-0.059,0.056
		l0.043-0.071c-0.011-0.011-0.016-0.026-0.026-0.039c-0.02-0.039-0.061-0.055-0.102-0.032c-0.026,0.014-0.041,0.04-0.041,0.064
		c0,0.014,0.003,0.025,0.011,0.035c0.009,0.022,0.022,0.039,0.048,0.074h-0.004c0.008,0.049,0.048,0.067,0.088,0.084
		c0.034,0.211-0.191,0.158-0.132,0.389c0.198,0.102,0.22,0.328,0.302,0.433c-0.077,0.042-0.144-0.13-0.17,0
		c0.148,0.122,0.256,0.295,0.344,0.478c-0.057,0.088-0.139,0.148-0.259,0.173c-0.307-0.309-0.567-0.491-0.948-0.65
		c-0.123,0.011-0.055,0.209-0.217,0.173c-0.866-0.24-1.385-0.836-2.078-1.252c-0.012,0.107,0.082,0.092,0.044,0.215
		c-0.115-0.102-0.28,0.008-0.302,0.131c0.773,0.797,1.672,1.467,2.553,2.162c-0.153,0.191,0.271,0.26,0.127,0.43
		c-0.111-0.397-0.895-0.477-0.949,0.045c0.182,0.094,0.342,0.206,0.39,0.432c-0.005,0.111-0.171,0.062-0.174,0.173
		c0.31,0.524,0.905,0.745,1.122,1.256c0.238-0.007,0.305,0.157,0.39,0.302c0.146-0.05,0.378,0.245,0.345,0.391
		C48.024,55.734,48.618,56.009,48.812,56.678z M55.04,45.344c-0.018-0.029-0.031-0.053-0.059-0.061l0.008-0.012
		c-0.125-0.138,0.307,0.057,0.059,0.083C55.048,45.354,55.043,45.35,55.04,45.344z M54.905,45.357c0.021,0,0.04,0,0.056,0
		c0.008,0.01,0.019,0.021,0.026,0.021c0.008,0.007,0.01,0.014,0.02,0.025l-0.018-0.003c0,0.027,0,0.058,0,0.086
		C54.937,45.469,54.905,45.429,54.905,45.357z M45.312,42.953c0.005-0.021,0.016-0.04,0.023-0.059
		c0.104-0.01,0.019,0.11-0.021,0.126l-0.033,0.013C45.293,43.005,45.305,42.979,45.312,42.953z M45.315,43.24
		c0.01,0.004,0.08,0.091,0.041,0.13C45.325,43.398,45.237,43.197,45.315,43.24z M46.696,44.406c0.039-0.117,0.175,0.019,0.131,0.131
		C46.671,44.6,46.8,44.386,46.696,44.406z M47.415,48.775l0.014-0.008c0-0.027,0-0.057,0-0.084c0.057,0.005,0.102,0.013,0.089,0.084
		l0.019,0.008C47.501,48.798,47.456,48.79,47.415,48.775z M47.62,48.803l0.025,0.008c0.045,0.059,0.098,0.102,0.117,0.181
		C47.692,48.956,47.64,48.887,47.62,48.803z M48.682,50.02c-0.056-0.028-0.239-0.344-0.302-0.258
		c-0.09,0.115-0.098-0.217-0.215-0.217l-0.026,0.013c0.044-0.07,0.026-0.145,0.008-0.214c-0.003-0.003-0.003-0.007-0.003-0.014
		c0.062,0.007,0.126,0.007,0.106,0.086c0.051-0.007,0.069-0.047,0.089-0.086c0.066,0.043,0.021,0.157,0,0.173
		c0.005,0.065,0.104,0.042,0.17,0.042c-0.117,0.116,0.035,0.151,0.045,0.261c0.16-0.12,0.264,0.118,0.387,0.171l0.021,0.008
		l-0.037,0.039c-0.117,0.019-0.12-0.068-0.199-0.09C48.647,49.949,48.751,50.007,48.682,50.02z M47.592,50.113
		c0.008-0.021,0.016-0.049,0.036-0.082c0.022,0.011,0.035,0.027,0.062,0.033c0,0.028,0,0.057,0,0.086
		c-0.032-0.008-0.088,0-0.088-0.043L47.592,50.113z M48.985,50.107l-0.018-0.004l0.031-0.031c0.069,0,0.092,0.041,0.158,0.035
		c0,0.043,0,0.085,0,0.129C49.045,50.252,48.976,50.223,48.985,50.107z M47.86,50.408c0.011-0.043,0.09-0.027,0.09-0.086
		c0.049,0.008,0.033,0.08,0.041,0.131C47.923,50.467,47.917,50.412,47.86,50.408z"/>
	<path d="M71.587,46.134c-0.086,0.022-0.102-0.237-0.177-0.085C71.489,46.033,71.546,46.25,71.587,46.134z"/>
	<path d="M40.562,76.555c0.083,0.015,0.106,0.093,0.217,0.086c0.394,0.511,0.826,0.986,1.338,1.381
		c0.189,0.299,0.424,0.555,0.733,0.735c-0.003,0.058-0.054,0.058-0.044,0.13c0.254,0.28,0.533,0.533,0.822,0.776
		c0.063,0.069,0.09,0.169,0.127,0.261c0.154-0.012,0.161,0.128,0.305,0.128c0.328,0.7,1.061,0.985,1.384,1.685
		c0.583,0.352,0.972,0.902,1.512,1.3c0.248,0.687,1.079,0.79,1.295,1.509l0.008-0.002c-0.003,0.021-0.008,0.044-0.008,0.064
		c0,0.178,0.114,0.303,0.222,0.417c0.077,0.095,0.148,0.177,0.176,0.278c0.031,0.219,0.377,0.315,0.293,0.496
		c-0.494-0.414-0.911-0.896-1.381-1.338l-0.003,0.006c-0.657-0.668-1.349-1.334-2.016-1.981l-0.637-0.62
		c-0.024-0.027-0.064-0.027-0.093,0c-0.011,0.014-0.02,0.029-0.02,0.045c0,0.017,0.009,0.035,0.021,0.051l0.638,0.618
		c0.675,0.65,1.368,1.323,2.034,2l-0.011,0.011c0,0.057,0,0.115,0,0.172c0.542,0.598,1.341,1.191,1.854,1.861
		c0.182,0.23,0.266,0.593,0.648,0.562c-0.08-0.54-0.637-0.604-0.605-1.253c0.016,0,0.027,0,0.041,0
		c0.016,0.014,0.028,0.028,0.041,0.044c0.06,0.05,0.11,0.093,0.123,0.158c0.006,0.017,0.027,0.027,0.043,0.021
		c0.019,0,0.03-0.021,0.026-0.04c-0.021-0.082-0.082-0.139-0.144-0.19c-0.021-0.021-0.049-0.046-0.069-0.07
		c-0.176-0.235-0.384-0.439-0.663-0.572l-0.014,0.003c-0.031-0.128-0.118-0.229-0.208-0.332c-0.095-0.109-0.179-0.211-0.179-0.345
		c0.536,0.295,0.797,0.865,1.307,1.191c0.144,0.335,0.404,0.547,0.564,0.866c0.1,0,0.2,0,0.303,0
		c-0.103-0.287,0.176-0.201,0.215-0.345c-0.008-0.312-0.302-0.334-0.302-0.65c-0.322-0.17-0.573-0.406-0.604-0.863
		c0.077-0.006,0.029-0.142,0.125-0.131c0.248,0.198,0.479-0.003,0.824,0.131c0.112-0.092,0.187-0.217,0.389-0.217
		c0.169,0.253,0.507,0.568,0.734,0.863c0.123,0.162,0.266,0.579,0.52,0.303c-0.225-0.234-0.297-0.626-0.433-0.949
		c0.118-0.062,0.026-0.228,0.085-0.346c0.015-0.029,0.115-0.02,0.131-0.044c0.072-0.114-0.045-0.284,0.171-0.216
		c-0.013-0.17,0.056-0.264,0.13-0.346c0.297-0.01,0.443,0.256,0.562,0.432c0.161,0.234,0.27,0.509,0.477,0.691
		c0.188-0.12,0.228,0.055,0.386,0.086c0.071-0.112,0.267-0.112,0.39-0.172c0.133,0.039,0.138,0.211,0.304,0.217
		c0.046-0.256,0.181-0.422,0.386-0.52c0.046-0.216,0.072-0.447,0.264-0.519l0.008-0.03l0.025,0.034
		c0.021,0.026,0.037,0.043,0.041,0.073c0.008,0.013,0.028,0.021,0.041,0.016c0.019-0.003,0.026-0.025,0.021-0.038
		c-0.014-0.035-0.031-0.059-0.057-0.087l-0.008-0.014l0.014,0.003c-0.472-0.942-1.334-1.489-1.945-2.292
		c0.15,0.028,0.187-0.058,0.324-0.042c0.016,0.021,0.037,0.042,0.066,0.078c0.021,0.024,0.055,0.021,0.08,0
		c0.03-0.021,0.023-0.067,0.003-0.094c-0.028-0.036-0.062-0.076-0.101-0.103l0.016-0.013c-0.062-0.094-0.131-0.183-0.131-0.346
		c0.17,0.059,0.224-0.181,0.433,0c0.191-0.224,0.183-0.595,0.431-0.646c-0.096-0.03-0.014-0.241-0.042-0.347
		c0.202-0.042,0.256,0.028,0.347-0.129c0.119,0.098,0.219,0.082,0.391,0.043c0.849,0.764,1.585,1.642,2.42,2.418
		c-0.012,0.085,0.045,0.096,0.043,0.173c0.556,0.122,0.604,0.806,1.295,0.565c0.25,0.183,0.498,0.106,0.82,0.215
		c0.182-0.061,0.283-0.205,0.43-0.301c-0.059-0.099-0.115-0.199-0.171-0.303c0.427-0.105,0.22-0.544,0.086-0.867
		c0.091-0.102,0.157-0.217,0.3-0.259c0.118-0.159,0.035-0.515,0.348-0.477c-0.021,0.146,0.031,0.202,0.043,0.303
		c0.113,0.065,0.287,0.062,0.393,0.13c-0.064-0.453-0.355-0.677-0.518-1.037c-0.092-0.039-0.174-0.086-0.266-0.128
		c-0.289-0.468-0.634-0.911-0.948-1.296c-0.44-0.539-0.898-0.899-1.382-1.383c-0.236-0.237-0.412-0.54-0.646-0.777
		c-0.742-0.758-1.515-1.486-2.336-2.162c-1.602-1.608-3.096-3.329-4.75-4.883c-1.949-2.094-3.903-4.192-6.053-6.092
		c-0.117-0.035-0.111,0.062-0.216,0.043c-0.366-0.305-0.65-0.701-1.123-0.906c-0.366-0.501-0.936-0.788-1.381-1.209
		c-0.142-0.134-0.192-0.375-0.431-0.393c0.002-0.071-0.012-0.131-0.043-0.174c-0.129-0.028-0.215-0.1-0.305-0.172
		c-0.005-0.111-0.043-0.172-0.084-0.217c-0.1-0.085-0.26-0.15-0.348-0.258c-0.045-0.059-0.042-0.17-0.085-0.217
		c-0.04-0.035-0.134-0.006-0.174-0.042c-0.09-0.072-0.071-0.288-0.259-0.217c-0.059-0.229-0.234-0.329-0.391-0.474
		c-0.343-0.311-0.686-0.67-1.123-0.821c-0.195-0.229-0.422-0.446-0.647-0.647c-0.729-0.645-1.371-1.307-2.118-1.9
		c-0.207,0.072-0.281-0.201-0.389-0.086l-0.005,0.016c-0.03-0.023-0.059-0.041-0.083-0.059h0.004
		c-0.082-0.209-0.24-0.339-0.476-0.389c-0.052-0.021-0.1-0.055-0.144-0.094c-0.043-0.029-0.089-0.065-0.131-0.092
		c-0.029-0.017-0.064-0.002-0.084,0.026c-0.002,0.008-0.005,0.019-0.005,0.028c0,0.021,0.011,0.041,0.028,0.051
		c0.039,0.023,0.079,0.052,0.117,0.08c0.052,0.046,0.113,0.09,0.187,0.117l-0.013,0.011c-0.02,0.131,0.1,0.116,0.123,0.206
		c-0.008,0.011-0.016,0.021-0.025,0.033c-0.021,0.017-0.041,0.035-0.062,0.107c0.051,0.1,0.133,0.188,0.226,0.252l0.065,0.014
		c0.023,0.008,0.047-0.006,0.055-0.033c0.003-0.023-0.011-0.045-0.031-0.055c-0.023-0.005-0.046-0.01-0.062-0.005
		c-0.077-0.073-0.139-0.144-0.176-0.165c0.013-0.022,0.032-0.035,0.045-0.051c0.019-0.016,0.037-0.04,0.051-0.059l0.008,0.016
		c0.072,0.027,0.146,0.062,0.231,0.079c0.007,0,0.007,0.007,0.007,0.007c0.021,0.014,0.041,0.029,0.064,0.043
		c0.113,0.098,0.082,0.217,0.13,0.303c0.036-0.065,0.287,0.021,0.259,0.172c-0.059,0-0.115,0-0.174,0l0.021,0.065l-0.064,0.021
		c0.002,0.188,0.092,0.289-0.088,0.346c-0.166-0.262-0.342-0.402-0.56-0.518c0.104-0.05-0.144,0.021,0-0.131
		c-0.213-0.104-0.414-0.092-0.565-0.171c-0.014,0.101,0.08,0.093,0.043,0.216c-0.189-0.08-0.174,0.028-0.211,0.131
		c-0.111-0.066-0.173-0.11-0.306-0.045l0.021,0.045l-0.021,0.041c0,0.029,0,0.058,0,0.086c-0.03,0-0.06,0-0.089,0
		c0-0.028,0-0.057,0-0.086l0.025-0.021l0.02-0.021c0.057-0.146-0.386-0.006-0.347-0.262c-0.167,0.006-0.298,0.023-0.346,0.045
		c-0.063,0.201,0.261,0.295,0.261,0.387c-0.245-0.021-0.43-0.391-0.647-0.17c0.853,0.877,1.894,1.56,2.638,2.547
		c0.031,0.137-0.121,0.086-0.087,0.215c0.136,0.108,0.272,0.217,0.345,0.389c-0.086,0.029-0.115,0.115-0.128,0.216
		c1.556,1.253,2.748,2.868,4.321,4.105c0.119,0.364,0.427,0.504,0.69,0.739c0.653,0.575,1.368,1.229,1.771,1.984
		c0.221,0.109,0.362,0.295,0.516,0.476c0,0.071,0,0.144,0,0.216c0.279,0.342,0.521,0.645,0.78,0.906
		c-0.008,0.08,0.051,0.095,0.043,0.174c0.444,0.309,0.687,0.806,1.039,1.209c0.399,0.464,0.989,0.783,1.253,1.381
		c-0.288,0.148-0.461-0.2-0.605-0.346c-0.73-0.727-1.581-1.391-2.162-2.202c-0.133-0.028-0.127,0.076-0.258,0.045
		c-0.027-0.265-0.2-0.375-0.433-0.433c-0.04-0.17-0.216-0.406-0.304-0.474c-0.08-0.062-0.177,0-0.259-0.044
		c-0.13-0.068-0.161-0.316-0.346-0.259c-0.155-0.022-0.107,0.149-0.26,0.128c-0.149-0.078-0.2-0.259-0.39-0.302
		c-0.17,0.015-0.197,0.179-0.386,0.174c-0.142-0.022-0.154-0.166-0.304-0.174c-0.421,0.144-0.917,0.056-1.213-0.087
		c-0.182,0.102-0.295,0.281-0.475,0.389c-0.375-0.065-0.488-0.402-0.776-0.562c0.054,0.347-0.042,0.728,0,1.036
		c0.074,0.52,0.555,0.729,0.776,1.08c-0.1,0.245-0.117,0.36-0.171,0.518c-0.161-0.008-0.169-0.057-0.304,0
		c-0.029-0.092,0.123-0.135-0.043-0.127c-0.064,0.164-0.146,0.25-0.39,0.258c-0.196-0.159-0.36-0.359-0.604-0.475l-0.021,0.063
		l-0.064-0.022c-0.014,0-0.029,0-0.041,0c-0.166-0.075-0.166-0.045-0.348-0.086c-0.294-0.431-0.834-0.621-1.197-0.984
		c-0.002-0.008-0.002-0.016-0.008-0.016c-0.179-0.135-0.345-0.291-0.506-0.438c-0.203-0.188-0.402-0.373-0.614-0.501l-0.048-0.003
		l-0.057,0.013l0.007,0.037l0.021,0.016c0.219,0.144,0.422,0.33,0.619,0.515c0.156,0.147,0.328,0.306,0.506,0.44l-0.02,0.016
		c0.196,0.382,0.511,0.642,0.822,0.906c0.094,0.525,0.717,0.522,0.732,1.123c0.34,0.238,0.582,0.577,0.865,0.864
		c0.028,0.188,0.059,0.342,0.173,0.476c0.371,0.438,0.843,0.863,1.295,1.342c1.347,1.413,2.798,2.91,4.105,4.279
		c0.092,0.225,0.34,0.293,0.391,0.561c0.239,0.033,0.45,0.326,0.343,0.562c-0.043,0-0.048,0.035-0.084,0.043
		c-0.361-0.331-0.699-0.685-1.166-0.907c0.01-0.158-0.131-0.158-0.131-0.302c-0.338-0.165-0.474-0.534-0.82-0.691
		c-0.146-0.272-0.402-0.464-0.604-0.562c0-0.058,0-0.115,0-0.171c-0.128-0.11-0.336-0.159-0.475-0.303
		c-0.029-0.032-0.016-0.151-0.045-0.174c-0.154-0.13-0.31-0.054-0.302-0.306c-0.205-0.024-0.264-0.137-0.346-0.258
		c-0.136-0.195-0.161-0.235-0.304-0.391c-0.405-0.441-0.804-0.838-1.168-1.295c-0.182-0.031-0.232-0.197-0.388-0.259
		c-0.055-0.256-0.22-0.429-0.389-0.52c-0.245-0.136-0.269-0.229-0.433-0.392c-0.107-0.104-0.276-0.201-0.43-0.345
		c-0.473-0.429-1.033-0.952-1.512-1.295l-0.012,0.011c-0.064-0.084-0.142-0.162-0.219-0.234c-0.117-0.107-0.227-0.209-0.293-0.346
		c-0.016-0.035-0.062-0.049-0.094-0.032c-0.024,0.011-0.04,0.035-0.04,0.062c0,0.01,0.005,0.021,0.008,0.031
		c0.081,0.156,0.204,0.275,0.325,0.387c0.064,0.06,0.125,0.125,0.182,0.193c-0.014,0.036-0.023,0.052,0.01,0.102
		c0.232,0.331,0.77,0.576,0.953,0.993c0.077,0.05,0.144,0.114,0.216,0.171c0.16,0.313,0.452,0.498,0.733,0.694
		c0.156,0.394,0.496,0.608,0.777,0.907c0.305,0.328,0.486,0.694,0.865,0.864c0.031,0.256,0.312,0.263,0.343,0.519
		c0.587,0.363,0.862,1.044,1.473,1.385C40.396,76.399,40.54,76.415,40.562,76.555z M35.55,57.411c0-0.028,0-0.058,0-0.087
		c0.028,0,0.056,0,0.084,0c0,0.029,0,0.059,0,0.087C35.605,57.411,35.578,57.411,35.55,57.411z"/>
	<path d="M35.291,56.936l-0.024-0.064l0.066-0.021c0.123-0.125-0.224-0.229-0.259-0.086C35.202,56.785,35.151,57.132,35.291,56.936z
		"/>
	<path d="M46.868,86.536c-0.586-0.542-1.11-1.165-1.642-1.688c-1.37-1.348-2.804-2.639-4.148-4.018
		c-0.344-0.354-0.628-0.75-0.949-1.081c-0.151-0.153-0.306-0.345-0.517-0.431c-0.049,0.467,0.458,0.702,0.733,0.992
		c0.351,0.381,0.64,0.864,1.079,1.123c-0.005,0.133,0.09,0.169,0.129,0.261c0.076,0.067,0.17,0.122,0.26,0.171
		c-0.033,0.137,0.118,0.088,0.087,0.215c1.087,1.096,2.169,2.031,3.241,3.156c0.184,0.193,0.24,0.328,0.475,0.562
		c0.479,0.479-0.39-0.343-0.39-0.346l-0.011,0.027c-0.025-0.056-0.064-0.096-0.104-0.131c-0.035-0.037-0.072-0.068-0.094-0.109
		c-0.01-0.014-0.031-0.021-0.045-0.014c-0.011,0.008-0.019,0.021-0.019,0.033c0,0.006,0,0.01,0.003,0.017
		c0.029,0.051,0.068,0.086,0.104,0.122c0.037,0.029,0.066,0.065,0.09,0.102l-0.01-0.004c0,0.072,0,0.145,0,0.22
		c0.635,0.456,1.016,1.174,1.77,1.511c0.031,0.225,0.166,0.691,0.606,0.647c-0.032-0.216-0.337-0.387-0.302-0.517
		c0.227,0.072,0.333,0.269,0.518,0.389c0.079,0,0.094-0.037,0.043-0.088l-0.003-0.013c0.098,0.085,0.177,0.171,0.216,0.263
		c0.005,0.01,0.024,0.018,0.035,0.01c0.016-0.004,0.021-0.021,0.016-0.036c-0.046-0.093-0.121-0.179-0.223-0.267
		c-0.194-0.27-0.369-0.493-0.559-0.689C47.108,86.768,47.003,86.658,46.868,86.536z"/>
	<path d="M43.585,80.613C43.364,80.305,43.648,80.707,43.585,80.613L43.585,80.613z"/>
	<path d="M26.863,11.353l0.021,0.043l-0.021,0.039c0.323,0.387,0.599,0.811,1.079,1.041c-0.016,0.101,0.006,0.166,0.043,0.215
		c0.342,0.119,0.382,0.54,0.732,0.647c-0.01,0.102,0.008,0.166,0.043,0.217c0.361,0.175,0.502,0.543,0.781,0.821
		c0.084,0.078,0.217,0.101,0.305,0.171c0.043,0.037,0.037,0.131,0.086,0.175c0.144,0.134,0.348,0.208,0.474,0.345
		c0.027,0.029,0.048,0.119,0.085,0.172c0.326,0.429,0.675,0.75,1.037,1.08c0.083,0.565,0.619,0.678,0.949,0.993
		c0.038,0.05,0.059,0.115,0.046,0.216c0.433,0.348,0.819,0.734,1.295,1.037c0.136,0.279,0.394,0.382,0.608,0.562
		c0.427,0.37,0.809,0.798,1.338,1.04c0,0.129,0.112,0.146,0.129,0.258c0.469,0.25,0.906,0.797,1.426,1.295
		c0.576,0.559,1.31,0.947,1.512,1.559c0.039,0.108-0.018,0.256,0,0.345c0.107,0.462,0.693,0.629,0.998,0.476
		c0.087-0.165,0.236-0.279,0.386-0.389c0.347,0.035,0.52-0.258,0.778-0.173c0.414-0.413,0.781-0.841,0.69-1.509
		c-0.051-0.374-0.586-0.865-0.821-1.129c-0.107-0.117-0.159-0.276-0.258-0.389c-0.31-0.348-0.821-0.65-1.041-0.992
		c-0.256-0.119-0.41-0.334-0.689-0.436c-0.598-0.627-1.232-1.217-1.986-1.684c-0.12-0.285-0.482-0.324-0.605-0.604
		c-0.333-0.098-0.443-0.423-0.821-0.477c-0.104-0.33-0.469-0.424-0.69-0.604c-0.248-0.201-0.404-0.54-0.732-0.605
		c-0.357-0.509-0.947-0.783-1.299-1.294c-0.112-0.035-0.246-0.043-0.305-0.131c-0.092-0.049-0.096-0.19-0.127-0.301
		c-1.693-1.649-3.381-3.303-5.058-4.974c-0.085,0-0.171,0-0.259,0c-0.632-0.715-1.363-1.342-1.986-2.073
		c-0.105,0.008-0.208,0.008-0.259-0.042l-0.003,0.007c-0.028-0.101-0.066-0.215-0.151-0.289c-0.024-0.025-0.063-0.021-0.086,0
		c-0.011,0.016-0.019,0.029-0.019,0.044c0,0.017,0.008,0.037,0.022,0.049c0.052,0.047,0.082,0.131,0.114,0.235l-0.008-0.005
		c-0.064,0.102,0.016,0.188-0.043,0.217c-0.043-0.043-0.086-0.086-0.129-0.129L24.429,6.43c-0.002-0.086-0.057-0.121-0.096-0.144
		c-0.02-0.008-0.032-0.018-0.043-0.028c-0.023-0.021-0.056-0.021-0.076-0.004c-0.014,0.01-0.016,0.024-0.016,0.04
		c0,0.015,0.002,0.027,0.01,0.037c0.023,0.023,0.049,0.04,0.072,0.05c0.033,0.021,0.043,0.029,0.043,0.047l-0.01-0.004
		c-0.305-0.012-0.481-0.663-0.953-0.518v0.043l-0.021-0.046c-0.043-0.03-0.094-0.062-0.102-0.108
		c-0.003-0.014-0.016-0.024-0.031-0.022c-0.014,0.002-0.022,0.013-0.022,0.025c0,0,0,0.004,0,0.008
		c0.017,0.062,0.067,0.101,0.14,0.144c0.031,0.158,0.281,0.302,0.258,0.414c-0.048-0.026-0.091-0.064-0.133-0.112
		c-0.029-0.029-0.059-0.058-0.092-0.084c-0.01-0.01-0.028-0.005-0.033,0.005c-0.006,0.006-0.006,0.01-0.006,0.014
		c0,0.007,0.006,0.015,0.008,0.022c0.031,0.021,0.062,0.05,0.086,0.078c0.051,0.05,0.104,0.101,0.173,0.133l-0.003,0.004
		c0.648,0.792,1.295,1.487,1.986,2.206c0.277,0.291,0.71,0.665,0.907,0.949c0.042,0.059,0.034,0.154,0.085,0.215
		c0.182,0.213,0.49,0.343,0.562,0.649c0.248,0.033,0.269,0.248,0.389,0.389c0.064,0.075,0.158,0.11,0.217,0.172
		c0.191,0.204,0.387,0.379,0.475,0.608c0.229,0.125,0.467,0.287,0.386,0.603c-0.374-0.144-0.603-0.435-0.818-0.733
		c-0.088,0-0.173,0-0.259,0c0.025-0.17-0.109-0.18-0.131-0.3c-0.234,0.035-0.237,0.035-0.474,0
		C26.897,11.24,26.919,11.338,26.863,11.353z"/>
	<path d="M40.044,91.633c-0.133-0.158-0.24-0.35-0.439-0.44c-0.003-0.004-0.003-0.007-0.003-0.007
		c-0.89-0.918-1.815-1.814-2.706-2.686c-1.652-1.604-3.361-3.26-4.893-5.091c-0.053-0.036-0.098-0.083-0.146-0.125
		c-0.068-0.062-0.136-0.123-0.202-0.159c-0.087-0.094-0.179-0.191-0.271-0.287c-0.299-0.326-0.614-0.662-0.949-0.922
		c-0.038-0.029-0.086-0.021-0.109,0.015c-0.011,0.015-0.013,0.03-0.013,0.043c0,0.024,0.005,0.047,0.025,0.065
		c0.333,0.248,0.637,0.579,0.934,0.898c0.093,0.102,0.184,0.203,0.289,0.311c0.071,0.036,0.133,0.088,0.192,0.15
		c0.054,0.047,0.107,0.098,0.153,0.123c1.517,1.82,3.225,3.482,4.883,5.092c0.893,0.866,1.811,1.76,2.695,2.67l-0.004,0.003
		c0.148,0.138,0.193,0.386,0.391,0.476C39.956,91.751,39.954,91.646,40.044,91.633z"/>
	<path d="M35.202,97.813c0.072-0.316,0.027-0.392,0-0.565c0.246-0.027,0.163,0.27,0.389,0.26c-0.002-0.461,0.174-0.75,0.476-0.907
		c-0.177-0.229-0.069-0.687-0.043-0.907c0.146,0.133,0.259,0.446,0.517,0.475c0.102,0.014,0.289-0.013,0.391-0.129
		c-0.357-0.479-0.576-1.092-1.123-1.381c-0.063-0.069-0.13-0.137-0.194-0.205c-0.22-0.237-0.444-0.478-0.716-0.663
		c-0.033-0.126-0.141-0.173-0.212-0.256v0.005c-0.031-0.025-0.054-0.055-0.075-0.09c-0.018-0.029-0.037-0.058-0.059-0.082
		c-0.01-0.014-0.027-0.016-0.037-0.006c-0.006,0.006-0.011,0.016-0.011,0.022c0,0.004,0.005,0.011,0.008,0.019
		c0.022,0.021,0.038,0.047,0.051,0.072c0.021,0.039,0.048,0.075,0.083,0.104h-0.004c-0.212-0.075-0.504-0.45-0.689-0.69
		l-0.023,0.003c0.01-0.018,0.025-0.038,0.028-0.082c-0.005-0.021-0.019-0.041-0.028-0.058l-0.047-0.016l-0.002,0.047
		c0.006,0.016,0.016,0.03,0.022,0.03c0,0.006-0.007,0.014-0.009,0.021c-0.479-0.319-0.805-0.792-1.285-1.116
		c-0.023-0.14-0.133-0.201-0.227-0.276c-0.003-0.003,0-0.007-0.003-0.011c-0.099-0.089-0.194-0.18-0.296-0.269
		c-0.319-0.292-0.648-0.599-0.874-0.956c0.008,0,0.011,0,0.019,0l-0.021-0.041l0.021-0.043c-0.066-0.052-0.12-0.109-0.172-0.169
		c-0.01-0.02-0.023-0.04-0.033-0.055c-0.021-0.022-0.041-0.044-0.051-0.065c-0.008-0.014-0.021-0.021-0.037-0.019
		c-0.012,0.005-0.014,0.017-0.014,0.026c0,0.004,0,0.008,0,0.01c0.014,0.035,0.037,0.062,0.059,0.083
		c0.016,0.022,0.032,0.035,0.043,0.059h-0.011c-0.011,0-0.027,0-0.038,0c-0.186-0.138-0.348-0.317-0.498-0.497
		c-0.069-0.078-0.139-0.158-0.205-0.234l0.006-0.002h-0.012c-0.002,0-0.002-0.006-0.004-0.008c-0.012-0.008-0.023-0.012-0.033-0.015
		l0.005-0.021c-0.138-0.105-0.144-0.35-0.3-0.433c-0.003,0.187-0.086-0.016-0.158-0.04c-0.008-0.021-0.016-0.041-0.018-0.057
		c0.018,0.003,0.031,0.003,0.053,0.016c0.014,0.01,0.031,0,0.039-0.013c0.008-0.019,0.003-0.036-0.016-0.044
		c-0.037-0.016-0.066-0.021-0.096-0.029c-0.004-0.013-0.009-0.037-0.02-0.047c-0.002-0.002-0.013-0.014-0.016-0.018
		c-0.008-0.008-0.018-0.004-0.029-0.008c0-0.027-0.006-0.06-0.016-0.103c-0.011-0.011-0.023-0.022-0.034-0.032
		c-0.032-0.035-0.071-0.08-0.153-0.062c-0.01,0.007-0.021,0.017-0.028,0.026c-0.013-0.01-0.027-0.01-0.046-0.01
		c-1.714-1.726-3.261-3.288-4.756-4.871c-0.027-0.027-0.061-0.027-0.088-0.003c-0.011,0.011-0.019,0.024-0.019,0.043
		c0,0.015,0.008,0.028,0.019,0.039c1.498,1.587,3.041,3.148,4.757,4.872c0,0.002-0.003,0.002-0.003,0.008
		c0,0.008,0,0.021,0.003,0.028c0.034,0.095,0.117,0.165,0.22,0.217c0.006,0.017,0.006,0.035,0.023,0.05c0,0,0.002,0,0.008,0.002
		c0.005,0.019,0.013,0.034,0.016,0.055c0.01,0.044,0.048,0.062,0.087,0.068c0.15,0.184,0.299,0.371,0.485,0.515l0.003-0.005
		c0.066,0.07,0.13,0.146,0.194,0.221c0.172,0.195,0.342,0.396,0.558,0.547l-0.021,0.016c0.018,0.055,0.053,0.09,0.13,0.086
		l0.013-0.019c0.243,0.405,0.603,0.733,0.947,1.052c0.102,0.09,0.197,0.176,0.293,0.266c-0.017,0.163,0.221,0.328,0.043,0.385
		c-0.07-0.039-0.102-0.115-0.043-0.172c-0.288-0.094-0.715-0.483-0.909-0.692c-0.567-0.608-1.111-1.208-1.64-1.771
		c-0.064-0.084-0.184,0.076-0.215-0.084c0.051-0.01,0.1-0.015,0.084-0.088c-0.194-0.057-0.168-0.209-0.215,0
		c-0.107-0.123-0.262-0.201-0.476-0.215c-0.384-0.539-0.905-0.94-1.256-1.512c-0.071,0-0.144,0-0.216,0
		c-0.045-0.101-0.071-0.216-0.127-0.303c-0.451-0.145-0.515-0.67-0.952-0.82c0.071-0.086-0.003-0.058,0-0.174
		c-0.179-0.067-0.24-0.25-0.476-0.262c-0.301-0.433-0.719-0.751-0.992-1.209c-0.061-0.011-0.082-0.062-0.172-0.043
		c-0.994-1.084-1.997-2.151-3.199-3.026l-0.011,0.019c-0.038-0.054-0.086-0.104-0.13-0.133c-0.031-0.016-0.064-0.008-0.084,0.021
		c-0.006,0.008-0.011,0.022-0.011,0.028c0,0.021,0.011,0.043,0.03,0.051c0.021,0.015,0.047,0.041,0.072,0.068
		c-0.014,0.041-0.049,0.062-0.084,0.077c-0.146-0.237-0.45-0.313-0.732-0.304c-0.027-0.165-0.232-0.315-0.389-0.216
		c0.061,0.212,0.269,0.276,0.343,0.476c-0.048,0.008-0.12-0.008-0.128,0.044c0.51,0.384,0.977,0.812,1.424,1.251
		c-0.072,0.021,0.012,0.057,0,0.133c0.638,0.501,1.061,1.214,1.775,1.643c0.197,0.405,0.59,0.653,0.863,0.995
		c0.15,0.187,0.26,0.396,0.432,0.562c0.315,0.295,0.654,0.521,0.949,0.864c0.015,0.013-0.01,0.063,0,0.085
		c0.334,0.203,0.617,0.482,0.865,0.777c0.567,0.67,1.301,1.177,1.77,1.943c0.225,0.083,0.237,0.303,0.392,0.475
		c0.251,0.287,0.708,0.543,0.821,0.908c0.14,0.104,0.34,0.149,0.391,0.346c-0.059,0.004-0.062,0.057-0.131,0.041l-0.012,0.011
		c-0.216-0.206-0.42-0.427-0.627-0.647c-0.246-0.266-0.506-0.542-0.78-0.799c-0.024-0.023-0.067-0.023-0.093,0.005
		c-0.012,0.011-0.02,0.028-0.02,0.042c0,0.018,0.008,0.037,0.021,0.051c0.271,0.248,0.53,0.526,0.778,0.793
		c0.197,0.211,0.399,0.422,0.608,0.629l-0.008,0.004c0.069,0.108,0.154,0.194,0.262,0.258l0.01-0.013
		c0.034,0.063,0.088,0.108,0.133,0.132l-0.016,0.012c0.965,1.184,2.213,2.08,3.196,3.241c0.376,0.253,0.798,0.771,0.776,1.036
		c-0.256-0.078-0.371-0.303-0.605-0.406c-0.207-0.238-0.432-0.46-0.66-0.689c-0.169-0.174-0.342-0.35-0.516-0.53
		c-0.014-0.017-0.043-0.017-0.061-0.004c-0.012,0.008-0.014,0.022-0.014,0.032c0,0.012,0.002,0.022,0.01,0.029
		c0.174,0.184,0.345,0.36,0.518,0.532c0.227,0.228,0.451,0.454,0.658,0.685l-0.021,0.008c0.474,0.603,0.965,0.955,1.429,1.598
		C35.048,97.644,35.063,97.773,35.202,97.813z M29.487,88.422c0-0.004-0.006-0.004-0.006-0.008c0.006,0,0.012-0.006,0.016-0.01
		c0.027-0.004,0.045,0.014,0.078,0.047c0.016,0.014,0.028,0.028,0.031,0.021c0.005,0.023,0.005,0.039,0,0.059l-0.003,0.003
		C29.56,88.516,29.509,88.479,29.487,88.422z M30.244,92.062c-0.022-0.013-0.035-0.027-0.051-0.047
		c0.013-0.027,0.036-0.043,0.083-0.037c0,0.027,0,0.057,0,0.084C30.265,92.062,30.255,92.062,30.244,92.062z M35.765,94.701
		c-0.359-0.23-0.619-0.562-0.906-0.864v-0.003c0.268,0.18,0.494,0.425,0.712,0.658c0.063,0.068,0.128,0.141,0.197,0.209H35.765z"/>
	<path d="M33.299,92.193C33.248,91.932,33.091,92.085,33.299,92.193L33.299,92.193z"/>
	<path d="M27.77,22.285c0.565,0.484,1.184,0.914,1.688,1.467c0.31,0.095,0.405,0.346,0.606,0.52c0.303,0.266,0.681,0.436,0.99,0.689
		c0.145,0.119,0.248,0.307,0.391,0.433c0.1,0.09,0.279,0.09,0.3,0.26c0.228-0.181,0.092-0.595,0-0.821
		c-0.307-0.133-0.343-0.436-0.343-0.776c-0.539-0.269-0.955-0.663-1.385-1.036c0.192,0.057,0.387-0.217,0.563-0.045
		c-0.019-0.193,0.168-0.18,0.302-0.215c0.039-0.079-0.003-0.234,0.13-0.216c0.556,0.05,0.413,0.795,0.821,0.992
		c0.059-0.3,0.25-0.468,0.518-0.562c0-0.128,0-0.259,0-0.387c-0.154-0.152-0.451-0.159-0.39-0.52
		c0.091-0.144,0.259-0.205,0.304-0.392c-0.088-0.198-0.245-0.451-0.088-0.647c-0.248-0.428-0.65-0.702-0.775-1.253
		c-0.76-0.752-1.696-1.331-2.381-2.161c-0.157-0.016-0.238-0.105-0.387-0.131c-1.346-1.476-3.144-2.504-4.492-3.971
		c-0.123,0.035-0.112-0.063-0.217-0.045c0.022-0.213-0.17-0.201-0.215-0.346c-0.283-0.007-0.406-0.171-0.565-0.302
		c-0.003,0.049-0.011,0.101-0.087,0.086c-0.311-0.324-0.578-0.692-0.948-0.95l-0.017,0.014l-0.01-0.027
		c-0.014-0.037-0.029-0.073-0.033-0.109c-0.008-0.021-0.031-0.042-0.055-0.036c-0.027,0.004-0.04,0.025-0.04,0.051
		c0,0,0,0.002,0,0.006c0.005,0.041,0.021,0.078,0.035,0.123l0.011,0.022h-0.022c-0.019,0.146,0.248,0.236,0.131,0.344
		c-0.06,0-0.04-0.078-0.088-0.086c0.038,0.285,0.008,0.418,0.174,0.604c-0.155-0.043-0.251-0.19-0.259-0.258
		c-0.893,0.095-1.184-1.108-2.029-1.343c0.027,0.417,0.27,0.624,0.387,0.953c-0.045,0.246,0.062,0.342,0.088,0.52
		c0.102-0.016,0.166,0.007,0.216,0.042c0.094,0.295,0.31,0.469,0.345,0.823c-0.033,0.006-0.051,0.035-0.043,0.084
		c-0.054,0.059-0.188,0.043-0.302,0.043c-0.069,0.447-0.567,0.469-0.69,0.865c0.459,0.576,0.95,1.122,1.467,1.642
		c0.647,0.646,1.246,1.413,1.857,2.028C24.653,19.693,26.271,20.982,27.77,22.285z M20.771,14.289c0.118,0.004,0.087-0.071,0.172,0
		C20.976,14.454,20.737,14.454,20.771,14.289z"/>
	<path d="M32.22,91.156c-0.033-0.087-0.166-0.291-0.217-0.216C32.12,90.973,32.095,91.141,32.22,91.156z"/>
	<path d="M31.702,90.682c0.09,0,0.162,0.238,0.216,0.129C31.808,90.829,31.792,90.542,31.702,90.682z"/>
	<path d="M21.203,20.985c0.035,0.252,0.24,0.334,0.386,0.476c0.192,0.428,0.709,0.529,0.865,0.995
		c0.242,0.091,0.688,0.202,0.562,0.519c-0.008-0.035-0.033-0.05-0.08-0.042c-0.158-0.151-0.328-0.292-0.496-0.433
		c-0.258-0.223-0.525-0.445-0.76-0.697c-0.012-0.016-0.035-0.016-0.051,0c-0.002,0.008-0.008,0.014-0.008,0.024
		c0,0.012,0,0.02,0.008,0.024c0.235,0.254,0.504,0.479,0.768,0.7c0.172,0.149,0.35,0.295,0.51,0.444c0,0.004,0,0,0.005,0
		c0.035,0.066,0.104,0.096,0.188,0.109c0,0.07,0.012,0.133,0.044,0.172c0.943,0.67,1.724,1.502,2.681,2.159
		c0.131,0.245,0.44,0.311,0.519,0.604c0.139-0.035,0.134,0.068,0.216,0.088l0.01-0.016c0.041,0.067,0.1,0.114,0.153,0.158
		c0.052,0.039,0.101,0.075,0.13,0.126c0.016,0.034,0.057,0.039,0.086,0.021c0.032-0.017,0.04-0.053,0.02-0.084
		c-0.039-0.07-0.1-0.119-0.156-0.164c-0.045-0.031-0.082-0.063-0.111-0.107c0-0.021,0-0.043,0-0.064
		c0.484,0.176,0.792,0.532,1.037,0.95c0.586,0.178,0.754,0.774,1.341,0.95c0.101,0.259,0.346,0.373,0.433,0.647
		c0.378,0.097,0.465,0.483,0.731,0.69c0.284-0.088,0.103-0.388,0.174-0.648c-0.146-0.053-0.235-0.168-0.302-0.302
		c0.136-0.05,0.176-0.194,0.345-0.216c0.005-0.13-0.155-0.102-0.128-0.26c0.039-0.071,0.156-0.071,0.128-0.215
		c-0.083-0.321-0.28-0.525-0.433-0.777c-0.154-0.854-1.012-1-1.383-1.641c-0.195-0.079-0.502-0.277-0.432-0.475
		c0.762,0.561,1.357,1.295,2.161,1.812c0.073,0.232,0.237,0.368,0.433,0.477l0.014-0.015c0.08,0.209,0.227,0.418,0.407,0.572
		c0.003,0.004,0.005,0.004,0.011,0.004c0.024,0.133,0.097,0.223,0.258,0.215c0.092-0.158-0.074-0.209-0.084-0.389
		c-0.098-0.021-0.1,0.045-0.139,0.073c-0.155-0.136-0.281-0.321-0.353-0.504h0.013c0.012-0.032,0-0.086,0.046-0.086
		c0,0.023,0.035,0.05,0.043,0c-0.051,0.007-0.069-0.062-0.089,0c-0.084-0.131-0.197-0.237-0.343-0.304
		c-0.08-0.223-0.163-0.438-0.348-0.561c-0.005,0.049-0.013,0.101-0.085,0.086c0.197-0.101-0.063-0.287,0-0.345
		c0.035,0.035,0.069,0.071,0.102,0.111c0.062,0.071,0.126,0.147,0.208,0.194c0.013,0.01,0.031,0.002,0.04-0.011
		C30.505,26.02,30.5,26,30.485,25.995c-0.076-0.047-0.13-0.112-0.191-0.185c-0.031-0.039-0.066-0.079-0.105-0.115h0.002
		c-0.008-0.006-0.014-0.014-0.021-0.021h-0.003c-3.093-3.029-6.745-5.498-9.699-8.664l-0.013,0.014
		c-0.059-0.064-0.12-0.129-0.184-0.193c-0.072-0.072-0.146-0.143-0.208-0.223c-0.021-0.027-0.06-0.029-0.083-0.008
		c-0.017,0.008-0.021,0.028-0.021,0.043c0,0.014,0.002,0.024,0.01,0.035c0.064,0.087,0.146,0.162,0.22,0.237
		c0.063,0.062,0.126,0.122,0.185,0.19c0,0.006,0.002,0.006,0.002,0.006c0.23,0.389,0.584,0.649,0.829,1.02
		c-0.046,0-0.051-0.031-0.087-0.043l-0.008,0.023c-0.299-0.361-0.602-0.677-0.897-0.936c-0.013-0.016-0.036-0.016-0.054,0.003
		c-0.008,0.011-0.01,0.019-0.01,0.024c0,0.015,0.002,0.022,0.013,0.03c0.296,0.259,0.603,0.579,0.905,0.95c0,0,0-0.005,0.004,0
		c0.464,0.624,1.072,1.113,1.559,1.723c-0.209,0.186-0.43-0.234-0.734-0.086c-0.58-0.73-1.461-1.158-1.986-1.947
		c-0.298,0.209-0.464-0.108-0.689-0.215l-0.007,0.006c-0.074-0.086-0.161-0.164-0.244-0.245c-0.106-0.1-0.22-0.208-0.31-0.323
		c-0.012-0.014-0.032-0.014-0.045-0.004c-0.011,0.008-0.016,0.02-0.016,0.027c0,0.004,0.005,0.013,0.008,0.021
		c0.092,0.117,0.205,0.222,0.316,0.33c0.09,0.082,0.18,0.17,0.262,0.263l-0.011,0.01c0.048,0.108,0.245,0.209,0.131,0.346
		c-0.278-0.06-0.453-0.33-0.778-0.215c-0.363-0.219-0.604-0.719-0.994-0.777c0.059,0.244,0.221,0.382,0.386,0.52
		c0.166,0.221,0.317,0.467,0.608,0.561c0.082,0.402,0.52,0.459,0.734,0.734c0.012,0.148,0.161,0.158,0.129,0.344
		C20.083,19.744,20.393,20.614,21.203,20.985z"/>
	<path d="M30.969,18.78c0.043-0.004,0.085,0.187,0.128,0.043C31.036,18.848,30.992,18.658,30.969,18.78z"/>
	<path d="M28.071,34.21c0.227,0.007,0.227-0.21,0.301-0.346c0.377,0.075,0.377,0.438,0.869,0.476
		c-0.004-0.289-0.234-0.545-0.48-0.865c-0.247-0.33-0.531-0.689-0.775-0.949c0.006-0.137-0.051-0.209-0.088-0.307
		c-0.561-0.041-0.768-0.436-1.034-0.775c-1.404-1.143-2.538-2.314-4.063-3.286c-0.133-0.253-0.33-0.444-0.647-0.517
		c-0.515-0.551-1.144-0.987-1.643-1.557c-0.12,0.037-0.109-0.061-0.216-0.043c-1.091-1.086-2.133-2.217-3.242-3.281
		c-0.098,0.01-0.164-0.008-0.215-0.044c-0.217-0.405-0.613-0.626-0.864-0.997c-0.658-0.376-1.075-0.997-1.64-1.467l-0.008,0.018
		c-0.097-0.072-0.176-0.166-0.251-0.256c-0.063-0.076-0.13-0.154-0.202-0.215c-0.025-0.02-0.057-0.02-0.078,0.002
		c-0.011,0.015-0.016,0.025-0.016,0.041c0,0.014,0.008,0.031,0.021,0.039c0.07,0.062,0.126,0.133,0.188,0.206
		c0.079,0.095,0.164,0.196,0.273,0.275l-0.013,0.02c0.122,0.251,0.392,0.355,0.433,0.689c-0.433-0.306-0.739-0.731-1.126-1.079
		c-0.117,0.024-0.345-0.055-0.386,0.044c0.182,0.062-0.031,0.255,0.084,0.388c0.059,0.127,0.197,0.178,0.259,0.303
		c0.038,0.05,0.054,0.115,0.043,0.215c0.696,0.645,1.157,1.523,1.988,2.033c0.197,0.332,0.587,0.479,0.733,0.864
		c0.36,0.201,0.576,0.547,0.906,0.778c0.34,0.639,0.977,0.985,1.387,1.553c0.086,0.045,0.168,0.086,0.258,0.129
		c0.521,0.646,1.123,1.211,1.813,1.686c0.45,0.525,1.066,0.885,1.597,1.338c0.078,0.066,0.111,0.166,0.174,0.216
		c0.319,0.278,0.834,0.414,0.997,0.782c0.999,0.636,1.669,1.606,2.719,2.205c-0.066,0.382,0.358,0.273,0.348,0.605l0.013-0.008
		c0.008,0.035,0.011,0.07,0.011,0.107c0.008,0.098,0.021,0.203,0.112,0.281l-0.008,0.007c0.223,0.728,0.911,0.993,1.684,1.165
		C28.327,34.582,28.104,34.379,28.071,34.21z M26.607,33.223c0-0.035-0.008-0.064-0.011-0.1l0.006,0.008
		c0.088,0.014,0.304,0.262,0.088,0.303v0.002C26.628,33.389,26.612,33.324,26.607,33.223z"/>
	<path d="M26.991,85.756C26.772,85.449,27.056,85.846,26.991,85.756L26.991,85.756z"/>
	<path d="M23.231,85.626C23.454,85.809,23.397,85.492,23.231,85.626L23.231,85.626z"/>
	<path d="M22.886,85.236C22.95,85.327,22.667,84.926,22.886,85.236L22.886,85.236z"/>
	<path d="M22.886,5.688c-0.107-0.003-0.061-0.165-0.174-0.172C22.707,5.617,22.86,5.77,22.886,5.688z"/>
	<path d="M22.369,23.58c0.055-0.008,0.133,0.172,0.172,0.042C22.482,23.63,22.382,23.476,22.369,23.58z"/>
	<path d="M22.237,84.59C22.305,84.723,22.089,84.276,22.237,84.59L22.237,84.59z"/>
	<path d="M21.806,11.826c-0.043,0.005-0.086-0.185-0.127-0.042C21.739,11.759,21.781,11.949,21.806,11.826z"/>
	<path d="M20.987,81.261c0,0.005,0.2,0.108,0.129,0C21.062,81.182,20.963,81.222,20.987,81.261z"/>
	<path d="M59.96,70.503c-0.661-0.837-1.541-1.456-2.287-2.202c-1.563-1.562-2.949-3.303-4.627-4.754
		c-0.75-0.822-1.535-1.652-2.287-2.422c-0.264-0.268-0.479-0.592-0.824-0.777c-0.031-0.195-0.232-0.227-0.304-0.389
		c-0.642-0.303-0.983-0.914-1.597-1.253c-0.117,0.036-0.21,0.104-0.344,0.13c-0.35-0.18-0.748-0.315-1.037-0.561
		c0.035,0.194-0.074,0.24-0.215,0.258c-0.555-0.222-0.852-0.705-1.297-1.036l-0.008,0.021c-0.189-0.229-0.432-0.412-0.67-0.587
		l-0.061,0.005l0.017,0.058c0.229,0.174,0.464,0.354,0.647,0.577c0.42,1.09,1.501,1.525,2.018,2.52
		c-0.504-0.112-0.521,0.258-0.863,0.301c-0.422-0.366-0.896-0.688-1.295-1.079c0.052,0.332-0.275,0.276-0.351,0.476
		c0.253,0.186,0.43,0.561,0.739,0.561c-0.041,0.138,0.096,0.295,0.172,0.39c0.488,0.636,1.201,1.089,1.729,1.644
		c0.213,0.226,0.419,0.492,0.69,0.647c0.189,0.37,0.499,0.622,0.819,0.864c0.031,0.28,0.304,0.346,0.432,0.474
		c0.025,0.026,0.028,0.112,0.088,0.177c0.312,0.324,0.516,0.516,0.818,0.82c0.234,0.228,0.416,0.496,0.695,0.604
		c0.117,0.239,0.256,0.461,0.562,0.519c0.046,0.309,0.368,0.396,0.561,0.605c0.135,0.144,0.205,0.365,0.346,0.518
		c0.237,0.252,0.592,0.43,0.69,0.82c0.138,0.035,0.22,0.125,0.302,0.216c0.314,0.68,0.966,1.021,1.469,1.512
		c0,0.073,0,0.144,0,0.216c0.67,0.486,1.083,1.223,1.815,1.641c0.206,0.385,0.57,0.61,0.864,0.91
		c0.529,0.535,1.051,1.087,1.555,1.599c0.205,0.208,0.396,0.472,0.693,0.562c0.135,0.426,0.529,0.592,0.69,0.997
		c0.148,0.035,0.269,0.099,0.392,0.171c0.218-0.144,0.36-0.359,0.647-0.432c0.097,0.044,0.117,0.166,0.217,0.217
		c0.156-0.527,0.343-0.986,0.085-1.515c0.43,0.362,0.711,0.869,1.079,1.298c0.187,0.028,0.24-0.074,0.433-0.042
		c-0.069-0.454-0.456-0.584-0.605-0.953c0.225-0.052,0.264-0.286,0.475-0.347c0.107,0.039,0.189,0.102,0.346,0.086
		c0.025-0.118,0.107-0.181,0.131-0.301C62.519,72.812,61.164,71.734,59.96,70.503z"/>
	<path d="M38.103,87.012c-0.008-0.016-0.008-0.028-0.018-0.037c-1.312-1.205-2.558-2.525-3.76-3.807
		c-0.834-0.892-1.703-1.813-2.581-2.684c-0.034-0.035-0.093-0.035-0.128,0c-0.018,0.021-0.025,0.043-0.025,0.063
		c0,0.023,0.008,0.047,0.025,0.065c0.877,0.871,1.742,1.789,2.578,2.676c1.203,1.282,2.447,2.609,3.768,3.817
		c0.006,0.005,0.008,0.003,0.01,0.005c0.062,0.188,0.256,0.289,0.385,0.418c0.43,0.426,0.812,0.864,1.207,1.295
		c0.271,0.289,0.539,0.592,0.825,0.864c0.279,0.274,0.567,0.571,0.905,0.778c0.032-0.008,0.052-0.037,0.044-0.088
		c-0.115-0.359-0.468-0.68-0.776-0.993C39.722,88.547,38.897,87.724,38.103,87.012z"/>
	<path d="M68.366,73.593c0,0.022,0.013,0.039,0.033,0.044c0.035,0.003,0.047,0.021,0.059,0.062c0.02,0.041,0.044,0.106,0.121,0.109
		c0.023,0.004,0.045-0.014,0.045-0.038c0-0.021-0.014-0.044-0.04-0.048c-0.016-0.004-0.023-0.01-0.043-0.055
		c-0.019-0.041-0.042-0.106-0.128-0.118c-0.023-0.004-0.045,0.012-0.047,0.04C68.366,73.59,68.366,73.59,68.366,73.593z"/>
	<path d="M57.197,75.475C56.969,75.248,56.76,75,56.55,74.781c-0.914-0.948-1.829-1.746-2.725-2.638
		c-0.445-0.442-0.864-0.955-1.427-1.253c0.03-0.227-0.232-0.266-0.343-0.388c-0.366-0.382-0.617-0.821-1.011-1.138
		c0-0.004,0-0.008,0-0.008c-0.585-0.611-1.192-1.211-1.779-1.791c-0.876-0.871-1.786-1.767-2.62-2.711
		c-0.03-0.032-0.077-0.035-0.112-0.006c-0.013,0.018-0.023,0.039-0.023,0.061c0,0.015,0.008,0.035,0.021,0.051
		c0.834,0.947,1.747,1.842,2.624,2.713c0.589,0.582,1.194,1.18,1.778,1.791c0.703,1.065,1.727,1.814,2.504,2.809
		c0.314,0.107,0.418,0.37,0.604,0.564c0.103,0.105,0.246,0.154,0.346,0.259c0.621,0.616,1.177,1.249,1.775,1.856
		c0.793,0.816,1.639,1.588,2.417,2.422l0.013-0.022c0.018,0.02,0.03,0.036,0.041,0.047c0.013,0.019,0.027,0.028,0.037,0.044
		c0.021,0.026,0.057,0.031,0.083,0.011c0.023-0.019,0.026-0.055,0.011-0.079c-0.016-0.015-0.029-0.035-0.047-0.05
		c-0.012-0.015-0.025-0.032-0.041-0.052c-0.166-0.308-0.445-0.575-0.616-0.807c-0.071-0.099-0.094-0.242-0.171-0.344
		C57.716,75.893,57.419,75.69,57.197,75.475z"/>
	<path d="M46.563,87.839l-0.185-0.187c-0.251-0.256-0.507-0.525-0.798-0.75c-0.021-0.013-0.056-0.013-0.071,0.008
		c-0.005,0.016-0.008,0.021-0.008,0.037c0,0.014,0.003,0.027,0.019,0.036c0.281,0.222,0.527,0.474,0.785,0.74l0.185,0.187
		l-0.011,0.008c0.15,0.184,0.275,0.389,0.432,0.562c0.208-0.272-0.117-0.548-0.343-0.647L46.563,87.839z"/>
	<path d="M38.194,86.607c-0.027-0.021-0.069-0.021-0.094,0.006c-0.011,0.01-0.019,0.027-0.019,0.045
		c0,0.015,0.008,0.033,0.021,0.043c0.465,0.451,0.924,0.93,1.365,1.397c0.611,0.64,1.246,1.303,1.914,1.899
		c0.025,0.021,0.066,0.021,0.089-0.007c0.026-0.028,0.021-0.069-0.003-0.094c-0.666-0.595-1.296-1.253-1.904-1.894
		C39.118,87.537,38.657,87.06,38.194,86.607z"/>
	<path d="M35.736,84.316c0.013,0.014,0.039,0.014,0.059-0.004c0.013-0.016,0.013-0.036-0.005-0.055
		c-0.064-0.064-0.112-0.094-0.158-0.121l-0.041,0.021l-0.002,0.047C35.634,84.234,35.678,84.256,35.736,84.316z"/>
	<path d="M34.077,92.963c0.033,0.055,0.097,0.148,0.187,0.184c0.012,0.006,0.03,0,0.032-0.011c0.008-0.015,0-0.032-0.01-0.035
		c-0.074-0.032-0.133-0.117-0.164-0.163c-0.004-0.014-0.023-0.018-0.033-0.012c-0.012,0.01-0.018,0.016-0.018,0.026
		C34.071,92.956,34.071,92.96,34.077,92.963z"/>
	<path d="M32.867,20.23c0,0.031,0.027,0.061,0.059,0.068c0.035,0,0.071-0.021,0.074-0.062c0-0.011,0.005-0.024,0.008-0.04
		c0.177-0.15-0.062-0.488-0.269-0.507c-0.077,0.125,0.115,0.299,0.128,0.476l0.011-0.004c-0.003,0.02-0.011,0.043-0.011,0.061
		C32.867,20.227,32.867,20.227,32.867,20.23z"/>
	<path d="M32.741,91.557c-0.008-0.015-0.021-0.02-0.033-0.011c-0.015,0.003-0.018,0.015-0.018,0.021c0,0.004,0,0.007,0.003,0.015
		c0.035,0.063,0.086,0.111,0.134,0.158c0.051,0.043,0.099,0.086,0.129,0.144c0.002,0.012,0.021,0.02,0.033,0.012
		C33,91.887,33.008,91.873,33,91.857c-0.031-0.064-0.082-0.11-0.136-0.157C32.815,91.654,32.771,91.609,32.741,91.557z"/>
	<path d="M31.724,94.168c-0.041-0.057-0.093-0.125-0.195-0.125c-0.029,0.003-0.051,0.025-0.051,0.054c0,0.027,0.027,0.05,0.051,0.05
		c0.049,0,0.072,0.029,0.134,0.112c0.016,0.021,0.04,0.011,0.062-0.004C31.744,94.236,31.741,94.189,31.724,94.168z"/>
	<path d="M31.201,80.072c-0.011,0.012-0.017,0.031-0.017,0.045c0,0.019,0.006,0.035,0.017,0.047l0.131,0.129
		c0.023,0.025,0.069,0.025,0.093,0c0.024-0.024,0.024-0.068,0-0.09l-0.131-0.131C31.271,80.044,31.228,80.044,31.201,80.072z"/>
	<path d="M30.132,81.816c0.019,0.016,0.049,0.016,0.069,0c0.019-0.02,0.019-0.049,0-0.064l-0.261-0.29
		c-0.453-0.488-0.924-0.999-1.427-1.425c-0.021-0.014-0.052-0.014-0.067,0.007c-0.008,0.008-0.013,0.019-0.013,0.028
		c0,0.016,0.008,0.031,0.019,0.037c0.496,0.422,0.965,0.928,1.419,1.419L30.132,81.816z"/>
	<path d="M28.153,89.885c-0.039-0.041-0.082-0.074-0.101-0.129c-0.011-0.024-0.038-0.035-0.063-0.024
		c-0.02,0.008-0.031,0.024-0.031,0.043c0,0.008,0.006,0.015,0.006,0.019c0.027,0.072,0.084,0.119,0.128,0.159
		c0.02,0.016,0.038,0.031,0.054,0.05c0.02,0.018,0.048,0.018,0.066,0.002c0.021-0.017,0.021-0.049,0.002-0.067
		C28.196,89.92,28.175,89.897,28.153,89.885z"/>
	<path d="M24.685,12.799c-0.023-0.027-0.064-0.027-0.09-0.006c-0.014,0.014-0.021,0.029-0.021,0.049
		c0,0.015,0.006,0.029,0.016,0.044c0.366,0.403,0.824,0.719,1.152,0.928c-0.006,0.263,0.347,0.403,0.61,0.503l-0.003,0.008
		c0.254,0.094,0.518,0.19,0.641,0.432c0.021,0.036,0.063,0.052,0.104,0.028c0.037-0.014,0.05-0.061,0.031-0.1
		c-0.143-0.282-0.434-0.396-0.701-0.49c-0.141-0.201-0.258-0.424-0.555-0.469l-0.013,0.016c0,0,0-0.004-0.005-0.008
		C25.53,13.533,25.056,13.21,24.685,12.799z M26.37,14.264l-0.006-0.011l0.011-0.008L26.37,14.264z"/>
	<path d="M26.482,29.438c-0.046-0.049-0.089-0.101-0.144-0.136c-0.018-0.009-0.035-0.009-0.041,0.007
		c-0.005,0.008-0.005,0.01-0.005,0.014c0,0.015,0.005,0.022,0.016,0.027c0.046,0.031,0.085,0.078,0.128,0.129
		c0.051,0.057,0.102,0.117,0.174,0.153c0.018,0.007,0.036,0,0.043-0.015c0.005-0.014,0-0.027-0.015-0.035
		C26.577,29.55,26.53,29.495,26.482,29.438z"/>
	<path d="M24.344,86.032c-0.038-0.011-0.079-0.036-0.12-0.062l-0.002-0.003c-0.014-0.008-0.033,0-0.041,0.013
		c-0.002,0-0.002,0.008-0.002,0.014c0,0.01,0.005,0.021,0.013,0.027c0.051,0.03,0.094,0.055,0.137,0.068
		c0.016,0,0.034-0.007,0.036-0.023C24.368,86.052,24.356,86.032,24.344,86.032z"/>
	<path d="M63.377,72.758c0.187,0.119,0.319,0.284,0.376,0.458c0.002,0.019,0.024,0.03,0.043,0.021
		c0.018-0.006,0.029-0.021,0.021-0.043c-0.053-0.188-0.203-0.368-0.402-0.496c-0.016-0.008-0.038-0.002-0.049,0.015
		c-0.002,0.004-0.005,0.011-0.005,0.019C63.361,72.742,63.366,72.752,63.377,72.758z"/>
	<path d="M59.173,32.562c0.251,0.202,0.502,0.399,0.758,0.597c0.426,0.332,0.869,0.67,1.271,1.021
		c0.021,0.021,0.053,0.016,0.072-0.004c0.018-0.021,0.018-0.053-0.006-0.071c-0.406-0.353-0.849-0.694-1.277-1.024
		c-0.25-0.203-0.506-0.396-0.754-0.598c-0.021-0.016-0.054-0.016-0.072,0.006c-0.009,0.011-0.012,0.023-0.012,0.037
		S59.159,32.554,59.173,32.562z"/>
	<path d="M44.339,81.449c0.102,0.092,0.194,0.18,0.242,0.305c0.006,0.021,0.035,0.033,0.057,0.026
		c0.021-0.008,0.033-0.036,0.026-0.059c-0.056-0.146-0.162-0.241-0.267-0.339c-0.072-0.064-0.141-0.13-0.191-0.208
		c-0.014-0.021-0.043-0.028-0.062-0.015c-0.013,0.008-0.021,0.021-0.021,0.035c0,0.008,0.002,0.02,0.008,0.026
		C44.188,81.312,44.265,81.383,44.339,81.449z"/>
	<path d="M37.448,81.045c0.346,0.479,0.727,0.916,1.209,1.252c0.072,0.22,0.217,0.361,0.39,0.476h0.003
		c0.024,0.028,0.059,0.062,0.091,0.083l-0.008,0.003c0.253,0.41,0.655,0.685,0.996,1.039c0.271,0.286,0.445,0.657,0.733,0.909
		c0.072,0.063,0.188,0.074,0.259,0.129c0.286,0.221,0.437,0.537,0.647,0.78c0.206,0.233,0.525,0.374,0.736,0.604
		c0.018,0.015,0.032,0.112,0.084,0.172c0.113,0.115,0.148,0.16,0.174,0.304c0.256,0.094,0.401,0.403,0.561,0.562
		c0.038,0.028,0.014,0.094,0.046,0.13c0.156,0.165,0.447,0.201,0.474,0.474c0.475,0.273,0.698,0.798,1.168,1.08
		c0.019,0.252,0.038,0.432,0.262,0.561c0.184,0.016,0.21-0.129,0.432-0.086c0.021-0.172,0.021-0.13,0-0.301
		c0.251,0.105,0.387-0.396,0.387-0.433c-0.014-0.256-0.407-0.399-0.387-0.647c-0.141-0.029-0.133,0.078-0.217,0
		c-0.801-0.844-1.637-1.652-2.422-2.509c-0.438-0.264-0.793-0.614-1.08-1.036c-0.525-0.181-0.778-0.629-1.251-0.864
		c-0.011-0.204-0.212-0.222-0.304-0.345c-0.691-0.824-1.432-1.594-2.205-2.336c-0.402-0.646-1.108-0.993-1.512-1.641
		c-0.604-0.518-1.194-1.144-1.727-1.684c-0.185-0.188-0.322-0.414-0.518-0.476c0.003-0.108-0.07-0.136-0.088-0.216
		c-0.397-0.24-0.592-0.685-1.021-0.9l-0.197-0.201c-0.273-0.283-0.544-0.561-0.811-0.844c-0.014-0.016-0.031-0.016-0.045-0.006
		c-0.008,0.008-0.012,0.019-0.012,0.026c0,0.011,0.004,0.019,0.006,0.024c0.266,0.281,0.537,0.562,0.811,0.842l0.215,0.228
		l-0.028,0.011c0.008,0.119,0.237,0.108,0.088,0.258c0.846,0.685,1.403,1.653,2.291,2.29c-0.011,0.079,0.048,0.093,0.044,0.173
		c0.621,0.461,1.012,1.15,1.683,1.555c0.044,0.237,0.348,0.352,0.217,0.518c-0.043,0-0.051-0.036-0.086-0.044v0.008
		c-1.264-1.194-2.469-2.453-3.64-3.673c-0.361-0.385-0.729-0.768-1.096-1.145c-0.021-0.021-0.056-0.025-0.076-0.005
		c-0.011,0.016-0.016,0.03-0.016,0.044c0,0.011,0.002,0.026,0.013,0.037c0.368,0.381,0.732,0.762,1.098,1.144
		c1.169,1.216,2.374,2.476,3.638,3.677H37.448z M39.351,82.729c-0.025,0.122-0.082-0.007-0.154,0
		c-0.024-0.022-0.051-0.048-0.061-0.063c-0.003-0.008-0.006-0.008-0.012-0.008l0.009-0.017c0-0.027,0-0.058,0-0.085
		C39.276,82.549,39.226,82.726,39.351,82.729z"/>
	<path d="M33.473,80.183c0,0.323,0.237,0.416,0.479,0.733c0.127,0.176,0.229,0.432,0.344,0.562c0.152,0.181,0.43,0.252,0.433,0.476
		c0.445,0.315,0.78,0.749,1.165,1.125c0.133,0.119,0.266-0.018,0.347,0.131c0.105,0.103-0.091,0.09-0.043,0.258
		c0.271,0.23,0.52,0.486,0.69,0.82c0.395,0.094,0.488,0.493,0.82,0.648c0.083,0.104,0.146,0.226,0.172,0.388
		c0.387,0.239,0.57,0.673,0.994,0.868c-0.004,0.104,0.069,0.129,0.086,0.215c0.401,0.303,0.799,0.613,1.039,1.081
		c0.287,0.11,0.381,0.421,0.689,0.517c0.078,0.343,0.412,0.426,0.521,0.734c0.632,0.201,0.848,1.051,1.64,0.95
		c0.071-0.188-0.169-0.272-0.302-0.431c-0.187-0.228-0.302-0.557-0.605-0.605c-0.188-0.316-0.438-0.568-0.775-0.734
		c-0.217-0.344-0.433-0.691-0.821-0.863c0.003-0.08-0.011-0.137-0.043-0.173c-0.304-0.19-0.438-0.547-0.78-0.69
		c-0.387-0.597-1.041-0.922-1.428-1.516c-0.168,0.097-0.258-0.101-0.258-0.172c-0.225-0.138-0.527-0.566-0.864-0.734
		c-0.405-0.629-1-1.076-1.423-1.689c-0.092-0.035-0.195-0.062-0.259-0.127c-0.473-0.724-1.102-1.293-1.708-1.881
		c-0.008-0.002,0-0.005-0.008-0.005c-0.225-0.165-0.409-0.35-0.543-0.548c-0.002,0-0.005,0-0.01-0.007
		c-0.24-0.216-0.376-0.547-0.715-0.669c0,0.459,0.304,0.614,0.603,0.777h0.005c0.144,0.201,0.33,0.387,0.561,0.562H33.473z"/>
	<path d="M36.165,84.788c0.035,0.028,0.067,0.06,0.099,0.093c0.019,0.024,0.051,0.029,0.071,0.008
		c0.027-0.019,0.027-0.051,0.008-0.072c-0.031-0.044-0.071-0.075-0.11-0.107c-0.056-0.052-0.112-0.099-0.14-0.164
		c-0.011-0.023-0.039-0.037-0.069-0.023c-0.021,0.008-0.031,0.029-0.031,0.047c0,0.007,0,0.014,0.003,0.021
		C36.031,84.676,36.098,84.732,36.165,84.788z"/>
	<path d="M32.501,91.393l-0.087-0.084c0.005,0.01,0.011,0.021,0.016,0.032C32.465,91.344,32.485,91.369,32.501,91.393z"/>
	<path d="M31.36,19.045c-0.01-0.013-0.028-0.017-0.041-0.006c-0.01,0.004-0.018,0.014-0.018,0.021s0.002,0.014,0.008,0.021
		c0.07,0.094,0.155,0.178,0.24,0.256c0.1,0.09,0.191,0.175,0.256,0.283c0.008,0.014,0.03,0.02,0.043,0.009
		c0.016-0.009,0.019-0.03,0.011-0.044c-0.067-0.115-0.167-0.207-0.267-0.295C31.511,19.215,31.425,19.137,31.36,19.045z"/>
	<path d="M30.792,93.359c-0.076-0.062-0.119-0.145-0.166-0.234c-0.025-0.051-0.054-0.105-0.086-0.146
		c-0.012-0.016-0.029-0.019-0.043-0.011c-0.012,0.005-0.017,0.016-0.017,0.028c0,0.003,0,0.011,0.008,0.018
		c0.03,0.043,0.054,0.092,0.084,0.139c0.047,0.092,0.093,0.185,0.181,0.256c0.014,0.012,0.035,0.008,0.045-0.006
		C30.81,93.388,30.806,93.369,30.792,93.359z"/>
	<path d="M30.146,17.967c-0.014-0.01-0.026-0.016-0.038,0C30.1,17.97,30.1,17.974,30.1,17.98c0,0.008,0,0.016,0.008,0.023
		c0.043,0.041,0.094,0.088,0.142,0.135c0.086,0.08,0.176,0.158,0.242,0.248c0.014,0.012,0.027,0.012,0.037,0.004
		c0.014-0.006,0.014-0.023,0.004-0.036c-0.072-0.09-0.16-0.171-0.248-0.252C30.232,18.053,30.188,18.009,30.146,17.967z"/>
	<path d="M29.181,28.438c0.057,0.115,0.113,0.238,0.238,0.289c0.02,0.006,0.038,0,0.043-0.016c0.008-0.014-0.002-0.035-0.016-0.042
		c-0.104-0.044-0.154-0.149-0.213-0.261c-0.043-0.09-0.091-0.186-0.168-0.251c-0.01-0.013-0.032-0.011-0.045,0
		c-0.006,0.008-0.006,0.015-0.006,0.021c0,0.012,0.002,0.023,0.011,0.026C29.092,28.264,29.138,28.352,29.181,28.438z"/>
	<path d="M28.679,91.109c-0.045-0.053-0.094-0.102-0.117-0.16c-0.01-0.02-0.032-0.025-0.051-0.02
		c-0.01,0.007-0.018,0.02-0.018,0.033c0,0.008,0,0.01,0.002,0.013c0.029,0.073,0.082,0.128,0.133,0.181
		c0.051,0.055,0.098,0.104,0.123,0.165c0.01,0.02,0.029,0.024,0.049,0.02c0.016-0.008,0.028-0.026,0.021-0.047
		C28.788,91.221,28.733,91.164,28.679,91.109z"/>
	<path d="M26.981,29.232c-0.008,0.012-0.011,0.019-0.011,0.025c0,0.014,0.008,0.029,0.019,0.035
		c0.389,0.308,0.744,0.684,1.103,1.062l-0.021,0.008c0.008,0.256,0.219,0.312,0.301,0.647c-0.013,0-0.027,0-0.043,0l0.006,0.021
		l-0.057-0.052c-0.016-0.023-0.049-0.023-0.066,0c-0.008,0.005-0.016,0.021-0.016,0.031s0.008,0.026,0.016,0.031l0.054,0.058
		l-0.021-0.003c0,0.058,0.021,0.091,0.041,0.126v0.051c-0.01,0.043-0.045,0.021-0.084-0.004c0.035,0.284,0.236,0.398,0.516,0.432
		c-0.061-0.18-0.164-0.32-0.297-0.428v-0.068c0-0.008-0.01-0.01-0.01-0.018l0.007-0.004c0.194,0.06,0.136,0.204,0.343,0.172
		c0.062-0.154,0.041-0.251,0-0.432c-0.096,0.016-0.165-0.008-0.215-0.043c0.008-0.307-0.24-0.363-0.344-0.561l-0.032,0.01
		c0-0.014-0.009-0.024-0.017-0.035c-0.349-0.371-0.711-0.757-1.111-1.07C27.021,29.212,26.997,29.215,26.981,29.232z"/>
	<path d="M28.421,28.763c0.01-0.012,0.01-0.032-0.003-0.044c-1.931-1.76-3.818-3.389-5.618-4.84
		c-0.016-0.012-0.031-0.012-0.042,0.003c-0.008,0.008-0.008,0.015-0.008,0.022s0.003,0.013,0.011,0.021
		c1.799,1.454,3.686,3.081,5.617,4.841C28.388,28.775,28.409,28.775,28.421,28.763z"/>
	<path d="M27.045,88.767l-0.048-0.046c-0.295-0.28-0.598-0.568-0.875-0.878c-0.019-0.019-0.049-0.021-0.069-0.004
		c-0.011,0.008-0.013,0.021-0.013,0.035c0,0.011,0.002,0.023,0.01,0.03c0.279,0.315,0.586,0.604,0.881,0.885l0.051,0.051
		c0.018,0.015,0.051,0.015,0.068-0.004C27.068,88.818,27.063,88.785,27.045,88.767z"/>
	<path d="M25.56,28.697c0,0.014,0.002,0.021,0.013,0.029c0.091,0.049,0.171,0.125,0.251,0.201c0.072,0.064,0.145,0.137,0.227,0.186
		c0.011,0.008,0.026,0.004,0.038-0.012c0.013-0.013,0.005-0.031-0.012-0.037c-0.074-0.051-0.144-0.116-0.216-0.18
		c-0.076-0.08-0.16-0.154-0.258-0.209c-0.014-0.011-0.033-0.007-0.041,0.006C25.56,28.689,25.56,28.692,25.56,28.697z"/>
	<path d="M24.522,29.092c0.008,0.053,0.047,0.068,0.08,0.088c0.033,0.014,0.049,0.021,0.051,0.043c0,0.014,0.014,0.024,0.031,0.021
		c0.015,0,0.025-0.014,0.025-0.029c-0.006-0.05-0.047-0.07-0.084-0.09c-0.023-0.014-0.042-0.025-0.045-0.044
		c-0.002-0.017-0.02-0.024-0.037-0.024c-0.014,0.008-0.021,0.02-0.021,0.029C24.522,29.089,24.522,29.092,24.522,29.092z"/>
	<path d="M24.29,27.518c-0.033-0.041-0.068-0.081-0.119-0.094c-0.014-0.008-0.029,0-0.031,0.013c-0.004,0-0.004,0.008-0.004,0.008
		c0,0.016,0.006,0.021,0.017,0.028c0.039,0.012,0.066,0.045,0.098,0.08c0.032,0.035,0.066,0.072,0.118,0.093
		c0.016,0,0.029-0.005,0.037-0.021c0.002-0.016-0.006-0.029-0.018-0.029C24.347,27.58,24.316,27.549,24.29,27.518z"/>
	<path d="M24.293,83.153c-0.028-0.07-0.062-0.151-0.161-0.18c-0.023-0.008-0.044,0.008-0.052,0.028c0,0-0.003,0.008-0.003,0.011
		c0,0.019,0.014,0.034,0.029,0.04c0.064,0.019,0.085,0.065,0.115,0.129c0.023,0.066,0.059,0.138,0.143,0.17
		c0.02,0.011,0.043-0.002,0.052-0.021c0.008-0.022-0.005-0.047-0.021-0.055C24.336,83.254,24.316,83.209,24.293,83.153z"/>
	<path d="M23.8,5.774c-0.008,0.005-0.014,0.016-0.014,0.022c0,0.008,0.003,0.01,0.006,0.014c0.068,0.116,0.155,0.187,0.245,0.217
		c0.019,0.005,0.032-0.005,0.038-0.022c0.005-0.015-0.006-0.03-0.02-0.036c-0.08-0.022-0.151-0.087-0.216-0.188
		C23.832,5.77,23.812,5.764,23.8,5.774z"/>
	<path d="M23.843,82.815c0.021,0.022,0.054,0.022,0.077,0c0.021-0.021,0.021-0.056,0-0.078c-0.358-0.349-0.739-0.678-1.106-0.997
		c-0.383-0.334-0.781-0.673-1.142-1.033c-0.021-0.021-0.055-0.021-0.077,0c-0.01,0.008-0.016,0.021-0.016,0.037
		c0,0.013,0.006,0.028,0.016,0.039c0.363,0.363,0.762,0.709,1.146,1.039C23.108,82.139,23.49,82.467,23.843,82.815z"/>
	<path d="M23.707,27.034c-0.011-0.007-0.03-0.011-0.04,0c-0.008,0.008-0.008,0.015-0.008,0.021c0,0.008,0,0.016,0.008,0.021
		c0.018,0.02,0.037,0.033,0.059,0.045c0.029,0.021,0.053,0.043,0.063,0.072c0.003,0.014,0.019,0.025,0.035,0.021
		c0.016-0.006,0.026-0.021,0.019-0.037c-0.014-0.049-0.054-0.078-0.085-0.104C23.738,27.062,23.72,27.049,23.707,27.034z"/>
	<path d="M20.942,21.165c-0.006-0.011-0.023-0.013-0.035-0.008c-0.008,0.005-0.011,0.016-0.011,0.022c0,0.004,0,0.01,0.003,0.018
		l0.037,0.048c0.021,0.024,0.034,0.046,0.046,0.074c0.008,0.016,0.021,0.023,0.036,0.016c0.012-0.008,0.016-0.022,0.014-0.036
		c-0.014-0.031-0.031-0.058-0.053-0.086L20.942,21.165z"/>
</g>
</svg>
