<?xml version="1.0" encoding="utf-8"?>
<!-- Generator: Adobe Illustrator 16.0.0, SVG Export Plug-In . SVG Version: 6.00 Build 0)  -->
<!DOCTYPE svg PUBLIC "-//W3C//DTD SVG 1.1//EN" "http://www.w3.org/Graphics/SVG/1.1/DTD/svg11.dtd">
<svg version="1.1" id="Layer_1" xmlns="http://www.w3.org/2000/svg" xmlns:xlink="http://www.w3.org/1999/xlink" x="0px" y="0px"
	 width="100px" height="100px" viewBox="-25 -25 100 100" enable-background="new -25 -25 100 100" xml:space="preserve">
<path fill="#1E1E1E" d="M62.977,53.702c-2.418-1.469-4.634-2.947-6.972-4.197c-2.429-1.301-4.987-2.358-7.467-3.565
	c-5.705-2.78-11.754-4.487-17.97-5.575c-4.831-0.847-9.726-1.324-14.559-2.157c-9.761-1.678-18.868-4.921-26.698-11.274
	c-3.234-2.624-6.377-5.215-8.661-8.806c-1.975-3.104-1.841-6.142-0.875-9.443c1.335-4.559,4.635-7.293,8.496-9.549
	c2.898-1.692,5.926-3.086,9.352-3.232c4.53-0.195,9.06-0.178,13.408,1.349c3.087,1.083,6.167,2.212,9.171,3.505
	C26.162,3.318,31.422,7,36.23,11.31c2.608,2.337,5.079,4.831,7.553,7.315c0.756,0.761,1.22,1.81,1.971,2.577
	c5.322,5.432,8.979,11.89,11.861,18.855c1.418,3.426,2.967,6.795,4.384,10.218C62.439,51.34,62.643,52.503,62.977,53.702z"/>
</svg>
