<?xml version="1.0" encoding="utf-8"?>
<!-- Generator: Adobe Illustrator 16.0.0, SVG Export Plug-In . SVG Version: 6.00 Build 0)  -->
<!DOCTYPE svg PUBLIC "-//W3C//DTD SVG 1.1//EN" "http://www.w3.org/Graphics/SVG/1.1/DTD/svg11.dtd">
<svg version="1.1" id="Layer_1" xmlns="http://www.w3.org/2000/svg" xmlns:xlink="http://www.w3.org/1999/xlink" x="0px" y="0px"
	 width="100px" height="100px" viewBox="0 0 100 100" enable-background="new 0 0 100 100" xml:space="preserve">
<g>
	<path fill="#333333" d="M75.064,58.596c-0.482-1.541-9.601-13.787-13.505-17.958c0.114,0.506,0.223,1.065,0.336,1.654
		c0.271,1.398,0.576,2.982,1.054,4.172c0.986,2.455,1.49,3.284,5.389,8.872c2.339,3.351,4.301,3.851,5.263,3.851
		C74.457,59.186,74.945,58.808,75.064,58.596z"/>
	<path fill="#333333" d="M85.682,43.499c-2.773,1.987-10.7,7.603-13.502,8.916c0.742,1.015,1.36,1.883,1.848,2.594
		c9.023-0.147,13.405-4.477,14.854-5.914c0.141-0.14,0.255-0.251,0.341-0.33c0.303-0.432-1.371-4.749-2.624-6.004
		C86.316,43.036,86.01,43.284,85.682,43.499z"/>
	<path fill="#333333" d="M69.368,48.662c0.847,1.107,1.583,2.087,2.23,2.961c1.311-0.531,6.161-3.757,11.06-7.204
		c-0.165-0.001-0.329,0.013-0.493-0.006c-4.253-0.476-13.429-0.044-15.692,0.542C67.459,46.19,68.454,47.467,69.368,48.662z"/>
	<path fill="#333333" d="M76.471,18.416c-5.963-4.863-12.559-3.391-16.892-0.977c4.416-1.111,11.527-1.795,15.696,1.879
		c2.675,2.492,3.834,12.422,1.327,18.796l-0.93-0.366c2.477-6.299,1.229-15.63-0.979-17.689C69.57,15.544,59,18.163,57,19.395v0.002
		l-0.23,0.131c-0.256,0.236-0.612,0.507-0.972,0.818c-2.128,1.843-5.711,4.928-9.179,10.893c-3.297,5.673-3.058,7.045-2.937,7.705
		c0.026,0.142,0.038,0.292,0.036,0.45c0.515,2.119,1.922,6.839,3.656,9.723c-1.428-5.204-0.22-11.629,1.118-16.937
		c1.585-6.292,6.674-8.774,7.275-9.048c0.558-0.588,1.349-1.02,2.347-1.273c2.509-0.637,5.823,0.017,7.389,1.456l-0.678,0.736
		c-1.298-1.194-4.321-1.766-6.465-1.223c-0.877,0.222-2.003,0.724-2.393,1.856c-0.685,1.984-2.544,10.797-4.038,17.877
		c-0.942,4.464-1.756,8.318-2.175,10.021c0.92,3.674,2.609,5.794,4.966,7.825c1.943-0.114,10.555-0.713,14.424-2.523
		c-0.524-0.533-1.068-1.179-1.626-1.979c-3.957-5.672-4.471-6.521-5.496-9.071c-0.513-1.278-0.829-2.913-1.107-4.354
		c-0.268-1.384-0.521-2.691-0.869-3.275l-1.109-1.861l1.812,1.186c0.836,0.547,2.871,2.891,5.061,5.598
		c1.241-0.467,5.215-0.785,9.147-0.878c-0.269-0.27-0.538-0.348-0.556-0.353l0.238-0.971c0.043,0.01,0.978,0.254,1.511,1.302
		c1.48-0.019,2.907-0.004,4.129,0.049c0.326-0.938,1.435-4.209,2.454-8.25C83.85,30.582,84.148,24.674,76.471,18.416z"/>
	<path fill="#333333" d="M48.459,52.207c-0.043-0.074,0.012-0.153-0.03-0.229c-2.171-1.496-3.889-6.145-4.878-9.309
		c-0.114,2.611-0.333,6.034-0.839,7.556c-1.114,3.352-4.104,14.64,4.031,19.121c5.17,2.847,8.654,3.746,10.951,2.826
		c1.494-0.599,2.604-2.036,3.384-4.392c-0.381-0.577-1.776-2.717-4.918-5.137C55.536,62.162,54.944,62,54.379,61
		C54.376,61,54,61,54,61v0.419C52,59.117,49.438,56.672,48.459,52.207z"/>
	<path fill="#333333" d="M76.04,73.879c-2.173,0-3.404-2.04-4.521-3.891c-0.985-1.634-2.006-3.323-3.608-3.84
		c-2.005-0.644-6.112-1.89-9.486-2.724c2.655,2.329,3.596,3.962,3.641,4.043l0.105,0.188l-0.065,0.206
		c-0.878,2.788-2.197,4.501-4.032,5.237c-0.704,0.281-1.479,0.425-2.344,0.425c-0.526,0-1.092-0.062-1.688-0.169
		c1.312,1.689,1.768,3.877,2.174,5.867c0.708,3.466,1.22,5.244,4.243,4.654c4.213-1.326,8.789-2.403,12.466-3.269
		c3.133-0.737,5.839-1.373,7.311-1.926c4.359-0.721,4.56-5.045,4.368-7.251c-1.346,0.684-3.268,1.186-6.364,1.854
		C77.408,73.7,76.683,73.879,76.04,73.879z"/>
	<path fill="#333333" d="M13.7,60.66c0.265,0.99,1.621,3.888,4.678,5.385c2.738,1.341,6.1,1.207,9.99-0.375
		c-0.931-2.04-2.013-4.242-3.443-6.523c-5.617-8.963-1.16-15.102,0.982-18.052c0.373-0.514,0.791-0.952,1.238-1.325
		c-2.168-1.759-4.884-4.373-5.16-7.514c-0.089-1.01,0.09-2.01,0.515-2.994c-1.389-0.743-4.924-0.658-8.192,1.216
		c-2.389,1.37-6.269,4.7-5.421,11.605c1.181,9.639,3.118,14.314,4.158,16.828c0.112,0.27,0.208,0.505,0.297,0.727l0.056,0.019
		c-0.006,0.019-0.017,0.043-0.024,0.063C13.514,60.077,13.626,60.386,13.7,60.66z"/>
	<path fill="#333333" d="M96.126,58.027c0.234-0.521-0.059-1.35-0.569-2.434c-1.177-2.502-7.251-22.717-8.051-25.644
		c-0.643-2.352-3.086-4.317-4.718-5.623c1.683,3.297,1.757,6.386,1.307,9.084c4.72,2.573,4.357,5.746,3.972,7.004
		c-0.177,0.575-0.463,1.107-0.815,1.59c0.949,1.029,2.957,4.737,3.003,6.458c0.013,0.464-0.108,0.815-0.36,1.042
		c-0.078,0.071-0.18,0.173-0.308,0.299c-0.635,0.63-1.816,1.79-3.652,2.94c3.068,2.819,4.15,5.373,4.245,7.651
		c0.679-0.202,1.844-0.549,3.67-1.086C95.186,58.918,95.909,58.51,96.126,58.027z"/>
	<path fill="#333333" d="M73.151,81.582c-1.271,0.299-2.655,0.626-4.092,0.978c-3.396,9.883-7.004,10.068-11.558,10.292
		c-0.184,0.009-0.365,0.014-0.547,0.014c-0.569,0-1.131-0.046-1.689-0.124c0.001,0.663,0.206,1.158,0.644,1.483
		c1.306,0.973,4.423,0.423,6.169-0.347c2.271-0.997,18.6-10.865,19.799-12.116c1.329-1.383,1.109-2.234,0.687-2.828
		c-0.592,0.331-1.275,0.58-2.074,0.71C79.053,80.193,76.448,80.807,73.151,81.582z"/>
	<path fill="#333333" d="M7.055,46.711c0.184-0.288,0.454-0.474,0.781-0.537c0.213-0.041,0.43-0.021,0.634,0.025
		c-0.205-1.232-0.399-2.552-0.576-3.993c-0.918-7.479,3.312-11.102,5.916-12.595c3.433-1.97,7.309-2.199,9.143-1.236
		c0.297-0.498,0.652-0.991,1.082-1.477c0.236-0.268,0.475-0.542,0.713-0.819c-0.359-0.581-2.407-2.575-4.386-4.164
		c-0.388-0.311-0.563-0.722-0.505-1.188c0.123-0.992,1.476-2.176,3.047-3.241c-1.271-0.967-3.99-2.149-6.55-1.525
		c-2.32,0.565-3.97,2.449-4.901,5.597C8.169,32.651,4.854,45.908,5.349,47.191c0.245,0.324,0.495,0.317,0.577,0.312
		C6.343,47.489,6.809,47.094,7.055,46.711z"/>
	<path fill="#333333" d="M82.276,43.419c0.991,0.113,2.04-0.207,2.921-0.803c0.003-0.002,0.007-0.004,0.01-0.007l0.001,0.001
		c0.882-0.601,1.593-1.482,1.902-2.488c0.637-2.073-0.546-4.114-3.218-5.666c-0.061,0.276-0.123,0.55-0.19,0.817
		c-0.946,3.75-1.97,6.846-2.386,8.063C81.662,43.36,81.987,43.387,82.276,43.419z"/>
	<path fill="#333333" d="M28.649,12.008c-0.401,0.442-0.222,1.197-0.049,1.927c0.026,0.112,0.049,0.219,0.073,0.328
		c0.92-0.522,2.596-1.555,4.549-2.792C30.161,11.17,29.038,11.58,28.649,12.008z"/>
	<path fill="#333333" d="M49.19,71.706c-0.91-0.422-1.879-0.915-2.917-1.486c-7.204-3.968-6.413-12.657-5.242-17.63
		c-4.47-4.618-6.956-8.663-8.038-12.346l-0.004,0.003c-0.379-0.434-1.323-0.875-2.492-0.824c-1.012,0.046-2.489,0.475-3.781,2.258
		c-2.013,2.773-6.203,8.543-0.944,16.933c1.945,3.104,3.249,6.042,4.398,8.635c1.889,4.258,3.253,7.334,6.139,8.059
		C41.007,76.494,47.139,75.427,49.19,71.706z"/>
	<path fill="#333333" d="M14.825,77.206c3.437,1.327,13.271,5.473,16.482,8.192c2.407,2.039,5.602,2.546,7.545,2.344
		c-2.188-1.744-2.144-4.492-2.095-6.988c0.033-1.71,0.061-3.325-0.604-4.456c-0.029-0.008-0.06-0.013-0.088-0.02
		c-3.358-0.843-4.881-4.276-6.809-8.623c-0.156-0.352-0.315-0.71-0.478-1.074c-2.243,0.917-4.336,1.387-6.256,1.387
		c-1.658,0-3.188-0.342-4.584-1.025c-3.2-1.567-4.757-4.5-5.17-5.923c-0.036,0.07-0.069,0.136-0.107,0.21
		C10.806,64.84,6.948,72.353,14.825,77.206z"/>
	<path fill="#333333" d="M51.067,5.575c-0.259-0.106-0.57,0.038-0.782,0.178c-0.708,0.468-1.436,1.623-1.671,2.93
		c3.241-1.051,6.566-0.705,8.407-0.511c0.444,0.047,0.894,0.093,1.15,0.096c-1.333-0.332-3.545-1.202-6.356-2.381L51.067,5.575z"/>
	<path fill="#333333" d="M49.503,3.562c-1.255-0.337-2.731-0.009-3.851,0.861c-0.691,0.537-2.579,1.822-4.865,3.334
		c0.435-0.159,0.883-0.282,1.342-0.354c1.912-0.303,3.672,0.296,5.251,1.754c0.06-0.027,0.119-0.054,0.178-0.08
		c0.147-1.879,1.167-3.493,2.175-4.16c0.478-0.315,0.966-0.426,1.413-0.345C50.626,3.988,50.007,3.698,49.503,3.562z"/>
	<path fill="#333333" d="M20.85,20.85c-0.01,0.081-0.008,0.168,0.139,0.286c1.182,0.949,3.5,2.889,4.408,4.188
		c4.284-5.031,8.705-10.964,9.385-12.314c0.288-0.573,1.094-1.693,2.242-2.789c-3.819,2.472-7.615,4.852-8.527,5.268
		C25.84,16.704,21.013,19.535,20.85,20.85z"/>
	<path fill="#333333" d="M50.115,90.288c2.65,0.904,4.93,1.675,7.269,1.568c4.302-0.212,7.408-0.391,10.506-9.006
		c-2.356,0.591-4.82,1.251-7.188,1.994c-0.456,0.09-0.87,0.132-1.247,0.132c-3.086,0-3.662-2.818-4.221-5.555
		c-0.486-2.379-1.042-5.064-3.141-6.566c-0.624-0.202-1.282-0.447-1.979-0.744c-1.69,3.157-5.891,4.649-10.041,4.649
		c-0.918,0-1.83-0.079-2.714-0.223c0.448,1.238,0.428,2.7,0.398,4.235c-0.062,3.163-0.119,6.151,3.944,7.264
		C45.036,88.558,47.734,89.477,50.115,90.288z"/>
	<path fill="#333333" d="M87.408,66.46c1.7-3.418,3.81-7.669-2.37-13.188c-2.42,1.343-5.803,2.54-10.356,2.714
		c1.493,2.283,1.415,2.643,1.376,2.797c-0.172,0.68-1.092,1.402-2.457,1.402c-0.781,0-2.1-0.258-3.674-1.572
		c-3.446,1.8-10.896,2.502-14.08,2.727c0.272,0.217,0.55,0.436,0.837,0.657c4.497,0.948,11.246,3.107,11.532,3.199
		c1.96,0.631,3.078,2.483,4.159,4.275c1.627,2.694,2.762,4.275,5.467,2.893l0.122-0.044c6.887-1.48,7.568-2.044,9.159-5.284
		L87.408,66.46z"/>
	<path fill="#333333" d="M71.504,10.893c-2.196-1.678-6.223-3.327-12.935-1.659c-0.33,0.074-0.829,0.02-1.653-0.067
		c-3.715-0.392-12.199-1.278-15.109,8.266c3.865-3.005,8.38-3.659,11.612-2.503c1.797,0.644,2.978,1.812,3.317,3.178
		c7.104-5.585,14.153-4.184,18.368-1.814C74.791,14.831,73.717,12.583,71.504,10.893z"/>
	<path fill="#333333" d="M55.098,19.591c0.283-0.245,0.535-0.463,0.753-0.659c0.012-1.296-1.009-2.431-2.769-3.061
		c-3.209-1.151-9.601-0.499-14.07,5.997c-6.124,8.907-9.829,16.772,2.311,29.578c0.167-0.606,0.329-1.286,0.464-1.693
		C42.591,47.332,42.695,39,42.696,39h0.012c-0.004,0-0.007,0.051-0.022-0.032c-0.164-0.896-0.437-2.317,3.045-8.31
		C49.284,24.55,53.066,21.352,55.098,19.591z"/>
	<path fill="#333333" d="M24.822,25.994c0.023-0.026,0.045-0.051,0.068-0.078l-0.04-0.021C24.831,25.932,24.83,25.961,24.822,25.994
		z"/>
	<path fill="#333333" d="M54.881,24.803c-1.658,1.118-4.384,3.506-5.421,7.622c-1.498,5.943-2.841,13.311-0.351,18.525
		c0.451-2.002,1.108-5.116,1.842-8.593C52.433,35.333,54.101,27.43,54.881,24.803z"/>
	<path fill="#333333" d="M22.98,32.168c0.252,2.868,2.952,5.354,5.008,6.997c0.766-0.447,1.599-0.702,2.463-0.741
		c0.788-0.032,1.557,0.116,2.195,0.398c-1.319-6.515,1.699-11.935,5.541-17.522c0.726-1.054,1.521-1.967,2.357-2.767l-0.066-0.015
		c1.088-4.75,3.367-7.415,5.948-8.88c-1.272-1.062-2.662-1.484-4.14-1.247c-3.316,0.526-6.147,4.142-6.611,5.066
		c-0.878,1.746-6.423,9.037-10.89,14.102C23.451,29.069,22.844,30.62,22.98,32.168z"/>
	<path fill="#333333" d="M75.698,14.574c-0.041-0.007-0.073-0.014-0.112-0.021c0.4,0.946,0.598,1.801,0.621,2.422
		c0.322,0.22,0.624,0.443,0.896,0.665c1.975,1.609,3.441,3.199,4.525,4.751c0.54-2.06,0.443-3.725-0.289-4.957
		C80.108,15.364,77.348,14.869,75.698,14.574z"/>
</g>
<path fill="#FFFFFF" d="M75.83,17.141c0.088-1.129-1.265-6.852-8.126-8.701c-2.388,0.018-3.495-1.101-8.868,0.235
	c0,0-1.604,0.241-2.388,0.021c-0.782-0.222-6.565-1.117-10.365,1.736c-1.899,1.428-4.779,5.383-4.976,8.135
	c0,0,3.188-2.869,5.561-3.242c2.372-0.372,5.971-0.592,7.872,0.982c0,0,1.863,0.755,1.863,2.678c0,0,6.016-4.039,9.704-4.308
	C69.796,14.407,73.727,15.742,75.83,17.141z"/>
<g>
	<g>
		<defs>
			<path id="SVGID_1_" d="M86.986,42.201c1.319,2.549,3.215,6.311,2.56,6.9c-0.657,0.586-9.499,7.796-15.672,6.271l-2.571-3.218
				C71.303,52.154,85.737,43.781,86.986,42.201z"/>
		</defs>
		<use xlink:href="#SVGID_1_"  overflow="visible" fill="#999999"/>
		<clipPath id="SVGID_2_">
			<use xlink:href="#SVGID_1_"  overflow="visible"/>
		</clipPath>
	</g>
	<g>
		<defs>
			<path id="SVGID_3_" d="M43.146,40.714c0.111,2.303-0.027,7.512-0.84,9.052c-0.812,1.54-2.424,8.85-1.34,12.187
				c1.081,3.333,2.349,6.466,5.938,8.295c3.586,1.831,9.901,4.299,12.494,1.364c0,0,2.807-3.251,2.236-3.914
				c-0.57-0.668-3.794-4.474-5.883-5.568c0,0-4.615-4.01-5.126-5.796c0,0-0.854-4.153-2.678-5.297
				C47.947,51.036,43.903,42.064,43.146,40.714z"/>
		</defs>
		<use xlink:href="#SVGID_3_"  overflow="visible" fill="#999999"/>
		<clipPath id="SVGID_4_">
			<use xlink:href="#SVGID_3_"  overflow="visible"/>
		</clipPath>
	</g>
</g>
<path fill="#4D4D4D" d="M83.878,44.259c-0.765,0.43-10.955,8.116-13.083,7.824l-5.738-7.264
	C65.057,44.819,81.073,43.079,83.878,44.259z"/>
<g>
	<path fill="#808080" d="M57.604,17.979c3.182-2.209,9.798-4.816,14.443-2.747c4.646,2.066,8.096,5.488,10.369,9.229
		c2.267,3.741,1.382,11.555-1.368,18.625c0,0,0.066,0.725-2.001,0.525c-2.067-0.201-2.717,0.166-2.717,0.166
		s-0.739-0.264-0.924-0.589c-0.178-0.323-0.809-0.99-0.1-1.388c0.713-0.4,1.968-1.953,1.566-2.664
		c-0.395-0.714-0.926-1.351-0.504-2.267c0.42-0.918,1.048-6.625,1.12-7.094c0.078-0.468-0.531-8.267-2.545-10.083
		C74.945,19.693,72.806,15.061,57.604,17.979z"/>
	<path fill="#808080" d="M49.155,52.107c-3.206-5.365-1.79-13.419-0.181-19.805c1.608-6.384,7.054-8.74,7.054-8.74
		s-1.213,3.963-1.603,5.822c-0.393,1.861-2.028,8.931-2.188,9.5C52.077,39.452,49.853,51.726,49.155,52.107z"/>
	<path fill="#808080" d="M61.193,39.422c1.581,1.307,8.898,10.434,9.925,12.265c1.029,1.83,6.043,7.363,3.713,7.751
		c-2.327,0.389-3.999,0.376-6.903-3.816c-2.9-4.197-5.763-9.17-6.23-12.021L61.193,39.422z"/>
</g>
<g>
	<path fill="#FFFFFF" d="M59.057,32.907c-0.547,0.761-1.354,1.353-2.251,1.657c1.607,1.186,3.066,2.857,3.73,3.664
		c1.399-1.322,1.796-2.751,1.082-3.975C61.063,33.303,59.92,32.722,59.057,32.907z"/>
	<path fill="#FFFFFF" d="M68.919,26.858c0.182-0.766-0.084-1.473-0.789-2.101c-0.768-0.683-1.586-0.937-2.422-0.765
		c-1.183,0.246-2.143,1.282-2.446,1.938c-0.096,0.204-0.203,0.459-0.325,0.75c-0.663,1.572-1.66,3.908-3.276,4.953
		c-0.021,0.079-0.061,0.157-0.087,0.236c0.44,0.029,0.885,0.169,1.307,0.384c0.706-0.725,2.424-1.852,4.686-2.455
		C67.153,29.377,68.626,28.085,68.919,26.858z"/>
	<path fill="#FFFFFF" d="M75.941,40.367c0.334-0.669,0.494-1.642-0.643-2.477c-1.342-0.986-2.552-0.86-3.332-0.579
		c-0.998,0.359-1.752,1.125-2.043,1.673c1.627,0.501,2.198,1.451,2.385,2.167c0.114,0.437,0.109,0.884,0.038,1.302
		C73.711,42.642,75.342,41.565,75.941,40.367z"/>
	<path fill="#FFFFFF" d="M72.218,29.403c0.609-1.197,0.516-2.495,0.26-2.996c-0.276-0.546-1.141-1.262-1.988-1.459
		c-0.335-0.079-0.636-0.064-0.904,0.025c0.452,0.792,0.44,1.553,0.307,2.117c-0.286,1.202-1.235,2.216-2.332,2.901
		c0.562,0.201,1.095,0.51,1.55,0.917c0.156,0.139,0.292,0.287,0.418,0.438C71.073,31.04,71.847,30.132,72.218,29.403z"/>
	<path fill="#FFFFFF" d="M65.312,36.954c1.134,0.038,2.032-0.327,2.739-1.041c0.847-0.854,1.2-2.081,1.175-2.917
		c-0.011-0.414-0.304-0.915-0.783-1.343c-0.717-0.639-1.668-0.976-2.552-0.911c-0.022,0.006-0.046,0.017-0.068,0.022
		c-2.025,0.54-3.518,1.531-4.104,2.057c0.295,0.265,0.557,0.575,0.763,0.927c0.284,0.488,0.908,1.9-0.021,3.635
		C63.249,37.08,64.193,36.93,65.312,36.954z"/>
	<path fill="#FFFFFF" d="M65.994,39.763c-2.682-0.712-4.204,0.361-4.273,0.413l-0.457-0.611c-0.018,0.03-0.041,0.067-0.056,0.092
		l-0.271-0.153c0.955,1.113,2.37,2.65,3.407,3.764C64.474,42.29,64.927,40.775,65.994,39.763z"/>
	<path fill="#FFFFFF" d="M75.165,42.637c-0.765,0.516-1.661,0.85-2.531,0.85c-0.2,0-0.396-0.025-0.592-0.062
		c-0.055,0.118-0.115,0.22-0.176,0.322c1.632-0.188,3.136-0.29,3.837-0.144C75.703,43.603,75.762,43.105,75.165,42.637z"/>
	<path fill="#FFFFFF" d="M70.849,43.468c0.239-0.246,0.722-1.188,0.492-2.063c-0.181-0.693-0.776-1.193-1.768-1.485
		c-1.022-0.3-1.893-0.196-2.595,0.307c-1.161,0.834-1.638,2.559-1.675,3.515l-0.536-0.021c0.541,0.579,0.908,0.966,0.908,0.966
		s2.827-0.519,5.539-0.861L70.849,43.468z"/>
	<path fill="#FFFFFF" d="M55.641,33.823l-0.002-0.034c1.188-0.073,2.338-0.829,2.862-1.879c0.201-0.403,0.467-1.188-0.014-1.917
		c-0.465-0.707-1.044-1.108-1.722-1.193c-0.734-0.089-1.539,0.205-2.179,0.788l-0.1-0.109c-0.293,1.054-0.901,3.208-1.147,3.806
		C54.059,33.177,54.848,33.399,55.641,33.823z"/>
	<path fill="#FFFFFF" d="M68.924,38.776c0.341-0.859,1.37-1.926,2.705-2.406c0.159-0.057,0.336-0.105,0.521-0.148
		c0.57-0.98,0.288-1.73-0.064-2.19c-0.443-0.579-1.213-0.962-1.861-0.985c0.009,0.974-0.363,2.461-1.463,3.571
		c-0.896,0.904-2.116,1.361-3.471,1.336c-2.117-0.049-3.134,0.583-3.646,1.12c0.856-0.413,2.737-0.991,5.412-0.023
		C67.625,38.802,68.247,38.706,68.924,38.776z"/>
</g>
</svg>
