<?xml version="1.0" encoding="utf-8"?>
<!-- Generator: Adobe Illustrator 16.0.0, SVG Export Plug-In . SVG Version: 6.00 Build 0)  -->
<!DOCTYPE svg PUBLIC "-//W3C//DTD SVG 1.1//EN" "http://www.w3.org/Graphics/SVG/1.1/DTD/svg11.dtd">
<svg version="1.1" id="Layer_1" xmlns="http://www.w3.org/2000/svg" xmlns:xlink="http://www.w3.org/1999/xlink" x="0px" y="0px"
	 width="100px" height="100px" viewBox="0 0 100 100" enable-background="new 0 0 100 100" xml:space="preserve">
<g>
	<path fill="#1A1A1A" d="M33.353,34.737l1.943,1.391l-1.232-1.365C33.893,34.824,33.598,34.806,33.353,34.737z"/>
	<path fill="#1A1A1A" d="M37.867,31.543c0.046,0.255,0.038,0.494-0.044,0.617c0.906,0.773,4.417,3.813,5.676,5.555
		c0.023-0.007,0.045-0.017,0.07-0.023l-4.828-6.074C38.564,31.718,38.145,31.665,37.867,31.543z"/>
	<path fill="#1A1A1A" d="M38.458,30.564c0.24,0.228,0.474,0.839,0.338,1.015c-0.01,0.012-0.028,0.02-0.042,0.029
		c0.774,0.884,3.518,4.047,4.88,6.067c0.396-0.108,0.804-0.193,1.217-0.262l-5.313-6.656C39.263,30.842,38.724,30.739,38.458,30.564
		z"/>
	<path fill="#1A1A1A" d="M36.597,43.458c0.011-0.025,0.02-0.051,0.033-0.076l-0.51-0.221C36.295,43.251,36.454,43.352,36.597,43.458
		z"/>
	<path fill="#1A1A1A" d="M33.093,41.371c1.394,0.485,2.861,1.119,3.646,1.804c0.145-0.29,0.303-0.572,0.476-0.847l-3.739-1.303
		C33.429,41.143,33.283,41.266,33.093,41.371z"/>
	<path fill="#1A1A1A" d="M37.925,39.69c-2.096-1.256-4.932-3.185-5.915-3.859c-0.182,0.162-0.844,0.079-1.102-0.111
		c-0.049-0.037-0.083-0.083-0.117-0.13c-0.005,0.085-0.022,0.156-0.05,0.212c1.47,0.96,5.846,3.931,7.323,5.375
		c0.204-0.239,0.428-0.463,0.652-0.686C38.491,40.252,38.224,39.981,37.925,39.69z"/>
	<path fill="#1A1A1A" d="M53.56,37.776c-0.064,0.491-0.148,0.94-0.253,1.332c0.193,0.124,0.385,0.25,0.568,0.385
		c0.007-0.017,0.016-0.035,0.022-0.052l1.145-2.761L53.56,37.776z"/>
	<path fill="#1A1A1A" d="M57.038,42.211l-0.387,0.303c0.034,0.059,0.063,0.119,0.094,0.179c0.015-0.006,0.029-0.012,0.044-0.019
		L57.038,42.211z"/>
	<path fill="#1A1A1A" d="M35.76,47.503c-0.001-0.064-0.011-0.125-0.011-0.189c0-0.181,0.02-0.355,0.03-0.533l-3.977,0.606
		C33.218,47.399,34.686,47.432,35.76,47.503z"/>
	<path fill="#1A1A1A" d="M52.942,38.88l0.055-0.688l-0.557,0.412C52.609,38.692,52.779,38.783,52.942,38.88z"/>
	<path fill="#1A1A1A" d="M52.929,32.866l-1.118,5.432c0.071,0.033,0.145,0.061,0.216,0.094c0.249-0.37,0.617-0.717,1.037-1.033
		l0.382-4.759C53.268,32.736,53.079,32.839,52.929,32.866z"/>
	<path fill="#1A1A1A" d="M46.835,57.409c0.002-0.006,0.004-0.014,0.006-0.019c-0.003,0-0.007-0.002-0.011-0.002
		C46.832,57.396,46.833,57.403,46.835,57.409z"/>
	<path fill="#1A1A1A" d="M39.889,39.479c-0.456-0.125-1.04-0.416-1.698-0.817c0.208,0.264,0.39,0.521,0.54,0.769
		c0.195,0.197,0.373,0.382,0.532,0.553C39.466,39.81,39.671,39.637,39.889,39.479z"/>
	<path fill="#1A1A1A" d="M46.91,57.391l-0.043,0.178c0.084,0.423,0.185,1.036,0.226,1.695c0.154-0.274,0.378-0.529,0.561-0.584
		l-0.067-1.32C47.362,57.372,47.138,57.389,46.91,57.391z"/>
	<path fill="#1A1A1A" d="M46.501,59.091c0.106,0.601,0.213,1.289,0.285,1.976l-0.034-3.021L46.501,59.091z"/>
	<path fill="#1A1A1A" d="M46.745,57.385c-0.199-0.002-0.396-0.015-0.594-0.027c0.041,0.176,0.15,0.668,0.274,1.32
		c0.117-0.377,0.228-0.72,0.323-1.009L46.745,57.385z"/>
	<path fill="#1A1A1A" d="M49.346,57.133c0.009,0.12,0.004,0.247-0.001,0.375c0.084,0.034,0.17,0.121,0.25,0.239l-0.011-0.67
		C49.504,57.096,49.426,57.116,49.346,57.133z"/>
	<path fill="#1A1A1A" d="M27.066,50.854c0.334-0.132,1.125-0.019,1.219,0.23c0.006,0.017,0.003,0.04,0.005,0.061
		c0.443-0.19,0.885-0.354,1.325-0.492c1.788-0.707,4.488-1.661,6.284-1.767c-0.038-0.214-0.076-0.427-0.097-0.646l-7.04,1.448
		c-0.113,0.256-0.499,0.604-0.759,0.672c-0.325,0.084-0.659-0.108-0.744-0.429c-0.085-0.329,0.104-0.668,0.434-0.754
		c0.32-0.084,1.036,0.099,1.102,0.34c0.009,0.035,0.002,0.075-0.012,0.121c1.291-0.377,4.832-1.368,7.01-1.558
		c-0.009-0.107-0.012-0.216-0.018-0.324l-6.013-0.06L29.6,47.723l-1.416,0.275c0.009,0.298-0.359,0.872-0.656,1.038
		c-0.334,0.18-0.749,0.066-0.937-0.263c-0.097-0.178-0.104-0.375-0.046-0.55c-0.192,0.13-0.422,0.231-0.585,0.239
		c-0.34,0.02-0.626-0.235-0.646-0.569c-0.019-0.338,0.231-0.626,0.57-0.645c0.163-0.011,0.397,0.059,0.6,0.16
		c0.036-0.286,0.259-0.52,0.559-0.537c0.322-0.019,0.925,0.272,0.999,0.516c0.523-0.005,1.325-0.01,2.24-0.009
		c1.544-0.367,3.571-0.777,5.064-0.828c0.161-0.026,0.312-0.05,0.451-0.073c0.019-0.216,0.051-0.428,0.085-0.641l-8.537-0.082
		c-0.125,0.26-0.67,0.595-0.986,0.607c-0.367,0.028-0.678-0.25-0.697-0.612c-0.023-0.367,0.25-0.679,0.617-0.697
		c0.363-0.019,1.079,0.33,1.092,0.593c0,0.014-0.007,0.029-0.01,0.044c1.673-0.164,6.532-0.58,8.564-0.114
		c0.111-0.575,0.277-1.133,0.49-1.67l-6.379-1.7c-0.18,0.242-0.651,0.516-0.933,0.53c-0.367,0.023-0.673-0.254-0.696-0.623
		c-0.024-0.357,0.254-0.672,0.617-0.696c0.363-0.023,1.078,0.329,1.087,0.602c0.002,0.026-0.007,0.054-0.017,0.083
		c1.023,0.015,3.596,0.124,5.387,0.781l-2.979-1.293c-0.101,0.02-0.197,0.032-0.276,0.025c-0.261-0.023-0.469-0.185-0.588-0.399
		l-1.621-0.704c-0.174,0.232-0.726,0.463-1.031,0.439c-0.358-0.033-0.626-0.344-0.588-0.702c0.033-0.358,0.343-0.622,0.701-0.588
		c0.354,0.033,0.994,0.47,0.975,0.73c-0.002,0.024-0.016,0.05-0.029,0.075c0.301,0.072,0.84,0.213,1.498,0.408
		c0-0.027-0.011-0.051-0.009-0.079c0.038-0.415,0.404-0.725,0.819-0.687c0.411,0.028,1.156,0.542,1.143,0.848
		c0.857,0.159,2.776,0.561,3.869,1.147c0.154-0.229,0.315-0.453,0.487-0.669c-1.478-0.442-5.124-2.193-6.237-2.735
		c-0.17,0.25-1.053,0.27-1.414,0.072c-0.368-0.197-0.504-0.66-0.301-1.026c0.193-0.368,0.659-0.5,1.021-0.302
		c0.366,0.198,0.85,0.968,0.708,1.242l6.277,2.684c0.022-0.027,0.045-0.055,0.068-0.082l-7.258-5.446
		c-0.009,0.013-0.014,0.029-0.025,0.039c-0.23,0.198-1.097-0.094-1.37-0.404c-0.278-0.316-0.245-0.797,0.066-1.075
		c0.134-0.117,0.3-0.167,0.467-0.174c-1.689-0.675-3.524-1.121-5.452-1.137c-0.037,0-0.073,0-0.111,0
		c-4.55,0-8.812,2.37-12.67,7.047c-1.247,1.774-2.171,5.615-1.387,7.079c0.627,1.179,0.627,2.326,0.628,3.161
		c0.001,0.399,0.001,0.743,0.063,0.992c0.2,0.82,3.164,7.041,8.726,7.838c0.472-0.768,0.989-1.509,1.518-2.237
		c1.776-2.358,3.698-3.991,5.631-5.084c-0.043-0.054-0.086-0.108-0.111-0.176C26.552,51.363,26.727,50.986,27.066,50.854z"/>
	<path fill="#1A1A1A" d="M42.24,63.289c0.551-1.982,1.804-4.959,2.307-6.122c-0.217-0.042-0.428-0.097-0.64-0.148l-1.587,2.216
		C42.187,60.495,42.171,61.887,42.24,63.289z"/>
	<path fill="#1A1A1A" d="M46.088,29.072l0.618,4.599c0.265,0.449,0.513,0.909,0.727,1.368c0.263-2.577,0.097-4.824-0.345-6.776
		c-0.013,0.04-0.015,0.082-0.036,0.121C46.906,28.667,46.408,29.021,46.088,29.072z"/>
	<path fill="#1A1A1A" d="M57.367,41.954c-0.126,0.221-0.257,0.427-0.385,0.635c1.984-0.884,3.581-1.853,4.867-2.862
		c-0.329,0.004-0.851-0.192-1.098-0.423L57.367,41.954z"/>
	<path fill="#1A1A1A" d="M30.132,33.017c-0.278-0.316-0.25-0.792,0.061-1.07c0.315-0.277,0.795-0.244,1.074,0.062
		c0.27,0.317,0.457,1.19,0.236,1.405l1.384,0.99c-0.104-0.199-0.097-0.444,0.042-0.634c0.198-0.259,0.57-0.321,0.833-0.122
		c0.268,0.197,0.561,0.852,0.415,1.045c-0.005,0.007-0.016,0.011-0.023,0.017c0.673,0.561,1.875,1.599,2.938,2.704l2.842,2.034
		c0.558-0.404,1.159-0.76,1.797-1.062l-8.309-5.946c-0.194,0.167-0.756,0.241-1.02,0.134c-0.306-0.114-0.457-0.452-0.344-0.753
		c0.123-0.302,0.452-0.453,0.758-0.34c0.301,0.122,0.753,0.659,0.665,0.881c-0.007,0.017-0.023,0.033-0.038,0.049
		c1.395,0.818,6.741,4.014,8.44,5.908c0.481-0.219,0.98-0.41,1.498-0.564l-5.57-5.575c-0.006,0.007-0.009,0.02-0.017,0.026
		c-0.23,0.198-1.087-0.094-1.37-0.415c-0.278-0.311-0.246-0.791,0.065-1.063c0.305-0.269,0.755-0.241,1.041,0.045
		c0.021-0.051,0.04-0.104,0.076-0.149c0.194-0.234,0.542-0.281,0.791-0.106c-0.275-0.242-0.315-0.647-0.093-0.934
		c0.24-0.292,0.664-0.334,0.951-0.104c0.292,0.23,0.593,0.994,0.424,1.201c-0.003,0.004-0.01,0.005-0.014,0.01
		c1.221,0.904,4.706,3.708,5.534,6.676c0.311-0.043,0.624-0.074,0.941-0.093c-0.202-0.322-0.391-0.686-0.565-1.083
		c-2.112-2.576-3.778-6.022-4.339-7.252c-0.237,0.128-0.936-0.293-1.114-0.613c-0.179-0.329-0.066-0.744,0.259-0.923
		c0.33-0.179,0.739-0.066,0.918,0.264c0.166,0.295,0.176,0.986-0.002,1.212l3.626,5.509c-0.423-1.402-0.733-2.939-0.952-4.287
		c-0.322,0.038-0.878-0.119-1.099-0.325c-0.283-0.264-0.306-0.71-0.043-0.993c0.248-0.27,0.652-0.293,0.935-0.078
		c-0.104-0.779-0.173-1.417-0.211-1.813c-0.002,0-0.005,0.002-0.007,0.002c-0.221,0-0.555-0.588-0.555-0.904
		c0-0.311,0.249-0.561,0.555-0.561c0.311,0,0.565,0.25,0.565,0.561c0,0.271-0.247,0.742-0.462,0.869l1.442,4.394
		c0.202,0.269,0.412,0.565,0.625,0.871c-0.005-1.387,0.166-2.518,0.265-3.049c-0.026-0.003-0.054-0.004-0.074-0.015
		c-0.25-0.136-0.277-0.984-0.099-1.332c0.183-0.344,0.607-0.476,0.956-0.292c0.061,0.03,0.105,0.077,0.152,0.121
		c-0.893-3.305-2.571-5.711-4.208-7.374c-4.481-4.55-10.499-5.764-12.03-5.463c-3.099,0.619-8.528,5.822-8.96,8.072l-0.063,0.332
		c-0.433,2.264-1.316,6.913,0.14,9.464c0.823-0.153,1.656-0.234,2.5-0.234c0.041,0,0.081,0,0.121,0
		c3.558,0.031,6.771,1.4,9.361,3.047c-1.019-0.835-1.875-1.577-2.312-1.961C31.195,33.591,30.389,33.315,30.132,33.017z"/>
	<path fill="#1A1A1A" d="M32.034,35.813c-0.001,0.001-0.002,0.001-0.003,0.003l5.083,3.109c-1.318-1.197-3.088-2.588-5.169-3.716
		C32.057,35.448,32.116,35.702,32.034,35.813z"/>
	<path fill="#1A1A1A" d="M58.801,43.806c-0.041-0.305,0.257-0.939,0.533-1.146c0.325-0.235,0.763-0.168,0.998,0.146
		c0.235,0.321,0.17,0.768-0.146,1.004c-0.314,0.235-1.172,0.339-1.346,0.104c-0.004-0.006-0.005-0.017-0.009-0.024
		c-0.345,0.251-0.831,0.551-1.236,0.791c0.088,0.297,0.163,0.599,0.222,0.905l2.764-1.214c0.007-0.338,0.409-0.947,0.731-1.128
		c0.373-0.207,0.839-0.069,1.041,0.298c0.202,0.376,0.07,0.842-0.302,1.044c-0.316,0.175-1.042,0.191-1.337,0.018
		c-0.916,0.88-1.961,1.302-2.811,1.5c0.019,0.135,0.031,0.27,0.043,0.406l5.334-0.424c0.152-0.293,0.545-0.659,0.824-0.742
		c0.387-0.118,0.782,0.094,0.895,0.471c0.112,0.381-0.098,0.782-0.477,0.895c-0.369,0.11-1.161-0.066-1.285-0.335
		c-2.051,1.011-4.068,0.824-5.267,0.555c0.005,0.128,0.021,0.252,0.021,0.383c0,0.744-0.095,1.468-0.264,2.166l1.106-0.459
		c-0.002-0.004-0.008-0.008-0.009-0.012c-0.09-0.292,0.556-0.979,0.971-1.103c0.414-0.132,0.852,0.104,0.979,0.519
		c0.123,0.414-0.112,0.852-0.521,0.979c-0.384,0.112-1.172-0.053-1.378-0.318c-0.31,0.152-0.753,0.326-1.173,0.481
		c-0.11,0.441-0.257,0.87-0.43,1.285l4.488-0.988c-0.001-0.002-0.002-0.002-0.002-0.004c-0.094-0.297,0.552-0.983,0.97-1.106
		c0.415-0.132,0.849,0.104,0.975,0.519c0.128,0.414-0.112,0.848-0.517,0.979c-0.388,0.113-1.189-0.057-1.384-0.322
		c-1.624,0.751-3.347,1.075-4.652,1.227c-0.058,0.127-0.124,0.247-0.187,0.37l1.961,1.35c0.168-0.324,0.604-0.729,0.913-0.82
		c0.415-0.127,0.853,0.104,0.975,0.518c0.104,0.341-0.04,0.687-0.322,0.872l1.056,0.245c0.105-0.337,0.61-0.831,0.958-0.934
		c0.413-0.126,0.848,0.104,0.975,0.518c0.127,0.42-0.113,0.848-0.522,0.979c-0.415,0.123-1.339-0.084-1.428-0.386
		c-0.001-0.004,0.001-0.01,0-0.013c-1.937,0.075-4.088-0.709-5.236-1.203c-0.332,0.479-0.718,0.919-1.129,1.34
		c1.882,2.36,5.404,5.264,9.144,6.339c3.677,1.058,6.688,0.181,8.949-2.605c4.678-4.762,4.753-8.529,4.797-10.779
		c0.017-0.786,0.028-1.406,0.211-1.891c0.048-0.126,0.108-0.277,0.177-0.449c0.854-2.124,3.121-7.766-2.58-11.895l-0.104-0.115
		c-0.343-0.593-4.991-2.581-7.62-2.051c-0.641,3.223-2.2,8.913-11.065,12.805c0.196,0.413,0.373,0.834,0.508,1.273L58.801,43.806z"
		/>
	<path fill="#1A1A1A" d="M41.043,64.944c0.074-0.194,0.296-0.438,0.528-0.609C41.47,63,41.439,61.65,41.505,60.373l-1.491,2.081
		c0.211,0.278,0.3,1.013,0.171,1.36c-0.16,0.399-0.607,0.603-1.012,0.452c-0.405-0.155-0.613-0.607-0.461-1.018
		c0.155-0.401,0.885-1.007,1.187-0.896c0.002,0.002,0.004,0.006,0.007,0.006c0.401-0.714,1-1.576,1.625-2.415
		c0.037-0.518,0.094-1.014,0.164-1.496l-3.643,4.418c0.201,0.244,0.288,0.931,0.161,1.251c-0.137,0.375-0.551,0.555-0.923,0.413
		c-0.372-0.141-0.556-0.557-0.414-0.923c0.132-0.348,0.719-0.848,1.019-0.825c0.538-1.256,2.48-3.424,3.879-4.846
		c0.091-0.506,0.21-0.977,0.349-1.418c-1.003,0.355-2.918,0.983-4.941,1.301c-1.387,0.833-2.951,1.587-4.352,1.825
		c-0.076,0.308-0.861,0.708-1.271,0.693c-0.438-0.019-0.772-0.375-0.758-0.812c0.019-0.435,0.381-0.77,0.814-0.755
		c0.366,0.017,0.988,0.37,1.171,0.674l2.738-1.451c-0.471,0.023-0.935,0.023-1.38-0.013c-0.077,0.277-0.786,0.644-1.163,0.626
		c-0.396-0.01-0.706-0.35-0.688-0.74c0.015-0.398,0.349-0.71,0.744-0.691c0.328,0.017,0.886,0.323,1.061,0.601l2.729-0.475
		l3.497-1.853c-0.376-0.249-0.735-0.519-1.074-0.808c-1.137,0.37-3.542,1.126-5.51,1.565c-1.421,0.766-2.819,1.438-3.686,1.657
		c-0.081,0.279-0.753,0.668-1.119,0.677c-0.396,0-0.725-0.312-0.73-0.706c-0.005-0.405,0.312-0.726,0.707-0.734
		c0.358,0,0.995,0.331,1.129,0.611l2.502-1.272c-0.294,0.048-0.566,0.08-0.802,0.095c-0.098,0.284-0.752,0.659-1.111,0.659
		c-0.4,0.012-0.729-0.306-0.734-0.706c-0.004-0.394,0.311-0.72,0.707-0.726c0.375-0.007,1.069,0.364,1.145,0.65l1.636-0.399
		l4.787-2.433c-0.459-0.522-0.86-1.088-1.198-1.688c-1.621,0.678-4.772,1.981-6.29,2.526c-0.087,0.313-0.5,0.786-0.804,0.901
		c-0.367,0.151-0.782-0.027-0.928-0.405c-0.146-0.375,0.038-0.791,0.405-0.932c0.372-0.141,1.229-0.019,1.337,0.255
		c0.012,0.032,0.015,0.071,0.009,0.115l6.261-2.479c-0.079-0.141-0.154-0.279-0.224-0.423l-5.153,0.538
		c-0.146,0.173-0.324,0.326-0.473,0.383c-0.291,0.114-0.607-0.003-0.774-0.252l-1.536,0.161c0.006,0.009,0.017,0.016,0.021,0.025
		c0.094,0.254-0.405,0.871-0.744,0.999c-0.343,0.132-0.725-0.038-0.857-0.377c-0.057-0.145-0.048-0.295-0.005-0.432
		c-1.87,1.045-3.733,2.621-5.456,4.91c-2.849,3.92-5.161,7.929-2.166,13.815c2.254,4.432,5.021,6.491,6.856,6.94
		c0.686,0.17,1.263,0.119,1.625-0.142l0.539-0.386l0.042,0.663c0.012,0.179,0.546,0.714,2.057,1.122
		c3.184,0.856,9.554,0.752,13.579-4.881c-0.563-0.965-1.038-1.957-1.375-2.917c-0.492-1.402-0.93-3.468-1.194-5.704
		c-0.087,0.001-0.176-0.012-0.262-0.044C41.089,65.735,40.901,65.321,41.043,64.944z"/>
	<path fill="#1A1A1A" d="M97.173,57.731c-0.019-0.11-0.038-0.189-0.038-0.246c-0.048-0.353-0.312-1.009-0.678-1.922
		c-0.58-1.478-1.385-3.504-1.526-5.009c-0.212-2.253-0.683-3.316-2.887-3.411c0.367-1.667-1.503-2.929-2.646-3.702
		c-0.155-0.112-0.297-0.207-0.423-0.296c2.919-4.634,3.089-9.743,2.65-12.202c-0.307-1.732-0.632-2.863-2.383-3.305
		c0.471-0.546,0.674-1.229,0.604-2.026c-0.222-2.486-3.146-5.425-4.286-6.074c-1.446-0.829-2.74-2.807-3.197-3.951
		c-0.16-0.419-0.41-0.673-0.726-0.758c-0.499-0.141-0.95,0.198-0.961,0.207c-0.814,0.566-2.854,0.179-5.207-0.268
		c-0.57-0.108-1.165-0.222-1.771-0.325c-3.205-0.556-4.764-0.75-7.027,0.278c0.872,0.699,1.661,1.708,2.055,3.061
		c0.962,3.314,1.185,8.452-0.037,10.523c-0.162,0.276-0.273,0.805-0.4,1.469c2.853-0.387,7.334,1.466,8.053,2.376
		c6.104,4.463,3.693,10.466,2.783,12.73c-0.066,0.166-0.124,0.312-0.171,0.433c-0.137,0.368-0.149,0.932-0.164,1.646
		c-0.046,2.36-0.124,6.312-4.984,11.254c-0.856,1.057-1.837,1.86-2.92,2.408c2.675,6.595-0.244,11.319-1.229,12.634
		c-0.569,0.764-1.146,1.354-1.758,1.976c-0.486,0.496-0.99,1.009-1.562,1.679c-2.737,4.043-5.652,5.312-8.583,5.312
		c-2.034,0-4.077-0.611-6.075-1.331c-2.257-0.05-5.031-2.635-6.965-5.668c-3.086,4.134-7.394,5.327-10.799,5.327
		c-1.301,0-2.47-0.174-3.39-0.421c-1.205-0.324-2.055-0.789-2.413-1.298c-0.501,0.197-1.134,0.216-1.833,0.046
		c-1.996-0.487-4.971-2.668-7.337-7.323c-2.427-4.768-1.523-8.445,0.315-11.677c-5.847-1.034-8.823-7.43-9.043-8.332
		c-0.084-0.335-0.084-0.722-0.085-1.168c-0.001-0.802-0.001-1.799-0.542-2.815c-0.934-1.744,0.033-5.855,1.451-7.873
		c3.095-3.753,6.447-6.068,10.004-6.939c-1.438-2.801-0.584-7.294-0.112-9.765l0.063-0.331c0.476-2.481,6.163-7.982,9.539-8.657
		c2.005-0.396,7.843,1.071,12.233,5.226c1-1.519,3.687-3.706,5.981-5.24c1.678-1.122,5.806-3.664,7.836-3.058l0.907,0.267
		c2.607,0.763,4.743,1.387,5.28,2.422c0.576-0.19,1.34-0.153,2.148,0.122c0.412,0.141,0.851,0.361,1.285,0.646
		c0.74-4.73-2.308-7.759-4.189-9.137c-1.846-1.352-4.072-2.199-5.142-1.993c-0.202-0.541-0.668-0.956-1.384-1.229
		c-2.978-1.154-9.58,0.381-10.606,1.125c-0.429,0.315-0.641,0.546-0.791,0.707c-0.269,0.282-0.377,0.405-1.483,0.668
		c-0.923-0.169-1.799,0.076-2.595,0.726c-2.133,1.743-3.136,6.037-3.273,8.279c-0.829-0.744-1.804-1.46-2.868-2.006
		c-2.312-1.187-4.573-1.394-6.551-0.584c-4.205,1.714-4.657,3.814-4.624,5.021c-0.622-0.594-1.54-0.961-2.609-1.028
		c-2.839-0.179-5.867,1.696-8.175,5.011c-4.586,6.588-2.562,14.039-1.469,18.045l0.039-0.014c-1.475,0.909-2.312,2.473-2.929,3.66
		c-0.358,0.688-0.669,1.28-0.961,1.469c-1.286,0.814-2.538,3.838-2.538,5.5c0,0.396-0.123,0.63-0.301,0.999
		c-0.453,0.904-1.21,2.42-1.13,8.359c0.113,8.74,9.97,10.777,12.89,11.193c-1.342,2.853-2.28,6.507-1.475,9.843
		c0.753,3.115,2.868,5.49,6.297,7.072c0.075,1.988,6.479,5.124,10.968,6.688l0.113,0.037l0.099-0.056
		c0.575-0.367,2.792-1.038,4.945-1.686c2.11-0.641,4.271-1.3,5.383-1.8c1.644,2.966,4.511,5.002,8.533,6.047
		c0.914,0.216,1.856,0.31,2.676,0.404c0.918,0.094,2.053,0.217,2.085,0.491c0.113,0.743,1.041,0.923,2.271,0.923
		c0.438,0,0.918-0.019,1.407-0.048c0.127-0.009,0.292-0.019,0.481-0.029c2.067-0.103,6.912-0.348,8.504-2.298
		c0.344-0.423,0.519-0.894,0.519-1.422c0.075,0.038,0.146,0.076,0.217,0.122c0.97,0.546,1.874,0.707,4.752-2.175
		c4.751-4.747,5.283-9.776,5.255-11.995c3.763-0.441,6.678-2.772,8.798-4.497c0.395-0.32,0.771-0.62,1.111-0.886
		c2.726-2.062,2.877-3.933,2.971-5.048c0.027-0.335,0.052-0.603,0.122-0.772C94.757,67.035,98.299,64.402,97.173,57.731z"/>
	<path fill="#1A1A1A" d="M43.858,57.006c-0.265-0.067-0.525-0.145-0.782-0.23l-0.42,0.509c-0.121,0.483-0.215,1.009-0.285,1.562
		C42.966,58.084,43.515,57.418,43.858,57.006z"/>
	<path fill="#1A1A1A" d="M47.992,36.512c0.076,0.273,0.134,0.542,0.167,0.8c0.651,0.068,1.286,0.187,1.897,0.353
		c-1.389-3.74-1.326-7.56-1.272-8.647c-0.04,0.001-0.078-0.001-0.108-0.014c-0.282-0.132-0.382-1.056-0.207-1.441
		c0.169-0.396,0.622-0.57,1.012-0.396c0.391,0.169,0.566,0.622,0.396,1.013c-0.143,0.328-0.688,0.765-1.028,0.829l1.3,8.678
		c0.529,0.147,1.035,0.339,1.527,0.553c0.264-1.756,0.936-4.322,1.218-5.367c-0.048,0.005-0.091,0.002-0.125-0.013
		c-0.26-0.117-0.35-0.974-0.189-1.342c0.16-0.358,0.585-0.518,0.942-0.358c0.014,0.006,0.022,0.018,0.036,0.024l0.108-1.363
		c-0.301-0.091-0.747-0.591-0.827-0.921c-0.1-0.387,0.137-0.773,0.518-0.867c0.382-0.094,0.768,0.14,0.867,0.518
		c0.095,0.386-0.137,1.215-0.419,1.281c-0.035,0.009-0.075,0.008-0.119-0.003c0.014,0.24,0.042,0.776,0.065,1.49
		c0.192,0.202,0.256,0.509,0.139,0.783c-0.025,0.055-0.067,0.115-0.113,0.175c0.026,1.399,0.016,3.146-0.125,4.676
		c0.555-0.351,1.138-0.65,1.642-0.881l0.946-2.285c-0.001-0.001-0.004,0-0.006-0.001c-0.253-0.112-0.348-0.97-0.183-1.332
		c0.154-0.363,0.579-0.523,0.938-0.373c0.367,0.169,0.527,0.584,0.367,0.952c-0.156,0.346-0.804,0.827-1.09,0.757
		c-0.178,0.534-0.513,1.359-0.887,2.242c0.452-0.204,0.825-0.352,1.029-0.43c-0.02-0.027-0.04-0.055-0.047-0.083
		c-0.07-0.301,0.607-0.932,1.018-1.026c0.414-0.1,0.828,0.16,0.923,0.564c0.099,0.416-0.16,0.829-0.57,0.933
		c-0.356,0.082-1.055-0.1-1.292-0.347l-1.307,0.967c-0.465,1.08-0.946,2.162-1.236,2.828l-0.021,0.053
		c0.74,0.544,1.395,1.178,1.96,1.876c0.426-1.458,0.946-2.82,1.231-3.532c-0.028-0.01-0.059-0.019-0.078-0.037
		c-0.23-0.198-0.057-1.111,0.225-1.422c0.274-0.32,0.755-0.358,1.084-0.085c0.315,0.283,0.348,0.763,0.07,1.083
		c-0.242,0.28-0.935,0.552-1.262,0.479l-1.185,3.619c0.248,0.313,0.479,0.636,0.687,0.975c0.174-0.155,0.363-0.32,0.57-0.5
		l0.826-1.537c-0.231-0.169-0.312-0.964-0.159-1.312c0.155-0.367,0.58-0.526,0.942-0.367c0.362,0.161,0.522,0.584,0.362,0.942
		c-0.143,0.349-0.774,0.818-1.068,0.769c-0.084,0.31-0.285,0.734-0.532,1.186c1.15-0.987,2.535-2.112,3.155-2.376
		c-0.048-0.056-0.085-0.112-0.09-0.167c-0.033-0.306,0.72-0.843,1.144-0.88c0.42-0.047,0.796,0.263,0.839,0.683
		c0.009,0.083-0.006,0.161-0.023,0.238c3.812-3.334,4.51-6.977,4.95-9.285c0.165-0.868,0.285-1.496,0.529-1.91
		c1-1.697,0.983-6.437-0.037-9.944c-0.575-1.979-2.101-3.134-3.337-3.554c-0.797-0.272-1.556-0.27-1.931,0.005l-0.586,0.428v-0.725
		c0-0.816-2.707-1.607-4.882-2.243l-0.911-0.268c-2.627-0.792-11.526,5.547-13.069,8.113C46.244,22.767,49.3,28.06,47.992,36.512z"
		/>
	<path fill="#1A1A1A" d="M30.334,52.114c-0.026-0.039-0.058-0.073-0.076-0.119c-0.132-0.341,0.033-0.722,0.377-0.854
		c0.328-0.126,1.07-0.02,1.207,0.209c0.41-0.176,1.173-0.406,1.999-0.634c-1.784,0.017-3.74,0.389-5.712,1.313
		c0.292,0.025,0.583,0.115,0.67,0.247C29.202,52.235,29.726,52.178,30.334,52.114z"/>
	<path fill="#1A1A1A" d="M35.936,49.104l-3.294,0.938c1.221-0.114,2.384-0.062,3.45,0.097c0.033-0.009,0.07-0.019,0.101-0.025
		C36.088,49.783,36.003,49.446,35.936,49.104z"/>
	<path fill="#1A1A1A" d="M56.467,56.752c0.31-0.035,0.871,0.725,0.918,1.156c0.047,0.435-0.259,0.82-0.688,0.868
		c-0.434,0.046-0.819-0.266-0.867-0.693c-0.038-0.321,0.161-0.889,0.396-1.169l-1.887-2.149c-0.245,0.204-0.502,0.396-0.767,0.577
		c0.373,0.475,0.726,1.03,0.906,1.609c0.003,0,0.006-0.002,0.009-0.002c0.287-0.029,0.801,0.668,0.843,1.063
		s-0.236,0.749-0.636,0.791c-0.396,0.042-0.749-0.236-0.791-0.63c-0.04-0.339,0.199-0.957,0.451-1.158l-1.036-1.502
		c-0.441,0.286-0.905,0.542-1.392,0.77c0.135,0.153,0.253,0.331,0.334,0.521c0.021-0.009,0.04-0.023,0.06-0.025
		c0.283-0.027,0.792,0.674,0.839,1.063c0.048,0.396-0.235,0.754-0.626,0.802c-0.401,0.037-0.754-0.24-0.802-0.641
		c-0.033-0.312,0.172-0.871,0.406-1.109l-0.399-0.531c-0.611,0.271-1.253,0.492-1.921,0.659c0.143,1.055,0.254,2.39,0.053,3.347
		c0.253,0.192,0.513,0.812,0.477,1.157c-0.033,0.396-0.381,0.683-0.777,0.649c-0.396-0.038-0.688-0.386-0.649-0.781
		c0.033-0.35,0.42-0.941,0.714-1.061l-0.019-1.141c-0.139,0.108-0.313,0.169-0.499,0.152c-0.395-0.038-0.688-0.392-0.65-0.781
		c0.031-0.321,0.365-0.854,0.645-1.022l-0.058-0.348c-0.431,0.079-0.872,0.127-1.32,0.157c0.057,0.38,0.089,0.847,0.033,1.322
		c0.286,0.069,0.614,0.816,0.583,1.193c-0.033,0.401-0.382,0.688-0.781,0.65c-0.192-0.013-0.357-0.106-0.473-0.24
		c-0.03,0.456-0.112,0.894-0.267,1.264c0.038,0.474,0.052,0.932,0.035,1.346c0.281,0.082,0.613,0.811,0.577,1.201
		c-0.038,0.39-0.387,0.683-0.777,0.641c-0.4-0.039-0.693-0.387-0.655-0.772c0.031-0.328,0.364-0.857,0.646-1.025l-0.3-3.239
		l-0.859,3.572c0.24,0.224,0.468,0.789,0.435,1.107c-0.029,0.396-0.378,0.687-0.778,0.648c-0.395-0.037-0.687-0.381-0.649-0.772
		c0.038-0.405,0.527-1.111,0.819-1.082c0.006,0,0.012,0.005,0.018,0.005c0.146-1.206,0.568-2.788,0.958-4.084l-0.159-1.729
		c-0.528-0.031-1.048-0.086-1.553-0.181l-2.323,6.656c0.012,0.176,0.028,0.35,0.042,0.525c0.127,0.282,0.172,0.753,0.095,1.036
		c0.247,2.321,0.693,4.506,1.211,5.983c1.395,3.977,5.332,8.776,8.131,8.776l0.124,0.022c4.812,1.739,9.494,2.765,13.882-3.713
		c0.614-0.722,1.149-1.267,1.622-1.748c0.619-0.63,1.154-1.176,1.693-1.9c0.926-1.234,3.662-5.671,1.146-11.898
		c-0.954,0.377-1.974,0.578-3.061,0.578c-0.97,0-1.987-0.152-3.047-0.458c-3.061-0.879-6.065-2.98-8.175-5.097
		c0.19,0.266,0.364,0.538,0.494,0.829C56.438,56.765,56.452,56.752,56.467,56.752z"/>
	<path fill="#1A1A1A" d="M27.854,47.736c0.146,0.032,0.264,0.083,0.309,0.161c0,0.001,0,0.001,0,0.002
		c0.209-0.054,0.451-0.111,0.726-0.172c0.049-0.013,0.092-0.025,0.144-0.039l-1.121-0.011
		C27.894,47.699,27.877,47.718,27.854,47.736z"/>
	<path fill="#1A1A1A" d="M56.804,51.828c-0.126,0.226-0.26,0.445-0.402,0.659l1.679,0.394
		C57.607,52.629,57.158,52.215,56.804,51.828z"/>
	<path fill="#1A1A1A" d="M28.055,47.427c0.003,0.058-0.031,0.125-0.086,0.192c0.343-0.032,0.882-0.047,1.53-0.049
		c0.16-0.04,0.329-0.082,0.506-0.125l-1.957-0.039C28.049,47.413,28.055,47.42,28.055,47.427z"/>
	<path fill="#1A1A1A" d="M35.792,46.547c0.001-0.011,0.001-0.022,0.002-0.034l-0.15,0.029
		C35.696,46.542,35.743,46.546,35.792,46.547z"/>
	<path fill="#1A1A1A" d="M38.427,57.024l3.64-0.634c-0.563-0.245-1.102-0.527-1.608-0.853
		C39.997,55.904,39.282,56.445,38.427,57.024z"/>
	<path fill="#1A1A1A" d="M31.251,47.471l-0.696,0.105c1.819,0.023,4.014,0.103,5.218,0.151c-0.002-0.056-0.008-0.112-0.01-0.167
		L31.251,47.471z"/>
	<path fill="#1A1A1A" d="M31.861,51.395c0.032,0.141-0.095,0.377-0.272,0.588c1.778-0.187,3.812-0.401,5.146-0.536
		c-0.081-0.161-0.152-0.328-0.224-0.493c-0.713-0.135-1.482-0.218-2.288-0.232L31.861,51.395z"/>
	<polygon fill="#1A1A1A" points="36.206,50.155 36.205,50.155 36.206,50.155 	"/>
	<path fill="#1A1A1A" d="M34.658,55.7l4.539-1.104c-0.356-0.31-0.69-0.636-0.999-0.983C37.521,54.033,36.141,54.871,34.658,55.7z"/>
	<path fill="#1A1A1A" d="M39.081,40.129l-0.01-0.006c-0.077-0.217-0.193-0.45-0.34-0.692c-1.127-1.141-2.83-2.677-4.957-4.03
		c0.887,0.727,1.895,1.523,2.874,2.226l2.042,2.263l-1.575-0.964c0.294,0.267,0.564,0.523,0.812,0.765
		c0.359,0.215,0.7,0.413,1.003,0.579"/>
	<path fill="#1A1A1A" d="M34.222,50.721l1.983-0.565c-0.038-0.006-0.075-0.011-0.113-0.017c-0.641,0.155-1.47,0.364-2.25,0.578
		C33.97,50.716,34.096,50.719,34.222,50.721z"/>
	<path fill="#1A1A1A" d="M19.734,59.222c-0.029-0.004-0.055-0.014-0.083-0.017c-0.137,0.22-0.268,0.444-0.396,0.672
		c0.128,0.021,0.252,0.057,0.383,0.073L19.734,59.222z"/>
</g>
</svg>
