<?xml version="1.0" encoding="utf-8"?>
<!-- Generator: Adobe Illustrator 16.0.0, SVG Export Plug-In . SVG Version: 6.00 Build 0)  -->
<!DOCTYPE svg PUBLIC "-//W3C//DTD SVG 1.1//EN" "http://www.w3.org/Graphics/SVG/1.1/DTD/svg11.dtd">
<svg version="1.1" id="Layer_1" xmlns="http://www.w3.org/2000/svg" xmlns:xlink="http://www.w3.org/1999/xlink" x="0px" y="0px"
	 width="100px" height="100px" viewBox="0 0 100 100" enable-background="new 0 0 100 100" xml:space="preserve">
<g>
	<path fill="#B3B3B3" d="M1.562,72.465c0,0,1.7,4.121,6.131,4.137c0,0-0.849,1.9-6.023-2.197c0,0,0.054,1.617,1.456,2.643
		c0,0-0.97-0.055,0.592,1.023c1.563,1.078,5.174,2.264,7.383,2.641c0,0,2.479,0.594,2.963,1.887
		c0.486,1.293-0.862,1.992,0.055,2.746c0.916,0.756,2.802,0.434,2.91-1.562c0.107-1.992-0.7-3.555-5.928-4.148
		c0,0-0.862-0.217,0.107-0.377c0.971-0.162,1.347,0.592,2.21,0.053c0.862-0.539,1.023-1.186,0.754-1.562
		c-0.269-0.377-2.157-0.484-3.718-0.16c0,0-0.593-0.432,0.269-0.701c0.863-0.27,1.887,0.861,3.181-0.539
		c1.293-1.402,2.264-2.695,1.94-3.125c-0.324-0.432-0.594-0.916-1.671,0.592c0,0-0.269,0.217-0.377,0.055
		c-0.107-0.16,1.131-1.295,1.401-1.832c0.27-0.539,0.432-3.666-0.485-4.367c-0.916-0.699-1.077,0.109-1.186,0.701
		c-0.106,0.594,0.378,1.078,0.109,1.293c-0.27,0.217-0.323-3.125-2.048-3.395c-1.725-0.27-2.21-0.053-2.856,0.756
		c-0.646,0.807-1.24,2.963,0.107,4.094c1.348,1.133,2.157-0.969,2.372-1.186c0.216-0.215,0.323-1.455-0.97-1.078
		c-1.293,0.379-0.054-0.646,0.216-0.592c0.269,0.053,1.617,0.162,1.509,2.102c0,0,0.485,1.348,0.108,1.832
		c-0.378,0.486-0.162-1.293-0.701-1.186c-0.539,0.107-0.916,1.133-0.97,1.617c-0.055,0.484-0.701,2.91-1.402,2.695
		c-0.7-0.217,1.563-1.725,0.754-2.75c-0.808-1.023-0.754-0.107-0.917,0.217C8.676,73.111,6.413,77.1,1.562,72.465z"/>
	<path fill="#B3B3B3" d="M4.634,61.688c0,0-3.557,2.963-1.562,6.736c0,0,0.27,0.27,0.808-0.162c0.54-0.432,1.456-1.615,1.456-2.371
		c0-0.754-1.509,0.539-1.886,0.971c-0.377,0.43-0.323-1.24,2.263-1.941c0,0,0.862-0.322,0.107-0.809c0,0,0.701-0.43,0.216-0.646
		c0,0,2.156,0.055,1.079-0.861c-1.079-0.916-1.725,0.27-1.886,0.592c-0.162,0.324-0.432,0.379-0.432,0.055s1.294-1.939,1.833-1.4
		c0.539,0.539,1.24,0.699,1.617,0.754c0.377,0.053,1.293-1.508,1.455-1.293s-0.054-2.857-1.67-2.156
		c-1.617,0.701-0.216-0.377-0.485-0.646c-0.271-0.27-1.78-0.055-2.857,1.293c-1.078,1.348,0-0.215,0-0.215s1.347-1.672,0.808-1.941
		c-0.538-0.27-1.346-0.053-1.346,0.324s-0.055-1.295-0.863-0.27c-0.809,1.023-1.401,2.803-1.725,1.67
		c-0.324-1.131,0.917-3.232-0.269-2.908c-1.186,0.322-1.079,0.645-2.102,3.447c-1.025,2.803,0.916,2.264,1.347,2.318
		c0.432,0.053-2.101,3.988,0.755,5.496c0,0,1.024,0.809,0.593-0.592C1.455,65.729,2.424,61.58,4.634,61.688z"/>
	<path fill="#B3B3B3" d="M98.438,72.285c0,0-1.701,4.121-6.132,4.137c0,0,0.85,1.9,6.024-2.195c0,0-0.055,1.615-1.456,2.641
		c0,0,0.971-0.053-0.592,1.023c-1.563,1.078-5.174,2.264-7.385,2.641c0,0-2.479,0.594-2.964,1.887
		c-0.486,1.293,0.863,1.994-0.055,2.748c-0.916,0.754-2.801,0.432-2.909-1.562c-0.107-1.994,0.7-3.557,5.928-4.15
		c0,0,0.862-0.215-0.107-0.377s-1.347,0.594-2.21,0.055c-0.862-0.539-1.023-1.186-0.753-1.562c0.269-0.379,2.155-0.484,3.717-0.162
		c0,0,0.593-0.432-0.269-0.701c-0.862-0.27-1.886,0.863-3.18-0.539c-1.294-1.4-2.264-2.693-1.939-3.125
		c0.322-0.432,0.591-0.916,1.671,0.592c0,0,0.269,0.217,0.376,0.055c0.106-0.162-1.132-1.295-1.401-1.832
		c-0.27-0.539-0.432-3.666,0.485-4.365c0.916-0.701,1.078,0.107,1.187,0.699c0.106,0.594-0.378,1.078-0.108,1.295
		c0.271,0.215,0.324-3.125,2.048-3.396c1.724-0.27,2.209-0.053,2.855,0.754c0.646,0.809,1.239,2.965-0.107,4.096
		c-1.347,1.133-2.155-0.969-2.371-1.184c-0.215-0.215-0.323-1.455,0.97-1.078s0.055-0.646-0.216-0.594
		c-0.269,0.055-1.616,0.162-1.508,2.104c0,0-0.485,1.346-0.108,1.832c0.378,0.484,0.162-1.293,0.7-1.186
		c0.54,0.105,0.916,1.131,0.97,1.615c0.055,0.486,0.701,2.91,1.401,2.693c0.702-0.215-1.562-1.723-0.755-2.748
		c0.809-1.023,0.755-0.107,0.917,0.217S93.587,76.92,98.438,72.285z"/>
	<path fill="#B3B3B3" d="M95.365,61.508c0,0,3.557,2.963,1.562,6.736c0,0-0.269,0.27-0.807-0.162
		c-0.54-0.432-1.456-1.615-1.456-2.369c0-0.756,1.509,0.537,1.887,0.969c0.376,0.432,0.323-1.24-2.264-1.941
		c0,0-0.862-0.322-0.107-0.807c0,0-0.701-0.432-0.215-0.646c0,0-2.156,0.053-1.078-0.863s1.723,0.27,1.887,0.592
		c0.16,0.324,0.431,0.379,0.431,0.055c0-0.322-1.295-1.939-1.834-1.4c-0.538,0.539-1.239,0.699-1.615,0.754
		c-0.377,0.055-1.293-1.508-1.456-1.293c-0.162,0.215,0.054-2.857,1.671-2.156c1.617,0.699,0.216-0.377,0.485-0.646
		s1.778-0.055,2.854,1.293c1.079,1.348,0-0.215,0-0.215s-1.345-1.672-0.807-1.941c0.539-0.27,1.347-0.053,1.347,0.324
		s0.055-1.293,0.863-0.27c0.808,1.023,1.401,2.801,1.725,1.67s-0.917-3.232,0.269-2.908c1.187,0.324,1.079,0.646,2.104,3.449
		c1.023,2.801-0.917,2.262-1.348,2.316c-0.432,0.055,2.102,3.988-0.756,5.496c0,0-1.024,0.809-0.592-0.592
		C98.545,65.549,97.575,61.4,95.365,61.508z"/>
</g>
<g>
	<path fill="#808080" d="M2.479,57.43c0,0,1.562-0.969,1.886-0.646c0.324,0.322,4.204-7.977,11.857-2.695
		c0,0-7.114-4.042-11.264,3.018c0,0,1.023,0.107,1.023,0.701c0,0,2.318-0.377,2.911,0.646c0,0,0.54-0.539,0-1.078
		c-0.539-0.539,0.808,0,0.862,0.324c0.054,0.324-0.161,0.594,0.27,0.754c0.432,0.162,0.054,1.295,1.132,0.484
		c0,0,1.347,0.811,1.186-0.484c0,0,0.377-0.107,0.216-0.592c-0.163-0.486,0.161-1.078-0.755-1.293
		c-0.917-0.217-0.838-0.617-0.446-0.875c0.392-0.258,0.686,0.475,0.754,0c0.07-0.473-1.602-1.928-3.542-0.689
		c0,0-0.484-0.377,0.269-0.646c0.755-0.27,3.289-0.432,3.72,0.916c0.43,1.348,0.538,1.51,0.916,1.4
		c0.377-0.105,0.24,1.596,0.793-0.98c0,0,0.662,0.551,0.5,1.09c-0.162,0.539-0.216,0.861,0.215,1.186
		c0.432,0.324,2.318,2.049,2.479-0.971c0,0,0-1.305-0.176-1.305c-0.177,0,0.337-1.336,1.093,1.197
		c0.754,2.533-0.593,2.047-0.971,2.264c-0.376,0.215-1.831,2.479-0.215,2.91c1.617,0.432,4.203,0.27,4.85-4.527
		c0.646-4.797-5.012-6.844-6.466-6.844c0,0,3.341,2.047,2.802,3.125c-0.539,1.078-0.27-3.503-6.521-2.803
		c0,0-0.055-0.539,1.078-0.915c1.131-0.378,1.455-1.672,0.916-2.157c-0.539-0.484-0.054,0.646-0.916,0.593
		c-0.862-0.053,2.047-1.885-0.27-3.556c0,0,0.162,0.592-0.484,1.078c-0.648,0.484-0.755-2.103-3.181-0.162
		c0,0-0.862,0.809,0.647,2.209c1.509,1.401,1.994-1.939,0.755-1.671c0,0-0.324-0.646,0.484-0.376c0.808,0.27,1.294,1.4,0.593,2.155
		c-0.7,0.753-0.323,0.485-0.107,0.701c0.216,0.214-4.257-0.972-4.581,3.772c0,0-1.617,0.27-2.048,1.023
		c-0.431,0.756-0.539-0.215-0.108-0.646c0.431-0.432,1.886-1.023,1.94-1.24c0.054-0.215-0.323-0.754-0.755-0.969
		c-0.431-0.215-0.376-1.024,0-1.024c0.378,0,0.216-2.048-0.808-1.562c-1.024,0.485-2.425-0.108-0.539,1.993
		c0,0,0.108,1.133-0.808,1.186c-0.916,0.055-1.294,1.832-0.755,2.855c0.539,1.025,0.055,1.24-0.592,1.188
		c-0.647-0.055-0.216,0.916-0.162,1.4c0.054,0.484,0.323,0.701,0.323,0.701"/>
	<path fill="#808080" d="M97.521,57.25c0,0-1.562-0.969-1.885-0.645c-0.326,0.322-4.205-7.978-11.857-2.697
		c0,0,7.112-4.042,11.264,3.02c0,0-1.024,0.107-1.024,0.701c0,0-2.316-0.379-2.909,0.645c0,0-0.54-0.539,0-1.078
		c0.538-0.537-0.81,0-0.864,0.324c-0.052,0.324,0.162,0.594-0.27,0.754c-0.431,0.162-0.053,1.293-1.13,0.486
		c0,0-1.348,0.807-1.187-0.486c0,0-0.377-0.107-0.215-0.592c0.161-0.486-0.162-1.076,0.753-1.293
		c0.917-0.217,0.838-0.615,0.446-0.873c-0.392-0.26-0.685,0.473-0.755,0c-0.067-0.475,1.604-1.93,3.543-0.691
		c0,0,0.484-0.377-0.27-0.646c-0.755-0.27-3.287-0.43-3.718,0.918c-0.432,1.346-0.54,1.51-0.916,1.4
		c-0.378-0.107-0.24,1.594-0.793-0.98c0,0-0.663,0.549-0.502,1.09c0.162,0.537,0.215,0.859-0.214,1.184
		c-0.432,0.324-2.318,2.047-2.48-0.971c0,0,0-1.303,0.177-1.303s-0.337-1.338-1.093,1.195c-0.753,2.533,0.593,2.049,0.971,2.264
		c0.377,0.215,1.832,2.48,0.216,2.91c-1.617,0.432-4.205,0.27-4.852-4.525c-0.646-4.797,5.013-6.845,6.468-6.845
		c0,0-3.341,2.048-2.803,3.125c0.54,1.078,0.271-3.502,6.521-2.802c0,0,0.056-0.538-1.078-0.916
		c-1.132-0.376-1.454-1.671-0.916-2.154c0.54-0.486,0.054,0.646,0.916,0.592s-2.047-1.886,0.271-3.557c0,0-0.162,0.593,0.484,1.078
		c0.646,0.484,0.755-2.102,3.179-0.162c0,0,0.862,0.809-0.646,2.21c-1.508,1.401-1.994-1.941-0.755-1.671
		c0,0,0.324-0.646-0.484-0.377c-0.808,0.269-1.293,1.4-0.592,2.155c0.7,0.755,0.323,0.485,0.106,0.7
		c-0.215,0.216,4.259-0.969,4.581,3.773c0,0,1.616,0.27,2.047,1.023c0.433,0.754,0.54-0.215,0.109-0.646
		c-0.432-0.43-1.887-1.023-1.94-1.238c-0.055-0.217,0.323-0.755,0.755-0.971c0.43-0.216,0.376-1.024,0-1.024
		c-0.378,0-0.215-2.047,0.808-1.562c1.024,0.485,2.426-0.107,0.539,1.994c0,0-0.106,1.132,0.809,1.185
		c0.916,0.055,1.294,1.834,0.755,2.857s-0.054,1.238,0.592,1.186c0.648-0.055,0.217,0.916,0.163,1.4s-0.324,0.701-0.324,0.701"/>
</g>
<g>
	<path fill="#4D4D4D" d="M-0.108,66.969c0,0,0.821,2.455,4.311,2.803c3.49,0.348,0.054,1.238-0.378,1.238
		c-0.431,0,0.378,0.486,2.534,0.055s2.101,0.971,2.101,0.971s0.108,2.531-3.826,1.885C0.7,73.273-0.108,66.969-0.108,66.969z"/>
	<path fill="#4D4D4D" d="M100.107,66.789c0,0-0.82,2.455-4.312,2.803c-3.49,0.348-0.054,1.24,0.377,1.24
		c0.432,0-0.377,0.484-2.532,0.053s-2.102,0.971-2.102,0.971s-0.108,2.533,3.826,1.885C99.301,73.094,100.107,66.789,100.107,66.789
		z"/>
	<g>
		<path fill="#4D4D4D" d="M17.299,42.286c0,0,1.132,2.263,2.263-0.055c1.133-2.317-1.023-2.478-1.886-2.424
			c-0.862,0.052-3.88,2.964-3.665,5.119c0.216,2.156,0.54,3.664,3.019,5.174c2.479,1.509,4.204,2.048,4.365,2.695
			c0.163,0.646,0.809,1.076,0.809,1.672c0,0.592,0.646,0.051,1.132-0.539c0.484-0.594,0.646,0.861,1.293,0.861
			c0.646,0,0.431,1.078,1.186,0.432c0.754-0.646,0.646,1.4,1.347-0.057c0.701-1.453-0.862-2.154-1.616-2.424
			c0,0,1.698-0.15,2.855,1.4c1.156,1.553,1.078,0.377,1.456,0.377c0.376,0,2.695,0.434,1.994-1.938c0,0-0.755-1.133-1.293-1.078
			c-0.54,0.055,0.809-0.215,1.132-0.432c0.324-0.215,0.377-1.347-2.425-1.293c0,0,2.102-0.81,3.557-0.108c0,0,1.562-0.969,1.833-1.4
			c0,0,0.646-0.862-0.808-1.293c-1.455-0.432-1.887-0.217-2.102-0.055c-0.216,0.162,1.778-1.671,1.4-2.263
			c-0.377-0.595-0.808-2.048-1.293-0.917c0,0-0.97-3.072-2.964-2.586c0,0-0.378,0-0.217,0.592c0.162,0.594-0.269,0.809,0.162,1.294
			c0.432,0.484-1.67-1.186-1.239,0c0.432,1.186-0.97,0.808,1.132,1.886c0,0,0.161,1.133-0.107,1.617
			c-0.27,0.484-0.917-1.111-0.5-1.111c0.417,0-1.062-0.668-1.116,1.543c0,0-0.593,0.969-0.97,0.969
			c-0.378,0,0.215-0.592,0.377-1.077c0.161-0.484,0.916-1.832,0.593-2.479c-0.324-0.647-1.025-0.325-1.132,0.108
			c-0.108,0.43,0.27-1.725-0.7-1.941c-0.971-0.215-0.486-1.078-1.294,0.107c-0.808,1.187-0.054,1.563-0.323,2.426
			c-0.27,0.861-0.809,1.562-0.54,2.747c0.271,1.187-1.185,1.293-1.832,1.455c-0.646,0.162-0.324-1.348-0.055-1.4
			c0,0-0.052-0.324-0.646,0c-0.592,0.323,1.617-0.971,0.809-1.348c0,0,0.862-0.646,0.376-1.347c-0.484-0.7-0.514-0.014-0.984,0.235
			c-0.471,0.249-1.656,1.596-2.302,1.435c-0.647-0.161,0.885-0.175,0.848-1.435c-0.04-1.261-0.661-0.356-1.24,0
			c-0.579,0.356-2.14,0.356-1.925-1.421c0.214-1.78,0.7-2.209,0.97-2.049C17.299,42.124,17.46,42.017,17.299,42.286z"/>
		<path fill="#4D4D4D" d="M82.7,42.107c0,0-1.132,2.262-2.263-0.055c-1.133-2.318,1.022-2.479,1.886-2.425
			c0.861,0.054,3.88,2.964,3.664,5.12c-0.215,2.155-0.54,3.664-3.018,5.173c-2.479,1.509-4.203,2.048-4.366,2.695
			c-0.161,0.646-0.807,1.078-0.807,1.67c0,0.594-0.647,0.055-1.132-0.537c-0.485-0.594-0.646,0.861-1.293,0.861
			s-0.433,1.078-1.187,0.432c-0.755-0.648-0.647,1.4-1.347-0.055c-0.701-1.455,0.862-2.154,1.615-2.424c0,0-1.699-0.15-2.856,1.4
			c-1.154,1.553-1.077,0.377-1.455,0.377c-0.377,0-2.694,0.432-1.993-1.939c0,0,0.754-1.133,1.294-1.078
			c0.539,0.055-0.809-0.217-1.132-0.431c-0.323-0.216-0.377-1.347,2.425-1.294c0,0-2.102-0.808-3.558-0.107
			c0,0-1.562-0.97-1.832-1.401c0,0-0.646-0.862,0.808-1.294c1.456-0.431,1.888-0.215,2.103-0.053
			c0.216,0.161-1.777-1.671-1.401-2.265c0.378-0.592,0.81-2.047,1.294-0.915c0,0,0.971-3.072,2.964-2.587c0,0,0.378,0,0.217,0.593
			s0.268,0.808-0.161,1.293c-0.433,0.485,1.67-1.186,1.238,0c-0.431,1.185,0.97,0.808-1.132,1.886c0,0-0.162,1.132,0.107,1.616
			c0.271,0.484,0.917-1.112,0.5-1.112c-0.416,0,1.063-0.666,1.117,1.543c0,0,0.593,0.972,0.97,0.972s-0.216-0.594-0.377-1.078
			c-0.162-0.486-0.916-1.833-0.593-2.479s1.023-0.323,1.131,0.107c0.108,0.432-0.27-1.725,0.701-1.94
			c0.97-0.215,0.485-1.079,1.293,0.108c0.81,1.186,0.055,1.562,0.323,2.425c0.271,0.862,0.809,1.563,0.54,2.749
			c-0.27,1.186,1.186,1.293,1.832,1.455c0.646,0.161,0.322-1.347,0.054-1.401c0,0,0.054-0.323,0.646,0s-1.617-0.97-0.809-1.348
			c0,0-0.861-0.646-0.377-1.348c0.485-0.7,0.515-0.012,0.985,0.235c0.469,0.251,1.655,1.597,2.302,1.437
			c0.646-0.162-0.886-0.175-0.847-1.437c0.038-1.259,0.661-0.355,1.238,0c0.579,0.358,2.143,0.358,1.926-1.421
			c-0.216-1.778-0.7-2.209-0.97-2.048C82.7,41.945,82.538,41.837,82.7,42.107z"/>
	</g>
</g>
</svg>
