<?xml version="1.0" encoding="utf-8"?>
<!-- Generator: Adobe Illustrator 16.0.0, SVG Export Plug-In . SVG Version: 6.00 Build 0)  -->
<!DOCTYPE svg PUBLIC "-//W3C//DTD SVG 1.1//EN" "http://www.w3.org/Graphics/SVG/1.1/DTD/svg11.dtd">
<svg version="1.1" id="Layer_1" xmlns="http://www.w3.org/2000/svg" xmlns:xlink="http://www.w3.org/1999/xlink" x="0px" y="0px"
	 width="100px" height="100px" viewBox="0 0 100 100" enable-background="new 0 0 100 100" xml:space="preserve">
<g>
	<path fill="#999999" d="M52.723,44.633c0,0-1.396-0.667-2.004-0.121c-0.607,0.545,0,3.035,2.61,2.67
		c2.61-0.363,3.217,0.487,3.521,1.153c0.305,0.668-0.182-0.667-1.699-0.243c-1.517,0.425-3.094,2.186-0.789,2.915
		c2.308,0.729,1.64-0.485,2.004-0.729c0.363-0.243,0.669,0.365,0.304,0.85c-0.362,0.483-2.126,1.458-1.336,2.61
		c0.789,1.152,1.519,2.486,2.731,1.517c1.215-0.971,1.578-0.728,1.396-1.819c-0.182-1.093,0.742-0.014,0.582,0.569
		c-0.156,0.582-0.218,1.738,0.814,0.765c1.031-0.97,2.427-1.517,1.396-4.43c0,0,2.124,2.002,0.243,4.371
		c-1.883,2.366-1.032,1.456-0.668,2.123c0.363,0.668,1.82,0.243,2.549,0.243s2.549-1.031,2.732-1.821
		c0.183-0.788,2.259,1.383,2.16-1.25c-0.098-2.634-2.524-5.852-3.619-5.79c0,0-0.483-0.062-0.483,0.426
		c0,0.485-0.487-1.944,0.425-1.64c0.91,0.303,0,0.485,0.485,0.789c0.485,0.303,3.884,1.7,3.884,0.607
		c0-1.093-0.12-1.822-1.577-2.792c-1.458-0.972-1.214-2.063-2.003-2.67c-0.789-0.608-2.004-1.458-2.55-0.791
		c-0.547,0.67,0,5.827-4.917,5.462c0,0,7.893-3.702,0.911-8.678c0,0,7.103,2.426,9.954-4.006c0,0,1.64,4.794-5.889,4.854
		c0,0-1.699-0.061,0.364,1.032c2.062,1.093,10.685,3.763,13.597-4.127c0,0,1.032-0.91,1.092,0.182
		c0.062,1.093-1.152,1.639-0.424,2.367c0.729,0.729,2.488,1.699,3.521-0.667c1.033-2.366-2.913-6.069-4.249-5.341
		c-1.334,0.729-0.971-1.579-2.003-1.093c-1.031,0.485,1.942-2.124,0.485-3.703c0,0,0.91,0.244,0.91,0.67
		c0,0.423-0.483,2.062,0.606,2.184c1.094,0.121,3.644-0.485,1.033-3.582c0,0-1.397-1.456-1.397-2.001
		c0-0.548,0.305-0.607,0.305-0.607s-0.972-0.971-2.186,0c-1.214,0.971-5.038,1.82-5.402,2.185c-0.363,0.363-2.486-0.972-4.369,5.766
		c0,0-0.062-6.01,3.945-6.737c0,0,0.485-0.424-0.183-1.032c0,0,3.217,0,4.127-0.788c0,0,1.151,0.18,1.151-0.607
		c0-0.791-0.06-1.579-0.483-1.761c-0.425-0.182,1.214,0.182,2.125,1.517c0,0,0.922,0.438,0.34-0.782c0,0,0.802-0.843-0.412-1.66
		c-0.053-0.036-0.108-0.07-0.172-0.107c-1.456-0.85,0.487-0.606,0.972-0.303c0,0,0.305,1.759,1.336,1.759
		c0,0,2.308-0.79,0.305-2.549c0,0-0.85-2.428-3.521-1.639c0,0-0.305,0.607-0.789,0.851c-0.484,0.243,0.547-5.523,0.971-5.039
		c0.426,0.486,0.91-1.457,1.883,0.365c0,0-2.489,0.425-0.365,2.063c2.124,1.637,2.368-0.972,2.368-1.397
		c0-0.423-0.669-4.37-3.338-4.006c-2.671,0.365-2.854,1.699-2.854,2.187c0,0.484-0.605-3.522-2.912-2.49
		c0,0,0.971,0.668,0.426,2.852c0,0-1.7-5.765-6.07-6.009c-4.37-0.242-3.702-0.425-4.855,0.911c-1.152,1.335-1.031,3.277,0.363,4.736
		c1.396,1.457,4.311,0.242,2.489-1.64c0,0-1.214-1.821,1.214-0.364c0,0,1.032,0.424,0.85,1.031s0.242,1.396,1.215,1.7
		c0,0-0.364,0.911-1.76-0.485c0,0-0.852,0.849,0.545,2.488s0.851,1.214,0.486,1.275c-0.365,0.06-1.82-2.367-2.55-1.882
		c-0.729,0.486-0.972,2.731,0.425,4.25c1.396,1.517,0.789,1.699,0.425,1.699s-2.063-5.159-4.854-2.974c0,0,2.912,3.824,2.486,4.552
		c-0.425,0.729,2.248-3.702,1.821,2.914c0,0,6.921-3.824,6.437-9.165c0,0,0.303-0.425,0.484-0.061c0,0,1.821,4.31-6.557,10.015
		c0,0,1.457,3.825-0.85,4.795c0,0,0.85,3.703-1.942,2.611c0,0-0.788,0.364-1.457,1.639c0,0-0.304,0.182-0.788,0.243
		c-0.486,0.06-3.704-2.125-4.188-1.7c0,0,2.062,1.76,0.181,4.734c0,0,3.825,0.241,4.067,1.033c0,0,1.64,1.821,0.363,3.58
		c-1.273,1.761-3.275,0.79-3.398-0.061c-0.123-0.85,0.183-2.429,0.729-2.306c0.546,0.121,0.182,0,0.182,0s-0.728,1.517,0.486,1.699
		s1.881-0.85,1.153-1.759c-0.729-0.91-1.457-1.7-2.489-1.214c-1.031,0.484-2.792,1.518-2.609,3.459
		C52.902,45.423,52.479,44.513,52.723,44.633z"/>
	<path fill="#999999" d="M46.828,44.412c0,0,1.395-0.666,2.002-0.121c0.608,0.546,0.001,3.036-2.61,2.669
		c-2.609-0.363-3.217,0.486-3.521,1.155c-0.303,0.667,0.183-0.668,1.7-0.244c1.518,0.425,3.095,2.186,0.79,2.914
		c-2.308,0.729-1.64-0.485-2.004-0.728c-0.364-0.243-0.667,0.364-0.304,0.849c0.365,0.486,2.125,1.455,1.336,2.609
		c-0.789,1.154-1.517,2.488-2.731,1.519c-1.214-0.972-1.579-0.728-1.396-1.821c0.182-1.092-0.741-0.013-0.583,0.571
		c0.159,0.581,0.218,1.735-0.814,0.765c-1.031-0.971-2.427-1.52-1.396-4.432c0,0-2.124,2.004-0.243,4.371
		c1.882,2.367,1.032,1.455,0.669,2.125c-0.364,0.666-1.821,0.242-2.55,0.242c-0.728,0-2.549-1.032-2.731-1.821
		s-2.259,1.383-2.162-1.25c0.098-2.636,2.525-5.851,3.618-5.792c0,0,0.485-0.059,0.485,0.426s0.485-1.943-0.425-1.64
		c-0.911,0.305,0,0.485-0.485,0.79c-0.486,0.303-3.886,1.7-3.886,0.606c0-1.091,0.122-1.819,1.579-2.792
		c1.457-0.971,1.214-2.062,2.003-2.669c0.789-0.608,2.003-1.457,2.55-0.789c0.546,0.667,0,5.827,4.916,5.462
		c0,0-7.89-3.703-0.91-8.679c0,0-7.102,2.427-9.953-4.007c0,0-1.639,4.796,5.887,4.855c0,0,1.7-0.059-0.365,1.032
		c-2.063,1.094-10.682,3.764-13.595-4.127c0,0-1.032-0.911-1.092,0.182c-0.061,1.093,1.153,1.64,0.424,2.367
		c-0.729,0.729-2.488,1.7-3.521-0.667c-1.032-2.368,2.914-6.069,4.249-5.342c1.335,0.729,0.971-1.578,2.002-1.093
		c1.033,0.487-1.942-2.123-0.485-3.702c0,0-0.911,0.242-0.911,0.668c0,0.424,0.485,2.063-0.607,2.185
		c-1.093,0.122-3.642-0.486-1.032-3.582c0,0,1.396-1.456,1.396-2.001c0-0.547-0.303-0.608-0.303-0.608s0.971-0.971,2.186,0
		c1.213,0.971,5.037,1.822,5.401,2.186c0.366,0.363,2.488-0.972,4.371,5.765c0,0,0.061-6.007-3.946-6.737
		c0,0-0.485-0.425,0.183-1.032c0,0-3.217,0-4.128-0.789c0,0-1.153,0.183-1.153-0.606c0-0.79,0.061-1.579,0.486-1.761
		c0.425-0.182-1.213,0.182-2.125,1.519c0,0-0.923,0.437-0.34-0.782c0,0-0.802-0.842,0.413-1.661
		c0.052-0.036,0.109-0.071,0.171-0.107c1.457-0.85-0.485-0.606-0.971-0.302c0,0-0.304,1.759-1.335,1.759
		c0,0-2.307-0.789-0.303-2.549c0,0,0.85-2.427,3.52-1.64c0,0,0.303,0.607,0.789,0.85c0.486,0.244-0.547-5.522-0.972-5.038
		c-0.424,0.485-0.91-1.456-1.881,0.365c0,0,2.489,0.424,0.365,2.063c-2.125,1.639-2.368-0.971-2.368-1.396
		c0-0.423,0.668-4.368,3.339-4.005c2.671,0.365,2.852,1.701,2.852,2.186c0,0.485,0.607-3.522,2.914-2.49
		c0,0-0.971,0.669-0.424,2.854c0,0,1.699-5.767,6.069-6.008c4.371-0.244,3.703-0.426,4.856,0.91
		c1.153,1.335,1.031,3.277-0.365,4.735c-1.396,1.456-4.309,0.243-2.489-1.64c0,0,1.215-1.819-1.213-0.363
		c0,0-1.033,0.424-0.851,1.031c0.182,0.607-0.243,1.398-1.213,1.701c0,0,0.364,0.908,1.76-0.486c0,0,0.85,0.848-0.546,2.487
		c-1.395,1.64-0.85,1.214-0.485,1.275c0.364,0.061,1.821-2.368,2.549-1.881c0.729,0.485,0.972,2.73-0.424,4.248
		c-1.396,1.517-0.789,1.699-0.425,1.699c0.364,0,2.064-5.159,4.855-2.975c0,0-2.913,3.825-2.488,4.554
		c0.424,0.729-2.246-3.703-1.821,2.913c0,0-6.918-3.824-6.433-9.166c0,0-0.303-0.423-0.486-0.061c0,0-1.821,4.311,6.556,10.015
		c0,0-1.457,3.825,0.849,4.796c0,0-0.849,3.702,1.942,2.609c0,0,0.791,0.365,1.458,1.639c0,0,0.304,0.183,0.79,0.243
		c0.485,0.061,3.703-2.125,4.188-1.698c0,0-2.064,1.759-0.182,4.733c0,0-3.824,0.243-4.067,1.032c0,0-1.639,1.822-0.364,3.581
		c1.275,1.762,3.278,0.789,3.399-0.06c0.122-0.85-0.182-2.428-0.729-2.307c-0.545,0.121-0.182,0-0.182,0s0.728,1.517-0.486,1.699
		c-1.213,0.183-1.882-0.849-1.152-1.759c0.728-0.911,1.457-1.701,2.488-1.214c1.031,0.485,2.792,1.517,2.61,3.459
		C46.646,45.202,47.07,44.291,46.828,44.412z"/>
</g>
<g>
	<path fill="#4D4D4D" d="M53.564,16.765c0,0,2.145,1.688,2.34,1.98s0.844-0.422,1.006-0.487c0.164-0.065,1.04-1.104-0.811-1.981
		c-1.853-0.877,2.729-0.325,2.563,0.651c-0.162,0.972,1.364,0.324,1.56,0.356c0.196,0.033,1.299,0.098,0.131-1.007
		c-1.17-1.104-1.17-1.234-1.203-1.428c-0.031-0.195-0.877-0.13-1.33-0.13c-0.455,0-1.949-0.812-3.053,0.389
		C53.664,16.31,53.21,16.146,53.564,16.765z"/>
	<path fill="#4D4D4D" d="M55.773,13.938c0,0,1.949,0.228,2.307,0.098s-0.129-2.859-1.754-3.671c0,0-0.812-0.033-0.454,1.072
		c0.356,1.105,0.323,1.202,0.228,1.398C56.002,13.03,55.157,13.418,55.773,13.938z"/>
</g>
<g>
	<path fill="#4D4D4D" d="M46.38,16.48c0,0-2.143,1.689-2.338,1.98c-0.195,0.293-0.844-0.421-1.007-0.486
		c-0.162-0.066-1.038-1.104,0.812-1.982c1.851-0.876-2.728-0.325-2.565,0.65c0.163,0.974-1.364,0.324-1.559,0.356
		c-0.195,0.032-1.3,0.099-0.129-1.006c1.168-1.103,1.168-1.234,1.201-1.428c0.033-0.195,0.877-0.13,1.332-0.13
		s1.948-0.812,3.053,0.391C46.283,16.025,46.738,15.863,46.38,16.48z"/>
	<path fill="#4D4D4D" d="M44.172,13.653c0,0-1.949,0.229-2.307,0.099c-0.357-0.13,0.129-2.859,1.754-3.669
		c0,0,0.812-0.033,0.455,1.071c-0.358,1.104-0.325,1.202-0.228,1.396C43.944,12.746,44.789,13.135,44.172,13.653z"/>
</g>
<g>
	<path fill="#666666" d="M55.413,24.333l0.014-0.035l0.496-0.422l-0.29-0.139l-1.501-1.513l1.257-1.07l-0.568-0.273l-1.086,0.942
		l-2.621-2.641l-0.473,0.249l2.68,2.752L51.803,23.5l-1.496-1.506l-0.448,0.236l-0.029-0.015l-1.258,1.06l-1.428-1.59l2.763-2.283
		l-0.563-0.282l-2.562,2.16l-0.957-1.065l-0.485,0.226l1.039,1.18l-1.955,1.647l0.019,0.043l-0.169,0.08l1.773,2.014l-1.137,0.958
		l0.212,0.492l1.275-1.054l2.398,2.723l0.264-0.571l-2.244-2.498l1.702-1.406l1.345,1.527l0.16-0.344l0.159,0.355l1.591-1.354
		l1.311,1.345l-2.584,2.243l0.218,0.489l2.748-2.34l1.144,1.175l0.235-0.585l-0.949-0.956L55.4,24.32L55.413,24.333z M46.457,25.059
		l-1.446-1.61l1.723-1.423l1.415,1.607L46.457,25.059z M50.101,24.978l-1.154-1.285l1.272-1.052l1.179,1.211L50.101,24.978z
		 M53.502,25.212l-1.32-1.33l1.527-1.3l1.293,1.327L53.502,25.212z"/>
	<path fill="#666666" d="M51.779,33.685c0,0,0.064,3.929-2.045,3.994c0,0-2.339,0.163-1.981-3.929c0,0-1.462-0.486-1.917,1.202
		c0,0-1.851,3.117,1.039,3.962c0,0,0.212-0.025,0.553-0.391c0,0-1.137,3.897,2.111,4.546c0,0,3.085,0.292,2.468-4.48
		c0,0,0.39,0.877,1.104,0.422c0,0,1.916-0.812,0.617-3.604C53.729,35.406,53.598,33.75,51.779,33.685z"/>
	<path fill="#666666" d="M52.902,11.099c0.229,0.113-0.545-0.479-0.887-0.206s-0.91,2.573-0.773,3.255
		C51.242,14.148,52.676,10.985,52.902,11.099z"/>
	<path fill="#666666" d="M48.781,14.194c0.137-0.683-0.432-2.982-0.773-3.254c-0.341-0.274-1.115,0.318-0.887,0.205
		C47.348,11.03,48.781,14.194,48.781,14.194z"/>
</g>
<path fill="#4D4D4D" d="M49.899,14.74c0,0-1.297-3.799-1.707-4.232c-0.41-0.433,0.819-1.32,1.024-0.023
	C49.421,11.782,50.127,14.012,49.899,14.74z"/>
<path fill="#4D4D4D" d="M50.111,14.74c0,0,1.297-3.799,1.708-4.232c0.408-0.433-0.82-1.32-1.024-0.023
	C50.589,11.782,49.884,14.012,50.111,14.74z"/>
<g>
	<path fill="#333333" d="M59.486,26.437c0,0-0.834,6.258-7.973,4.451c0,0-0.604-0.14-0.557-0.696c0,0,0.648-1.529,1.021-2.04
		c0.369-0.509,1.481-2.271,2.457-0.603c0,0,0.416,0.926,0.277,1.298c0,0,0.37,0.093,0.648-0.232
		c0.277-0.324-0.557-2.827-0.188-3.477c0.371-0.648,0.977-0.695,1.67,1.206c0,0,0.278,0.324,0.557-0.047
		c0.279-0.371-1.112-2.908-1.553-3.447c-0.439-0.539,1.184-2.255-0.115-2.533c-1.299-0.279,0.186-0.975,0.603-0.975
		s3.384-0.88,4.126,4.499c0,0,0.37,0.341,0.975-0.326c0,0,0.881-1.436,0.974,0.047c0.093,1.484-0.834,3.801-1.483,3.105
		c0,0,0.883,0.835,1.622,0.186c0,0,2.132,3.756-1.716,4.683c0,0,1.346,1.391,0.882,1.809c0,0-0.741,0.556-1.065,0.045
		c-0.325-0.51-0.51,0.882-1.346-0.324c0,0-0.046,1.9-0.464,1.9c-0.417,0-1.299-0.37-1.762-0.741c-0.464-0.37-4.173-0.881-5.192-1.53
		c0,0-1.066-0.695-1.019-1.065c0.045-0.372,0.231-0.372,0.231-0.372s2.457,0.835,3.756,0.602
		C56.15,31.63,59.534,30.933,59.486,26.437z"/>
	<path fill="#333333" d="M40.124,26.329c0,0,0.835,6.259,7.975,4.451c0,0,0.602-0.138,0.556-0.695c0,0-0.649-1.53-1.02-2.041
		c-0.371-0.509-1.483-2.271-2.458-0.602c0,0-0.417,0.926-0.278,1.299c0,0-0.372,0.091-0.649-0.232
		c-0.278-0.325,0.556-2.828,0.186-3.478c-0.371-0.649-0.975-0.696-1.669,1.205c0,0-0.278,0.324-0.556-0.046
		c-0.278-0.372,1.113-2.908,1.553-3.447c0.441-0.541-1.182-2.255,0.117-2.534c1.297-0.277-0.186-0.974-0.604-0.974
		c-0.417,0-3.385-0.879-4.126,4.498c0,0-0.371,0.341-0.975-0.325c0,0-0.88-1.437-0.973,0.047c-0.093,1.484,0.834,3.801,1.484,3.105
		c0,0-0.881,0.834-1.624,0.186c0,0-2.132,3.757,1.716,4.682c0,0-1.345,1.393-0.881,1.809c0,0,0.742,0.555,1.066,0.047
		c0.325-0.511,0.51,0.879,1.345-0.326c0,0,0.046,1.901,0.463,1.901s1.298-0.371,1.762-0.741c0.462-0.372,4.172-0.881,5.192-1.53
		c0,0,1.066-0.696,1.02-1.065c-0.047-0.371-0.232-0.371-0.232-0.371s-2.458,0.835-3.755,0.603
		C43.461,31.522,40.078,30.825,40.124,26.329z"/>
	<path fill="#333333" d="M50.187,10.756c0,0,0.774-6.82,0.985-7.945c0.21-1.125-0.281-0.351-0.914-1.054
		c-0.632-0.702-0.703,0.281-1.195,0.492c-0.492,0.212,0.633,8.225,0.703,8.437c0.071,0.211,0.352,0.421,0.352,0.421L50.187,10.756z"
		/>
	<path fill="#333333" d="M48.055,86.161c1.402-2.452-0.32-2.796-0.32-2.796c0.057-0.768,0.011-1.311-0.09-1.702
		c3.098-3.509,1.901-8.593,0.215-11.253c-1.718-2.71-4.39-3.092-4.81-2.252c-0.42,0.839,3.602,1.994,1.717,1.945
		c-1.883-0.049,1.26,1.299,0.725,1.412c-0.534,0.115,0.012,0.943,0.345,1.185c0.333,0.239,2.291-0.458,1.03,0.991
		c-1.259,1.451,1.184,2.558,1.451,3.552c0.217,0.808-0.804,2.854-1.192,3.588c-0.349-0.208-0.71-0.063-0.71-0.063
		c0.6-6.675-2.438-9.83-4.355-12.867c-1.918-3.037-3.917-3.758-4.276-3.957c-0.359-0.199-8.392-0.879-10.27-2.596
		c-1.878-1.721-3.756-2.318-3.756-2.318s-0.013,0.003-0.023,0.005c-0.396-0.729-2.653-5.114-0.457-6.359
		c0,0,1.958,1.679,2.279-0.479c0,0,0.319,1.158-0.959,1.719c-1.279,0.561,0.399,0.879,0.758,0.918
		c0.36,0.041,1.679,0.841,2.198-0.759c0.52-1.599,0.04-4.356-2.317-4.076c-2.358,0.282-4.117,0.479-4.316,4.356
		c-0.141,2.73,0.234,3.496,0.523,3.738c-1.204-0.641-5.913-3.578-4.08-9.214c0,0,0.159-0.641-0.72-0.041
		c-0.73,0.498-1.537,3.144-0.555,5.218c-0.676-0.134-2.041-0.904-2.603-4.858c0,0,0.041-1.999,0.48-2.159
		c0.44-0.16,0.879-2.197-0.399-1.878c-1.278,0.321,1.838-0.439,2.038-0.759c0.2-0.319,0.839-1.159-0.28-1.598
		c-1.118-0.44,2.079-0.16,1.479,0.959c-0.599,1.119-0.479,1.199,0.44,1.52c0.632,0.22,0.845,0.116,0.932-0.074
		c-0.137,0.395-0.502,0.952-1.412,0.473c0,0-0.879,0.08,0.12,0.758c0,0-1.375-0.207-1.239,0.6c0.136,0.809,0.44,1.159,1.039,1.24
		c0.6,0.079,2.238-0.241,2.357-0.84c0.121-0.599,1.559-2.597,0.44-4.316c-1.119-1.718-3.437-2.678-4.955-2.157
		c-1.519,0.519-2.893,4.307-2.758,5.594c0,0-0.599-0.2-0.639,0.16c-0.04,0.36,0.32,3.717,0.959,4.677
		c0.64,0.959,0.76,1.519,1.119,1.758c0.36,0.24-1.238-0.84-1.319-0.399c-0.08,0.438-0.08,0.84,0.36,0.96
		c0.44,0.119-1.079,0.199,0.36,1.238s1.838,0.799,1.918,1.197c0.08,0.399-0.68-0.039-0.759,0.44c-0.08,0.479,0.8,1.358,1.199,1.478
		c0.263,0.078,0.851,0.277,1.224,0.404c-0.458,0.336-0.638,0.939-0.865,0.914c-0.359-0.039-0.838-0.039-1.358,1.28
		c-0.52,1.317,1.558,0.839,1.519,1.399c-0.04,0.559,0.919,0.199,1.518,0.199c0.6,0,1.958-0.92,1.958-0.92l0.36,0.079
		c-0.759-0.159-3.396,3.558-0.72,2.038c2.678-1.52,5.995-0.359,3.277-0.52c-2.717-0.16-2.197,1.438-2.197,1.438
		c-3.676,2.678,0.839,1.079,0.12,1.918c-0.72,0.84,1.958,0.081,1.278,0.4c-0.679,0.318,1.039,0.879,1.359,1.197
		c0.32,0.319,3.436,1.239,6.553-0.68c3.117-1.918,9.991,2.957,5.794,0.999c-4.196-1.958-2.357,1-2.597,0.64
		c-0.24-0.358-1.199-0.279-2.678,0.319c-0.251,0.103-0.412,0.191-0.514,0.271c-0.656-0.293-2.197-0.719-4.729-0.719
		c-3.207,0-3.588,2.979-3.588,3.207s0.229,3.893,3.167,2.938c2.939-0.953,1.909-2.481,0.956-3.244
		c-0.956-0.765-1.827,0.828-1.827,0.828c-0.386-2.92,3.552-2.209,5.255-1.772c0.069,0.526,1.714,1.062,1.878,1.09
		c0.24,0.039,0.999,1.158,2.638,0.039s2.957,0,2.957,0c-2.652-0.646-0.799-0.28-2.51,0.645s-0.607,1.595-0.248,1.832
		c0.36,0.24,0.959,0.48,3.396,0.561c1.577,0.053,2.792,0.7,3.385,1.069c-0.419-0.144-1.045-0.206-1.507-0.351
		c-0.639-0.199-1.318,0.358-1.438,0.521c-0.12,0.159-1.119,0.64-1.319,0.679c-0.199,0.041-1.08,1.879,0.758,1.601
		c0.942-0.144,2.103-0.046,3.013,0.085c-0.479,0.113-0.716,0.492-1.213,0.753c-0.839,0.44-0.24,0.839-0.24,0.839
		C40.474,82.05,40.13,84.6,39.65,86c-0.213-0.1-0.411-0.136-0.574-0.074c-0.854,0.32-2.562-0.107-2.242,0.535
		c0.208,0.415-0.407,0.447-0.769,0.696c-0.945-0.05-1.687,0.155-1.687,0.155c-3.416,2.242-1.601,3.844-0.107,6.191
		c1.495,2.35,6.62-0.32,6.62-0.32l0.59-0.395c0.887-0.166,1.771-0.021,2.185,0.99c0.985,2.408-0.057,3.686-1.237,3.39
		c0,0,1.048-0.957,0.502-1.506c-0.546-0.549-2.019-0.812-2.363,0.61c-0.345,1.422,1.58,2.822,2.635,2.16
		c1.053-0.662,2.531-2.83,1.534-4.465c-0.995-1.634-1.841-2.498-2.72-2.453c-0.212,0.012-0.469,0.062-0.736,0.131
		c-0.003-0.006-0.005-0.012-0.008-0.017c1.97-0.589,2.972-1.334,3.092-2.217c0.098,0.688,0.314,1.062,2.57-0.017
		C50.452,87.721,48.055,86.161,48.055,86.161z M18.231,45.014c0.004-0.031,0.009-0.062,0.013-0.092
		C18.254,44.841,18.256,44.897,18.231,45.014z M17.104,58.3c-0.056-0.01-0.118-0.028-0.17-0.032l0.561-0.438
		C17.377,58.011,17.24,58.168,17.104,58.3z M29.542,69.995c-0.003-0.007-0.006-0.015-0.009-0.021
		C29.746,69.934,32.182,69.459,29.542,69.995z M35.126,91.797c-1.642-1.045-1.278-2.057-0.717-2.572
		c-0.005,0.064,0.016,0.139,0.077,0.225c0.534,0.746,0.321,0.533,1.708,0.854l-0.007,0.096c0,0-0.081,0.521-0.4,0.399
		c-0.32-0.121,0.559,1.679,2.558,0.158c0,0-0.114,1.125,1.564,0.978C38.792,92.568,37.113,93.061,35.126,91.797z M42.62,88.279
		c0,0-0.073,0.468-0.876-0.325c0,0-0.15-0.193-0.38-0.458c0.335-0.869,0.524-3.089,0.607-4.318
		C42.681,84.157,43.156,85.739,42.62,88.279z"/>
	<path fill="#333333" d="M87.516,53.499c0.439-0.12,0.439-0.521,0.36-0.96c-0.081-0.438-1.679,0.641-1.319,0.398
		c0.359-0.238,0.479-0.799,1.118-1.756c0.64-0.96,1-4.317,0.96-4.677c-0.039-0.36-0.639-0.16-0.639-0.16
		c0.134-1.288-1.24-5.075-2.758-5.594c-1.52-0.52-3.836,0.439-4.955,2.157c-1.119,1.719,0.318,3.717,0.438,4.316
		c0.12,0.599,1.76,0.919,2.358,0.839s0.903-0.431,1.039-1.239c0.136-0.807-1.238-0.599-1.238-0.599c1-0.678,0.12-0.758,0.12-0.758
		c-0.913,0.481-1.277-0.083-1.413-0.478c0.085,0.192,0.297,0.299,0.935,0.078c0.92-0.319,1.037-0.401,0.439-1.519
		c-0.602-1.119,2.598-1.399,1.479-0.959s-0.479,1.279-0.278,1.599c0.198,0.32,3.315,1.079,2.037,0.759
		c-1.279-0.319-0.839,1.719-0.4,1.878c0.44,0.16,0.479,2.158,0.479,2.158c-0.562,3.955-1.926,4.726-2.603,4.859
		c0.982-2.074,0.175-4.721-0.555-5.218c-0.879-0.601-0.72,0.04-0.72,0.04c1.832,5.632-2.871,8.568-4.077,9.212
		c0.288-0.245,0.661-1.015,0.521-3.737c-0.199-3.875-1.957-4.075-4.314-4.354c-2.357-0.28-2.838,2.477-2.317,4.075
		c0.521,1.601,1.838,0.8,2.197,0.76c0.358-0.04,2.039-0.36,0.76-0.919c-1.278-0.56-0.96-1.72-0.96-1.72
		c0.32,2.158,2.277,0.48,2.277,0.48c2.197,1.243-0.061,5.628-0.455,6.357c-0.012-0.002-0.023-0.004-0.023-0.004
		s-1.878,0.601-3.757,2.317c-1.879,1.718-9.91,2.397-10.271,2.597c-0.358,0.201-2.356,0.92-4.275,3.957
		c-1.917,3.037-4.955,6.192-4.355,12.867c0,0-0.361-0.145-0.709,0.062c-0.389-0.732-1.41-2.779-1.192-3.588
		c0.268-0.992,2.711-2.1,1.45-3.551c-1.26-1.449,0.699-0.752,1.031-0.99c0.334-0.24,0.879-1.069,0.344-1.186
		c-0.535-0.113,2.608-1.461,0.725-1.412c-1.883,0.051,2.138-1.105,1.718-1.945c-0.419-0.84-3.092-0.459-4.809,2.252
		c-1.687,2.66-2.884,7.744,0.214,11.254c-0.1,0.392-0.146,0.936-0.089,1.701c0,0-1.723,0.345-0.32,2.797c0,0-2.397,1.559,1.12,3.236
		c2.255,1.077,2.473,0.705,2.568,0.017c0.119,0.883,1.121,1.629,3.093,2.218c-0.003,0.005-0.007,0.01-0.009,0.016
		c-0.267-0.068-0.522-0.119-0.734-0.131c-0.88-0.044-1.725,0.818-2.721,2.454c-0.996,1.634,0.479,3.802,1.535,4.464
		c1.054,0.662,2.979-0.738,2.635-2.16c-0.346-1.422-1.817-1.158-2.363-0.609s0.502,1.506,0.502,1.506
		c-1.18,0.295-2.222-0.98-1.236-3.391c0.414-1.012,1.297-1.156,2.183-0.99l0.594,0.395c0,0,5.123,2.67,6.618,0.321
		c1.494-2.349,3.311-3.95-0.105-6.192c0,0-0.742-0.205-1.688-0.156c-0.361-0.248-0.978-0.281-0.769-0.695
		c0.32-0.643-1.389-0.215-2.242-0.534c-0.162-0.062-0.36-0.024-0.573,0.074c-0.479-1.401-0.824-3.949,1.864-5.953
		c0,0,0.6-0.399-0.238-0.838c-0.498-0.261-0.734-0.642-1.215-0.755c0.908-0.131,2.07-0.229,3.013-0.085
		c1.839,0.278,0.958-1.56,0.759-1.599c-0.199-0.041-1.199-0.521-1.318-0.681s-0.799-0.719-1.438-0.519
		c-0.463,0.144-1.09,0.205-1.509,0.35c0.593-0.369,1.808-1.018,3.386-1.07c2.439-0.078,3.037-0.318,3.396-0.559
		s1.465-0.909-0.246-1.833c-1.711-0.925,0.142-1.29-2.512-0.646c0,0,1.319-1.119,2.957,0c1.641,1.119,2.398,0,2.639-0.039
		c0.164-0.027,1.81-0.562,1.879-1.088c1.703-0.438,5.642-1.148,5.256,1.771c0,0-0.873-1.592-1.827-0.829s-1.983,2.291,0.954,3.244
		c2.939,0.954,3.169-2.709,3.169-2.938s-0.382-3.205-3.588-3.205c-2.531,0-4.072,0.424-4.729,0.717
		c-0.102-0.078-0.263-0.168-0.514-0.271c-1.479-0.601-2.438-0.679-2.678-0.319s1.598-2.599-2.598-0.64
		c-4.195,1.958,2.677-2.917,5.793-0.999c3.119,1.918,6.234,0.999,6.555,0.68c0.32-0.318,2.038-0.879,1.359-1.199
		c-0.681-0.317,1.996,0.439,1.277-0.399c-0.72-0.839,3.796,0.759,0.119-1.918c0,0,0.521-1.599-2.197-1.438
		c-2.717,0.162,0.6-0.998,3.277,0.521c2.677,1.519,0.039-2.196-0.721-2.037l0.359-0.08c0,0,1.359,0.919,1.959,0.919
		s1.559,0.36,1.52-0.199c-0.04-0.561,2.037-0.08,1.518-1.398s-0.998-1.318-1.357-1.28c-0.227,0.025-0.405-0.577-0.862-0.913
		c0.374-0.128,0.959-0.326,1.223-0.404c0.398-0.119,1.278-0.998,1.199-1.479c-0.08-0.479-0.84-0.04-0.76-0.438
		c0.079-0.401,0.479-0.16,1.917-1.199C88.596,53.698,87.076,53.618,87.516,53.499z M81.521,44.707
		c0.004,0.033,0.008,0.065,0.014,0.098C81.51,44.685,81.512,44.625,81.521,44.707z M57.146,88.064
		c-0.537-2.539-0.062-4.121,0.647-5.102c0.083,1.229,0.272,3.448,0.606,4.316c-0.229,0.267-0.381,0.46-0.381,0.46
		C57.218,88.531,57.146,88.064,57.146,88.064z M61.421,90.743c1.997,1.518,2.877-0.279,2.558-0.16
		c-0.319,0.12-0.398-0.399-0.398-0.399l-0.008-0.095c1.387-0.319,1.175-0.108,1.707-0.854c0.062-0.086,0.082-0.158,0.078-0.225
		c0.561,0.518,0.924,1.528-0.717,2.572c-1.988,1.264-3.668,0.771-4.783,0.137C61.534,91.866,61.421,90.743,61.421,90.743z
		 M70.23,69.76c-0.002,0.008-0.006,0.014-0.008,0.021C67.588,69.246,70.014,69.717,70.23,69.76z M82.271,57.614l0.56,0.438
		c-0.052,0.004-0.113,0.022-0.169,0.032C82.525,57.954,82.389,57.797,82.271,57.614z"/>
</g>
<g>
	<ellipse fill="#231F20" cx="49.799" cy="47.893" rx="1.201" ry="1.606"/>
	<path fill="#231F20" d="M52.784,51.83c-1.396-0.682,0.78-3.636,0.78-3.636c-2.043-0.541-3.146,2.279-3.692,4.521
		c-0.533-2.263-1.639-5.22-3.728-4.667c0,0,2.175,2.954,0.778,3.638c-1.396,0.683-2.305,1.301-1.851,2.922
		c0.455,1.625,2.177,0.486,2.274,0.293c0.098-0.194,0.779-0.486,1.007-0.389c0.145,0.062,0.135,0.752,0.501,1.174
		c-0.097,0.092-0.051,0.25,0.91,0.434c1.527,0.293,1.365-1.364,1.592-1.462c0.227-0.097,0.91,0.194,1.006,0.391
		c0.099,0.193,1.818,1.331,2.272-0.293C55.092,53.131,54.182,52.514,52.784,51.83z"/>
	<ellipse fill="#231F20" cx="49.948" cy="27.74" rx="1.257" ry="2.831"/>
	<path fill="#231F20" d="M52.688,17.739c-1.438-0.325-0.371-0.881-0.231-1.254c0.14-0.371,0.278-1.903,0.649-1.856
		c0.362,0.044-1.396-1.006-3.163,0.751c-1.761-1.729-3.505-0.688-3.144-0.734c0.372-0.045,0.511,1.486,0.651,1.859
		c0.139,0.371,1.207,0.928-0.233,1.252c-1.439,0.326-1.021,1.997-0.51,1.765c0.453-0.206,2.695,2.365,3.193,2.945l0.001,0.101
		c0,0,0.017-0.02,0.042-0.05c0.035,0.041,0.059,0.069,0.059,0.069l0.002-0.14c0.5-0.582,2.741-3.15,3.195-2.944
		C53.708,19.735,54.127,18.064,52.688,17.739z"/>
</g>
</svg>
