<?xml version="1.0" encoding="utf-8"?>
<!-- Generator: Adobe Illustrator 16.0.0, SVG Export Plug-In . SVG Version: 6.00 Build 0)  -->
<!DOCTYPE svg PUBLIC "-//W3C//DTD SVG 1.1//EN" "http://www.w3.org/Graphics/SVG/1.1/DTD/svg11.dtd">
<svg version="1.1" id="Layer_1" xmlns="http://www.w3.org/2000/svg" xmlns:xlink="http://www.w3.org/1999/xlink" x="0px" y="0px"
	 width="100px" height="100px" viewBox="0 0 100 100" enable-background="new 0 0 100 100" xml:space="preserve">
<g>
	<path fill="#A9A9A9" d="M41.4,93.622c3.133-0.989,6.701-2.575,10.643-3.963c0.637-0.227,1.321-0.516,1.996-0.768
		c0.672-0.258,1.328-0.505,1.931-0.753c0.306-0.124,0.583-0.25,0.847-0.374c0.308-0.152,0.351-0.183,0.332-0.172
		c0.005-0.003-0.002-0.008,0.002-0.01l-0.003-0.005l-0.036-0.044l-0.057-0.069l-0.132-0.147c-0.36-0.398-0.813-0.815-1.302-1.233
		l-0.384-0.321l-0.276-0.218l-0.301-0.199l-0.34-0.197c-0.48-0.258-1.033-0.494-1.611-0.711c-1.158-0.434-2.426-0.783-3.708-1.097
		c-1.285-0.314-2.598-0.587-3.918-0.844c-2.643-0.51-5.315-0.954-7.985-1.406c-5.342-0.908-10.687-1.82-15.973-3.191
		c-2.641-0.69-5.271-1.491-7.853-2.554c-2.569-1.072-5.129-2.385-7.394-4.355c-1.114-0.999-2.164-2.159-2.934-3.553
		c-0.403-0.682-0.699-1.434-0.955-2.188L1.834,64.67l-0.075-0.288L1.703,64.12c-0.076-0.347-0.143-0.7-0.203-1.056
		c-0.244-1.42-0.345-2.904-0.24-4.398c0.109-1.492,0.432-2.996,1.003-4.402c0.555-1.414,1.36-2.713,2.298-3.862
		C5.5,49.25,6.579,48.25,7.725,47.381c2.302-1.733,4.838-2.987,7.425-3.978c0.648-0.246,1.298-0.485,1.96-0.696
		c0.666-0.229,1.299-0.414,1.944-0.611c1.282-0.392,2.559-0.784,3.833-1.19c2.546-0.813,5.082-1.664,7.556-2.663
		c2.478-0.99,4.894-2.135,7.162-3.529c1.135-0.697,2.214-1.476,3.248-2.314c1.031-0.842,1.979-1.782,2.862-2.784
		c0.978-1.122,1.808-2.352,2.519-3.636c0.712-1.285,1.305-2.632,1.749-4.026l0.175-0.52c0.053-0.175,0.098-0.353,0.146-0.528
		l0.287-1.058c0.144-0.717,0.33-1.423,0.427-2.148l0.171-1.08l0.118-1.087l0.059-0.543c0.011-0.079,0.019-0.206,0.027-0.323
		l0.026-0.351l0.102-1.396l0.026-0.347c-0.021-0.076,0.077-0.063,0.124-0.088l0.172-0.053c0.229-0.073,0.458-0.136,0.687-0.197
		c0.458-0.123,0.927-0.216,1.405-0.288c0.764-0.11,1.514-0.167,2.264-0.207c1.496-0.07,2.973-0.056,4.441-0.02
		c2.936,0.078,5.84,0.246,8.738,0.366c2.898,0.121,5.791,0.208,8.686,0.153c2.891-0.065,5.795-0.244,8.645-0.796
		c1.424-0.274,2.832-0.648,4.178-1.186c1.344-0.537,2.627-1.25,3.703-2.212c0.533-0.484,1.012-1.029,1.414-1.628
		c0.407-0.598,0.71-1.262,0.945-1.951c0.473-1.383,0.56-2.889,0.458-4.378c0.057,0.827,0.062,1.656-0.029,2.476
		c-0.103,0.817-0.296,1.62-0.601,2.377c-0.303,0.759-0.721,1.468-1.234,2.102c-0.514,0.634-1.125,1.187-1.791,1.667
		c-1.336,0.96-2.877,1.631-4.468,2.129c-1.593,0.505-3.243,0.843-4.905,1.116c-3.339,0.541-6.66,0.707-9.933,0.781
		c-3.276,0.069-6.517,0.015-9.752-0.011c-1.618-0.013-3.235-0.019-4.854,0.014c-1.615,0.039-3.24,0.101-4.831,0.314
		c-0.198,0.025-0.396,0.06-0.593,0.089c-0.098,0.013-0.199,0.036-0.289,0.052l-0.225,0.044c-0.299,0.067-0.591,0.141-0.871,0.24
		l-0.11,0.076c-0.024,0,0.079,0.024,0.079,0.044v0.061l-0.1,0.121l-0.055,0.477l-0.029,0.47L50.8,14.959
		c-0.001,0.081-0.019,0.205-0.024,0.305c-0.085,1.699-0.3,3.415-0.637,5.139c-0.325,1.553-0.787,3.131-1.406,4.7
		c-0.614,1.57-1.439,3.107-2.429,4.57c-1.979,2.935-4.721,5.466-7.783,7.477c-3.064,2.028-6.421,3.581-9.797,4.909
		c-3.375,1.328-6.816,2.423-10.129,3.446c-4.021,1.295-7.614,3.048-10.16,5.399c-0.627,0.591-1.194,1.21-1.687,1.854
		c-0.484,0.65-0.889,1.328-1.217,2.02c-0.663,1.383-0.975,2.835-1.049,4.245c-0.074,1.412,0.083,2.782,0.355,4.072
		c0.036,0.161,0.071,0.321,0.107,0.48c0.036,0.156,0.079,0.286,0.117,0.429c0.065,0.283,0.185,0.545,0.275,0.811
		c0.23,0.515,0.47,1.009,0.782,1.449c0.594,0.896,1.319,1.643,2.066,2.269c0.745,0.629,1.511,1.14,2.237,1.571
		c1.452,0.866,2.751,1.414,3.739,1.815c0.993,0.397,1.698,0.624,2.073,0.742c0.375,0.116,0.425,0.117,0.141,0.003
		c-0.285-0.113-0.906-0.338-1.845-0.718c2.531,1.018,4.872,1.544,7.21,1.983c2.347,0.431,4.715,0.751,7.456,1.189
		c5.517,0.956,10.821,1.801,16.008,2.897c2.595,0.559,5.16,1.162,7.726,2.042c1.283,0.459,2.572,0.967,3.867,1.785
		c0.325,0.215,0.648,0.445,0.953,0.707c0.283,0.243,0.498,0.431,0.758,0.669c0.503,0.456,1,0.947,1.488,1.518
		c0.036,0.037,0.075,0.076,0.116,0.118c0.048,0.056,0.099,0.113,0.151,0.174c0.107,0.134,0.215,0.243,0.341,0.433
		c0.255,0.363,0.536,0.793,0.706,1.298c0.17,0.502,0.253,1.072,0.158,1.652c-0.098,0.578-0.372,1.137-0.772,1.603
		c-0.102,0.116-0.213,0.226-0.323,0.335c-0.116,0.104-0.242,0.2-0.363,0.301c-0.117,0.103-0.258,0.181-0.386,0.272
		c-0.136,0.094-0.254,0.166-0.37,0.232l-0.178,0.101l-0.09,0.049l-0.066,0.035c-0.09,0.046-0.18,0.091-0.268,0.136
		c-0.172,0.08-0.338,0.158-0.5,0.233c-0.637,0.279-1.164,0.474-1.52,0.591c-0.775,0.262-1.546,0.522-2.312,0.782
		c-0.775,0.262-1.574,0.509-2.354,0.761c-0.783,0.23-1.565,0.46-2.345,0.689c-0.781,0.222-1.566,0.422-2.347,0.633
		c-3.135,0.807-6.295,1.493-9.56,2.087c-3.265,0.588-6.635,1.097-10.204,1.431c-0.892,0.084-1.798,0.143-2.714,0.22
		c-0.917,0.064-1.851,0.09-2.795,0.141c-0.946,0.03-1.908,0.022-2.883,0.039c-0.976-0.037-1.969-0.047-2.976-0.114
		c0.731,0.006,1.459-0.054,2.003-0.069c0.543-0.024,0.904-0.041,0.904-0.041c-1.47-0.112-2.569-0.159-3.66-0.327
		c-0.273-0.035-0.545-0.07-0.823-0.106c-0.279-0.034-0.562-0.069-0.854-0.134c-0.583-0.113-1.21-0.236-1.927-0.377
		c2.161,0.201,4.496,0.278,6.939,0.149c0.61-0.018,1.228-0.088,1.849-0.129c0.622-0.046,1.249-0.093,1.879-0.177
		c0.63-0.073,1.265-0.147,1.903-0.223c0.636-0.097,1.276-0.193,1.918-0.291c0.643-0.089,1.285-0.209,1.928-0.329
		c0.643-0.122,1.289-0.228,1.931-0.364c1.285-0.275,2.571-0.537,3.841-0.859C36.521,95.087,39.017,94.372,41.4,93.622z"/>
</g>
</svg>
