<?xml version="1.0" encoding="utf-8"?>
<!-- Generator: Adobe Illustrator 16.0.0, SVG Export Plug-In . SVG Version: 6.00 Build 0)  -->
<!DOCTYPE svg PUBLIC "-//W3C//DTD SVG 1.1//EN" "http://www.w3.org/Graphics/SVG/1.1/DTD/svg11.dtd">
<svg version="1.1" id="Layer_1" xmlns="http://www.w3.org/2000/svg" xmlns:xlink="http://www.w3.org/1999/xlink" x="0px" y="0px"
	 width="100px" height="100px" viewBox="0 0 100 100" enable-background="new 0 0 100 100" xml:space="preserve">
<g>
	<path d="M66.186,2.958l0.061-0.021c0.068-0.031,0.136-0.062,0.203-0.093c0.192-0.192,0.672-0.398,1.299-0.674
		c-0.012-0.024-0.077-0.023,0.134-0.14c1.001-0.425,0.489-0.238,1.168-0.636c-0.217,0.108-0.485,0.25-0.604,0.28l1.34-0.701
		c-0.209,0.047-0.389,0.071-0.182-0.08c-0.184-0.025,0.205-0.361,0.322-0.544c-0.248,0.109-0.445,0.192-0.543,0.225
		c0.012-0.056,0.233-0.189,0.514-0.338c-0.027,0.001-0.057,0.003-0.104,0.015c0.047-0.012,0.076-0.014,0.104-0.015
		c0.183-0.097,0.392-0.201,0.585-0.295c-0.114,0.042-0.229,0.084-0.185,0.039l-0.809,0.405c-0.03,0.004-0.008-0.017,0.037-0.048
		l-0.197,0.128l0.173-0.056c0.065-0.01-0.037,0.057-0.139,0.123c-0.212,0.114-0.276,0.124-0.39,0.165l-0.41,0.259
		c-0.125,0.154,1.154-0.524,0.486-0.107l-0.225,0.09c-0.313,0.18-0.746,0.396-0.939,0.548c-0.367,0.073-0.889,0.514-1,0.425
		c-1.271,0.555-2.859,1.418-4.159,1.906C62.549,4,62.623,4.153,62.133,4.514c-0.114,0.041-0.283,0.108-0.237,0.063l-0.356,0.228
		c0.216-0.106,0.482-0.244,0.605-0.266c-0.576,0.327,0.302-0.064,0.27,0.004L61.627,4.98l0.104-0.03
		c0.729-0.341,1.463-0.671,2.201-0.996c0.74-0.324,1.48-0.645,2.219-0.975L66.186,2.958z"/>
	<path d="M43.971,18.309l0.103-0.005c-0.104,0.915-0.065,1.854,0.098,2.776c0.158,0.924,0.422,1.834,0.754,2.728
		c0.339,0.901,0.722,1.75,1.077,2.641c0.178,0.443,0.362,0.889,0.533,1.342c0.173,0.452,0.352,0.906,0.513,1.368
		c0.665,1.841,1.253,3.759,1.634,5.75c0.391,1.988,0.525,4.055,0.345,6.118c-0.024,0.258-0.042,0.517-0.072,0.774
		c-0.041,0.256-0.081,0.513-0.122,0.77c-0.065,0.517-0.198,1.023-0.312,1.533l-0.087,0.383l-0.112,0.376
		c-0.076,0.251-0.151,0.502-0.227,0.753c-0.068,0.252-0.164,0.5-0.256,0.749l-0.274,0.746c-0.768,1.984-1.735,3.911-2.747,5.824
		c-1.012,1.914-2.082,3.814-3.058,5.769c-0.977,1.953-1.864,3.963-2.512,6.044l-0.228-0.523c-0.076,0.285-0.164,0.568-0.231,0.861
		c-0.066,0.292-0.133,0.586-0.2,0.882c-0.033,0.148-0.066,0.296-0.1,0.444c-0.029,0.148-0.058,0.297-0.087,0.445
		c-0.061,0.295-0.109,0.603-0.162,0.906c-0.095,0.614-0.18,1.24-0.201,1.891c-0.021,0.32-0.006,0.653,0.005,0.981l0.047,0.496
		c0.017,0.165,0.055,0.331,0.082,0.496c0.13,0.659,0.364,1.298,0.673,1.874c0.317,0.572,0.7,1.078,1.1,1.541
		c0.411,0.446,0.833,0.874,1.279,1.244c0.437,0.364,0.864,0.705,1.277,1.041l-1.177-1.17c0.317,0.224,0.74,0.541,1.219,0.925
		c0.479,0.385,1.015,0.835,1.531,1.346c0.518,0.509,1.011,1.083,1.393,1.696c0.385,0.609,0.638,1.263,0.742,1.848
		c0,0-0.036-0.052-0.073-0.104c-0.036-0.052-0.073-0.102-0.073-0.102c-0.104-0.386-0.229-0.656-0.315-0.853
		c-0.095-0.193-0.159-0.312-0.2-0.374c-0.079-0.128-0.047-0.046,0.005,0.09c0.049,0.138,0.116,0.331,0.112,0.426
		c0,0.047-0.016,0.067-0.052,0.045c-0.036-0.023-0.095-0.091-0.193-0.215c0,0-0.066-0.115-0.142-0.226
		c-0.07-0.112-0.151-0.219-0.151-0.219s0.03,0.072,0.057,0.146c0.025,0.074,0.051,0.147,0.051,0.147s0.074,0.109,0.139,0.224
		c0.069,0.112,0.128,0.229,0.128,0.229c-0.079-0.031-0.114,0.031-0.35-0.392c0,0,0.02,0.038,0.048,0.096
		c0.026,0.058,0.062,0.136,0.096,0.213c0.034,0.078,0.062,0.157,0.086,0.217c0.024,0.059,0.037,0.099,0.037,0.099
		c0.064,0.361,0.049,0.634,0.022,0.83c-0.018,0.099-0.038,0.179-0.061,0.244c-0.027,0.065-0.055,0.115-0.084,0.153
		c-0.117,0.151-0.254,0.112-0.411,0.053c0.033,0.149,0.107,0.144,0.179,0.27c0.056,0.127,0.141,0.394-0.083,1.105l-0.051-0.21
		c0,0-0.013,0.101-0.033,0.251c-0.035,0.152-0.063,0.363-0.118,0.566c-0.059,0.202-0.107,0.411-0.169,0.56
		c-0.055,0.152-0.092,0.254-0.092,0.254s-0.007,0.01-0.019,0.027c-0.011,0.018-0.03,0.042-0.054,0.07
		c-0.046,0.057-0.108,0.133-0.17,0.209c-0.118,0.152-0.256,0.295-0.256,0.295c-0.284,0.553-0.497,0.923-0.972,1.396l0.01,0.287
		c-1.065,1.099-2.451,2.254-3.874,3.463c-1.419,1.211-2.862,2.501-3.985,3.908c-0.149,0.38-0.562,0.915-0.947,1.673
		c-0.39,0.747-0.745,1.728-0.795,2.759c0,0,0.089-0.208,0.179-0.415c0.046-0.103,0.087-0.204,0.125-0.279
		c0.04-0.073,0.066-0.123,0.066-0.123c0.187-0.511,0.457-1.177,0.846-1.892s0.915-1.466,1.532-2.176
		c1.234-1.429,2.8-2.684,4.075-3.668l-0.025,0.168c-0.503,0.458-0.824,0.84-1.501,1.346l-0.036,0.296
		c0.381-0.103,0.844-0.388,1.342-0.772s1.035-0.869,1.547-1.372c0.512-0.502,0.992-1.028,1.389-1.481
		c0.099-0.114,0.194-0.222,0.283-0.324c0.087-0.104,0.169-0.201,0.247-0.289c0.158-0.174,0.284-0.324,0.392-0.424
		c0.229-0.21,0.373-0.361,0.476-0.442c0.101-0.083,0.151-0.104,0.165-0.083c0.027,0.044-0.093,0.263-0.247,0.512
		c-0.319,0.489-0.811,1.054-0.397,0.611c-0.435,0.549-0.547,0.729-0.424,0.702c0.121-0.028,0.464-0.276,0.883-0.644
		c0.423-0.36,0.903-0.866,1.315-1.362c0.101-0.127,0.2-0.25,0.294-0.368c0.089-0.123,0.174-0.241,0.253-0.352
		c0.164-0.216,0.282-0.416,0.381-0.55c0.252-0.383,0.481-0.869,0.68-1.423c0.198-0.561,0.339-1.247,0.339-1.991
		c0.006-0.186-0.013-0.374-0.024-0.565c-0.024-0.19-0.043-0.385-0.085-0.576c-0.072-0.386-0.187-0.77-0.334-1.139
		c-0.291-0.744-0.715-1.42-1.181-2.025c-0.941-1.21-2.046-2.158-3.019-3.029c-0.235-0.211-0.468-0.419-0.695-0.623
		c-0.104-0.099-0.198-0.2-0.295-0.299c-0.096-0.099-0.195-0.193-0.283-0.298c-0.09-0.102-0.178-0.202-0.266-0.301
		s-0.158-0.2-0.236-0.298c-0.162-0.193-0.275-0.391-0.403-0.575c-0.435-0.596-0.72-1.265-0.838-2.045
		c-0.104-0.785-0.037-1.676,0.126-2.603c0.082-0.463,0.185-0.935,0.301-1.414c0.119-0.474,0.255-0.94,0.384-1.413
		c0.153-0.466,0.309-0.932,0.474-1.396c0.185-0.459,0.354-0.923,0.552-1.377c0.779-1.822,1.716-3.576,2.637-5.248
		c0.923-1.671,1.826-3.268,2.577-4.755c0.753-1.41,1.507-3.391,2.094-5.278c0.072-0.237,0.144-0.471,0.214-0.702
		s0.148-0.455,0.203-0.686c0.119-0.457,0.243-0.891,0.366-1.295c0.196-0.821,0.436-1.513,0.649-2.021c0,0,0.017-0.097,0.045-0.265
		c0.026-0.169,0.075-0.409,0.112-0.7c0.055-0.583,0.16-1.361,0.166-2.145c0.007-0.195,0.014-0.391,0.021-0.583
		c0.005-0.193-0.007-0.381-0.01-0.565c-0.011-0.366-0.016-0.708-0.031-1.001c-0.049-0.582-0.083-0.971-0.083-0.971l0.128,0.119
		c-0.166-1.513-0.477-3.04-0.908-4.524c-0.433-1.484-0.961-2.935-1.526-4.343c-0.144-0.35-0.288-0.699-0.432-1.046
		c-0.148-0.344-0.295-0.688-0.442-1.029c-0.295-0.672-0.588-1.338-0.877-1.996c-0.272-0.622-0.501-1.244-0.675-1.86
		c-0.176-0.616-0.301-1.225-0.359-1.816c-0.085-1.031-0.062-1.692,0.017-2.215c0.079-0.52,0.23-0.894,0.561-1.248
		c0.906-1.787,2.651-3.448,4.569-4.967c0.482-0.38,0.968-0.751,1.471-1.117c0.501-0.366,1.003-0.708,1.497-1.057
		c0.248-0.172,0.494-0.344,0.738-0.514c0.246-0.168,0.502-0.318,0.748-0.475c0.498-0.309,0.989-0.609,1.471-0.897
		c-0.033-0.041,0.073-0.162,0.096-0.226c0.023-0.063-0.047-0.081-0.418,0.108c-0.961,0.64-2.055,1.222-2.895,1.694
		c-0.852,0.453-1.502,0.714-1.612,0.627c0,0,0.183-0.117,0.37-0.228c0.186-0.112,0.371-0.224,0.371-0.224s-0.355,0.165-0.712,0.329
		c-0.177,0.085-0.354,0.171-0.485,0.235c-0.133,0.065-0.221,0.109-0.221,0.109s-0.191,0.16-0.384,0.32
		c-0.189,0.163-0.379,0.326-0.379,0.326c-0.248,0.092-0.369,0.121-0.41,0.095c-0.718,0.47-1.4,0.902-2.074,1.378
		c-0.673,0.477-1.341,0.995-1.991,1.667c-0.38,0.54-0.768,1.136-1.134,1.859c-0.174,0.365-0.36,0.754-0.509,1.193
		c-0.085,0.216-0.146,0.447-0.221,0.684c-0.033,0.12-0.06,0.243-0.092,0.368c-0.015,0.062-0.031,0.126-0.046,0.189
		C43.995,18.179,43.983,18.244,43.971,18.309z"/>
</g>
</svg>
