<?xml version="1.0" encoding="utf-8"?>
<!-- Generator: Adobe Illustrator 16.0.0, SVG Export Plug-In . SVG Version: 6.00 Build 0)  -->
<!DOCTYPE svg PUBLIC "-//W3C//DTD SVG 1.1//EN" "http://www.w3.org/Graphics/SVG/1.1/DTD/svg11.dtd">
<svg version="1.1" id="Layer_1" xmlns="http://www.w3.org/2000/svg" xmlns:xlink="http://www.w3.org/1999/xlink" x="0px" y="0px"
	 width="100px" height="100px" viewBox="0 0 100 100" enable-background="new 0 0 100 100" xml:space="preserve">
<g>
	<path fill="#63CCF5" d="M90.028,45.147c-0.805-0.588-1.564-1.217-2.634-1.539c-0.494-1.128-2.15-1.093-2.606-2.255
		c-1.452-0.516-2.709-1.239-4.737-1.179c-0.431-0.219-0.728-0.37-1.185-0.359c-0.25,0.007-0.226,0.231-0.592,0.359
		c-0.277,0.091-0.62,0.029-0.831,0.118c-1.23,0.514-2.304,1.521-3.43,2.013c-1.042-0.295-3.139-0.14-2.964,1.539
		c0.077,0.714,1.658,1.9,2.367,2.25c0.406,0.195,0.586,0.65,0.475,1.421c-0.562,0.933-2.727,0.561-4.261,0.827
		c-1.013,0.818-2.146,1.326-2.252,2.485c-0.091,1.093,0.851,1.802,1.304,2.959c1.114,0.544,1.678,1.639,2.844,2.133
		c2.102,2.286,2.259,5.142,5.685,5.924c0.953,0.213,2.107,0.102,3.212,0.035c-0.351-0.665-0.597-1.407-1.321-1.693
		c-1.211-0.054-2.215-0.309-2.842-0.951c0.068-1.866,1.935-2.31,3.198-2.131c0.81,0.115,1.89,0.752,2.843,1.185
		c1.811,0.817,3.327,1.465,4.617,1.299c0.333-0.218,0.579-0.523,1.064-0.588c0.969-1.678,1.667-3.627,2.957-4.972
		c2.108-1.056,4.485-1.832,5.687-3.792c-0.685-0.844-1.904-0.284-2.845-0.472c-0.443-0.093-0.92-0.461-1.414-0.711
		c-0.882-0.435-1.567-0.938-2.489-1.182c-0.515-0.475-0.852-1.124-0.71-2.252C89.487,45.431,89.765,45.271,90.028,45.147z"/>
	<path fill="#63CCF5" d="M40.976,78.769c-0.226-0.304-0.585-0.519-0.827-0.829c-0.277-0.344-0.379-0.813-0.592-1.062
		c-0.55-0.65-1.137-0.848-1.663-1.543c-0.505-0.67-1.354-1.883-2.013-2.483c-0.222-0.567-0.632-1.215-1.058-2.015
		c-0.357-0.646-0.596-1.422-0.951-2.129c-0.612-1.234-1.647-1.798-1.417-3.198c0.208-1.337,2.725-2.393,4.139-2.251
		c1.206-0.993,2-2.072,2.842-3.673c0.299-0.555,1.113-1.354,2.015-1.534c0.477-0.098,0.836,0.166,1.419,0.117
		c0.707-0.058,1.202-0.39,1.539-0.354c1.789,0.188,3.108,1.63,4.62,2.131c1.257,0.419,3.091,0.25,4.616-0.233
		c0.48-0.155,0.897-0.437,1.421-0.594c0.534-0.162,1.163-0.182,1.662-0.357c0.227-0.082,3.246-1.948,3.547-0.709
		c0.222,0.929-0.911,0.96-1.421,1.066c-0.051,0.04-0.106,0.08-0.159,0.122c0.554,0.066,1.168,0.271,1.815,0.346
		c0.499,0.064,0.967-0.229,1.423-0.23c0.515-0.009,0.949,0.295,1.419,0.23c0.92-0.115,1.989-0.747,2.135-1.299
		c0.153-0.59-0.201-0.885-0.711-1.422c-0.887-0.933-1.377-1.074-2.485-1.54c-0.597-0.246-1.11-0.728-1.66-0.944
		c-0.588-0.23-1.253-0.361-1.892-0.595c-0.609-0.217-1.343-0.308-1.896-0.589c-0.554-0.282-1.257-1.014-1.658-1.304
		c-0.379-0.271-0.902-0.373-1.184-0.59c-0.304-0.237-0.521-0.679-0.831-0.949c-1.022-0.891-2.187-1.735-2.723-2.959
		c-0.028-0.02-0.06-0.038-0.089-0.06c-0.013,0.022-0.021,0.04-0.028,0.06c-0.355,0.843-0.342,2.033-1.066,2.487
		c-1.419,0.887-3.693-0.676-4.146-1.541c-0.289-0.561-0.255-1.232-0.473-1.773c-0.425-1.088-0.975-1.874-1.631-2.725
		c-0.357-0.128-0.711-0.244-0.847-0.259c-0.694-0.1-1.534,0.151-2.366,0.35c-0.74,0.173-1.507,0.269-2.128,0.477
		c-0.862,0.279-1.565,0.922-2.494,1.062c-0.519,0.082-1.035,0.095-1.532,0.12c-0.869,0.04-2.893,0.233-3.906,0.118
		c-1.142-0.128-2.148-1.12-3.086-1.182c-0.902-0.062-2.082,0.426-2.835,0.827c-0.627,0.333-1.146,0.894-2.033,1.168
		c0.004,0,0.004,0,0.004,0c0.519,0.641,1.124,1.179,1.78,1.818c0.738,0.284,1.552,0.268,2.25,0.475
		c0.459,0.135,0.878,0.481,1.304,0.594c0.643,0.168,1.359-0.19,1.891,0.353c0.014,1.452-0.771,2.115-1.775,3.318
		c-1.922,2.29-4.538,3.798-7.58,5.206c-1.312,0.607-2.636,1.442-4.259,1.777c-0.669,0.136-1.368-0.051-2.088,0
		c0,0.096-0.013,0.206-0.031,0.328c-0.486,0.344-0.949,0.071-1.468-0.152c-0.918,0.117-1.798,0.179-2.467-0.176
		c-1.035,0.115-2.088,0.361-2.815,0.563c-1.667,0.461-3.587,1.374-3.077,3.556c0.328,1.395,1.838,1.76,2.607,2.957
		c1.636-0.609,2.851,0.129,4.613,0.71c1.308,0.432,2.931,0.562,3.082,1.777c0.259,2.122-2.607,2.159-2.842,3.906
		c-0.093,0.696,0.277,1.379,0.711,2.131c0.341,0.594,0.734,1.292,1.06,1.658c0.027,0.024,0.049,0.047,0.073,0.068
		c1.35-0.569,3.02-1.055,3.707-2.292c0.311-0.559,0.353-1.456,0.712-2.011c0.86-1.353,2.76-2.308,4.97-1.538
		c0.375,0.851,1.011,1.438,1.182,2.482c0.412,0.211,0.51,0.443,0.714,0.951c0.055,0.153,0.333,0.222,0.474,0.472
		c0.647,1.127,1.162,2.82,2.607,3.197c0.277,0.071,0.805-0.058,1.299,0c0.353,0.042,0.689,0.246,0.944,0.239
		c0.364-0.016,0.596-0.248,0.951-0.239c0.8,0.022,1.512,0.443,2.487,0.239c1.359,0.541,1.844,1.408,2.603,2.603
		c0.204,0.319,0.528,0.616,0.712,0.944c0.301,0.552,0.37,1.288,0.711,1.778c0.716,1.026,1.933,1.175,2.959,1.896
		c0.716-0.461,1.751-0.639,2.25-1.302c0.18-0.243,0.175-0.702,0.355-1.066c0.19-0.388,0.425-0.538,0.472-0.829
		c0.124-0.756-0.716-2.146-1.304-3.077C41.363,79.509,41.193,79.067,40.976,78.769z"/>
	<path fill="#63CCF5" d="M54.951,20.28c0.711-0.334,1.627-0.887,2.245-0.949c0.513-0.049,1.286,0.381,2.016,0.475
		c0.438,0.055,0.855-0.086,1.184,0c0.831,0.21,1.461,0.86,2.25,1.064c0.454,0.122,1.035,0.053,1.539,0.122
		c1.29,0.168,2.631,0.175,3.91-0.592c0.693-0.421,1.082-1.066,2.009-1.306c0.312-0.075,2.43,0.253,3.184-0.43
		c-0.094-0.184-0.171-0.393-0.227-0.636c-1.299-0.738-2.691-1.213-4.733-0.947c-1.683-0.842-2.84-2.21-4.378-3.192
		c-1.747-0.013-4.048,0.027-4.857,0.233c-0.767,0.193-1.489,0.691-2.248,1.064c-1.47,0.725-2.981,1.317-4.617,2.015
		c-0.759,0.326-1.557,0.357-2.37,0.594c-0.605,0.175-1.261,0.534-2.13,0.827c-1.623,0.541-3.514,0.94-4.502,2.248
		c-0.033,0.714-0.472,1.026-0.472,1.778c-0.736,0.437-1.423,0.865-2.173,1.271c0.934,0.812,1.632,2.008,2.645,2.403
		c0.277,0.106,1.15,0.175,1.539,0.116c0.962-0.149,1.917-0.827,2.964-1.069c0.166-0.035,0.363,0.146,0.594,0.12
		c0.301-0.026,0.598-0.244,0.825-0.235c0.818,0.033,2.01,0.59,2.49,0.475c2.252-0.548,1.465-3.093,1.536-4.144
		C53.401,20.997,54.15,20.651,54.951,20.28z"/>
</g>
</svg>
