<?xml version="1.0" encoding="utf-8"?>
<!-- Generator: Adobe Illustrator 16.0.0, SVG Export Plug-In . SVG Version: 6.00 Build 0)  -->
<!DOCTYPE svg PUBLIC "-//W3C//DTD SVG 1.1//EN" "http://www.w3.org/Graphics/SVG/1.1/DTD/svg11.dtd">
<svg version="1.1" id="Layer_1" xmlns="http://www.w3.org/2000/svg" xmlns:xlink="http://www.w3.org/1999/xlink" x="0px" y="0px"
	 width="100px" height="100px" viewBox="0 0 100 100" enable-background="new 0 0 100 100" xml:space="preserve">
<g>
	<path d="M53,70.09c0,0.083-0.051,0.113-0.201,0.222c-0.879,0.751-3.163,1.833-5.842,0.046c-0.049-0.033-0.239-0.188-0.264-0.268
		l-0.003-5.644l0.019-208.979c0,0,0.636-5.178,1.584-8.808c1.324-6.161,2.747-3.698,3.486,0.121
		c0.136-0.399,1.221,9.133,1.221,9.133V64.446V70.09z"/>
	<path d="M46,62.994c0-0.068,0.447-0.094,0.597-0.184c0.88-0.626,3.33-1.527,6.008-0.038C52.654,62.8,53,62.929,53,62.994
		c0,0.366,0,26.846,0,26.846s-0.594,4.314-1.543,7.34c-1.324,5.134-3.122,3.082-3.861-0.101C47.46,97.411,46,89.468,46,89.468
		S46,63.363,46,62.994z"/>
</g>
<path fill="#CCCCCC" d="M54.375-41.375C54.375-38.959,52.416-37,50-37s-4.375-1.959-4.375-4.375S47.584-45.75,50-45.75
	S54.375-43.791,54.375-41.375z M49.125-61c0,0-10.5,10-10.5,19s10.5,20.25,10.5,20.25s1.75-2.5,5-5.5s7.25-9,7.25-13.75
	s-3.5-9.25-5.75-12.5S49.125-61,49.125-61z"/>
<path d="M54.375-41.375C54.375-38.959,52.416-37,50-37s-4.375-1.959-4.375-4.375S47.584-45.75,50-45.75S54.375-43.791,54.375-41.375
	z M50-49.75c-4.625,0-8.375,3.75-8.375,8.375S45.375-33,50-33s8.375-3.75,8.375-8.375S54.625-49.75,50-49.75z"/>
<circle fill="#4D4D4D" cx="50" cy="-41.375" r="4.375"/>
<path fill="#CCCCCC" d="M54.375,9.625C54.375,12.041,52.416,14,50,14s-4.375-1.959-4.375-4.375S47.584,5.25,50,5.25
	S54.375,7.209,54.375,9.625z M49.125-10c0,0-10.5,10-10.5,19s10.5,20.25,10.5,20.25s1.75-2.5,5-5.5s7.25-9,7.25-13.75
	s-3.5-9.25-5.75-12.5S49.125-10,49.125-10z"/>
<path d="M54.375,9.625C54.375,12.041,52.416,14,50,14s-4.375-1.959-4.375-4.375S47.584,5.25,50,5.25S54.375,7.209,54.375,9.625z
	 M50,1.25c-4.625,0-8.375,3.75-8.375,8.375S45.375,18,50,18s8.375-3.75,8.375-8.375S54.625,1.25,50,1.25z"/>
<circle fill="#4D4D4D" cx="50" cy="9.625" r="4.375"/>
<path fill="#CCCCCC" d="M54.375,56.625C54.375,59.041,52.416,61,50,61s-4.375-1.959-4.375-4.375S47.584,52.25,50,52.25
	S54.375,54.209,54.375,56.625z M49.125,37c0,0-10.5,10-10.5,19s10.5,20.25,10.5,20.25s1.75-2.5,5-5.5s7.25-9,7.25-13.75
	s-3.5-9.25-5.75-12.5S49.125,37,49.125,37z"/>
<path d="M54.375,56.625C54.375,59.041,52.416,61,50,61s-4.375-1.959-4.375-4.375S47.584,52.25,50,52.25S54.375,54.209,54.375,56.625
	z M50,48.25c-4.625,0-8.375,3.75-8.375,8.375S45.375,65,50,65s8.375-3.75,8.375-8.375S54.625,48.25,50,48.25z"/>
<circle fill="#4D4D4D" cx="50" cy="56.625" r="4.375"/>
</svg>
