<?xml version="1.0" encoding="utf-8"?>
<!-- Generator: Adobe Illustrator 16.0.0, SVG Export Plug-In . SVG Version: 6.00 Build 0)  -->
<!DOCTYPE svg PUBLIC "-//W3C//DTD SVG 1.1//EN" "http://www.w3.org/Graphics/SVG/1.1/DTD/svg11.dtd">
<svg version="1.1" id="Layer_1" xmlns="http://www.w3.org/2000/svg" xmlns:xlink="http://www.w3.org/1999/xlink" x="0px" y="0px"
	 width="50px" height="50px" viewBox="0 0 50 50" enable-background="new 0 0 50 50" xml:space="preserve">
<path fill="#231F20" d="M26.92,4.772c-2.448,2.809-4.441,3.889-6.554,3.721c-2.113-0.168-2.329,0.192-0.529,1.44
	c1.8,1.249,4.058-0.144,4.658-0.72c0.601-0.577,1.729-0.145,2.281,0.696c0.276,0.422,0.64,0.909,1.098,1.306
	c-0.207-0.017-0.412-0.029-0.613-0.037c0.031-0.011,0.061-0.022,0.092-0.032c-4.861-0.36-8.175,2.161-9.868,3.421
	c-1.693,1.26,0.648-1.621-0.504-3.602c-1.152-1.981-3.385-0.72-3.349,0.504c0.036,1.224,1.512,1.332,1.26,0.756
	c-0.251-0.577-0.108-1.549,0.756-1.188s0.396,2.088-0.287,3.854c-0.637,1.641-2.826,5.619-2.465,11.406l-0.003-0.008
	c0.003,0.04,0.005,0.083,0.008,0.128c0,0.011,0.001,0.021,0.001,0.032c0.043,0.765,0.121,2.147-0.567,0.975
	c-0.738-1.26-2.654-3.249-3.781-4.376c-0.032-0.032-0.066-0.063-0.099-0.094c0.239-0.414,0.495-0.799,0.748-1.058
	c0.684-0.702,1.062-0.648,1.134-0.27s0.937,0.541,0.901-0.252c-0.036-0.792-1.153-0.9-1.782-0.756c0,0,0.125-1.261-1.189-1.458
	c-1.314-0.198-1.314,1.225-0.469,1.314c0.636,0.068,0.469,0.715-0.119,1.903c-1.849-1.115-4.945-1.533-6.632,0.871
	c-2,2.844,0.252,5.527,2.521,5.508c2.269-0.017,2.755-1.673,3.89-1.331c1.134,0.342,1.116,0.63,1.116,1.026S9.4,28.379,9.094,27.19
	s-1.333-1.062-1.819-1.062c-0.486,0-0.215-0.648,0.163-1.278c0.122-0.205,0.278-0.512,0.457-0.858
	c2.122,1.85,4.847,5.478,6.399,8.929c2.434,6.899,7.59,12.314,13.96,14.168c7.923,2.305,11.02-0.865,12.966-3.638
	c1.944-2.772,1.26-6.985-0.864-7.635c-2.126-0.649-2.919,0.901-2.919,1.548c0,0.649-0.396,0.612-0.396,0.612
	s-0.107-0.432-0.575-1.008c-0.468-0.575-1.403-0.323-1.117-0.145c0.288,0.182,0.433,0.433,0.505,1.767
	c0.07,1.331-1.693,1.763-2.233,1.692c-0.539-0.073-1.476-1.369,0.217-3.817c2.311-3.144,3.656-5.668,4.344-7.127
	c0.213-0.407,0.396-0.831,0.55-1.27c0.024-0.062,0.04-0.104,0.04-0.104l-0.001,0.002c0.398-1.169,0.592-2.434,0.601-3.726
	l0.012,0.003c0-1.177,0.312-1.152,0.529-0.672c0.216,0.479,2.064,5.45,6.578,5.45s4.178-6.794,0.575-6.794
	c-0.504,0-0.792,0.169-0.792,0.169s-0.312-0.336-0.744-0.336c-0.432,0-0.793,0.216-0.793,0.48c0,0-0.647-0.312-1.271,0.144
	c-0.624,0.456-0.289,1.32,0,1.488c0,0-0.577,0.84,0.145,1.608c0.719,0.769,1.705-0.432,1.705-0.432s1.368,0.408,1.632-0.72
	s-0.504-1.177-0.504-1.177s2.089-0.312,2.089,2.088c0,2.401-2.497,2.642-3.913,1.73c-1.418-0.914-3.817-5.476-4.875-7.324
	c-1.057-1.848-2.233-2.689-1.176-2.953c1.057-0.264,2.16-0.72,2.16-1.44c0-0.663-1.728-0.35-2.227-0.202
	c0.588-0.237,3.188-1.505,3.188-4.433c0-3.433-2.282-6.29-5.235-7.178C33.523,2.858,29.37,1.963,26.92,4.772z M6.968,23.733
	c-0.647,1.189-0.882,1.08-0.971,0.775c-0.09-0.306-0.955-0.937-2.072-0.631c-1.117,0.307-0.972,1.153-0.792,1.297
	c0.179,0.144,0.27-0.378,0.899-0.289c0.63,0.09,1.567,0.937,0.685,2.071c-0.882,1.135-3.169,0.828-3.116-1.351
	c0.055-2.178,2.449-3.799,4.826-2.647c0.223,0.108,0.464,0.255,0.721,0.438C7.09,23.506,7.031,23.617,6.968,23.733z M32.246,11.551
	c0.034,0.277,0.096,0.555,0.178,0.826c-0.398-0.171-0.794-0.322-1.182-0.454C31.588,11.854,31.93,11.737,32.246,11.551z
	 M29.623,20.654c1.655,2.484-0.073,4.286-1.334,4.537c-1.26,0.253-1.117-0.936-0.973-1.295c0.145-0.361-0.359-0.648-0.756-0.648
	c-0.395,0,0.072-0.396-0.145-0.829c-0.216-0.432-0.864-0.9-0.395-1.44c0.467-0.54-0.038-0.648-0.47-0.396
	c-0.431,0.252-2.052,1.98-0.576,4.574c0.576,0.898,2.269,1.368,1.548,1.729c-0.721,0.359-1.089,0.232-1.333,0.674
	c0,0-0.44-0.692-0.945-0.684c-0.505,0.01-0.459-0.468-0.36-0.721c0.099-0.251-0.244-0.314-0.496,0.046
	c-0.252,0.359-0.665,2.423,1.422,3.097c2.09,0.676,2.81-0.604,2.81-0.604s0.108,0.127,0.297,0.811s1.026,2.386,2.549,2.746
	c1.521,0.361,2.799-0.748,2.34-0.802s-1.088-0.188-1.216-0.62c-0.125-0.433-0.387-0.722-0.629-0.73
	c-0.243-0.008-0.189-0.188-0.162-0.611c0.026-0.424-0.126-0.784-0.739-0.793c-0.612-0.008-1.72-1.179-0.521-2.241
	c1.197-1.062,2.845-3.062,1.764-5.538c-1.081-2.476-3.033-3.304-5.824-2.692c-1.175,0.258-2.109,0.813-2.826,1.495
	c0.215-1.154,0.012-2.745-1.424-3.241c-1.981-0.685-3.241,0.288-2.484-0.685c0.756-0.973,5.33-4.645,10.911-2.665
	c5.581,1.981,5.404,4.394,5.223,5.906c-0.18,1.513,0.9,1.153,1.117,0.613c0.215-0.541,0.899-1.513,1.404,0.684
	c0.503,2.197,1.656,7.455-2.559,10.587c-4.213,3.135-8.318,1.873-10.119,0.037c-1.801-1.837-3.674-4.862-2.305-8.248
	C23.788,19.321,27.965,18.169,29.623,20.654z M20.415,17.187c0.153,0.032,0.293,0.077,0.418,0.136
	C20.704,17.279,20.564,17.233,20.415,17.187z M19.645,39.994c-4.141-4.719-6.086-12.569-4.896-17.612
	c1.188-5.042,5.69-5.366,6.519-4.718l0.034-0.007c0.473,0.486,0.6,1.216,0.529,1.772c-0.131,1.044-1.332,1.116-1.752,0.792
	c-0.42-0.324,0.036-0.756,0.036-0.756c0.72-0.18,0.564-1.176-0.071-1.213c-0.613-0.034-1.945,0.865-1.189,2.377
	c0.53,1.057,1.707,1.105,2.565,0.755c-0.248,0.494-0.417,0.99-0.502,1.448c-0.326,1.72-0.613,6.06,2.557,8.552
	c1.27,0.981,0.944,1.343,0.296,1.495c-0.249,0.06-0.724,0.148-1.212,0.446c-0.039,0.022-0.073,0.047-0.108,0.071
	c-0.071,0.047-0.139,0.099-0.208,0.156c-0.029,0.025-0.062,0.048-0.091,0.075c-0.627,0.566-1.181,1.582-1.181,3.475
	c0,0,0.021,0.082,0.054,0.212c0.035,0.956,0.235,1.847,0.533,2.39C22.382,41.218,23.788,44.711,19.645,39.994z M32.539,35.239
	c-0.793,1.009-2.521,3.277-1.01,5.365c1.513,2.09,4.323,1.153,5.224,0.434c0.9-0.722,1.403-1.044,2.124-0.794
	c0.72,0.254,0.774-0.126,0.774-0.126l-1.783-1.781c0,0,0.54,0.396,1.153-0.18c0.612-0.577-0.217-1.37,0.541-1.334
	c0.755,0.036,2.052,1.548,1.403,3.602c-1.478,5.043-6.194,7.095-10.912,5.51c-4.718-1.585-7.598-6.589-7.598-9.29
	c0-0.33,0.036-0.616,0.099-0.869c0.091-0.299,0.204-0.555,0.334-0.773c0.515-0.784,1.357-0.989,1.756-1.04
	c1.057,0.025,2.044,0.9,1.916,1.926c-0.253,2.017-2.341,0.539-1.477,0.071s-1.188-1.836-1.512,0.072
	c-0.324,1.909,2.017,3.603,3.745,1.766c1.729-1.838-0.18-3.927,0.577-3.818c0.755,0.107,1.907,0.612,5.649-0.646
	C34.013,33.633,33.223,34.368,32.539,35.239z M40.582,10.462c0,4.226-4.25,3.578-5.354,2.449c-1.104-1.129-1.729-3.457,0.024-3.457
	c1.752,0,1.872,0.888,1.872,1.728c0,0.84,0.77,0.457,0.77-1.008c0-1.367-1.756-3.17-4.156-1.612
	c-0.095-1.564-1.349-2.747-2.71-2.614c-1.73,0.167-2.376,1.205-1.657,2.281c0.143,0.216,0.287-0.72,1.345-0.673
	c1.056,0.048,1.992,2.042,0.167,2.737c-1.824,0.697-3.097-1.584-2.856-2.881c0.239-1.297,1.032-3.361,4.321-3.361
	S40.582,6.236,40.582,10.462z"/>
</svg>
