<?xml version="1.0" encoding="utf-8"?>
<!-- Generator: Adobe Illustrator 16.0.0, SVG Export Plug-In . SVG Version: 6.00 Build 0)  -->
<!DOCTYPE svg PUBLIC "-//W3C//DTD SVG 1.1//EN" "http://www.w3.org/Graphics/SVG/1.1/DTD/svg11.dtd">
<svg version="1.1" id="Layer_1" xmlns="http://www.w3.org/2000/svg" xmlns:xlink="http://www.w3.org/1999/xlink" x="0px" y="0px"
	 width="50px" height="50px" viewBox="0 0 50 50" enable-background="new 0 0 50 50" xml:space="preserve">
<g>
	<path fill-rule="evenodd" clip-rule="evenodd" fill="#333333" d="M19.889,5.934c0.328,0.096,0.559,0.289,0.846,0.423
		c1.191,1.533-0.206,3.259-0.094,5.224c0.2-1.571,1.344-3.135,0.659-4.846c0.189,0.048,0.27,0.201,0.423,0.283
		c0.497,2.429-1.534,5.812,0.566,7.622c-1.534-1.991-0.071-4.72-0.094-7.152c0.376,0.047,0.417,0.837,0.424,1.412
		c-0.457,2.219-0.488,5.438,0.846,6.682c-0.838-1.633-0.967-4.582-0.516-6.917c0.714,2.813,0.38,6.677,2.352,8.234
		c-1.314-2.045-0.842-6.12-0.611-8.846c-0.04-0.244-0.237-0.329-0.284-0.565c1.062,0.404,0.672,1.963,0.612,3.2
		c0.291-0.336,0.223-1.033,0.329-1.552c0.153,0.538,0.202,1.178,0.377,1.694c0.352-0.383,0.375-1.304,0.282-1.976
		c0.633,0.026,0.366,1.589,0.33,2.399c0.315-0.359,0.3-1.049,0.329-1.694c0.599,1.366-0.465,2.977,0.047,4.563
		c0.004-1.408,0.239-2.584,0.424-3.81c0.499,1.283,0.265,3.269,0.234,4.892c-0.525-0.242-1.102-0.434-1.082-1.224
		c-0.448,0.967,0.496,1.825,0.33,2.824c-0.277-0.443-0.348-1.095-0.706-1.458c-0.016,0.806,0.797,1.457,0.564,2.352
		c-0.464-0.868-0.864-1.801-1.176-2.823c-0.032,1.835,1.273,2.741,1.411,4.563c-0.764-1.116-1.565-2.199-2.446-3.199
		c1.103,1.736,2.434,3.652,3.669,5.411c-0.008,0.055,0.012,0.083,0.048,0.094c0.028,0.068,0.056-0.004,0,0
		c0.007-0.055-0.011-0.084-0.048-0.094c-0.014-0.236-0.15-0.351-0.188-0.564c0.551,0.705,1.322,1.185,1.411,2.352
		c-0.253-0.532-0.397-1.171-0.894-1.46c0.174,0.822,0.812,1.406,0.705,2.355c-0.192-0.702-0.451-1.336-0.848-1.836
		c-0.027,0.672,0.617,1.078,0.566,1.929c-0.77-0.644-1.119-1.705-1.789-2.448c-0.65-0.759-1.165-1.656-1.835-2.399
		c-0.028-0.068-0.057,0.005,0,0c0.831,1.774,2.275,2.933,3.013,4.8c-1.516-1.324-2.457-3.222-3.765-4.752
		c0.87,1.702,2.213,3.338,3.387,4.895c-2.267-1.419-2.977-4.393-4.987-6.07c0.009-0.041-0.018-0.044-0.047-0.048
		c0.008-0.04-0.018-0.044-0.046-0.047c-0.03-0.067-0.058,0.005,0,0c-0.01,0.041,0.017,0.045,0.046,0.047
		c-0.009,0.041,0.018,0.045,0.047,0.048c1.789,2.038,2.672,4.982,5.035,6.446c-2.342-0.983-3.05-4.007-5.035-5.505
		c0.707,1.081,1.568,2.008,2.211,3.153c-1.185-1.97-4.158-3.995-7.01-2.448c-0.469-0.82,0.632-1.19,1.13-1.505
		c-0.597-0.154-1.064,0.47-1.318,0.659c0.207-0.861,1.029-1.105,1.882-1.318c-0.417-0.255-1.024,0.1-1.363,0.236
		c1.061-1.146,3.046-0.055,3.81,0.659c-0.715-1.659-3.297-1.212-4.799-2.024c1.432,0.272,3.536,0.029,4.469,0.987
		c-0.906-1.836-5.188-0.513-6.257-2.399c1.072,0.575,2.481,0.812,4.093,0.847c-1.776-0.577-4.049-0.656-4.988-2.07
		c1.124,0.596,2.208-0.463,3.436-0.329c1.573,0.229,2.525,1.082,3.293,2.117c-0.788-2.725-4.099-3.335-6.164-4.94
		c-0.287-0.451-0.59-0.884-0.659-1.552c0.659,1.584,2.221,2.264,3.765,2.964c-0.009,0.041,0.018,0.045,0.046,0.047
		c0.072-0.025,0.004-0.048-0.046-0.047c-1.583-1.271-3.878-1.832-3.624-4.94c0.183,1.81,1.063,2.922,2.307,3.67
		c-0.925-1-2.434-2.486-1.836-4.706c0.075,2.373,1.284,3.61,2.872,4.471c-1.312-1.098-3.078-2.767-2.353-5.6
		c-0.132,3.334,2.494,4.31,3.811,6.352c-1.044-2.316-3.937-3.417-3.248-7.01c0.266,1.54,0.727,2.881,1.647,3.764
		c0.774,0.782,2.561,0.585,2.871-0.471c0.064-0.989-0.324-1.527-0.8-1.976C19.889,5.965,19.889,5.951,19.889,5.934z M18.994,9.322
		c0.565,0.173,1.471,0.081,1.601-0.47C20.188,8.957,19.417,9.079,18.994,9.322z M19.559,9.699c0.159,0.237,0.938,0.208,0.942-0.142
		C20.286,9.518,19.77,9.579,19.559,9.699z M19.889,10.169c0.082,0.182,0.588,0.209,0.612-0.047
		C20.427,9.992,19.894,9.951,19.889,10.169z M20.124,10.734c0.187,0.044,0.271,0.037,0.424-0.047
		C20.564,10.449,20.036,10.402,20.124,10.734z M25.111,13.979c-0.207-0.672-0.035-1.721-0.235-2.399
		C24.752,12.398,24.82,13.423,25.111,13.979z M26.146,13.697c0.014-0.631,0.158-1.625,0.047-2.07
		C26.018,12.095,25.849,13.216,26.146,13.697z M25.675,14.073c-0.087-0.752,0.053-1.676-0.094-2.258
		C25.401,12.475,25.37,13.526,25.675,14.073z M20.124,12.71c-0.009,0.04,0.018,0.044,0.047,0.047
		c1.102,1.798,2.106,3.695,3.575,5.127c-1.257-1.644-2.326-3.476-3.575-5.127C20.179,12.717,20.153,12.712,20.124,12.71
		C20.094,12.641,20.067,12.714,20.124,12.71z M20.689,15.862c-0.946-0.827-2.437-1.358-4.047-1.364
		C18.078,14.803,19.751,15.371,20.689,15.862z M22.993,15.72c-0.009,0.04,0.019,0.045,0.049,0.047
		c-0.01,0.041,0.017,0.045,0.047,0.047c0,0.032,0,0.063,0,0.095c0.03,0,0.062,0,0.093,0c1.688,1.998,3.175,4.448,4.752,6.398
		c-1.304-2.412-2.884-4.547-4.752-6.398c0.018-0.081-0.036-0.089-0.093-0.095c0.007-0.04-0.019-0.044-0.047-0.047
		C23.05,15.728,23.021,15.724,22.993,15.72C23.039,15.525,22.852,15.712,22.993,15.72z M23.747,18.967
		c-0.556-0.825-1.311-1.857-2.165-2.542C22.286,17.291,22.962,18.184,23.747,18.967z M21.77,19.203
		c-0.411-0.498-1.363-0.454-2.165-0.564C20.184,18.971,21.155,18.908,21.77,19.203z"/>
	<path fill-rule="evenodd" clip-rule="evenodd" fill="#333333" d="M36.355,9.886c-0.027,0.503,0.061,1.202,0.754,1.129
		C36.647,11.837,35.641,10.391,36.355,9.886z"/>
	<path fill-rule="evenodd" clip-rule="evenodd" fill="#333333" d="M35.791,10.544c0.104,0.461,0.202,0.929,0.66,1.036
		c-0.521,0.207-0.721-0.314-0.847-0.658C35.613,10.744,35.781,10.723,35.791,10.544z"/>
	<path fill-rule="evenodd" clip-rule="evenodd" fill="#333333" d="M35.368,11.251c0.152,0.303,0.236,0.672,0.612,0.752
		C35.701,12.495,35.083,11.613,35.368,11.251z"/>
	<path fill-rule="evenodd" clip-rule="evenodd" fill="#333333" d="M35.039,11.815c0.017,0.367,0.438,0.557,0.424,0.8
		c-0.272,0.103-0.37-0.341-0.518-0.519C34.933,11.959,35.051,11.954,35.039,11.815z"/>
	<path fill-rule="evenodd" clip-rule="evenodd" fill="#333333" d="M34.757,12.427c0.167,0.164,0.249,0.411,0.376,0.613
		c-0.067,0.026-0.114,0.073-0.14,0.14C34.762,13.067,34.666,12.724,34.757,12.427z"/>
	<path fill-rule="evenodd" clip-rule="evenodd" fill="#333333" d="M34.474,13.086c0.127,0.11,0.165,0.307,0.33,0.376
		c-0.044,0.096-0.096,0.187-0.142,0.283C34.468,13.657,34.355,13.345,34.474,13.086z"/>
	<path fill-rule="evenodd" clip-rule="evenodd" fill="#333333" d="M10.996,13.839c0.218,0.246-0.118,0.681-0.283,0.847
		C10.628,14.412,11.079,14.269,10.996,13.839z"/>
	<path fill-rule="evenodd" clip-rule="evenodd" fill="#333333" d="M34.286,13.839c0.09,0.019,0.036,0.183,0.188,0.141
		c0.014,0.139-0.105,0.145-0.094,0.282C34.122,14.26,34.23,14.005,34.286,13.839z"/>
	<path fill-rule="evenodd" clip-rule="evenodd" fill="#333333" d="M11.373,14.168c0.196,0.141,0.031,0.825-0.235,0.66
		C11.168,14.561,11.329,14.423,11.373,14.168z"/>
	<path fill-rule="evenodd" clip-rule="evenodd" fill="#333333" d="M34.099,14.45c0.172,0.033,0.084,0.324,0,0.378
		C33.966,14.752,34.163,14.616,34.099,14.45z"/>
	<path fill-rule="evenodd" clip-rule="evenodd" fill="#333333" d="M11.748,14.498c0.215,0.082-0.063,0.42-0.092,0.564
		C11.538,14.913,11.783,14.722,11.748,14.498z"/>
	<path fill-rule="evenodd" clip-rule="evenodd" fill="#333333" d="M12.03,14.874c0.102-0.08,0.039,0.388-0.047,0.423
		C11.835,15.176,12.101,15.072,12.03,14.874z"/>
	<path fill-rule="evenodd" clip-rule="evenodd" fill="#333333" d="M12.361,15.25c0.18,0.041,0.033,0.272-0.094,0.282
		C12.255,15.395,12.373,15.389,12.361,15.25z"/>
	<path fill-rule="evenodd" clip-rule="evenodd" fill="#333333" d="M12.595,15.627c0.15,0.039,0.174,0.202,0.235,0.329
		c-0.099-0.057-0.184-0.13-0.282-0.188C12.573,15.73,12.597,15.691,12.595,15.627z"/>
	<path fill-rule="evenodd" clip-rule="evenodd" fill="#333333" d="M29.487,23.766c0.563,1.267-0.687,2.187-2.118,2.07
		c-0.149-0.13-0.242-0.321-0.377-0.47C28.18,25.781,29.526,25.158,29.487,23.766z"/>
	<path fill-rule="evenodd" clip-rule="evenodd" fill="#333333" d="M29.958,24.944c0.411,0.896-1.605,2.177-2.26,1.269
		C28.779,26.119,29.658,25.821,29.958,24.944z"/>
	<path fill-rule="evenodd" clip-rule="evenodd" fill="#333333" d="M30.335,25.696c0.041,0.021,0.083,0.042,0.094,0.094
		c0.053,0.995-0.831,1.458-1.789,1.6c-0.175-0.076-0.245-0.257-0.376-0.376C29.254,26.874,29.925,26.415,30.335,25.696z"/>
	<path fill-rule="evenodd" clip-rule="evenodd" fill="#333333" d="M30.71,26.59c0.483,0.814-0.696,1.55-1.553,1.505
		c-0.051-0.121-0.117-0.226-0.234-0.281C29.695,27.583,30.406,27.29,30.71,26.59z"/>
	<path fill-rule="evenodd" clip-rule="evenodd" fill="#333333" d="M31.134,27.531c0.151-0.011,0.113,0.166,0.188,0.234
		c-0.326,0.535-0.687,1.039-1.553,1.035c-0.182-0.037-0.179-0.26-0.329-0.328C30.255,28.408,30.804,28.079,31.134,27.531z"/>
	<path fill-rule="evenodd" clip-rule="evenodd" fill="#333333" d="M17.348,37.6c-0.515-0.138-1.333-0.184-1.506,0.282
		c1.034-0.44,2.517,0.209,2.588,1.458c-0.343-0.568-0.942-1.322-1.834-1.034c0.792,0.18,1.371,0.575,1.599,1.317
		c-0.258-0.276-0.458-0.61-1.035-0.564c0.931,0.214,1.353,2.129,0.376,2.635c0.199-0.626-0.124-1.481-0.47-1.977
		c-1.549-1.087-2.716,0.688-2.635,2.4c-0.176-0.231-0.246-0.57-0.519-0.707c0.143,0.535,0.534,1.981-0.187,2.353
		c0.212-0.786,0.036-1.847-0.753-1.929c0.609,0.424,0.825,2.533-0.377,2.636c0.681-0.447,0.711-2.129-0.188-2.353
		c0.59,0.479,0.593,2.288-0.471,2.399c-0.216-0.003-0.304-0.134-0.47-0.188c1.751-0.826-0.553-3.013-1.647-1.6
		c-0.237,0.531-0.716,0.819-0.847,1.459c-0.015,0.751,0.259,1.829-0.376,2.069c0.214-0.257,0.149-0.763-0.094-0.94
		c-0.058,0.294-0.044,0.922-0.33,1.129c-0.384,0.039-0.625,0.221-0.941,0.33c0.489-0.269,0.708-1.362-0.046-1.506
		c-1.053,0.154-1.078,1.338-2.353,1.271c-0.914-0.248-1.436-0.887-1.413-2.07c0.147,0.573,0.372,1.07,0.895,1.271
		c-0.472-0.551-0.814-1.66-0.706-2.823c0.495,0.32,0.537,1.094,0.612,1.835c0.251,0.392,0.496,0.789,1.223,0.705
		c0.639-0.287,1.177-0.674,1.507-1.27c0.034-0.526,0.345-1.63-0.282-1.741c-0.393,0.094-0.138,0.836-0.519,0.941
		c0.183-1.403-0.899-2.236-1.739-2.917c0.75,0.378,1.606,0.65,1.927,1.458c0.088-0.199-0.141-0.486-0.188-0.706
		c0.341,0.02,0.544,0.178,0.753,0.33c0.145-0.005-0.145-0.184,0-0.189c0.335-0.035,0.525,0.072,0.847,0.047
		c0.105,0.195,0.169,0.428,0.33,0.565c0.14-0.203-0.125-0.406-0.141-0.612c0.125,0,0.252,0,0.376,0
		c0.246,0.462,0.278,1.144,0.094,1.693c0.43-0.326,0.254-1.208,0.142-1.739c1.572-0.123,3.279-1.194,4.516-0.048
		c-0.106-0.431-0.714-0.757-1.411-0.752c0.79-0.776,1.985,0.14,2.54,0.611c-0.25-0.674-0.793-1.058-1.646-1.13
		c0.41-0.326,0.912-0.562,1.223-0.987c0.073,0.196-0.169,0.58-0.046,0.847c0.395-1.158,1.101-2.005,1.976-2.682
		c-0.281-0.067-0.579,0.229-0.8,0.375c0.006-0.322,0.34-0.726,0.376-1.175c0.133,0.119,0.126,0.375,0.424,0.33
		c-0.62-0.909,0.3-2.406,0.518-3.2c-0.198,0.133-0.286,0.374-0.424,0.563c-0.047-0.439,0.295-0.896,0.471-1.27
		c-0.291,0.039-0.375,0.283-0.471,0.518c-0.074-0.271-0.108-0.583-0.142-0.894c0.321,0.135,0.729-0.015,0.848-0.235
		c-1.378,0.402-1.118-1.513-1.553-2.354c-0.142-0.045-0.083,0.107-0.094,0.188c-0.515-0.738-0.963-1.545-1.694-2.07
		c0.89-0.025,0.981,1.152,1.553,1.601c0.301,0.082,0.34-0.294,0.517-0.188c0.42,0.692-0.102,2.329,0.799,2.541
		c0.592,0.032,0.832-0.504,0.707-1.036c1.189,0.371,0.929,2.469,0.189,3.151c0.115,0.278,0.158,0.627,0.47,0.707
		c0.303,0.052,0.405-0.096,0.612-0.14c0.085,0.45,0.081,1.079-0.189,1.316c-0.209,0.057-0.483,0.051-0.752,0.046
		c0.023,0.275,0.357,0.238,0.658,0.236c-0.214,0.375-0.932,0.116-1.269,0.047c0.116,0.212,0.311,0.346,0.611,0.376
		c-0.281,0.206-0.912,0.061-1.177,0.283c0.334,0.372,1.094,0.317,1.459,0.657C17.348,37.568,17.348,37.584,17.348,37.6z
		 M16.455,32.708c0.317,0.09,0.682-0.41,0.563-0.754C16.854,32.228,16.584,32.396,16.455,32.708z M16.408,33.507
		c0.446,0.202,0.905-0.465,0.705-0.753C16.937,33.063,16.626,33.24,16.408,33.507z M16.971,35.294
		c0.176-0.012,0.303-0.073,0.376-0.188c-0.421-0.081-0.537-0.467-0.847-0.658C16.307,34.768,16.626,35.221,16.971,35.294z
		 M16.642,35.482c-0.187-0.109-0.339-0.256-0.517-0.376C15.776,35.402,16.501,35.952,16.642,35.482z M16.078,36.047
		c0.038-0.242-0.137-0.272-0.283-0.329C15.7,35.859,15.836,36.093,16.078,36.047z M14.618,38.636c0.293-0.136,0.67-0.42,0.707-0.659
		C15.026,38.134,14.716,38.279,14.618,38.636z M16.125,38.354c-0.064,0.21,0.189,0.228,0.283,0.141
		C16.396,38.313,16.267,38.285,16.125,38.354z M14.337,40.235c0.27-0.482,0.562-0.942,0.94-1.318
		C14.725,38.876,14.216,39.761,14.337,40.235z M16.312,39.012c0.185-0.011,0.651,0.167,0.753,0.047
		C16.925,38.861,16.489,38.801,16.312,39.012z M10.102,41.363c0.924-0.204,1.654,0.11,2.259,0.282
		C12.059,41.062,10.659,40.867,10.102,41.363z M6.479,41.929c0.192-0.012,0.445,0.038,0.47-0.142
		C6.857,41.631,6.422,41.658,6.479,41.929z M8.785,43.527c0.463-0.618,0.821-1.343,1.552-1.693
		C9.451,41.843,8.888,42.583,8.785,43.527z M10.808,42.117c0.456,0.047,0.931,0.072,1.223,0.282
		C12.096,41.79,11.003,41.644,10.808,42.117z M7.419,43.904c0.287-0.486,0.273-1.645-0.141-1.976
		C7.499,42.597,7.246,43.47,7.419,43.904z M6.432,42.305c0.139,0.093,0.388-0.029,0.565-0.047C7.025,41.98,6.346,41.98,6.432,42.305
		z M7.984,43.057c0.149-0.268,0.196-0.812-0.094-0.987C7.882,42.261,7.855,42.85,7.984,43.057z M7.89,44.234
		c0.112,0.045,0.301,0.155,0.423,0.047c0.006-0.24-0.18-0.29-0.423-0.282C7.857,44.143,7.857,44.09,7.89,44.234z M8.125,44.846
		c0.169-0.324-0.164-0.516-0.518-0.471C7.471,44.689,7.91,44.736,8.125,44.846z M7.185,44.894c0,0.045,0,0.094,0,0.141
		c0.386,0.052,0.604,0.273,0.846,0.471C8.356,45.048,7.668,44.685,7.185,44.894z"/>
	<path fill-rule="evenodd" clip-rule="evenodd" fill="#333333" d="M31.51,28.332c0.106,0.05,0.084,0.229,0.188,0.282
		c-0.175,0.574-1.144,1.277-1.646,0.657C30.662,29.083,31.206,28.825,31.51,28.332z"/>
	<path fill-rule="evenodd" clip-rule="evenodd" fill="#333333" d="M31.886,29.178c0.119,0.038,0.12,0.193,0.189,0.282
		c-0.16,0.482-0.567,0.72-1.084,0.847c-0.217-0.033-0.225-0.275-0.376-0.376C31.204,29.844,31.655,29.62,31.886,29.178z"/>
	<path fill-rule="evenodd" clip-rule="evenodd" fill="#333333" d="M32.263,29.978c0.356,0.482-0.254,1.009-0.753,1.082
		c-0.233-0.019-0.201-0.3-0.376-0.375C31.62,30.558,32.002,30.33,32.263,29.978z"/>
	<path fill-rule="evenodd" clip-rule="evenodd" fill="#333333" d="M32.592,30.73c0.177-0.005,0.11,0.235,0.235,0.282
		c-0.149,0.442-0.833,0.993-1.177,0.424C31.997,31.232,32.442,31.13,32.592,30.73z"/>
	<path fill-rule="evenodd" clip-rule="evenodd" fill="#333333" d="M32.968,31.483c0.176,0.027,0.147,0.262,0.283,0.329
		c-0.157,0.345-0.404,0.598-0.847,0.659c-0.062-0.174-0.156-0.315-0.283-0.424C32.473,31.928,32.746,31.731,32.968,31.483z"/>
	<path fill-rule="evenodd" clip-rule="evenodd" fill="#333333" d="M33.392,32.284c0.172-0.014,0.108,0.205,0.188,0.281
		c-0.072,0.302-0.233,0.518-0.516,0.611c-0.199-0.051-0.198-0.305-0.377-0.376C32.943,32.649,33.247,32.546,33.392,32.284z"/>
	<path fill-rule="evenodd" clip-rule="evenodd" fill="#333333" d="M33.721,33.035c0.098,0.014,0.095,0.127,0.143,0.188
		c-0.036,0.277-0.163,0.465-0.424,0.519c-0.158-0.015-0.188-0.158-0.236-0.283C33.444,33.386,33.583,33.21,33.721,33.035z"/>
	<path fill-rule="evenodd" clip-rule="evenodd" fill="#333333" d="M34.005,33.693c0.113,0.061,0.15,0.194,0.188,0.329
		c-0.159,0.096-0.256,0.248-0.473,0.284c-0.006-0.12-0.085-0.164-0.142-0.236C33.732,33.958,33.91,33.867,34.005,33.693z"/>
	<path fill-rule="evenodd" clip-rule="evenodd" fill="#333333" d="M34.286,34.307c0.108-0.014,0.053,0.136,0.142,0.142
		c-0.067,0.168-0.157,0.311-0.376,0.329c0.035-0.146-0.13-0.091-0.094-0.235C34.074,34.47,34.236,34.445,34.286,34.307z"/>
	<path fill-rule="evenodd" clip-rule="evenodd" fill="#333333" d="M34.569,34.824c0.074,0.065,0.12,0.161,0.141,0.282
		c-0.147-0.022-0.133,0.118-0.188,0.188c-0.107-0.05-0.171-0.143-0.188-0.282C34.471,35.009,34.509,34.905,34.569,34.824z"/>
	<path fill-rule="evenodd" clip-rule="evenodd" fill="#333333" d="M34.804,35.436c0.134,0.037,0.263,0.23,0.189,0.329
		C34.764,35.776,34.636,35.557,34.804,35.436z"/>
	<path fill-rule="evenodd" clip-rule="evenodd" fill="#333333" d="M35.415,36.472c-0.134-0.138-0.369-0.304-0.282-0.52
		C35.281,36.071,35.345,36.275,35.415,36.472z"/>
</g>
<g>
	<path fill-rule="evenodd" clip-rule="evenodd" fill="#B3B3B3" d="M23.558,9.322c0.226,0.229,0.689,0.078,0.801,0
		c-0.042,0.333-0.509,0.476-0.801,0.282C23.558,9.51,23.558,9.416,23.558,9.322z"/>
	<path fill-rule="evenodd" clip-rule="evenodd" fill="#B3B3B3" d="M23.605,9.886c0.229,0.147,0.442,0.124,0.706,0.047
		c-0.039,0.055-0.062,0.127-0.047,0.235c-0.202,0.116-0.399,0.089-0.612,0C23.687,10.024,23.572,10.03,23.605,9.886z"/>
	<path fill-rule="evenodd" clip-rule="evenodd" fill="#B3B3B3" d="M23.7,10.451c0.141,0.062,0.256,0.152,0.47,0.142
		c-0.039,0.054-0.061,0.126-0.045,0.235C23.873,10.811,23.667,10.751,23.7,10.451z"/>
	<path fill-rule="evenodd" clip-rule="evenodd" fill="#B3B3B3" d="M23.747,11.016c0.132,0.024,0.201,0.114,0.33,0.142
		c-0.016,0.109-0.049,0.203-0.141,0.234C23.744,11.396,23.731,11.218,23.747,11.016z"/>
	<path fill-rule="evenodd" clip-rule="evenodd" fill="#B3B3B3" d="M30.991,11.299c0.337,0.805-0.661,1.848-1.316,1.224
		C30.466,12.466,30.834,11.985,30.991,11.299z"/>
	<path fill-rule="evenodd" clip-rule="evenodd" fill="#B3B3B3" d="M23.747,11.627c0.145-0.034,0.139,0.081,0.283,0.047
		c0,0.078,0,0.158,0,0.235C23.833,11.917,23.739,11.822,23.747,11.627z"/>
	<path fill-rule="evenodd" clip-rule="evenodd" fill="#B3B3B3" d="M23.84,12.144c0.046,0,0.095,0,0.142,0c0,0.095,0,0.188,0,0.283
		C23.837,12.433,23.841,12.285,23.84,12.144z"/>
	<path fill-rule="evenodd" clip-rule="evenodd" fill="#B3B3B3" d="M16.595,12.474c0.277,0.236,0.173,0.805,0,1.083
		C16.67,13.224,16.644,12.814,16.595,12.474z"/>
	<path fill-rule="evenodd" clip-rule="evenodd" fill="#B3B3B3" d="M31.18,12.57c0.34,0.391-0.692,1.093-0.893,0.516
		C30.723,13.052,30.973,12.832,31.18,12.57z"/>
	<path fill-rule="evenodd" clip-rule="evenodd" fill="#B3B3B3" d="M17.065,12.616c0.202,0.1,0.246,0.909-0.047,0.941
		C17.083,13.278,17.167,12.924,17.065,12.616z"/>
	<path fill-rule="evenodd" clip-rule="evenodd" fill="#B3B3B3" d="M23.886,12.71c0.049,0,0.096,0,0.143,0c0,0.078,0,0.156,0,0.235
		C23.896,12.952,23.894,12.83,23.886,12.71z"/>
	<path fill-rule="evenodd" clip-rule="evenodd" fill="#B3B3B3" d="M17.488,12.804c0.249,0.037,0.269,0.677,0,0.706
		C17.585,13.305,17.513,13.026,17.488,12.804z"/>
	<path fill-rule="evenodd" clip-rule="evenodd" fill="#B3B3B3" d="M17.96,13.462c0-0.157,0-0.314,0-0.47
		C18.092,13.049,18.092,13.406,17.96,13.462z"/>
	<path fill-rule="evenodd" clip-rule="evenodd" fill="#B3B3B3" d="M18.289,13.133c0.039,0.024,0.076,0.049,0.141,0.046
		c0,0.126,0,0.251,0,0.377c-0.062,0-0.125,0-0.188,0C18.297,13.415,18.356,13.276,18.289,13.133z"/>
	<path fill-rule="evenodd" clip-rule="evenodd" fill="#B3B3B3" d="M23.982,13.321C24.073,13.142,23.997,13.608,23.982,13.321
		L23.982,13.321z"/>
	<path fill-rule="evenodd" clip-rule="evenodd" fill="#B3B3B3" d="M31.417,13.321c-0.002,0.376-0.307,0.448-0.566,0.564
		c-0.017-0.121-0.14-0.141-0.141-0.283C31.045,13.641,31.215,13.264,31.417,13.321z"/>
	<path fill-rule="evenodd" clip-rule="evenodd" fill="#B3B3B3" d="M18.759,13.557C18.805,13.751,18.618,13.565,18.759,13.557
		L18.759,13.557z"/>
	<path fill-rule="evenodd" clip-rule="evenodd" fill="#B3B3B3" d="M19.088,13.603c0.118,0.008,0.013,0.16,0,0.189
		C18.947,13.761,19.134,13.691,19.088,13.603z"/>
	<path fill-rule="evenodd" clip-rule="evenodd" fill="#B3B3B3" d="M31.463,13.933c0.051,0.012,0.032,0.094,0.094,0.094
		c-0.031,0.221-0.25,0.252-0.377,0.376c-0.092-0.032-0.123-0.125-0.141-0.235C31.233,14.142,31.357,14.048,31.463,13.933z"/>
	<path fill-rule="evenodd" clip-rule="evenodd" fill="#B3B3B3" d="M31.65,14.45c0.045,0.265-0.151,0.289-0.329,0.33
		c-0.04-0.038-0.027-0.128-0.095-0.141C31.353,14.56,31.513,14.516,31.65,14.45z"/>
	<path fill-rule="evenodd" clip-rule="evenodd" fill="#B3B3B3" d="M31.745,14.969c0.016,0.203-0.129,0.246-0.282,0.281
		c0.019-0.113-0.086-0.102-0.046-0.234C31.569,15.043,31.635,14.983,31.745,14.969z"/>
	<path fill-rule="evenodd" clip-rule="evenodd" fill="#B3B3B3" d="M31.793,15.439c0.021,0.147-0.102,0.15-0.236,0.141
		C31.541,15.437,31.71,15.481,31.793,15.439z"/>
	<path fill-rule="evenodd" clip-rule="evenodd" fill="#B3B3B3" d="M31.65,15.862c0.047,0,0.095,0,0.143,0
		c0.012,0.077-0.045,0.08-0.048,0.14c-0.031,0-0.062,0-0.095,0C31.65,15.956,31.65,15.909,31.65,15.862z"/>
	<path fill-rule="evenodd" clip-rule="evenodd" fill="#B3B3B3" d="M31.697,16.285C31.872,16.432,31.628,16.969,31.697,16.285
		L31.697,16.285z"/>
	<path fill-rule="evenodd" clip-rule="evenodd" fill="#B3B3B3" d="M13.442,18.591c0.635,0.397,0.549,2.247-0.141,2.541
		C13.665,20.464,13.802,19.362,13.442,18.591z"/>
	<path fill-rule="evenodd" clip-rule="evenodd" fill="#B3B3B3" d="M14.291,19.25c0.416,0.334,0.27,1.568-0.096,1.835
		C14.096,20.714,14.406,19.95,14.291,19.25z"/>
	<path fill-rule="evenodd" clip-rule="evenodd" fill="#B3B3B3" d="M14.901,19.767c0.446,0.001,0.16,1.1-0.047,1.318
		C14.722,20.898,15.122,20.197,14.901,19.767z"/>
	<path fill-rule="evenodd" clip-rule="evenodd" fill="#B3B3B3" d="M15.512,20.19c0.216,0.173,0.302,0.905-0.094,0.942
		C15.345,20.889,15.583,20.584,15.512,20.19z"/>
	<path fill-rule="evenodd" clip-rule="evenodd" fill="#B3B3B3" d="M16.078,20.662c0.252-0.05,0.309,0.639-0.049,0.518
		C16.054,21.014,16.1,20.872,16.078,20.662z"/>
	<path fill-rule="evenodd" clip-rule="evenodd" fill="#B3B3B3" d="M16.595,20.944c0.162-0.006,0.218,0.094,0.188,0.282
		C16.557,21.297,16.586,21.109,16.595,20.944z"/>
	<path fill-rule="evenodd" clip-rule="evenodd" fill="#B3B3B3" d="M17.395,21.414c-0.157,0.002-0.314,0-0.283-0.188
		C17.192,21.303,17.324,21.328,17.395,21.414z"/>
	<path fill-rule="evenodd" clip-rule="evenodd" fill="#B3B3B3" d="M48.261,28.473c-0.878-1.115-1.98-2.006-3.858-2.117
		c1.561,0.54,3.101,1.103,3.67,2.634c-0.913-1.1-2.313-2.445-4.234-2.07c1.483,0.275,2.736,0.778,3.481,1.788
		c-0.777-0.477-1.473-1.037-2.446-1.317c-3.791-0.779-4.862,5.25-1.602,6.022c0.163-0.042,0.34-0.07,0.473-0.141
		c0.438-0.244,0.522-1.318,0.094-1.647c0.492,0.021,1.191,0.995,0.705,1.553c0.354,0.478,1.376,0.287,1.271,1.225
		c-0.113-0.17-0.271-0.297-0.518-0.331c0.009,0.176,0.472,0.469,0.283,0.848c-0.136-0.305-0.259-0.62-0.66-0.658
		c0.285,0.179,0.655,0.987-0.047,0.987c0.149-0.274-0.055-0.561-0.189-0.705c-0.916,0.249-2.005,0.307-2.539-0.472
		c0.088,0.459,0.429,0.67,0.706,0.941c-0.609-0.129-0.857-0.617-1.32-0.894c0.117,0.56,0.537,0.815,0.896,1.129
		c-0.94-0.636-2.77,0.471-3.059-0.987c0.25,0.188,0.549,0.33,0.988,0.33c0.157-0.063,0.293-0.147,0.378-0.283
		c-0.062-1.774-1.861-1.81-1.837-3.671c0.314,0.771,0.756,1.409,1.366,1.884c-0.483-0.835-1.058-1.579-1.225-2.729
		c0.255,0.592,0.54,1.152,1.035,1.505c-0.873-1.135-0.985-3.688-1.835-4.847c0.977,0.216,1.139,1.245,1.646,1.931
		c0.122-0.497-0.206-0.954-0.376-1.318c0.592,0.272,0.586,1.141,1.035,1.554c0.241-0.584-0.269-1.154-0.516-1.554
		c0.108-1.734,3.497-1.399,2.54-3.294c0.612,0.127,0.9,0.574,0.94,1.271c0.496-0.147,0.835-0.452,0.801-1.13
		c0.705,0.244,0.76,1.175,0.564,1.835c0.358,0.014,0.379-0.311,0.469-0.565c1.649,0.125,2.145,1.401,2.825,2.493
		c-0.596-0.597-1.221-1.161-2.023-1.552C46.808,26.945,47.814,27.426,48.261,28.473z M42.096,26.166
		c0.642-0.393,1.989-0.333,2.166-1.035C43.761,25.699,42.502,25.505,42.096,26.166z M40.733,26.73
		c0.441-0.749,1.41-0.973,2.211-1.364C41.885,25.282,40.963,25.989,40.733,26.73z M40.967,27.719
		c0.196-0.31,0.723-0.777,0.706-0.988C41.376,26.97,40.947,27.316,40.967,27.719z M41.296,28.896
		c0.412-0.781,0.963-1.422,1.835-1.741c0.004-0.081-0.035-0.12-0.094-0.141C42.119,27.271,41.471,28.049,41.296,28.896z
		 M40.263,30.165c-0.108-0.466,0.194-1.174-0.048-1.316C40.076,29.146,40.046,29.933,40.263,30.165z M41.721,32.942
		C41.749,33.011,41.777,32.937,41.721,32.942c-0.476-0.904-0.812-1.948-0.754-3.389C40.586,30.772,40.966,32.396,41.721,32.942z
		 M42.99,34.022c0.27,0.536,1.415,0.171,1.177-0.28C44.009,34.177,43.348,34.002,42.99,34.022z"/>
	<path fill-rule="evenodd" clip-rule="evenodd" fill="#B3B3B3" d="M39.508,27.061C39.452,27.065,39.48,26.992,39.508,27.061
		L39.508,27.061z"/>
	<path fill-rule="evenodd" clip-rule="evenodd" fill="#B3B3B3" d="M48.261,28.473c0.028,0,0.056,0.007,0.047,0.048
		C48.279,28.517,48.252,28.513,48.261,28.473z"/>
	<path fill-rule="evenodd" clip-rule="evenodd" fill="#B3B3B3" d="M48.308,28.521c0.059,0.019,0.096,0.06,0.094,0.14
		C48.342,28.641,48.306,28.599,48.308,28.521z"/>
	<path fill-rule="evenodd" clip-rule="evenodd" fill="#B3B3B3" d="M48.401,28.66c0.037,0.011,0.055,0.039,0.048,0.094
		C48.412,28.744,48.394,28.715,48.401,28.66z"/>
	<path fill-rule="evenodd" clip-rule="evenodd" fill="#B3B3B3" d="M47.319,28.707c0.029,0.002,0.056,0.008,0.048,0.047
		C47.339,28.752,47.311,28.747,47.319,28.707z"/>
	<path fill-rule="evenodd" clip-rule="evenodd" fill="#B3B3B3" d="M47.367,28.754c0.027,0.003,0.056,0.008,0.046,0.047
		C47.384,28.798,47.359,28.794,47.367,28.754z"/>
	<path fill-rule="evenodd" clip-rule="evenodd" fill="#B3B3B3" d="M48.449,28.754c0.06,0.021,0.096,0.06,0.094,0.142
		C48.483,28.876,48.446,28.836,48.449,28.754z"/>
	<path fill-rule="evenodd" clip-rule="evenodd" fill="#B3B3B3" d="M47.413,28.801c0.028,0.003,0.057,0.008,0.047,0.048
		C47.432,28.845,47.405,28.842,47.413,28.801z"/>
	<path fill-rule="evenodd" clip-rule="evenodd" fill="#B3B3B3" d="M47.46,28.849c0.157,0.017,0.205,0.141,0.282,0.235
		c-0.165,0.008-0.153-0.159-0.282-0.188C47.46,28.88,47.46,28.864,47.46,28.849z"/>
	<path fill-rule="evenodd" clip-rule="evenodd" fill="#B3B3B3" d="M48.543,28.896C48.684,28.904,48.498,29.091,48.543,28.896
		L48.543,28.896z"/>
	<path fill-rule="evenodd" clip-rule="evenodd" fill="#B3B3B3" d="M48.072,28.989c0.029,0.002,0.056,0.008,0.048,0.047
		C48.09,29.033,48.063,29.029,48.072,28.989z"/>
	<path fill-rule="evenodd" clip-rule="evenodd" fill="#B3B3B3" d="M48.12,29.036C48.176,29.032,48.148,29.104,48.12,29.036
		L48.12,29.036z"/>
	<path fill-rule="evenodd" clip-rule="evenodd" fill="#B3B3B3" d="M47.742,29.084c0.06,0.021,0.097,0.06,0.095,0.141
		C47.778,29.206,47.742,29.165,47.742,29.084z"/>
	<path fill-rule="evenodd" clip-rule="evenodd" fill="#B3B3B3" d="M47.837,29.225c0.029,0.003,0.055,0.007,0.047,0.047
		C47.855,29.269,47.827,29.264,47.837,29.225z"/>
	<path fill-rule="evenodd" clip-rule="evenodd" fill="#B3B3B3" d="M47.884,29.271c0.028,0.003,0.056,0.009,0.048,0.048
		C47.903,29.315,47.876,29.312,47.884,29.271z"/>
	<path fill-rule="evenodd" clip-rule="evenodd" fill="#B3B3B3" d="M47.932,29.319C47.987,29.313,47.96,29.388,47.932,29.319
		L47.932,29.319z"/>
	<path fill-rule="evenodd" clip-rule="evenodd" fill="#B3B3B3" d="M28.64,39.623C28.611,39.555,28.583,39.628,28.64,39.623
		c0.23,0.339,0.231,1.007,0.095,1.459c-0.011-0.631-0.291-1.191-0.896-1.365c-0.989-0.188-1.212,0.933-0.847,1.412
		c-1.56,0.286-1.432-2.13-0.517-2.635c-0.053-0.37-0.63-0.21-0.894-0.141c0.23-0.713,1.546-0.576,2.024-0.188
		c-0.075-0.562-0.822-0.62-1.412-0.519c0.799-0.716,1.732,0.235,2.07,0.848c0.056-0.572-0.369-1.073-0.895-1.224
		c1.204-0.139,1.581,0.959,1.788,1.977c0.408-1.528-0.584-2.862-1.6-3.437c0.655-0.104,1.202,0.305,1.365,0.849
		c0.203-0.137,0.026-0.593-0.142-0.659c0.438-0.097,0.555,0.582,0.423,1.082c0.175,0.103,0.26-0.225,0.283-0.423
		c0.102,0.291-0.012,0.796,0.329,0.847c0.368-0.04,0.494-0.321,0.519-0.706c0.272,0.27,0.204,0.594,0.14,1.035
		c0.137,0.057,0.34-0.225,0.33-0.471c0.348,0.59-0.176,1.063-0.423,1.365c0.447-0.055,0.681-0.322,0.752-0.753
		c0.411,0.78-0.121,1.564-0.471,2.022c0.646,0.078,0.652-0.882,1.082-1.176c0.038,0.355-0.168,1.113-0.141,1.459
		c0.12-0.115,0.161-0.311,0.236-0.471c0.108,0.079,0.12,0.255,0.186,0.376c-0.063,0.329-0.336,0.447-0.517,0.659
		c0.063,0.119,0.21-0.068,0.331-0.047c-0.035,0.265-0.206,0.392-0.331,0.563c-0.213-0.065-0.46-0.31-0.752-0.141
		c0.393,0.265,0.877,0.439,0.939,1.035c-0.16-0.089-0.422-0.08-0.611-0.141c-0.193-0.006-0.294,0.081-0.517,0.048
		c-1.538,0.772-3.013,1.982-5.506,1.504c-2.042-0.529-2.908-2.236-3.905-3.811c-0.077,0.155,0.127,0.473,0,0.707
		c-0.166-0.67-0.667-1.278-0.283-1.977c-0.167-0.164-0.158,0.246-0.328,0.234c0.064-0.404,0.209-0.732,0.328-1.083
		c-0.155-0.027-0.293,0.363-0.375,0.565c-0.11-0.533,0.292-0.962,0.471-1.363c-0.266,0.031-0.356,0.24-0.471,0.422
		c-0.067-0.521,0.345-0.97,0.516-1.412C20.37,35.509,19.82,36.3,19.652,36.8c-0.125-1.144,0.574-1.873,1.224-2.398
		c-0.368-0.183-0.862,0.288-1.036,0.61c-0.001-0.943,0.934-1.358,1.649-1.74c-0.282-0.242-0.715,0.114-0.988,0.188
		c0.598-0.729,1.994-0.878,1.788-2.258c-0.296-0.615-0.917-0.902-0.989-1.741c0.544,0.757,1.949,0.654,2.306,1.6
		c0.259-0.333-0.318-0.937-0.801-0.988c0.749-0.332,1.148,0.436,1.46,0.847c0.184-0.34-0.198-0.889-0.565-0.987
		c0.773-0.1,0.923,0.834,1.458,1.129c0.172-0.281-0.099-0.527-0.141-0.753c1.577,0.823,3.949,0.851,4.799,2.401
		c-1.005-0.519-2.259-1.488-3.717-1.084c1.546,0.164,2.716,0.703,3.717,1.411c0.04,0.276-0.085,0.385-0.142,0.565
		c-1.778-1.46-5.482-1.217-6.682,0.612c0.946-0.751,2.033-1.356,3.671-1.412c1.138,0.103,1.782,0.694,2.869,0.847
		c-0.083,0.151-0.377,0.093-0.517,0.188c-0.438-0.237-1.112-0.237-1.459-0.564c-2.268-0.46-3.885,0.657-4.846,1.646
		c-2.076,3.145-0.468,8.418,3.812,7.999c0.973-0.062,1.535-0.535,2.116-0.988c0.484-0.519,0.676-1.799,0.048-2.306
		C28.673,39.623,28.655,39.623,28.64,39.623z M22.382,32.895c0.718-0.819,2.194-0.879,3.2-1.411
		C24.093,31.501,22.852,32.016,22.382,32.895z M21.959,34.354c0.889-0.805,2.096-1.697,3.528-2.117
		C23.834,32.276,22.661,33.204,21.959,34.354z M29.722,33.365c-0.468-0.724-1.532-1.101-2.635-1.034
		C28.103,32.538,28.879,32.984,29.722,33.365z M21.865,34.824c0.025-0.213-0.069-0.308-0.283-0.282
		C21.585,34.728,21.679,34.821,21.865,34.824z M21.347,34.824c0.086,0.121,0.245,0.355,0.376,0.282
		C21.773,34.85,21.512,34.718,21.347,34.824z M21.111,35.153c0.203,0.032,0.217,0.254,0.377,0.329
		C21.692,35.247,21.24,34.908,21.111,35.153z M20.876,35.436c0.177,0.137,0.174,0.455,0.424,0.517
		C21.54,35.746,21.177,35.244,20.876,35.436z M21.535,39.012c-0.143-1.493,0.293-2.656,0.517-3.623
		C21.399,36.054,21.108,37.865,21.535,39.012z M25.017,43.293c-1.607-0.793-2.677-2.122-3.435-3.765
		C22.106,41.404,23.169,42.742,25.017,43.293z M29.346,41.223c0.24-0.235,0.296-1.104-0.047-1.271
		C29.487,40.359,29.154,40.983,29.346,41.223z M29.533,41.976c0.366-0.184,0.637-0.462,0.896-0.753
		C29.933,41.278,29.641,41.533,29.533,41.976z M25.488,43.482c1.626,0.323,3.435-0.401,3.716-1.413
		C28.343,42.918,27.141,43.426,25.488,43.482z"/>
	<path fill-rule="evenodd" clip-rule="evenodd" fill="#B3B3B3" d="M39.038,29.79C38.896,29.779,39.083,29.594,39.038,29.79
		L39.038,29.79z"/>
	<path fill-rule="evenodd" clip-rule="evenodd" fill="#B3B3B3" d="M30.099,32.708c0.458,0.451,0.025,1.61-0.565,1.458
		C29.954,33.898,30.353,33.37,30.099,32.708z"/>
	<path fill-rule="evenodd" clip-rule="evenodd" fill="#B3B3B3" d="M30.615,33.365c0.302,0.349-0.088,1.101-0.609,1.083
		C30.297,34.177,30.578,33.893,30.615,33.365z"/>
	<path fill-rule="evenodd" clip-rule="evenodd" fill="#B3B3B3" d="M30.991,33.789c0.121,0.419-0.161,0.84-0.422,1.035
		C30.466,34.593,31.039,34.272,30.991,33.789z"/>
	<path fill-rule="evenodd" clip-rule="evenodd" fill="#B3B3B3" d="M31.227,34.118c0.063,0.017,0.075,0.084,0.143,0.095
		c-0.079,0.365-0.265,0.857-0.611,0.799C30.959,34.759,31.215,34.562,31.227,34.118z"/>
	<path fill-rule="evenodd" clip-rule="evenodd" fill="#B3B3B3" d="M31.557,34.683c0.077-0.013,0.082,0.044,0.141,0.047
		c-0.043,0.336-0.355,0.786-0.658,0.564C31.25,35.129,31.506,35.008,31.557,34.683z"/>
	<path fill-rule="evenodd" clip-rule="evenodd" fill="#B3B3B3" d="M42.851,35.012C43.045,34.968,42.858,35.153,42.851,35.012
		L42.851,35.012z"/>
	<path fill-rule="evenodd" clip-rule="evenodd" fill="#B3B3B3" d="M32.026,35.153c-0.055,0.312-0.301,0.66-0.609,0.564
		C31.646,35.554,31.814,35.333,32.026,35.153z"/>
	<path fill-rule="evenodd" clip-rule="evenodd" fill="#B3B3B3" d="M42.426,35.247C42.483,35.244,42.456,35.316,42.426,35.247
		L42.426,35.247z"/>
	<path fill-rule="evenodd" clip-rule="evenodd" fill="#B3B3B3" d="M32.263,35.624c0.16,0.083-0.257,0.747-0.47,0.471
		C31.961,35.948,32.161,35.836,32.263,35.624z"/>
	<path fill-rule="evenodd" clip-rule="evenodd" fill="#B3B3B3" d="M32.592,36c0.299,0.129-0.199,0.669-0.471,0.519
		C32.245,36.312,32.524,36.261,32.592,36z"/>
	<path fill-rule="evenodd" clip-rule="evenodd" fill="#B3B3B3" d="M32.968,36.472c0.042,0.02,0.085,0.04,0.096,0.093
		c-0.037,0.247-0.236,0.33-0.377,0.472c-0.097-0.016-0.092-0.129-0.188-0.142C32.674,36.772,32.891,36.69,32.968,36.472z"/>
	<path fill-rule="evenodd" clip-rule="evenodd" fill="#B3B3B3" d="M33.298,36.942c0.077-0.015,0.081,0.042,0.142,0.046
		c0.009,0.299-0.333,0.562-0.563,0.329C32.984,37.162,33.261,37.171,33.298,36.942z"/>
	<path fill-rule="evenodd" clip-rule="evenodd" fill="#B3B3B3" d="M33.627,37.317c0.062,0.017,0.075,0.083,0.143,0.094
		c-0.068,0.197-0.255,0.48-0.519,0.329C33.314,37.538,33.595,37.552,33.627,37.317z"/>
	<path fill-rule="evenodd" clip-rule="evenodd" fill="#B3B3B3" d="M33.958,37.74c0.236,0.134-0.198,0.512-0.379,0.378
		C33.696,37.983,33.883,37.918,33.958,37.74z"/>
	<path fill-rule="evenodd" clip-rule="evenodd" fill="#B3B3B3" d="M34.428,38.306c-0.082,0.165-0.405,0.334-0.564,0.142
		C34.087,38.413,34.273,37.992,34.428,38.306z"/>
	<path fill-rule="evenodd" clip-rule="evenodd" fill="#B3B3B3" d="M34.569,38.589c0.061,0.016,0.073,0.082,0.141,0.092
		c-0.027,0.213-0.322,0.377-0.472,0.189C34.294,38.721,34.53,38.754,34.569,38.589z"/>
	<path fill-rule="evenodd" clip-rule="evenodd" fill="#B3B3B3" d="M34.945,38.965c0.051,0.012,0.031,0.093,0.094,0.094
		c-0.018,0.212-0.273,0.381-0.424,0.188C34.714,39.143,34.894,39.117,34.945,38.965z"/>
	<path fill-rule="evenodd" clip-rule="evenodd" fill="#B3B3B3" d="M35.228,39.34c0.062,0.017,0.073,0.084,0.141,0.095
		c-0.048,0.124-0.187,0.158-0.235,0.282c-0.068-0.041-0.149-0.069-0.14-0.188C35.13,39.526,35.168,39.422,35.228,39.34z"/>
	<path fill-rule="evenodd" clip-rule="evenodd" fill="#B3B3B3" d="M35.509,39.717c0.077-0.014,0.083,0.045,0.142,0.049
		c-0.029,0.142-0.074,0.27-0.235,0.282C35.271,39.896,35.525,39.88,35.509,39.717z"/>
	<path fill-rule="evenodd" clip-rule="evenodd" fill="#B3B3B3" d="M35.838,40.094c0.222-0.036,0.118,0.3-0.047,0.283
		C35.666,40.254,35.85,40.235,35.838,40.094z"/>
	<path fill-rule="evenodd" clip-rule="evenodd" fill="#B3B3B3" d="M36.216,40.423c0.14,0.005,0.125,0.28-0.047,0.235
		C36.13,40.525,36.235,40.537,36.216,40.423z"/>
	<path fill-rule="evenodd" clip-rule="evenodd" fill="#B3B3B3" d="M36.732,40.94c-0.089-0.02-0.202-0.019-0.188-0.141
		C36.627,40.715,36.729,40.814,36.732,40.94z"/>
	<path fill-rule="evenodd" clip-rule="evenodd" fill="#B3B3B3" d="M36.967,41.129c-0.017-0.091,0.216-0.068,0.143,0.046
		c-0.031,0-0.062,0-0.095,0C37.023,41.136,36.996,41.133,36.967,41.129z"/>
	<path fill-rule="evenodd" clip-rule="evenodd" fill="#B3B3B3" d="M37.485,41.41C37.29,41.456,37.476,41.27,37.485,41.41
		L37.485,41.41z"/>
</g>
<g>
	<path fill-rule="evenodd" clip-rule="evenodd" fill="#666666" d="M34.615,8.052c-0.017,0-0.031,0-0.046,0
		C34.562,8.167,34.626,8.131,34.615,8.052c0.647-1.172,2.064-1.575,2.541-2.917c0.11,0.346-0.098,0.779-0.235,1.034
		c-1.223,0.974-2.259,2.133-2.447,4.142c0.428-1.722,1.364-2.934,2.541-3.907c-0.093,0.347-0.893,1.354,0.188,1.366
		c0.308-0.118,0.575-0.273,0.659-0.613c0.106,0.05,0.018,0.295,0.046,0.424c-1.488,1.067-2.872,2.239-3.48,4.188
		c0.877-1.428,1.783-2.829,3.247-3.67c0.131,0.165-0.168,0.301-0.189,0.47c-2.568,1.825-3.859,5.172-3.906,9.363
		c0.463-2.832,1.523-5.066,3.53-6.352c0.709-0.609,1.077-1.558,1.364-2.588c0.047,0.626-0.145,1.422-0.235,2.07
		c0.547-0.849,0.281-2.51,1.129-3.059c-0.159,0.373-0.181,1.292-0.282,1.882c0.443-0.789,0.226-2.462,1.694-2.07
		c-0.333,0.17-0.625,0.379-0.752,0.753c-0.004,0.286,0.056,0.508,0.141,0.706c0.415,0.612,1.393,0.033,1.977-0.046
		c0.905-0.029,1.331,0.425,1.788,0.845C43.47,10.02,42.721,9.557,42.05,9.84c1.126,0.222,2.209,0.489,2.634,1.412
		c-0.415-0.384-0.872-0.726-1.693-0.707c1.013,0.323,1.748,0.92,2.163,1.835c-0.455-0.499-0.898-1.013-1.692-1.176
		c0.667,0.572,1.666,1.219,1.881,2.399c-0.161-0.166-0.29-0.368-0.563-0.423c-0.496,0.051-0.391,0.771-0.281,1.177
		c-0.257-0.402-0.582-0.737-0.989-0.988c0.403,0.728,1.266,1.401,1.318,2.634c0.016,0.203-0.013,1.028-0.048,0.472
		c-0.189-1.113-0.64-1.964-1.365-2.542c0.514,0.918,1.27,1.834,1.084,3.294c-0.187-0.739-0.287-1.565-0.706-2.07
		c-1.538-1.895-5.81-0.873-6.588,1.036c-0.741,0.261-1.355,0.65-1.694,1.316c0.38-0.31,0.915-0.875,1.601-1.035
		c-0.048,0.218-0.389,0.146-0.423,0.376c-0.016,0-0.032,0-0.047,0c0.008,0.053,0.047,0.026,0.047,0
		c0.417-0.192,0.775-0.448,1.459-0.376c-0.271,0.107-0.642,0.111-0.755,0.376c0.717-0.358,1.733-0.082,1.694,0.751
		c-1.381-1.002-3.5,0.201-4.14,1.271c0.282-0.14,0.434-0.412,0.752-0.518c0.56,0.255,1.03,0.603,1.224,1.223
		c-1.373-1.289-3.038,0.294-3.105,1.882c-0.066-0.225,0.003-0.719,0.048-0.986c-0.408,0.612-0.284,1.755-0.33,2.729
		c0.035,0.143-0.081,0.137-0.047,0.282c0,0.205-0.016,0.423,0.047,0.565c-0.036,0.396,0.062,0.658,0.046,1.035
		c-0.24-0.991-0.305-2.995-0.469-4.234c-0.137,1.496,0.188,3.317,0.281,4.893c-0.661-2.272-0.755-5.11-0.753-8.046
		c-0.471,3.425,0.27,6.848,0.895,9.646c-0.229-0.381-0.28-0.943-0.47-1.365c0.104,1.447,0.75,2.764,1.035,4.188
		c-0.502-1.225-0.769-2.683-1.318-3.857c0.123,0.959,0.551,2.021,0.799,3.012c-0.223-0.403-0.379-0.874-0.563-1.318
		c0.179,1.359,0.843,2.642,1.223,3.953c-0.525-0.888-0.771-2.051-1.271-2.965c0.028,0.382,0.186,0.631,0.235,0.988
		c-1.438-2.86-2.325-6.268-3.951-8.94c1.533,3.658,3.028,7.355,4.469,11.103c-1.1-2.348-2.26-4.639-3.198-7.15
		c-0.832-1.678-1.327-3.691-2.684-4.847c0.264-0.01,0.544,0.366,0.896,0.424c-0.557-0.667-1.508-0.94-1.647-2.023
		c0.287,0.355,0.541,0.746,1.084,0.846c-0.466-0.524-1.339-1.045-1.272-2.258c0.316,0.688,0.568,1.44,1.365,1.647
		c-1.044-0.76-1.141-2.467-1.788-3.623c0.405,0.114,1.005,0.845,1.082,1.6c0.316-0.155,0.286-0.657,0.376-1.037
		c0.16,0.22,0.265,0.489,0.472,0.66c-0.11-0.705-0.604-1.434-0.566-2.447c0.161,0.263,0.211,0.638,0.473,0.8
		c-0.174-0.803-0.513-1.97-0.048-2.729c-0.05,0.812-0.073,1.648,0.424,2.117c-0.129-0.855-0.294-2.083,0.141-2.729
		c0.086,0.447,0.113,0.954,0.376,1.224c1.461,1.189,2.407,2.893,2.589,5.363c0.764-2.824-0.558-5.249-0.518-8.093
		c0.22,0.549,0.229,1.309,0.565,1.741c-0.268-1.238-0.611-3.714,0.422-4.517c-0.313,0.737-0.276,2.243,0.047,3.104
		c-0.083-1.599-0.085-3.691,1.364-4.046c-0.806,0.984-1.091,2.788-0.706,4.329c-0.047-1.33,0.036-2.906,0.659-3.716
		c0.135,0.194,0.449,0.21,0.801,0.188c-0.559,0.727-1.045,1.777-0.849,3.104c-0.193-3.221,2.771-3.282,3.436-5.646
		c-0.005-0.061-0.008-0.34,0.048-0.188c-0.149,1.92-1.931,2.21-2.447,3.764C34.615,8.021,34.615,8.036,34.615,8.052z M36.732,8.192
		c-0.002-0.064,0.023-0.103,0.047-0.14c-0.206-0.061-0.27-0.263-0.424-0.377C36.24,7.944,36.351,8.28,36.732,8.192z M34.521,8.286
		C34.38,8.297,34.566,8.481,34.521,8.286C34.662,8.277,34.476,8.092,34.521,8.286z M36.451,8.335
		c-0.142-0.049-0.301-0.076-0.424-0.143C35.844,8.489,36.384,8.633,36.451,8.335z M35.838,8.617c-0.04,0.21,0.168,0.326,0.284,0.236
		C36.143,8.66,35.924,8.554,35.838,8.617z M35.556,9.086c0.065,0.015,0.09,0.067,0.189,0.048c0-0.062,0-0.126,0-0.188
		C35.627,8.938,35.597,9.018,35.556,9.086z M40.733,9.792c-0.413,0.057-0.681-0.118-0.8-0.47
		C39.749,9.958,40.503,10.256,40.733,9.792z M40.45,10.122c-0.128-0.114-0.262,0.051-0.471,0c-0.006-0.135-0.059-0.224-0.236-0.188
		C39.529,10.343,40.394,10.633,40.45,10.122z M32.357,10.357C32.389,10.388,32.338,10.337,32.357,10.357L32.357,10.357z
		 M40.591,10.734c0.555-0.089,0.999-0.289,1.694-0.236C41.895,10.084,40.898,10.464,40.591,10.734z M39.603,10.498
		c-0.07,0.312,0.444,0.476,0.471,0.142C39.876,10.642,39.713,10.435,39.603,10.498z M33.063,16.285
		c0.126-2.068,0.771-3.872,1.13-5.551C33.595,12.332,32.992,14.176,33.063,16.285z M35.086,16.192
		c0.895-2.339,2.811-3.904,4.47-5.318C37.463,12.013,35.721,13.751,35.086,16.192z M33.063,13.886c0.272-0.7,0.362-1.833,0.28-2.729
		C33.218,12.034,33.126,12.945,33.063,13.886z M41.626,11.251c-2.559,0.516-4.166,1.983-5.271,3.952
		c1.538-1.914,3.147-3.753,6.589-3.764C42.66,11.148,42.109,11.244,41.626,11.251z M32.827,14.828
		c0.074-0.974,0.057-2.166-0.141-3.012C32.686,12.512,32.668,14.137,32.827,14.828z M32.31,17.273
		c0.187-1.771,0.14-3.954-0.328-5.364C32.284,13.509,32.217,15.749,32.31,17.273z M43.18,12.427c0.112-0.09,0.285-0.121,0.281-0.33
		C43.222,12.053,43.037,12.241,43.18,12.427z M43.604,12.663c-0.071-0.274,0.238-0.168,0.234-0.376
		C43.608,12.083,43.274,12.586,43.604,12.663z M33.958,18.308c0.616-2.377,1.47-4.519,3.009-5.976
		c0.051-0.002,0.038-0.06-0.046-0.046C35.328,13.689,34.298,15.656,33.958,18.308z M33.156,20.049
		c0.127-2.713,0.46-5.469,0.989-7.622C33.399,14.491,32.995,17.393,33.156,20.049z M43.886,13.086
		c-0.035-0.363,0.333-0.324,0.376-0.612C43.914,12.263,43.543,12.888,43.886,13.086z M38.003,14.027
		c1.268-0.904,3.451-1.548,5.223-0.894C41.677,11.94,38.984,12.962,38.003,14.027z M44.214,13.415
		c-0.083-0.501,0.321-0.51,0.612-0.517C44.617,12.206,43.586,13.107,44.214,13.415z M29.299,13.18
		c0.429,1.14,1.059,2.078,1.552,3.152C30.608,15.006,29.843,14.205,29.299,13.18C29.271,13.112,29.242,13.186,29.299,13.18z
		 M36.921,15.674c1.247-1.214,3.582-2.673,5.93-1.741C40.863,12.575,37.803,14.314,36.921,15.674z M30.946,19.109
		c-0.092-1.871-0.925-3.403-1.837-4.611C29.84,15.917,30.502,17.404,30.946,19.109z M30.382,20.709
		c-0.552-1.88-0.894-3.968-1.836-5.459C29.29,16.939,29.624,19.034,30.382,20.709z M33.958,19.861
		c0.711-1.357,1.206-2.933,2.069-4.141C34.932,16.695,34.41,18.245,33.958,19.861z M30.851,16.426
		C30.882,16.458,30.832,16.407,30.851,16.426L30.851,16.426z M31.086,23.955c-0.744-2.015-1.445-4.075-2.446-5.835
		C29.389,20.133,30.1,22.181,31.086,23.955z M32.876,25.366c-0.46-2.021-0.695-4.669-1.131-6.869
		C31.898,21.011,32.146,23.428,32.876,25.366z M32.592,25.555c-0.523-1.893-1.038-3.792-1.506-5.74
		C31.339,21.978,31.87,23.861,32.592,25.555z M32.78,27.202c-0.677-1.974-1.227-4.074-2.022-5.929
		C31.338,23.342,31.901,25.431,32.78,27.202z M32.827,28.614c-0.515-1.416-0.898-2.96-1.552-4.236
		C31.735,25.847,32.116,27.396,32.827,28.614z"/>
	<path fill-rule="evenodd" clip-rule="evenodd" fill="#666666" d="M19.889,5.934C19.832,5.939,19.86,5.866,19.889,5.934
		L19.889,5.934z"/>
	<path fill-rule="evenodd" clip-rule="evenodd" fill="#666666" d="M21.3,6.734C21.243,6.738,21.271,6.666,21.3,6.734L21.3,6.734z"/>
	<path fill-rule="evenodd" clip-rule="evenodd" fill="#666666" d="M14.618,7.346C14.673,7.159,14.673,7.531,14.618,7.346
		L14.618,7.346z"/>
	<path fill-rule="evenodd" clip-rule="evenodd" fill="#666666" d="M24.405,7.487C24.349,7.492,24.376,7.418,24.405,7.487
		L24.405,7.487z"/>
	<path fill-rule="evenodd" clip-rule="evenodd" fill="#666666" d="M38.521,8.946C38.501,8.926,38.551,8.977,38.521,8.946
		L38.521,8.946z"/>
	<path fill-rule="evenodd" clip-rule="evenodd" fill="#666666" d="M23.558,9.322C23.502,9.328,23.53,9.254,23.558,9.322
		L23.558,9.322z"/>
	<path fill-rule="evenodd" clip-rule="evenodd" fill="#666666" d="M31.275,9.886C31.13,9.735,31.331,9.534,31.275,9.886
		L31.275,9.886z"/>
	<path fill-rule="evenodd" clip-rule="evenodd" fill="#666666" d="M14.713,12.522C14.685,12.454,14.656,12.525,14.713,12.522
		c0.216,0.677,0.756,1.031,1.316,1.363c-1.471-0.237-1.54-1.879-2.587-2.541c0.387,0.728,1.187,1.949,1.553,2.541
		c-0.975-0.359-1.182-1.484-2.259-1.742c1.674,1.888,2.665,4.864,5.789,5.458c-0.203,0.192-0.386,0.399-0.565,0.613
		c-1.987-0.398-3.279-1.49-4.33-2.823c0.719,1.682,2.196,2.603,4.093,3.106c0.107,0.177-0.351,0.583-0.282,1.035
		c-0.488-0.219-1.25-0.977-1.976-1.271c0.733,0.757,1.656,1.324,2.352,2.118c0.206,0,0.423,0.015,0.566-0.048
		c1.67,0.839,3.23,1.788,5.127,2.4c4.253,3.312,7.294,7.95,10.399,12.375c-1.575-1.672-2.684-3.81-4.377-5.364
		c1.627,2.515,3.552,4.729,5.364,7.058c2.006,2.151,3.932,4.38,7.436,5.034c0.204,0,0.422-0.016,0.563,0.047
		c1.501-0.098,2.681-0.52,3.67-1.129c-0.516,0.505-1.27,0.769-1.977,1.082c-6.062,0.985-8.317-3.307-11.057-6.257
		c2.289,2.933,4.1,6.347,8.893,6.775c-0.108,0.125-0.42,0.05-0.564,0.141c-4.387-0.43-5.929-3.7-8.282-6.163
		c1.187,1.873,2.52,3.598,4.236,4.939c-3.283-2.269-5.083-6.021-7.669-8.985c1.1,0.75,1.953,2.562,3.151,3.526
		c-4.341-5.634-8.881-11.473-16.703-13.785c-3.132-0.432-6.002,0.236-8.234,1.13c-2.802,1.495-5.173,3.422-5.599,7.293
		c-0.032,3.654,1.744,5.502,4.706,6.163c3.224,0.086,4.785-1.81,4.609-5.081c-0.3-0.844-0.81-1.479-1.457-1.977
		c-0.368-0.056-0.567-0.28-1.036-0.234c-0.198,0.037-0.242,0.229-0.33,0.376c0.007,0.275,0.241,0.323,0.235,0.611
		c-0.085,0.323-0.245,0.569-0.61,0.611c-0.774-0.088-0.986-0.739-0.942-1.646c0.195-0.651,0.552-1.141,0.989-1.553
		c0.46-0.197,0.933-0.385,1.646-0.329c1.058,0.229,2.018,0.555,2.682,1.176c2.629,2.055,2.419,7.768,0.188,10.164
		c-1.424,1.194-3.295,1.943-5.646,2.211c-4.707-0.373-6.71-3.452-7.058-8.187c0.825-6.86,5.737-10.335,12.469-11.293
		c2.461-0.079,4.754,0.291,6.728,0.942c-0.18-0.275-0.589-0.321-0.941-0.425c-0.147-0.119-0.35-0.182-0.469-0.328
		c-2.905-0.86-3.823-3.706-7.152-4.141c-1.635-0.002-2.74,0.521-4.188,0.706c-1.767-0.034-3.211-0.993-2.635-2.917
		c0.204-0.108,0.33-0.297,0.563-0.376c0.167,0.072-0.278,0.304-0.234,0.564c-0.029,0.248,0.035,0.404,0.047,0.612
		c1.069,2.395,3.741-0.283,5.834,0.612c-0.448-0.627-1.946-0.539-2.683-0.235c0.281-0.799,1.682-0.75,2.353-0.518
		c-0.2-0.553-1.245-0.464-1.788-0.282c0.833-0.879,2.361-0.083,3.058,0.424c-0.132-0.464-0.826-0.773-1.317-1.035
		c1.903,0.141,2.824,2.064,4.658,2.588c-2.238-1.169-2.408-4.897-5.833-4.564c-0.282,0.018-0.431,0.417-0.565,0.424
		c0.038-0.465,0.25-0.755,0.47-1.036c1.066-0.341,1.842,0.285,2.494,0.659c-0.417-0.587-0.915-1.094-1.977-1.036
		c1.153-0.576,2.182,0.445,2.918,0.895c-0.199-0.617-0.905-1.136-1.694-1.318c0.439-0.093,1.055,0.043,1.46,0.141
		c0.348-0.614-0.529-1.237-0.52-1.504c0.672,0.081,1.015,0.489,1.506,0.752c-0.052-0.325-0.497-0.506-0.517-0.706
		c0.945,0.136,1.119,1.045,1.693,1.553c-0.101-0.464-0.269-0.86-0.565-1.128c1.144,0.361,1.108,2.311,2.354,2.729
		C15.543,13.572,15.193,12.859,14.713,12.522z M13.254,14.921c0.063,0,0.125,0,0.188,0c0.021-0.147-0.041-0.211-0.188-0.188
		C13.254,14.796,13.254,14.858,13.254,14.921z M17.818,17.791c-0.867-0.543-2.059-1.014-2.776-1.552
		C15.65,17.042,16.662,17.693,17.818,17.791z M12.361,17.18c-0.104-0.319-0.562-0.287-0.848-0.423
		C11.467,17.011,12.135,17.342,12.361,17.18z M18.007,21.179c-1.56-1.374-3.175-2.943-5.176-3.717
		C14.658,18.599,16.05,20.171,18.007,21.179z M15.088,17.65C15.12,17.681,15.07,17.63,15.088,17.65L15.088,17.65z M24.969,24.755
		c-1.335-1.784-4.083-2.411-6.164-3.295C20.67,22.719,23.259,23.502,24.969,24.755z M19.183,22.59
		C19.213,22.621,19.163,22.57,19.183,22.59L19.183,22.59z M26.146,27.014c-1.719-1.998-4.335-3.351-6.87-4.375
		C21.769,23.863,24.144,25.456,26.146,27.014z M29.252,29.271c-1.036-1.63-2.266-3.068-3.764-4.234
		C26.675,26.516,27.835,28.022,29.252,29.271z M26.005,26.26c-0.208-0.481-0.695-0.684-1.083-0.987
		C25.035,25.666,25.562,26.042,26.005,26.26z M1.914,29.131c0.526-0.761,0.932-1.642,1.554-2.306
		C2.717,27.361,2.193,28.123,1.914,29.131z M30.099,31.295c-1.042-1.592-2.402-2.867-3.717-4.188
		C27.487,28.637,28.691,30.067,30.099,31.295z M3.514,37.129c-1.488-2.027-1.776-6.369-0.611-8.987
		c-0.01-0.035-0.039-0.053-0.093-0.047C1.554,30.463,1.41,35.575,3.514,37.129z M9.726,28.66c0.101,0.181,0.216,0.348,0.424,0.424
		c0.075-0.121-0.055-0.366-0.143-0.47C9.891,28.606,9.781,28.606,9.726,28.66z M10.431,29.084c0.111-0.17,0.016-0.468-0.188-0.47
		c-0.031,0-0.063,0-0.093,0C10.231,28.78,10.29,28.973,10.431,29.084z M9.161,29.507c0.117-0.233,0.311-0.569,0.658-0.423
		C9.856,28.437,8.535,29.044,9.161,29.507z M12.689,28.896c-0.009,0.04,0.019,0.044,0.047,0.047
		c-0.009,0.04,0.019,0.044,0.047,0.047c0.977,0.932,1.536,2.331,1.788,4.046c0.277-1.854-0.624-3.32-1.788-4.046
		c0.009-0.039-0.019-0.045-0.047-0.047C12.745,28.903,12.718,28.898,12.689,28.896C12.679,28.754,12.495,28.94,12.689,28.896z
		 M3.044,38.07C3.072,38.138,3.1,38.065,3.044,38.07c-1.411-1.944-2.139-5.402-1.365-8.563C0.483,32.223,1.271,36.59,3.044,38.07z
		 M5.255,36.895c-1.341-1.059-2.27-2.529-2.681-4.518C2.667,34.684,3.627,36.123,5.255,36.895z M31.557,32.942
		c0.463,0.901,1.068,1.66,1.787,2.305C32.808,34.42,32.188,33.675,31.557,32.942C31.528,32.874,31.5,32.947,31.557,32.942z
		 M11.278,39.435c1.943-0.52,3.005-2.172,3.106-4.376C13.997,37.167,12.92,38.582,11.278,39.435z M6.148,37.364
		c1.198,0.737,3.54,0.37,4.519-0.328c-0.032,0-0.064,0-0.095,0C9.32,37.402,7.612,37.619,6.148,37.364z M10.337,39.999
		c-2.313,0.609-5.324,0.097-6.634-1.27C4.74,40.298,8.271,41.173,10.337,39.999z"/>
	<path fill-rule="evenodd" clip-rule="evenodd" fill="#666666" d="M44.684,11.251c0.029,0.002,0.057,0.007,0.048,0.047
		C44.702,11.295,44.677,11.291,44.684,11.251z"/>
	<path fill-rule="evenodd" clip-rule="evenodd" fill="#666666" d="M44.731,11.299C44.789,11.293,44.76,11.367,44.731,11.299
		L44.731,11.299z"/>
	<path fill-rule="evenodd" clip-rule="evenodd" fill="#666666" d="M15.136,11.674C15.079,11.679,15.108,11.605,15.136,11.674
		L15.136,11.674z"/>
	<path fill-rule="evenodd" clip-rule="evenodd" fill="#666666" d="M15.136,11.674c0.499,0.396,0.717,1.071,1.224,1.459
		C15.64,12.958,15.435,12.271,15.136,11.674z"/>
	<path fill-rule="evenodd" clip-rule="evenodd" fill="#666666" d="M28.264,12.003C28.219,11.809,28.405,11.995,28.264,12.003
		L28.264,12.003z"/>
	<path fill-rule="evenodd" clip-rule="evenodd" fill="#666666" d="M9.63,12.097C9.635,12.155,9.562,12.127,9.63,12.097L9.63,12.097z
		"/>
	<path fill-rule="evenodd" clip-rule="evenodd" fill="#666666" d="M16.078,12.38c-0.096-0.078-0.22-0.126-0.236-0.283
		C15.937,12.177,16.061,12.224,16.078,12.38z"/>
	<path fill-rule="evenodd" clip-rule="evenodd" fill="#666666" d="M16.078,12.38c0.058,0.02,0.096,0.061,0.092,0.143
		C16.112,12.502,16.075,12.461,16.078,12.38z"/>
	<path fill-rule="evenodd" clip-rule="evenodd" fill="#666666" d="M16.547,12.427C16.491,12.433,16.518,12.359,16.547,12.427
		L16.547,12.427z"/>
	<path fill-rule="evenodd" clip-rule="evenodd" fill="#666666" d="M16.547,12.427c0.03,0.003,0.056,0.006,0.048,0.047
		C16.566,12.472,16.539,12.468,16.547,12.427z"/>
	<path fill-rule="evenodd" clip-rule="evenodd" fill="#666666" d="M16.17,12.522c0.03,0.002,0.057,0.006,0.049,0.047
		C16.189,12.566,16.163,12.562,16.17,12.522z"/>
	<path fill-rule="evenodd" clip-rule="evenodd" fill="#666666" d="M16.219,12.57C16.274,12.564,16.247,12.636,16.219,12.57
		L16.219,12.57z"/>
	<path fill-rule="evenodd" clip-rule="evenodd" fill="#666666" d="M17.96,13.462C17.964,13.52,17.891,13.491,17.96,13.462
		L17.96,13.462z"/>
	<path fill-rule="evenodd" clip-rule="evenodd" fill="#666666" d="M18.759,13.557C18.754,13.5,18.827,13.528,18.759,13.557
		L18.759,13.557z"/>
	<path fill-rule="evenodd" clip-rule="evenodd" fill="#666666" d="M16.595,13.557C16.599,13.614,16.527,13.585,16.595,13.557
		L16.595,13.557z"/>
	<path fill-rule="evenodd" clip-rule="evenodd" fill="#666666" d="M44.497,14.356C44.554,14.352,44.525,14.425,44.497,14.356
		L44.497,14.356z"/>
	<path fill-rule="evenodd" clip-rule="evenodd" fill="#666666" d="M15.466,15.392C15.409,15.396,15.436,15.323,15.466,15.392
		L15.466,15.392z"/>
	<path fill-rule="evenodd" clip-rule="evenodd" fill="#666666" d="M8.643,15.674C8.648,15.73,8.574,15.702,8.643,15.674
		L8.643,15.674z"/>
	<path fill-rule="evenodd" clip-rule="evenodd" fill="#666666" d="M37.109,16.474C37.104,16.417,37.178,16.445,37.109,16.474
		L37.109,16.474z"/>
	<path fill-rule="evenodd" clip-rule="evenodd" fill="#666666" d="M8.078,16.474C8.069,16.615,7.882,16.429,8.078,16.474
		L8.078,16.474z"/>
	<path fill-rule="evenodd" clip-rule="evenodd" fill="#666666" d="M39.085,17.602C39.142,17.598,39.114,17.671,39.085,17.602
		L39.085,17.602z"/>
	<path fill-rule="evenodd" clip-rule="evenodd" fill="#666666" d="M23.605,21.885c-1.52-0.628-2.753-1.544-4.517-1.93
		c0.181-0.133,0.496-0.132,0.751-0.188C21.141,20.428,22.458,21.072,23.605,21.885z"/>
	<path fill-rule="evenodd" clip-rule="evenodd" fill="#666666" d="M23.229,21.179c-0.901-0.433-1.659-1.006-2.681-1.318
		C21.65,19.903,22.596,20.509,23.229,21.179z"/>
	<path fill-rule="evenodd" clip-rule="evenodd" fill="#666666" d="M25.158,23.578c-1.903-1.422-4.367-2.282-6.633-3.341
		c1.063-0.341,2.207,0.738,3.151,1.13c1.073,0.479,2.124,0.981,3.106,1.552C24.908,23.138,25.061,23.33,25.158,23.578z"/>
	<path fill-rule="evenodd" clip-rule="evenodd" fill="#666666" d="M27.746,21.085C27.689,21.09,27.718,21.017,27.746,21.085
		L27.746,21.085z"/>
	<path fill-rule="evenodd" clip-rule="evenodd" fill="#666666" d="M23.229,21.179c0.037,0.01,0.093,0.001,0.094,0.047
		C23.287,21.216,23.23,21.225,23.229,21.179z"/>
	<path fill-rule="evenodd" clip-rule="evenodd" fill="#666666" d="M23.323,21.226C23.381,21.221,23.352,21.295,23.323,21.226
		L23.323,21.226z"/>
	<path fill-rule="evenodd" clip-rule="evenodd" fill="#666666" d="M17.395,21.414C17.451,21.41,17.423,21.483,17.395,21.414
		L17.395,21.414z"/>
	<path fill-rule="evenodd" clip-rule="evenodd" fill="#666666" d="M23.605,21.885c0.037,0.011,0.092,0.002,0.094,0.047
		C23.664,21.921,23.607,21.93,23.605,21.885z"/>
	<path fill-rule="evenodd" clip-rule="evenodd" fill="#666666" d="M23.7,21.932C23.756,21.927,23.729,22,23.7,21.932L23.7,21.932z"
		/>
	<path fill-rule="evenodd" clip-rule="evenodd" fill="#666666" d="M24.922,22.544c0.029,0.002,0.056,0.007,0.047,0.046
		C24.941,22.588,24.915,22.583,24.922,22.544z"/>
	<path fill-rule="evenodd" clip-rule="evenodd" fill="#666666" d="M24.969,22.59c0.038,0.011,0.055,0.04,0.048,0.094
		C24.98,22.675,24.961,22.645,24.969,22.59z"/>
	<path fill-rule="evenodd" clip-rule="evenodd" fill="#666666" d="M25.017,22.685C25.074,22.68,25.046,22.754,25.017,22.685
		L25.017,22.685z"/>
	<path fill-rule="evenodd" clip-rule="evenodd" fill="#666666" d="M25.393,23.249C25.336,23.254,25.365,23.18,25.393,23.249
		L25.393,23.249z"/>
	<path fill-rule="evenodd" clip-rule="evenodd" fill="#666666" d="M25.393,23.249c0.038,0.011,0.056,0.039,0.047,0.095
		C25.403,23.333,25.387,23.304,25.393,23.249z"/>
	<path fill-rule="evenodd" clip-rule="evenodd" fill="#666666" d="M25.44,23.344c0.06,0.019,0.096,0.06,0.094,0.141
		C25.476,23.465,25.438,23.424,25.44,23.344z"/>
	<path fill-rule="evenodd" clip-rule="evenodd" fill="#666666" d="M25.534,23.484c0.186,0.222,0.372,0.445,0.519,0.706
		C25.828,24.007,25.643,23.785,25.534,23.484z"/>
	<path fill-rule="evenodd" clip-rule="evenodd" fill="#666666" d="M25.158,23.578C25.215,23.574,25.187,23.647,25.158,23.578
		L25.158,23.578z"/>
	<path fill-rule="evenodd" clip-rule="evenodd" fill="#666666" d="M26.053,24.19c0.027,0.002,0.055,0.007,0.047,0.046
		C26.071,24.235,26.044,24.231,26.053,24.19z"/>
	<path fill-rule="evenodd" clip-rule="evenodd" fill="#666666" d="M7.091,24.284C7.086,24.228,7.159,24.255,7.091,24.284
		L7.091,24.284z"/>
	<path fill-rule="evenodd" clip-rule="evenodd" fill="#666666" d="M26.1,24.237c0.028,0.003,0.055,0.007,0.047,0.047
		C26.117,24.282,26.09,24.278,26.1,24.237z"/>
	<path fill-rule="evenodd" clip-rule="evenodd" fill="#666666" d="M7.091,24.284c-2.051,1.541-2.735,7.502,0.799,7.905
		c0.891,0.027,1.521-0.204,1.976-0.612c0.159-0.249,0.286-0.531,0.424-0.799c0-0.268,0-0.534,0-0.801
		c1.055,1.82-0.814,3.238-2.822,3.058C3.808,32.262,4.333,25.676,7.091,24.284z"/>
	<path fill-rule="evenodd" clip-rule="evenodd" fill="#666666" d="M26.146,24.284c0.069,0.026,0.114,0.074,0.141,0.141
		C26.185,24.435,26.137,24.387,26.146,24.284z"/>
	<path fill-rule="evenodd" clip-rule="evenodd" fill="#666666" d="M28.076,24.378C28.132,24.374,28.105,24.446,28.076,24.378
		L28.076,24.378z"/>
	<path fill-rule="evenodd" clip-rule="evenodd" fill="#666666" d="M26.287,24.425c0.03,0.003,0.057,0.007,0.048,0.048
		C26.306,24.47,26.278,24.466,26.287,24.425z"/>
	<path fill-rule="evenodd" clip-rule="evenodd" fill="#666666" d="M26.335,24.474c0.028,0.001,0.056,0.006,0.047,0.047
		C26.352,24.517,26.325,24.513,26.335,24.474z"/>
	<path fill-rule="evenodd" clip-rule="evenodd" fill="#666666" d="M26.382,24.521c0.029,0.001,0.055,0.007,0.047,0.046
		C26.399,24.564,26.372,24.56,26.382,24.521z"/>
	<path fill-rule="evenodd" clip-rule="evenodd" fill="#666666" d="M27.698,24.521C27.755,24.515,27.729,24.587,27.698,24.521
		L27.698,24.521z"/>
	<path fill-rule="evenodd" clip-rule="evenodd" fill="#666666" d="M26.429,24.567C26.485,24.562,26.458,24.635,26.429,24.567
		L26.429,24.567z"/>
	<path fill-rule="evenodd" clip-rule="evenodd" fill="#666666" d="M33.579,25.273C33.691,25.121,33.573,25.635,33.579,25.273
		L33.579,25.273z"/>
	<path fill-rule="evenodd" clip-rule="evenodd" fill="#666666" d="M5.349,25.743C5.344,25.687,5.418,25.714,5.349,25.743
		L5.349,25.743z"/>
	<path fill-rule="evenodd" clip-rule="evenodd" fill="#666666" d="M5.349,25.743c-1.607,2.547-0.958,7.412,2.353,7.622
		c1.695,0.018,2.604-0.753,3.294-1.741c0.06-0.303,0.146-0.575,0.141-0.939c0.206,0.2,0.253,0.562,0.329,0.893
		c-0.051,0.732-0.379,1.189-0.752,1.6c-0.687,0.444-1.599,0.659-2.635,0.752C3.801,34.309,3.05,28.129,5.349,25.743z"/>
	<path fill-rule="evenodd" clip-rule="evenodd" fill="#666666" d="M33.533,27.343c0.07,0.009,0.044,0.113,0.046,0.188
		C33.511,27.521,33.536,27.418,33.533,27.343z"/>
	<path fill-rule="evenodd" clip-rule="evenodd" fill="#666666" d="M3.984,27.625C3.939,27.43,4.125,27.616,3.984,27.625
		L3.984,27.625z"/>
	<path fill-rule="evenodd" clip-rule="evenodd" fill="#666666" d="M33.579,27.531C33.723,27.587,33.528,27.781,33.579,27.531
		L33.579,27.531z"/>
	<path fill-rule="evenodd" clip-rule="evenodd" fill="#666666" d="M3.984,27.625c-0.779,3.646,0.631,6.853,4.471,6.635
		c1.484,0.008,2.506-0.943,3.2-1.412c-0.107,0.255-0.107,0.615-0.237,0.846c-0.744,0.98-2.138,1.313-3.905,1.271
		c-2.66-0.445-3.942-2.267-4.234-5.082C3.356,28.973,3.55,28.178,3.984,27.625z"/>
	<path fill-rule="evenodd" clip-rule="evenodd" fill="#666666" d="M33.627,27.766C33.721,27.587,33.643,28.052,33.627,27.766
		L33.627,27.766z"/>
	<path fill-rule="evenodd" clip-rule="evenodd" fill="#666666" d="M33.674,27.953C33.729,27.769,33.729,28.141,33.674,27.953
		L33.674,27.953z"/>
	<path fill-rule="evenodd" clip-rule="evenodd" fill="#666666" d="M33.579,29.319c0.057,0.008,0.052,0.073,0.048,0.141
		C33.573,29.451,33.577,29.387,33.579,29.319z"/>
	<path fill-rule="evenodd" clip-rule="evenodd" fill="#666666" d="M33.627,29.46c0.072,0.009,0.044,0.114,0.047,0.188
		C33.604,29.64,33.631,29.535,33.627,29.46z"/>
	<path fill-rule="evenodd" clip-rule="evenodd" fill="#666666" d="M33.674,29.648c0.055,0.007,0.052,0.074,0.047,0.142
		C33.667,29.782,33.671,29.716,33.674,29.648z"/>
	<path fill-rule="evenodd" clip-rule="evenodd" fill="#666666" d="M33.721,29.79c0.08,0.108,0.124,0.253,0.143,0.424
		C33.767,30.12,33.722,29.978,33.721,29.79z"/>
	<path fill-rule="evenodd" clip-rule="evenodd" fill="#666666" d="M33.203,29.978c0.057,0.008,0.053,0.073,0.048,0.141
		C33.196,30.111,33.199,30.045,33.203,29.978z"/>
	<path fill-rule="evenodd" clip-rule="evenodd" fill="#666666" d="M14.854,30.023C14.912,30.019,14.884,30.093,14.854,30.023
		L14.854,30.023z"/>
	<path fill-rule="evenodd" clip-rule="evenodd" fill="#666666" d="M33.251,30.118c0.187,0.347,0.322,0.745,0.423,1.177
		C33.466,30.97,33.365,30.538,33.251,30.118z"/>
	<path fill-rule="evenodd" clip-rule="evenodd" fill="#666666" d="M34.099,30.165c0.055,0.008,0.052,0.075,0.047,0.142
		C34.091,30.299,34.095,30.233,34.099,30.165z"/>
	<path fill-rule="evenodd" clip-rule="evenodd" fill="#666666" d="M33.863,30.214c0.055,0.008,0.052,0.073,0.047,0.141
		C33.854,30.347,33.858,30.279,33.863,30.214z"/>
	<path fill-rule="evenodd" clip-rule="evenodd" fill="#666666" d="M34.146,30.307c0.054,0.008,0.052,0.073,0.048,0.142
		C34.138,30.439,34.142,30.374,34.146,30.307z"/>
	<path fill-rule="evenodd" clip-rule="evenodd" fill="#666666" d="M33.91,30.354C34.053,30.41,33.858,30.604,33.91,30.354
		L33.91,30.354z"/>
	<path fill-rule="evenodd" clip-rule="evenodd" fill="#666666" d="M34.193,30.448c0.078,0.109,0.121,0.254,0.141,0.423
		C34.238,30.779,34.194,30.636,34.193,30.448z"/>
	<path fill-rule="evenodd" clip-rule="evenodd" fill="#666666" d="M33.958,30.59C33.938,30.568,33.987,30.62,33.958,30.59
		L33.958,30.59z"/>
	<path fill-rule="evenodd" clip-rule="evenodd" fill="#666666" d="M34.334,30.871C34.476,30.927,34.282,31.121,34.334,30.871
		L34.334,30.871z"/>
	<path fill-rule="evenodd" clip-rule="evenodd" fill="#666666" d="M34.38,31.106C34.435,30.921,34.435,31.294,34.38,31.106
		L34.38,31.106z"/>
	<path fill-rule="evenodd" clip-rule="evenodd" fill="#666666" d="M33.674,31.295c0.195,0.323,0.362,0.674,0.472,1.082
		C33.95,32.053,33.783,31.703,33.674,31.295z"/>
	<path fill-rule="evenodd" clip-rule="evenodd" fill="#666666" d="M3.373,32C3.354,31.98,3.403,32.032,3.373,32L3.373,32z"/>
	<path fill-rule="evenodd" clip-rule="evenodd" fill="#666666" d="M34.238,31.954C34.38,31.964,34.194,32.149,34.238,31.954
		L34.238,31.954z"/>
	<path fill-rule="evenodd" clip-rule="evenodd" fill="#666666" d="M3.42,32.048c0.604,2.66,4.411,4.24,7.341,2.682
		c-1.232,2.038-5.845,1.084-6.682-0.846C3.853,33.277,3.525,32.775,3.42,32.048z"/>
	<path fill-rule="evenodd" clip-rule="evenodd" fill="#666666" d="M33.721,32.141c0.038,0.012,0.056,0.041,0.049,0.096
		C33.732,32.225,33.713,32.196,33.721,32.141z"/>
	<path fill-rule="evenodd" clip-rule="evenodd" fill="#666666" d="M33.77,32.236c0.054,0.007,0.05,0.073,0.046,0.141
		C33.762,32.369,33.765,32.304,33.77,32.236z"/>
	<path fill-rule="evenodd" clip-rule="evenodd" fill="#666666" d="M33.815,32.377C33.957,32.387,33.77,32.572,33.815,32.377
		L33.815,32.377z"/>
	<path fill-rule="evenodd" clip-rule="evenodd" fill="#666666" d="M34.146,32.377c0.129,0.185,0.247,0.381,0.282,0.658
		C34.314,32.835,34.195,32.64,34.146,32.377z"/>
	<path fill-rule="evenodd" clip-rule="evenodd" fill="#666666" d="M33.91,32.66C33.964,32.474,33.964,32.847,33.91,32.66
		L33.91,32.66z"/>
	<path fill-rule="evenodd" clip-rule="evenodd" fill="#666666" d="M33.958,32.801C33.938,32.781,33.987,32.832,33.958,32.801
		L33.958,32.801z"/>
	<path fill-rule="evenodd" clip-rule="evenodd" fill="#666666" d="M34.052,32.942C33.91,32.934,34.096,32.747,34.052,32.942
		L34.052,32.942z"/>
	<path fill-rule="evenodd" clip-rule="evenodd" fill="#666666" d="M34.052,32.942c0.036,0.01,0.054,0.038,0.047,0.093
		C34.062,33.026,34.043,32.996,34.052,32.942z"/>
	<path fill-rule="evenodd" clip-rule="evenodd" fill="#666666" d="M34.099,33.035C34.238,33.045,34.054,33.231,34.099,33.035
		L34.099,33.035z"/>
	<path fill-rule="evenodd" clip-rule="evenodd" fill="#666666" d="M34.428,33.035c0.037,0.012,0.055,0.04,0.046,0.095
		C34.438,33.12,34.419,33.092,34.428,33.035z"/>
	<path fill-rule="evenodd" clip-rule="evenodd" fill="#666666" d="M34.474,33.13c0.056,0.009,0.053,0.074,0.048,0.142
		C34.467,33.263,34.47,33.196,34.474,33.13z"/>
	<path fill-rule="evenodd" clip-rule="evenodd" fill="#666666" d="M34.146,33.224C34.125,33.204,34.176,33.255,34.146,33.224
		L34.146,33.224z"/>
	<path fill-rule="evenodd" clip-rule="evenodd" fill="#666666" d="M34.238,33.365C34.099,33.355,34.283,33.17,34.238,33.365
		L34.238,33.365z"/>
	<path fill-rule="evenodd" clip-rule="evenodd" fill="#666666" d="M34.521,33.271c0.036,0.011,0.055,0.04,0.048,0.094
		C34.532,33.355,34.514,33.326,34.521,33.271z"/>
	<path fill-rule="evenodd" clip-rule="evenodd" fill="#666666" d="M34.238,33.365c0.039,0.011,0.056,0.039,0.048,0.094
		C34.25,33.449,34.23,33.42,34.238,33.365z"/>
	<path fill-rule="evenodd" clip-rule="evenodd" fill="#666666" d="M34.569,33.365C34.71,33.376,34.524,33.561,34.569,33.365
		L34.569,33.365z"/>
	<path fill-rule="evenodd" clip-rule="evenodd" fill="#666666" d="M20.501,33.459C20.504,33.517,20.433,33.487,20.501,33.459
		L20.501,33.459z"/>
	<path fill-rule="evenodd" clip-rule="evenodd" fill="#666666" d="M34.286,33.459c0.036,0.01,0.054,0.04,0.048,0.095
		C34.297,33.543,34.278,33.515,34.286,33.459z"/>
	<path fill-rule="evenodd" clip-rule="evenodd" fill="#666666" d="M34.615,33.554C34.597,33.534,34.646,33.584,34.615,33.554
		L34.615,33.554z"/>
	<path fill-rule="evenodd" clip-rule="evenodd" fill="#666666" d="M34.334,33.554C34.474,33.562,34.289,33.748,34.334,33.554
		L34.334,33.554z"/>
	<path fill-rule="evenodd" clip-rule="evenodd" fill="#666666" d="M34.662,33.647C34.644,33.628,34.693,33.679,34.662,33.647
		L34.662,33.647z"/>
	<path fill-rule="evenodd" clip-rule="evenodd" fill="#666666" d="M34.38,33.742C34.36,33.722,34.411,33.771,34.38,33.742
		L34.38,33.742z"/>
	<path fill-rule="evenodd" clip-rule="evenodd" fill="#666666" d="M34.757,33.789C34.615,33.779,34.802,33.593,34.757,33.789
		L34.757,33.789z"/>
	<path fill-rule="evenodd" clip-rule="evenodd" fill="#666666" d="M34.757,33.789c0.036,0.01,0.054,0.039,0.047,0.095
		C34.768,33.872,34.749,33.844,34.757,33.789z"/>
	<path fill-rule="evenodd" clip-rule="evenodd" fill="#666666" d="M34.804,33.884C34.945,33.893,34.76,34.079,34.804,33.884
		L34.804,33.884z"/>
	<path fill-rule="evenodd" clip-rule="evenodd" fill="#666666" d="M34.851,34.07C34.831,34.051,34.882,34.103,34.851,34.07
		L34.851,34.07z"/>
	<path fill-rule="evenodd" clip-rule="evenodd" fill="#666666" d="M34.897,34.166C34.878,34.146,34.929,34.197,34.897,34.166
		L34.897,34.166z"/>
	<path fill-rule="evenodd" clip-rule="evenodd" fill="#666666" d="M34.945,34.26C34.925,34.239,34.976,34.29,34.945,34.26
		L34.945,34.26z"/>
	<path fill-rule="evenodd" clip-rule="evenodd" fill="#666666" d="M34.662,34.307C34.644,34.286,34.693,34.337,34.662,34.307
		L34.662,34.307z"/>
	<path fill-rule="evenodd" clip-rule="evenodd" fill="#666666" d="M34.993,34.354C34.974,34.334,35.022,34.386,34.993,34.354
		L34.993,34.354z"/>
	<path fill-rule="evenodd" clip-rule="evenodd" fill="#666666" d="M34.897,34.777C34.878,34.758,34.929,34.808,34.897,34.777
		L34.897,34.777z"/>
	<path fill-rule="evenodd" clip-rule="evenodd" fill="#666666" d="M34.993,34.965C34.974,34.945,35.022,34.996,34.993,34.965
		L34.993,34.965z"/>
	<path fill-rule="evenodd" clip-rule="evenodd" fill="#666666" d="M35.086,35.106C34.945,35.097,35.131,34.911,35.086,35.106
		L35.086,35.106z"/>
	<path fill-rule="evenodd" clip-rule="evenodd" fill="#666666" d="M33.91,35.106c0.028,0.003,0.056,0.007,0.048,0.047
		C33.929,35.15,33.901,35.146,33.91,35.106z"/>
	<path fill-rule="evenodd" clip-rule="evenodd" fill="#666666" d="M35.086,35.106C35.144,35.101,35.114,35.175,35.086,35.106
		L35.086,35.106z"/>
	<path fill-rule="evenodd" clip-rule="evenodd" fill="#666666" d="M33.958,35.153C34.014,35.148,33.986,35.222,33.958,35.153
		L33.958,35.153z"/>
	<path fill-rule="evenodd" clip-rule="evenodd" fill="#666666" d="M34.193,35.436C34.136,35.44,34.162,35.367,34.193,35.436
		L34.193,35.436z"/>
	<path fill-rule="evenodd" clip-rule="evenodd" fill="#666666" d="M34.193,35.436C34.25,35.431,34.221,35.504,34.193,35.436
		L34.193,35.436z"/>
	<path fill-rule="evenodd" clip-rule="evenodd" fill="#666666" d="M35.415,36.472C35.473,36.466,35.445,36.539,35.415,36.472
		L35.415,36.472z"/>
	<path fill-rule="evenodd" clip-rule="evenodd" fill="#666666" d="M17.348,37.6C17.404,37.597,17.376,37.668,17.348,37.6
		L17.348,37.6z"/>
	<path fill-rule="evenodd" clip-rule="evenodd" fill="#666666" d="M26.193,37.646C26.198,37.705,26.126,37.677,26.193,37.646
		L26.193,37.646z"/>
	<path fill-rule="evenodd" clip-rule="evenodd" fill="#666666" d="M38.709,38.776C38.652,38.781,38.681,38.708,38.709,38.776
		L38.709,38.776z"/>
	<path fill-rule="evenodd" clip-rule="evenodd" fill="#666666" d="M38.709,38.776c0.028,0.002,0.056,0.007,0.048,0.047
		C38.728,38.82,38.7,38.816,38.709,38.776z"/>
	<path fill-rule="evenodd" clip-rule="evenodd" fill="#666666" d="M38.757,38.823c0.028,0.002,0.055,0.007,0.046,0.047
		C38.774,38.868,38.748,38.863,38.757,38.823z"/>
	<path fill-rule="evenodd" clip-rule="evenodd" fill="#666666" d="M38.803,38.87c0.03,0.004,0.057,0.008,0.048,0.047
		C38.821,38.914,38.794,38.91,38.803,38.87z"/>
	<path fill-rule="evenodd" clip-rule="evenodd" fill="#666666" d="M38.851,38.917c0.08-0.003,0.12,0.036,0.141,0.095
		c-0.065,0.001-0.104-0.023-0.141-0.047C38.851,38.948,38.851,38.933,38.851,38.917z"/>
	<path fill-rule="evenodd" clip-rule="evenodd" fill="#666666" d="M38.426,39.012C38.408,38.992,38.457,39.042,38.426,39.012
		L38.426,39.012z"/>
	<path fill-rule="evenodd" clip-rule="evenodd" fill="#666666" d="M38.991,39.012c0.028,0.004,0.057,0.007,0.047,0.047
		C39.01,39.057,38.982,39.052,38.991,39.012z"/>
	<path fill-rule="evenodd" clip-rule="evenodd" fill="#666666" d="M39.038,39.059c0.029,0.002,0.057,0.007,0.047,0.047
		C39.057,39.102,39.031,39.099,39.038,39.059z"/>
	<path fill-rule="evenodd" clip-rule="evenodd" fill="#666666" d="M38.663,39.152C38.604,39.158,38.633,39.084,38.663,39.152
		L38.663,39.152z"/>
	<path fill-rule="evenodd" clip-rule="evenodd" fill="#666666" d="M39.085,39.105c0.027,0.003,0.056,0.007,0.048,0.047
		C39.104,39.148,39.077,39.146,39.085,39.105z"/>
	<path fill-rule="evenodd" clip-rule="evenodd" fill="#666666" d="M38.663,39.152c0.027,0.003,0.056,0.008,0.046,0.047
		C38.681,39.196,38.654,39.192,38.663,39.152z"/>
	<path fill-rule="evenodd" clip-rule="evenodd" fill="#666666" d="M39.133,39.152c0.028,0.003,0.056,0.008,0.047,0.047
		C39.151,39.196,39.125,39.192,39.133,39.152z"/>
	<path fill-rule="evenodd" clip-rule="evenodd" fill="#666666" d="M38.709,39.199c0.028,0.005,0.056,0.008,0.048,0.048
		C38.728,39.244,38.7,39.24,38.709,39.199z"/>
	<path fill-rule="evenodd" clip-rule="evenodd" fill="#666666" d="M39.18,39.199C39.236,39.196,39.208,39.269,39.18,39.199
		L39.18,39.199z"/>
	<path fill-rule="evenodd" clip-rule="evenodd" fill="#666666" d="M38.757,39.247c0.028,0.003,0.055,0.007,0.046,0.048
		C38.774,39.292,38.748,39.287,38.757,39.247z"/>
	<path fill-rule="evenodd" clip-rule="evenodd" fill="#666666" d="M38.803,39.295c0.293,0.13,0.486,0.36,0.705,0.563
		c-0.3-0.106-0.471-0.343-0.705-0.519C38.803,39.326,38.803,39.311,38.803,39.295z"/>
	<path fill-rule="evenodd" clip-rule="evenodd" fill="#666666" d="M39.556,39.528c-0.064,0.002-0.104-0.021-0.142-0.047
		c0.014-0.072,0.104-0.033,0.142,0C39.556,39.497,39.556,39.513,39.556,39.528z"/>
	<path fill-rule="evenodd" clip-rule="evenodd" fill="#666666" d="M38.803,39.528C38.745,39.533,38.774,39.46,38.803,39.528
		L38.803,39.528z"/>
	<path fill-rule="evenodd" clip-rule="evenodd" fill="#666666" d="M38.803,39.528C38.86,39.524,38.833,39.598,38.803,39.528
		L38.803,39.528z"/>
	<path fill-rule="evenodd" clip-rule="evenodd" fill="#666666" d="M39.556,39.528c1.235,0.804,2.571,1.508,4.424,1.694
		C42.157,41.194,40.661,40.432,39.556,39.528z"/>
	<path fill-rule="evenodd" clip-rule="evenodd" fill="#666666" d="M18.194,39.623C18.335,39.634,18.15,39.818,18.194,39.623
		L18.194,39.623z"/>
	<path fill-rule="evenodd" clip-rule="evenodd" fill="#666666" d="M47.226,39.67C47.222,39.614,47.295,39.642,47.226,39.67
		L47.226,39.67z"/>
	<path fill-rule="evenodd" clip-rule="evenodd" fill="#666666" d="M47.226,39.67c-0.13,0.248-0.318,0.436-0.565,0.565
		c0.111-0.252,0.352-0.37,0.519-0.565C47.195,39.67,47.209,39.67,47.226,39.67z"/>
	<path fill-rule="evenodd" clip-rule="evenodd" fill="#666666" d="M16.783,40.048c-0.25-0.218-1.331-0.305-0.282-0.282
		C16.594,39.859,16.722,39.919,16.783,40.048z"/>
	<path fill-rule="evenodd" clip-rule="evenodd" fill="#666666" d="M18.242,39.812C18.22,39.792,18.272,39.843,18.242,39.812
		L18.242,39.812z"/>
	<path fill-rule="evenodd" clip-rule="evenodd" fill="#666666" d="M39.085,39.812C39.029,39.815,39.057,39.743,39.085,39.812
		L39.085,39.812z"/>
	<path fill-rule="evenodd" clip-rule="evenodd" fill="#666666" d="M39.085,39.812c0.027,0.003,0.056,0.007,0.048,0.047
		C39.104,39.855,39.077,39.852,39.085,39.812z"/>
	<path fill-rule="evenodd" clip-rule="evenodd" fill="#666666" d="M39.133,39.858c0.028,0.003,0.056,0.007,0.047,0.046
		C39.151,39.902,39.125,39.899,39.133,39.858z"/>
	<path fill-rule="evenodd" clip-rule="evenodd" fill="#666666" d="M39.508,39.858c0.082-0.003,0.121,0.036,0.143,0.094
		c-0.065,0.002-0.104-0.021-0.143-0.048C39.508,39.891,39.508,39.874,39.508,39.858z"/>
	<path fill-rule="evenodd" clip-rule="evenodd" fill="#666666" d="M39.18,39.904c0.703,0.427,1.295,0.963,2.116,1.271
		C40.439,41.093,39.769,40.414,39.18,39.904z"/>
	<path fill-rule="evenodd" clip-rule="evenodd" fill="#666666" d="M39.65,39.952c0.127,0.029,0.22,0.095,0.283,0.188
		c-0.146,0.003-0.185-0.101-0.283-0.142C39.65,39.983,39.65,39.969,39.65,39.952z"/>
	<path fill-rule="evenodd" clip-rule="evenodd" fill="#666666" d="M16.783,40.048C16.839,40.042,16.812,40.115,16.783,40.048
		L16.783,40.048z"/>
	<path fill-rule="evenodd" clip-rule="evenodd" fill="#666666" d="M15.136,40.611c0.191-0.584,1.272-0.678,1.646-0.188
		C16.364,40.311,15.491,40.282,15.136,40.611z"/>
	<path fill-rule="evenodd" clip-rule="evenodd" fill="#666666" d="M39.934,40.141c0.035,0.011,0.091,0.002,0.094,0.047
		C39.991,40.177,39.935,40.187,39.934,40.141z"/>
	<path fill-rule="evenodd" clip-rule="evenodd" fill="#666666" d="M40.027,40.188c0.427,0.247,0.893,0.455,1.269,0.753
		c-0.491-0.166-0.869-0.448-1.269-0.705C40.027,40.219,40.027,40.203,40.027,40.188z"/>
	<path fill-rule="evenodd" clip-rule="evenodd" fill="#666666" d="M46.66,40.235c-0.506,0.498-1.173,1.031-2.117,0.939
		C45.409,41.022,46.056,40.648,46.66,40.235z"/>
	<path fill-rule="evenodd" clip-rule="evenodd" fill="#666666" d="M47.084,40.329C47.08,40.271,47.152,40.299,47.084,40.329
		L47.084,40.329z"/>
	<path fill-rule="evenodd" clip-rule="evenodd" fill="#666666" d="M47.037,40.377c0.003-0.029,0.007-0.058,0.047-0.048
		C47.082,40.357,47.076,40.384,47.037,40.377z"/>
	<path fill-rule="evenodd" clip-rule="evenodd" fill="#666666" d="M47.037,40.377c-0.061,0.081-0.098,0.185-0.237,0.188
		C46.862,40.483,46.898,40.379,47.037,40.377z"/>
	<path fill-rule="evenodd" clip-rule="evenodd" fill="#666666" d="M4.41,40.471C4.352,40.475,4.379,40.401,4.41,40.471L4.41,40.471z
		"/>
	<path fill-rule="evenodd" clip-rule="evenodd" fill="#666666" d="M46.755,40.611c0.003-0.028,0.006-0.057,0.045-0.046
		C46.8,40.594,46.795,40.619,46.755,40.611z"/>
	<path fill-rule="evenodd" clip-rule="evenodd" fill="#666666" d="M15.136,40.611C15.142,40.667,15.067,40.64,15.136,40.611
		L15.136,40.611z"/>
	<path fill-rule="evenodd" clip-rule="evenodd" fill="#666666" d="M46.708,40.658c0.004-0.028,0.008-0.056,0.047-0.047
		C46.752,40.64,46.748,40.667,46.708,40.658z"/>
	<path fill-rule="evenodd" clip-rule="evenodd" fill="#666666" d="M46.613,40.706c0.011-0.038,0.04-0.056,0.095-0.048
		C46.697,40.695,46.67,40.714,46.613,40.706z"/>
	<path fill-rule="evenodd" clip-rule="evenodd" fill="#666666" d="M46.566,40.752c0.004-0.028,0.008-0.055,0.047-0.046
		C46.611,40.734,46.607,40.761,46.566,40.752z"/>
	<path fill-rule="evenodd" clip-rule="evenodd" fill="#666666" d="M31.841,40.8C31.834,40.742,31.907,40.771,31.841,40.8
		L31.841,40.8z"/>
	<path fill-rule="evenodd" clip-rule="evenodd" fill="#666666" d="M41.296,40.94c0.037,0.01,0.094,0.001,0.095,0.047
		C41.354,40.978,41.299,40.986,41.296,40.94z"/>
	<path fill-rule="evenodd" clip-rule="evenodd" fill="#666666" d="M41.391,40.987c0.578,0.146,1.035,0.407,1.693,0.471
		C42.389,41.621,41.848,41.222,41.391,40.987z"/>
	<path fill-rule="evenodd" clip-rule="evenodd" fill="#666666" d="M44.262,41.223c-0.009-0.102,0.166-0.021,0.235-0.048
		C44.505,41.278,44.33,41.197,44.262,41.223z"/>
	<path fill-rule="evenodd" clip-rule="evenodd" fill="#666666" d="M41.344,41.27C41.325,41.25,41.374,41.301,41.344,41.27
		L41.344,41.27z"/>
	<path fill-rule="evenodd" clip-rule="evenodd" fill="#666666" d="M37.815,41.27c0.028,0.004,0.056,0.008,0.047,0.048
		C37.834,41.314,37.806,41.31,37.815,41.27z"/>
	<path fill-rule="evenodd" clip-rule="evenodd" fill="#666666" d="M37.862,41.317C37.919,41.312,37.893,41.386,37.862,41.317
		L37.862,41.317z"/>
	<path fill-rule="evenodd" clip-rule="evenodd" fill="#666666" d="M37.485,41.41C37.542,41.406,37.515,41.479,37.485,41.41
		L37.485,41.41z"/>
	<path fill-rule="evenodd" clip-rule="evenodd" fill="#666666" d="M37.581,41.505C37.561,41.485,37.61,41.536,37.581,41.505
		L37.581,41.505z"/>
	<path fill-rule="evenodd" clip-rule="evenodd" fill="#666666" d="M12.595,44.47C12.6,44.526,12.527,44.498,12.595,44.47
		L12.595,44.47z"/>
	<path fill-rule="evenodd" clip-rule="evenodd" fill="#666666" d="M7.185,46.823c0.003-0.029,0.006-0.058,0.046-0.048
		C7.229,46.804,7.225,46.83,7.185,46.823z"/>
	<path fill-rule="evenodd" clip-rule="evenodd" fill="#666666" d="M7.185,46.823C7.19,46.879,7.116,46.852,7.185,46.823
		L7.185,46.823z"/>
</g>
</svg>
