<?xml version="1.0" encoding="utf-8"?>
<!-- Generator: Adobe Illustrator 16.0.0, SVG Export Plug-In . SVG Version: 6.00 Build 0)  -->
<!DOCTYPE svg PUBLIC "-//W3C//DTD SVG 1.1//EN" "http://www.w3.org/Graphics/SVG/1.1/DTD/svg11.dtd">
<svg version="1.1" id="Layer_1" xmlns="http://www.w3.org/2000/svg" xmlns:xlink="http://www.w3.org/1999/xlink" x="0px" y="0px"
	 width="100px" height="100px" viewBox="0 0 100 100" enable-background="new 0 0 100 100" xml:space="preserve">
<g>
	<path fill-rule="evenodd" clip-rule="evenodd" fill="#1A1A1A" d="M8.535,19.491c0.042,0.473-0.329,0.872-0.588,1.273
		C7.278,21.8,6.533,23.33,6.283,24.682c-0.22,1.172,0.236,2.215,0.831,2.841c0.201,0.211,0.371,0.472,0.589,0.586
		c0.565,0.303,1.548,0.398,2.399,0.295c1.299-0.158,2.71-0.562,4.015-0.979c2.514-0.803,5.075-1.629,8.082-1.911
		c3.245-0.305,6.15,0.173,8.471,1.126c-0.218,0.271-0.531,0.357-0.88,0.637c-0.403,0.319-0.863,1.036-1.275,1.077
		c-0.262,0.026-0.854-0.235-1.272-0.342c-3.768-0.954-8.091,0.209-11.167,1.174c-1.036,0.327-2.103,0.559-3.278,0.834
		c-1.153,0.268-2.335,0.669-3.527,0.586c-0.88-0.059-1.964-0.337-2.548-0.686c-0.645-0.383-1.437-1.372-1.761-1.959
		c-0.551-0.991-0.725-2.83-0.196-4.161c0.242-0.612,0.714-1.377,1.127-2.008c0.705-1.084,1.251-1.745,2.154-2.449
		C8.262,19.222,8.401,19.392,8.535,19.491z"/>
	<path fill-rule="evenodd" clip-rule="evenodd" fill="#1A1A1A" d="M53.393,40.01c-0.867,0.272-1.665,0.619-2.547,0.881
		c-0.921-3.564,0.117-8.023-1.224-11.166c-0.371-0.871-1.083-1.712-1.762-2.301c-1.259-1.091-2.64-2.027-4.799-2.204
		c-0.974-0.08-1.829,0.339-2.743,0.686c-1.118,0.423-2.279,1.041-3.331,1.616c-0.542,0.296-0.982,0.703-1.469,0.979
		c-0.952,0.54-1.704,0.791-2.498,1.519c-0.734,0.673-1.356,1.49-2.007,2.302c-0.634,0.787-1.168,1.624-1.714,2.595
		c-1.089,1.93-2.42,3.698-2.45,6.121c-0.037,3.107,1.077,5.506,1.029,8.768c-0.1,0.133-0.226-0.199-0.343-0.342
		c-0.623-0.758-1.274-1.568-1.958-2.4c-0.27-0.329-0.66-0.621-0.784-0.932c-0.121-0.309-0.162-0.79-0.245-1.175
		c-0.234-1.094-0.393-2.573-0.393-3.868c0-2.478,1.11-4.815,2.206-6.613c0.6-0.985,1.043-1.915,1.664-2.742
		c0.596-0.792,1.234-1.584,2.009-2.399c0.711-0.75,1.611-1.331,2.448-1.96c0.873-0.655,1.638-1.337,2.547-1.86
		c1.877-1.08,3.934-2.175,6.023-2.791c0.858-0.254,1.889-0.262,2.743-0.146c3.415,0.459,5.699,2.262,7.396,4.504
		c0.41,0.543,0.805,1.178,1.027,1.763C53.432,32.034,52.891,35.883,53.393,40.01z"/>
	<path fill-rule="evenodd" clip-rule="evenodd" fill="#1A1A1A" d="M76.802,42.557c1.059-0.825,2.28-1.544,3.28-2.645
		c1.127-1.241,1.727-3.568,1.862-5.582c0.065-0.993-0.174-1.587-0.44-2.303c-0.132-0.348-0.216-0.72-0.391-1.027
		c-0.426-0.745-1.646-1.806-2.449-2.303c-1.207-0.745-2.722-1.682-4.653-1.616c-0.812,0.028-1.844,0.207-2.547,0.588
		c-0.535,0.291-1.129,0.915-1.42,1.322c-0.651,0.911-1.2,2.778-0.98,4.554c0.06,0.481,0.323,1.143,0.541,1.666
		c0.623,1.504,1.311,3.1,2.154,4.358c0.414,0.62,1.017,1.146,1.518,1.714c0.49,0.555,1.123,1.072,1.517,1.665
		c0.154,0.234,0.245,0.541,0.393,0.785c0.4,0.661,0.972,1.341,1.373,2.008c0.115,0.193,0.129,0.439,0.243,0.637
		c0.174,0.3,0.569,0.451,0.735,0.733c0.148,0.256,0.231,0.731,0.343,1.126c0.377,1.343,0.902,3.85,0.441,5.633
		c-0.098,0.369-0.355,0.831-0.539,1.225c-0.514,1.095-1.139,2.349-1.715,3.429c-2.233,2.449-5.125,4.244-8.864,5.189
		c0.343-0.817,0.911-1.832,0.98-3.085c1.662-0.604,3.192-1.511,4.455-2.596c0.43-0.368,0.923-0.684,1.226-1.077
		c0.395-0.512,0.641-1.32,0.979-2.008c0.302-0.614,0.821-1.335,0.931-2.008c0.121-0.733-0.025-1.683-0.098-2.45
		c-0.171-1.792-0.877-3.097-1.665-4.358c-0.446-0.712-0.897-1.456-1.372-2.056c-0.407-0.518-1.084-0.974-1.615-1.421
		c-0.572-0.48-0.956-1.068-1.47-1.566c-0.616-1.142-1.201-2.286-1.764-3.478c-0.801-1.703-1.678-3.496-1.321-6.121
		c0.23-1.711,0.735-3.279,1.615-4.36c0.24-0.294,0.62-0.58,0.932-0.88c0.309-0.297,0.649-0.661,0.931-0.833
		c1.015-0.624,2.412-0.817,3.82-1.028c1.799-0.27,3.367,0.495,4.701,1.077c1.413,0.617,2.438,1.369,3.477,2.399
		c0.501,0.497,1.035,0.982,1.321,1.42c0.646,0.991,1.368,3.038,1.372,4.605c0.002,1.403-0.363,2.96-0.735,4.309
		c-0.772,2.802-2.626,4.483-4.799,5.974c-0.722,0.496-1.324,1.007-1.812,0.147C77.021,43.842,76.956,43.105,76.802,42.557z"/>
	<path fill-rule="evenodd" clip-rule="evenodd" fill="#1A1A1A" d="M34.784,30.656c0.032,0,0.065,0,0.098,0
		c0.902,2.015,0.564,5.265,1.126,7.64c0.207,0.881,0.602,1.839,1.175,2.596c0.512,0.677,1.062,1.478,1.763,1.958
		c1.551,1.061,4.099,1.522,6.562,1.127c1.544-0.247,3.234-0.775,4.652-1.224c0.253-0.081,0.482-0.146,0.735-0.245
		c0.557-0.217,1.399-0.449,2.106-0.588c0.48-0.094,1.011-0.124,1.518-0.245c0.244-0.058,0.433-0.28,0.687-0.343
		c0.597-0.147,1.498-0.126,2.204-0.098c1.828,0.075,3.377,0.487,4.896,1.078c2.094,0.814,3.372,1.764,6.269,1.764
		c0.665,0,1.489-0.11,1.911,0c0.911,0.234,1.335,1.694,1.812,2.447c-1.047,0.266-2.132,0.142-3.186,0.147
		c-1.094,0.007-2.251,0.061-3.327-0.195c-1.996-0.474-3.552-1.559-5.586-2.156c-1.242-0.366-2.703-0.646-4.258-0.489
		c-1.836,0.185-3.384,0.914-5.045,1.421c-0.818,0.249-1.682,0.477-2.546,0.684c-1.95,0.468-4.846,0.991-7.297,0.442
		c-1.159-0.26-2.604-0.797-3.525-1.421c-0.566-0.383-1.014-0.986-1.518-1.566c-0.485-0.557-1.035-1.103-1.372-1.665
		c-1.267-2.113-1.315-4.918-1.567-8.08c-0.026-0.326-0.21-0.734-0.146-1.078C33.038,31.935,34.332,31.125,34.784,30.656z"/>
	<path fill-rule="evenodd" clip-rule="evenodd" fill="#1A1A1A" d="M79.007,66.751c0.054,0.707-0.194,1.942,0.048,2.69
		c-0.722,0.375-1.242,0.521-1.713,0.981c-0.762,0.744-1.593,2.535-1.274,3.968c0.167,0.745,0.66,1.39,0.933,2.103
		c0.28,0.751,0.58,1.441,0.586,2.401c0.007,1.764-0.504,3.411-1.421,4.506c-0.53,0.633-1.353,1.07-2.057,1.615
		c-0.771,0.603-1.47,0.93-2.4,1.226c-0.946,0.3-1.772,0.689-2.838,0.83c-0.994,0.134-2.111,0.287-3.331,0.297
		c-1.964,0.011-4.517-0.429-5.977-1.226c-0.683-0.374-1.475-0.969-2.104-1.568c-0.53-0.501-1.202-1.55-1.959-1.664
		c-0.511-0.076-1.173,0.229-1.715,0.44c-1.484,0.584-3.199,1.294-4.505,1.814c-2,0.792-4.183,1.513-6.807,1.418
		c-2.822-0.1-5.428-0.132-7.639-0.734c-2.164-0.59-4.085-1.402-5.976-2.448c-1.269-0.701-2.173-1.593-2.987-2.645
		c-1.121-1.448-1.709-3.429-1.518-6.221c0.118-1.746,0.561-3.443,0.929-5.141c0.535-2.463,1.309-4.836,1.47-7.591
		c0.054-0.926,0.177-1.915,0.098-2.841c-0.07-0.846-0.308-1.721-0.44-2.596c-0.131-0.861-0.23-1.723-0.491-2.497
		c-0.558-1.675-2.116-2.922-3.329-4.064c-0.644-0.607-1.309-1.181-1.96-1.763c-0.642-0.579-1.265-1.241-2.007-1.665
		c-1.134-0.65-2.528-1.155-3.868-1.275c-4.084-0.358-7.634,1.266-9.061,3.87c-0.384,0.702-0.917,2.056-1.077,2.939
		c-0.584,3.252,0.781,5.78,2.401,7.443c1.192,1.225,2.631,2.051,4.454,2.448c1.912,0.416,3.984,0.498,6.124-0.099
		c0.881-0.245,1.814-0.796,2.692-1.273c0.808-0.44,1.72-1.216,2.252-1.908c0.841-1.095,1.068-2.47,1.959-3.675
		c0.325,1.153,0.443,2.332,0.439,3.478c0,0.422,0.133,0.907,0.048,1.322c-0.104,0.543-0.781,1.053-1.223,1.469
		c-1.127,1.062-1.82,1.58-3.38,2.35c-2.17,1.073-5.043,1.678-8.226,1.275c-1.909-0.242-3.634-0.932-5.044-1.714
		c-2.581-2.095-4.792-4.269-5.289-8.277c-0.247-1.995,0.288-4.073,0.931-5.681c0.607-1.525,1.215-2.526,2.398-3.574
		c2.534-2.247,6.804-3.744,11.215-2.694c0.967,0.23,1.873,0.5,2.743,0.881c1.65,0.723,2.737,1.88,4.113,3.136
		c0.616,0.559,1.131,1.194,1.713,1.907c0.529,0.649,1.175,1.279,1.665,1.961c0.689,0.957,1.254,2.385,1.813,3.623
		c0.199,0.441,0.448,0.892,0.539,1.273c0.129,0.541,0.082,1.115,0.245,1.715c1.03,3.782-0.248,8.311-1.027,11.655
		c-0.498,2.123-1.127,4.403-1.127,6.611c0,3.604,2.297,5.384,5.093,6.465c0.922,0.356,1.88,0.81,2.792,1.078
		c2.036,0.596,4.553,0.698,6.858,0.734c1.308,0.02,2.396,0.062,3.476-0.196c2.978-0.718,5.516-2.225,8.375-3.184
		c1.163-0.391,2.74-0.325,3.771,0.294c0.692,0.416,1.29,1.235,1.91,1.812c0.624,0.581,1.426,1.25,2.4,1.52
		c3.14,0.863,7.249,0.623,10.039-0.736c0.452-0.22,0.809-0.563,1.225-0.88c0.714-0.549,1.284-0.915,1.615-1.813
		c0.855-2.315-0.716-3.821-1.174-5.485c-0.676-2.435,0.596-5.141,1.712-6.415c0.471-0.539,1.357-1.197,2.057-1.519
		C77.716,66.998,78.214,66.96,79.007,66.751z"/>
	<path fill-rule="evenodd" clip-rule="evenodd" fill="#1A1A1A" d="M62.502,61.413c-0.532,0.771-0.95,1.658-1.518,2.397
		c-4.353-1.115-6.243-4.694-8.18-8.228c-1.451-1.172-3.83-0.522-5.435-0.047c-1.298,0.38-2.326,0.752-3.379,1.369
		c-0.835,0.489-1.48,0.796-2.008,1.47c-0.538,0.687-1.028,1.591-1.373,2.45c-0.38,0.956-0.709,1.906-0.635,3.132
		c0.068,1.149,0.419,2.507,0.882,3.527c0.441,0.975,1.045,2.003,1.713,2.692c3,3.103,9.018,2.473,12.635,0.491
		c0.905-0.496,1.832-0.951,2.596-1.566c0.771-0.622,1.619-1.181,2.302-1.863c0.423-0.424,0.88-1.039,1.371-1.616
		c1.322-1.548,2.482-3.652,2.89-6.072c0.345-2.047-0.246-3.347-0.932-4.652c-0.885-1.688-2.517-3.103-4.112-4.065
		c-1.127-0.68-2.145-1.498-3.185-2.251c-0.529-0.385-1.013-0.819-1.469-1.273c-0.436-0.436-0.89-0.871-1.225-1.372
		c0.81-0.049,1.463-0.336,2.155-0.392c0.391-0.03,0.82-0.058,1.176,0.05c0.162,0.048,0.374,0.344,0.686,0.586
		c0.688,0.538,1.514,1.091,2.154,1.567c1.091,0.814,2.051,1.27,2.939,2.059c1.425,1.264,2.54,2.296,3.428,4.064
		c0.476,0.944,1.082,1.996,1.174,3.331c0.1,1.385-0.187,2.588-0.44,3.721c-0.341,1.534-1.089,2.444-1.663,3.723
		c-0.114,0.251-0.126,0.528-0.244,0.781c-0.315,0.665-0.879,1.356-1.374,1.96c-0.487,0.6-0.993,1.245-1.517,1.764
		c-1.016,1.004-2.471,2.079-3.723,2.84c-2.055,1.25-4.134,2.305-7.102,2.792c-4.422,0.728-8.371-0.494-10.578-2.939
		c-1.239-1.374-2.193-3.107-2.742-5.289c-0.385-1.529-0.678-3.608-0.196-5.289c0.096-0.338,0.309-0.684,0.442-1.027
		c0.397-1.035,0.791-1.763,1.371-2.692c0.818-1.319,1.558-1.91,2.938-2.745c0.661-0.396,1.311-0.868,1.959-1.125
		c0.56-0.222,1.339-0.386,2.058-0.588c1.023-0.289,1.787-0.677,2.889-0.783c2.707-0.261,4.843,0.342,6.022,2.106
		c0.769,1.555,1.623,3.18,2.743,4.407C59.118,60.042,60.416,61.185,62.502,61.413z"/>
	<path fill-rule="evenodd" clip-rule="evenodd" fill="#1A1A1A" d="M84.344,67.679c0.269-0.093,0.491,0.202,0.686,0.343
		c0.576,0.426,1.556,1.146,2.4,1.274c1.522,0.23,3.157-0.309,4.21-0.784c0.516-0.231,0.997-0.391,1.421-0.685
		c0.7-0.485,1.407-1.632,1.224-2.645c-0.067-0.373-0.262-0.81-0.488-1.176c-0.45-0.729-1.347-1.748-2.105-2.351
		c-0.51-0.402-1.584-1.044-2.154-1.174c-1.316-0.307-3.683,0.264-4.459,0.881c-0.316,0.25-0.52,0.604-0.781,0.93
		c-0.215,0.266-0.595,0.645-0.734,0.979c-0.279,0.66-0.266,1.504-0.393,2.35c-0.142,0.939-0.387,1.728-0.343,2.399
		c0.051,0.795,0.316,2.04,0.686,2.987c0.047,0.121,0.091,0.241,0.147,0.345c0.195,0.364,0.73,0.827,0.979,1.174
		c0.303,0.425,0.484,0.931,0.785,1.373c0.963,1.424,2.27,3.024,3.721,3.965c0.256,0.167,0.549,0.392,0.782,0.491
		c0.317,0.134,0.766,0.158,0.979,0.293c0.956,0.599,0.742,2.365-0.489,2.547c-0.366,0.055-1.015-0.094-1.42-0.245
		c-0.418-0.156-0.969-0.524-1.421-0.834c-1.331-0.906-2.35-2.149-3.378-3.327c-1.222-1.397-2.647-3.734-3.231-5.73
		c-0.366-1.24-0.442-2.666-0.442-4.163c0-0.629,0.14-1.28,0.148-1.91c0.013-1.018,0.035-2.086,0.391-2.89
		c0.19-0.43,0.629-0.912,0.979-1.371c0.733-0.959,1.36-1.744,2.548-2.253c1.006-0.432,2.653-0.772,3.819-0.782
		c0.946-0.01,1.841,0.053,2.596,0.391c1.408,0.633,2.72,1.66,3.77,2.791c1.145,1.234,2.583,2.858,2.254,5.388
		c-0.15,1.154-0.831,2.077-1.469,2.842c-0.294,0.347-0.58,0.778-0.883,0.979c-0.487,0.326-1.364,0.673-2.057,0.979
		c-1.83,0.807-4.997,1.474-7.053,0.439C84.861,70.524,84.606,69.1,84.344,67.679z"/>
</g>
</svg>
