<?xml version="1.0" encoding="utf-8"?>
<!-- Generator: Adobe Illustrator 16.0.0, SVG Export Plug-In . SVG Version: 6.00 Build 0)  -->
<!DOCTYPE svg PUBLIC "-//W3C//DTD SVG 1.1//EN" "http://www.w3.org/Graphics/SVG/1.1/DTD/svg11.dtd">
<svg version="1.1" id="Layer_1" xmlns="http://www.w3.org/2000/svg" xmlns:xlink="http://www.w3.org/1999/xlink" x="0px" y="0px"
	 width="100px" height="100px" viewBox="0 0 100 100" enable-background="new 0 0 100 100" xml:space="preserve">
<g>
	<path fill-rule="evenodd" clip-rule="evenodd" d="M31.681,29.477c1.349,2.802,1.79,5.995,4.787,8.085
		c0.661,0.461,0.985,2.877,2.26,3.971c2.323,1.991,4.386,4.001,7.662,4.981c2.931,0.877,5.494,3.57,7.774,5.897
		c3.989,4.072,7.659,8.458,11.396,12.77c0.477,0.55,0.542,1.453,0.798,2.193c-0.189,0.187-0.378,0.375-0.566,0.563
		c-1.091-0.676-2.228-1.285-3.259-2.04c-5.494-4.021-10.9-8.17-16.498-12.039c-0.933-0.645-3.18-0.676-3.883-0.007
		c-0.734,0.697-0.74,2.72-0.341,3.923c0.692,2.084,1.664,4.211,3.043,5.888c1.127,1.37,2.99,2.156,4.577,3.117
		c3.617,2.191,7.521,4,10.851,6.559c7.246,5.565,14.204,11.508,21.297,17.274c0.676,0.549,1.482,0.937,2.884,1.803
		c-2.583-3.335-5.028-5.832-6.684-8.771c-3.213-5.699-5.893-11.694-8.979-17.471c-1.288-2.412-2.785-4.816-4.634-6.811
		c-6.667-7.197-13.393-14.354-20.365-21.252c-3.488-3.45-7.561-6.309-11.37-9.435C32.181,28.944,31.932,29.209,31.681,29.477z"/>
</g>
<g>
	<path fill-rule="evenodd" clip-rule="evenodd" d="M64.131,55.933c-0.81-6.362-3.811-11.659-7.269-16.674
		c-5.641-8.177-11.892-15.898-20.557-21.043c-2.914-1.73-6.517-2.513-9.913-3.159c-2.935-0.558-3.723,0.842-2.278,3.579
		c2.082,3.945,4.319,7.51,9.234,8.891c2.673,0.75,5.128,2.953,7.224,4.976c7.312,7.052,14.424,14.308,21.612,21.487
		C62.835,54.635,63.481,55.285,64.131,55.933z"/>
</g>
</svg>
