<?xml version="1.0" encoding="utf-8"?>
<!-- Generator: Adobe Illustrator 16.0.0, SVG Export Plug-In . SVG Version: 6.00 Build 0)  -->
<!DOCTYPE svg PUBLIC "-//W3C//DTD SVG 1.1//EN" "http://www.w3.org/Graphics/SVG/1.1/DTD/svg11.dtd">
<svg version="1.1" id="Layer_1" xmlns="http://www.w3.org/2000/svg" xmlns:xlink="http://www.w3.org/1999/xlink" x="0px" y="0px"
	 width="50px" height="50px" viewBox="0 0 50 50" enable-background="new 0 0 50 50" xml:space="preserve">
<path fill-rule="evenodd" clip-rule="evenodd" d="M5.164-0.347c0.013,0.002,0.017,0.012,0.015,0.03
	C5.156-0.314,5.152-0.335,5.164-0.347z"/>
<path fill-rule="evenodd" clip-rule="evenodd" d="M7.948,10.196c-0.06,0.005-0.046-0.062-0.059-0.096
	c-0.012-0.033-0.037-0.071-0.052-0.104C7.804,9.929,7.776,9.853,7.74,9.789C7.717,9.748,7.668,9.712,7.651,9.67
	C7.641,9.643,7.646,9.61,7.637,9.58c-0.006-0.017-0.021-0.031-0.03-0.052C7.598,9.51,7.6,9.485,7.592,9.469
	c-0.007-0.014-0.03-0.023-0.037-0.037C7.545,9.413,7.549,9.392,7.54,9.374C7.5,9.292,7.425,9.227,7.384,9.143
	C7.358,9.09,7.352,9.035,7.325,8.987C7.3,8.944,7.262,8.912,7.235,8.868C7.202,8.812,7.173,8.749,7.14,8.689
	C7.106,8.633,7.074,8.576,7.042,8.52C6.996,8.433,6.966,8.334,6.916,8.244C6.9,8.216,6.875,8.189,6.864,8.162
	C6.83,8.083,6.821,7.999,6.782,7.925C6.77,7.9,6.749,7.882,6.73,7.857C6.651,7.755,6.527,7.632,6.404,7.583
	C6.394,7.566,6.38,7.553,6.367,7.539C6.19,7.445,6.101,7.266,6.025,7.071C6.022,6.96,6.012,6.812,6.062,6.707
	c0.024-0.05,0.13-0.17,0.178-0.201c0.161-0.103,0.425-0.079,0.571,0.045C6.834,6.61,6.889,6.643,6.916,6.692
	c0.03,0.055,0.059,0.154,0.074,0.224c0.064,0.282-0.052,0.49-0.052,0.75c0,0.142,0.112,0.267,0.178,0.409
	c0.047,0.1,0.075,0.215,0.134,0.312c0.021,0.035,0.035,0.086,0.052,0.14c0.01,0.031,0.028,0.06,0.038,0.09
	c0.022,0.065,0.029,0.141,0.052,0.208c0.037,0.104,0.093,0.211,0.134,0.319C7.539,9.179,7.561,9.215,7.57,9.247
	C7.576,9.27,7.571,9.292,7.577,9.314c0.031,0.094,0.099,0.182,0.142,0.281c0.014,0.031,0.035,0.061,0.044,0.09
	c0.012,0.035,0.01,0.07,0.023,0.104C7.797,9.82,7.822,9.849,7.837,9.884c0.015,0.034,0.022,0.073,0.037,0.105
	C7.904,10.053,8.002,10.121,7.948,10.196z"/>
<path fill-rule="evenodd" clip-rule="evenodd" d="M9.359,11.957c-0.077-0.144-0.126-0.318-0.201-0.476
	c-0.024-0.049-0.054-0.104-0.067-0.156c-0.007-0.028-0.001-0.059-0.007-0.089c-0.009-0.046-0.033-0.095-0.045-0.141
	c-0.027-0.106-0.044-0.198-0.082-0.29c-0.007-0.02-0.02-0.039-0.029-0.06C8.906,10.7,8.902,10.65,8.884,10.598
	c-0.009-0.025-0.031-0.046-0.045-0.075c-0.041-0.082-0.057-0.157-0.082-0.26c-0.019-0.079-0.061-0.168-0.104-0.26
	C8.613,9.918,8.59,9.819,8.549,9.745c-0.012-0.023-0.027-0.037-0.037-0.06C8.488,9.624,8.456,9.56,8.431,9.5
	c-0.038-0.09-0.058-0.187-0.104-0.253c-0.032-0.045-0.08-0.094-0.126-0.134C8.157,9.075,8.094,9.052,8.044,9.008
	c-0.029-0.024-0.049-0.06-0.082-0.089C7.846,8.816,7.76,8.705,7.704,8.533C7.68,8.464,7.656,8.391,7.667,8.273
	c0.002-0.033,0.007-0.082,0.015-0.104C7.686,8.156,7.702,8.151,7.71,8.133c0.009-0.017,0.008-0.04,0.015-0.051
	C7.77,7.998,7.818,7.948,7.904,7.896c0.117-0.071,0.299-0.061,0.416,0.029c0.006,0.004,0.008,0.018,0.015,0.023
	c0.085,0.051,0.106,0.079,0.156,0.17c0.04,0.074,0.052,0.117,0.075,0.223c0.005,0.027,0.02,0.055,0.021,0.074
	C8.608,8.604,8.53,8.809,8.504,8.979C8.475,9.19,8.556,9.378,8.617,9.551c0.03,0.083,0.05,0.17,0.074,0.252
	C8.7,9.836,8.725,9.866,8.735,9.899c0.013,0.04,0.008,0.078,0.022,0.111c0.026,0.061,0.066,0.114,0.082,0.171
	c0.013,0.041,0.013,0.087,0.023,0.12c0.014,0.042,0.032,0.078,0.052,0.126c0.012,0.029,0.015,0.046,0.03,0.089
	c0.009,0.027,0.04,0.085,0.052,0.119c0.012,0.032,0.01,0.066,0.022,0.097c0.068,0.183,0.195,0.358,0.26,0.557
	c0.028,0.086,0.056,0.169,0.089,0.26c0.03,0.076,0.048,0.171,0.082,0.251c0.007,0.016,0.017,0.029,0.022,0.045
	c0.015,0.042,0.037,0.089,0.051,0.134c0.012,0.034,0.012,0.068,0.023,0.104c0.015,0.054,0.042,0.111,0.067,0.163
	c0.054,0.116,0.103,0.261,0.17,0.394c0.007,0.014,0.003,0.029,0.015,0.044c0.03,0.048,0.042,0.134,0.066,0.209
	c0.017,0.052,0.041,0.103,0.06,0.155c0.041,0.108,0.066,0.222,0.111,0.327c0.021,0.048,0.049,0.097,0.074,0.147
	c0.051,0.099,0.095,0.167,0.156,0.275c0.039,0.069,0.084,0.111,0.067,0.215c-0.006,0.035-0.037,0.104-0.104,0.111
	c-0.119,0.013-0.188-0.138-0.223-0.245c-0.025-0.079-0.026-0.123-0.044-0.215c-0.022-0.12-0.075-0.249-0.119-0.356
	c-0.027-0.065-0.061-0.122-0.089-0.186c-0.02-0.045-0.027-0.094-0.045-0.142c-0.025-0.064-0.06-0.125-0.089-0.193
	c-0.019-0.043-0.03-0.083-0.052-0.133c-0.029-0.069-0.063-0.182-0.089-0.26c-0.011-0.034-0.01-0.072-0.022-0.104
	c-0.01-0.028-0.033-0.05-0.043-0.081c-0.014-0.037-0.019-0.084-0.03-0.126C9.37,12.043,9.356,12.001,9.359,11.957z"/>
<path fill-rule="evenodd" clip-rule="evenodd" d="M44.926,8.378c0.03,0.006,0.051,0.023,0.059,0.052
	C44.942,8.434,44.917,8.402,44.926,8.378z"/>
<path fill-rule="evenodd" clip-rule="evenodd" d="M16.866,12.847c-0.112,0.004-0.134-0.119-0.208-0.163
	c-0.063-0.037-0.137-0.027-0.208-0.075c-0.18,0.005-0.388-0.08-0.579-0.155c-0.165-0.063-0.309-0.146-0.407-0.252
	c-0.025-0.024-0.039-0.061-0.062-0.09c-0.02-0.028-0.048-0.049-0.067-0.074c-0.064-0.1-0.106-0.26-0.073-0.385
	c0.02-0.079,0.067-0.2,0.111-0.268c0.045-0.071,0.157-0.133,0.252-0.164c0.084-0.028,0.245,0.004,0.312,0.045
	c0.079,0.046,0.183,0.151,0.223,0.237c0.026,0.057,0.038,0.122,0.066,0.178c0.013,0.024,0.033,0.051,0.044,0.074
	c0.027,0.048,0.053,0.084,0.09,0.126c0.155,0.183,0.445,0.336,0.431,0.668c0.026,0.042,0.044,0.09,0.059,0.142
	C16.881,12.715,16.897,12.811,16.866,12.847z"/>
<path fill-rule="evenodd" clip-rule="evenodd" d="M9.159,12.87c-0.074,0.014-0.094-0.089-0.111-0.156
	c-0.046-0.096-0.11-0.183-0.164-0.282c-0.019-0.035-0.027-0.058-0.052-0.096c-0.04-0.062-0.087-0.148-0.126-0.223
	c-0.045-0.087-0.074-0.19-0.119-0.282c-0.021-0.044-0.042-0.09-0.066-0.134c-0.061-0.112-0.14-0.262-0.12-0.446
	c0.011-0.001,0.032-0.032,0.037-0.014c0.072,0.007,0.096,0.05,0.148,0.111c0.043,0.05,0.082,0.091,0.104,0.148
	c0.011,0.029,0.012,0.067,0.022,0.097c0.036,0.108,0.097,0.221,0.148,0.333c0.038,0.083,0.064,0.159,0.096,0.26
	c0.039,0.118,0.084,0.262,0.127,0.394c0.017,0.051,0.03,0.099,0.052,0.147C9.155,12.77,9.195,12.824,9.159,12.87z"/>
<path fill-rule="evenodd" clip-rule="evenodd" d="M10.978,12.112c0.043,0.012,0.08,0.048,0.119,0.082
	c0.035,0.029,0.081,0.057,0.104,0.089c0.026,0.037,0.055,0.117,0.089,0.192c0.014,0.032,0.032,0.064,0.044,0.098
	c0.014,0.035,0.037,0.067,0.045,0.096c0.006,0.026,0.001,0.058,0.007,0.09c0.007,0.04,0.031,0.081,0.038,0.119
	c0.029,0.175-0.012,0.361-0.134,0.408c-0.081,0.032-0.187,0.012-0.268-0.022c-0.015-0.006-0.021-0.018-0.037-0.022
	c-0.052-0.018-0.071-0.032-0.119-0.06c-0.074-0.042-0.162-0.083-0.23-0.133c-0.106-0.076-0.156-0.125-0.223-0.23
	c-0.022-0.035-0.05-0.075-0.059-0.104c-0.008-0.023-0.002-0.052-0.008-0.081c-0.008-0.043-0.03-0.093-0.022-0.164
	c0.015-0.127,0.145-0.291,0.23-0.342c0.042-0.026,0.118-0.053,0.171-0.06C10.807,12.058,10.887,12.088,10.978,12.112z"/>
<path fill-rule="evenodd" clip-rule="evenodd" d="M20.399,12.112c0.021,0.02,0.037,0.043,0.068,0.052
	c0.004,0.041-0.036,0.039-0.045,0.066c-0.04-0.025-0.094-0.035-0.119-0.074c0.019-0.013,0.041-0.023,0.06-0.038
	c0.011,0.005,0.002,0.029,0.015,0.031C20.391,12.143,20.383,12.116,20.399,12.112z"/>
<path fill-rule="evenodd" clip-rule="evenodd" d="M17.021,13.145c0.011,0,0.02,0,0.031,0c0.001,0.018-0.002,0.028-0.008,0.037
	C17.02,13.185,17.02,13.166,17.021,13.145z"/>
<path fill-rule="evenodd" clip-rule="evenodd" d="M17.854,13.189c0.009,0,0.02,0,0.029,0c0.009,0.034-0.017,0.032-0.037,0.037
	C17.843,13.209,17.848,13.198,17.854,13.189z"/>
<path fill-rule="evenodd" clip-rule="evenodd" d="M9.374,13.301c-0.012,0.012-0.031,0.018-0.06,0.015
	C9.242,13.257,9.382,13.201,9.374,13.301z"/>
<path fill-rule="evenodd" clip-rule="evenodd" d="M17.215,13.487c0.073-0.037,0.105,0.096,0.044,0.11
	C17.203,13.613,17.152,13.518,17.215,13.487z"/>
<path fill-rule="evenodd" clip-rule="evenodd" d="M28.754,14.213c-0.077,0.034-0.186-0.106-0.208-0.208
	c-0.016-0.069-0.015-0.148,0.037-0.156c0.063-0.01,0.075,0.076,0.126,0.097C28.732,14.03,28.808,14.119,28.754,14.213z"/>
<path fill-rule="evenodd" clip-rule="evenodd" d="M17.728,14.474c-0.034,0.003-0.076-0.014-0.097-0.038
	c-0.029-0.033-0.024-0.056-0.044-0.119c-0.017-0.048-0.055-0.081-0.015-0.14C17.688,14.175,17.828,14.396,17.728,14.474z"/>
<path fill-rule="evenodd" clip-rule="evenodd" d="M18.5,14.2c0.055,0.021,0.007,0.096-0.014,0.125
	C18.449,14.296,18.498,14.238,18.5,14.2z"/>
<path fill-rule="evenodd" clip-rule="evenodd" d="M11.913,14.667c-0.07,0.01-0.132-0.055-0.141-0.104
	c-0.016-0.086,0.038-0.141,0.112-0.097c0.032,0.02,0.079,0.091,0.081,0.111C11.968,14.62,11.939,14.638,11.913,14.667z"/>
<path fill-rule="evenodd" clip-rule="evenodd" d="M19.36,14.6c0.026-0.003,0.028,0.038,0.015,0.052
	C19.354,14.651,19.362,14.622,19.36,14.6z"/>
<path fill-rule="evenodd" clip-rule="evenodd" d="M19.375,14.667c0.031,0.076,0.032,0.136,0.037,0.237
	C19.394,14.83,19.356,14.757,19.375,14.667z"/>
<path fill-rule="evenodd" clip-rule="evenodd" d="M19.412,14.912c0.037,0.035,0.027,0.132,0.053,0.2
	c0.007,0.023,0.031,0.059,0.037,0.097c0.002,0.019-0.008,0.035-0.008,0.052c-0.001,0.078,0.032,0.149,0.038,0.229
	c-0.041-0.05-0.047-0.135-0.061-0.214c-0.01-0.021-0.02-0.044-0.028-0.067c-0.006-0.03,0.011-0.055,0-0.067
	C19.396,15.087,19.431,14.998,19.412,14.912z"/>
<path fill-rule="evenodd" clip-rule="evenodd" d="M18.04,14.964c0.017,0.024,0.034,0.07,0.008,0.096c-0.02,0-0.04,0-0.061,0
	C17.944,15.025,17.968,14.929,18.04,14.964z"/>
<path fill-rule="evenodd" clip-rule="evenodd" d="M19.524,15.506c0.04,0.006,0.025,0.07,0.037,0.104
	C19.528,15.596,19.522,15.556,19.524,15.506z"/>
<path fill-rule="evenodd" clip-rule="evenodd" d="M18.447,15.907c0.017-0.001,0.025,0.006,0.023,0.021c-0.007,0-0.015,0-0.023,0
	C18.447,15.921,18.447,15.914,18.447,15.907z"/>
<path fill-rule="evenodd" clip-rule="evenodd" d="M11.238,16.635c-0.035,0.004-0.069,0.011-0.112,0.008
	c-0.042-0.035-0.079-0.075-0.111-0.119c-0.003-0.073-0.003-0.141,0.03-0.178c0.12-0.054,0.235,0.002,0.252,0.119
	C11.306,16.528,11.285,16.592,11.238,16.635z"/>
<path fill-rule="evenodd" clip-rule="evenodd" d="M12.79,16.679c-0.055,0.017-0.1-0.017-0.134-0.044
	C12.596,16.394,12.907,16.513,12.79,16.679z"/>
<path fill-rule="evenodd" clip-rule="evenodd" d="M19.465,19.641c-0.106-0.005-0.085-0.091-0.105-0.162
	c-0.015-0.059-0.062-0.095-0.096-0.149c-0.032-0.052-0.056-0.127-0.09-0.186c-0.037-0.064-0.059-0.16-0.103-0.237
	c-0.034-0.057-0.078-0.105-0.112-0.163c-0.018-0.031-0.034-0.059-0.051-0.09c-0.042-0.07-0.087-0.158-0.119-0.245
	c-0.038-0.026-0.053-0.071-0.09-0.096c-0.114-0.304-0.368-0.47-0.639-0.616c-0.07-0.083-0.157-0.159-0.23-0.246
	c-0.065-0.077-0.102-0.184-0.149-0.29c0.008-0.056-0.014-0.111-0.006-0.171c0.013-0.125,0.066-0.232,0.132-0.305
	c0.137-0.112,0.322-0.115,0.469-0.051c0.083,0.035,0.119,0.064,0.186,0.134c0.096,0.099,0.149,0.222,0.186,0.4
	c0.05,0.253-0.023,0.619,0.067,0.885c0.058,0.091,0.09,0.199,0.14,0.296c0.021,0.04,0.054,0.072,0.075,0.111
	c0.017,0.03,0.022,0.071,0.038,0.104c0.006,0.015,0.015,0.03,0.021,0.045c0.085,0.199,0.187,0.408,0.304,0.585
	c0.017,0.09,0.069,0.145,0.09,0.231C19.438,19.468,19.56,19.564,19.465,19.641z"/>
<path fill-rule="evenodd" clip-rule="evenodd" d="M12.292,17.117c-0.006,0.006-0.02,0.005-0.023,0.015
	C12.218,17.113,12.286,17.058,12.292,17.117z"/>
<path fill-rule="evenodd" clip-rule="evenodd" d="M22.323,18.521c0.018-0.002,0.025,0.006,0.023,0.022
	C22.329,18.544,22.322,18.537,22.323,18.521z"/>
<path fill-rule="evenodd" clip-rule="evenodd" d="M21.797,19.983c0.024,0.025,0.017,0.063,0.029,0.097
	c0.022,0.062,0.066,0.111,0.097,0.178c0.056,0.128,0.077,0.339,0.162,0.454c0.028,0.118,0.067,0.222,0.119,0.333
	c0.029,0.062,0.056,0.126,0.09,0.2c0.034,0.075,0.049,0.164,0.096,0.253c0.048-0.007,0.066-0.064,0.119-0.074
	c0.087-0.015,0.16,0.035,0.201,0.089c0.028,0.172-0.093,0.195-0.245,0.186c0.058,0.113,0.084,0.219,0.155,0.311
	c0.025,0.163,0.104,0.273,0.142,0.424c-0.084-0.122-0.119-0.293-0.217-0.402c-0.028-0.164-0.099-0.326-0.162-0.467
	c-0.05-0.111-0.098-0.224-0.149-0.335c-0.014-0.032-0.012-0.056-0.029-0.096c-0.016-0.037-0.058-0.082-0.075-0.126
	c-0.013-0.04-0.012-0.085-0.028-0.126c-0.029-0.068-0.072-0.137-0.105-0.208c-0.017-0.037-0.026-0.075-0.044-0.111
	c-0.015-0.031-0.041-0.056-0.059-0.088c-0.035-0.063-0.088-0.213-0.088-0.305C21.803,20.114,21.811,20.049,21.797,19.983z"/>
<path fill-rule="evenodd" clip-rule="evenodd" d="M21.181,20.74c0.02,0,0.017,0.035,0.006,0.045
	c-0.018-0.001-0.027-0.012-0.029-0.03C21.164,20.75,21.177,20.751,21.181,20.74z"/>
<path fill-rule="evenodd" clip-rule="evenodd" d="M23.556,21.409c0.017,0.018,0.029-0.001,0.052,0
	c0.023,0.036,0.057,0.059,0.06,0.111c0.037,0.059,0.091,0.097,0.09,0.193c-0.046-0.008-0.063-0.046-0.075-0.089
	c-0.028-0.031-0.051-0.067-0.082-0.097c0.007-0.028-0.012-0.032-0.007-0.06c-0.114-0.135-0.256-0.244-0.318-0.431
	c-0.047-0.062-0.089-0.129-0.105-0.222c0.017-0.007,0.013-0.033,0.038-0.029c0.059,0.048,0.107,0.105,0.134,0.185
	c0.015,0.019,0.032,0.031,0.053,0.045c0.028,0.069,0.044,0.152,0.104,0.192C23.53,21.262,23.541,21.338,23.556,21.409z"/>
<path fill-rule="evenodd" clip-rule="evenodd" d="M30.744,22.886c-0.015-0.114-0.105-0.153-0.136-0.251
	c-0.051-0.024-0.082-0.08-0.132-0.112c-0.035-0.021-0.086-0.029-0.126-0.044c-0.112-0.042-0.221-0.108-0.32-0.17
	c-0.082-0.079-0.15-0.152-0.222-0.245c-0.072-0.092-0.15-0.204-0.208-0.327c-0.021-0.044-0.036-0.091-0.053-0.142
	c-0.029-0.088-0.069-0.188-0.074-0.312c-0.006-0.171,0.043-0.327,0.149-0.385c0.037-0.021,0.146-0.048,0.215-0.03
	c0.02,0.006,0.05,0.025,0.074,0.037c0.05,0.025,0.071,0.041,0.111,0.074c0.031,0.028,0.044,0.035,0.074,0.067
	c0.065,0.071,0.129,0.177,0.187,0.268c0.109,0.178,0.208,0.431,0.244,0.683c0.009,0.065,0.019,0.136,0.037,0.2
	c0.018,0.062,0.033,0.126,0.053,0.186c0.021,0.064,0.057,0.114,0.081,0.179c0.012,0.028,0.015,0.057,0.03,0.088
	c0.047,0.102,0.121,0.228,0.17,0.342c0.016,0.036,0.022,0.068,0.037,0.088c0.028,0.036,0.143,0.074,0.126,0.149
	c-0.003,0.014-0.032,0.042-0.037,0.044c-0.056,0.02-0.069-0.014-0.089-0.044c-0.024-0.041-0.007-0.05-0.021-0.104
	c-0.006-0.021-0.027-0.046-0.046-0.073C30.837,23,30.787,22.918,30.744,22.886z"/>
<path fill-rule="evenodd" clip-rule="evenodd" d="M20.748,21.372c0.044-0.013,0.075,0.073,0.061,0.119
	C20.758,21.466,20.777,21.413,20.748,21.372z"/>
<path fill-rule="evenodd" clip-rule="evenodd" d="M20.89,21.713c0.012,0.006,0.01,0.024,0.015,0.038
	C20.889,21.749,20.89,21.732,20.89,21.713z"/>
<path fill-rule="evenodd" clip-rule="evenodd" d="M23.765,21.736c0.027,0.003,0.038,0.021,0.044,0.044
	C23.788,21.795,23.768,21.76,23.765,21.736z"/>
<path fill-rule="evenodd" clip-rule="evenodd" d="M23.823,21.825c0.034,0.009,0.029,0.054,0.037,0.089
	C23.836,21.896,23.833,21.857,23.823,21.825z"/>
<path fill-rule="evenodd" clip-rule="evenodd" d="M23.883,21.929c0.06,0.074,0.114,0.152,0.127,0.274
	C23.959,22.12,23.904,22.041,23.883,21.929z"/>
<path fill-rule="evenodd" clip-rule="evenodd" d="M23.964,21.973c0.017,0.001,0.017,0.019,0.015,0.037
	C23.964,22.005,23.948,21.988,23.964,21.973z"/>
<path fill-rule="evenodd" clip-rule="evenodd" d="M23.994,22.032c0.016,0.008,0.022,0.022,0.022,0.045
	c-0.006-0.004-0.012-0.008-0.022-0.007C23.994,22.057,23.994,22.044,23.994,22.032z"/>
<path fill-rule="evenodd" clip-rule="evenodd" d="M24.022,22.107c0.015,0.001,0.019,0.013,0.016,0.03
	C24.029,22.131,24.024,22.121,24.022,22.107z"/>
<path fill-rule="evenodd" clip-rule="evenodd" d="M24.157,22.403c0.012-0.001,0.014,0.008,0.022,0.008
	c0.04,0.113,0.095,0.212,0.134,0.327c-0.033-0.015-0.041-0.053-0.052-0.089c-0.039-0.067-0.075-0.137-0.097-0.223
	C24.161,22.42,24.157,22.415,24.157,22.403z"/>
<path fill-rule="evenodd" clip-rule="evenodd" d="M22.762,22.441c0.087,0.125,0.116,0.308,0.214,0.424
	c0.008,0.055,0.023,0.1,0.062,0.126c0.053,0.007,0.076-0.034,0.104,0.007c0.02,0.053-0.043,0.072-0.06,0.111
	c0.055,0.125,0.12,0.241,0.163,0.379c0.086,0.146,0.141,0.323,0.229,0.468c-0.006,0.025,0.014,0.031,0,0.044
	c0.09,0.131,0.142,0.296,0.216,0.438c0.029,0.055,0.041,0.101,0.075,0.164c0.017,0.035,0.045,0.059,0.052,0.112
	c0.09,0.132,0.135,0.31,0.236,0.431c0.018,0.091,0.07,0.147,0.112,0.214c0.045,0.16,0.125,0.286,0.2,0.416
	c0.055,0.183,0.173,0.303,0.223,0.491c0.054,0.047,0.069,0.121,0.104,0.186c0.016,0.027,0.045,0.046,0.06,0.073
	c0.013,0.023,0.011,0.05,0.021,0.075c0.011,0.022,0.034,0.042,0.045,0.066c0.007,0.014,0,0.031,0.007,0.045
	c0.014,0.025,0.039,0.041,0.053,0.066c0.016,0.027,0.021,0.068,0.037,0.098c0.007,0.013,0.014,0.029,0.022,0.043
	c0.05,0.085,0.103,0.203,0.155,0.297c0.023,0.041,0.054,0.07,0.066,0.127c0.037,0.053,0.075,0.104,0.091,0.178
	c0.041,0.035,0.061,0.092,0.081,0.148c0.01,0.022,0.029,0.036,0.045,0.053c0.015,0.076,0.052,0.129,0.096,0.178
	c0.001,0.023,0.017,0.033,0.016,0.06c0.145,0.248,0.289,0.497,0.415,0.765c0.079,0.064,0.098,0.174,0.149,0.26
	c0.013,0.025,0.036,0.043,0.051,0.066c0.037,0.057,0.058,0.127,0.089,0.186c0.026,0.045,0.057,0.088,0.09,0.127
	c0.036,0.125,0.106,0.214,0.147,0.334c0.045,0.041,0.06,0.104,0.09,0.156c0.017,0.029,0.053,0.056,0.052,0.098
	c-0.06-0.051-0.077-0.142-0.142-0.186c-0.003-0.039-0.02-0.064-0.044-0.084c-0.055-0.113-0.104-0.23-0.187-0.318
	c-0.002-0.084-0.066-0.106-0.073-0.186c-0.044-0.016-0.046-0.064-0.073-0.111c-0.029-0.049-0.078-0.072-0.082-0.148
	c-0.166-0.25-0.282-0.552-0.454-0.795c0.01-0.043-0.028-0.072-0.044-0.104c-0.005-0.012-0.001-0.027-0.007-0.037
	c-0.018-0.029-0.037-0.053-0.053-0.082c-0.028-0.055-0.05-0.111-0.098-0.156c-0.076-0.234-0.223-0.398-0.31-0.623
	c-0.16-0.257-0.282-0.541-0.431-0.81c-0.016-0.025-0.039-0.047-0.054-0.074c-0.009-0.021-0.006-0.046-0.014-0.067
	c-0.015-0.037-0.058-0.064-0.053-0.111c-0.101-0.116-0.148-0.274-0.215-0.415c-0.029-0.062-0.072-0.117-0.104-0.186
	c-0.007-0.011-0.019-0.019-0.022-0.03c-0.032-0.088-0.08-0.183-0.142-0.252c-0.035-0.178-0.141-0.286-0.187-0.453
	c-0.112-0.198-0.195-0.425-0.319-0.616c-0.001-0.129-0.102-0.16-0.11-0.282c-0.047-0.075-0.088-0.172-0.132-0.26
	c-0.027-0.048-0.037-0.101-0.062-0.148c-0.013-0.027-0.036-0.047-0.052-0.075c-0.022-0.048-0.037-0.109-0.06-0.163
	c-0.067-0.164-0.139-0.35-0.207-0.521c-0.026-0.064-0.033-0.125-0.082-0.17C22.762,22.471,22.762,22.456,22.762,22.441z"/>
<path fill-rule="evenodd" clip-rule="evenodd" d="M24.351,22.715c0.09,0.125,0.159,0.306,0.192,0.461
	C24.462,23.04,24.374,22.909,24.351,22.715z"/>
<path fill-rule="evenodd" clip-rule="evenodd" d="M16.903,24.059c0.003-0.009,0.019-0.006,0.031-0.006
	C16.931,24.07,16.914,24.07,16.903,24.059z"/>
<path fill-rule="evenodd" clip-rule="evenodd" d="M14.772,24.349c0.004,0,0.009,0,0.014,0c0,0.005,0,0.01,0,0.015
	c-0.005,0-0.01,0-0.014,0C14.772,24.359,14.772,24.354,14.772,24.349z"/>
<path fill-rule="evenodd" clip-rule="evenodd" d="M21.529,25.582c0.017,0.031,0.051,0.042,0.044,0.097
	c-0.015,0.002-0.014,0.02-0.029,0.022C21.473,25.712,21.413,25.564,21.529,25.582z"/>
<path fill-rule="evenodd" clip-rule="evenodd" d="M23.571,26.198c0.001-0.009,0.014-0.007,0.021-0.007
	c0.058,0.064,0.118,0.123,0.18,0.186c-0.006,0.031,0.012,0.041,0.028,0.052c0.009,0.058,0.027,0.104,0.044,0.155
	c-0.061-0.029-0.11-0.07-0.171-0.104C23.651,26.374,23.629,26.269,23.571,26.198z"/>
<path fill-rule="evenodd" clip-rule="evenodd" d="M24.536,27.111c0.015-0.003,0.02,0.006,0.03,0.008
	c-0.005,0.007-0.008,0.013-0.008,0.021C24.539,27.145,24.535,27.131,24.536,27.111z"/>
<path fill-rule="evenodd" clip-rule="evenodd" d="M26.236,27.111c0.005,0,0.01,0,0.015,0c0,0.006,0,0.01,0,0.016
	c-0.005,0-0.01,0-0.015,0C26.236,27.121,26.236,27.117,26.236,27.111z"/>
<path fill-rule="evenodd" clip-rule="evenodd" d="M9.196,27.535c-0.013,0.025-0.031,0.028-0.06,0.021
	C9.126,27.521,9.188,27.506,9.196,27.535z"/>
<path fill-rule="evenodd" clip-rule="evenodd" d="M28.754,27.81c-0.053,0.003-0.082-0.01-0.09-0.037
	C28.636,27.666,28.822,27.699,28.754,27.81z"/>
<path fill-rule="evenodd" clip-rule="evenodd" d="M26.215,29.102c0.025-0.012,0.004,0.024,0.021,0.022
	C26.224,29.148,26.196,29.109,26.215,29.102z"/>
<path fill-rule="evenodd" clip-rule="evenodd" d="M25.761,29.205c0.071,0.023,0.078,0.078,0.104,0.135
	C25.818,29.308,25.761,29.285,25.761,29.205z"/>
<path fill-rule="evenodd" clip-rule="evenodd" d="M34.247,29.31c0.035-0.001,0.06,0.036,0.038,0.067
	C34.254,29.377,34.238,29.329,34.247,29.31z"/>
<path fill-rule="evenodd" clip-rule="evenodd" d="M25.902,29.443c0.027,0.012,0.071,0.039,0.052,0.074
	C25.93,29.501,25.905,29.482,25.902,29.443z"/>
<path fill-rule="evenodd" clip-rule="evenodd" d="M32.065,29.65c0.071-0.033,0.104,0.104,0.044,0.119
	C32.056,29.783,32.003,29.68,32.065,29.65z"/>
<path fill-rule="evenodd" clip-rule="evenodd" d="M26.036,30.957c-0.033-0.036-0.061-0.079-0.09-0.125
	c-0.042-0.072-0.121-0.183-0.096-0.32c0.006-0.033,0.065-0.131,0.127-0.119c0.074,0.018,0.168,0.004,0.252,0.046
	c0.066,0.032,0.172,0.125,0.229,0.186c0.098,0.101,0.184,0.235,0.268,0.355c0.081,0.116,0.162,0.279,0.187,0.438
	c0.003,0.023-0.003,0.053,0,0.075c0.002,0.024,0.014,0.045,0.014,0.059c0,0.036-0.023,0.081-0.029,0.119
	c-0.015,0.09,0,0.172-0.09,0.186c-0.054,0.007-0.101-0.019-0.162-0.052c-0.06-0.032-0.125-0.047-0.172-0.082
	c-0.016-0.013-0.026-0.035-0.045-0.052c-0.016-0.015-0.038-0.022-0.052-0.037c-0.027-0.03-0.05-0.077-0.075-0.112
	C26.196,31.359,26.099,31.175,26.036,30.957z"/>
<rect x="25.093" y="30.602" fill-rule="evenodd" clip-rule="evenodd" width="0.016" height="0.015"/>
<path fill-rule="evenodd" clip-rule="evenodd" d="M25.25,30.95C25.283,30.955,25.243,30.994,25.25,30.95L25.25,30.95z"/>
<path fill-rule="evenodd" clip-rule="evenodd" d="M14.721,31.879c0.04,0.008,0.035,0.062,0.044,0.104
	C14.739,31.959,14.719,31.93,14.721,31.879z"/>
<path fill-rule="evenodd" clip-rule="evenodd" d="M26.088,31.961c0.013,0,0.024,0,0.037,0c0.001,0.025-0.011,0.037-0.037,0.036
	C26.088,31.984,26.088,31.973,26.088,31.961z"/>
<path fill-rule="evenodd" clip-rule="evenodd" d="M14.891,32.189c0.017,0.008,0.027,0.023,0.029,0.046
	C14.896,32.234,14.893,32.215,14.891,32.189z"/>
<path fill-rule="evenodd" clip-rule="evenodd" d="M26.57,35.049c-0.115-0.182-0.2-0.377-0.319-0.557
	c-0.057-0.087-0.109-0.182-0.163-0.274c-0.076-0.133-0.123-0.29-0.252-0.364c-0.048-0.026-0.103-0.029-0.163-0.052
	c-0.048-0.019-0.101-0.054-0.149-0.082s-0.104-0.057-0.142-0.089c-0.019-0.016-0.03-0.047-0.051-0.066
	c-0.022-0.021-0.051-0.033-0.068-0.053c-0.018-0.021-0.025-0.053-0.044-0.074c-0.02-0.023-0.042-0.037-0.06-0.06
	c-0.071-0.091-0.11-0.202-0.17-0.296c-0.017-0.092-0.067-0.188-0.09-0.305c-0.02-0.106-0.021-0.256,0.022-0.35
	c0.036-0.074,0.1-0.129,0.194-0.164c0.115-0.042,0.301,0.061,0.371,0.105c0.088,0.055,0.155,0.123,0.222,0.207
	c0.043,0.054,0.078,0.099,0.118,0.164c0.108,0.165,0.211,0.411,0.237,0.669c0.009,0.062,0.009,0.13,0,0.192
	c-0.007,0.067-0.034,0.163-0.013,0.252c0.006,0.031,0.035,0.071,0.06,0.112c0.041,0.073,0.078,0.14,0.118,0.222
	c0.029,0.062,0.064,0.098,0.072,0.178c0.038,0.035,0.055,0.09,0.075,0.143c0.021,0.047,0.052,0.084,0.074,0.134
	c0.022,0.048,0.037,0.104,0.06,0.155c0.041,0.091,0.098,0.184,0.157,0.267c0.056,0.081,0.102,0.175,0.162,0.259
	c0.015,0.021,0.032,0.041,0.045,0.062c0.014,0.02,0.017,0.053,0.03,0.072c0.046,0.066,0.191,0.109,0.17,0.246
	c-0.008,0.045-0.048,0.08-0.096,0.08c-0.103,0.002-0.118-0.102-0.149-0.17c-0.02-0.045-0.049-0.088-0.074-0.133
	c-0.025-0.047-0.044-0.094-0.067-0.143C26.646,35.242,26.595,35.149,26.57,35.049z"/>
<path fill-rule="evenodd" clip-rule="evenodd" d="M14.92,32.271c0.083,0.041,0.082,0.166,0.119,0.252
	c0.065,0.069,0.078,0.191,0.134,0.27c-0.028,0.062,0.037,0.102,0.023,0.146c-0.084-0.1-0.12-0.246-0.17-0.379
	c-0.009-0.021-0.029-0.043-0.038-0.066c-0.023-0.059-0.014-0.122-0.067-0.155C14.92,32.316,14.92,32.295,14.92,32.271z"/>
<path fill-rule="evenodd" clip-rule="evenodd" d="M27.165,32.473c0.082-0.01,0.101,0.146,0.021,0.155
	C27.121,32.636,27.055,32.486,27.165,32.473z"/>
<path fill-rule="evenodd" clip-rule="evenodd" d="M21.676,32.502c0.021,0.016,0.027,0.049,0.038,0.074
	C21.692,32.562,21.673,32.544,21.676,32.502z"/>
<path fill-rule="evenodd" clip-rule="evenodd" d="M21.751,32.607c0.022,0,0.052,0.025,0.067,0.043
	c0.042,0.051,0.069,0.131,0.105,0.186c-0.016,0.017-0.044-0.016-0.061-0.022c-0.004-0.04-0.02-0.067-0.051-0.081
	C21.806,32.675,21.773,32.648,21.751,32.607z"/>
<path fill-rule="evenodd" clip-rule="evenodd" d="M14.891,32.65c0.019,0,0.017,0.028,0.008,0.037
	C14.882,32.689,14.894,32.661,14.891,32.65z"/>
<path fill-rule="evenodd" clip-rule="evenodd" d="M34.456,32.955c0.003,0.018,0.012,0.027,0.008,0.053
	c-0.017,0.002-0.027,0.012-0.053,0.007c-0.01-0.019-0.018-0.029-0.007-0.052C34.431,32.969,34.434,32.951,34.456,32.955z"/>
<path fill-rule="evenodd" clip-rule="evenodd" d="M26.808,33c0.013-0.002,0.014,0.008,0.022,0.008
	c-0.001,0.005-0.007,0.007-0.007,0.015c-0.004,0-0.01,0-0.016,0C26.808,33.015,26.808,33.008,26.808,33z"/>
<path fill-rule="evenodd" clip-rule="evenodd" d="M15.299,33.141c0.02,0.008,0.024,0.029,0.044,0.037
	c0.003,0.117,0.091,0.146,0.089,0.268c-0.057-0.054-0.073-0.15-0.118-0.216C15.322,33.188,15.302,33.174,15.299,33.141z"/>
<path fill-rule="evenodd" clip-rule="evenodd" d="M32.727,33.549c0.025-0.005,0.057,0.047,0.065,0.082
	C32.764,33.61,32.746,33.58,32.727,33.549z"/>
<path fill-rule="evenodd" clip-rule="evenodd" d="M22.331,33.623c0.021-0.011,0.021,0.034,0,0.022
	C22.331,33.639,22.331,33.631,22.331,33.623z"/>
<path fill-rule="evenodd" clip-rule="evenodd" d="M30.833,33.95c0.034,0.036,0.021,0.086-0.016,0.096
	C30.725,34.073,30.695,33.896,30.833,33.95z"/>
<path fill-rule="evenodd" clip-rule="evenodd" d="M27.009,33.95c0,0.007,0,0.016,0,0.022c-0.016,0.002-0.02-0.005-0.029-0.007
	C26.981,33.951,26.991,33.947,27.009,33.95z"/>
<path fill-rule="evenodd" clip-rule="evenodd" d="M27.099,34.195c-0.04-0.006-0.079-0.035-0.074-0.067
	C27.033,34.053,27.154,34.113,27.099,34.195z"/>
<path fill-rule="evenodd" clip-rule="evenodd" d="M27.558,34.997c-0.049-0.017-0.1-0.035-0.11-0.075
	c-0.021-0.074,0.012-0.104,0.067-0.096C27.565,34.835,27.616,34.961,27.558,34.997z"/>
<path fill-rule="evenodd" clip-rule="evenodd" d="M27.968,35.057c-0.033-0.152,0.146-0.156,0.163-0.06
	C28.147,35.093,28.021,35.131,27.968,35.057z"/>
<path fill-rule="evenodd" clip-rule="evenodd" d="M27.603,35.012c0.042-0.004,0.041,0.032,0.022,0.052
	C27.598,35.067,27.587,35.03,27.603,35.012z"/>
<path fill-rule="evenodd" clip-rule="evenodd" d="M36.275,35.266c0.058,0.074-0.015,0.148-0.081,0.139
	C36.081,35.391,36.127,35.199,36.275,35.266z"/>
<path fill-rule="evenodd" clip-rule="evenodd" d="M34.084,35.316c0.056,0.006,0.094,0.053,0.119,0.088
	c0.029,0.041,0.056,0.09,0.075,0.135c0.056,0.053,0.141,0.107,0.11,0.223c-0.08-0.014-0.104-0.084-0.134-0.148
	c-0.021-0.027-0.052-0.047-0.088-0.059c-0.027-0.082-0.123-0.129-0.098-0.238C34.075,35.316,34.08,35.316,34.084,35.316z"/>
<path fill-rule="evenodd" clip-rule="evenodd" d="M28.917,36.029c-0.122,0.016-0.236-0.152-0.208-0.283
	c0.105-0.098,0.188,0.07,0.224,0.156C28.923,35.955,28.937,35.984,28.917,36.029z"/>
<path fill-rule="evenodd" clip-rule="evenodd" d="M31.375,35.852c-0.04,0.039-0.112-0.012-0.082-0.061
	C31.336,35.768,31.387,35.795,31.375,35.852z"/>
<path fill-rule="evenodd" clip-rule="evenodd" d="M24.002,35.814c0.099,0.045,0.115,0.176,0.201,0.236
	c-0.002,0.029-0.002,0.057,0.006,0.074c-0.022-0.016-0.051-0.027-0.081-0.037c-0.033-0.051-0.063-0.104-0.075-0.178
	C24.027,35.887,24.008,35.857,24.002,35.814z"/>
<path fill-rule="evenodd" clip-rule="evenodd" d="M36.668,35.836c0.08-0.023,0.085,0.096,0.031,0.111
	C36.638,35.965,36.583,35.861,36.668,35.836z"/>
<path fill-rule="evenodd" clip-rule="evenodd" d="M36.81,36.008c0.01,0.002,0.017,0.01,0.017,0.021
	C36.8,36.035,36.8,36.018,36.81,36.008z"/>
<path fill-rule="evenodd" clip-rule="evenodd" d="M21.194,36.082c0.041,0.023,0.041,0.088,0.074,0.117
	C21.235,36.197,21.205,36.131,21.194,36.082z"/>
<path fill-rule="evenodd" clip-rule="evenodd" d="M21.276,36.23c0.014,0,0.017,0.012,0.015,0.029
	C21.276,36.256,21.26,36.246,21.276,36.23z"/>
<path fill-rule="evenodd" clip-rule="evenodd" d="M29.987,36.43c0.042-0.092,0.161-0.041,0.146,0.037
	C30.12,36.559,29.994,36.508,29.987,36.43z"/>
<path fill-rule="evenodd" clip-rule="evenodd" d="M28.471,36.445c0.026-0.002,0.04,0.027,0.023,0.045
	C28.461,36.5,28.458,36.459,28.471,36.445z"/>
<path fill-rule="evenodd" clip-rule="evenodd" d="M27.38,36.49c0.03-0.004,0.048,0.008,0.044,0.037
	c-0.009-0.002-0.021-0.002-0.021,0.006C27.386,36.527,27.375,36.516,27.38,36.49z"/>
<path fill-rule="evenodd" clip-rule="evenodd" d="M29.392,37.016c0.024-0.004,0.035,0.006,0.054,0.008
	c-0.006,0.031,0.01,0.039,0.006,0.068C29.4,37.098,29.387,37.066,29.392,37.016z"/>
<path fill-rule="evenodd" clip-rule="evenodd" d="M37.774,37.105c0.062-0.008,0.161,0.006,0.231,0.037
	c0.112,0.049,0.191,0.115,0.267,0.223c0.046,0.064,0.087,0.125,0.098,0.209c0.021,0.182-0.105,0.301-0.32,0.26
	c-0.023-0.006-0.055-0.016-0.082-0.023c-0.136-0.037-0.255-0.146-0.341-0.273c-0.079-0.119-0.076-0.359,0.067-0.416
	C37.714,37.113,37.747,37.109,37.774,37.105z"/>
<path fill-rule="evenodd" clip-rule="evenodd" d="M29.86,37.811c-0.099,0.006-0.114-0.072-0.179-0.104
	c-0.055-0.189-0.227-0.266-0.236-0.496c0.054-0.068,0.139,0.027,0.198,0.109c0.054,0.072,0.081,0.154,0.119,0.217
	C29.809,37.609,29.921,37.707,29.86,37.811z"/>
<path fill-rule="evenodd" clip-rule="evenodd" d="M17.46,37.232c0.062,0.074,0.14,0.137,0.163,0.252
	C17.565,37.41,17.471,37.33,17.46,37.232z"/>
<path fill-rule="evenodd" clip-rule="evenodd" d="M23.727,37.336c0.023,0.01,0.033,0.037,0.046,0.061
	C23.743,37.389,23.73,37.367,23.727,37.336z"/>
<path fill-rule="evenodd" clip-rule="evenodd" d="M18.024,37.996c0.027,0.004,0.071,0.045,0.104,0.074
	c0.055,0.053,0.12,0.121,0.119,0.209C18.152,38.207,18.088,38.102,18.024,37.996z"/>
<path fill-rule="evenodd" clip-rule="evenodd" d="M29.287,38.158c0.026-0.002,0.026,0.027,0.017,0.039
	C29.277,38.201,29.276,38.172,29.287,38.158z"/>
<path fill-rule="evenodd" clip-rule="evenodd" d="M33.12,38.404c-0.111,0.049-0.25-0.219-0.111-0.23
	C33.097,38.168,33.176,38.326,33.12,38.404z"/>
<path fill-rule="evenodd" clip-rule="evenodd" d="M30.216,38.545c-0.082,0.016-0.113-0.068-0.163-0.109
	c-0.015-0.055-0.094-0.188,0-0.209C30.156,38.201,30.271,38.453,30.216,38.545z"/>
<path fill-rule="evenodd" clip-rule="evenodd" d="M28.702,38.361c-0.004,0.027-0.023,0.043-0.053,0.043
	c-0.007-0.016-0.02-0.023-0.014-0.051C28.658,38.332,28.69,38.326,28.702,38.361z"/>
<path fill-rule="evenodd" clip-rule="evenodd" d="M18.7,38.762c0.001-0.008,0.014-0.006,0.022-0.008
	c0.012,0.039,0.052,0.037,0.081,0.059c0.063,0.049,0.088,0.137,0.165,0.172c0.009,0.037,0.036,0.057,0.036,0.104
	C18.867,39.016,18.79,38.883,18.7,38.762z"/>
<path fill-rule="evenodd" clip-rule="evenodd" d="M43.573,38.896c-0.005,0.006-0.007,0.016-0.007,0.029
	c-0.024,0-0.035-0.01-0.037-0.029C43.539,38.887,43.565,38.887,43.573,38.896z"/>
<path fill-rule="evenodd" clip-rule="evenodd" d="M20.629,39.4c-0.094,0-0.041-0.115,0.008-0.037
	C20.641,39.381,20.637,39.393,20.629,39.4z"/>
<path fill-rule="evenodd" clip-rule="evenodd" d="M19.502,39.49c0.051-0.01,0.045,0.043,0.074,0.059
	c-0.001,0.014-0.014,0.018-0.031,0.016c0.044,0.076,0.113,0.131,0.186,0.178c0.018,0.049,0.102,0.07,0.074,0.141
	c-0.083-0.029-0.135-0.088-0.178-0.164c-0.041-0.07-0.109-0.129-0.149-0.201C19.505,39.525,19.504,39.51,19.502,39.49z"/>
<path fill-rule="evenodd" clip-rule="evenodd" d="M31.761,39.705c0.067,0.035,0.125,0.082,0.104,0.207
	c-0.069,0.146-0.314,0.104-0.305-0.066C31.566,39.758,31.633,39.691,31.761,39.705z"/>
<path fill-rule="evenodd" clip-rule="evenodd" d="M33.906,40.061c-0.096-0.012-0.158-0.131-0.126-0.223
	C33.869,39.861,33.941,39.961,33.906,40.061z"/>
<path fill-rule="evenodd" clip-rule="evenodd" d="M32.904,39.861c0,0.014,0.009,0.016,0.007,0.029c-0.021,0.01-0.044,0.02-0.06,0
	C32.849,39.861,32.873,39.857,32.904,39.861z"/>
<path fill-rule="evenodd" clip-rule="evenodd" d="M20.155,40.209c0.024-0.021,0.056,0.01,0.045,0.045
	C20.17,40.254,20.176,40.219,20.155,40.209z"/>
<path fill-rule="evenodd" clip-rule="evenodd" d="M34.077,40.529c0.052,0.004,0.074,0.035,0.104,0.082
	c0.015,0.02,0.021,0.049,0.037,0.074c0.023,0.033,0.058,0.061,0.066,0.088c0.007,0.021-0.005,0.053,0,0.082
	c0.008,0.049,0.032,0.098,0.023,0.164c-0.081-0.055-0.093-0.182-0.165-0.246C34.138,40.682,34.05,40.631,34.077,40.529z"/>
<path fill-rule="evenodd" clip-rule="evenodd" d="M20.542,40.646c0.009,0.004,0.015,0.01,0.015,0.023
	C20.548,40.666,20.542,40.66,20.542,40.646z"/>
<path fill-rule="evenodd" clip-rule="evenodd" d="M20.608,40.736c0.001-0.008,0.014-0.006,0.021-0.008
	c0.034,0.051,0.091,0.078,0.119,0.135c0.056,0.025,0.122,0.07,0.186,0.104c0.076,0.039,0.16,0.057,0.18,0.143
	c0.079,0.068,0.166,0.129,0.192,0.252c-0.126,0.039-0.213-0.123-0.274-0.209C21,41.154,21,41.186,20.964,41.182
	c-0.006-0.023-0.01-0.049-0.022-0.066c-0.021-0.006-0.026,0.008-0.044,0.008c-0.074-0.055-0.135-0.121-0.163-0.223
	C20.689,40.848,20.659,40.783,20.608,40.736z"/>
<path fill-rule="evenodd" clip-rule="evenodd" d="M22.694,40.818c0,0.01-0.001,0.02,0.008,0.023
	c-0.004,0.025-0.045,0.025-0.06,0.006C22.647,40.82,22.669,40.805,22.694,40.818z"/>
<path fill-rule="evenodd" clip-rule="evenodd" d="M32.059,41.955c-0.028-0.021-0.062-0.039-0.091-0.059
	c-0.006-0.027-0.022-0.047-0.044-0.068c-0.04-0.041-0.088-0.08-0.133-0.127c-0.082-0.084-0.172-0.172-0.244-0.273
	c-0.059-0.078-0.093-0.135-0.143-0.223c-0.028-0.051-0.08-0.129-0.097-0.201c-0.015-0.066-0.003-0.172,0.067-0.162
	c0.099,0.01,0.178,0.068,0.274,0.133c0.087,0.057,0.185,0.102,0.245,0.156c0.025,0.021,0.037,0.057,0.067,0.066
	c0.033,0.057,0.065,0.109,0.097,0.164c0.033,0.059,0.051,0.121,0.081,0.178c0.029,0.055,0.08,0.115,0.127,0.17
	c0.044,0.053,0.094,0.115,0.14,0.156c0.033,0.031,0.079,0.051,0.112,0.082c0.108,0.105,0.168,0.262,0.199,0.43
	c0.067,0.119,0.049,0.303-0.118,0.215c-0.024-0.012-0.062-0.029-0.081-0.043c-0.015-0.012-0.021-0.039-0.038-0.053
	c-0.02-0.016-0.041-0.018-0.052-0.029c-0.031-0.035-0.055-0.09-0.089-0.133C32.256,42.223,32.112,42.078,32.059,41.955z"/>
<path fill-rule="evenodd" clip-rule="evenodd" d="M33.112,40.893c0.008,0,0.016,0,0.023,0c0,0.004,0,0.01,0,0.016
	c-0.008,0-0.016,0-0.023,0C33.112,40.902,33.112,40.896,33.112,40.893z"/>
<path fill-rule="evenodd" clip-rule="evenodd" d="M33.417,40.9c0.235-0.039,0.218,0.387-0.031,0.342
	c-0.058-0.01-0.118-0.08-0.125-0.133C33.245,40.994,33.316,40.918,33.417,40.9z"/>
<path fill-rule="evenodd" clip-rule="evenodd" d="M35.317,43.23c0.047,0.074,0.118,0.115,0.164,0.18
	c0.036,0.051,0.053,0.119,0.081,0.178c0.071,0.148,0.166,0.264,0.245,0.408c0.015,0.027,0.021,0.062,0.037,0.09
	c0.026,0.043,0.079,0.086,0.112,0.133s0.062,0.098,0.096,0.141c0.139,0.182,0.269,0.369,0.415,0.551
	c0.029,0.035,0.052,0.062,0.082,0.096c0.042,0.047,0.082,0.115,0.127,0.172c0.059,0.074,0.133,0.139,0.192,0.215
	c0.032,0.039,0.057,0.08,0.09,0.117c0.031,0.037,0.065,0.068,0.097,0.105c0.121,0.146,0.261,0.277,0.394,0.416
	c0.266,0.281,0.501,0.596,0.66,0.965c0.068,0.061,0.094,0.135,0.119,0.252c0.009,0.041,0.024,0.082,0.015,0.127
	c-0.116,0.18-0.292-0.066-0.394-0.135c-0.106-0.182-0.265-0.316-0.395-0.482c-0.094-0.121-0.177-0.258-0.266-0.393
	c-0.045-0.064-0.104-0.105-0.127-0.193c-0.202-0.238-0.349-0.533-0.534-0.787c-0.147-0.188-0.272-0.391-0.409-0.586
	C36.072,44.73,36.045,44.658,36,44.59c-0.023-0.037-0.056-0.064-0.082-0.104c-0.047-0.07-0.09-0.15-0.14-0.23
	c-0.069-0.107-0.146-0.223-0.224-0.334c-0.024-0.035-0.052-0.074-0.073-0.111c-0.012-0.018-0.017-0.041-0.03-0.059
	c-0.022-0.033-0.065-0.059-0.067-0.119c-0.127-0.139-0.181-0.354-0.312-0.49c-0.014-0.055-0.033-0.105-0.06-0.156
	c-0.022-0.045-0.061-0.086-0.082-0.135c-0.015-0.031-0.017-0.07-0.029-0.104c-0.015-0.039-0.042-0.076-0.059-0.119
	c-0.028-0.066-0.037-0.135-0.067-0.191c-0.009-0.018-0.014-0.035-0.022-0.053c-0.016-0.033-0.045-0.062-0.06-0.096
	c-0.027-0.064-0.021-0.141-0.045-0.209c-0.028-0.088-0.097-0.162-0.133-0.252c-0.035-0.088-0.059-0.197-0.097-0.297
	c-0.047-0.119-0.14-0.244-0.104-0.371c0.013-0.014,0.011-0.025,0.03-0.023c0.14,0.02,0.191,0.229,0.268,0.342
	c0.023,0.037,0.067,0.076,0.081,0.113c0.052,0.123,0.002,0.258,0.074,0.379c0.019,0.027,0.079,0.061,0.104,0.104
	c0.056,0.094,0.032,0.217,0.06,0.348c0.011,0.043,0.039,0.119,0.06,0.164C35.102,42.818,35.243,43.029,35.317,43.23z"/>
<path fill-rule="evenodd" clip-rule="evenodd" d="M31.108,41.234c0.083-0.016,0.167,0.023,0.185,0.096
	c0.028,0.123-0.059,0.229-0.179,0.215c-0.122-0.014-0.173-0.17-0.111-0.258C31.023,41.26,31.068,41.24,31.108,41.234z"/>
<path fill-rule="evenodd" clip-rule="evenodd" d="M36.031,41.693c-0.057-0.033-0.057-0.158,0.021-0.168
	C36.223,41.498,36.19,41.793,36.031,41.693z"/>
<path fill-rule="evenodd" clip-rule="evenodd" d="M32.207,41.584c0.006,0,0.014,0,0.021,0c0,0.008,0,0.014,0,0.021
	C32.213,41.605,32.205,41.6,32.207,41.584z"/>
<path fill-rule="evenodd" clip-rule="evenodd" d="M36.037,41.738c-0.023,0.023-0.052,0.025-0.073,0
	c-0.004-0.025,0.008-0.035,0.014-0.051C36.021,41.682,36.045,41.693,36.037,41.738z"/>
<path fill-rule="evenodd" clip-rule="evenodd" d="M32.54,41.865C32.469,41.842,32.574,41.791,32.54,41.865L32.54,41.865z"/>
<path fill-rule="evenodd" clip-rule="evenodd" d="M33.35,41.939c-0.021,0.002-0.025-0.014-0.036-0.021
	C33.305,41.822,33.423,41.908,33.35,41.939z"/>
<path fill-rule="evenodd" clip-rule="evenodd" d="M31.493,42.037c0.044-0.016,0.093-0.008,0.113,0.006
	c0.039,0.029,0.058,0.139,0.005,0.193c-0.062,0.064-0.184,0.039-0.2-0.053C31.398,42.109,31.447,42.051,31.493,42.037z"/>
<path fill-rule="evenodd" clip-rule="evenodd" d="M37.517,43.596c-0.026,0.014-0.072-0.006-0.099-0.016
	c-0.026-0.031-0.018-0.084-0.015-0.111c-0.066-0.086-0.158-0.113-0.237-0.178c-0.046-0.037-0.098-0.104-0.147-0.164
	c-0.047-0.055-0.097-0.125-0.119-0.184c-0.065-0.172,0.01-0.297,0.207-0.283c0.103,0.006,0.193,0.043,0.283,0.088
	c0.12,0.062,0.227,0.154,0.289,0.262c0.021,0.035,0.07,0.139,0.082,0.186c0.023,0.096-0.015,0.227-0.089,0.266
	c-0.024,0.014-0.069,0.002-0.104,0.031C37.537,43.516,37.548,43.561,37.517,43.596z"/>
<path fill-rule="evenodd" clip-rule="evenodd" d="M35.673,42.926c0.007,0,0.011,0,0.016,0c0,0.006,0,0.012,0,0.018
	c-0.005,0-0.009,0-0.016,0C35.673,42.938,35.673,42.932,35.673,42.926z"/>
<path fill-rule="evenodd" clip-rule="evenodd" d="M34.353,43.105c0.078-0.004,0.224,0.029,0.312,0.074
	c0.034,0.016,0.065,0.039,0.096,0.059c0.17,0.104,0.288,0.199,0.388,0.395c0.017,0.037,0.042,0.066,0.051,0.096
	c0.039,0.125,0.035,0.316-0.036,0.379c-0.008,0.006-0.023,0.002-0.031,0.008c-0.004,0.004-0.003,0.02-0.007,0.023
	c-0.126,0.09-0.335,0.057-0.49,0c-0.008-0.004-0.004-0.014-0.015-0.016c-0.112-0.035-0.22-0.143-0.297-0.238
	c-0.043-0.053-0.061-0.1-0.097-0.172c-0.04-0.084-0.11-0.201-0.118-0.34c-0.003-0.057,0.003-0.131,0.029-0.178
	C34.177,43.125,34.254,43.109,34.353,43.105z"/>
<path fill-rule="evenodd" clip-rule="evenodd" d="M31.449,43.863c0.011,0.01,0.011,0.041,0,0.051
	c-0.029,0.004-0.04-0.014-0.038-0.043C31.42,43.865,31.432,43.859,31.449,43.863z"/>
<path fill-rule="evenodd" clip-rule="evenodd" d="M25.531,43.93c0,0.01,0,0.021,0,0.029c-0.01,0.008-0.026,0.008-0.044,0.008
	C25.469,43.941,25.503,43.908,25.531,43.93z"/>
<path fill-rule="evenodd" clip-rule="evenodd" d="M38.058,44.494c0.005,0.029-0.008,0.043-0.008,0.068
	c-0.063,0.006-0.079-0.031-0.082-0.084C37.999,44.451,38.035,44.475,38.058,44.494z"/>
<path fill-rule="evenodd" clip-rule="evenodd" d="M38.584,45.072c-0.144,0.062-0.327-0.074-0.305-0.273
	C38.418,44.609,38.677,44.893,38.584,45.072z"/>
<path fill-rule="evenodd" clip-rule="evenodd" d="M38.095,44.865c0.086-0.135,0.248,0.125,0.142,0.156
	C38.174,45.039,38.087,44.93,38.095,44.865z"/>
<path fill-rule="evenodd" clip-rule="evenodd" d="M38.422,45.393c-0.013,0-0.021,0.006-0.023,0.016c-0.066,0-0.117-0.02-0.155-0.061
	c-0.036-0.039-0.079-0.137-0.066-0.186C38.216,44.998,38.534,45.227,38.422,45.393z"/>
<path fill-rule="evenodd" clip-rule="evenodd" d="M31.753,45.252c-0.006,0.023-0.03,0.027-0.059,0.029
	c-0.007-0.006-0.005-0.021-0.016-0.023C31.672,45.189,31.745,45.205,31.753,45.252z"/>
<path fill-rule="evenodd" clip-rule="evenodd" d="M26.496,45.467c0.008,0.043-0.023,0.064-0.052,0.051
	C26.423,45.482,26.456,45.441,26.496,45.467z"/>
<path fill-rule="evenodd" clip-rule="evenodd" d="M38.569,45.854c-0.008-0.002-0.013,0-0.014,0.006
	c-0.068-0.006-0.121-0.039-0.164-0.104c-0.021-0.031-0.076-0.088-0.067-0.146c0.009-0.057,0.052-0.072,0.104-0.062
	C38.496,45.562,38.636,45.75,38.569,45.854z"/>
<path fill-rule="evenodd" clip-rule="evenodd" d="M36.023,45.934c-0.066-0.004-0.111-0.037-0.111-0.088
	C35.907,45.688,36.161,45.83,36.023,45.934z"/>
<path fill-rule="evenodd" clip-rule="evenodd" d="M38.51,45.941c0.027-0.006,0.034,0.02,0.022,0.031
	C38.513,45.973,38.508,45.961,38.51,45.941z"/>
<path fill-rule="evenodd" clip-rule="evenodd" d="M39.29,47.025c0.078,0.096,0.141,0.207,0.223,0.305
	c0.039,0.049,0.09,0.09,0.126,0.143c0.127,0.17,0.285,0.32,0.491,0.422c0.04-0.029,0.026-0.096,0.073-0.111
	c0.078-0.025,0.166,0.059,0.201,0.09c0.041,0.035,0.07,0.066,0.104,0.111c0.051,0.064,0.109,0.131,0.187,0.201
	c0.057,0.051,0.122,0.119,0.169,0.146c0.031,0.02,0.079,0.027,0.119,0.045c0.036,0.018,0.069,0.041,0.105,0.059
	c0.036,0.02,0.079,0.031,0.117,0.045c0.197,0.076,0.326,0.189,0.453,0.35c0.057,0.068,0.116,0.148,0.142,0.201
	c0.02,0.039,0.038,0.113,0.03,0.148c-0.019,0.078-0.125,0.076-0.112,0.178c0.009,0.068,0.102,0.094,0.142,0.178
	c0.087,0.059,0.146,0.135,0.222,0.199c0.074,0.064,0.158,0.117,0.247,0.18c0.109,0.08,0.251,0.162,0.408,0.23
	c0.046,0.021,0.116,0.062,0.146,0.061c0.05-0.006,0.07-0.059,0.127-0.068c0.161-0.025,0.321,0.08,0.415,0.148
	c0.068,0.049,0.142,0.113,0.193,0.172c0.086,0.092,0.16,0.211,0.225,0.326c0.047,0.088,0.112,0.197,0.126,0.326
	c0.017,0.168-0.132,0.322-0.32,0.275c-0.004-0.002-0.006-0.014-0.016-0.016c-0.011-0.002-0.022,0.008-0.022,0.008
	c-0.167-0.031-0.275-0.123-0.393-0.215c-0.219-0.172-0.458-0.371-0.646-0.58c-0.08-0.088-0.163-0.168-0.238-0.252
	c-0.139-0.15-0.267-0.299-0.408-0.453c-0.092-0.098-0.204-0.193-0.289-0.312c-0.076-0.031-0.124-0.088-0.172-0.148
	c-0.099-0.059-0.186-0.129-0.267-0.207c-0.137-0.053-0.259-0.129-0.371-0.207c-0.058-0.041-0.102-0.09-0.156-0.135
	c-0.051-0.041-0.125-0.062-0.155-0.125c-0.09-0.035-0.142-0.104-0.216-0.166c-0.047-0.035-0.084-0.078-0.127-0.117
	c-0.169-0.16-0.325-0.32-0.489-0.49c-0.04-0.041-0.083-0.08-0.127-0.119c-0.041-0.037-0.075-0.082-0.126-0.111
	c-0.062-0.102-0.158-0.166-0.215-0.275c-0.101-0.084-0.178-0.209-0.26-0.324c-0.11-0.158-0.215-0.312-0.305-0.498
	c-0.044-0.092-0.088-0.191-0.111-0.289c-0.009-0.037-0.004-0.076-0.016-0.111c-0.018-0.064-0.082-0.137-0.022-0.209
	c0.098-0.021,0.163,0.078,0.217,0.17c0.109,0.189,0.245,0.316,0.363,0.506c0.023,0.037,0.054,0.064,0.074,0.096
	c0.024,0.035,0.035,0.084,0.06,0.119C39.244,46.963,39.281,46.984,39.29,47.025z"/>
<path fill-rule="evenodd" clip-rule="evenodd" d="M32.711,46.729c-0.027-0.07-0.077-0.127-0.119-0.186
	c-0.041-0.059-0.073-0.121-0.118-0.178c-0.021-0.084-0.055-0.152-0.06-0.252c0.08-0.105,0.266,0.064,0.318,0.133
	c0.009,0.051,0.064,0.125,0.091,0.186c0.009,0.023,0.02,0.09,0.036,0.127c0.034,0.076,0.135,0.264,0.036,0.297
	C32.814,46.883,32.763,46.742,32.711,46.729z"/>
<path fill-rule="evenodd" clip-rule="evenodd" d="M36.053,46.098c0.028-0.006,0.028,0.035,0,0.029
	C36.04,46.113,36.053,46.117,36.053,46.098z"/>
<path fill-rule="evenodd" clip-rule="evenodd" d="M26.705,46.32c0.071-0.004,0.121,0.113,0.021,0.127
	C26.662,46.455,26.569,46.328,26.705,46.32z"/>
<path fill-rule="evenodd" clip-rule="evenodd" d="M37.196,46.588c-0.14,0.154-0.394-0.076-0.291-0.223
	c0.022-0.029,0.064-0.043,0.098-0.045C37.134,46.316,37.212,46.461,37.196,46.588z"/>
<path fill-rule="evenodd" clip-rule="evenodd" d="M37.463,48.088c-0.095-0.004-0.145-0.039-0.214-0.09
	c-0.238-0.17-0.337-0.484-0.528-0.711c-0.021-0.027-0.037-0.057-0.06-0.084c-0.038-0.045-0.08-0.092-0.127-0.141
	c-0.009-0.012-0.025-0.016-0.036-0.029c-0.011-0.012-0.013-0.033-0.022-0.045c-0.013-0.014-0.029-0.016-0.045-0.029
	c-0.031-0.029-0.061-0.07-0.096-0.104c-0.09-0.084-0.252-0.205-0.245-0.357c0.05-0.076,0.173,0.076,0.208,0.127
	c0.052,0.07,0.088,0.146,0.126,0.201c0.05,0.068,0.1,0.125,0.148,0.178c0.057,0.061,0.118,0.107,0.155,0.17
	c0.092,0.051,0.18,0.135,0.297,0.201c0.126,0.068,0.251,0.113,0.335,0.223c0.041,0.055,0.129,0.141,0.157,0.215
	C37.548,47.906,37.554,48.059,37.463,48.088z"/>
<path fill-rule="evenodd" clip-rule="evenodd" d="M40.1,47.621c-0.092-0.008-0.268-0.146-0.23-0.262
	c0.02-0.057,0.104-0.043,0.148-0.008c0.019,0.016,0.089,0.127,0.096,0.164C40.123,47.555,40.12,47.598,40.1,47.621z"/>
<path fill-rule="evenodd" clip-rule="evenodd" d="M35.547,47.68c0.005,0.027-0.002,0.047-0.014,0.059
	C35.427,47.752,35.489,47.602,35.547,47.68z"/>
<path fill-rule="evenodd" clip-rule="evenodd" d="M34.843,47.775c0.022-0.021,0.058,0.006,0.082,0.008
	c0.106,0.129-0.121,0.184-0.112,0.016C34.823,47.791,34.827,47.777,34.843,47.775z"/>
<path fill-rule="evenodd" clip-rule="evenodd" d="M27.795,48.186c0.009,0,0.016,0,0.023,0c0,0.006,0,0.014,0,0.02
	C27.801,48.207,27.794,48.199,27.795,48.186z"/>
<path fill-rule="evenodd" clip-rule="evenodd" d="M33.602,48.541c0.098-0.062,0.185,0.076,0.23,0.162
	c0.014,0.025,0.032,0.057,0.037,0.074c0.018,0.057,0.034,0.17-0.021,0.186c-0.04,0.012-0.095-0.031-0.119-0.059
	c-0.044-0.049-0.109-0.176-0.127-0.23C33.589,48.625,33.59,48.588,33.602,48.541z"/>
<path fill-rule="evenodd" clip-rule="evenodd" d="M36.053,48.557c0.152-0.068,0.182,0.174,0.082,0.191
	C36.048,48.764,35.942,48.604,36.053,48.557z"/>
<path fill-rule="evenodd" clip-rule="evenodd" d="M34.084,49.299c-0.113-0.014-0.147-0.105-0.162-0.217
	c0.014-0.004,0.017-0.021,0.029-0.029C34.042,49.082,34.123,49.209,34.084,49.299z"/>
<path fill-rule="evenodd" clip-rule="evenodd" d="M38.51,49.113c0.04-0.012,0.054-0.002,0.09,0.029
	c0.021,0.018,0.153,0.168,0.06,0.223c-0.066,0.037-0.215-0.072-0.208-0.178C38.453,49.148,38.471,49.123,38.51,49.113z"/>
<path fill-rule="evenodd" clip-rule="evenodd" d="M29.043,49.268c0.086-0.033,0.101,0.111,0.03,0.119
	C29.028,49.393,28.955,49.303,29.043,49.268z"/>
<path fill-rule="evenodd" clip-rule="evenodd" d="M34.196,49.445c0.033,0,0.042,0.023,0.046,0.053
	C34.203,49.504,34.193,49.482,34.196,49.445z"/>
<path fill-rule="evenodd" clip-rule="evenodd" d="M34.338,49.654c0.1,0.027,0.223,0.174,0.296,0.268
	c0.082,0.104,0.158,0.215,0.237,0.318c0.214,0.277,0.412,0.584,0.596,0.893c0.022,0.037,0.053,0.068,0.08,0.102
	c0.052,0.064,0.095,0.125,0.142,0.203c0.06,0.096,0.114,0.199,0.178,0.297c0.034,0.047,0.078,0.088,0.111,0.133
	c0.036,0.049,0.065,0.098,0.098,0.148c0.091,0.146,0.213,0.273,0.319,0.408c0.085,0.107,0.19,0.217,0.305,0.305
	c0.021,0.018,0.054,0.025,0.074,0.043c0.06,0.057,0.117,0.133,0.178,0.201c0.058,0.066,0.109,0.148,0.155,0.223
	c0.019,0.029,0.032,0.068,0.044,0.09c0.045,0.074,0.103,0.182,0.158,0.268c0.026,0.045,0.062,0.078,0.073,0.111
	c0.013,0.039,0.005,0.076,0.008,0.111c0.002,0.031,0.021,0.066,0,0.111c-0.019,0.021-0.03,0.051-0.053,0.066
	c-0.135,0.018-0.245-0.086-0.318-0.17c-0.027-0.031-0.052-0.068-0.075-0.098c-0.05-0.062-0.11-0.113-0.164-0.172
	c-0.031-0.033-0.059-0.082-0.088-0.125c-0.084-0.111-0.181-0.234-0.261-0.363c-0.104-0.17-0.217-0.336-0.333-0.498
	c-0.115-0.162-0.221-0.332-0.342-0.49c-0.092-0.119-0.163-0.248-0.261-0.363c-0.03-0.037-0.07-0.066-0.104-0.104
	c-0.058-0.066-0.099-0.152-0.148-0.23c-0.048-0.074-0.096-0.152-0.148-0.223c-0.052-0.072-0.108-0.143-0.156-0.215
	c-0.022-0.035-0.027-0.057-0.052-0.09c-0.132-0.178-0.265-0.395-0.371-0.607c-0.085-0.17-0.193-0.34-0.207-0.535
	C34.318,49.666,34.327,49.658,34.338,49.654z"/>
<path fill-rule="evenodd" clip-rule="evenodd" d="M36.818,49.662c0.069-0.023,0.14,0.014,0.162,0.053
	c0.06,0.092,0.021,0.234-0.052,0.244C36.814,49.975,36.653,49.717,36.818,49.662z"/>
<path fill-rule="evenodd" clip-rule="evenodd" d="M29.43,50.688c-0.061,0-0.065-0.031-0.098-0.084
	c-0.02-0.033-0.101-0.152-0.006-0.17C29.399,50.42,29.524,50.621,29.43,50.688z"/>
<path fill-rule="evenodd" clip-rule="evenodd" d="M36.699,51.34c-0.062,0.018-0.138-0.041-0.187-0.082
	c-0.039-0.031-0.067-0.078-0.11-0.119c-0.03-0.027-0.069-0.049-0.09-0.072c-0.055-0.072-0.124-0.242-0.015-0.283
	c0.009-0.033-0.04-0.049-0.06-0.074c-0.007-0.008-0.005-0.031-0.016-0.045c-0.018-0.027-0.058-0.055-0.028-0.119
	c0.004,0,0.009,0,0.015,0c0.132,0.006,0.19,0.15,0.253,0.252c-0.005,0.033,0.009,0.037,0,0.059c0.066,0.092,0.161,0.158,0.191,0.283
	C36.693,51.188,36.758,51.281,36.699,51.34z"/>
<path fill-rule="evenodd" clip-rule="evenodd" d="M39.029,50.582c0.05,0.01,0.068,0.043,0.104,0.09
	c0.041,0.053,0.112,0.127,0.105,0.207c-0.062,0.002-0.071-0.049-0.113-0.066C39.104,50.73,39.021,50.672,39.029,50.582z"/>
<path fill-rule="evenodd" clip-rule="evenodd" d="M29.846,51.348c-0.115,0-0.193-0.152-0.127-0.238
	C29.811,51.133,29.885,51.244,29.846,51.348z"/>
<path fill-rule="evenodd" clip-rule="evenodd" d="M41.39,52.029c0.051-0.023,0.093-0.055,0.136-0.088
	c0.038-0.031,0.082-0.072,0.125-0.09c0.116-0.043,0.267-0.008,0.365,0.074c0.017,0.016,0.035,0.055,0.06,0.082
	c0.022,0.029,0.05,0.049,0.066,0.074c0.064,0.109,0.127,0.295,0.096,0.477c-0.017,0.096-0.102,0.209-0.208,0.244
	c-0.055,0.018-0.218,0.027-0.289,0.021c-0.041-0.004-0.082-0.023-0.126-0.029c-0.041-0.006-0.079-0.006-0.119-0.014
	c-0.078-0.018-0.148-0.047-0.223-0.076c-0.112-0.043-0.218-0.082-0.318-0.133c-0.034-0.016-0.073-0.025-0.091-0.059
	c-0.074-0.018-0.125-0.084-0.186-0.119c-0.032-0.02-0.064-0.031-0.096-0.053c-0.082-0.057-0.168-0.129-0.244-0.207
	c-0.051-0.051-0.11-0.09-0.157-0.141c-0.031-0.037-0.055-0.078-0.088-0.111c-0.03-0.031-0.073-0.057-0.105-0.09
	c-0.066-0.074-0.097-0.188-0.191-0.238c0.029-0.027-0.027-0.109,0.014-0.148c0.072-0.043,0.213,0.014,0.283,0.045
	c0.072,0.031,0.124,0.068,0.192,0.104c0.043,0.023,0.089,0.066,0.133,0.098c0.021,0.012,0.046,0.016,0.067,0.029
	c0.048,0.031,0.107,0.084,0.164,0.119c0.075,0.047,0.169,0.082,0.253,0.125C41.062,52.012,41.192,52.051,41.39,52.029z"/>
<path fill-rule="evenodd" clip-rule="evenodd" d="M36.476,51.451c0.113-0.004,0.128,0.09,0.192,0.135
	c0.006,0.066,0.08,0.102,0.053,0.178c-0.056,0.025-0.083-0.037-0.133-0.039C36.556,51.637,36.41,51.564,36.476,51.451z"/>
<path fill-rule="evenodd" clip-rule="evenodd" d="M36.045,51.621c0.076,0.018,0.101,0.084,0.104,0.172
	C36.069,51.785,36.026,51.703,36.045,51.621z"/>
<path fill-rule="evenodd" clip-rule="evenodd" d="M41.08,56.916c-0.06,0.031-0.098-0.021-0.148-0.021
	c-0.2-0.178-0.415-0.348-0.609-0.535c-0.065-0.062-0.122-0.127-0.186-0.193c-0.062-0.064-0.126-0.121-0.186-0.186
	s-0.111-0.137-0.171-0.199c-0.35-0.377-0.708-0.76-1.069-1.137c-0.091-0.096-0.179-0.189-0.269-0.289
	c-0.014-0.018-0.028-0.039-0.044-0.053c-0.016-0.016-0.036-0.021-0.052-0.037c-0.062-0.061-0.112-0.135-0.17-0.201
	c-0.029-0.031-0.069-0.057-0.098-0.088c-0.084-0.096-0.171-0.188-0.259-0.291c-0.11-0.129-0.241-0.248-0.357-0.377
	c-0.083-0.094-0.191-0.15-0.237-0.283c-0.098-0.078-0.177-0.195-0.267-0.312c-0.062-0.08-0.139-0.146-0.209-0.223
	c-0.062-0.068-0.107-0.139-0.162-0.244c-0.05-0.094-0.093-0.174-0.06-0.283c-0.031-0.072-0.096-0.162-0.046-0.252
	c0.165-0.014,0.248,0.188,0.327,0.318c0.005,0.01,0.017,0.014,0.023,0.023c0.001,0.006-0.004,0.02,0,0.021
	c0.008,0.01,0.033,0.027,0.044,0.045c0.035,0.062,0.056,0.156,0.096,0.215c0.024,0.035,0.054,0.068,0.083,0.105
	c0.134,0.164,0.278,0.34,0.431,0.496c0.06,0.064,0.109,0.133,0.162,0.201c0.03,0.037,0.069,0.072,0.105,0.111
	c0.033,0.039,0.061,0.082,0.096,0.119c0.018,0.018,0.042,0.031,0.059,0.051c0.018,0.021,0.027,0.043,0.044,0.061
	c0.166,0.176,0.339,0.373,0.514,0.549c0.284,0.285,0.569,0.57,0.846,0.854c0.144,0.146,0.288,0.287,0.431,0.424
	c0.075,0.07,0.159,0.129,0.231,0.201c0.117,0.115,0.247,0.215,0.371,0.328c0.008,0.006,0.002,0.006,0.014,0.014
	c0.018,0.008,0.049,0.039,0.067,0.059c0.173,0.172,0.318,0.391,0.477,0.588c0.015,0.02,0.026,0.037,0.044,0.059
	c0.015,0.018,0.038,0.033,0.052,0.051c0.009,0.014,0.012,0.037,0.022,0.053c0.011,0.018,0.028,0.021,0.036,0.037
	c0.016,0.031,0.029,0.082,0.038,0.119C41.104,56.848,41.121,56.877,41.08,56.916z"/>
<path fill-rule="evenodd" clip-rule="evenodd" d="M30.366,51.955c-0.078,0.027-0.142-0.076-0.119-0.139
	c0.022-0.07,0.099-0.027,0.14,0.021C30.396,51.887,30.398,51.932,30.366,51.955z"/>
<path fill-rule="evenodd" clip-rule="evenodd" d="M43.329,53.508c0.003,0.018-0.002,0.029-0.008,0.037
	C43.294,53.537,43.298,53.51,43.329,53.508z"/>
<path fill-rule="evenodd" clip-rule="evenodd" d="M44.956,54.777c-0.106,0.016-0.175-0.09-0.244-0.156
	c-0.073-0.062-0.158-0.121-0.225-0.186c-0.062-0.059-0.136-0.137-0.134-0.23c0-0.008,0.002-0.014,0.008-0.014
	c0.057-0.018,0.136,0.084,0.178,0.133c0.042,0.053,0.097,0.107,0.156,0.156c0.057,0.047,0.112,0.094,0.171,0.141
	C44.915,54.66,44.965,54.701,44.956,54.777z"/>
<path fill-rule="evenodd" clip-rule="evenodd" d="M39.832,55.074c-0.087,0.051-0.164-0.062-0.222-0.109
	c-0.025-0.02-0.059-0.027-0.075-0.047c-0.026-0.025-0.05-0.072-0.082-0.111c-0.061-0.074-0.1-0.141-0.142-0.244
	c-0.03-0.078-0.091-0.195-0.029-0.289c0.026-0.039,0.081-0.059,0.148-0.037c0.055,0.016,0.158,0.123,0.2,0.178
	c0.024,0.031,0.056,0.08,0.075,0.119c0.011,0.021,0.013,0.053,0.023,0.074c0.025,0.055,0.076,0.145,0.096,0.223
	C39.846,54.912,39.851,55.008,39.832,55.074z"/>
<path fill-rule="evenodd" clip-rule="evenodd" d="M37.73,54.258c0.057,0,0.057,0.053,0.074,0.09
	C37.755,54.393,37.714,54.301,37.73,54.258z"/>
<path fill-rule="evenodd" clip-rule="evenodd" d="M40.248,56.508c0.161-0.021,0.3,0.133,0.387,0.23
	c0.112,0.129,0.208,0.262,0.312,0.408c0.077,0.111,0.143,0.207,0.208,0.334c0.057,0.111,0.129,0.234,0.187,0.35
	c0.039,0.084,0.07,0.17,0.11,0.252c0.038,0.084,0.095,0.16,0.104,0.252c0.081,0.084,0.096,0.184,0.142,0.275
	c0.013,0.025,0.035,0.047,0.052,0.074c0.044,0.072,0.08,0.154,0.126,0.23c0.056,0.094,0.142,0.184,0.215,0.266
	c0.066,0.076,0.128,0.152,0.208,0.217c0.014,0.01,0.02,0.021,0.031,0.029c0.083,0.068,0.194,0.107,0.289,0.186
	c0.096,0.08,0.191,0.242,0.258,0.371c0.029,0.053,0.043,0.111,0.069,0.186c0.023,0.078,0.062,0.186-0.01,0.238
	c-0.093,0.07-0.229-0.07-0.304-0.127c-0.046-0.035-0.086-0.057-0.117-0.088c-0.096-0.094-0.192-0.229-0.283-0.328
	c-0.137-0.146-0.229-0.299-0.349-0.459c-0.058-0.076-0.125-0.143-0.186-0.217c-0.077-0.09-0.149-0.189-0.224-0.289
	c-0.014-0.02-0.022-0.041-0.037-0.059c-0.029-0.039-0.077-0.059-0.104-0.098c-0.023-0.033-0.034-0.076-0.06-0.111
	c-0.021-0.027-0.051-0.045-0.074-0.074c-0.058-0.07-0.101-0.162-0.157-0.244c-0.053-0.078-0.118-0.15-0.17-0.23
	s-0.099-0.164-0.154-0.244c-0.029-0.041-0.051-0.082-0.075-0.127c-0.023-0.043-0.056-0.078-0.082-0.119
	c-0.041-0.066-0.076-0.156-0.119-0.238c-0.059-0.113-0.104-0.213-0.155-0.34c-0.032-0.08-0.073-0.219-0.082-0.32
	C40.195,56.613,40.208,56.559,40.248,56.508z"/>
<path fill-rule="evenodd" clip-rule="evenodd" d="M25.523,60.412c-0.024,0.014-0.071-0.016-0.119-0.006
	C25.428,60.373,25.499,60.4,25.523,60.412z"/>
<path fill-rule="evenodd" clip-rule="evenodd" d="M26.296,23.904c-0.026,0.014-0.036-0.053-0.053-0.075
	c-0.028-0.042-0.057-0.111-0.088-0.163c-0.021-0.032-0.03-0.05-0.053-0.097c-0.009-0.02-0.013-0.043-0.021-0.06
	c-0.021-0.036-0.059-0.062-0.075-0.096c-0.011-0.025-0.013-0.058-0.021-0.083c-0.011-0.024-0.032-0.041-0.045-0.066
	c-0.045-0.084-0.072-0.182-0.119-0.26c-0.024-0.042-0.06-0.071-0.08-0.112c0.015-0.102-0.076-0.145-0.105-0.214
	c-0.011-0.028-0.005-0.063-0.014-0.09c-0.008-0.021-0.025-0.05-0.038-0.075c-0.035-0.07-0.084-0.142-0.127-0.207
	c-0.021-0.155-0.094-0.257-0.162-0.364c-0.024-0.112-0.078-0.195-0.111-0.297c-0.057-0.096-0.093-0.203-0.142-0.304
	c-0.011-0.021-0.013-0.045-0.022-0.068c-0.017-0.037-0.051-0.073-0.067-0.111c-0.014-0.034-0.015-0.072-0.029-0.104
	c-0.013-0.032-0.032-0.058-0.044-0.089c-0.014-0.032-0.021-0.066-0.038-0.097c-0.014-0.025-0.037-0.046-0.052-0.075
	c-0.009-0.018-0.006-0.046-0.015-0.066c-0.017-0.041-0.051-0.078-0.067-0.119c-0.022-0.061-0.033-0.137-0.06-0.193
	c-0.007-0.018-0.03-0.035-0.036-0.052s0-0.035-0.008-0.052c-0.011-0.026-0.032-0.047-0.044-0.075
	c-0.023-0.053-0.02-0.116-0.074-0.147c-0.016-0.106-0.067-0.176-0.111-0.252c0.008-0.113-0.081-0.203-0.119-0.328
	c-0.006-0.018-0.001-0.041-0.007-0.059c-0.008-0.023-0.027-0.042-0.038-0.067c-0.015-0.037-0.016-0.083-0.029-0.119
	c-0.019-0.045-0.041-0.085-0.06-0.141c-0.013-0.045-0.024-0.071-0.051-0.104c-0.011-0.062-0.037-0.116-0.06-0.17
	c-0.008-0.016-0.026-0.03-0.031-0.045c-0.022-0.066-0.022-0.14-0.074-0.186c0.002-0.063-0.028-0.121-0.052-0.171
	c-0.036-0.083-0.053-0.167-0.104-0.237c-0.006-0.043-0.012-0.082-0.03-0.119c-0.014-0.032-0.045-0.053-0.06-0.082
	c-0.031-0.065-0.047-0.139-0.073-0.208c-0.028-0.071-0.08-0.13-0.089-0.23c-0.036-0.093-0.096-0.176-0.134-0.267
	c-0.019-0.042-0.018-0.103-0.053-0.134c-0.021-0.018-0.033-0.085-0.051-0.126c-0.018-0.038-0.051-0.073-0.068-0.111
	c-0.011-0.027-0.018-0.065-0.029-0.096c-0.011-0.03-0.026-0.061-0.036-0.089c-0.012-0.032-0.012-0.071-0.023-0.104
	c-0.011-0.031-0.025-0.059-0.037-0.089c-0.044-0.124-0.075-0.253-0.111-0.386c-0.036-0.044-0.048-0.12-0.074-0.193
	c-0.014-0.042-0.04-0.079-0.052-0.119c-0.015-0.047-0.02-0.097-0.037-0.148c-0.016-0.047-0.037-0.091-0.037-0.141
	c-0.008-0.025-0.024-0.039-0.036-0.06c-0.008-0.112-0.05-0.187-0.09-0.268c-0.003-0.073-0.032-0.121-0.045-0.186
	c-0.042-0.068-0.089-0.172-0.089-0.259c-0.041-0.096-0.07-0.199-0.104-0.297c-0.017-0.047-0.041-0.091-0.059-0.14
	c-0.019-0.048-0.024-0.104-0.044-0.149c-0.014-0.03-0.038-0.058-0.053-0.089c-0.056-0.121-0.11-0.249-0.178-0.363
	c-0.07-0.049-0.1-0.132-0.155-0.2c-0.019-0.023-0.044-0.037-0.059-0.06c-0.03-0.045-0.052-0.102-0.083-0.149
	c-0.083-0.126-0.193-0.265-0.223-0.446c-0.083-0.111-0.098-0.344-0.038-0.475c0.058-0.122,0.196-0.191,0.364-0.111
	c0.05,0.024,0.096,0.068,0.149,0.119c0.068,0.067,0.118,0.158,0.17,0.252c0.034,0.063,0.079,0.126,0.089,0.163
	c0.013,0.044-0.003,0.074,0.023,0.119c0.004,0.011,0.024,0.017,0.028,0.03c0.01,0.024,0.014,0.069,0.023,0.104
	c0.014,0.061,0.024,0.139,0.021,0.237c-0.001,0.053-0.007,0.097-0.007,0.171c0.003,0.164-0.023,0.364,0,0.52
	c0.005,0.021,0.019,0.044,0.023,0.067c0.007,0.035,0,0.075,0.007,0.104c0.011,0.038,0.034,0.074,0.044,0.111
	c0.034,0.116,0.062,0.24,0.118,0.334c0,0.023,0,0.044,0,0.067c0.026,0.071,0.075,0.125,0.09,0.201c0.006,0.032,0,0.07,0.008,0.103
	c0.011,0.042,0.035,0.07,0.052,0.127c0.009,0.033,0.03,0.069,0.044,0.111c0.019,0.053,0.02,0.114,0.038,0.164
	c0.013,0.033,0.04,0.059,0.052,0.089c0.01,0.024,0.006,0.055,0.016,0.083c0.006,0.021,0.024,0.037,0.028,0.059
	c0.006,0.024,0,0.054,0.008,0.081c0.01,0.037,0.04,0.068,0.052,0.105c0.014,0.038,0.01,0.083,0.031,0.126
	c0.004,0.009,0.018,0.012,0.021,0.021c0.008,0.021,0.006,0.046,0.016,0.067c0.012,0.028,0.04,0.053,0.051,0.083
	c0.018,0.038,0.021,0.089,0.037,0.133c0.016,0.042,0.031,0.085,0.046,0.126c0.025,0.066,0.056,0.124,0.088,0.201
	c0.011,0.025,0.019,0.057,0.031,0.082c0.04,0.088,0.089,0.136,0.074,0.245c0.019,0.038,0.039,0.079,0.06,0.119
	c0.018,0.04,0.047,0.081,0.059,0.119c0.008,0.028,0,0.059,0.008,0.089c0.03,0.146,0.112,0.28,0.14,0.423
	c0.024,0.032,0.037,0.07,0.052,0.111c0.016,0.037,0.04,0.073,0.054,0.111c0.017,0.054,0.015,0.109,0.037,0.164
	c0.018,0.048,0.042,0.092,0.066,0.133c0,0.017,0,0.034,0,0.053c0.021,0.035,0.039,0.074,0.044,0.126
	c0.05,0.093,0.087,0.198,0.126,0.304c0.038,0.103,0.074,0.213,0.135,0.297c-0.003,0.073,0.05,0.123,0.074,0.186
	c0.012,0.034,0.011,0.072,0.021,0.104c0.011,0.026,0.025,0.048,0.038,0.075c0.03,0.068,0.058,0.147,0.111,0.201
	c0.007,0.067,0.018,0.131,0.044,0.178c0.018,0.031,0.045,0.048,0.066,0.074c0.021,0.043,0.01,0.094,0.023,0.134
	c0.013,0.038,0.05,0.062,0.066,0.097c0.032,0.07,0.027,0.152,0.081,0.208c0.002,0.053,0.027,0.094,0.061,0.134
	c-0.005,0.077,0.039,0.125,0.065,0.185c0.019,0.04,0.027,0.084,0.046,0.126c0.007,0.019,0.021,0.034,0.028,0.053
	c0.019,0.043,0.026,0.086,0.044,0.125c0.01,0.021,0.016,0.04,0.023,0.059c0.02,0.045,0.058,0.082,0.074,0.126
	c0.01,0.023,0.008,0.053,0.016,0.074c0.019,0.055,0.049,0.107,0.081,0.164c0.023,0.043,0.038,0.122,0.066,0.179
	c0.011,0.018,0.029,0.025,0.038,0.044c0.008,0.015,0,0.035,0.008,0.052c0.009,0.024,0.032,0.042,0.044,0.066
	c0.022,0.05,0.037,0.11,0.074,0.17c0.018,0.029,0.024,0.069,0.044,0.111c0.019,0.038,0.049,0.067,0.067,0.12
	c0.021,0.063,0.043,0.13,0.074,0.192c0.064,0.023,0.066,0.113,0.096,0.186c0.027,0.065,0.083,0.118,0.083,0.185
	c0.025,0.024,0.044,0.056,0.067,0.083c-0.008,0.03,0.015,0.05,0,0.067c0.04,0.067,0.075,0.141,0.103,0.222
	c0.035,0.038,0.054,0.086,0.074,0.134c0.04,0.088,0.078,0.187,0.127,0.282c0.021,0.043,0.053,0.083,0.075,0.126
	c0.026,0.059,0.029,0.141,0.087,0.186c-0.006,0.022-0.006,0.023,0,0.045C26.24,23.781,26.271,23.84,26.296,23.904z"/>
<path fill-rule="evenodd" clip-rule="evenodd" d="M23.347,26.05c-0.015,0.019,0.019,0.052,0.047,0.052
	c-0.013,0.06,0.045,0.1,0.066,0.148c0.016,0.039,0.029,0.084,0.044,0.127c0.016,0.042,0.029,0.084,0.044,0.126
	c0.032,0.083,0.056,0.167,0.09,0.245c0.011,0.023,0.033,0.043,0.044,0.066c0.015,0.029,0.019,0.066,0.03,0.097
	c0.031,0.083,0.073,0.178,0.111,0.268c0.024,0.058,0.045,0.122,0.075,0.179c0.042,0.081,0.09,0.156,0.133,0.252
	c0.01,0.023,0.015,0.043,0.029,0.066c0.03,0.049,0.068,0.129,0.097,0.193c0.077,0.178,0.17,0.343,0.252,0.527
	c0.021,0.047,0.037,0.087,0.06,0.141c0.028,0.062,0.061,0.15,0.09,0.23c0.021,0.062,0.061,0.117,0.081,0.178
	c0.036,0.103,0.056,0.213,0.09,0.319c0.031,0.104,0.073,0.203,0.089,0.312c0.035,0.052,0.04,0.115,0.06,0.17
	c0.021,0.054,0.051,0.103,0.067,0.156c0.017,0.059,0.021,0.124,0.044,0.179c0.03,0.076,0.079,0.152,0.119,0.23
	c0.039,0.077,0.069,0.163,0.11,0.236c0.019,0.034,0.044,0.062,0.067,0.098c0.047,0.07,0.081,0.135,0.142,0.199
	c0.014,0.017,0.03,0.029,0.044,0.046c0.115,0.134,0.224,0.3,0.319,0.468c0.062,0.106,0.13,0.176,0.179,0.297
	c0.012,0.029,0.028,0.062,0.036,0.09c0.011,0.035,0.019,0.089,0.015,0.103c-0.009,0.04-0.042,0.032-0.059,0.067
	c-0.008,0.062,0.041,0.107,0.066,0.155c0.04,0.073,0.07,0.154,0.104,0.23c0.034,0.075,0.058,0.157,0.104,0.23
	c-0.002,0.03,0.01,0.028,0,0.052c0.103,0.119,0.228,0.216,0.208,0.438c-0.043,0.028-0.087,0.03-0.096,0.081
	c-0.009,0.041,0.071,0.166,0.096,0.223c0.039,0.092,0.069,0.176,0.11,0.215c0.025,0.104,0.08,0.199,0.119,0.291
	c0.041,0.09,0.085,0.176,0.126,0.267c0.027,0.06,0.043,0.125,0.09,0.171c0.029,0.107,0.076,0.211,0.127,0.312
	c0.049,0.096,0.093,0.197,0.142,0.296c0.047,0.099,0.099,0.196,0.14,0.298c0.021,0.051,0.035,0.105,0.06,0.156
	c0.09,0.182,0.186,0.398,0.282,0.586c0.073,0.143,0.131,0.297,0.207,0.445c0.05,0.094,0.089,0.195,0.149,0.283
	c0.017,0.064,0.042,0.121,0.082,0.162c0.02,0.092,0.062,0.17,0.104,0.254c0.034,0.068,0.059,0.154,0.118,0.223
	c0.024,0.117,0.092,0.213,0.141,0.311c0.027,0.059,0.05,0.125,0.082,0.186c0.021,0.039,0.051,0.072,0.066,0.111
	c0.018,0.045,0.023,0.086,0.046,0.127c0.03,0.057,0.08,0.107,0.088,0.193c0.07,0.104,0.116,0.223,0.178,0.34
	c0.02,0.035,0.052,0.068,0.067,0.104c0.012,0.027,0.012,0.057,0.022,0.084c0.037,0.09,0.091,0.172,0.134,0.26
	c0.016,0.029,0.022,0.078,0.045,0.111c0.008,0.01,0.016,0.01,0.022,0.021c0.011,0.023,0.008,0.051,0.021,0.074
	c0.011,0.02,0.035,0.031,0.046,0.053c0.03,0.061,0.036,0.131,0.08,0.193c0.083,0.115,0.147,0.271,0.201,0.414
	c0.09,0.053,0.083,0.205,0.162,0.268c0.002,0.064,0.033,0.105,0.06,0.156c0.014,0.025,0.024,0.057,0.038,0.082
	c0.045,0.082,0.093,0.141,0.134,0.238c0.029,0.07,0.054,0.135,0.112,0.186c0.008,0.131,0.103,0.178,0.125,0.297
	c0.038,0.047,0.075,0.098,0.089,0.17c0.036,0.029,0.045,0.084,0.082,0.111c0,0.029,0.006,0.059,0.015,0.082
	c0.016,0.043,0.051,0.061,0.075,0.096c0.009,0.016,0.011,0.039,0.021,0.061c0.025,0.043,0.06,0.105,0.06,0.17
	c0.05,0.049,0.059,0.129,0.096,0.188c0.023,0.031,0.054,0.051,0.075,0.08c0.014,0.17,0.13,0.238,0.164,0.387
	c0.04,0.037,0.071,0.086,0.104,0.133c0,0.02,0,0.039,0,0.059c0.037,0.035,0.045,0.1,0.088,0.127
	c-0.002,0.061,0.041,0.074,0.045,0.127c0.037,0.02,0.025,0.088,0.075,0.096c0.003,0.068,0.058,0.105,0.088,0.164
	c0.021,0.041,0.03,0.088,0.052,0.135c0.02,0.037,0.047,0.078,0.067,0.117c0.028,0.059,0.058,0.125,0.09,0.186
	c0.027,0.053,0.057,0.09,0.103,0.127c0,0.023,0.013,0.037,0.008,0.066c0.124,0.148,0.16,0.385,0.29,0.527
	c0.012,0.035,0.025,0.074,0.045,0.104c0.012,0.021,0.032,0.033,0.044,0.051c0.011,0.018,0.027,0.057,0.036,0.076
	c0.025,0.047,0.042,0.082,0.067,0.127c0.031,0.051,0.032,0.088,0.075,0.125c0.021,0.064,0.039,0.129,0.088,0.164
	c0.044,0.115,0.098,0.213,0.18,0.305c0.035,0.174,0.161,0.258,0.215,0.416c0.034,0.049,0.085,0.082,0.089,0.162
	c0.015,0.023,0.031,0.043,0.053,0.061c0.033,0.131,0.1,0.23,0.17,0.326c-0.001,0.023,0.014,0.031,0.008,0.059
	c0.026,0.018,0.041,0.043,0.067,0.061c0.013,0.076,0.061,0.129,0.096,0.199c0.043,0.088,0.071,0.166,0.142,0.223
	c0.006,0.084,0.077,0.102,0.073,0.195c0.122,0.135,0.191,0.324,0.306,0.467c-0.002,0.035,0.017,0.053,0.021,0.082
	c0.004,0.029,0.036,0.033,0.053,0.051c0.002,0.055,0.039,0.09,0.066,0.135c0.025,0.041,0.042,0.09,0.065,0.133
	c0.011,0.018,0.027,0.029,0.038,0.045s0.013,0.035,0.021,0.051c0.02,0.033,0.044,0.059,0.061,0.09
	c0.018,0.033,0.026,0.074,0.045,0.104c0.018,0.033,0.05,0.053,0.066,0.082c0.019,0.033,0.021,0.072,0.044,0.104
	c0.016,0.023,0.034,0.045,0.06,0.061c0.002,0.068,0.062,0.104,0.091,0.154c0.03,0.055,0.043,0.117,0.072,0.172
	c0.035,0.062,0.076,0.139,0.126,0.186c0.052,0.049,0.069,0.115,0.112,0.193c0.039,0.072,0.119,0.141,0.133,0.244
	c0.036,0.025,0.055,0.064,0.067,0.111c0.057,0.049,0.081,0.123,0.118,0.188c0.04,0.061,0.09,0.111,0.119,0.178
	c0.012,0.023,0.012,0.051,0.022,0.072c0.024,0.051,0.069,0.096,0.098,0.143c0.021,0.037,0.044,0.072,0.065,0.111
	c0.06,0.107,0.129,0.223,0.2,0.326c0.089,0.189,0.189,0.367,0.305,0.527c0.039,0.111,0.107,0.197,0.142,0.312
	c-0.058-0.045-0.087-0.115-0.134-0.18c-0.016-0.02-0.04-0.031-0.052-0.051c-0.033-0.057-0.049-0.115-0.082-0.172
	c-0.03-0.051-0.066-0.096-0.104-0.148c-0.035-0.051-0.058-0.109-0.09-0.162c-0.028-0.053-0.069-0.098-0.088-0.156
	c-0.09-0.08-0.132-0.197-0.193-0.297c-0.064-0.104-0.147-0.201-0.179-0.326c-0.038-0.029-0.062-0.076-0.089-0.119
	c-0.024-0.039-0.063-0.078-0.081-0.119c-0.01-0.02-0.006-0.041-0.016-0.059c-0.014-0.027-0.034-0.049-0.052-0.074
	c-0.009-0.014-0.014-0.031-0.022-0.045c-0.055-0.076-0.099-0.199-0.147-0.291c-0.026-0.043-0.083-0.068-0.105-0.119
	c-0.011-0.023-0.008-0.051-0.015-0.074c-0.036-0.111-0.139-0.227-0.192-0.332c-0.024-0.047-0.038-0.094-0.081-0.127
	c-0.006-0.088-0.073-0.139-0.112-0.209c-0.015-0.027-0.021-0.057-0.037-0.08c-0.015-0.021-0.04-0.039-0.052-0.061
	c-0.014-0.025-0.016-0.062-0.03-0.088c-0.02-0.039-0.059-0.072-0.081-0.111c-0.023-0.041-0.037-0.088-0.06-0.127
	c-0.017-0.027-0.031-0.064-0.052-0.098c-0.022-0.035-0.069-0.094-0.075-0.154c-0.089-0.061-0.104-0.191-0.185-0.26
	c-0.008-0.021-0.007-0.039-0.017-0.061c-0.03-0.07-0.089-0.125-0.125-0.186c-0.019-0.031-0.026-0.07-0.044-0.104
	c-0.02-0.037-0.059-0.068-0.075-0.104c-0.023-0.053-0.021-0.111-0.074-0.148c-0.048-0.117-0.122-0.205-0.192-0.297
	c-0.02-0.09-0.077-0.152-0.12-0.232c-0.022-0.043-0.041-0.094-0.064-0.139c-0.025-0.045-0.061-0.07-0.068-0.135
	c-0.026-0.051-0.076-0.096-0.104-0.148c-0.012-0.025-0.017-0.057-0.028-0.082c-0.02-0.039-0.054-0.066-0.075-0.104
	c-0.042-0.076-0.069-0.164-0.133-0.223c-0.007-0.1-0.075-0.137-0.104-0.215c-0.065-0.021-0.058-0.078-0.082-0.148
	c-0.013-0.039-0.039-0.09-0.066-0.135c-0.026-0.045-0.044-0.096-0.066-0.135c-0.026-0.041-0.073-0.068-0.09-0.109
	c-0.013-0.031-0.01-0.068-0.022-0.096c-0.017-0.043-0.054-0.072-0.073-0.113c-0.017-0.033-0.02-0.074-0.038-0.111
	c-0.008-0.016-0.02-0.027-0.03-0.045c-0.018-0.035-0.036-0.076-0.073-0.102c-0.004-0.061-0.04-0.088-0.053-0.143
	c-0.057-0.057-0.068-0.158-0.133-0.209c-0.02-0.104-0.11-0.17-0.148-0.266c-0.011-0.025-0.011-0.057-0.022-0.082
	c-0.016-0.035-0.05-0.055-0.067-0.088c-0.016-0.031-0.016-0.074-0.029-0.105c-0.018-0.039-0.053-0.066-0.074-0.104
	c-0.023-0.043-0.034-0.098-0.06-0.143C31.04,42.887,31,42.854,30.98,42.816c-0.022-0.049-0.024-0.104-0.052-0.15
	c-0.019-0.031-0.052-0.057-0.065-0.088c-0.013-0.025-0.013-0.062-0.023-0.09c-0.028-0.068-0.093-0.129-0.126-0.199
	c-0.006-0.014,0-0.023-0.007-0.037c-0.026-0.051-0.057-0.121-0.104-0.172c-0.022-0.109-0.082-0.209-0.133-0.303
	c-0.021-0.037-0.051-0.064-0.067-0.098c-0.016-0.031-0.021-0.072-0.036-0.104c-0.016-0.031-0.034-0.057-0.046-0.09
	c-0.015-0.027-0.039-0.039-0.06-0.059c0.004-0.041-0.02-0.076-0.036-0.113c-0.016-0.029-0.028-0.066-0.045-0.096
	c-0.021-0.033-0.057-0.061-0.074-0.096c-0.025-0.045-0.029-0.1-0.053-0.148c-0.023-0.053-0.078-0.088-0.097-0.133
	c-0.011-0.029-0.005-0.062-0.014-0.092c-0.018-0.049-0.061-0.105-0.09-0.154c-0.03-0.051-0.047-0.107-0.09-0.15
	c0.003-0.029-0.009-0.027,0-0.051c-0.047-0.064-0.086-0.141-0.125-0.215s-0.058-0.16-0.119-0.215
	c-0.011-0.117-0.083-0.193-0.127-0.283c-0.02-0.041-0.03-0.086-0.065-0.117c-0.006-0.064-0.032-0.107-0.075-0.135
	c-0.002-0.055-0.039-0.074-0.045-0.125c-0.076-0.127-0.135-0.26-0.207-0.395c-0.022-0.041-0.035-0.094-0.059-0.148
	c-0.018-0.035-0.05-0.064-0.068-0.098c-0.038-0.062-0.067-0.139-0.104-0.215c-0.039-0.078-0.09-0.172-0.133-0.26
	c-0.017-0.031-0.022-0.064-0.038-0.096c-0.018-0.037-0.043-0.068-0.06-0.105c-0.015-0.035-0.026-0.076-0.044-0.109
	c-0.023-0.045-0.053-0.082-0.075-0.127c-0.021-0.043-0.037-0.092-0.059-0.135c-0.013-0.023-0.032-0.043-0.045-0.066
	c-0.015-0.029-0.017-0.066-0.029-0.096c-0.016-0.035-0.04-0.066-0.06-0.105c-0.034-0.066-0.066-0.141-0.104-0.215
	c-0.019-0.033-0.045-0.062-0.06-0.096c-0.02-0.043-0.025-0.092-0.045-0.133c-0.025-0.053-0.062-0.096-0.089-0.15
	c-0.021-0.041-0.03-0.082-0.053-0.125c-0.037-0.074-0.07-0.152-0.11-0.238c-0.029-0.061-0.067-0.105-0.098-0.178
	c-0.047-0.113-0.107-0.24-0.162-0.355c-0.011-0.025-0.018-0.053-0.03-0.076c-0.011-0.018-0.034-0.029-0.045-0.051
	c-0.008-0.016-0.008-0.035-0.015-0.053c-0.026-0.061-0.075-0.141-0.104-0.207c-0.059-0.139-0.11-0.277-0.193-0.4
	c-0.043-0.119-0.081-0.242-0.155-0.328c-0.004-0.061-0.046-0.104-0.067-0.155c-0.022-0.054-0.032-0.112-0.06-0.163
	c-0.031-0.06-0.088-0.135-0.104-0.224c-0.079-0.083-0.102-0.202-0.148-0.311c-0.032-0.077-0.07-0.161-0.112-0.237
	c-0.013-0.025-0.034-0.045-0.045-0.067c-0.024-0.058-0.024-0.123-0.072-0.165c-0.013-0.064-0.043-0.131-0.067-0.192
	c-0.038-0.093-0.057-0.192-0.119-0.259c0-0.096-0.063-0.148-0.112-0.209c-0.021-0.029-0.038-0.066-0.06-0.096
	c-0.086-0.125-0.178-0.244-0.266-0.371c-0.021-0.031-0.04-0.066-0.06-0.098c-0.021-0.031-0.051-0.058-0.067-0.088
	c-0.01-0.019-0.006-0.041-0.016-0.06c-0.017-0.038-0.056-0.077-0.059-0.126c-0.033-0.051-0.048-0.09-0.075-0.172
	c-0.052-0.154-0.11-0.361-0.155-0.535c-0.023-0.092-0.041-0.15-0.007-0.223c-0.011-0.049-0.038-0.08-0.044-0.133
	c-0.042-0.078-0.076-0.166-0.113-0.252c-0.035-0.086-0.05-0.182-0.111-0.246c-0.028-0.01-0.021,0.018-0.021,0.037
	c-0.025-0.039-0.078-0.051-0.098-0.096c-0.011-0.024,0.003-0.057-0.008-0.082c-0.016-0.039-0.054-0.061-0.081-0.089
	c-0.028-0.028-0.048-0.063-0.081-0.082c-0.036-0.077-0.097-0.147-0.119-0.237c-0.004-0.02,0.014-0.047-0.016-0.06
	c0.003-0.022,0.023-0.026,0.016-0.06c-0.104-0.182-0.218-0.355-0.319-0.541c-0.026-0.048-0.046-0.096-0.074-0.143
	c-0.048-0.076-0.097-0.154-0.141-0.236c-0.008-0.013-0.009-0.027-0.015-0.037c-0.026-0.044-0.075-0.076-0.098-0.12
	c-0.017-0.032-0.021-0.075-0.037-0.11c-0.099-0.229-0.241-0.457-0.363-0.677c-0.07-0.124-0.15-0.246-0.225-0.37
	c-0.053-0.094-0.119-0.18-0.17-0.275c-0.015-0.029-0.027-0.062-0.044-0.097c-0.029-0.056-0.054-0.112-0.09-0.178
	c-0.008-0.017-0.029-0.028-0.036-0.044c-0.027-0.057-0.044-0.116-0.074-0.172c-0.135-0.251-0.267-0.533-0.4-0.795
	c-0.04-0.076-0.082-0.147-0.127-0.229c-0.059-0.109-0.113-0.262-0.172-0.386c-0.034-0.075-0.076-0.143-0.111-0.222
	c-0.01-0.026-0.01-0.056-0.021-0.082c-0.034-0.072-0.085-0.136-0.119-0.208c-0.011-0.021-0.014-0.047-0.022-0.067
	c-0.009-0.021-0.028-0.04-0.037-0.06c-0.013-0.024-0.011-0.051-0.023-0.075c-0.005-0.007-0.015-0.016-0.023-0.029
	c-0.012-0.022-0.04-0.054-0.051-0.082c-0.011-0.024-0.013-0.056-0.022-0.082c-0.011-0.022-0.025-0.044-0.038-0.067
	c-0.054-0.099-0.097-0.227-0.163-0.319c-0.023-0.033-0.061-0.053-0.083-0.082c-0.022-0.033-0.033-0.078-0.051-0.112
	c-0.032-0.057-0.074-0.106-0.104-0.164c-0.09-0.167-0.163-0.361-0.268-0.519c-0.04-0.126-0.096-0.242-0.147-0.357
	c-0.072-0.156-0.185-0.315-0.246-0.491c-0.06-0.061-0.112-0.17-0.163-0.259c-0.018-0.03-0.044-0.054-0.052-0.081
	c-0.033-0.118,0.012-0.259,0.14-0.186c0.085,0.048,0.137,0.186,0.186,0.32c0.05,0.132,0.129,0.246,0.149,0.349
	c0.096,0.173,0.2,0.35,0.289,0.535c0.067,0.136,0.14,0.265,0.208,0.408c0.021,0.044,0.052,0.083,0.074,0.127
	c0.029,0.055,0.037,0.123,0.06,0.185c0.021,0.06,0.053,0.114,0.075,0.17c0.041,0.116,0.086,0.234,0.14,0.342
	c0.109,0.222,0.214,0.431,0.334,0.638c0.099-0.026,0.233,0.122,0.222,0.208c-0.004,0.041-0.053,0.053-0.06,0.089
	c-0.007,0.05,0.085,0.177,0.127,0.245c0.023,0.04,0.047,0.081,0.066,0.119c0.032,0.062,0.057,0.101,0.082,0.165
	c0.016,0.037,0.034,0.073,0.06,0.118c0.084,0.146,0.151,0.309,0.223,0.467c0.042,0.093,0.096,0.186,0.148,0.275
	c0.041,0.069,0.072,0.134,0.112,0.208c0.01,0.02,0.032,0.039,0.043,0.059c0.038,0.067,0.067,0.145,0.105,0.216
	c0.013,0.022,0.024,0.044,0.036,0.067c0.049,0.093,0.093,0.186,0.134,0.281c0.04,0.09,0.091,0.194,0.142,0.29
	c0.024,0.048,0.057,0.089,0.081,0.134c0.027,0.049,0.037,0.105,0.06,0.156c0.023,0.05,0.063,0.094,0.09,0.146
	c0.062,0.132,0.134,0.256,0.215,0.38c0.023,0.035,0.039,0.056,0.059,0.104c0.011,0.023,0.035,0.049,0.054,0.08
	c0.018,0.035,0.027,0.084,0.065,0.104c0.047-0.024,0.02-0.086,0.007-0.118c-0.027-0.082-0.067-0.154-0.103-0.238
	c-0.018-0.041-0.022-0.09-0.037-0.133c-0.009-0.025-0.027-0.049-0.038-0.074c-0.027-0.066-0.039-0.175-0.074-0.237
	c-0.023-0.042-0.093-0.099-0.133-0.142c-0.025-0.027-0.085-0.097-0.104-0.141c-0.015-0.031-0.03-0.089-0.029-0.127
	c0.002-0.043,0.046-0.072,0.052-0.119c0.006-0.043-0.032-0.138-0.06-0.201c-0.057-0.133-0.104-0.229-0.156-0.355
	c-0.044-0.105-0.081-0.21-0.155-0.281c-0.046-0.126-0.127-0.233-0.192-0.35c-0.021-0.037-0.036-0.086-0.06-0.119
	c-0.023-0.031-0.063-0.045-0.089-0.074c-0.021-0.021-0.033-0.058-0.054-0.081c-0.021-0.026-0.042-0.042-0.06-0.067
	c-0.035-0.053-0.051-0.114-0.088-0.17c-0.036-0.057-0.114-0.088-0.149-0.149c-0.017-0.03-0.021-0.075-0.036-0.119
	c-0.032-0.087-0.075-0.152-0.105-0.26c-0.009-0.037-0.025-0.078-0.028-0.104c-0.005-0.026,0.006-0.057,0-0.083
	c-0.008-0.026-0.038-0.05-0.044-0.067c-0.022-0.055-0.026-0.131-0.022-0.185c0.001-0.028,0.022-0.057,0.022-0.089
	c0-0.03-0.02-0.072-0.03-0.111c-0.022-0.088-0.04-0.163-0.06-0.245c-0.042-0.052-0.056-0.12-0.083-0.201
	c-0.01-0.037-0.015-0.081-0.029-0.112c-0.014-0.03-0.044-0.053-0.059-0.082c-0.029-0.055-0.039-0.125-0.067-0.186
	c-0.003-0.006-0.019-0.012-0.023-0.023c-0.013-0.037-0.007-0.062-0.043-0.082c-0.006-0.064-0.046-0.098-0.052-0.164
	c-0.076-0.097-0.109-0.22-0.17-0.326c-0.043-0.075-0.087-0.137-0.126-0.224c-0.007-0.014-0.007-0.03-0.016-0.044
	c-0.053-0.101-0.118-0.233-0.163-0.349c-0.097-0.16-0.18-0.338-0.275-0.498c-0.014-0.023-0.023-0.005-0.052-0.008
	c-0.045-0.066-0.083-0.156-0.119-0.252c-0.042-0.116-0.117-0.216-0.178-0.327c-0.044-0.078-0.124-0.177-0.163-0.274
	c-0.053-0.126-0.093-0.285-0.149-0.416c-0.038-0.089-0.099-0.185-0.157-0.26c-0.056-0.073-0.123-0.14-0.185-0.224
	c-0.01-0.013-0.021-0.023-0.029-0.037c-0.009-0.015-0.006-0.035-0.015-0.052c-0.021-0.043-0.064-0.085-0.067-0.141
	c-0.002-0.053,0.037-0.136,0.046-0.215c0.001-0.021,0.006-0.047,0.006-0.059c0.003-0.173-0.091-0.317-0.17-0.476
	c-0.052-0.105-0.12-0.198-0.178-0.304c-0.01-0.018-0.01-0.042-0.023-0.059c-0.009-0.016-0.029-0.022-0.037-0.037
	c-0.02-0.038-0.029-0.082-0.044-0.112s-0.038-0.053-0.052-0.082c-0.027-0.057-0.038-0.116-0.06-0.17
	c-0.052-0.125-0.127-0.251-0.186-0.379c-0.014-0.027-0.018-0.058-0.031-0.083c-0.017-0.032-0.053-0.064-0.074-0.103
	c-0.02-0.038-0.025-0.082-0.044-0.119c-0.036-0.075-0.086-0.138-0.126-0.224c-0.02-0.042-0.026-0.095-0.046-0.141
	c-0.015-0.039-0.045-0.078-0.065-0.119c-0.065-0.131-0.127-0.203-0.193-0.356c-0.019-0.042-0.105-0.219-0.015-0.245
	c0.098-0.026,0.173,0.167,0.216,0.23c0.013,0.021,0.032,0.031,0.036,0.045c0.014,0.034,0.008,0.088,0.021,0.126
	c0.016,0.036,0.051,0.061,0.069,0.096c0.007,0.019,0.007,0.041,0.013,0.06c0.02,0.05,0.05,0.099,0.074,0.149
	c0.013,0.024,0.023,0.052,0.039,0.074c0.014,0.021,0.038,0.035,0.052,0.059c0.033,0.058,0.055,0.134,0.088,0.201
	c0.017,0.031,0.035,0.063,0.053,0.096c0.015,0.029,0.04,0.063,0.052,0.089c0.001,0.005,0.012,0.023,0.014,0.03
	c0.01,0.041,0.01,0.089,0.03,0.126c0.011,0.021,0.031,0.038,0.044,0.06c0.037,0.059,0.069,0.13,0.098,0.201
	c0.04,0.068,0.097,0.12,0.117,0.207c0.08,0.085,0.118,0.229,0.186,0.335c0.023,0.033,0.026,0.053,0.053,0.059
	c0.024,0.005,0.083-0.023,0.096-0.044c0.025-0.044,0.003-0.179-0.007-0.252c-0.001-0.018-0.005-0.038-0.006-0.06
	c-0.01-0.073-0.003-0.178-0.023-0.26c-0.006-0.023-0.023-0.044-0.03-0.067c-0.038-0.13-0.032-0.266-0.052-0.378
	c-0.012-0.072-0.037-0.124-0.03-0.178c-0.07-0.06-0.019-0.243-0.081-0.312c0.02-0.072-0.019-0.135-0.036-0.193
	c-0.023-0.068-0.029-0.147-0.069-0.208c0.017-0.116-0.034-0.182-0.021-0.26c-0.067-0.126-0.073-0.288-0.134-0.422
	c-0.012-0.028-0.017-0.083-0.031-0.126c-0.006-0.024-0.021-0.044-0.029-0.067c-0.023-0.076-0.033-0.15-0.051-0.223
	c-0.025-0.098-0.055-0.198-0.067-0.297c0.04,0.034,0.034,0.086,0.044,0.157c0.029,0.034,0.029,0.095,0.059,0.126
	c-0.008,0.101,0.044,0.134,0.03,0.214c0.046,0.088,0.058,0.163,0.083,0.268c0.066,0.072,0.047,0.203,0.111,0.267
	c0,0.018-0.014,0.022-0.007,0.045c0.051,0.087,0.059,0.218,0.126,0.289c0.027,0.103,0.003,0.223,0.029,0.327
	c0.008,0.027,0.031,0.049,0.038,0.074c0.017,0.067,0.011,0.163,0.029,0.238c0.016,0.065,0.061,0.116,0.038,0.178
	c0.036,0.045,0.021,0.098,0.028,0.164c0.003,0.024,0.019,0.044,0.023,0.066c0.004,0.029,0.002,0.057,0.008,0.083
	c0.006,0.031,0.028,0.054,0.037,0.088c0.008,0.025,0.001,0.054,0.008,0.082c0.013,0.065,0.051,0.131,0.059,0.186
	c0.003,0.022-0.008,0.044-0.008,0.067c0.003,0.076,0.047,0.17,0.075,0.252c0.046,0.138,0.106,0.231,0.163,0.349
	c0.064,0.049,0.115,0.105,0.193,0.142c0.076,0.036,0.165,0.047,0.237,0.089c0.03,0.018,0.063,0.056,0.097,0.082
	c0.011,0.008,0.032,0.011,0.037,0.015c0.015,0.014,0.032,0.043,0.052,0.067c0.065,0.076,0.117,0.171,0.156,0.289
	c0.022,0.069,0.032,0.125,0.037,0.215c0.004,0.106,0.001,0.192-0.03,0.305c-0.007,0.026-0.024,0.044-0.037,0.074
	c-0.024,0.062-0.036,0.12-0.074,0.164c-0.027,0.033-0.065,0.044-0.126,0.06c-0.049,0.068,0.001,0.148,0.046,0.245
	c0.03,0.068,0.053,0.129,0.081,0.178c0.193,0.338,0.278,0.755,0.454,1.083c0.053,0.046,0.125,0.024,0.185,0.045
	c0.098,0.034,0.221,0.22,0.142,0.357c-0.042,0.019-0.101,0.028-0.113,0.074c-0.014,0.058,0.041,0.15,0.067,0.215
	c0.079,0.189,0.178,0.422,0.245,0.587c0.032,0.04,0.069,0.076,0.06,0.156c0.072,0.12,0.134,0.284,0.201,0.423
	c0.052,0.105,0.11,0.21,0.141,0.327c0.065,0.104,0.114,0.219,0.171,0.327c0.058,0.107,0.109,0.216,0.17,0.319
	c0.033,0.051,0.078,0.091,0.105,0.141c0.013,0.024,0.018,0.055,0.029,0.082c0.069,0.142,0.155,0.277,0.224,0.423
	c0.011,0.022,0.025,0.051,0.036,0.075c0.029,0.066,0.042,0.126,0.091,0.178c0.004,0.042-0.031,0.044-0.038,0.074
	c0.009,0.023,0.03,0.08,0,0.097c-0.002,0.006,0.002,0.007,0.007,0.007C23.365,26.078,23.357,26.046,23.347,26.05z"/>
<path fill-rule="evenodd" clip-rule="evenodd" d="M21.774,19.902C21.804,19.934,21.779,19.96,21.774,19.902L21.774,19.902z"/>
<path fill-rule="evenodd" clip-rule="evenodd" d="M24.022,22.218c0.028-0.014,0.028,0.062,0.062,0.067
	c-0.003-0.032-0.009-0.061-0.023-0.082c0.035-0.013,0.034,0.076,0.067,0.089c-0.006,0.023-0.006,0.014,0,0.037
	c-0.02-0.008-0.026-0.029-0.044-0.037c0.011,0.033,0.023,0.066,0.036,0.097c-0.053-0.004-0.056-0.122-0.098-0.164
	C24.032,22.224,24.027,22.218,24.022,22.218z"/>
<path fill-rule="evenodd" clip-rule="evenodd" d="M14.884,32.576c0.001,0.018-0.012,0.023-0.023,0.031
	C14.852,32.63,14.865,32.572,14.884,32.576z"/>
<path fill-rule="evenodd" clip-rule="evenodd" d="M21.952,32.918c0-0.034,0.02,0.008,0.023,0.015
	c0.013,0.003,0.018,0.017,0.037,0.015c0.036,0.051,0.072,0.087,0.11,0.143c0.008,0.01,0.022,0.01,0.031,0.021
	c0.04,0.047,0.06,0.139,0.119,0.178c0.003,0.018-0.014,0.016-0.007,0.037c0.04,0.004,0.068,0.021,0.082,0.052
	c0.003,0.015-0.011,0.014-0.023,0.015c0.002,0.031,0.027,0.037,0.023,0.075c-0.014,0.014-0.02-0.006-0.046,0
	c-0.012-0.04-0.05-0.056-0.073-0.09c-0.055-0.081-0.058-0.198-0.126-0.267c-0.014,0-0.026,0-0.038,0
	C22.008,33.064,21.993,32.979,21.952,32.918z"/>
<path fill-rule="evenodd" clip-rule="evenodd" d="M22.517,33.689c0.079,0.051,0.132,0.126,0.178,0.209
	c-0.03,0.004-0.047-0.077-0.096-0.059C22.565,33.795,22.524,33.759,22.517,33.689z"/>
<path fill-rule="evenodd" clip-rule="evenodd" d="M24.915,35.183c0.03,0.021,0.034,0.063,0.059,0.089
	C24.958,35.27,24.92,35.223,24.915,35.183z"/>
<path fill-rule="evenodd" clip-rule="evenodd" d="M24.321,36.326c0.032,0.02,0.18,0.102,0.179,0.178
	c0,0.021-0.028,0.062-0.053,0.066C24.323,36.592,24.382,36.381,24.321,36.326z"/>
<path fill-rule="evenodd" clip-rule="evenodd" d="M22.22,39.459c0.012-0.025,0.014,0.02,0.029,0.016
	C22.243,39.494,22.231,39.457,22.22,39.459z"/>
<path fill-rule="evenodd" clip-rule="evenodd" d="M20.564,40.686c0.004-0.014,0.04,0.008,0.037,0.029
	C20.582,40.711,20.575,40.697,20.564,40.686z"/>
<path fill-rule="evenodd" clip-rule="evenodd" d="M19.874,35.338c0.041,0.041,0.062,0.094,0.088,0.143
	c0.083,0.15,0.169,0.311,0.268,0.459c0.02,0.029,0.039,0.076,0.059,0.111c0.151,0.285,0.332,0.57,0.49,0.855
	c0.027,0.049,0.047,0.1,0.075,0.146c0.081,0.143,0.163,0.273,0.245,0.424c0.024,0.047,0.066,0.088,0.088,0.135
	c0.019,0.033,0.029,0.07,0.046,0.104c0.011,0.02,0.02,0.051,0.036,0.074c0.004,0.006,0.02,0.01,0.023,0.014
	c0.011,0.02,0.005,0.045,0.014,0.061c0.007,0.014,0.029,0.023,0.038,0.037c0.019,0.027,0.032,0.061,0.059,0.08
	c0.005,0.039,0.02,0.074,0.036,0.105c0.031,0.053,0.072,0.117,0.113,0.172c0.018,0.023,0.045,0.047,0.06,0.074
	c0.014,0.025,0.015,0.062,0.028,0.088c0.021,0.043,0.057,0.076,0.083,0.119c0.024,0.039,0.042,0.084,0.082,0.111
	c0.026,0.074,0.065,0.141,0.104,0.207c0.038,0.068,0.058,0.146,0.119,0.193c-0.001,0.066,0.042,0.111,0.067,0.156
	c0.025,0.047,0.053,0.092,0.08,0.141c0.02,0.029,0.05,0.045,0.046,0.096c-0.044-0.053-0.088-0.113-0.126-0.178
	c-0.037-0.061-0.066-0.135-0.126-0.178c-0.026-0.125-0.14-0.162-0.156-0.297c-0.097-0.117-0.162-0.27-0.275-0.371
	c-0.013-0.08-0.073-0.115-0.089-0.193c-0.055-0.033-0.069-0.109-0.119-0.148c-0.027-0.109-0.098-0.197-0.155-0.289
	c-0.112-0.182-0.227-0.367-0.334-0.557c-0.028-0.049-0.053-0.094-0.083-0.141c-0.012-0.021-0.028-0.047-0.044-0.068
	c-0.015-0.02-0.038-0.031-0.052-0.051c-0.004-0.008-0.001-0.033-0.008-0.045c-0.048-0.102-0.131-0.225-0.193-0.326
	c-0.022-0.041-0.044-0.08-0.065-0.119c-0.093-0.16-0.208-0.305-0.283-0.475c-0.086-0.107-0.146-0.23-0.214-0.357
	c-0.023-0.039-0.052-0.072-0.075-0.111c-0.071-0.119-0.138-0.236-0.216-0.356c-0.037-0.056-0.065-0.104-0.096-0.171
	c-0.05-0.105-0.138-0.217-0.201-0.326c-0.073-0.129-0.146-0.26-0.215-0.395c-0.034-0.064-0.082-0.119-0.118-0.186
	c-0.083-0.146-0.158-0.297-0.231-0.46c-0.018-0.043-0.056-0.095-0.081-0.141c-0.036-0.067-0.062-0.14-0.097-0.208
	c-0.033-0.064-0.076-0.127-0.111-0.193c-0.019-0.035-0.032-0.069-0.051-0.104c-0.052-0.091-0.11-0.191-0.165-0.289
	c-0.072-0.132-0.156-0.255-0.222-0.387c-0.034-0.068-0.067-0.139-0.104-0.201c-0.037-0.06-0.09-0.109-0.126-0.171
	c-0.021-0.033-0.024-0.075-0.044-0.11c-0.018-0.031-0.044-0.059-0.061-0.09c-0.035-0.066-0.076-0.128-0.111-0.193
	c-0.054-0.097-0.105-0.193-0.163-0.289c-0.07-0.114-0.132-0.264-0.208-0.387c-0.06-0.094-0.105-0.191-0.155-0.29
	c-0.104-0.194-0.225-0.376-0.312-0.577c-0.045-0.061-0.064-0.135-0.098-0.201c-0.03-0.065-0.078-0.13-0.088-0.209
	c-0.061-0.096-0.105-0.2-0.157-0.296c-0.028-0.052-0.047-0.126-0.081-0.186c-0.012-0.022-0.026-0.034-0.038-0.06
	c-0.042-0.092-0.098-0.205-0.14-0.305c-0.019-0.041-0.026-0.09-0.046-0.135c-0.024-0.056-0.065-0.107-0.096-0.17
	c-0.015-0.029-0.027-0.058-0.044-0.089c-0.041-0.075-0.075-0.174-0.119-0.253c-0.083-0.141-0.198-0.32-0.26-0.475
	c-0.032-0.078-0.055-0.174-0.023-0.275c0.129-0.053,0.234,0.166,0.289,0.283c0.044,0.092,0.093,0.191,0.126,0.289
	c0.014,0.036,0.015,0.072,0.03,0.104c0.042,0.095,0.131,0.181,0.163,0.273c0.011,0.028,0.005,0.051,0.015,0.091
	c0.02,0.069,0.076,0.142,0.119,0.221c0.041,0.078,0.076,0.16,0.111,0.231c0.039,0.077,0.078,0.153,0.112,0.23
	c0.035,0.079,0.086,0.146,0.125,0.215c0.084,0.147,0.155,0.3,0.239,0.445c0.061,0.108,0.119,0.222,0.178,0.335
	c0.048,0.093,0.093,0.186,0.14,0.281c0.027,0.056,0.062,0.104,0.09,0.156c0.056,0.111,0.107,0.223,0.163,0.334
	c0.108,0.221,0.224,0.437,0.327,0.66c0.102,0.221,0.219,0.438,0.334,0.654c0.029,0.055,0.061,0.106,0.088,0.163
	c0.076,0.155,0.175,0.315,0.26,0.476c0.114,0.215,0.223,0.432,0.348,0.639c0.127,0.209,0.246,0.416,0.364,0.624
	c0.185,0.317,0.363,0.625,0.534,0.95C19.759,35.126,19.836,35.223,19.874,35.338z"/>
</svg>
