<?xml version="1.0" encoding="utf-8"?>
<!-- Generator: Adobe Illustrator 16.0.0, SVG Export Plug-In . SVG Version: 6.00 Build 0)  -->
<!DOCTYPE svg PUBLIC "-//W3C//DTD SVG 1.1//EN" "http://www.w3.org/Graphics/SVG/1.1/DTD/svg11.dtd">
<svg version="1.1" id="Layer_1" xmlns="http://www.w3.org/2000/svg" xmlns:xlink="http://www.w3.org/1999/xlink" x="0px" y="0px"
	 width="640px" height="480px" viewBox="0 0 640 480" enable-background="new 0 0 640 480" xml:space="preserve">
<path fill="#4D4E4E" stroke="#231F20" stroke-miterlimit="10" d="M251.207,84.36c0.01-0.013,0.245-0.518,0.621-0.676
	c12.831-5.313,25.548-10.94,38.558-15.759c8.888-3.29,17.833-0.104,26.776,1.315c10.861,1.726,19.098,8.217,27.507,14.204
	c5.234,3.728,9.608,8.83,13.828,13.777c4.602,5.391,9.391,10.884,12.658,17.092c5.654,10.744,10.323,22.01,15.173,33.164
	c7.489,17.237,9.627,35.572,9.521,54.068c-0.118,20.874-4.359,40.901-14.389,59.578c-7.915,14.744-16.771,28.835-29.784,39.419
	c-9.997,8.128-20.776,15.547-32.026,21.817c-21.675,12.09-44.636,21.728-65.556,35.377c-13.863,9.044-22.687,21.646-30.274,35.66
	c-1.333,2.461-2.979,4.753-4.519,7.092c-0.095,0.149-0.555,0.062-2.046,0.177c2.598-5.644,4.376-11.167,7.439-15.854
	c11.868-18.188,27.816-32.06,45.756-44.283c15.759-10.735,33.578-17.148,49.876-26.604c5.504-3.192,11.23-6.059,16.494-9.612
	c7.962-5.371,11.746-14.045,16.077-22.138c10.173-18.999,10.289-39.419,8.972-60.305c-1.705-27.045-9.023-52.548-18.641-77.612
	c-5.791-15.113-13.985-28.59-25.729-39.821c-11.254-10.767-25.396-15.085-40.218-17.461
	C268.697,85.604,259.958,85.205,251.207,84.36z"/>
<g>
	<g>
		<path fill="#BCBCBC" stroke="#231F20" stroke-miterlimit="10" d="M302.949,54.987c7.554-2.749,15.04-5.683,22.669-8.208
			c20.038-6.638,40.937-8.59,61.778-10.413c11.378-0.993,22.802,0.044,33.842,3.506c6.711,2.104,10.979,6.244,11.648,13.636
			c0.339,3.745-1.062,6.232-3.534,9.07c-4.021,4.609-7.884,3.4-13.012,2.525c-14.123-2.416-28.412-4.071-42.696-5.3
			c-16.313-1.404-32.688-2.123-49.052-2.929c-4.974-0.246-9.985,0.207-14.979,0.305c-2.096,0.041-4.191,0.007-6.289,0.007
			C303.199,56.453,303.076,55.721,302.949,54.987z"/>
		<path fill="#BCBCBC" stroke="#231F20" stroke-miterlimit="10" d="M244.756,455.403c2.769-15.641,5.758-30.102,7.797-44.699
			c1.852-13.282,9.618-23.14,17.366-33.104c7.536-9.699,18.037-15.697,28.376-21.841c4.283-2.547,8.561-5.118,12.856-7.651
			c3.948-2.326,5.779-1.545,6.202,3.1c0.759,8.42-4.144,14.557-9.318,20.188c-5.117,5.56-11.825,9.521-17.407,14.342
			c-10.874,9.398-23.768,17.548-29.344,31.927c-0.974,2.507-0.835,5.434-1.242,8.166c-0.455,3.081-1.011,6.157-1.376,9.254
			c-0.133,1.116-0.171,2.46,0.321,3.4c3.605,6.896-0.467,16.866-7.939,18.229C248.727,457.139,246.067,455.711,244.756,455.403z"/>
	</g>
	<path fill="#BCBCBC" stroke="#231F20" stroke-miterlimit="10" d="M261.739,63.328c3.308-2.926,6.337-6.281,9.986-8.704
		c20.26-13.474,41.734-24.686,65.369-30.797c9.858-2.547,20.312-3.199,30.546-3.771c5.829-0.33,8.536,2.884,8.275,7.184
		c-0.228,3.737-3.132,5.142-8.599,5.952c-9.452,1.398-18.875,3.195-28.171,5.411c-8.477,2.021-16.831,4.625-25.111,7.346
		c-5.452,1.79-10.648,4.348-16.028,6.374c-3.891,1.464-7.873,2.711-11.863,3.886c-2.991,0.881-6.719,0.244-7.85,4.514
		c-0.153,0.59-1.531,1.022-2.414,1.226c-4.376,1.007-8.772,1.909-13.165,2.849C262.388,64.309,262.063,63.817,261.739,63.328z"/>
</g>
<g>
	<path fill="#FFFFFF" stroke="#231F20" stroke-miterlimit="10" d="M384.392,268.631c30.252-72.227,14.056-134.197-36.846-190.272
		c5.067,1.653,10.218,3.078,15.182,5.001c27.806,10.789,45.413,31.494,57.259,58.2c8.545,19.269,11.342,39.261,9.728,60.002
		c-1.253,16.098-6.251,30.684-17.151,43.213c-7.128,8.194-14.346,16.059-23.671,21.748
		C387.735,267.23,386.433,267.689,384.392,268.631z"/>
	<path fill="#FFFFFF" stroke="#231F20" stroke-miterlimit="10" d="M333.296,322.131c-0.92,5.53-4.181,8.135-7.449,10.251
		c-15.513,10.066-31.257,19.785-46.786,29.827c-9.696,6.273-17.367,14.625-23.412,24.465c-2.199,3.58-5.217,6.91-6.433,10.8
		c-2.439,7.803-3.885,15.908-5.765,23.886c-2.422,10.28-4.353,20.718-7.485,30.774c-1.875,6.02-7.827,8.668-12.993,7.604
		c-5.293-1.091-8.726-5.821-9.222-12.323c-0.148-1.994-0.976-3.938-1.354-5.927c-1.502-7.873,0.608-15.261,3.753-22.261
		c5.755-12.806,11.697-25.48,20.148-36.915c5.778-7.826,12.432-14.586,20.704-19.278c18.835-10.677,38.033-20.707,57.11-30.954
		C320.119,328.857,326.218,325.794,333.296,322.131z"/>
	<path fill="#FFFFFF" stroke="#231F20" stroke-miterlimit="10" d="M424.482,239.802c0.609-1.555,1.032-3.231,1.87-4.659
		c9.832-16.729,11.078-35.013,9.825-53.76c-0.277-4.205-0.178-8.504-1.057-12.586c-3.646-16.929-9.602-33.12-18.993-47.635
		c-5.896-9.12-13.608-17.07-20.505-25.546c-0.361-0.447-0.693-0.914-1.039-1.371c0.321-0.422,0.647-0.845,0.968-1.268
		c6.521,4.611,13.37,8.821,19.485,13.916c14.435,12.023,26.583,26.045,34.879,43.085c7.212,14.813,12.679,30.164,10.562,46.964
		c-2.161,17.15-11.531,30.19-25.228,40.177c-2.735,1.992-6.48,2.605-9.763,3.852C425.156,240.579,424.821,240.193,424.482,239.802z"
		/>
	<path fill="#FFFFFF" stroke="#231F20" stroke-miterlimit="10" d="M462.417,214.25c1.197-4.91,3.002-9.074,3.069-13.264
		c0.143-8.674,0.42-17.567-1.248-25.995c-3.983-20.118-12.8-38.454-26.261-53.807c-9.48-10.817-19.139-21.932-32.054-29.216
		c-1.598-0.903-3.013-2.117-4.51-3.182c0.188-0.387,0.384-0.775,0.581-1.16c4.152,2.062,8.366,4.017,12.448,6.208
		c27.313,14.683,45.128,38.238,60.481,64.261c5.795,9.823,10.524,19.891,12.253,31.16c0.402,2.611,0.208,5.825-0.995,8.065
		c-4.49,8.346-9.435,16.511-20.567,16.926C465.013,214.271,464.409,214.25,462.417,214.25z"/>
	<path fill="#FFFFFF" stroke="#231F20" stroke-miterlimit="10" d="M293.354,397.759c-0.677,14.085-5.119,24.669-17.646,30.191
		c-2.261,0.996-4.92,1.075-7.396,1.581c-0.36-3.13-1.597-6.465-0.92-9.354c1.921-8.194,7.248-14.255,13.936-19.194
		c2.238-1.649,4.221-3.653,6.506-5.226c1.175-0.812,3.452-1.825,4.014-1.337C292.943,395.361,293.178,397.299,293.354,397.759z"/>
	<path fill="#FFFFFF" stroke="#231F20" stroke-miterlimit="10" d="M446.833,108.247c3.846,2.577,7.931,4.817,11.417,7.765
		c6.543,5.542,13.053,11.195,18.997,17.353c6.99,7.24,9.362,14.884,4.867,24.541C470.391,141.405,458.766,125.043,446.833,108.247z"
		/>
	<path fill="#FFFFFF" stroke="#231F20" stroke-miterlimit="10" d="M309.438,378.807c3.328,6.09-0.898,12.732-9.819,16.385
		c-2.593-3.291-2.814-6.211,0.879-9.019C303.539,383.863,306.407,381.32,309.438,378.807z"/>
</g>
</svg>
