<?xml version="1.0" encoding="utf-8"?>
<!-- Generator: Adobe Illustrator 16.0.0, SVG Export Plug-In . SVG Version: 6.00 Build 0)  -->
<!DOCTYPE svg PUBLIC "-//W3C//DTD SVG 1.1//EN" "http://www.w3.org/Graphics/SVG/1.1/DTD/svg11.dtd">
<svg version="1.1" id="Layer_1" xmlns="http://www.w3.org/2000/svg" xmlns:xlink="http://www.w3.org/1999/xlink" x="0px" y="0px"
	 width="640px" height="480px" viewBox="0 0 640 480" enable-background="new 0 0 640 480" xml:space="preserve">
<path fill="#4D4E4E" stroke="#231F20" stroke-miterlimit="10" d="M335.591,252.52c-0.725,7.153-1.378,14.312-2.17,21.459
	c-1.568,14.213-11.394,19.81-23.717,23.59c-30.193,9.266-65.558-11.454-66.187-39.869c-0.114-5.426,3.062-12.445,7.097-16.158
	c12.729-11.725,25.434-22.475,27.98-41.516c1.431-10.654,22.52-15.399,34.058-7.729c5.676,3.77,11.498,9.72,13.605,15.922
	c4.841,14.215,7.444,29.19,10.955,43.86C336.674,252.225,336.13,252.371,335.591,252.52z"/>
<path fill="#808080" stroke="#231F20" stroke-miterlimit="10" d="M191.111,209.968c-0.282-18.342,14.982-33.236,37.523-36.562
	c1.576-0.236,3.212-0.15,4.771-0.456c9.023-1.779,18.391-4.733,24.71,5.349c7.463,11.902,7.893,24.988,0.472,36.172
	c-7.145,10.788-16.62,19.707-30.883,22.796C207.252,241.7,191.426,230.709,191.111,209.968z"/>
<g>
	<path fill="#BCBCBC" stroke="#231F20" stroke-miterlimit="10" d="M345.024,213.619c-7.277-13.12-12.562-22.644-19.062-34.345
		c7.359-2.208,15.771-7.652,20.584-5.399c5.403,2.523,10.394,12.062,10.292,18.469C356.729,198.742,350.108,205.035,345.024,213.619
		z"/>
	<path fill="#BCBCBC" stroke="#231F20" stroke-miterlimit="10" d="M413.562,261.896c-11.489-0.073-24.537-9.656-25.021-18.367
		c-0.362-6.725,8.8-13.318,18.404-13.232c13.092,0.117,24.985,7.376,25.387,15.5C432.739,253.82,423.254,261.96,413.562,261.896z"/>
	<path fill="#BCBCBC" stroke="#231F20" stroke-miterlimit="10" d="M358.826,403.118c-8.303-0.026-15.304-8.249-15.199-17.835
		c0.091-7.182,14.551-21.661,21.409-18.69c8.642,3.749,16.911,11.107,22.101,19.029
		C390.179,390.268,369.519,403.146,358.826,403.118z"/>
	<path fill="#BCBCBC" stroke="#231F20" stroke-miterlimit="10" d="M413.329,85.44c5.866-7.888,10.726-16.976,18.061-23.109
		c3.281-2.745,11.519,0.441,17.503,0.935c-1.087,5.399-0.399,12.436-3.591,15.86c-7.517,8.053-18.224,9.512-28.678,9.793
		C415.518,87.758,414.426,86.597,413.329,85.44z"/>
</g>
</svg>
