<?xml version="1.0" encoding="utf-8"?>
<!-- Generator: Adobe Illustrator 16.0.0, SVG Export Plug-In . SVG Version: 6.00 Build 0)  -->
<!DOCTYPE svg PUBLIC "-//W3C//DTD SVG 1.1//EN" "http://www.w3.org/Graphics/SVG/1.1/DTD/svg11.dtd">
<svg version="1.1" id="Layer_1" xmlns="http://www.w3.org/2000/svg" xmlns:xlink="http://www.w3.org/1999/xlink" x="0px" y="0px"
	 width="100px" height="100px" viewBox="-25 -25 100 100" enable-background="new -25 -25 100 100" xml:space="preserve">
<path fill="#1E1E1E" d="M-11.727,72.191c0.047-1.993-0.039-4.002,0.183-5.975c0.184-1.622,0.851-3.163,1.682-4.588
	c1.384-2.371,2.943-4.623,4.927-6.538c0.979-0.944,2.04-1.802,3.073-2.687c1.438-1.233,2.907-2.433,4.325-3.689
	c1.298-1.151,2.56-2.347,3.811-3.552c0.807-0.775,1.625-1.553,2.331-2.415c0.999-1.222,1.909-2.517,2.841-3.793
	c1.397-1.914,2.465-4.02,3.494-6.145c0.759-1.567,1.088-3.263,1.517-4.932c0.745-2.897,0.935-5.848,0.943-8.82
	c0.005-1.566,0.022-3.134-0.027-4.7c-0.026-0.838-0.162-1.676-0.288-2.509c-0.27-1.8-0.518-3.605-0.864-5.39
	c-0.231-1.188-0.583-2.356-0.942-3.513c-0.333-1.07-0.732-2.121-1.131-3.169c-0.35-0.923-0.764-1.821-1.104-2.747
	c-0.63-1.722-1.255-3.446-1.829-5.187c-0.665-2.019-0.725-4.128-0.843-6.228c-0.061-1.066,0.288-2.018,0.634-2.996
	c0.355-1.003,0.825-1.918,1.478-2.757c1.275-1.637,2.949-2.547,4.985-2.829c2-0.277,3.824,0.174,5.479,1.327
	c0.845,0.589,1.343,1.452,1.868,2.306c2.015,3.279,3.242,6.876,4.293,10.546c1.059,3.699,1.664,7.489,1.724,11.317
	c0.057,3.616-0.183,7.241-0.869,10.814c-0.302,1.574-0.448,3.186-0.866,4.725c-0.594,2.187-1.352,4.332-2.082,6.48
	c-0.677,1.993-1.511,3.926-2.572,5.747c-0.337,0.576-0.819,1.065-1.197,1.621c-0.728,1.068-1.353,2.213-2.155,3.219
	c-1.092,1.37-2.283,2.665-3.485,3.942c-0.956,1.017-2.009,1.94-2.986,2.939c-2.188,2.236-4.552,4.27-7.081,6.104
	c-2.064,1.498-4.216,2.875-6.26,4.397c-1.114,0.83-2.069,1.87-3.121,2.785c-1.7,1.476-3.258,3.102-4.567,4.915
	c-1.558,2.156-3.086,4.362-3.806,6.991c-0.454,1.656-0.91,3.312-1.364,4.969C-11.628,72.183-11.678,72.188-11.727,72.191z"/>
</svg>
