<?xml version="1.0" encoding="utf-8"?>
<!-- Generator: Adobe Illustrator 16.0.0, SVG Export Plug-In . SVG Version: 6.00 Build 0)  -->
<!DOCTYPE svg PUBLIC "-//W3C//DTD SVG 1.1//EN" "http://www.w3.org/Graphics/SVG/1.1/DTD/svg11.dtd">
<svg version="1.1" id="Layer_1" xmlns="http://www.w3.org/2000/svg" xmlns:xlink="http://www.w3.org/1999/xlink" x="0px" y="0px"
	 width="100px" height="100px" viewBox="0 0 100 100" enable-background="new 0 0 100 100" xml:space="preserve">
<g>
	<g>
		<path fill-rule="evenodd" clip-rule="evenodd" d="M50.751,40.435c-0.049,1.164-0.125,2.328-0.142,3.492
			c-0.087,5.482-1.505,10.625-3.731,15.612c-0.988,2.214-1.516,4.63-2.371,6.906c-0.653,1.738-1.432,1.902-2.497,0.466
			c-2.345-3.163-4.534-6.435-5.883-10.182c-0.35-0.975-0.611-2.022-1.161-2.875c-2.351-3.644-2.434-7.366-0.612-11.209
			c1.26-2.661,2.542-5.31,3.796-7.973c0.219-0.464,0.203-1.167,0.545-1.419c0.724-0.532,1.612-0.841,2.434-1.239
			c0.069,0.738,0.406,1.584,0.16,2.194c-0.814,2.014-1.854,3.936-2.773,5.907c-0.244,0.523-0.372,1.099-0.703,2.108
			c0.726-0.39,1.055-0.494,1.286-0.704c2.55-2.315,4.219-5.107,5.308-8.426c1.286-3.915,3.044-7.677,4.674-11.474
			c0.308-0.714,0.97-1.277,1.689-1.801c-3.761,6.346-5.314,13.341-6.483,20.472c2.229-3.846,3.541-8.057,4.877-12.257
			c0.169,0.019,0.339,0.038,0.51,0.057c0.093,0.613,0.266,1.224,0.271,1.837c0.029,4.994-1.548,9.574-3.64,14.024
			c-0.349,0.744-0.654,1.522-0.855,2.317c-1.242,4.911-2.545,9.809-3.607,14.759c-0.332,1.544,0.023,3.236,0.314,4.823
			c0.904-4.384,1.739-8.783,2.729-13.148c1.011-4.455,3.827-8.136,5.217-12.44C50.321,40.318,50.537,40.376,50.751,40.435z"/>
	</g>
	<g>
		<path fill-rule="evenodd" clip-rule="evenodd" d="M55.911,77.215c0.285-0.377,0.675-0.7,0.819-1.111
			c1.314-3.728,1.827-7.538,1.089-11.467c-0.122-0.652,0.008-1.387-0.243-1.971c-0.722-1.676-1.566-3.298-2.385-4.931
			c-0.576-1.147-1.011-2.284-0.29-3.193c-0.397-0.558-0.885-0.926-0.903-1.319c-0.147-2.736-0.186-5.477-0.278-8.217
			c-0.109-3.153-0.16-6.312-0.379-9.459c-0.202-2.896-0.128-5.693,1.558-8.259c0.109,0.784,0.218,1.537,0.323,2.288
			c0.183,0.014,0.366,0.028,0.552,0.042c1.194-2.852,1.628-6.098,4.041-8.492c0.899,1.181,0.356,2.193-0.079,3.117
			c-0.856,1.828-2.044,3.527-2.701,5.418c-0.877,2.527-1.431,5.172-2.006,7.792c-0.134,0.616,0.198,1.336,0.317,2.008
			c0.199,0.009,0.398,0.018,0.598,0.026c0.168-0.702,0.298-1.415,0.506-2.104c0.519-1.721,1.017-3.454,1.648-5.133
			c0.157-0.417,0.792-0.652,1.208-0.97c0.196,0.528,0.671,1.138,0.544,1.572c-0.732,2.533-1.61,5.024-2.429,7.533
			c-0.207,0.634-0.375,1.281-0.339,2.026c1.982-1.11,3.02-2.933,4.017-4.749c1.182-2.149,1.57-4.465,1.149-6.921
			c-0.118-0.683-0.005-1.442,0.169-2.124c0.079-0.308,0.571-0.708,0.872-0.704c0.273,0.002,0.745,0.48,0.771,0.781
			c0.109,1.225,0.271,2.497,0.049,3.684c-0.27,1.456-0.714,2.948-1.419,4.241c-3.199,5.865-4.623,12.171-4.942,18.778
			c-0.06,1.237-0.079,2.477-0.075,3.715c0.002,0.217,0.218,0.435,0.593,0.699c1.493-7.112,2.965-14.204,6.21-20.722
			c0.12,0.04,0.241,0.08,0.363,0.12c-0.117,0.315-0.238,0.628-0.348,0.947c-0.783,2.283-1.571,4.565-2.342,6.853
			c-0.642,1.909-1.478,3.786-1.848,5.749c-1.272,6.777-1.94,13.606-1.672,20.535c0.144,3.665-0.232,7.348-0.386,11.022
			c-0.005,0.129-0.143,0.256-0.359,0.619c-1.015-0.957-2.018-1.812-2.911-2.771c-2.567-2.762-5.089-5.564-7.627-8.354
			c-0.789-0.867-1.15-1.821-0.674-2.989c1.368-3.356,2.698-6.726,4.097-10.067c0.196-0.471,0.694-0.817,1.051-1.221
			c0.393,0.438,0.94,0.81,1.152,1.319c1.914,4.632,2.352,9.523,2.438,14.469c0.008,0.515,0.046,1.028,0.092,1.54
			C55.511,76.931,55.648,76.989,55.911,77.215z"/>
	</g>
	<g>
		<path fill-rule="evenodd" clip-rule="evenodd" d="M43.326,18.066c0.477-0.399,0.932-0.831,1.436-1.193
			c0.985-0.709,1.924-1.552,3.02-2.017c0.962-0.407,1.652,0.297,1.099,1.245c-2.988,5.128-5.525,10.591-10.525,14.261
			c-1.304,0.956-2.392,2.206-3.58,3.32c0.093,0.178,0.187,0.356,0.281,0.533c0.608-0.103,1.216-0.205,1.614-0.271
			c-1.553,3.592-3.161,7.305-4.875,11.268c-0.282-0.612-0.568-1.034-0.677-1.497c-0.474-2.015-0.821-4.06-1.352-6.058
			c-1.332-5.01,1.518-8.72,3.757-12.667c2.918-5.144,7.525-8.786,11.392-13.083c1.833-2.037,3.794-3.957,5.696-5.93
			c0.154,0.064,0.309,0.127,0.462,0.191c-0.426,0.95-0.688,2.032-1.314,2.825c-1.793,2.275-3.75,4.423-5.611,6.646
			c-0.5,0.597-0.895,1.283-1.338,1.928C42.981,17.734,43.153,17.901,43.326,18.066z"/>
	</g>
	<g>
		<path fill-rule="evenodd" clip-rule="evenodd" d="M70.147,95.152c-3.066-2.514-6.366-5.027-9.396-7.83
			c-0.827-0.764-1.204-2.415-1.167-3.64c0.144-4.696,0.578-9.384,0.816-14.078c0.087-1.7-0.139-3.41-0.104-5.116
			c0.043-2.134-0.359-4.397,1.291-5.847c0.064,2.823,0.07,5.932,0.236,9.032c0.069,1.321,0.262,2.708,0.756,3.92
			c1.644,4.048,1.4,8.059,0.2,12.131c-0.241,0.812-0.239,1.695-0.081,2.6c1.807-1.9,3-4.104,3.369-6.539
			c0.45-2.947,0.452-5.961,0.649-8.946c0.088-1.344,0.049-2.71,0.309-4.019c0.146-0.74,0.778-1.381,1.192-2.066
			c0.16,0.006,0.322,0.015,0.483,0.021c0.243,0.849,0.589,1.684,0.719,2.55c0.892,5.956,1.349,11.903,0.656,17.953
			C69.696,88.586,70.099,91.984,70.147,95.152z"/>
	</g>
	<g>
		<path fill-rule="evenodd" clip-rule="evenodd" d="M41.3,10.476c-3.912,6.269-7.802,12.501-11.691,18.734
			c-0.101,0.007-0.202,0.014-0.304,0.021c0.24-2.099,0.345-4.222,0.747-6.29c1.119-5.77,3.834-10.801,7.547-15.294
			c0.875-1.059,2.008-1.942,3.15-2.724c0.468-0.32,1.271-0.151,1.921-0.204c-0.148,0.596-0.157,1.288-0.48,1.765
			c-0.423,0.624-1.112,1.06-1.654,1.608c-0.473,0.481-0.902,1.004-1.35,1.51C39.758,9.839,40.33,10.075,41.3,10.476z"/>
	</g>
</g>
</svg>
