<?xml version="1.0" encoding="utf-8"?>
<!-- Generator: Adobe Illustrator 16.0.0, SVG Export Plug-In . SVG Version: 6.00 Build 0)  -->
<!DOCTYPE svg PUBLIC "-//W3C//DTD SVG 1.1//EN" "http://www.w3.org/Graphics/SVG/1.1/DTD/svg11.dtd">
<svg version="1.1" id="Layer_1" xmlns="http://www.w3.org/2000/svg" xmlns:xlink="http://www.w3.org/1999/xlink" x="0px" y="0px"
	 width="100px" height="100px" viewBox="0 0 100 100" enable-background="new 0 0 100 100" xml:space="preserve">
<path fill="#231F20" d="M40.686,63.508c20.053-5.444,30.42,6.363,30.42,6.363l0.771-9.521c0,0-2.185-7.427-25.046-18.91
	c-14.292-7.177-20.323-12.6-22.837-15.657l6.024-3.633l-1.044-1.44c-15.611,2.327-25.083-3.851-25.083-3.851l-0.083,0.093
	l-1.494,1.661L2.23,18.705c0,0,7.147,8.763,6.493,24.534l1.542,0.883l2.809-6.022c8.167,6.997,20.474,10.082,30.35,13.536
	c10.232,3.579,13.744,6.848,13.744,6.848c-13.474-0.345-21.293,4.533-21.293,4.533l-0.498,2.628c0,0,29.907-0.956,48.753,31.373
	C84.129,97.017,73.063,68.116,40.686,63.508z"/>
<g>
	<path fill="#4D4D4D" d="M72.596,67.201c5.698,5.25,12.003,13.998,13.958,27.827c0,0,0.381-17.658-13.776-30.082L72.596,67.201z"/>
	<path fill="#4D4D4D" d="M50.398,37.844l0.798,1.025l3.562-3.299c3.593,6.986,11.064,12.469,16.79,17.532
		c5.933,5.244,7.406,8.423,7.406,8.423c-2.15-0.942-4.162-1.592-5.982-2.038c0.11,0.242,0.155,0.382,0.165,0.413l0.038,0.131
		l-0.011,0.14l-0.145,1.781c9.605,3.579,12.219,11.125,12.219,11.125l3.147-6.228c0,0,0.573-5.627-11.719-19.703
		c-7.685-8.799-10.268-14.13-11.125-16.892l5.075-0.795l-0.306-1.262C59.11,25.462,54.408,18.67,54.408,18.67l-0.081,0.039
		l-1.469,0.712l-0.081,0.04C52.777,19.461,55.192,27.359,50.398,37.844z"/>
</g>
</svg>
