<?xml version="1.0" encoding="utf-8"?>
<!-- Generator: Adobe Illustrator 16.0.0, SVG Export Plug-In . SVG Version: 6.00 Build 0)  -->
<!DOCTYPE svg PUBLIC "-//W3C//DTD SVG 1.1//EN" "http://www.w3.org/Graphics/SVG/1.1/DTD/svg11.dtd">
<svg version="1.1" id="Layer_1" xmlns="http://www.w3.org/2000/svg" xmlns:xlink="http://www.w3.org/1999/xlink" x="0px" y="0px"
	 width="100px" height="100px" viewBox="0 0 100 100" enable-background="new 0 0 100 100" xml:space="preserve">
<path fill="#9BDBF8" d="M64.161,64.859c0.398-0.014,0.778-0.178,1.223-0.151c0.236,0.014,0.49,0.141,0.69,0.151
	c0.425,0.034,0.735-0.151,1.146-0.151c0.552,0,1.088,0.312,1.609,0.151c0.176,0.21,0.445,0.187,0.69,0.31
	c0.221,0.112,0.425,0.373,0.609,0.459c0.291,0.132,0.784,0.224,0.922,0.304c0.339,0.2,0.656,0.229,1.071,0.08
	c0.769,0.567,1.52,0.144,2.296,0.229c0.141,0.015,0.358,0.12,0.535,0.151c0.154,0.029,0.374-0.025,0.46,0
	c0.206,0.061,0.333,0.259,0.537,0.305c0.49,0.114,1.046,0.005,1.45,0c0.325-0.926-0.338-1.351-0.533-2.067
	c-0.298-0.186-0.591-0.378-0.917-0.535c-0.304-0.82-1.291-0.955-1.76-1.605c-0.732-0.163-1.697-0.647-2.528-0.229
	c-1.15-0.344-3.29-0.06-4.442-0.154c-1.22-0.763-2.277-1.97-4.055-1.683c-0.286,0.046-0.6,0.318-0.918,0.307
	c-0.436-0.018-0.61-0.419-1.07-0.613c-0.49-0.206-1.366-0.347-1.838-0.304c-0.364,0.025-0.539,0.289-0.997,0.229
	c-0.218-0.275,0.102-0.525,0.08-0.843c1.433-0.496,2.881-1.164,4.361-1.534c0.489-0.117,1.049-0.31,1.531-0.381
	c0.207-0.031,0.469,0.046,0.688,0c0.54-0.117,0.976-0.407,1.531-0.458c0.823-0.078,1.265-0.041,1.838-0.308
	c0.638,0.557,1.497,0.118,2.296,0.308c0.374,0.088,0.617,0.498,0.994,0.613c0.228,0.065,0.537-0.04,0.766,0
	c0.81,0.132,1.422,0.848,2.143,0.917c0.197,0.132,0.167,0.496,0.46,0.536c0.264,0.02,0.645,0.234,1.147,0.227
	c0.301,0.51,0.974,0.427,1.606,0.613c0.253,0.077,0.371,0.269,0.613,0.31c0.293,0.043,0.581-0.063,0.84,0
	c0.38,0.086,0.689,0.415,1.075,0.458c0.718,0.077,1.398-0.197,1.91-0.31c0.747,0.447,1.452,0.037,2.146,0.155
	c0.502,0.089,0.884,0.461,1.457,0.61c0.178,0.049,0.44-0.023,0.611,0c0.274,0.046,0.471,0.203,0.688,0.232
	c1.069,0.137,2.195-0.181,3.292-0.075c0.457,0.04,0.963,0.227,1.45,0.379c0.736-0.061,1.711-0.009,2.603,0
	c0.185,0.003,0.573-0.224,0.923-0.304c0.386-0.089,0.601-0.066,0.917-0.232c0.122-0.061,0.212-0.031,0.306-0.074
	c1.052-0.439,1.87-1.543,2.067-2.755c0.064-0.393-0.107-0.809-0.078-1.227c-0.355-0.264-0.643-0.616-1.069-0.766
	c-0.601-0.209-1.533,0.04-2.068,0.08c-0.405,0.029-0.69-0.117-1.145-0.154c-0.343-0.031-0.67,0.04-0.998,0
	c-0.864-0.106-1.548-0.562-2.37-0.462c-1.481-0.713-2.479-1.908-3.905-2.677c-0.411,0.132-0.854-0.166-1.303-0.151
	c-0.768,0.02-1.425,0.415-2.143,0.304c-0.206-0.032-0.586-0.207-0.843-0.304c-0.624-0.247-0.84-0.462-1.071-0.998
	c0.116-0.496,0.17-1.052,0.534-1.3c1.314-0.406,3.603-0.135,4.825-0.841c0.104-0.393,0.104-0.987,0-1.38
	c-0.451-0.238-0.732-0.646-1.535-0.533c-0.28-0.28-0.599-0.519-0.839-0.841c-0.006-0.256,0.02-0.581-0.078-0.843
	c-0.153-0.433-1.33-1.635-1.604-1.761c-0.333-0.156-0.727-0.02-0.996-0.23c0-0.383,0-0.766,0-1.148
	c-0.535-0.487-1.717-0.965-2.68-0.536c-0.547-0.371-1.71-0.126-2.062-0.689c1.652-0.804,3.623-0.687,5.05-1.605
	c0.457-0.298,0.799-0.765,1.223-1.075c0.46-0.33,0.956-0.538,1.38-0.919c0.355,0,0.711,0.187,1.07,0.231
	c2.482,0.315,2.881-1.343,4.208-2.68c0.567-0.25,1.242-0.39,1.763-0.688c2.005-0.188,3.36-1.026,5.205-1.377
	c0.251-0.418,0.559-0.41,0.834-0.679c-0.044-0.003-0.085-0.004-0.126-0.004c-0.003,0-0.006,0-0.006-0.001
	c-1.49-0.043-2.863-0.163-4.057,0.288c-0.897,0.341-2.137,0.704-3.062,1.075c-0.444,0.176-0.824,0.441-1.226,0.612
	c-0.537,0.225-1.063,0.342-1.609,0.612c-0.947,0.469-1.858,0.897-3.058,1.3c-0.489,0.165-1.367,0.46-1.76,0.384
	c-0.486-0.096-0.901-0.711-0.921-1.148c-0.022-0.456,0.499-1.332,0.843-1.837c0.397-0.586,0.79-1.274,1.223-1.684
	c0.466-0.443,1.474-1.181,2.22-1.377c0.361-0.093,0.747-0.019,1.07-0.076c0.444-0.08,0.852-0.401,1.303-0.537
	c0.312-0.092,0.637-0.063,0.918-0.152c0.543-0.168,0.953-0.631,1.837-0.536c0.38-0.167,0.721-0.312,1.043-0.45
	c0.186-0.41,0.364-0.818,0.631-1.145c0.122-0.661-0.126-1.049-0.23-1.378c-0.104-0.331-0.066-0.741-0.155-0.919
	c-0.156-0.324-0.625-0.461-0.765-0.767c-0.849,0.105-1.596,0.035-2.298,0.155c-0.607,0.105-1.123,0.615-1.836,0.458
	c-1.407,0.735-3.011,1.276-4.131,2.297c-0.856,0.335-1.639,0.976-2.374,1.303c-0.311,0.133-0.681,0.141-0.994,0.304
	c-0.309,0.158-0.729,0.553-0.996,0.689c-0.672,0.341-1.275,0.983-2.217,0.765c-0.062-0.341-0.26-0.537-0.232-0.842
	c0.048-0.578,0.929-1.148,1.072-1.681c0.024-0.101,0.123-0.026,0.15-0.078c0.319-0.593,0.367-1.138,0.384-1.916
	c-0.322-0.402-0.593-0.688-1.149-0.688c-0.439,0.001-0.765,0.396-1.225,0.307c-0.312,0.513-0.895,0.56-1.378,0.839
	c-0.143,0.088-0.138,0.403-0.383,0.232c-0.403,0.481-0.789,0.892-1.147,1.377c-0.499,0.678-0.769,1.313-1.147,2.143
	c-0.235,0.524-0.64,0.99-0.84,1.456c-0.14,0.311-0.116,0.684-0.232,0.916c-0.293,0.607-1.046,1.115-1.605,1.456
	c-0.185,0.112-0.35,0.262-0.537,0.384c-0.801,0.516-1.396,0.763-2.448,1.069c-0.46,0.133-0.926,0.417-1.302,0.461
	c-0.287,0.031-0.582-0.104-0.918-0.079c-0.234,0.02-0.494,0.175-0.764,0.232c-0.515,0.102-1.082,0.167-1.656,0.219
	c0.076,0.119,0.124,0.268,0.141,0.456c0.011,0.165-0.045,0.387-0.155,0.612c-0.08,0.162-0.228,0.214-0.381,0.384
	c-0.205,0.231-0.454,0.57-0.689,0.764c-0.195,0.164-0.548,0.234-0.766,0.381c-0.268,0.188-0.424,0.441-0.613,0.538
	c-0.429,0.228-0.978,0.391-1.451,0.613c-1.94,0.907-4.428,1.657-6.048,2.983c-0.236,0.195-0.518,0.46-0.766,0.689
	c-0.536,0.503-0.822,0.823-1.608,1.303c-0.291,0.176-0.602,0.371-0.917,0.535c-1.458,0.751-2.975,1.68-5.433,1.3
	c-0.39-0.062-0.831-0.328-1.225-0.458c-0.218-0.075-0.473-0.059-0.688-0.155c-0.345-0.149-0.641-0.43-1.378-0.305
	c-0.466,0.08-0.978,0.584-1.531,0.768c-0.607,0.193-1.337,0.321-1.913,0.378c-0.586,0.06-1.18,0.007-1.684-0.228
	c-0.771-1.121-0.293-2.446,0.613-3.137c-0.708-0.139-1.622-0.364-2.604-0.229c-0.485,0.067-0.887,0.387-1.222,0.382
	c-0.311-0.003-0.57-0.208-0.92-0.382c-0.441-0.221-0.728-0.116-0.766-0.536c-0.048-0.564,1.369-1.258,2.144-1.377
	c0.327-0.051,0.699,0.035,0.917,0c0.381-0.066,0.828-0.319,1.301-0.46c0.477-0.143,0.983-0.175,1.453-0.308
	c0.776-0.215,1.883-0.863,2.603-0.84c0.583,0.018,0.933,0.589,1.608,0.687c0.241,0.039,0.477,0.029,0.708,0.009
	c-0.582-0.247-1.242-0.413-1.875-0.608c-0.347-0.42-0.71-0.819-1.149-1.146c-0.367,0.049-0.646-0.288-0.995-0.384
	c-0.43-0.116-0.916-0.036-1.379-0.153c-0.656-0.159-1.307-0.532-1.99-0.609c-1.283-0.147-2.383,0.285-3.673,0.381
	c-0.361-0.355-0.584-0.517-0.536-0.995c0.031-0.301,0.218-0.316,0.458-0.612c0.173-0.212,0.302-0.532,0.461-0.691
	c0.25-0.252,1.204-0.913,1.528-1.07c0.481-0.234,1.126-0.164,1.532-0.381c0.489-0.267,0.646-0.964,0.229-1.38
	c-0.308-0.304-0.91-0.161-1.684-0.229c-0.493-0.043-0.894-0.192-1.301-0.152c-0.202,0.017-0.527,0.099-0.765,0.152
	c-1.209,0.268-2.114,0.595-3.291,1.072c-0.861,0.35-1.814,0.563-2.604,0.918c-0.188,0.086-0.337,0.287-0.536,0.384
	c-0.569,0.275-1.4,0.435-2.142,0.766c-1.043,0.461-1.799,0.765-2.687,0.713c0.145,0.227,0.282,0.45,0.413,0.651
	c0.563,0.07,0.678,0.592,1.225,0.762c0.221,0.073,0.588-0.04,0.919,0.079c0.299,0.104,0.384,0.287,0.689,0.537
	c0.211,0.172,0.53,0.294,0.689,0.458c0.343,0.355,0.452,0.793,0.841,0.993c0.524,0.275,1.464,0.159,1.836,0.46
	c0.434,0.35,0.704,1.639,0.612,1.99c-0.149,0.572-0.969,0.895-1.608,1.148c-0.737,0.294-1.387,0.469-2.065,0.687
	c-0.261,0.199-0.464,0.456-0.841,0.535c-1.532,1.635-2.557,3.775-3.139,6.354c-1.224,0.822-2.603,1.625-4.208,2.222
	c-0.252,0.092-0.59,0.12-0.844,0.229c-0.236,0.101-0.388,0.31-0.61,0.385c-0.701,0.234-1.528,0.141-2.221,0.381
	c-0.307,0.109-0.591,0.295-0.846,0.524c0.067,0.126,0.125,0.261,0.135,0.41c-0.354,0.246-0.792,0.628-0.818,1.152
	c0.049,0.126,0.086,0.261,0.072,0.39c0.604,0.398,1.327,0.384,1.97,0.677c0.629,0.286,1.029,0.905,1.762,0.997
	c0.579,0.068,0.954-0.203,1.453-0.307c0.941-0.201,1.648,0.025,2.525,0.229c0.453,0.516,1.287,0.653,1.686,1.224
	c0.226,0.08,0.507,0.104,0.688,0.229c-0.575,0.298-1.278,0.679-1.987,0.997c-0.372,0.16-0.738,0.095-1.229,0.149
	c-0.725,0.086-1.535,0.415-2.294,0.613c-0.84,0.218-1.712,0.604-2.375,0.613c-0.523,0.009-1.007-0.27-1.452-0.307
	c-1.277-0.115-2.158,0.197-2.843,0.699c0.036,0.018,0.075,0.034,0.11,0.052c0.587-0.104,0.81-0.57,1.53-0.536
	c0.154,0.693-0.587,1.003-0.917,1.453c-0.496,0.321-0.866,0.769-1.301,1.146c0.017,1.958-2.498,1.382-3.061,2.757
	c-0.338,1.075,0.188,2.265,0.152,3.214c-0.684,0.034-1.059-0.522-1.562-0.921c0.121,0.244,0.274,0.428,0.543,0.705
	c0.774,0.809,2.049,1.456,3.444,1.534c0.438,0.479,1.144,0.438,1.683,0.69c0.224,0.101,0.373,0.31,0.616,0.378
	c0.516,0.158,1.029-0.057,1.528,0.232c0.862-0.255,1.632-0.35,2.3-0.458c0.328-0.055,0.684-0.192,0.993-0.232
	c0.315-0.037,0.61,0.132,0.917,0.08c0.634-0.104,1.373-0.539,1.989-0.997c0.987-0.726,1.76-1.425,2.374-2.296
	c0.408-1.216,0.536-2.225,0.155-3.445c0.322-0.338,0.544-0.782,0.994-0.995c0.687,0.029,1.091,0.477,1.532,0.613
	c0.133,0.041,0.394-0.043,0.613,0c0.176,0.035,0.291,0.149,0.458,0.155c0.563,0.015,2.124-0.35,2.371-0.769
	c0.35-0.59-0.185-1.151-0.457-1.604c-0.476-0.797-0.749-1.56-0.995-2.376c0.333-0.591,0.817-0.648,1.146-1.069
	c0.281-0.361,0.347-0.843,0.461-1.382c0.067-0.32,0.189-0.63,0.229-0.914c0.033-0.258-0.086-0.505,0-0.769
	c0.078-0.24,0.361-0.449,0.533-0.765c0.429-0.782,0.542-1.379,1.456-1.528c0.516,0.333,0.906,0.104,1.378,0.305
	c0.734,0.312,1.137,1.229,1.912,1.53c0.636,0.246,1.55,0.218,2.373,0.384c0.347,0.069,0.633,0.275,0.918,0.307
	c0.807,0.086,1.386-0.27,1.991-0.154c0.236,0.046,0.29,0.206,0.536,0.384c0.576,0.418,1.033,0.892,1.375,1.376
	c1.601,0.209,2.78,1.398,4.443,1.61c0.57,0.069,1.292,0,1.912,0c0.613-0.006,1.221,0.061,1.686,0
	c0.157-0.022,0.311-0.148,0.46-0.157c0.285-0.003,0.689,0.148,0.993,0.157c0.355,0.009,0.666-0.062,0.995,0
	c-0.926,0.605-2.325,0.734-2.297,2.293c0.898,0.333,1.621-0.012,2.833,0.08c0.221,0.132,0.418,0.247,0.689,0.305
	c1.337,0.286,2.546-0.224,2.755,0.994c-0.243,0.37-0.579,0.645-0.69,1.146c0.33,0.57,0.742,1.046,1.532,1.149
	c0.493,0.914,0.553,1.462,1.453,1.837c0.631,0.261,0.978,0.407,1.837,0.307c0.658-0.08,1.44-0.498,2.375-0.84
	c0.646-0.24,1.497-0.326,1.837-0.538c0.23-0.144,0.315-0.422,0.535-0.611c0.538-0.47,1.278-0.688,1.684-0.994
	c0.48-0.625,0.978-1.307,1.84-1.456C63.733,64.757,63.967,64.868,64.161,64.859z"/>
</svg>
