<?xml version="1.0" encoding="utf-8"?>
<!-- Generator: Adobe Illustrator 16.0.0, SVG Export Plug-In . SVG Version: 6.00 Build 0)  -->
<!DOCTYPE svg PUBLIC "-//W3C//DTD SVG 1.1//EN" "http://www.w3.org/Graphics/SVG/1.1/DTD/svg11.dtd">
<svg version="1.1" id="Layer_1" xmlns="http://www.w3.org/2000/svg" xmlns:xlink="http://www.w3.org/1999/xlink" x="0px" y="0px"
	 width="50px" height="50px" viewBox="0 0 50 50" enable-background="new 0 0 50 50" xml:space="preserve">
<path fill="#231F20" d="M16.77,46.371c1.798,0.23,3.626,0.269,5.418-0.161c1.234-0.291,2.555-1.16,2.786-2.565
	c0.235-1.351-0.23-2.658-0.757-3.833c-0.196-0.355-0.365-0.72-0.514-1.091c0.047-0.084,0.094-0.171,0.141-0.256
	c0.402-0.501,0.784-1.019,1.142-1.553c1.176-1.323,2.254-2.734,3.204-4.23c0.162-0.266,0.322-0.534,0.454-0.821
	c0.031-0.073,0.062-0.146,0.083-0.228c0.004-0.045,0.032-0.077-0.009-0.154c-0.088-0.068-0.129-0.006-0.168,0.003
	c-0.144,0.089-0.251,0.201-0.363,0.312c-0.213,0.286-0.529,0.522-0.856,0.582c0.226-0.591,0.427-1.188,0.603-1.795
	c0.179-0.1,0.343-0.223,0.484-0.359c0.476-0.431,0.822-0.973,1.146-1.515c0.305-0.549,0.647-1.104,0.714-1.758
	c0.014-0.159-0.078-0.368-0.264-0.396c-0.17-0.034-0.331,0.016-0.483,0.063c-0.134,0.051-0.264,0.111-0.39,0.179
	c0.283-0.816,0.501-1.655,0.634-2.514c0.256-1.649,0.176-3.393-0.392-4.985c0.869,0.834,1.797,1.607,2.799,2.299
	c-1.054-0.783-2.018-1.653-2.91-2.589c-0.108-0.273-0.23-0.542-0.37-0.804c-0.558-1.102-1.438-2.031-2.48-2.701
	c-0.047-0.065-0.093-0.132-0.14-0.199c0.151-0.285,0.313-0.566,0.489-0.84c0.572-1.076,0.854-2.591-0.043-3.643
	c-0.839-0.961-2.063-1.361-3.23-1.647c-0.616-1.13-1.432-2.16-2.395-3.008c-0.201-0.174-0.405-0.345-0.614-0.513
	c-0.822-0.924-1.937-1.613-3.145-1.927c-0.22-0.055-0.44-0.1-0.66-0.137c-0.617-0.275-1.293-0.416-1.974-0.362
	c-0.62,0.062-1.202,0.228-1.75,0.468c-0.045-0.016-0.091-0.03-0.136-0.045c-0.436-0.669-0.608-0.901-1.267-2.027
	s-5.999-2.161,0.09,5.236c1.201,0.955,2.639,1.602,4.161,1.825c0.894,1.03,1.838,2.016,2.846,2.946
	c0.249,0.223,0.503,0.442,0.761,0.657c0.102,0.398,0.195,0.799,0.295,1.198c0.982,3.917,1.852,7.902,3.286,11.689
	c-0.363,2.396-0.736,4.812-0.797,7.268c-0.024,0.803-0.005,1.62,0.072,2.434c-0.165,0.352-0.32,0.707-0.463,1.07
	c-0.169,0.428-0.317,0.871-0.438,1.324c-0.675,0.605-1.37,1.189-2.078,1.753c0.7-0.542,1.389-1.104,2.061-1.687
	c-0.114,0.437-0.204,0.882-0.264,1.33c-1.644,2.001-3.774,3.612-6.141,4.676c2.355-1.047,4.483-2.639,6.133-4.618
	c-0.078,0.618-0.1,1.241-0.05,1.856c-1.143,0.843-2.403,1.497-3.835,1.666c1.43-0.16,2.691-0.805,3.838-1.637
	c0.007,0.094,0.017,0.188,0.029,0.282c-3.572,3.264-8.565,5.116-13.442,4.282c4.677,0.913,9.579-0.672,13.247-3.684
	c-0.998,1.472-2.148,2.839-3.516,3.978c-0.334,0.283-0.689,0.547-1.058,0.789c-0.597-0.07-1.191-0.158-1.777-0.257
	c0.565,0.111,1.138,0.213,1.713,0.299c-1.744,1.121-3.84,1.734-5.917,1.379c1.806,0.331,3.644-0.074,5.257-0.918
	c-3.089,1.882-6.727,2.871-10.384,2.485C9.234,49.785,13.359,48.623,16.77,46.371z M24.983,36.046
	c0.514-1.26,0.926-2.562,1.236-3.89c0.036-0.049,0.07-0.096,0.105-0.145c0.081,0.091,0.166,0.179,0.259,0.261
	c0.044,0.034,0.093,0.063,0.143,0.092C26.259,33.64,25.675,34.876,24.983,36.046z M28.725,27.118c0.026-0.018,0.053-0.033,0.08-0.05
	c-0.069,0.194-0.144,0.388-0.221,0.581c0.025-0.161,0.049-0.321,0.07-0.481C28.678,27.151,28.7,27.134,28.725,27.118z M23.93,24.886
	c0.148-0.821,0.298-1.645,0.438-2.473c-0.079,1.98,0.058,3.972,0.463,5.914c-0.011,0.168-0.022,0.335-0.037,0.503
	c-0.187-0.311-0.36-0.629-0.527-0.937c-0.221-0.464-0.427-0.935-0.625-1.408C23.737,25.953,23.834,25.419,23.93,24.886z
	 M22.602,39.319c-0.176,0.199-0.356,0.395-0.539,0.587c0.046-0.078,0.092-0.155,0.138-0.232
	C22.335,39.557,22.469,39.439,22.602,39.319z M22.252,39.584c0.255-0.447,0.501-0.9,0.739-1.357
	c0.037,0.102,0.077,0.201,0.116,0.303c-0.097,0.185-0.196,0.368-0.298,0.55C22.626,39.249,22.441,39.417,22.252,39.584z
	 M23.316,37.588c0.633-1.275,1.199-2.583,1.697-3.917c0.005-0.006,0.011-0.013,0.017-0.02c-0.406,1.469-0.944,2.901-1.613,4.27
	C23.382,37.811,23.348,37.699,23.316,37.588z M26.88,25.051c-0.112-2.581-0.608-5.153-1.51-7.586
	c0.102-0.312,0.212-0.622,0.335-0.926c0.338,0.64,0.647,1.296,0.919,1.965C27.131,20.635,27.239,22.859,26.88,25.051z
	 M25.747,30.062c-0.042-0.039-0.084-0.079-0.124-0.121c0.053-0.06,0.107-0.119,0.16-0.18C25.771,29.861,25.759,29.961,25.747,30.062
	z M25.659,30.7c-0.076-0.184-0.145-0.37-0.208-0.56c0.036-0.043,0.072-0.085,0.108-0.126c0.056,0.056,0.114,0.11,0.173,0.162
	C25.709,30.353,25.685,30.526,25.659,30.7z M25.432,30.084c-0.034-0.104-0.066-0.209-0.098-0.314
	c0.061,0.07,0.123,0.142,0.188,0.208C25.492,30.014,25.462,30.048,25.432,30.084z M25.263,29.521c-0.06-0.21-0.115-0.42-0.171-0.626
	c-0.062-0.271-0.119-0.542-0.171-0.814c0.121-2.129-0.027-4.282-0.337-6.395c0.005-0.063,0.009-0.127,0.014-0.191
	c0.052-0.641,0.132-1.279,0.246-1.91c0.981,3.131,1.304,6.491,0.983,9.781c-0.01,0.102-0.021,0.204-0.033,0.306
	c-0.069,0.077-0.138,0.155-0.206,0.232C25.472,29.784,25.366,29.654,25.263,29.521z M24.861,27.753
	c-0.323-1.839-0.411-3.72-0.308-5.584C24.809,24.017,24.936,25.892,24.861,27.753z M21.894,9.149c0.004,0,0.008,0,0.012,0.001
	c0.009,0.013,0.018,0.026,0.027,0.04C21.92,9.175,21.908,9.162,21.894,9.149z M25.579,16.302c-0.117,0.284-0.224,0.573-0.322,0.866
	c-0.079-0.205-0.16-0.407-0.245-0.609c0.01-0.415,0.01-0.831-0.004-1.25C25.206,15.635,25.397,15.966,25.579,16.302z M21.812,11.175
	c-0.013-0.035-0.025-0.07-0.038-0.104c0.403,0.429,0.792,0.869,1.164,1.32c0.219,0.267,0.434,0.54,0.643,0.817
	c0.048,0.24,0.091,0.484,0.127,0.728c-0.054-0.093-0.107-0.186-0.163-0.278C23.037,12.792,22.455,11.96,21.812,11.175z
	 M21.531,10.84c-0.067-0.079-0.136-0.158-0.206-0.236c0.064,0.064,0.127,0.13,0.19,0.196C21.521,10.813,21.526,10.827,21.531,10.84z
	 M19.746,6.914c0.046,0.077,0.092,0.155,0.137,0.232c0.055,0.108,0.108,0.22,0.162,0.329c-0.93-0.748-1.922-1.42-2.963-2.005
	c0.017,0.004,0.035,0.009,0.052,0.014C18.037,5.726,18.925,6.279,19.746,6.914z M20.071,7.17c0.03,0.025,0.06,0.048,0.089,0.072
	c0.571,0.474,1.081,1.013,1.525,1.602c-0.037-0.005-0.074-0.011-0.112-0.015c-0.398-0.388-0.81-0.761-1.237-1.117
	C20.249,7.531,20.161,7.351,20.071,7.17z M26.646,30.745c0.104,0.034,0.206,0.055,0.31,0.062c-0.211,0.337-0.43,0.667-0.656,0.992
	c0.08-0.368,0.152-0.738,0.217-1.109C26.561,30.709,26.603,30.729,26.646,30.745z M23.236,37.283
	c-0.116-0.463-0.204-0.932-0.269-1.404c0.011-0.02,0.021-0.04,0.03-0.06c0.534-0.521,1.052-1.059,1.55-1.615
	C24.152,35.249,23.715,36.275,23.236,37.283z M22.952,35.767c-0.081-0.631-0.119-1.27-0.125-1.908
	c0.474-0.854,1.014-1.674,1.604-2.456c-0.146,0.72-0.331,1.433-0.559,2.136c-0.231,0.753-0.524,1.481-0.872,2.181
	C22.984,35.734,22.968,35.75,22.952,35.767z M24.515,31.291c0.271-0.354,0.552-0.701,0.841-1.04
	c0.079,0.229,0.167,0.454,0.268,0.672c-0.005,0.032-0.011,0.063-0.016,0.096c-0.284,0.98-0.602,1.95-0.956,2.908
	c-0.497,0.581-1.016,1.144-1.553,1.69c0.324-0.663,0.601-1.351,0.822-2.062C24.166,32.81,24.362,32.054,24.515,31.291z
	 M24.535,31.19c0.136-0.693,0.237-1.392,0.306-2.095c0.091,0.143,0.186,0.282,0.286,0.415c0.065,0.229,0.134,0.457,0.21,0.684
	C25.062,30.52,24.794,30.852,24.535,31.19z M24.857,28.935c0.011-0.116,0.021-0.231,0.029-0.348c0.025,0.113,0.051,0.227,0.077,0.34
	c0.028,0.099,0.055,0.198,0.083,0.298C24.981,29.13,24.918,29.033,24.857,28.935z M23.858,17.982
	c-0.159-0.677-0.328-1.353-0.51-2.024c0.191,0.366,0.371,0.738,0.541,1.114c0,0.028,0,0.055-0.001,0.083
	C23.882,17.43,23.872,17.706,23.858,17.982z M21.792,13.419c-0.85-0.532-1.645-1.167-2.398-1.836
	c-0.138-0.469-0.304-0.928-0.523-1.367C19.964,11.159,20.947,12.239,21.792,13.419z M16.398,8.428
	c-0.013-0.001-0.025-0.002-0.038-0.004c-0.012-0.013-0.023-0.026-0.034-0.04C16.35,8.398,16.375,8.414,16.398,8.428z M27.419,20.836
	c0.497,1.824,0.727,3.713,0.61,5.621c-0.031,0.397-0.076,0.793-0.13,1.19c-0.386,0.31-0.754,0.641-1.107,0.986
	c0.049-0.533,0.082-1.067,0.1-1.604c0.117-0.591,0.222-1.185,0.313-1.781C27.478,23.792,27.542,22.307,27.419,20.836z
	 M27.888,27.738c-0.106,0.753-0.251,1.503-0.434,2.243c-0.144,0.251-0.292,0.497-0.443,0.74c-0.112-0.007-0.226-0.027-0.336-0.064
	c-0.049-0.019-0.095-0.039-0.142-0.061c0.064-0.376,0.122-0.755,0.17-1.133c0.03-0.246,0.056-0.494,0.08-0.741
	C27.137,28.378,27.503,28.047,27.888,27.738z M27.262,30.713c-0.018,0.002-0.036,0.004-0.054,0.005
	c0.031-0.049,0.061-0.099,0.093-0.147C27.287,30.617,27.275,30.666,27.262,30.713z M27.234,30.807
	c-0.142,0.492-0.3,0.979-0.474,1.462c-0.038-0.025-0.075-0.053-0.111-0.084c-0.093-0.082-0.178-0.173-0.259-0.265
	c0.262-0.36,0.514-0.729,0.755-1.106C27.175,30.812,27.205,30.81,27.234,30.807z M21.895,40.573
	c-0.227,0.342-0.464,0.678-0.71,1.007c-0.016-0.074-0.031-0.149-0.044-0.226c0.051-0.075,0.102-0.151,0.153-0.229
	C21.499,40.947,21.698,40.763,21.895,40.573z M21.179,41.587c-0.517,0.69-1.075,1.352-1.674,1.978
	c-0.317,0.338-0.649,0.664-0.992,0.979c0.982-0.961,1.846-2.041,2.621-3.181C21.148,41.438,21.163,41.513,21.179,41.587z
	 M21.042,40.6c0.258-0.188,0.511-0.384,0.758-0.588c-0.08,0.135-0.162,0.271-0.244,0.405c-0.159,0.156-0.32,0.313-0.486,0.465
	C21.06,40.787,21.05,40.693,21.042,40.6z M21.101,38.697c0.535-0.645,1.019-1.329,1.444-2.05c0.096,0.446,0.216,0.887,0.358,1.318
	c-0.266,0.535-0.544,1.063-0.834,1.583c-0.073,0.129-0.147,0.256-0.222,0.383c-0.264,0.222-0.532,0.436-0.807,0.639
	C20.993,39.949,21.018,39.319,21.101,38.697z M21.38,37.309c0.371-0.323,0.737-0.652,1.096-0.989
	c0.018,0.09,0.037,0.179,0.056,0.269c-0.418,0.721-0.896,1.405-1.424,2.05C21.171,38.189,21.263,37.745,21.38,37.309z M22.277,34.93
	c0.044,0.441,0.106,0.882,0.187,1.317c-0.348,0.337-0.704,0.668-1.064,0.991c0.121-0.439,0.267-0.87,0.433-1.286
	C21.969,35.605,22.119,35.266,22.277,34.93z M22.859,32.463c0.104-1.933,0.407-3.854,0.747-5.777
	c0.181,0.422,0.367,0.842,0.566,1.258c0.192,0.346,0.388,0.708,0.606,1.058c-0.07,0.772-0.179,1.54-0.329,2.301
	c-0.597,0.791-1.144,1.62-1.624,2.486C22.824,33.346,22.835,32.904,22.859,32.463z M19.627,12.458
	c0.855,0.697,1.766,1.336,2.754,1.836c0.013,0.021,0.026,0.041,0.039,0.061c0.233,0.364,0.453,0.735,0.663,1.113
	c0.275,0.964,0.526,1.937,0.753,2.912c-0.128,2.115-0.454,4.237-0.776,6.362c-0.01,0.063-0.019,0.127-0.029,0.19
	c-1.372-3.721-2.216-7.637-3.167-11.487C19.784,13.118,19.707,12.788,19.627,12.458z M19.011,11.237
	c-0.831-0.787-1.618-1.619-2.37-2.485c0.103,0.007,0.207,0.014,0.31,0.021c0.539,0.35,1.059,0.73,1.559,1.139
	c0.003,0.005,0.006,0.01,0.009,0.015c0.273,0.455,0.472,0.939,0.635,1.44C19.106,11.323,19.059,11.28,19.011,11.237z M11.931,6.651
	c0.014-0.01,0.028-0.02,0.042-0.029c1.024,0.241,2.02,0.59,2.976,1.036c0.179,0.22,0.36,0.438,0.544,0.655
	C14.194,8.056,12.969,7.469,11.931,6.651z M15.793,3.482c-0.588-0.039-1.174-0.021-1.755,0.044c0.224-0.053,0.452-0.094,0.686-0.117
	C15.084,3.38,15.443,3.407,15.793,3.482z M26.144,15.102c-0.203-0.294-0.401-0.591-0.596-0.89c-0.248-0.498-0.516-0.985-0.808-1.458
	c-0.209-1.122-0.556-2.225-1.083-3.272c1.076,0.27,2.163,0.669,2.883,1.491c0.813,0.938,0.584,2.328,0.03,3.393
	C26.419,14.605,26.276,14.852,26.144,15.102z M28.411,18.056c-0.395-0.455-0.773-0.922-1.141-1.399
	C27.709,17.067,28.094,17.536,28.411,18.056z M28.84,26.966c-0.051,0.033-0.101,0.064-0.151,0.097
	c-0.008,0.006-0.016,0.012-0.022,0.017c0.024-0.19,0.048-0.382,0.068-0.571c0.297-3.589-0.574-7.139-2.159-10.339
	c0.68,0.869,1.399,1.703,2.166,2.489c0.845,1.703,1.036,3.693,0.771,5.584C29.383,25.17,29.15,26.081,28.84,26.966z M27.97,30.457
	c0.183-0.644,0.339-1.294,0.466-1.95c0.251-0.527,0.477-1.068,0.672-1.619c0.145-0.08,0.293-0.15,0.445-0.206
	c0.271-0.126,0.696-0.105,0.65,0.266c-0.062,0.613-0.404,1.178-0.709,1.719c-0.322,0.538-0.669,1.072-1.136,1.49
	C28.24,30.269,28.11,30.371,27.97,30.457z M25.22,36.555c0.821-1.276,1.511-2.639,2.062-4.057c0.077-0.006,0.154-0.022,0.229-0.053
	c0.312-0.109,0.539-0.361,0.746-0.582c0.107-0.108,0.22-0.222,0.341-0.298c0.116-0.128,0.004,0.153-0.04,0.257
	c-0.126,0.28-0.284,0.548-0.443,0.814C27.251,34.012,26.278,35.32,25.22,36.555z M16.854,46.313
	c1.067-0.713,2.065-1.531,2.965-2.439c0.537-0.531,1.043-1.09,1.521-1.672c0.117,0.373,0.266,0.738,0.452,1.091
	c-0.185-0.354-0.333-0.721-0.448-1.095c0.766-0.932,1.455-1.926,2.067-2.967c0.125,0.262,0.26,0.52,0.408,0.771
	c0.546,1.12,1.01,2.362,0.829,3.583c-0.166,1.25-1.319,2.084-2.521,2.412C20.422,46.461,18.63,46.483,16.854,46.313z"/>
</svg>
