<?xml version="1.0" encoding="utf-8"?>
<!-- Generator: Adobe Illustrator 16.0.0, SVG Export Plug-In . SVG Version: 6.00 Build 0)  -->
<!DOCTYPE svg PUBLIC "-//W3C//DTD SVG 1.1//EN" "http://www.w3.org/Graphics/SVG/1.1/DTD/svg11.dtd">
<svg version="1.1" id="Layer_1" xmlns="http://www.w3.org/2000/svg" xmlns:xlink="http://www.w3.org/1999/xlink" x="0px" y="0px"
	 width="50px" height="50px" viewBox="0 0 50 50" enable-background="new 0 0 50 50" xml:space="preserve">
<path fill="#999999" d="M36.103,17.615c0.65,1.222,2.227,4.547,2.227,8.126c0,4.508-3.897,9.018-5.456,10.354
	c-1.558,1.334-6.177,6.105-6.177,6.105s2.818-3.453,4.954-5.885c1.713-1.953,4.729-6.287,4.729-10.854
	c0-3.583-1.335-6.404-1.909-7.453c-0.354,0.046-0.709,0.071-1.06,0.071c-0.254,0-0.501-0.019-0.748-0.041
	c0.87,0.918,2.549,3.203,2.549,7.201c0,5.399-3.214,8.782-5.288,11.409c-2.301,2.914-4.711,5.994-4.711,5.994
	c-0.077,0.111-0.147,0.229-0.213,0.348c-0.065-0.119-0.136-0.234-0.211-0.348c0,0-2.412-3.08-4.713-5.994
	c-2.075-2.627-5.287-6.01-5.287-11.409c0-3.998,1.676-6.283,2.547-7.201c-0.247,0.022-0.493,0.041-0.747,0.041
	c-0.351,0-0.707-0.025-1.06-0.071c-0.575,1.049-1.91,3.87-1.91,7.455c0,4.562,3.017,8.898,4.731,10.852
	c2.133,2.432,4.954,5.885,4.954,5.885s-4.619-4.771-6.177-6.105c-1.559-1.338-5.455-5.846-5.455-10.354
	c0-3.579,1.575-6.904,2.227-8.126c-0.621-0.223-1.18-0.513-1.678-0.847c-0.576,1.293-1.829,4.601-1.829,8.973
	c0,5.676,5.288,10.908,7.625,12.967c2.338,2.062,6.011,4.23,6.011,7.514c0,3.285-3.654,2.58-4.229,0.279
	c-0.553-2.215,0.668-4.562,0.946-4.896l-1.78-1.615c0,0-0.947,2.504-0.947,5.008c0,2.508,1.392,4.842,4.397,4.842
	c1.145,0,2.03-0.645,2.586-1.596c0.556,0.949,1.441,1.596,2.586,1.596c3.006,0.002,4.397-2.336,4.397-4.842
	c0-2.504-0.946-5.008-0.946-5.008l-1.781,1.613c0.278,0.336,1.5,2.684,0.946,4.898c-0.575,2.301-4.229,3.006-4.229-0.279
	c0-3.283,3.673-5.451,6.011-7.514c2.337-2.059,7.624-7.291,7.624-12.967c0-4.373-1.252-7.68-1.828-8.973
	C37.281,17.103,36.724,17.392,36.103,17.615z"/>
<g>
	<circle fill="#333333" cx="13.063" cy="21.864" r="0.631"/>
	<circle fill="#333333" cx="12.655" cy="24.98" r="0.631"/>
	<circle fill="#333333" cx="14.326" cy="18.45" r="0.631"/>
	<circle fill="#333333" cx="14.963" cy="32.669" r="0.326"/>
	<circle fill="#333333" cx="12.952" cy="28.135" r="0.632"/>
	<circle fill="#333333" cx="15.887" cy="34.111" r="0.257"/>
	<circle fill="#333333" cx="13.967" cy="30.708" r="0.469"/>
	<circle fill="#333333" cx="36.937" cy="21.864" r="0.631"/>
	<circle fill="#333333" cx="37.345" cy="24.98" r="0.631"/>
	<circle fill="#333333" cx="35.675" cy="18.45" r="0.631"/>
	<circle fill="#333333" cx="35.037" cy="32.669" r="0.327"/>
	<circle fill="#333333" cx="34.113" cy="34.111" r="0.257"/>
	<circle fill="#333333" cx="36.032" cy="30.708" r="0.468"/>
	<circle fill="#333333" cx="37.048" cy="28.134" r="0.631"/>
	<path fill="#333333" d="M45.611,10.936c-0.626-1.616-2.669-3.232-6.222-1.551c-1.446-0.855-3.06-1.237-4.519-1.408
		c0.014-0.082,0.024-0.164,0.024-0.25c0-0.983-0.797-1.781-1.78-1.781c-0.984,0-1.782,0.798-1.782,1.782
		c0,0.049,0.006,0.097,0.012,0.145c-1.096,0.123-2.016,0.659-2.75,1.293c-1.525-2.583-1.628-4.185-1.628-4.185h-1.959h-0.015h-1.959
		c0,0-0.102,1.602-1.629,4.185c-0.733-0.633-1.653-1.17-2.748-1.293c0.004-0.048,0.01-0.096,0.01-0.145
		c-0.001-0.984-0.798-1.782-1.781-1.782c-0.984,0-1.781,0.798-1.781,1.781c0,0.086,0.01,0.167,0.024,0.25
		c-1.461,0.17-3.073,0.552-4.518,1.408C7.058,7.704,5.015,9.32,4.388,10.936c-0.667,1.727,1.225,3.241,2.505,3.229
		c0.009,0,0.016-0.002,0.025-0.002c-0.387,1.201-0.62,2.625-0.645,4.325l3.229,7.198c0,0,0.519-2.672,0.928-4.75
		c0.397-2.028-1.327-3.668-2.651-2.742c-0.032,0.022-0.063,0.045-0.094,0.071c-1.044,0.84-0.163-5.042,4.411-7.658
		c-0.867,0.628-2.015,1.875-2.391,2.334c0.857,1.55,2.599,4.175,5.816,4.619c2.833,0.391,5.597-0.782,7.404-2.97
		c0.571,0.685,0.881,2.56,0.881,3.305c0,0.306,0,0.615,0,0.899c-0.919-1.095-3.384-1.077-3.729,0.937
		c-0.389,2.282-1.781,2.727-1.781,2.727c0.057-1.613-1.836-1.334-2.281-0.389c-0.445,0.945,0.39,2.281,1.614,2.281
		c1.224,0,1.615,0,1.615,0s0.277,0.334-0.501,2.339c-0.779,2.004-3.451,1.725-3.451,1.725c0.724,1.727,3.005,2.838,5.789,1.836
		c2.783-1,3.729-3.896,3.729-3.896h0.164h0.059h0.164c0,0,0.947,2.896,3.73,3.896c2.781,1.002,5.063-0.109,5.787-1.836
		c0,0-2.671,0.279-3.451-1.725c-0.777-2.004-0.501-2.339-0.501-2.339s0.39,0,1.614,0c1.226,0,2.06-1.336,1.614-2.281
		c-0.445-0.946-2.336-1.224-2.282,0.389c0,0-1.391-0.445-1.78-2.727c-0.345-2.014-2.81-2.032-3.729-0.937c0-0.285,0-0.593,0-0.899
		c0-0.745,0.309-2.621,0.879-3.307c1.806,2.19,4.571,3.364,7.406,2.973c3.218-0.444,4.958-3.069,5.816-4.619
		c-0.377-0.459-1.524-1.705-2.39-2.333c4.572,2.616,5.453,8.498,4.41,7.657c-0.032-0.026-0.063-0.049-0.096-0.071
		c-1.325-0.926-3.05,0.714-2.65,2.743c0.406,2.078,0.928,4.75,0.928,4.75l3.228-7.198c-0.024-1.699-0.259-3.124-0.644-4.325
		c0.008,0,0.016,0.002,0.024,0.002C44.387,14.177,46.28,12.662,45.611,10.936z M9.279,20.009c0.26,1.261-0.037,3.525-0.037,3.525
		l-0.594-1.818c0,0,0.742-1.149-0.631-1.41l-0.37-0.965C7.646,19.341,9.019,18.748,9.279,20.009z M7.472,12.786
		c-0.151,0.093-0.322,0.154-0.523,0.155C5.724,12.94,5,11.771,5.558,10.881c0.507-0.811,1.607-1.38,2.884,0.376
		C8.083,11.706,7.757,12.214,7.472,12.786z M33.152,9.397c1.692,0,3.121,0.382,4.32,0.982c-2.864,1.363-5.614,1.68-7.426,0.457
		C31.028,10.075,32.175,9.396,33.152,9.397z M16.849,9.397c0.976,0,2.123,0.678,3.104,1.439c-1.812,1.223-4.56,0.906-7.425-0.457
		C13.727,9.779,15.154,9.397,16.849,9.397z M16.336,16.855c-4.045,0-5.714-3.896-5.714-3.896s1.559,3.524,5.714,3.524
		c7.94,0,8.349-9.313,8.349-9.313C24.685,14.332,20.382,16.855,16.336,16.855z M23.138,27.411c-2.06,2.838-5.845,1.67-5.845,1.67
		c1.726,0,2.727-2.115,2.727-2.115s1.282,1.947,2.449,1.002c1.169-0.945-1.057-2.672-1.057-2.672
		c2.114-0.556,2.449-3.394,2.004-4.452c-0.445-1.058-2.115-0.446-2.115,0.5c0,0.945,0.946,1.168,0.946,1.168
		s-1.781,0.39-1.781-1.168c0-1.892,2.06-2.338,2.616-1.614C24.472,21.957,24.14,25.964,23.138,27.411z M25,15.087
		c-0.118-1.064-0.57-1.884-0.897-2.359c0.536-1.133,0.858-2.425,0.897-3.833c0.04,1.408,0.363,2.698,0.899,3.832
		C25.57,13.203,25.117,14.026,25,15.087z M26.918,19.73c0.558-0.723,2.617-0.278,2.616,1.614c0,1.559-1.781,1.168-1.781,1.168
		s0.946-0.223,0.946-1.168c0-0.946-1.669-1.558-2.114-0.5s-0.112,3.896,2.003,4.452c0,0-2.227,1.725-1.058,2.672
		c1.169,0.945,2.449-1.002,2.449-1.002s1.002,2.115,2.728,2.115c0,0-3.784,1.168-5.843-1.67
		C25.861,25.964,25.527,21.957,26.918,19.73z M39.378,12.959c0,0-1.67,3.896-5.715,3.896c-4.044,0-8.347-2.523-8.347-9.685
		c0,0,0.407,9.313,8.347,9.313C37.819,16.484,39.378,12.959,39.378,12.959z M41.982,20.306c-1.373,0.26-0.632,1.411-0.632,1.411
		l-0.593,1.818c0,0-0.296-2.264-0.036-3.525c0.258-1.261,1.632-0.668,1.632-0.668L41.982,20.306z M43.051,12.941
		c-0.199,0-0.371-0.061-0.523-0.155c-0.284-0.573-0.61-1.08-0.97-1.528c1.278-1.757,2.378-1.188,2.885-0.377
		C44.999,11.771,44.275,12.94,43.051,12.941z"/>
</g>
<g>
	<g>
		<path fill="#666666" d="M23.602,34.515c-1.135-1.098-2.138-2.76-2.402-3.893c-0.419,0.131-0.912,0.221-1.48,0.221
			c0,0-0.279,1.523,3.189,4.949c-0.976,0.801-1.776,1.361-1.776,1.361l0.693,0.945c0.37-0.316,1.077-0.922,1.84-1.584
			c0.081,0.074,0.166,0.15,0.249,0.227c-0.789,0.686-1.522,1.314-1.892,1.627l0.78,1.064c0.82-0.619,1.546-1.199,2.196-1.748
			c0.652,0.549,1.377,1.129,2.198,1.748l0.778-1.064c-0.369-0.312-1.102-0.941-1.892-1.627c0.084-0.076,0.168-0.152,0.249-0.227
			c0.763,0.662,1.47,1.268,1.84,1.584l0.694-0.945c0,0-0.8-0.561-1.776-1.361c3.47-3.426,3.189-4.949,3.189-4.949
			c-0.568,0-1.061-0.09-1.48-0.223c-0.264,1.135-1.266,2.797-2.401,3.895c-0.112,0.107-0.24,0.227-0.376,0.354
			c-0.083-0.076-0.164-0.152-0.245-0.23c0.142-0.129,0.275-0.252,0.389-0.363c1.104-1.045,2.097-2.758,2.322-3.766
			c-1.015-0.408-1.511-1.037-1.511-1.037c0,0.723-0.104,1.977-1.28,3.559c-0.204,0.275-0.442,0.555-0.698,0.828
			c-0.255-0.273-0.493-0.553-0.697-0.826c-1.177-1.584-1.28-2.838-1.28-3.561c0,0-0.497,0.629-1.511,1.037
			c0.225,1.008,1.218,2.721,2.321,3.766c0.115,0.111,0.248,0.234,0.39,0.363c-0.082,0.078-0.163,0.154-0.245,0.23
			C23.842,34.741,23.713,34.622,23.602,34.515z"/>
		<path fill="#666666" d="M25,35.341c0.083,0.074,0.167,0.148,0.252,0.225C25.168,35.64,25.085,35.714,25,35.79
			c-0.084-0.076-0.169-0.15-0.251-0.225C24.833,35.489,24.917,35.415,25,35.341z"/>
	</g>
	<circle fill="#666666" cx="13.62" cy="20.269" r="0.631"/>
	<circle fill="#666666" cx="12.618" cy="26.576" r="0.63"/>
	<circle fill="#666666" cx="16.404" cy="34.702" r="0.257"/>
	<circle fill="#666666" cx="15.407" cy="33.411" r="0.326"/>
	<circle fill="#666666" cx="13.37" cy="29.518" r="0.565"/>
	<path fill="#666666" d="M14.434,31.415c-0.217,0-0.391,0.176-0.391,0.393c0,0.213,0.174,0.391,0.391,0.391
		c0.216,0,0.392-0.178,0.392-0.391C14.826,31.591,14.65,31.415,14.434,31.415z"/>
	<circle fill="#666666" cx="12.729" cy="23.385" r="0.63"/>
	<circle fill="#666666" cx="37.271" cy="23.385" r="0.63"/>
	<circle fill="#666666" cx="34.593" cy="33.411" r="0.327"/>
	<circle fill="#666666" cx="33.597" cy="34.702" r="0.257"/>
	<circle fill="#666666" cx="37.382" cy="26.577" r="0.631"/>
	<path fill="#666666" d="M36.382,19.638c-0.351,0-0.634,0.282-0.634,0.631c0,0.348,0.283,0.63,0.634,0.63
		c0.347,0,0.63-0.282,0.63-0.63C37.012,19.92,36.729,19.638,36.382,19.638z"/>
	<path fill="#666666" d="M35.958,31.808c0-0.217-0.175-0.393-0.392-0.393c-0.216,0-0.393,0.176-0.393,0.393
		c0,0.213,0.176,0.391,0.393,0.391S35.958,32.021,35.958,31.808z"/>
	<circle fill="#666666" cx="36.629" cy="29.517" r="0.565"/>
	<path fill="#666666" d="M25.631,0.232c0,0,0.445,2.152-0.521,2.152v2.299h1.782c0,0,0-1.335,0.891-1.335
		C27.783,3.349,27.264,0.232,25.631,0.232z M26.261,3.683c-0.347,0-0.63-0.282-0.63-0.631c0-0.348,0.283-0.631,0.63-0.631
		c0.35,0,0.632,0.283,0.632,0.631C26.893,3.401,26.61,3.683,26.261,3.683z"/>
	<path fill="#666666" d="M24.369,0.232c-1.632,0-2.151,3.116-2.151,3.116c0.89,0,0.89,1.335,0.89,1.335h1.782V2.385
		C23.923,2.385,24.369,0.232,24.369,0.232z M23.739,3.683c-0.349,0-0.632-0.282-0.632-0.63c0-0.349,0.284-0.632,0.632-0.632
		c0.348,0,0.63,0.283,0.63,0.631C24.369,3.401,24.086,3.683,23.739,3.683z"/>
	<circle fill="#666666" cx="43.177" cy="11.549" r="0.631"/>
	<circle fill="#666666" cx="6.837" cy="11.549" r="0.631"/>
</g>
</svg>
