<?xml version="1.0" encoding="utf-8"?>
<!-- Generator: Adobe Illustrator 16.0.0, SVG Export Plug-In . SVG Version: 6.00 Build 0)  -->
<!DOCTYPE svg PUBLIC "-//W3C//DTD SVG 1.1//EN" "http://www.w3.org/Graphics/SVG/1.1/DTD/svg11.dtd">
<svg version="1.1" id="Layer_1" xmlns="http://www.w3.org/2000/svg" xmlns:xlink="http://www.w3.org/1999/xlink" x="0px" y="0px"
	 width="50px" height="50px" viewBox="0 0 50 50" enable-background="new 0 0 50 50" xml:space="preserve">
<path fill="#231F20" d="M45.281,31.159c1.4-2.002,2.226-4.438,2.226-7.066c0-6.814-5.525-12.338-12.339-12.338
	c-5.856,0-10.755,4.08-12.02,9.552c-0.376-0.069-0.763-0.108-1.158-0.108c-2.185,0-4.111,1.109-5.247,2.795
	c-1.019-0.705-2.255-1.119-3.589-1.119c-3.04,0-5.578,2.146-6.184,5.005c-0.259-0.084-0.536-0.131-0.824-0.131
	c-1.471,0-2.665,1.193-2.665,2.666c0,0.257,0.038,0.506,0.106,0.741c-1.614,0.25-2.848,1.608-2.848,3.252
	c0,1.82,1.514,3.297,3.383,3.297h40.608c1.868,0,3.384-1.477,3.384-3.297C48.115,32.771,46.888,31.414,45.281,31.159z"/>
</svg>
