<?xml version="1.0" encoding="utf-8"?>
<!-- Generator: Adobe Illustrator 16.0.0, SVG Export Plug-In . SVG Version: 6.00 Build 0)  -->
<!DOCTYPE svg PUBLIC "-//W3C//DTD SVG 1.1//EN" "http://www.w3.org/Graphics/SVG/1.1/DTD/svg11.dtd">
<svg version="1.1" xmlns="http://www.w3.org/2000/svg" xmlns:xlink="http://www.w3.org/1999/xlink" x="0px" y="0px" width="50px"
	 height="50px" viewBox="0 0 50 50" enable-background="new 0 0 50 50" xml:space="preserve">
<g id="Layer_2">
	<path fill-rule="evenodd" clip-rule="evenodd" d="M39.276,5.947c-0.083,0.118,0.235-0.023,0.168,0.167
		c-0.301,0.062-0.602,0.146-0.902,0.482c0.109,0.182-0.009,0.365-0.042,0.547c-0.286,0.305-0.571,0.567-0.799,0.881
		c-0.132,0.183-0.16,0.359-0.336,0.504c-0.149,0.125-0.38,0.142-0.546,0.251c-0.111,0.074-0.201,0.202-0.314,0.273
		c-0.187,0.118-0.468,0.136-0.693,0.231c-0.166,0.069-0.285,0.196-0.398,0.23c-0.469,0.144-0.99,0.007-1.406,0.147
		c-1.745-0.1-3.468-0.613-5.291-0.882c-0.247-0.037-0.533-0.107-0.882-0.168c-0.177-0.031-0.822-0.17-0.881-0.125
		c-0.042,0.03-0.127,0.581-0.169,0.756c-0.072,0.294-0.131,0.568-0.21,0.755c-0.357,0.856-1.026,2.107-1.596,2.855
		c-0.167,0.221-0.405,0.421-0.609,0.693c-0.264,0.354-0.449,0.756-0.63,1.134c-0.172,0.363-0.214,0.733-0.356,1.112
		c-0.125,0.334-0.296,0.638-0.399,0.945c-0.051,0.152-0.038,0.315-0.084,0.462c-0.058,0.184-0.171,0.296-0.188,0.441
		c-0.049,0.39,0.244,1.247,0.335,1.679c0.055,0.261,0.133,0.562,0.209,0.84c0.192,0.691,0.464,1.267,0.736,1.994
		c0.152,0.409,0.389,0.759,0.566,1.155c0.174,0.387,0.307,0.779,0.483,1.154c0.19,0.404,0.491,0.742,0.693,1.154
		c0.077,0.157,0.056,0.349,0.126,0.545c0.174,0.5,0.531,1.089,0.672,1.554c0.097,0.321,0.103,0.705,0.125,1.094
		c0.023,0.368,0.131,0.748,0.106,1.069c-0.024,0.301-0.151,0.594-0.189,0.903c-0.076,0.619-0.02,1.301-0.336,1.849
		c-0.077,0.065-0.154,0.186-0.231,0.188c-0.093,1.232-0.04,2.387-0.335,3.528c-0.22,0.849-0.626,1.75-1.029,2.623
		c-1.149,2.494-3.075,5.589-5.899,7.455c-1.759,1.16-3.523,1.811-5.228,2.16c-1.69,0.347-3.428-0.053-5.208-0.502
		c-0.362-0.092-0.828-0.225-1.176-0.421c-0.148-0.083-0.251-0.221-0.378-0.295c-0.375-0.212-0.746-0.244-1.092-0.502
		c-0.461-0.343-1.013-0.801-1.386-1.303c-0.109-0.148-0.285-0.279-0.377-0.419c-0.09-0.138-0.153-0.417-0.232-0.65
		c-0.236-0.703-0.378-1.342-0.315-2.038c0.036-0.125,0.14-0.136,0.231-0.188c-0.616-1.152-0.461-2.745,0.357-3.926
		c0.273-0.396,0.651-0.694,1.051-0.884c0.227-0.107,0.457-0.275,0.692-0.229c0.148,0.251-0.223,0.504-0.337,0.755
		c0.024,0.124,0.106,0.136,0.148,0.231c0.044,0.104,0.001,0.177,0.105,0.314c0.189,0.253,0.602,0.445,0.903,0.691
		c0.419,0.347,0.811,0.737,1.197,0.945c0.46,0.251,0.902,0.168,1.321,0.484c0.329,0.018,0.659,0.039,0.988-0.104
		c-0.92-0.522-1.479-1.354-1.534-2.163c-0.014-0.225,0.017-0.537,0.042-0.799c0.042-0.408,0.193-0.901,0.399-1.322
		c0.215-0.438,0.455-1.025,0.945-1.154c0.195,0.163,0.004,0.382,0,0.546c-0.003,0.113,0.079,0.237,0.084,0.377
		c0.006,0.194-0.093,0.387-0.062,0.526c0.098,0.462,0.894,1.187,1.406,1.322c0.244,0.063,0.57-0.026,0.881-0.083
		c0.542-0.103,0.933-0.122,1.491-0.443c1.19-0.679,2.649-2.107,3.232-3.316c0.105-0.217,0.109-0.426,0.19-0.609
		c0.125-0.279,0.375-0.478,0.588-0.84c0.231-0.391,0.337-0.967,0.545-1.469c0.597-1.44,0.917-2.95,1.071-4.345
		c0.219-1.969,0.552-3.857,0.525-5.817c-0.013-0.962-0.105-1.945-0.105-2.918c0-0.986,0.044-1.959,0-2.898
		c-0.044-0.931-0.152-1.928-0.189-2.918c-0.018-0.476-0.03-0.965-0.063-1.449c-0.032-0.475-0.154-1.015-0.105-1.449
		c0.041-0.353,0.229-0.837,0.357-1.28c0.123-0.421,0.284-0.94,0.44-1.28c0.152-0.327,0.773-1.275,1.071-1.533
		c0.15-0.131,0.398-0.215,0.587-0.336c1.061-0.671,2.146-0.708,3.17-0.441c0.105,0.067,0.21-0.114,0.315-0.063
		c0.225,0.359,0.94,0.47,1.091,1.008c1.536-0.96,3.124-0.029,4.746,0.378c0.72,0.182,1.51,0.337,2.225,0.798
		c0.327-0.059,0.699-0.125,1.05-0.252c0.712-0.256,1.398-0.602,1.869-1.448c0.375-0.676,0.711-1.722,0.231-2.331
		c-0.396-0.501-1.551-0.101-1.932,0.63c-0.157,0.299-0.12,1.193,0.482,0.902c0.051-0.131-0.342-0.229-0.231-0.398
		c0.161-0.131,0.323-0.012,0.483,0.021c0.301,0.503-0.454,0.945-0.861,0.651c-0.044-0.032-0.286-0.337-0.336-0.419
		c-0.057-0.097-0.028-0.218-0.084-0.337C33.969,3.47,33.841,3.38,33.798,3.28c-0.145-0.33-0.073-0.852,0.124-1.133
		c0.211-0.298,0.579-0.708,0.903-0.903c0.158-0.096,0.399-0.058,0.524-0.231c1.14-0.305,2.357-0.319,3.592,0.651
		c0.58,0.456,1.037,1.208,1.196,1.784c0.041,0.147,0.131,0.372,0.126,0.462c-0.008,0.108-0.128,0.2-0.168,0.336
		c-0.051,0.163,0.001,0.351-0.042,0.461C39.894,5.115,39.558,5.515,39.276,5.947z M38.374,1.81c-0.1,0.204,0.022,0.479-0.127,0.714
		c-0.216,0.343-0.614,0.615-0.776,0.986c0.501-0.35,1.164-0.701,1.532-1.238C38.794,2.05,38.583,1.936,38.374,1.81z M37.219,4.183
		c0.746-0.419,1.591-0.311,2.268-1.218c-0.074-0.168-0.208-0.337-0.293-0.503C38.768,3.27,37.774,3.539,37.219,4.183z M39.15,3.721
		c0.238-0.054,0.476,0.151,0.714,0.126c-0.074-0.224-0.168-0.448-0.21-0.671C39.572,3.351,39.229,3.612,39.15,3.721z M37.554,1.328
		c-0.188-0.082-0.604-0.118-0.65-0.021c0.281,0.18,0.561,0.163,0.841,0.546c0.068,0.246-0.015,0.491,0.063,0.736
		c0.316-0.323,0.2-0.644,0.251-0.966C37.9,1.567,37.736,1.405,37.554,1.328z M37.345,1.916c-0.155-0.248-0.467-0.259-0.714-0.462
		c0.483,0.476,0.382,0.951,0.672,1.428C37.376,2.674,37.464,2.106,37.345,1.916z M38.751,4.33c-0.401,0.061-0.82,0.158-1.175,0.378
		c-0.023,0.021-0.044,0.063,0,0.042c0.25-0.089,0.504-0.067,0.776-0.104c0.294-0.04,0.528-0.187,0.798-0.252
		c0.163-0.041,0.391,0.088,0.504-0.084C39.426,4.162,39.068,4.282,38.751,4.33z M38.878,4.834c-0.693,0.295-1.557,0.092-2.163,0.651
		c0.88-0.26,2.097,0.283,2.708-0.903C39.188,4.562,39.068,4.752,38.878,4.834z M34.679,2.021c0.419-0.245,0.84-0.188,1.26-0.169
		C35.532,1.442,35.015,1.509,34.679,2.021z M35.875,6.115c-0.016,0.111,0.131,0.04,0.168,0.042c0.289,0.013,0.522,0.008,0.818,0.02
		c0.505,0.021,1.283,0.229,1.534-0.524C37.556,5.818,36.715,5.763,35.875,6.115z M34.195,3.217c0.155-0.288,0.413-0.574,0.651-0.86
		C34.404,2.512,33.933,2.695,34.195,3.217z M35.161,6.618c0.287,0.167,0.574-0.038,0.861,0.189c0.483-0.023,1.078,0.136,1.49-0.315
		C36.729,6.521,35.944,6.48,35.161,6.618z M35.581,7.794c-0.381-0.01-0.72-0.201-1.092-0.252c-0.521-0.071-1.085,0.043-1.596-0.125
		c-0.421-0.14-0.824-0.298-1.239-0.441c-0.414-0.144-0.828-0.359-1.237-0.483c-0.521-0.156-1.105-0.145-1.68-0.168
		c-0.591-0.023-1.145-0.061-1.7,0.063c-0.687,0.152-1.338,0.431-2.122,0.734c-0.179,0.263-0.543,0.352-0.588,0.589
		c1.479-0.84,2.905-1.168,4.346-1.155c0.297,0.002,0.639-0.021,0.903,0.021c0.289,0.046,0.594,0.171,0.901,0.231
		c0.318,0.062,0.633,0.081,0.903,0.189c0.44,0.177,0.772,0.303,1.198,0.44c0.322,0.104,0.633,0.273,0.923,0.336
		c0.228,0.048,0.504,0.034,0.775,0.062c0.487,0.051,0.847,0.106,1.303,0.084c0.488-0.023,1.013-0.081,1.407-0.441
		C36.531,7.599,36.059,7.808,35.581,7.794z M35.812,8.612c-0.222,0.077-0.458,0.066-0.671,0.126
		c-0.367,0.105-0.696,0.267-1.051,0.21c-0.73-0.116-1.436-0.425-2.204-0.482c-1.693-0.679-3.499-0.992-5.122-0.462
		c0.396-0.043,0.781,0.144,1.176,0.169c0.414,0.024,0.787-0.097,1.196-0.063c1.061,0.083,1.951,0.622,3.022,0.881
		c0.792,0.193,1.73,0.199,2.479,0.127c0.214-0.021,0.459,0.007,0.631-0.043c0.14-0.041,0.321-0.148,0.503-0.209
		c0.169-0.057,0.381-0.093,0.504-0.168c0.138-0.082,0.217-0.22,0.336-0.293c0.224-0.139,0.594-0.12,0.692-0.483
		C36.762,8.088,36.319,8.44,35.812,8.612z M34.427,7.018c0.609,0.21,1.33,0.489,1.868,0.062C35.673,7.113,35.05,6.646,34.427,7.018z
		 M34.133,8.151c-0.24-0.052-0.491-0.068-0.713-0.126c-0.343-0.088-0.652-0.282-0.988-0.399c-0.698-0.244-1.319-0.415-2.016-0.503
		c-0.342-0.044-0.677-0.141-1.007-0.169c-0.236-0.02-0.528,0.034-0.799,0.043c-0.495,0.016-0.812,0.019-1.28,0.104
		c-0.577,0.106-1.104,0.236-1.742,0.525C24.919,7.929,24.39,8.1,23.824,8.76c0.32-0.048,0.588-0.279,0.882-0.419
		c0.302-0.146,0.628-0.268,0.902-0.483c1.115-0.202,1.914-0.528,2.96-0.482c0.958,0.041,2.006,0.278,2.961,0.567
		c0.448,0.135,0.951,0.229,1.491,0.314c0.692,0.109,1.351,0.372,1.932,0.084c0.022-0.028,0.043-0.055,0-0.084
		C34.694,8.241,34.399,8.209,34.133,8.151z M32.181,6.534c-0.487-0.162-0.995-0.25-1.491-0.399c-0.995-0.296-1.99-0.788-2.96-0.734
		c-0.416,0.022-0.809,0.211-1.239,0.44c-0.288,0.154-0.682,0.252-0.861,0.567c1.084-0.506,2.106-0.524,3.17-0.44
		c0.438,0.035,0.89,0.045,1.302,0.126c1.163,0.23,2.476,1.091,3.549,1.155C33.144,7.025,32.708,6.71,32.181,6.534z M25.167,5.82
		c-0.315,0.266-0.555,0.538-0.86,0.861c-0.215,0.229-0.47,0.41-0.65,0.609c-0.516,0.57-0.693,1.084-1.029,1.701
		c-0.539,0.987-0.658,1.47-0.776,2.414c-0.109,0.869-0.083,1.586-0.147,2.415c-0.033,0.426-0.135,0.871-0.126,1.218
		c0.015,0.549,0.311,1.141,0.483,1.575c-0.297-1.15-0.085-2.434,0.063-3.716c0.068-0.598,0.184-1.238,0.336-1.848
		c0.156-0.628,0.276-1.299,0.483-1.869c0.167-0.465,0.425-0.741,0.755-1.218c0.215-0.31,0.357-0.681,0.609-0.945
		c0.382-0.4,0.878-0.725,1.239-1.154c0.186-0.223,0.321-0.362,0.462-0.505C25.677,5.093,25.403,5.623,25.167,5.82z M21.242,14.072
		c0.031-0.389,0.013-0.732,0.021-1.113c0.015-0.716,0.29-1.458,0.398-2.163c0.1-0.644,0.342-1.277,0.714-1.932
		c0.237-0.416,0.425-0.887,0.693-1.28c0.283-0.418,0.711-0.741,1.05-1.176c0.15-0.192,0.235-0.423,0.398-0.609
		c0.249-0.281,0.604-0.501,0.861-0.818c0.011-0.014,0.021-0.028-0.001-0.042c-0.5-0.306-1.445,1.067-1.763,1.427
		c-0.392,0.444-0.549,0.643-0.777,1.071c-0.131,0.248-0.312,0.474-0.461,0.714c-0.654,1.061-1.131,2.151-1.323,3.171
		c-0.201,1.073-0.339,2.063,0.127,3.023C21.269,14.282,21.234,14.157,21.242,14.072z M24.223,4.666
		c-0.418,0.169-0.779,0.566-1.154,0.987c-0.326,0.364-0.517,0.814-0.82,1.196c-0.207,0.263-0.273,0.36-0.398,0.609
		c-0.074,0.146-0.172,0.28-0.251,0.419c-0.271,0.476-0.396,0.949-0.568,1.407c-0.304,0.817-0.667,1.456-0.461,2.183
		c0.156-0.686,0.302-1.439,0.672-2.141c0.12-0.227,0.335-0.443,0.503-0.714c0.298-0.477,0.59-0.96,0.882-1.47
		c0.148-0.258,0.309-0.532,0.483-0.735c0.551-0.642,0.93-1.165,1.469-1.68C24.46,4.653,24.342,4.747,24.223,4.666z M21.64,6.702
		c-0.329,0.737-0.769,1.44-1.092,2.1c-0.068,0.139-0.041,0.345-0.209,0.419c0.057,0.177-0.017,0.571,0.105,0.609
		c0.352-1.064,0.979-2.127,1.638-3.191c0.249-0.633,0.604-1.369,1.344-1.933c0.011-0.021,0.006-0.041-0.021-0.062
		C22.424,4.747,21.91,6.098,21.64,6.702z M22.375,13.987c-0.025,0.316-0.065,0.63-0.021,0.945c0.215-0.531,0.333-1.099,0.778-1.617
		c0.197-0.229,0.472-0.428,0.65-0.693c0.06-0.088,0.071-0.209,0.125-0.293c0.373-0.572,0.92-0.97,1.323-1.491
		c0.22-0.283,0.458-0.749,0.609-1.029c0.178-0.329,0.377-0.605,0.398-0.903C25.451,10.601,23.246,12.294,22.375,13.987z
		 M21.242,6.009c-0.4,0.692-0.832,1.468-0.777,2.121c0.526-1.042,1.017-2.086,1.785-3.128C21.686,5.169,21.459,5.631,21.242,6.009z
		 M25.65,8.907c0.062-0.104,0.166-0.21,0.147-0.315C25.651,8.624,25.683,8.808,25.65,8.907z M24.979,9.117
		c0.012-0.113,0.244-0.225,0.167-0.337C25.04,8.879,24.921,9.087,24.979,9.117z M24.979,9.915c0.137-0.132,0.245-0.266,0.272-0.399
		C25.123,9.649,25.037,9.781,24.979,9.915z M24.16,9.264c-0.102,0.504-0.629,1.008-0.965,1.511c0.554-0.525,0.838-1.049,1.196-1.574
		C24.314,9.13,24.236,9.235,24.16,9.264z M24.454,12.161c-0.279,0.334-0.471,0.781-0.756,1.133c-0.395,0.492-0.587,0.74-0.777,1.239
		c-0.299,0.789-0.454,1.385-0.294,2.058c0.426-0.996,0.613-2.177,1.365-3.212c0.179-0.248,0.407-0.442,0.587-0.672
		c0.512-0.654,0.848-1.392,1.197-2.079C25.479,11.152,24.89,11.641,24.454,12.161z M24.391,10.04
		c0.078-0.069,0.129-0.14,0.125-0.209C24.44,9.9,24.388,9.97,24.391,10.04z M23.361,11.615c-0.29,0.349-0.63,0.694-0.776,0.987
		c-0.047,0.094-0.094,0.423,0,0.419c0.625-0.897,1.458-1.907,2.121-2.75C24.388,10.741,23.77,11.126,23.361,11.615z M22.711,11.972
		c0.44-0.574,1.146-1.147,1.47-1.722C23.689,10.801,22.951,11.373,22.711,11.972z M20.464,13.841c0.052,0.196,0.031,0.359,0,0.504
		c0.251,0.557,0.281,1.231,0.525,1.784c0.08,0.182,0.234,0.316,0.314,0.483c0.071,0.146,0.09,0.32,0.147,0.482
		c0.113,0.325,0.27,0.636,0.378,0.967c0.037,0.113,0.005,0.254,0.042,0.377c0.04,0.134,0.133,0.249,0.168,0.377
		c0.122,0.45,0.208,0.893,0.356,1.323c0.156,0.448,0.386,0.861,0.378,1.344c0.187,0.56,0.472,1.117,0.651,1.7
		c0.045,0.149,0.019,0.333,0.063,0.483c0.254,0.881,0.698,1.839,0.504,2.561c-0.167-0.399-0.237-0.869-0.315-1.281
		c-0.082-0.43-0.253-0.831-0.377-1.259c-0.108-0.372-0.091-0.763-0.273-1.112c-0.055-0.105-0.154-0.191-0.21-0.293
		c-0.244-0.449-0.304-0.94-0.461-1.428c-0.16-0.491-0.434-0.978-0.566-1.406c-0.227-0.724-0.446-1.501-0.693-2.205
		c-0.292-0.83-0.75-1.477-0.819-2.288c-0.11,0.011-0.043,0.152-0.041,0.21c0.014,0.635,0.124,1.084,0.314,1.7
		c0.475,1.538,1.21,3.139,1.743,4.683c0.146,0.422,0.198,0.874,0.335,1.301c0.103,0.32,0.275,0.613,0.357,0.944
		c0.161,0.655,0.4,1.259,0.546,1.89c0.078,0.335,0.249,0.63,0.315,0.945c0.065,0.301,0.018,0.648,0.084,0.965
		c0.069,0.336,0.175,0.647,0.209,0.969c0.052,0.478,0.023,0.997,0.064,1.446c0.015,0.166,0.08,0.308,0.104,0.482
		c0.042,0.304-0.021,0.659-0.021,0.986c0,1.023-0.06,2.034-0.126,3.024c-0.123,1.292-0.587,2.644-1.092,4.031
		c-0.344,0.947-0.852,2.017-1.595,2.939c-0.307,0.382-0.522,0.838-0.82,1.198c-0.239,0.285-0.529,0.582-0.714,0.796
		c-0.486,0.565-1.275,1.055-1.848,1.722c-0.799,0.935-1.66,1.525-2.435,2.31c1.748-0.793,3.342-2.232,4.955-3.612
		c0.123-0.104,0.237-0.214,0.355-0.355c0.655-0.774,1.313-1.813,1.765-2.645c0.177-0.327,0.393-0.607,0.545-0.882
		c0.155-0.281,0.253-0.771,0.399-1.198c0.194-0.561,0.464-1.05,0.63-1.554c0.04-0.12,0.021-0.244,0.063-0.355
		c0.04-0.104,0.132-0.19,0.169-0.295c0.085-0.246,0.047-0.532,0.104-0.776c0.08-0.341,0.12-0.648,0.167-0.967
		c0.05-0.325,0.016-0.689,0.232-0.943c0.123,0.705-0.059,1.46-0.148,2.163c-0.151,1.216-0.833,2.379-1.174,3.609
		c0.539-1.165,1.159-2.289,1.47-3.485c0.224-0.866,0.267-1.856,0.293-2.812c0.055-1.947-0.363-3.747-0.776-5.647
		c-0.208-0.956-0.396-1.912-0.609-2.835c-0.448-1.932-1.162-3.768-1.743-5.648c-0.593-1.922-1.248-3.796-1.952-5.605
		C20.395,13.724,20.447,13.773,20.464,13.841z M20.276,20.034c0.362,0.454,0.445,0.83,0.65,1.28
		c0.139,0.305,0.236,0.636,0.357,0.946c0.358,0.917,0.811,1.775,1.134,2.686c0.196,0.559,0.386,1.096,0.567,1.617
		c0.097,0.284,0.238,0.55,0.314,0.82c0.323,1.129,0.26,2.349,0.294,3.441c0.005,0.168,0.075,0.336,0.084,0.505
		c0.02,0.375-0.03,0.812-0.042,1.217c-0.012,0.422-0.013,0.864-0.063,1.237c-0.081,0.607-0.298,1.184-0.483,1.744
		c-0.068,0.209-0.035,0.474-0.104,0.694c-0.078,0.244-0.162,0.451-0.231,0.691c-0.062,0.221-0.107,0.46-0.188,0.694
		c-0.083,0.235-0.114,0.501-0.21,0.713c-0.14,0.306-0.312,0.611-0.462,0.923c-0.244,0.507-0.578,0.827-0.987,1.323
		c-0.287,0.349-0.522,0.759-0.84,1.135c-0.127,0.15-0.315,0.281-0.44,0.44c-0.124,0.155-0.185,0.364-0.315,0.526
		c-0.189,0.23-0.391,0.469-0.588,0.711c-0.421,0.523-0.949,0.825-1.365,1.198c-0.384,0.345-0.684,0.762-1.028,1.071
		c-0.167,0.148-0.381,0.256-0.567,0.397c-0.183,0.144-0.415,0.258-0.566,0.399c-0.093,0.087-0.138,0.229-0.231,0.316
		c-0.102,0.092-0.244,0.135-0.357,0.231c-0.651,0.543-1.138,0.764-1.763,1.132c0.267,0.107,0.713-0.128,1.05-0.126
		c0.141-0.238,0.468-0.233,0.693-0.358c0.548-0.301,1.056-0.886,1.595-1.342c0.402-0.338,0.992-0.76,1.407-1.239
		c0.831-0.956,1.914-1.689,2.75-2.708c0.177-0.214,0.316-0.491,0.484-0.735c0.188-0.273,0.442-0.5,0.629-0.753
		c0.424-0.581,0.714-1.096,0.988-1.661c0.42-0.875,0.794-1.78,1.007-2.604c0.15-0.58,0.137-1.181,0.272-1.743
		c0.144-0.594,0.339-1.175,0.23-1.742c0.094-0.776,0.229-1.68,0.127-2.521c-0.028-0.227-0.115-0.412-0.126-0.628
		c-0.03-0.629,0.013-1.303-0.105-1.912c-0.043-0.216-0.138-0.425-0.189-0.65c-0.058-0.257-0.034-0.527-0.105-0.776
		c-0.277-0.971-0.646-1.975-1.029-2.961c-0.792-2.042-1.475-4.433-2.33-6.361C20.167,18.215,20.238,19.125,20.276,20.034z
		 M20.086,25.263c0.068,0.299,0.239,0.622,0.336,0.965c0.088,0.31,0.111,0.668,0.209,0.967c0.108,0.327,0.276,0.637,0.378,0.965
		c0.101,0.327,0.123,0.685,0.231,0.988c0.051,0.144,0.164,0.253,0.209,0.377c0.145,0.396,0.013,0.864,0.252,1.26
		c0.016,0.442,0,0.937-0.021,1.363c-0.005,0.129,0.089,0.352-0.084,0.422c-0.136-0.518-0.064-1.12-0.21-1.681
		c-0.034-0.129-0.134-0.244-0.167-0.377c-0.071-0.28-0.048-0.567-0.147-0.818c-0.055-0.138-0.18-0.265-0.231-0.399
		c-0.093-0.247-0.096-0.546-0.168-0.797c-0.243-0.855-0.586-1.633-0.734-2.416c-0.034,0.406-0.103,0.799-0.168,1.218
		c-0.059,0.38-0.181,0.829-0.167,1.218c0.013,0.355,0.223,0.766,0.335,1.177c0.223,0.803,0.271,1.582,0.42,2.35
		c0.082,0.417,0.21,0.814,0.273,1.198c0.083,0.495,0.021,1.065,0.042,1.596c0.023,0.569,0.225,1.119,0.188,1.616
		c-0.009,0.14-0.087,0.325-0.125,0.502c-0.029,0.138-0.108,0.341-0.001,0.422c0.451-1.253,0.685-2.506,0.819-3.761
		c0.148,1.15,0.078,2.407-0.294,3.529c-0.314,0.949-0.962,1.812-1.134,2.812c-0.222,0.19-0.194,0.38-0.315,0.567
		c1.381-1.75,2.322-3.498,2.73-5.248c-0.285,2.213-1.516,4.574-3.464,6.78c-0.646,0.733-1.424,1.628-2.057,2.353
		c-0.339,0.389-0.759,0.596-1.134,0.923c-0.118,0.103-0.194,0.247-0.315,0.358c-0.344,0.313-0.982,0.51-1.45,0.776
		c-0.838,0.478-1.488,0.886-2.225,1.091c-0.306,0.086-0.558,0.247-0.776,0.314c-0.123,0.039-0.53,0.024-0.462,0.085
		c0.224,0.228,0.479,0.184,0.735,0.188c0.241,0.006,0.537,0.032,0.734-0.062c0.205-0.099,0.355-0.327,0.588-0.463
		c0.271-0.159,0.609-0.22,0.903-0.355c0.23-0.109,0.451-0.345,0.693-0.526c0.161-0.119,0.379-0.17,0.483-0.272
		c0.082-0.078,0.104-0.198,0.188-0.272c0.109-0.094,0.286-0.122,0.421-0.21c0.617-0.405,1.153-1.112,1.805-1.639
		c0.415-0.334,0.958-0.663,1.302-1.135c0.072-0.099,0.1-0.235,0.167-0.334c0.213-0.31,0.511-0.644,0.693-0.862
		c0.595-0.711,1.249-1.351,1.806-2.016c0.298-0.354,0.514-0.917,0.649-1.237c0.091-0.214,0.247-0.387,0.316-0.567
		c0.123-0.321,0.166-0.705,0.253-1.05c0.09-0.362,0.238-0.712,0.335-1.05c0.058-0.203,0.042-0.415,0.104-0.609
		c0.112-0.342,0.302-0.663,0.38-1.008c0.026-0.12-0.003-0.262,0.02-0.399c0.107-0.626,0.104-1.195,0.084-1.805
		c-0.008-0.235,0.044-0.482,0.042-0.714c-0.004-0.244-0.071-0.474-0.084-0.713c-0.03-0.557,0.015-1.087-0.021-1.617
		c-0.075-1.104-0.431-2.137-0.882-3.234c-0.334-0.81-0.747-1.642-1.07-2.413c-0.347-0.824-0.59-1.592-0.967-2.394
		c-0.107,1.004-0.092,1.778,0.441,2.792c0.216,0.413,0.346,0.857,0.525,1.198c0.22,0.417,0.471,0.788,0.609,1.196
		c0.135,0.401,0.198,0.812,0.314,1.195c0.267,0.878,0.43,1.598,0.504,2.395c0.073,0.79,0.089,1.564,0.105,2.413
		c-0.247,0.756,0.079,1.513-0.25,2.268c-0.183-0.857-0.062-1.706-0.106-2.54c-0.063-1.174-0.137-2.372-0.461-3.526
		c-0.214-0.762-0.388-1.598-0.714-2.353c-0.332-0.762-0.739-1.515-1.133-2.352c0.011-0.01,0.006-0.04-0.021-0.021
		C20.111,24.312,19.981,24.798,20.086,25.263z M25.692,28.517c-0.036-0.209-0.054-0.419,0-0.631
		c-0.289-0.432-0.302-0.978-0.755-1.344C25.344,27.188,25.372,27.942,25.692,28.517z M25.86,31.161
		c0.044,0.114-0.008,0.337,0.083,0.378c0.389-1.167,0.37-2.448,0.106-3.548C25.943,29.047,26.367,30.105,25.86,31.161z
		 M25.608,29.524c0.097,0.293,0.09,0.588,0.168,0.882c0.019-0.405-0.079-0.812,0-1.218c-0.078-0.111-0.038-0.428-0.063-0.399
		C25.682,29.034,25.748,29.28,25.608,29.524z M19.394,31.205c0.05,0.437,0.033,0.869,0.125,1.301c0.14,0.64,0.196,1.336,0.19,1.953
		c-0.003,0.212-0.078,0.43-0.063,0.65c0.016,0.251,0.143,0.502,0.168,0.755c0.026,0.253-0.013,0.537,0,0.799
		c0.014,0.281,0.099,0.559,0.104,0.818c0.012,0.539-0.206,1.161-0.377,1.722c-0.087,0.284-0.203,0.563-0.358,0.862
		c-0.144,0.277-0.252,0.622-0.441,0.859c-0.8,1.011-1.853,2.241-2.981,2.771c-0.014,0.088,0.2-0.023,0.272-0.063
		c0.917-0.49,1.604-1.202,2.395-2.141c0.469-0.559,0.92-1.091,1.155-1.658c0.061-0.148,0.049-0.336,0.104-0.484
		c0.236-0.638,0.542-1.214,0.629-1.762c0.027-0.165,0.013-0.355,0.042-0.547c0.123-0.777-0.065-1.366-0.126-2.183
		c-0.042-0.569-0.043-1.156-0.147-1.661c-0.229-1.112-0.396-2.234-0.609-3.295C19.217,30.291,19.343,30.767,19.394,31.205z
		 M6.901,40.421c0.506,0.314,0.867,0.467,1.303,0.589c0.174,0.048,0.336,0.153,0.482,0.188c0.501,0.12,1.191-0.002,1.701-0.02
		c0.189-0.009,0.385,0.057,0.546,0.042c0.645-0.07,1.04-0.36,1.639-0.841c0.347-0.281,0.769-0.488,1.132-0.798
		c0.29-0.247,0.525-0.609,0.841-0.882c0.103-0.09,0.255-0.14,0.377-0.251c0.172-0.157,0.356-0.408,0.524-0.609
		c0.176-0.209,0.39-0.414,0.547-0.63c0.072-0.101,0.096-0.256,0.168-0.378c0.081-0.142,0.222-0.255,0.315-0.399
		c0.09-0.142,0.137-0.329,0.23-0.482c0.265-0.438,0.44-0.781,0.651-1.154c0.162-0.288,0.383-0.521,0.503-0.757
		c0.161-0.312,0.209-0.753,0.316-1.113c0.055-0.188,0.136-0.384,0.188-0.565c0.04-0.14,0.123-0.508,0.064-0.484
		c-0.418,1.55-1.5,3.477-2.898,5.124c-0.8,0.942-1.563,1.818-2.456,2.455c-0.835,0.598-1.749,1.218-2.54,1.49
		c-1.012,0.352-2.129,0.157-3.108-0.419c-0.698-0.41-1.408-0.822-1.994-1.363C5.802,39.86,6.379,40.098,6.901,40.421z
		 M19.247,35.005c-0.007,0.689,0.176,1.395,0.083,2.058c-0.039,0.274-0.144,0.567-0.188,0.859c-0.046,0.302-0.043,0.603-0.126,0.882
		c-0.098,0.33-0.28,0.668-0.441,0.986c-0.366,0.725-0.805,1.506-1.385,2.268c0.754-0.801,1.396-1.523,1.785-2.246
		c0.41-0.761,0.536-1.647,0.651-2.372c-0.19-0.481-0.068-1.008-0.127-1.512c-0.028-0.249-0.158-0.484-0.188-0.735
		c-0.037-0.286,0.054-0.592,0.042-0.88c-0.019-0.474-0.097-0.914-0.167-1.347C19.247,33.634,19.254,34.302,19.247,35.005z
		 M18.407,39.288c0.066-0.163,0.184-0.325,0.23-0.484c0.083-0.283,0.037-0.661,0.063-1.027c0.027-0.371,0.163-0.74,0.168-0.967
		c0.013-0.502-0.109-1.009-0.105-1.532c0.003-0.535,0.008-1.057-0.042-1.554c0.021-0.024-0.01-0.044-0.042,0
		c-0.135,0.447-0.414,0.866-0.524,1.322c-0.043,0.173,0.002,0.362-0.042,0.546c-0.096,0.399-0.179,0.656-0.147,1.071
		c0.019,0.24,0.005,0.474,0.021,0.691c0.011,0.129,0.082,0.247,0.084,0.378c0.003,0.203-0.036,0.515-0.063,0.776
		c-0.142,1.373-0.345,2.464-1.386,3.738c-0.551,0.675-1.271,1.089-1.868,1.449C16.744,43.092,17.775,40.833,18.407,39.288z
		 M17.651,36.432c-0.332,0.792-0.363,1.6-0.44,2.414c-0.038,0.395-0.2,0.778-0.356,1.197c-0.306,0.814-0.442,1.574-1.029,2.372
		c2.111-2.022,1.979-4.046,1.869-6.066C17.672,36.375,17.629,36.403,17.651,36.432z M14.585,40.63
		c-1.021,1.144-2.305,1.99-3.59,2.331c-0.759,0.201-1.602,0.044-2.33-0.314c-0.814-0.401-1.709-0.833-2.561-1.386
		c0.099,0.175,0.183,0.35,0.315,0.524c0.455,0.046,1.016,0.761,1.449,0.986c0.144,0.076,0.548,0.207,0.755,0.253
		c0.17,0.039,0.433,0.05,0.672,0.085c0.232,0.033,0.475,0.078,0.693,0.104c0.672,0.074,1.204-0.124,1.869-0.357
		c0.425-0.148,0.703-0.391,1.112-0.692c0.5-0.37,1.081-0.676,1.533-1.112c0.267-0.26,0.579-0.642,0.839-0.967
		c0.281-0.347,0.322-0.611,0.483-0.903c0.14-0.254,0.399-0.479,0.566-0.775c0.167-0.294,0.473-0.958,0.525-1.197
		C16.298,38.315,15.513,39.594,14.585,40.63z M15.131,38.699c-0.13,0.12-0.321,0.161-0.439,0.272
		c-0.273,0.253-0.454,0.576-0.714,0.799c-0.41,0.347-0.877,0.596-1.239,0.901c-0.631,0.534-1.157,0.825-1.764,0.923
		c-0.184,0.03-0.395-0.035-0.609-0.02c-0.231,0.018-0.453,0.111-0.671,0.127c-0.573,0.037-1.111-0.068-1.638-0.21
		c-0.822-0.223-1.528-0.774-2.435-1.261c0.399,0.663,1.239,1.191,1.89,1.471c0.308,0.133,0.646,0.216,0.965,0.336
		c0.337,0.126,0.651,0.323,0.965,0.377c0.44,0.079,0.842-0.083,1.26-0.168c0.313-0.065,0.602-0.037,0.881-0.126
		c0.584-0.184,1.147-0.415,1.722-0.924c1.083-0.958,1.988-2.238,2.834-3.631c0.011-0.016,0.022-0.028,0-0.044
		C15.712,37.881,15.483,38.374,15.131,38.699z M15.74,40.233c0.437-0.511,0.897-1.135,0.945-1.578
		C16.292,39.182,16.067,39.707,15.74,40.233z M12.781,43.319c-0.343,0.227-0.76,0.414-1.114,0.523
		c-0.214,0.065-0.452,0.018-0.671,0.041c-0.155,0.02-0.32,0.101-0.483,0.107c-0.169,0.004-0.315-0.099-0.483-0.107
		c-0.235-0.011-0.495,0.062-0.735,0.063c-0.238,0.005-0.462-0.05-0.692-0.02c0.125,0.021,0.251,0.129,0.376,0.168
		c0.311-0.055,0.563-0.078,0.841-0.041c0.156,0.017,0.301,0.103,0.462,0.124c0.2,0.026,0.483-0.013,0.735-0.021
		c0.711-0.024,1.579-0.256,2.204-0.65c0.456-0.286,0.774-0.673,1.218-1.048c0.636-0.543,1.344-1.161,1.765-1.807
		c-0.053-0.101,0.14-0.308,0.042-0.336C15.291,41.688,13.9,42.577,12.781,43.319z M11.604,38.363
		c0.672-0.024,1.456-0.026,2.058-0.504C12.991,38.261,12.207,38.238,11.604,38.363z M15.321,40.735
		c0.043-0.105,0.316-0.321,0.273-0.356C15.499,40.497,15.292,40.615,15.321,40.735z M16.601,43.738
		c-0.643,0.34-1.072,0.6-1.743,0.861c-0.91,0.352-1.638,0.387-2.519,0.461c-0.457,0.039-0.896,0.15-1.28,0.104
		c-0.432-0.048-0.945-0.17-1.448-0.314c-0.501-0.144-1.125-0.359-1.47-0.631c-0.796-0.619-1.564-1.274-2.079-2.035
		c-0.491-0.728-0.795-1.583-0.944-2.29c-0.051-0.239-0.001-0.559-0.231-0.732c-0.135,0.148-0.038,0.473-0.063,0.691
		c-0.248,0.495-0.061,0.803,0.084,1.303c0.069,0.238,0.044,0.532,0.126,0.797c0.061,0.196,0.294,0.776,0.399,0.903
		c0.074,0.092,0.229,0.142,0.336,0.251c0.177,0.188,0.307,0.458,0.482,0.608c0.1,0.09,0.263,0.138,0.399,0.231
		c0.476,0.332,0.802,0.528,1.238,0.777c0.284,0.163,0.575,0.32,0.818,0.399c1.055,0.338,2.59,0.458,3.717,0.355
		c0.456-0.039,0.917-0.009,1.259-0.083c0.485-0.103,1.005-0.38,1.554-0.629c0.787-0.357,1.539-0.774,1.994-1.407
		C17.025,43.62,16.838,43.613,16.601,43.738z M11.205,39.435c0.449-0.083,1.008-0.177,1.387-0.421
		C12.143,39.145,11.583,39.297,11.205,39.435z M13.599,43.76c0.66-0.092,1.409-1.059,1.932-1.681
		C14.899,42.694,14.159,43.332,13.599,43.76z M10.597,38.07c0.116,0.233,0.325,0.356,0.547,0.376
		C11.215,38.18,10.779,38.158,10.597,38.07z M10.071,37.586c-0.225,0.635,0.925,1.465,1.513,1.301
		c0.023-0.026,0.043-0.055-0.001-0.081C10.955,38.954,10.162,38.265,10.071,37.586z M9.61,38.3c0.265,0.401,0.689,0.711,1.05,0.631
		c-0.874-0.256-1.058-1.299-1.176-1.805C9.485,37.414,9.379,37.953,9.61,38.3z M12.949,42.646c-0.873,0.689-1.86,0.735-2.667,0.986
		c0.355-0.062,0.763-0.011,1.155-0.104c0.908-0.223,1.797-0.993,2.645-1.722C13.668,42.084,13.339,42.337,12.949,42.646z
		 M9.064,37.754c0.004,0.092-0.062,0.19-0.063,0.273c-0.001,0.534,0.43,1.071,1.009,1.135c-0.752-0.596-0.922-1.192-0.944-1.785
		C8.923,37.521,9.06,37.614,9.064,37.754z M9.358,39.223c0.137,0.336,0.425,0.382,0.735,0.484c0.396,0.131,0.644,0.253,0.882,0.042
		C10.436,39.721,9.896,39.484,9.358,39.223z M10.807,40.294c0.054-0.12,0.291-0.144,0.21-0.168
		c-0.343,0.184-0.686-0.028-1.029-0.104c0.106,0.063,0.21,0.159,0.315,0.272C10.471,40.297,10.639,40.196,10.807,40.294z
		 M13.053,44.011c-0.092,0.078-0.293,0.113-0.314,0.189c0.224-0.023,0.559,0.097,0.713-0.126
		C13.319,44.067,13.187,44.191,13.053,44.011z M11.794,45.942c-0.625,0.011-1.287-0.068-1.869-0.188
		c-0.389-0.08-0.754-0.17-1.114-0.272c-0.551-0.159-0.941-0.443-1.468-0.757c-0.454-0.267-1.146-0.607-1.575-1.072
		c-0.09-0.094-0.142-0.225-0.253-0.333c-0.1-0.101-0.272-0.175-0.376-0.295c-0.466-0.535-0.522-1.233-0.672-1.722
		c-0.074-0.24-0.252-0.459-0.273-0.692c-0.017-0.188,0.089-0.486,0.125-0.757c0.035-0.255,0.013-0.532,0.043-0.755
		c0.056-0.422,0.235-0.735,0.378-1.135C4.073,38.62,3.6,39.484,3.542,40.17c-0.083,1.006,0.196,1.689,0.819,2.664
		c0.371,0.583,0.799,1.318,1.47,1.849c0.195,0.155,0.542,0.199,0.819,0.314c0.8,0.336,1.587,0.65,2.351,0.882
		c0.273,0.085,0.535,0.227,0.798,0.294c0.199,0.053,0.508,0.031,0.755,0.044c1.369,0.065,2.942,0.336,4.179-0.735
		C13.791,45.992,12.727,45.927,11.794,45.942z M8.581,43.528c0.393,0.164,0.897,0.096,1.219,0.042
		C9.394,43.59,8.987,43.52,8.581,43.528z M9.652,46.572c-0.236-0.067-0.476-0.177-0.713-0.253c-0.235-0.074-0.477-0.133-0.714-0.209
		c-0.621-0.199-1.166-0.553-1.764-0.797c-0.308-0.127-0.674-0.164-0.923-0.38c-0.778-0.677-1.228-1.503-1.702-2.204
		c0.158,0.753,0.19,1.562,0.944,2.204c0.418,0.358,0.904,0.456,1.303,0.672C6.435,45.798,6.56,45.803,6.88,45.9
		c0.32,0.099,0.661,0.262,0.986,0.355c0.178,0.055,0.369,0.033,0.547,0.085c0.164,0.051,0.309,0.171,0.481,0.231
		c0.466,0.162,0.925,0.233,1.366,0.273c0.582,0.055,1.266,0.05,1.722-0.168C11.298,46.599,10.328,46.767,9.652,46.572z
		 M10.114,48.041c0.119-0.026,0.237,0.072,0.356,0.022c-0.071-0.042,0.115-0.083,0.042-0.127
		C10.393,48.018,10.164,47.937,10.114,48.041z M6.628,46.236c0.952,0.857,1.903,0.854,2.855,0.967
		C8.533,46.821,7.581,46.568,6.628,46.236z M6.397,46.173c-0.567-0.255-1.133-0.497-1.7-0.818c0.503,0.692,1.188,1.067,1.763,1.092
		C6.298,46.356,6.458,46.265,6.397,46.173z"/>
</g>
<g id="Layer_1">
	<g>
		<path fill-rule="evenodd" clip-rule="evenodd" fill="#999999" d="M39.193,2.462c0.085,0.167,0.219,0.335,0.293,0.503
			c-0.677,0.907-1.521,0.799-2.268,1.218C37.774,3.539,38.768,3.27,39.193,2.462z"/>
		<path fill-rule="evenodd" clip-rule="evenodd" fill="#999999" d="M39.423,4.582c-0.611,1.186-1.828,0.644-2.708,0.903
			c0.606-0.559,1.47-0.356,2.163-0.651C39.068,4.752,39.188,4.562,39.423,4.582z"/>
		<path fill-rule="evenodd" clip-rule="evenodd" fill="#999999" d="M38.396,5.653c-0.251,0.753-1.029,0.545-1.534,0.524
			c-0.296-0.012-0.529-0.007-0.818-0.02c-0.037-0.002-0.184,0.069-0.168-0.042C36.715,5.763,37.556,5.818,38.396,5.653z"/>
		<path fill-rule="evenodd" clip-rule="evenodd" fill="#999999" d="M37.513,6.492c-0.412,0.451-1.007,0.292-1.49,0.315
			c-0.287-0.227-0.574-0.021-0.861-0.189C35.944,6.48,36.729,6.521,37.513,6.492z"/>
		<path fill-rule="evenodd" clip-rule="evenodd" fill="#999999" d="M36.988,7.479c-0.395,0.361-0.919,0.418-1.407,0.441
			c-0.456,0.022-0.815-0.033-1.303-0.084c-0.271-0.028-0.548-0.014-0.775-0.062c-0.29-0.063-0.601-0.232-0.923-0.336
			c-0.426-0.138-0.758-0.264-1.198-0.44c-0.271-0.109-0.585-0.127-0.903-0.189c-0.308-0.06-0.612-0.185-0.901-0.231
			c-0.265-0.042-0.606-0.019-0.903-0.021c-1.441-0.013-2.867,0.314-4.346,1.155c0.044-0.237,0.409-0.326,0.588-0.589
			c0.784-0.303,1.435-0.582,2.122-0.734c0.556-0.124,1.109-0.086,1.7-0.063c0.574,0.023,1.158,0.012,1.68,0.168
			c0.409,0.124,0.823,0.339,1.237,0.483c0.415,0.144,0.818,0.302,1.239,0.441c0.511,0.168,1.074,0.054,1.596,0.125
			c0.372,0.051,0.711,0.242,1.092,0.252C36.059,7.808,36.531,7.599,36.988,7.479z"/>
		<path fill-rule="evenodd" clip-rule="evenodd" fill="#999999" d="M36.295,7.08c-0.538,0.426-1.259,0.147-1.868-0.062
			C35.05,6.646,35.673,7.113,36.295,7.08z"/>
		<path fill-rule="evenodd" clip-rule="evenodd" fill="#999999" d="M21.179,14.345c-0.466-0.959-0.328-1.95-0.127-3.023
			c0.192-1.02,0.669-2.11,1.323-3.171c0.149-0.24,0.33-0.466,0.461-0.714c0.228-0.428,0.385-0.626,0.777-1.071
			c0.318-0.36,1.263-1.733,1.763-1.427c0.022,0.013,0.012,0.027,0.001,0.042c-0.257,0.317-0.612,0.538-0.861,0.818
			c-0.164,0.186-0.249,0.417-0.398,0.609c-0.338,0.435-0.767,0.758-1.05,1.176c-0.268,0.394-0.457,0.865-0.693,1.28
			c-0.372,0.655-0.614,1.288-0.714,1.932c-0.109,0.704-0.384,1.447-0.398,2.163c-0.008,0.381,0.01,0.724-0.021,1.113
			C21.234,14.157,21.269,14.282,21.179,14.345z"/>
		<path fill-rule="evenodd" clip-rule="evenodd" fill="#999999" d="M23.404,4.645c0.027,0.021,0.032,0.042,0.021,0.062
			c-0.74,0.564-1.095,1.3-1.344,1.933c-0.658,1.063-1.286,2.126-1.638,3.191c-0.122-0.038-0.048-0.432-0.105-0.609
			c0.169-0.075,0.141-0.28,0.209-0.419c0.323-0.66,0.763-1.363,1.092-2.1C21.91,6.098,22.424,4.747,23.404,4.645z"/>
		<path fill-rule="evenodd" clip-rule="evenodd" fill="#999999" d="M26.237,8.906c-0.021,0.297-0.22,0.574-0.398,0.903
			c-0.151,0.28-0.39,0.747-0.609,1.029c-0.402,0.521-0.95,0.919-1.323,1.491c-0.055,0.084-0.065,0.205-0.125,0.293
			c-0.178,0.265-0.453,0.463-0.65,0.693c-0.445,0.518-0.563,1.085-0.778,1.617c-0.044-0.314-0.004-0.628,0.021-0.945
			C23.246,12.294,25.451,10.601,26.237,8.906z"/>
		<path fill-rule="evenodd" clip-rule="evenodd" fill="#999999" d="M22.25,5.002c-0.768,1.042-1.258,2.085-1.785,3.128
			c-0.055-0.652,0.376-1.428,0.777-2.121C21.459,5.631,21.686,5.169,22.25,5.002z"/>
		<path fill-rule="evenodd" clip-rule="evenodd" fill="#999999" d="M17.231,43.36c-0.455,0.633-1.208,1.05-1.994,1.407
			c-0.548,0.249-1.069,0.526-1.554,0.629c-0.342,0.074-0.803,0.044-1.259,0.083c-1.127,0.103-2.662-0.018-3.717-0.355
			c-0.244-0.079-0.535-0.236-0.818-0.399c-0.436-0.249-0.762-0.445-1.238-0.777c-0.136-0.094-0.3-0.142-0.399-0.231
			c-0.176-0.15-0.305-0.421-0.482-0.608c-0.106-0.109-0.262-0.159-0.336-0.251c-0.105-0.127-0.339-0.707-0.399-0.903
			c-0.082-0.265-0.057-0.559-0.126-0.797c-0.145-0.5-0.332-0.808-0.084-1.303c0.026-0.219-0.071-0.543,0.063-0.691
			c0.23,0.174,0.18,0.493,0.231,0.732c0.148,0.707,0.453,1.562,0.944,2.29c0.515,0.761,1.283,1.416,2.079,2.035
			c0.345,0.271,0.969,0.487,1.47,0.631c0.503,0.145,1.017,0.267,1.448,0.314c0.384,0.046,0.824-0.065,1.28-0.104
			c0.881-0.074,1.609-0.109,2.519-0.461c0.671-0.262,1.1-0.521,1.743-0.861C16.838,43.613,17.025,43.62,17.231,43.36z"/>
		<path fill-rule="evenodd" clip-rule="evenodd" fill="#999999" d="M14.733,45.481c-1.237,1.071-2.811,0.801-4.179,0.735
			c-0.248-0.013-0.556,0.009-0.755-0.044c-0.263-0.067-0.524-0.209-0.798-0.294c-0.763-0.231-1.55-0.546-2.351-0.882
			c-0.277-0.115-0.624-0.159-0.819-0.314c-0.671-0.53-1.099-1.266-1.47-1.849c-0.623-0.975-0.902-1.658-0.819-2.664
			c0.058-0.686,0.531-1.55,1.197-2.206c-0.143,0.399-0.322,0.713-0.378,1.135c-0.03,0.223-0.008,0.5-0.043,0.755
			c-0.036,0.271-0.142,0.569-0.125,0.757c0.021,0.233,0.199,0.452,0.273,0.692c0.149,0.488,0.206,1.187,0.672,1.722
			c0.104,0.12,0.276,0.194,0.376,0.295c0.112,0.108,0.163,0.239,0.253,0.333c0.43,0.465,1.121,0.806,1.575,1.072
			c0.527,0.313,0.917,0.598,1.468,0.757c0.36,0.103,0.725,0.192,1.114,0.272c0.582,0.12,1.244,0.199,1.869,0.188
			C12.727,45.927,13.791,45.992,14.733,45.481z"/>
		<path fill-rule="evenodd" clip-rule="evenodd" fill="#999999" d="M39.654,4.309c-0.113,0.172-0.341,0.043-0.504,0.084
			c-0.27,0.065-0.504,0.212-0.798,0.252c-0.272,0.037-0.526,0.015-0.776,0.104c-0.044,0.022-0.023-0.02,0-0.042
			c0.354-0.22,0.773-0.317,1.175-0.378C39.068,4.282,39.426,4.162,39.654,4.309z"/>
		<path fill-rule="evenodd" clip-rule="evenodd" fill="#999999" d="M37.303,7.92c-0.099,0.363-0.469,0.344-0.692,0.483
			c-0.119,0.074-0.198,0.212-0.336,0.293c-0.123,0.075-0.335,0.111-0.504,0.168c-0.182,0.062-0.363,0.169-0.503,0.209
			c-0.172,0.05-0.417,0.021-0.631,0.043c-0.748,0.072-1.687,0.066-2.479-0.127c-1.071-0.259-1.962-0.797-3.022-0.881
			c-0.409-0.033-0.782,0.088-1.196,0.063c-0.395-0.025-0.779-0.212-1.176-0.169c1.623-0.53,3.429-0.217,5.122,0.462
			c0.769,0.057,1.474,0.366,2.204,0.482c0.354,0.057,0.684-0.105,1.051-0.21c0.213-0.06,0.449-0.049,0.671-0.126
			C36.319,8.44,36.762,8.088,37.303,7.92z"/>
		<path fill-rule="evenodd" clip-rule="evenodd" fill="#999999" d="M26.008,5.358c-0.141,0.143-0.276,0.282-0.462,0.505
			c-0.361,0.43-0.857,0.754-1.239,1.154c-0.251,0.264-0.394,0.635-0.609,0.945c-0.331,0.477-0.588,0.753-0.755,1.218
			c-0.207,0.57-0.327,1.24-0.483,1.869c-0.152,0.61-0.268,1.25-0.336,1.848c-0.148,1.283-0.36,2.566-0.063,3.716
			c-0.172-0.434-0.468-1.025-0.483-1.575c-0.009-0.347,0.093-0.792,0.126-1.218c0.064-0.829,0.038-1.546,0.147-2.415
			c0.119-0.944,0.238-1.426,0.776-2.414c0.336-0.617,0.513-1.131,1.029-1.701c0.18-0.199,0.435-0.38,0.65-0.609
			c0.306-0.323,0.545-0.595,0.86-0.861C25.403,5.623,25.677,5.093,26.008,5.358z"/>
		<path fill-rule="evenodd" clip-rule="evenodd" fill="#999999" d="M20.402,13.652c0.704,1.809,1.359,3.683,1.952,5.605
			c0.582,1.88,1.295,3.716,1.743,5.648c0.214,0.923,0.401,1.879,0.609,2.835c0.414,1.9,0.831,3.7,0.776,5.647
			c-0.026,0.956-0.069,1.946-0.293,2.812c-0.311,1.196-0.931,2.32-1.47,3.485c0.342-1.23,1.023-2.394,1.174-3.609
			c0.089-0.703,0.271-1.458,0.148-2.163c-0.216,0.254-0.182,0.618-0.232,0.943c-0.047,0.318-0.087,0.626-0.167,0.967
			c-0.057,0.244-0.019,0.53-0.104,0.776c-0.037,0.104-0.129,0.19-0.169,0.295c-0.042,0.111-0.023,0.235-0.063,0.355
			c-0.166,0.504-0.436,0.993-0.63,1.554c-0.146,0.428-0.244,0.917-0.399,1.198c-0.152,0.274-0.369,0.555-0.545,0.882
			c-0.451,0.831-1.11,1.87-1.765,2.645c-0.119,0.142-0.232,0.251-0.355,0.355c-1.613,1.38-3.208,2.819-4.955,3.612
			c0.775-0.784,1.636-1.375,2.435-2.31c0.572-0.667,1.362-1.156,1.848-1.722c0.185-0.214,0.475-0.511,0.714-0.796
			c0.298-0.36,0.513-0.816,0.82-1.198c0.743-0.923,1.25-1.992,1.595-2.939c0.504-1.388,0.969-2.739,1.092-4.031
			c0.066-0.99,0.126-2.001,0.126-3.024c0-0.327,0.062-0.683,0.021-0.986c-0.024-0.175-0.09-0.316-0.104-0.482
			c-0.041-0.449-0.012-0.969-0.064-1.446c-0.034-0.321-0.14-0.633-0.209-0.969c-0.066-0.316-0.02-0.664-0.084-0.965
			c-0.066-0.314-0.237-0.609-0.315-0.945c-0.146-0.631-0.385-1.235-0.546-1.89c-0.082-0.331-0.254-0.625-0.357-0.944
			c-0.138-0.428-0.189-0.879-0.335-1.301c-0.533-1.543-1.268-3.145-1.743-4.683c-0.19-0.616-0.3-1.065-0.314-1.7
			c-0.002-0.058-0.069-0.199,0.041-0.21c0.069,0.812,0.528,1.458,0.819,2.288c0.247,0.704,0.467,1.481,0.693,2.205
			c0.132,0.428,0.406,0.916,0.566,1.406c0.158,0.488,0.217,0.979,0.461,1.428c0.056,0.102,0.155,0.188,0.21,0.293
			c0.182,0.35,0.165,0.741,0.273,1.112c0.125,0.428,0.296,0.83,0.377,1.259c0.078,0.413,0.148,0.882,0.315,1.281
			c0.194-0.722-0.25-1.68-0.504-2.561c-0.044-0.15-0.018-0.334-0.063-0.483c-0.179-0.583-0.465-1.14-0.651-1.7
			c0.007-0.483-0.223-0.896-0.378-1.344c-0.147-0.43-0.234-0.873-0.356-1.323c-0.035-0.129-0.128-0.244-0.168-0.377
			c-0.037-0.124-0.005-0.265-0.042-0.377c-0.108-0.331-0.265-0.642-0.378-0.967c-0.058-0.163-0.077-0.336-0.147-0.482
			c-0.081-0.167-0.235-0.301-0.314-0.483c-0.245-0.553-0.274-1.228-0.525-1.784c0.031-0.145,0.052-0.308,0-0.504
			C20.447,13.773,20.395,13.724,20.402,13.652z"/>
	</g>
	<g>
		<path fill-rule="evenodd" clip-rule="evenodd" fill="#666666" d="M35.938,1.852c-0.42-0.019-0.841-0.076-1.26,0.169
			C35.015,1.509,35.532,1.442,35.938,1.852z"/>
		<path fill-rule="evenodd" clip-rule="evenodd" fill="#666666" d="M34.847,2.357c-0.238,0.287-0.496,0.573-0.651,0.86
			C33.933,2.695,34.404,2.512,34.847,2.357z"/>
		<path fill-rule="evenodd" clip-rule="evenodd" fill="#666666" d="M16.14,37.522c0.022,0.016,0.011,0.028,0,0.044
			c-0.846,1.393-1.751,2.673-2.834,3.631c-0.574,0.509-1.138,0.74-1.722,0.924c-0.279,0.089-0.568,0.061-0.881,0.126
			c-0.418,0.085-0.82,0.247-1.26,0.168c-0.314-0.054-0.628-0.251-0.965-0.377c-0.319-0.12-0.658-0.203-0.965-0.336
			c-0.651-0.279-1.49-0.808-1.89-1.471c0.907,0.486,1.613,1.038,2.435,1.261c0.527,0.142,1.065,0.247,1.638,0.21
			c0.218-0.016,0.44-0.109,0.671-0.127c0.215-0.016,0.426,0.05,0.609,0.02c0.607-0.098,1.133-0.389,1.764-0.923
			c0.362-0.306,0.829-0.555,1.239-0.901c0.261-0.223,0.441-0.546,0.714-0.799c0.118-0.111,0.309-0.152,0.439-0.272
			C15.483,38.374,15.712,37.881,16.14,37.522z"/>
		<path fill-rule="evenodd" clip-rule="evenodd" fill="#666666" d="M20.192,17.305c0.854,1.928,1.538,4.319,2.33,6.361
			c0.383,0.986,0.752,1.99,1.029,2.961c0.071,0.249,0.047,0.52,0.105,0.776c0.051,0.226,0.146,0.435,0.189,0.65
			c0.118,0.609,0.075,1.283,0.105,1.912c0.011,0.216,0.098,0.401,0.126,0.628c0.103,0.841-0.033,1.744-0.127,2.521
			c0.108,0.567-0.086,1.148-0.23,1.742c-0.135,0.562-0.122,1.163-0.272,1.743c-0.213,0.823-0.587,1.729-1.007,2.604
			c-0.274,0.565-0.564,1.08-0.988,1.661c-0.187,0.253-0.441,0.479-0.629,0.753c-0.167,0.244-0.307,0.521-0.484,0.735
			c-0.836,1.019-1.919,1.752-2.75,2.708c-0.416,0.479-1.005,0.901-1.407,1.239c-0.539,0.456-1.047,1.041-1.595,1.342
			c-0.225,0.125-0.552,0.12-0.693,0.358c-0.337-0.002-0.783,0.233-1.05,0.126c0.625-0.368,1.112-0.589,1.763-1.132
			c0.113-0.097,0.255-0.14,0.357-0.231c0.093-0.088,0.138-0.229,0.231-0.316c0.151-0.142,0.384-0.256,0.566-0.399
			c0.186-0.142,0.4-0.249,0.567-0.397c0.344-0.31,0.644-0.727,1.028-1.071c0.417-0.373,0.944-0.675,1.365-1.198
			c0.198-0.242,0.399-0.48,0.588-0.711c0.13-0.162,0.192-0.371,0.315-0.526c0.125-0.159,0.312-0.29,0.44-0.44
			c0.318-0.376,0.553-0.786,0.84-1.135c0.409-0.496,0.743-0.816,0.987-1.323c0.15-0.312,0.322-0.617,0.462-0.923
			c0.096-0.212,0.127-0.478,0.21-0.713c0.081-0.234,0.126-0.474,0.188-0.694c0.069-0.24,0.153-0.447,0.231-0.691
			c0.07-0.221,0.036-0.485,0.104-0.694c0.185-0.561,0.402-1.137,0.483-1.744c0.05-0.373,0.051-0.815,0.063-1.237
			c0.012-0.405,0.062-0.842,0.042-1.217c-0.009-0.169-0.079-0.337-0.084-0.505c-0.035-1.093,0.029-2.312-0.294-3.441
			c-0.076-0.271-0.217-0.536-0.314-0.82c-0.181-0.521-0.371-1.058-0.567-1.617c-0.323-0.911-0.775-1.77-1.134-2.686
			c-0.121-0.31-0.219-0.641-0.357-0.946c-0.205-0.45-0.288-0.827-0.65-1.28C20.238,19.125,20.167,18.215,20.192,17.305z"/>
		<path fill-rule="evenodd" clip-rule="evenodd" fill="#666666" d="M20.15,23.855c0.027-0.019,0.032,0.01,0.021,0.021
			c0.394,0.837,0.801,1.59,1.133,2.352c0.327,0.755,0.5,1.591,0.714,2.353c0.324,1.154,0.398,2.353,0.461,3.526
			c0.045,0.834-0.076,1.683,0.106,2.54c0.329-0.755,0.003-1.512,0.25-2.268c-0.016-0.849-0.032-1.623-0.105-2.413
			c-0.074-0.797-0.237-1.517-0.504-2.395c-0.116-0.384-0.179-0.794-0.314-1.195c-0.138-0.408-0.389-0.779-0.609-1.196
			c-0.179-0.341-0.309-0.786-0.525-1.198c-0.534-1.014-0.549-1.789-0.441-2.792c0.376,0.802,0.62,1.57,0.967,2.394
			c0.323,0.771,0.736,1.604,1.07,2.413c0.451,1.098,0.807,2.13,0.882,3.234c0.035,0.53-0.009,1.061,0.021,1.617
			c0.013,0.239,0.081,0.469,0.084,0.713c0.002,0.231-0.05,0.479-0.042,0.714c0.02,0.609,0.023,1.179-0.084,1.805
			c-0.023,0.138,0.006,0.279-0.02,0.399c-0.078,0.345-0.268,0.666-0.38,1.008c-0.062,0.194-0.046,0.406-0.104,0.609
			c-0.097,0.338-0.246,0.688-0.335,1.05c-0.087,0.345-0.13,0.729-0.253,1.05c-0.069,0.181-0.225,0.354-0.316,0.567
			c-0.135,0.32-0.351,0.884-0.649,1.237c-0.558,0.665-1.211,1.305-1.806,2.016c-0.183,0.219-0.48,0.553-0.693,0.862
			c-0.068,0.099-0.095,0.235-0.167,0.334c-0.344,0.472-0.888,0.801-1.302,1.135c-0.652,0.526-1.188,1.233-1.805,1.639
			c-0.135,0.088-0.312,0.116-0.421,0.21c-0.085,0.074-0.107,0.194-0.188,0.272c-0.104,0.103-0.322,0.153-0.483,0.272
			c-0.242,0.182-0.462,0.417-0.693,0.526c-0.294,0.136-0.632,0.196-0.903,0.355c-0.232,0.136-0.383,0.364-0.588,0.463
			c-0.198,0.094-0.493,0.067-0.734,0.062c-0.255-0.005-0.511,0.039-0.735-0.188c-0.068-0.061,0.339-0.046,0.462-0.085
			c0.218-0.067,0.47-0.229,0.776-0.314c0.736-0.205,1.387-0.613,2.225-1.091c0.468-0.267,1.106-0.463,1.45-0.776
			c0.121-0.111,0.198-0.256,0.315-0.358c0.375-0.327,0.794-0.534,1.134-0.923c0.633-0.725,1.411-1.619,2.057-2.353
			c1.949-2.206,3.18-4.567,3.464-6.78c-0.408,1.75-1.349,3.498-2.73,5.248c0.121-0.188,0.094-0.377,0.315-0.567
			c0.171-1.001,0.819-1.863,1.134-2.812c0.372-1.122,0.442-2.379,0.294-3.529c-0.134,1.255-0.368,2.508-0.819,3.761
			c-0.107-0.081-0.028-0.284,0.001-0.422c0.038-0.177,0.116-0.362,0.125-0.502c0.036-0.497-0.166-1.047-0.188-1.616
			c-0.021-0.53,0.041-1.101-0.042-1.596c-0.063-0.384-0.192-0.781-0.273-1.198c-0.149-0.768-0.197-1.547-0.42-2.35
			c-0.112-0.411-0.323-0.821-0.335-1.177c-0.014-0.389,0.108-0.838,0.167-1.218c0.065-0.419,0.134-0.812,0.168-1.218
			c0.148,0.783,0.491,1.561,0.734,2.416c0.073,0.251,0.075,0.55,0.168,0.797c0.051,0.135,0.177,0.262,0.231,0.399
			c0.099,0.251,0.076,0.538,0.147,0.818c0.033,0.133,0.134,0.248,0.167,0.377c0.146,0.561,0.074,1.163,0.21,1.681
			c0.173-0.07,0.079-0.293,0.084-0.422c0.021-0.427,0.037-0.921,0.021-1.363c-0.239-0.396-0.107-0.864-0.252-1.26
			c-0.045-0.124-0.158-0.233-0.209-0.377c-0.109-0.304-0.13-0.661-0.231-0.988c-0.102-0.328-0.27-0.638-0.378-0.965
			c-0.098-0.299-0.122-0.657-0.209-0.967c-0.098-0.343-0.269-0.666-0.336-0.965C19.981,24.798,20.111,24.312,20.15,23.855z"/>
		<path fill-rule="evenodd" clip-rule="evenodd" fill="#666666" d="M19.478,29.902c0.213,1.061,0.379,2.183,0.609,3.295
			c0.104,0.505,0.105,1.092,0.147,1.661c0.061,0.816,0.249,1.405,0.126,2.183c-0.03,0.191-0.016,0.382-0.042,0.547
			c-0.086,0.548-0.393,1.124-0.629,1.762c-0.056,0.148-0.044,0.336-0.104,0.484c-0.235,0.567-0.686,1.1-1.155,1.658
			c-0.791,0.938-1.477,1.65-2.395,2.141c-0.072,0.04-0.286,0.151-0.272,0.063c1.128-0.53,2.181-1.761,2.981-2.771
			c0.189-0.237,0.297-0.582,0.441-0.859c0.155-0.299,0.271-0.578,0.358-0.862c0.171-0.561,0.389-1.183,0.377-1.722
			c-0.006-0.26-0.091-0.537-0.104-0.818c-0.013-0.262,0.026-0.546,0-0.799c-0.025-0.253-0.152-0.504-0.168-0.755
			c-0.014-0.221,0.061-0.438,0.063-0.65c0.006-0.617-0.05-1.313-0.19-1.953c-0.093-0.432-0.076-0.864-0.125-1.301
			C19.343,30.767,19.217,30.291,19.478,29.902z"/>
	</g>
	<g>
		<path fill-rule="evenodd" clip-rule="evenodd" fill="#333333" d="M14.754,43.696c0.598-0.36,1.317-0.774,1.868-1.449
			c1.041-1.274,1.245-2.365,1.386-3.738c0.027-0.262,0.066-0.573,0.063-0.776c-0.003-0.131-0.074-0.249-0.084-0.378
			c-0.016-0.218-0.002-0.451-0.021-0.691c-0.032-0.415,0.051-0.672,0.147-1.071c0.044-0.184,0-0.373,0.042-0.546
			c0.11-0.456,0.389-0.875,0.524-1.322c0.032-0.044,0.063-0.024,0.042,0c0.05,0.497,0.045,1.019,0.042,1.554
			c-0.004,0.523,0.118,1.03,0.105,1.532c-0.005,0.227-0.141,0.596-0.168,0.967c-0.027,0.366,0.02,0.744-0.063,1.027
			c-0.046,0.159-0.165,0.321-0.23,0.484C17.775,40.833,16.744,43.092,14.754,43.696z"/>
		<path fill-rule="evenodd" clip-rule="evenodd" fill="#333333" d="M17.693,36.349c0.111,2.021,0.242,4.044-1.869,6.066
			c0.587-0.798,0.724-1.558,1.029-2.372c0.157-0.419,0.318-0.803,0.356-1.197c0.078-0.814,0.108-1.622,0.44-2.414
			C17.629,36.403,17.672,36.375,17.693,36.349z"/>
		<path fill-rule="evenodd" clip-rule="evenodd" fill="#333333" d="M11.144,38.446c-0.222-0.02-0.431-0.143-0.547-0.376
			C10.779,38.158,11.215,38.18,11.144,38.446z"/>
		<path fill-rule="evenodd" clip-rule="evenodd" fill="#333333" d="M11.583,38.806c0.044,0.026,0.024,0.055,0.001,0.081
			c-0.588,0.164-1.738-0.666-1.513-1.301C10.162,38.265,10.955,38.954,11.583,38.806z"/>
		<path fill-rule="evenodd" clip-rule="evenodd" fill="#333333" d="M9.484,37.126c0.118,0.506,0.302,1.549,1.176,1.805
			c-0.361,0.08-0.785-0.229-1.05-0.631C9.379,37.953,9.485,37.414,9.484,37.126z"/>
		<path fill-rule="evenodd" clip-rule="evenodd" fill="#333333" d="M9.065,37.377c0.022,0.593,0.192,1.189,0.944,1.785
			C9.43,39.099,8.999,38.562,9,38.027c0.001-0.083,0.067-0.182,0.063-0.273C9.06,37.614,8.923,37.521,9.065,37.377z"/>
		<path fill-rule="evenodd" clip-rule="evenodd" fill="#333333" d="M10.976,39.749c-0.238,0.211-0.487,0.089-0.882-0.042
			c-0.31-0.103-0.598-0.148-0.735-0.484C9.896,39.484,10.436,39.721,10.976,39.749z"/>
		<path fill-rule="evenodd" clip-rule="evenodd" fill="#333333" d="M9.483,47.203c-0.952-0.113-1.903-0.109-2.855-0.967
			C7.581,46.568,8.533,46.821,9.483,47.203z"/>
		<path fill-rule="evenodd" clip-rule="evenodd" fill="#333333" d="M6.461,46.446c-0.575-0.024-1.26-0.399-1.763-1.092
			c0.567,0.321,1.133,0.563,1.7,0.818C6.458,46.265,6.298,46.356,6.461,46.446z"/>
		<path fill-rule="evenodd" clip-rule="evenodd" fill="#333333" d="M24.937,26.542c0.453,0.366,0.466,0.912,0.755,1.344
			c-0.053,0.212-0.036,0.422,0,0.631C25.372,27.942,25.344,27.188,24.937,26.542z"/>
		<path fill-rule="evenodd" clip-rule="evenodd" fill="#333333" d="M26.05,27.991c0.264,1.1,0.283,2.381-0.106,3.548
			c-0.091-0.041-0.039-0.264-0.083-0.378C26.367,30.105,25.943,29.047,26.05,27.991z"/>
		<path fill-rule="evenodd" clip-rule="evenodd" fill="#333333" d="M25.713,28.789c0.025-0.028-0.015,0.288,0.063,0.399
			c-0.079,0.406,0.019,0.812,0,1.218c-0.078-0.294-0.072-0.589-0.168-0.882C25.748,29.28,25.682,29.034,25.713,28.789z"/>
		<path fill-rule="evenodd" clip-rule="evenodd" fill="#333333" d="M19.185,32.966c0.07,0.433,0.148,0.873,0.167,1.347
			c0.012,0.288-0.079,0.594-0.042,0.88c0.031,0.251,0.161,0.486,0.188,0.735c0.059,0.504-0.063,1.03,0.127,1.512
			c-0.115,0.725-0.241,1.611-0.651,2.372c-0.389,0.723-1.03,1.445-1.785,2.246c0.58-0.762,1.019-1.543,1.385-2.268
			c0.161-0.318,0.343-0.656,0.441-0.986c0.083-0.279,0.08-0.58,0.126-0.882c0.045-0.292,0.15-0.585,0.188-0.859
			c0.092-0.663-0.091-1.368-0.083-2.058C19.254,34.302,19.247,33.634,19.185,32.966z"/>
		<path fill-rule="evenodd" clip-rule="evenodd" fill="#333333" d="M13.662,37.859c-0.602,0.478-1.386,0.479-2.058,0.504
			C12.207,38.238,12.991,38.261,13.662,37.859z"/>
		<path fill-rule="evenodd" clip-rule="evenodd" fill="#333333" d="M10.303,40.294c-0.105-0.113-0.209-0.209-0.315-0.272
			c0.343,0.076,0.686,0.288,1.029,0.104c0.081,0.024-0.156,0.048-0.21,0.168C10.639,40.196,10.471,40.297,10.303,40.294z"/>
		<path fill-rule="evenodd" clip-rule="evenodd" fill="#333333" d="M11.982,46.678c-0.456,0.218-1.14,0.223-1.722,0.168
			c-0.44-0.04-0.9-0.111-1.366-0.273c-0.172-0.061-0.317-0.181-0.481-0.231c-0.179-0.052-0.37-0.03-0.547-0.085
			C7.541,46.162,7.2,45.999,6.88,45.9c-0.321-0.098-0.446-0.103-0.797-0.295c-0.399-0.216-0.885-0.313-1.303-0.672
			c-0.754-0.642-0.786-1.451-0.944-2.204c0.474,0.701,0.923,1.527,1.702,2.204c0.249,0.216,0.615,0.253,0.923,0.38
			c0.598,0.244,1.143,0.598,1.764,0.797c0.237,0.076,0.479,0.135,0.714,0.209c0.237,0.076,0.478,0.186,0.713,0.253
			C10.328,46.767,11.298,46.599,11.982,46.678z"/>
	</g>
	<g>
		<path fill-rule="evenodd" clip-rule="evenodd" fill="#E6E6E6" d="M39.003,2.272c-0.368,0.538-1.031,0.889-1.532,1.238
			c0.162-0.372,0.561-0.643,0.776-0.986c0.149-0.236,0.027-0.511,0.127-0.714C38.583,1.936,38.794,2.05,39.003,2.272z"/>
		<path fill-rule="evenodd" clip-rule="evenodd" fill="#E6E6E6" d="M38.059,1.622c-0.051,0.322,0.065,0.644-0.251,0.966
			c-0.078-0.245,0.005-0.49-0.063-0.736c-0.28-0.383-0.56-0.366-0.841-0.546c0.046-0.097,0.463-0.06,0.65,0.021
			C37.736,1.405,37.9,1.567,38.059,1.622z"/>
		<path fill-rule="evenodd" clip-rule="evenodd" fill="#E6E6E6" d="M37.303,2.881c-0.29-0.477-0.188-0.952-0.672-1.428
			c0.247,0.203,0.559,0.214,0.714,0.462C37.464,2.106,37.376,2.674,37.303,2.881z"/>
		<path fill-rule="evenodd" clip-rule="evenodd" fill="#E6E6E6" d="M34.952,8.255c0.043,0.029,0.022,0.056,0,0.084
			c-0.581,0.288-1.239,0.025-1.932-0.084c-0.54-0.084-1.043-0.179-1.491-0.314c-0.955-0.289-2.003-0.526-2.961-0.567
			c-1.046-0.045-1.845,0.28-2.96,0.482c-0.274,0.216-0.601,0.337-0.902,0.483c-0.294,0.141-0.562,0.371-0.882,0.419
			c0.566-0.66,1.095-0.831,1.764-1.134c0.639-0.289,1.165-0.418,1.742-0.525c0.469-0.086,0.785-0.089,1.28-0.104
			c0.271-0.009,0.562-0.062,0.799-0.043c0.33,0.028,0.665,0.125,1.007,0.169c0.696,0.088,1.317,0.26,2.016,0.503
			c0.336,0.117,0.646,0.311,0.988,0.399c0.222,0.058,0.473,0.074,0.713,0.126C34.399,8.209,34.694,8.241,34.952,8.255z"/>
		<path fill-rule="evenodd" clip-rule="evenodd" fill="#E6E6E6" d="M24.58,4.729c-0.539,0.515-0.918,1.038-1.469,1.68
			c-0.175,0.203-0.335,0.477-0.483,0.735c-0.292,0.509-0.583,0.993-0.882,1.47c-0.168,0.271-0.384,0.487-0.503,0.714
			c-0.37,0.702-0.516,1.455-0.672,2.141c-0.206-0.727,0.157-1.366,0.461-2.183c0.172-0.458,0.297-0.932,0.568-1.407
			c0.079-0.139,0.178-0.274,0.251-0.419c0.125-0.249,0.191-0.347,0.398-0.609c0.303-0.382,0.494-0.832,0.82-1.196
			c0.375-0.421,0.736-0.818,1.154-0.987C24.342,4.747,24.46,4.653,24.58,4.729z"/>
		<path fill-rule="evenodd" clip-rule="evenodd" fill="#E6E6E6" d="M25.797,8.592c0.018,0.105-0.086,0.21-0.147,0.315
			C25.683,8.808,25.651,8.624,25.797,8.592z"/>
		<path fill-rule="evenodd" clip-rule="evenodd" fill="#E6E6E6" d="M25.251,9.516c-0.028,0.133-0.136,0.267-0.272,0.399
			C25.037,9.781,25.123,9.649,25.251,9.516z"/>
		<path fill-rule="evenodd" clip-rule="evenodd" fill="#E6E6E6" d="M25.776,10.628c-0.349,0.687-0.685,1.424-1.197,2.079
			c-0.18,0.229-0.408,0.424-0.587,0.672c-0.752,1.036-0.939,2.217-1.365,3.212c-0.16-0.673-0.005-1.27,0.294-2.058
			c0.189-0.499,0.382-0.747,0.777-1.239c0.285-0.352,0.477-0.799,0.756-1.133C24.89,11.641,25.479,11.152,25.776,10.628z"/>
		<path fill-rule="evenodd" clip-rule="evenodd" fill="#E6E6E6" d="M24.516,9.831c0.004,0.07-0.047,0.14-0.125,0.209
			C24.388,9.97,24.44,9.9,24.516,9.831z"/>
		<path fill-rule="evenodd" clip-rule="evenodd" fill="#E6E6E6" d="M24.706,10.271c-0.662,0.843-1.496,1.854-2.121,2.75
			c-0.093,0.003-0.047-0.325,0-0.419c0.146-0.293,0.486-0.638,0.776-0.987C23.77,11.126,24.388,10.741,24.706,10.271z"/>
		<path fill-rule="evenodd" clip-rule="evenodd" fill="#E6E6E6" d="M24.181,10.25c-0.324,0.574-1.029,1.147-1.47,1.722
			C22.951,11.373,23.689,10.801,24.181,10.25z"/>
		<path fill-rule="evenodd" clip-rule="evenodd" fill="#E6E6E6" d="M16.916,37.209c-0.052,0.239-0.358,0.903-0.525,1.197
			c-0.167,0.297-0.426,0.521-0.566,0.775c-0.161,0.292-0.202,0.557-0.483,0.903c-0.261,0.325-0.573,0.707-0.839,0.967
			c-0.453,0.437-1.033,0.742-1.533,1.112c-0.409,0.302-0.687,0.544-1.112,0.692c-0.665,0.233-1.197,0.432-1.869,0.357
			c-0.218-0.026-0.46-0.071-0.693-0.104c-0.239-0.035-0.501-0.046-0.672-0.085c-0.208-0.046-0.612-0.177-0.755-0.253
			c-0.433-0.226-0.994-0.94-1.449-0.986c-0.132-0.175-0.216-0.35-0.315-0.524c0.852,0.553,1.747,0.984,2.561,1.386
			c0.729,0.358,1.571,0.516,2.33,0.314c1.285-0.341,2.569-1.188,3.59-2.331C15.513,39.594,16.298,38.315,16.916,37.209z"/>
		<path fill-rule="evenodd" clip-rule="evenodd" fill="#E6E6E6" d="M15.594,40.379c0.043,0.035-0.23,0.251-0.273,0.356
			C15.292,40.615,15.499,40.497,15.594,40.379z"/>
		<path fill-rule="evenodd" clip-rule="evenodd" fill="#E6E6E6" d="M15.531,42.079c-0.523,0.622-1.272,1.589-1.932,1.681
			C14.159,43.332,14.899,42.694,15.531,42.079z"/>
		<path fill-rule="evenodd" clip-rule="evenodd" fill="#E6E6E6" d="M14.081,41.807c-0.847,0.729-1.736,1.499-2.645,1.722
			c-0.393,0.094-0.8,0.042-1.155,0.104c0.807-0.251,1.795-0.297,2.667-0.986C13.339,42.337,13.668,42.084,14.081,41.807z"/>
		<path fill-rule="evenodd" clip-rule="evenodd" fill="#E6E6E6" d="M9.8,43.57c-0.322,0.054-0.827,0.122-1.219-0.042
			C8.987,43.52,9.394,43.59,9.8,43.57z"/>
		<path fill-rule="evenodd" clip-rule="evenodd" fill="#E6E6E6" d="M39.654,3.175c0.042,0.223,0.136,0.447,0.21,0.671
			c-0.238,0.025-0.476-0.18-0.714-0.126C39.229,3.612,39.572,3.351,39.654,3.175z"/>
		<path fill-rule="evenodd" clip-rule="evenodd" fill="#E6E6E6" d="M33.65,7.248c-1.073-0.064-2.386-0.924-3.549-1.155
			c-0.412-0.081-0.863-0.091-1.302-0.126c-1.064-0.084-2.086-0.066-3.17,0.44c0.179-0.315,0.573-0.413,0.861-0.567
			c0.431-0.229,0.823-0.418,1.239-0.44c0.97-0.053,1.965,0.438,2.96,0.734c0.496,0.148,1.004,0.237,1.491,0.399
			C32.708,6.71,33.144,7.025,33.65,7.248z"/>
		<path fill-rule="evenodd" clip-rule="evenodd" fill="#E6E6E6" d="M25.146,8.78c0.077,0.112-0.156,0.224-0.167,0.337
			C24.921,9.087,25.04,8.879,25.146,8.78z"/>
		<path fill-rule="evenodd" clip-rule="evenodd" fill="#E6E6E6" d="M24.39,9.201c-0.358,0.525-0.642,1.049-1.196,1.574
			c0.336-0.503,0.863-1.007,0.965-1.511C24.236,9.235,24.314,9.13,24.39,9.201z"/>
		<path fill-rule="evenodd" clip-rule="evenodd" fill="#E6E6E6" d="M5.433,39.162c0.585,0.541,1.296,0.953,1.994,1.363
			c0.979,0.576,2.096,0.771,3.108,0.419c0.792-0.272,1.705-0.893,2.54-1.49c0.893-0.637,1.656-1.513,2.456-2.455
			c1.398-1.647,2.479-3.574,2.898-5.124c0.059-0.023-0.024,0.345-0.064,0.484c-0.051,0.182-0.132,0.378-0.188,0.565
			c-0.107,0.36-0.155,0.801-0.316,1.113c-0.12,0.235-0.341,0.469-0.503,0.757c-0.21,0.373-0.386,0.716-0.651,1.154
			c-0.093,0.153-0.141,0.341-0.23,0.482c-0.093,0.145-0.234,0.258-0.315,0.399c-0.072,0.122-0.096,0.277-0.168,0.378
			c-0.157,0.216-0.371,0.421-0.547,0.63c-0.168,0.201-0.352,0.452-0.524,0.609c-0.122,0.111-0.274,0.161-0.377,0.251
			c-0.316,0.272-0.551,0.635-0.841,0.882c-0.364,0.31-0.785,0.517-1.132,0.798c-0.599,0.48-0.994,0.771-1.639,0.841
			c-0.162,0.015-0.357-0.051-0.546-0.042c-0.509,0.018-1.199,0.14-1.701,0.02c-0.146-0.034-0.308-0.14-0.482-0.188
			c-0.436-0.122-0.796-0.274-1.303-0.589C6.379,40.098,5.802,39.86,5.433,39.162z"/>
		<path fill-rule="evenodd" clip-rule="evenodd" fill="#E6E6E6" d="M16.686,38.655c-0.048,0.443-0.508,1.067-0.945,1.578
			C16.067,39.707,16.292,39.182,16.686,38.655z"/>
		<path fill-rule="evenodd" clip-rule="evenodd" fill="#E6E6E6" d="M16.245,40.316c0.099,0.028-0.095,0.235-0.042,0.336
			c-0.421,0.646-1.128,1.264-1.765,1.807c-0.444,0.375-0.762,0.762-1.218,1.048c-0.625,0.395-1.493,0.626-2.204,0.65
			c-0.252,0.009-0.535,0.048-0.735,0.021c-0.161-0.021-0.306-0.107-0.462-0.124c-0.278-0.037-0.53-0.014-0.841,0.041
			c-0.125-0.039-0.251-0.146-0.376-0.168c0.23-0.03,0.455,0.024,0.692,0.02c0.24-0.002,0.5-0.074,0.735-0.063
			c0.168,0.009,0.314,0.111,0.483,0.107c0.163-0.007,0.328-0.088,0.483-0.107c0.219-0.023,0.458,0.024,0.671-0.041
			c0.354-0.109,0.771-0.297,1.114-0.523C13.9,42.577,15.291,41.688,16.245,40.316z"/>
		<path fill-rule="evenodd" clip-rule="evenodd" fill="#E6E6E6" d="M12.592,39.014c-0.379,0.244-0.938,0.338-1.387,0.421
			C11.583,39.297,12.143,39.145,12.592,39.014z"/>
		<path fill-rule="evenodd" clip-rule="evenodd" fill="#E6E6E6" d="M13.452,44.074c-0.154,0.223-0.489,0.103-0.713,0.126
			c0.021-0.076,0.222-0.111,0.314-0.189C13.187,44.191,13.319,44.067,13.452,44.074z"/>
		<path fill-rule="evenodd" clip-rule="evenodd" fill="#E6E6E6" d="M10.513,47.937c0.072,0.044-0.113,0.085-0.042,0.127
			c-0.119,0.05-0.237-0.049-0.356-0.022C10.164,47.937,10.393,48.018,10.513,47.937z"/>
	</g>
</g>
</svg>
