<?xml version="1.0" encoding="utf-8"?>
<!-- Generator: Adobe Illustrator 16.0.0, SVG Export Plug-In . SVG Version: 6.00 Build 0)  -->
<!DOCTYPE svg PUBLIC "-//W3C//DTD SVG 1.1//EN" "http://www.w3.org/Graphics/SVG/1.1/DTD/svg11.dtd">
<svg version="1.1" id="Layer_1" xmlns="http://www.w3.org/2000/svg" xmlns:xlink="http://www.w3.org/1999/xlink" x="0px" y="0px"
	 width="50px" height="50px" viewBox="0 0 50 50" enable-background="new 0 0 50 50" xml:space="preserve">
<path fill="#1A1A1A" d="M35.064,4.661c-0.222,0.069-0.438,0.387-0.711,0.383c-0.268-0.004-0.455-0.173-0.713-0.294
	c-0.273-0.504-0.682-0.926-1.035-1.402c-0.353-0.47-0.729-0.979-1.271-1.28c-0.133-0.073-0.278-0.104-0.403-0.173
	c-0.332-0.183-0.621-0.507-0.986-0.666c-0.608-0.264-1.205-0.161-1.637-0.067c-0.164,0.036-0.328,0.134-0.479,0.13
	c-0.157-0.003-0.285-0.058-0.396-0.062c-0.533-0.017-1.068,0.159-1.527,0.34c-0.475,0.187-0.879,0.502-1.286,0.81
	c-0.846,0.638-1.568,1.512-2.054,2.659c-0.531,1.255-0.822,2.541-0.872,3.738c-0.024,0.578,0.003,1.114,0.052,1.675
	c0.023,0.273,0.07,0.547,0.088,0.814c0.019,0.29-0.012,0.573,0.01,0.855c0.026,0.339,0.195,0.831,0.065,1.156
	c-0.098,0.246-0.457,0.451-0.65,0.665c-0.449,0.497-0.884,0.903-1.252,1.454c-0.689,0.29-1.008,0.892-1.534,1.583
	c-0.222,0.293-0.472,0.596-0.6,0.92c-0.239,0.603-0.422,1.231-0.65,1.888c-0.121,0.348-0.29,0.688-0.376,1.036
	c-0.378,1.536-0.131,2.708,0.091,3.937c0.071,0.394,0.209,0.795,0.224,1.208c0.013,0.349-0.013,0.669,0.018,1.032
	c0.029,0.329-0.037,0.656-0.034,0.993c-0.276,0.575-0.735,1.063-1.007,1.707c-0.275,0.651-0.628,1.309-0.865,2.015
	c-0.229,0.684-0.381,1.414-0.444,1.997c-0.094,0.866,0.027,1.646,0.067,2.444c0.027,0.529,0.08,1.039,0.175,1.562
	c0.094,0.508,0.137,1.049,0.307,1.494c0.145,0.383,0.388,0.801,0.617,1.139c0.494,0.724,1.037,1.438,1.732,2.019
	c0.448,0.374,1.141,0.668,1.511,1.073c0.166,0.021,0.336,0.233,0.608,0.349c0.323,0.136,0.788,0.304,1.148,0.369
	c0.205,0.036,0.431-0.015,0.657-0.009c0.576,0.015,1.217,0.02,1.702-0.064c0.396-0.068,0.769-0.255,1.166-0.367
	c0.395-0.115,0.789-0.283,1.166-0.369c0.98-0.223,2.043-0.201,3.154-0.102c0.399,0.036,0.736,0.21,1.168,0.374
	c0.604,0.229,1.207,0.362,1.65,0.64c0.449,0.278,0.807,0.604,1.24,0.899c0.612,0.42,1.199,0.881,1.658,1.428
	c0.146,0.175,0.354,0.396,0.407,0.567c0.045,0.144-0.043,0.43-0.077,0.65c-0.035,0.223-0.048,0.488-0.111,0.619
	c-0.055,0.111-0.224,0.254-0.332,0.353c-0.119,0.11-0.258,0.221-0.404,0.241c-0.4-0.182-0.682-0.404-0.921-0.666
	c-0.144-0.157-0.21-0.394-0.419-0.463c-0.137,0.104-0.102,0.287-0.094,0.428c0.021,0.49,0.153,0.916,0.645,1.189
	c0.035,0.037-0.047,0.135,0.016,0.157c0.492,0.194,0.986,0.244,1.387,0.097c0.285-0.104,0.662-0.378,0.81-0.68
	c0.047-0.1,0.052-0.266,0.101-0.383c0.069-0.167,0.28-0.467,0.359-0.715c0.109-0.338,0.169-0.912,0.118-1.25
	c-0.033-0.223-0.162-0.484-0.24-0.754c-0.132-0.461-0.231-0.807-0.426-1.185c-0.076-0.147-0.103-0.282-0.164-0.444
	c-0.106-0.283-0.287-0.571-0.423-0.855c-0.27-0.559-0.555-1.146-0.907-1.667c-0.176-0.259-0.414-0.491-0.639-0.729
	c-0.652-0.69-1.601-1.463-2.632-1.869c-0.536-0.213-1.226-0.434-1.604-0.516c-0.447-0.098-0.814-0.044-1.189-0.033
	c-0.213,0.008-0.408,0.047-0.598,0.094c-0.283,0.07-0.535,0.23-0.785,0.338c-0.09,0.037-0.207,0.037-0.289,0.082
	c-0.146,0.078-0.287,0.232-0.436,0.34c-0.322,0.23-0.61,0.4-0.934,0.596c-0.167,0.102-0.303,0.253-0.456,0.334
	c-0.113,0.061-0.29,0.104-0.446,0.162c-0.4,0.157-0.733,0.236-1.173,0.323c-0.244,0.048-0.474,0.157-0.694,0.19
	c-0.452,0.068-1.033,0.104-1.525-0.009c-1.099-0.252-2.032-0.782-2.359-1.63c-0.19-0.492-0.276-1.136-0.249-1.738
	c0.052-1.191,0.548-2.295,0.947-3.43c0.198-0.562,0.449-1.02,0.753-1.462c0.456-0.666,0.741-1.435,1.138-2.188
	c0.128-0.242,0.297-0.449,0.4-0.701c0.216-0.527,0.333-1.144,0.474-1.746c0.269-1.16,0.511-2.25,0.377-3.22
	c-0.088-0.638-0.408-1.135-0.735-1.655c-0.106-0.168-0.221-0.313-0.354-0.463c-0.119-0.134-0.324-0.263-0.327-0.476
	c-0.152-0.068-0.159,0.016-0.251-0.103c-0.131-0.167,0.028-0.663,0.185-1.054c0.16-0.395,0.349-0.671,0.515-0.926
	c0.391-0.595,0.733-1.087,1.131-1.689c0.187-0.282,0.362-0.58,0.556-0.847c0.41-0.565,0.771-1.04,1.186-1.585
	c0.203-0.267,0.455-0.499,0.616-0.763c0.074-0.121,0.129-0.323,0.192-0.462c0.08-0.176,0.219-0.21,0.292-0.365
	c0.119-0.253,0.18-0.629,0.285-0.957c0.106-0.331,0.181-0.678,0.285-0.956c0.04-0.106,0.104-0.171,0.128-0.265
	c0.033-0.122,0.014-0.294,0.061-0.461c0.062-0.219,0.19-0.428,0.217-0.607c0.029-0.191-0.036-0.447-0.047-0.67
	c-0.029-0.65,0.071-1.529-0.049-2.09c-0.056-0.255-0.205-0.453-0.311-0.667C25.481,7.841,25.293,7.364,25.3,7.27
	c0.038-0.516,0.423-1.069,0.597-1.381c0.42-0.752,0.881-1.248,1.58-1.523c0.237-0.094,0.492-0.166,0.754-0.239
	c0.248-0.069,0.584-0.181,0.799-0.18c0.729,0.004,1.212,0.506,1.699,0.763c0.162,0.225,0.43,0.396,0.429,0.705
	c0.208,0.086,0.229,0.28,0.295,0.444c0.163,0.412,0.508,0.803,0.958,1.093c0.337,0.217,0.854,0.5,1.314,0.597
	c0.43,0.09,0.588-0.061,0.933-0.182c0.215-0.075,0.448-0.042,0.622-0.105c0.205-0.075,0.471-0.336,0.666-0.507
	c0.195-0.173,0.468-0.438,0.568-0.69c0.041-0.099,0.045-0.219,0.082-0.323c0.115-0.314,0.334-0.616,0.371-1.017
	c0.219,0.11,0.174-0.194,0.231-0.384c0.045-0.149,0.124-0.229,0.147-0.324c0.028-0.118,0.004-0.347,0-0.545
	c-0.007-0.323,0.01-0.631,0.004-0.895c-0.004-0.128,0.049-0.242,0.041-0.335c-0.005-0.068-0.078-0.195-0.129-0.347
	c-0.113-0.355-0.191-0.512-0.363-0.838c-0.094-0.176-0.176-0.366-0.263-0.477c-0.188-0.241-0.579-0.554-0.836-0.661
	c-0.149-0.062-0.649-0.102-0.776-0.096c-0.232,0.01-0.578,0.132-0.766,0.278C34.15,0.185,34.01,0.379,33.85,0.559
	c-0.145,0.162-0.283,0.387-0.354,0.563c-0.229,0.55-0.093,0.711,0.006,1.137c0.051,0.22,0.062,0.446,0.132,0.61
	c0.18,0.42,0.622,0.729,1.108,0.901c0.116-0.064,0.233-0.291,0.251-0.443c-0.106-0.121-0.27-0.061-0.271-0.24
	c-0.004-0.231,0.278-0.54,0.414-0.609C35.549,2.968,35.55,3.913,35.064,4.661z"/>
<g>
	<path fill="#999999" d="M29.689,3.657c-0.232-0.068-0.584-0.209-0.916-0.272c-0.078-0.015-0.162,0.007-0.236-0.011
		c-0.085-0.02-0.163-0.084-0.252-0.102c-0.123-0.024-0.299,0.019-0.434-0.008c-0.082-0.017-0.156-0.067-0.219-0.07
		c-0.094-0.004-0.173,0.085-0.294,0.102c-0.297,0.042-0.586-0.079-0.741,0.199c0.149,0.034,0.211-0.104,0.327-0.135
		c0.206-0.028,0.496,0.108,0.646-0.034c0.272,0.11,0.549,0.07,0.757,0.156c-0.562,0.052-1.146,0.065-1.688,0.157
		c-0.312,0.056-0.48,0.342-0.729,0.508c-0.118,0.079-0.277,0.088-0.386,0.182c-0.103,0.088-0.144,0.215-0.24,0.338
		c-0.177,0.225-0.465,0.517-0.583,0.729c-0.154,0.277-0.203,0.613-0.278,0.937c-0.031,0.129-0.1,0.265-0.127,0.396
		c-0.064,0.303-0.055,0.634-0.087,0.954c-0.058,0.563-0.002,1.125-0.079,1.743c-0.021,0.162-0.056,0.314-0.067,0.48
		c-0.024,0.338-0.103,0.76-0.27,1.18c-0.075-0.164,0.029-0.291,0.054-0.441c0.04-0.243-0.026-0.509,0.004-0.763
		c0.05-0.411,0.128-0.818,0.151-1.218c0.013-0.235-0.041-0.522-0.023-0.815c0.016-0.246,0.082-0.521,0.117-0.771
		c0.048-0.349,0.149-1.068,0.457-1.425c0.095-0.759,0.592-1.128,0.914-1.693c0.249-0.141,0.466-0.341,0.757-0.521
		c0.178-0.11,0.385-0.269,0.567-0.341c0.487-0.193,1.5-0.23,2.343,0.184C29.314,3.371,29.482,3.544,29.689,3.657z M26.18,3.578
		c-0.059-0.044-0.174,0.038-0.229,0.101C26.041,3.675,26.111,3.629,26.18,3.578z"/>
	<path fill="#999999" d="M23.06,41.741c0.119,0.017,0.209-0.103,0.333-0.155c0.061-0.025,0.14,0,0.204-0.021
		c0.235-0.082,0.477-0.271,0.698-0.408c0.228-0.143,0.458-0.281,0.679-0.416c0.743-0.45,1.387-0.983,2.268-1.215
		c0.857-0.226,1.736-0.488,2.964-0.053c-0.411,0.025-0.776,0.021-1.144,0.024c-0.28,0.004-0.588,0.132-0.871,0.2
		c-0.43,0.104-0.92,0.211-1.39,0.449c-0.442,0.226-0.95,0.386-1.295,0.634c-0.137,0.098-0.232,0.221-0.378,0.293
		c-0.09,0.046-0.207,0.055-0.294,0.102c-0.185,0.103-0.333,0.28-0.535,0.375c-0.102,0.048-0.222,0.04-0.334,0.089
		c-0.098,0.043-0.174,0.131-0.274,0.176c-0.15,0.064-0.322,0.091-0.484,0.148c-0.13,0.047-0.24,0.145-0.366,0.188
		c-0.203,0.069-0.49,0.119-0.676,0.134c-0.818,0.056-2.056-0.138-2.795-0.745c0.173-0.007,0.283,0.143,0.456,0.212
		c0.242,0.101,0.677,0.166,1.021,0.22c0.397,0.061,0.727,0.06,1.039,0.027c0.503-0.146,1.007-0.291,1.474-0.51
		C23.384,41.562,23.147,41.67,23.06,41.741z"/>
	<path fill="#999999" d="M36.248,1.722c-0.234,0.007-0.355-0.173-0.527-0.191c-0.203-0.021-0.389,0.22-0.63,0.126
		c-0.224,0.197-0.345,0.595-0.522,0.88c-0.055-0.274,0.055-0.689,0.232-0.93c0.062-0.084,0.235-0.256,0.332-0.286
		C35.505,1.207,35.955,1.483,36.248,1.722z"/>
	<path fill="#999999" d="M28.48,1.981c-0.482-0.283-1.228-0.304-1.72-0.29c0.341-0.14,0.955-0.117,1.507,0.003
		c0.438,0.095,0.814,0.268,0.991,0.514c-0.139,0.015-0.385-0.026-0.526-0.125c0.121,0.188,0.443,0.25,0.662,0.387
		c0.318,0.203,0.595,0.529,0.765,0.813c-0.478-0.466-1.257-0.911-2.011-1.147c-0.133-0.042-0.271-0.004-0.436-0.009
		c-0.23-0.006-0.441-0.107-0.605-0.085c-0.236,0.032-0.371,0.295-0.683,0.152c-0.245-0.03-0.381,0.223-0.575,0.296
		c-0.062,0.024-0.129-0.015-0.197,0.003c-0.248,0.062-0.375,0.409-0.679,0.349c-0.096,0.242-0.356,0.332-0.506,0.492
		c-0.066,0.071-0.103,0.191-0.175,0.271c-0.063,0.071-0.162,0.105-0.208,0.173c-0.082,0.12-0.099,0.28-0.192,0.396
		C23.83,4.251,23.7,4.29,23.65,4.382c-0.308,0.575-0.73,1.162-0.957,1.963c-0.104,0.366-0.119,0.749-0.165,1.126
		c-0.032,0.264-0.112,0.534-0.149,0.804c-0.082,0.604-0.153,1.16-0.158,1.717c-0.097-0.386,0.035-0.807,0.07-1.309
		c0.072-1.039,0.285-2.251,0.668-3.169c0.081-0.193,0.108-0.433,0.203-0.633c0.053-0.112,0.163-0.18,0.227-0.298
		c0.033-0.062,0.037-0.147,0.07-0.218c0.029-0.064,0.095-0.121,0.123-0.179c0.078-0.164,0.106-0.349,0.205-0.502
		c0.239-0.371,0.629-0.673,0.982-0.951c0.342-0.269,0.712-0.637,1.077-0.768c0.309-0.111,0.637-0.045,0.945-0.024
		c0.348,0.024,0.689-0.118,1.091-0.065C28.076,1.901,28.264,1.997,28.48,1.981z"/>
	<path fill="#999999" d="M17.368,39.479c-0.413-1.058-0.579-2.287-0.71-3.567c-0.043-0.42-0.071-0.925,0.011-1.328
		c0.028-0.142,0.101-0.282,0.133-0.415c0.115-0.47,0.115-0.895,0.281-1.352c0.146-0.401,0.357-0.952,0.544-1.354
		c0.077-0.165,0.171-0.312,0.257-0.463c0.185-0.326,0.297-0.675,0.456-1.011c0.113-0.24,0.324-0.52,0.491-0.781
		c0.178-0.282,0.303-0.564,0.444-0.84c0.1-0.195,0.269-0.331,0.396-0.484c0.086-0.104,0.144-0.223,0.219-0.345
		c0.146-0.233,0.349-0.427,0.453-0.662c0.403-0.91,0.395-1.883,0.543-2.577c0.137,0.911,0.052,1.827-0.284,2.856
		c-0.167,0.512-0.492,0.864-0.722,1.297c-0.17,0.319-0.275,0.668-0.429,0.997c-0.064,0.14-0.2,0.238-0.272,0.371
		c-0.203,0.373-0.293,0.796-0.486,1.176c-0.062,0.123-0.175,0.217-0.239,0.338c-0.172,0.325-0.314,0.723-0.435,1.083
		c-0.037,0.108-0.023,0.22-0.062,0.33c-0.098,0.272-0.242,0.522-0.34,0.786c-0.208,0.557-0.355,1.109-0.454,1.688
		c-0.046,0.271-0.14,0.547-0.175,0.817c-0.04,0.312,0.003,0.668,0.004,1.006c0.002,0.32-0.004,0.667,0.012,0.985
		C17.026,38.52,17.282,38.979,17.368,39.479z"/>
	<path fill="#999999" d="M20.924,27.172c-0.32,1.008-0.616,2.059-1.018,3.035c-0.127,0.309-0.351,0.584-0.483,0.895
		c-0.053,0.123-0.072,0.274-0.127,0.396c-0.13,0.28-0.409,0.638-0.541,1.005c-0.077,0.213-0.099,0.449-0.196,0.68
		c-0.054,0.127-0.143,0.215-0.187,0.312c-0.234,0.507-0.384,1.103-0.501,1.629c-0.028,0.13-0.015,0.271-0.041,0.401
		c-0.102,0.516-0.26,1.049-0.292,1.521c-0.066,0.987,0.058,1.885,0.254,2.68c-0.141-0.229-0.15-0.537-0.24-0.818
		c-0.088-0.28-0.201-0.581-0.227-0.858c-0.026-0.287-0.024-0.642-0.037-0.973c-0.013-0.328-0.043-0.69-0.011-0.986
		c0.034-0.321,0.132-0.681,0.198-1.026c0.204-1.073,0.548-2.182,0.982-3.267c0.106-0.265,0.286-0.479,0.413-0.739
		c0.177-0.369,0.311-0.769,0.513-1.123c0.08-0.142,0.22-0.242,0.297-0.386c0.179-0.329,0.272-0.672,0.443-0.972
		C20.38,28.125,20.721,27.773,20.924,27.172z"/>
	<path fill="#999999" d="M32.779,4.167c0.289,0.144,0.354,0.564,0.627,0.834c0.158,0.158,0.416,0.266,0.609,0.414
		c0.143,0.11,0.37,0.316,0.661,0.387c0.267,0.064,0.726,0.087,1.015,0.106c0.188,0.014,0.379-0.153,0.557-0.17
		c-0.045,0.073-0.083,0.16-0.123,0.245c-0.577,0.108-1.211,0.204-1.953-0.169c-0.061-0.03-0.111-0.103-0.173-0.142
		c-0.092-0.059-0.194-0.077-0.265-0.129C33.256,5.185,33.031,4.57,32.779,4.167z"/>
</g>
<g>
	<path fill="#4D4D4D" d="M23.463,4.148c-0.087,0.298-0.302,0.496-0.406,0.721c-0.078,0.171-0.087,0.371-0.163,0.58
		c-0.036,0.098-0.113,0.182-0.155,0.278c-0.234,0.536-0.332,1.139-0.447,1.734c-0.053,0.274-0.138,0.534-0.188,0.791
		c-0.058,0.297-0.021,0.654-0.106,1.014C21.962,7.762,22.508,5.46,23.463,4.148z"/>
	<path fill="#4D4D4D" d="M28.475,2.612c-0.317,0.004-0.559-0.163-0.822-0.155c-0.27,0.008-0.534,0.171-0.807,0.2
		c-0.106,0.011-0.223-0.027-0.322-0.016c-0.205,0.023-0.385,0.156-0.597,0.158c-0.149,0.106-0.265,0.277-0.45,0.313
		c-0.082,0.077-0.156,0.167-0.233,0.253c-0.028,0.074-0.126,0.012-0.157,0.081c-0.561,0.581-1.143,1.119-1.542,2.016
		c-0.022,0.097-0.106,0.073-0.136,0.152c-0.173,0.415-0.307,0.714-0.427,1.195c-0.093,0.372-0.075,0.817-0.144,1.264
		c-0.06,0.389-0.046,0.804-0.092,1.171c-0.023,0.179-0.091,0.375-0.105,0.534c-0.023,0.246,0.066,0.498-0.038,0.73
		c-0.001-0.124-0.101-0.284-0.084-0.42c0.068-0.523,0.049-1.144,0.119-1.73c0.033-0.276,0.137-0.563,0.167-0.863
		c0.08-0.794,0.215-1.579,0.657-2.387c0.064-0.117,0.176-0.22,0.239-0.338c0.046-0.084,0.062-0.197,0.109-0.271
		c0.041-0.064,0.132-0.094,0.182-0.16c0.101-0.132,0.12-0.335,0.212-0.456c0.063-0.082,0.184-0.106,0.254-0.18
		c0.071-0.074,0.097-0.178,0.168-0.252c0.144-0.148,0.383-0.207,0.442-0.425c0.23,0.083,0.393-0.229,0.622-0.303
		c0.105-0.034,0.219,0.011,0.314-0.03c0.161-0.066,0.264-0.233,0.426-0.235c0.088-0.001,0.188,0.061,0.264,0.063
		c0.188,0.005,0.301-0.156,0.49-0.17c0.064-0.005,0.16,0.043,0.244,0.057C27.797,2.463,28.075,2.376,28.475,2.612z"/>
	<path fill="#4D4D4D" d="M26.525,2.838c0.002,0.062-0.084,0.104-0.131,0.133c-0.174,0.109-0.375,0.216-0.567,0.342
		c-0.245,0.16-0.538,0.318-0.75,0.501c-0.265,0.229-0.494,0.604-0.718,0.948c-0.511,0.785-0.871,1.78-1.125,2.826
		c-0.176,0.723-0.085,1.488-0.205,2.205c-0.075,0.445-0.035,0.884-0.104,1.276c-0.089-0.232-0.041-0.391,0.012-0.717
		c0.029-0.18-0.052-0.376-0.039-0.558c0.01-0.143,0.08-0.285,0.1-0.448c0.044-0.354,0.001-0.765,0.046-1.164
		c0.022-0.201,0.071-0.371,0.072-0.566c0.004-0.542,0.081-1.251,0.4-1.858c0.032-0.06,0.103-0.097,0.137-0.153
		c0.04-0.066,0.034-0.147,0.07-0.218c0.027-0.053,0.097-0.084,0.13-0.133c0.161-0.232,0.264-0.532,0.419-0.761
		c0.234-0.347,0.566-0.645,0.85-0.95c0.15-0.073,0.297-0.152,0.392-0.333C25.848,3.085,26.154,2.897,26.525,2.838z"/>
	<path fill="#4D4D4D" d="M22.202,12.3c-0.106-0.276,0.013-0.668-0.063-0.959c0.016-0.051,0.022-0.02,0.046-0.007
		C22.252,11.624,22.249,11.95,22.202,12.3z"/>
	<path fill="#4D4D4D" d="M19.524,25.478c0.004,0.095,0.1,0.097,0.131-0.001c-0.17,0.608-0.506,1.144-0.77,1.718
		c-0.043,0.094-0.118,0.158-0.168,0.252c-0.406,0.744-0.919,1.515-1.335,2.257c-0.215,0.384-0.41,0.769-0.625,1.132
		c-0.151,0.254-0.259,0.402-0.406,0.721c-0.044,0.094-0.139,0.164-0.195,0.266c-0.111,0.201-0.139,0.453-0.243,0.619
		c-0.05,0.082-0.167,0.148-0.208,0.24c-0.042,0.094-0.019,0.221-0.042,0.336c-0.031,0.149-0.105,0.295-0.133,0.416
		c-0.185,0.795-0.218,1.65-0.289,2.396c-0.022-0.808-0.053-1.685,0.123-2.56c0.101-0.502,0.235-1,0.331-1.509
		c0.097-0.512,0.394-1.114,0.648-1.473c0.194-0.274,0.461-0.485,0.667-0.79c0.053-0.078,0.074-0.188,0.129-0.266
		c0.096-0.137,0.252-0.234,0.357-0.364c0.118-0.146,0.178-0.324,0.284-0.478c0.159-0.229,0.374-0.406,0.512-0.644
		c0.042-0.072,0.051-0.16,0.096-0.231c0.151-0.238,0.383-0.416,0.499-0.67c0.087-0.189,0.104-0.381,0.191-0.527
		C19.201,26.116,19.457,25.866,19.524,25.478z"/>
	<path fill="#4D4D4D" d="M25.256,11.556c-0.061,0.547-0.298,1.426-0.562,2.09c-0.122,0.306-0.302,0.634-0.458,0.813
		c-0.119,0.139-0.316,0.235-0.469,0.374s-0.277,0.318-0.416,0.478c-0.271,0.313-0.587,0.621-0.878,0.831
		c-0.137,0.101-0.306,0.149-0.431,0.256c-0.173,0.146-0.307,0.374-0.48,0.544c-0.104,0.101-0.245,0.17-0.326,0.267
		c-0.182,0.216-0.255,0.499-0.426,0.715c-0.107,0.135-0.268,0.22-0.377,0.359c-0.093,0.119-0.181,0.283-0.271,0.437
		c-0.081,0.139-0.201,0.285-0.265,0.417c-0.087,0.183-0.124,0.412-0.19,0.594c-0.071,0.193-0.164,0.367-0.217,0.542
		c-0.165,0.537-0.177,1.147-0.25,1.731c-0.067,0.542-0.072,1.113-0.061,1.618c0.01,0.453,0.169,1.08-0.047,1.644
		c0.099-0.59-0.094-1.076-0.136-1.616c-0.035-0.441,0.008-1.01,0.088-1.5c0.042-0.255,0.063-0.516,0.123-0.79
		c0.189-0.873,0.529-2.01,0.894-2.922c0.375-0.939,0.974-1.593,1.566-2.161c0.246-0.236,0.485-0.461,0.729-0.639
		c0.506-0.369,1.084-0.706,1.458-1.279c0.084-0.13,0.119-0.279,0.199-0.417c0.151-0.258,0.396-0.51,0.536-0.854
		C24.803,12.568,24.998,12.016,25.256,11.556z"/>
	<path fill="#4D4D4D" d="M23.844,6.977c-0.08,0.603-0.119,1.186-0.15,1.764C23.66,8.195,23.599,7.665,23.844,6.977z"/>
	<path fill="#4D4D4D" d="M24.302,5.618c-0.043-0.017,0.018-0.087,0.018-0.125C24.375,5.51,24.337,5.601,24.302,5.618z"/>
	<path fill="#4D4D4D" d="M22.607,10.968c0.072,0.315,0.072,0.668-0.014,1.065C22.492,11.732,22.622,11.313,22.607,10.968z"/>
	<path fill="#4D4D4D" d="M25.886,4.489c-0.016,0.174-0.239,0.24-0.344,0.392c-0.054,0.08-0.066,0.188-0.115,0.291
		c-0.162,0.339-0.497,0.607-0.596,0.834c-0.065,0.151-0.048,0.363-0.085,0.541c-0.105,0.498-0.083,1.008-0.056,1.466
		c0.008,0.129,0.074,0.25,0.076,0.374c0.004,0.25-0.085,0.552-0.135,0.83c-0.073,0.403,0.003,0.74-0.263,1.16
		c-0.008-0.577,0.11-1.141,0.145-1.744c0.017-0.289-0.039-0.588-0.023-0.88c0.017-0.306-0.001-0.627,0.056-0.921
		c0.068-0.353,0.18-0.786,0.29-1.107c0.062-0.181,0.196-0.278,0.317-0.444c0.064-0.087,0.092-0.206,0.155-0.278
		c0.054-0.063,0.149-0.095,0.202-0.153C25.635,4.709,25.707,4.515,25.886,4.489z"/>
	<path fill="#4D4D4D" d="M26.785,4.34c-0.395,0.286-0.835,0.773-1.174,1.414c-0.104,0.198-0.253,0.387-0.335,0.569
		c-0.281,0.627-0.332,1.33-0.287,1.851c-0.132-0.411-0.085-0.915-0.128-1.372c0.076-0.237,0.097-0.447,0.15-0.672
		c0.174-0.266,0.452-0.501,0.609-0.809c0.041-0.08,0.05-0.176,0.103-0.251c0.049-0.072,0.156-0.112,0.234-0.187
		c0.111-0.106,0.186-0.247,0.273-0.306C26.402,4.459,26.613,4.461,26.785,4.34z"/>
	<path fill="#4D4D4D" d="M16.192,33.688c0.072,0.054,0.006,0.162-0.031,0.23C16.14,33.857,16.16,33.773,16.192,33.688z"/>
	<path fill="#4D4D4D" d="M16.06,34.234c-0.242,0.824-0.107,1.562-0.046,2.32c0.038,0.476,0.122,0.979,0.24,1.43
		c0.058,0.225,0.157,0.432,0.205,0.656c0.05,0.232,0.154,0.424,0.211,0.635c0.157,0.578,0.25,1.115,0.472,1.658
		c-0.297-0.416-0.559-0.963-0.714-1.519c-0.082-0.291-0.156-0.626-0.22-0.942c-0.121-0.596-0.232-1.183-0.284-1.839
		C15.86,35.843,15.747,35.105,16.06,34.234z"/>
	<path fill="#4D4D4D" d="M26.18,3.578"/>
	<path fill="#4D4D4D" d="M20.469,24.777c0.007,0.298-0.055,0.596-0.108,0.882c-0.069,0.362-0.133,0.817-0.303,1.147
		c-0.113,0.221-0.267,0.418-0.399,0.635c-0.17,0.279-0.424,0.469-0.583,0.795c-0.076,0.158-0.121,0.33-0.199,0.482
		c-0.18,0.354-0.553,0.824-0.716,1.211c-0.053,0.127-0.073,0.268-0.127,0.396c-0.208,0.502-0.512,0.947-0.746,1.441
		c-0.109,0.228-0.157,0.484-0.255,0.726c-0.246,0.601-0.493,1.243-0.655,1.974c-0.091,0.412-0.074,0.881-0.064,1.288
		c0.014,0.563,0.14,1.172,0.224,1.753c0.166,1.161,0.466,2.258,0.97,3.236c0.252,0.49,0.541,0.947,0.74,1.438
		c-0.733-0.642-1.035-1.752-1.325-2.674c-0.069-0.221-0.152-0.438-0.225-0.662c-0.071-0.219-0.106-0.447-0.178-0.668
		c-0.224-0.685-0.304-1.369-0.359-2.146c-0.03-0.414-0.113-0.857-0.035-1.32c0.059-0.349,0.172-0.573,0.253-0.856
		c0.062-0.221,0.081-0.395,0.184-0.642c0.104-0.249,0.186-0.547,0.287-0.759c0.062-0.128,0.187-0.229,0.246-0.357
		c0.105-0.231,0.096-0.488,0.169-0.731c0.129-0.425,0.432-0.854,0.61-1.288c0.055-0.135,0.07-0.276,0.127-0.396
		c0.052-0.106,0.143-0.183,0.201-0.285c0.233-0.406,0.404-0.834,0.604-1.269C19.554,27.378,20.206,26.195,20.469,24.777z"/>
	<path fill="#4D4D4D" d="M27.562,3.891c0.065-0.012,0.139-0.009,0.217,0.004C27.725,3.942,27.631,3.961,27.562,3.891z"/>
	<path fill="#4D4D4D" d="M28.494,1.396c0.279,0.095,0.551,0.101,0.824,0.221c0.24,0.106,0.41,0.347,0.611,0.545
		c0.202,0.202,0.432,0.379,0.564,0.552c0.199,0.26,0.249,0.627,0.402,0.916c0.068,0.125,0.193,0.22,0.262,0.345
		c0.136,0.249,0.216,0.555,0.351,0.812c0.043,0.079,0.111,0.143,0.148,0.222c0.032,0.073,0.022,0.161,0.055,0.236
		c0.108,0.26,0.312,0.487,0.442,0.731C32.296,6.244,32.434,6.5,32.65,6.68c-0.291-0.208-0.635-0.434-0.812-0.741
		c-0.176-0.304-0.215-0.67-0.34-0.982c-0.128-0.316-0.304-0.654-0.472-0.98c-0.36-0.7-0.642-1.235-1.291-1.833
		c-0.061-0.057-0.159-0.098-0.23-0.161C29.268,1.768,29.033,1.464,28.494,1.396z"/>
	<path fill="#4D4D4D" d="M31.213,2.857c0.199,0.026,0.262,0.31,0.373,0.535c0.377,0.751,0.689,1.603,1.236,2.274
		c0.496,0.494,0.84,1.065,1.75,1.348c-0.549-0.034-1.166-0.392-1.506-0.68C32.041,5.464,31.773,3.934,31.213,2.857z"/>
	<path fill="#4D4D4D" d="M19.535,42.793c0.508,0.12,0.915,0.484,1.407,0.583c0.573,0.113,1.452-0.001,1.978-0.108
		c0.542-0.109,1.072-0.324,1.585-0.518c0.334-0.125,0.645-0.162,0.916-0.404c0.292-0.01,0.517-0.212,0.779-0.318
		c0.094-0.037,0.206-0.034,0.308-0.074c0.184-0.072,0.362-0.213,0.557-0.303c0.303-0.14,0.59-0.344,0.922-0.426
		c0.214-0.052,0.478-0.08,0.716-0.119c0.847-0.138,1.801-0.219,2.899,0.146c0.305,0.101,0.612,0.241,0.905,0.378
		c0.272,0.129,0.478,0.342,0.716,0.492c0.288,0.182,0.519,0.293,0.729,0.518c0.137,0.145,0.17,0.346,0.264,0.543
		c-0.379-0.392-0.932-0.635-1.607-0.91c-0.25-0.101-0.553-0.213-0.807-0.279c-0.148-0.038-0.326-0.014-0.486-0.047
		c-0.387-0.08-0.781-0.176-1.125-0.166c-0.088,0.004-0.172,0.046-0.256,0.051c-0.211,0.011-0.435-0.01-0.633-0.006
		c-0.217,0.003-0.418,0.023-0.617,0.02c-0.33,0.124-0.68,0.118-1.022,0.195c-0.324,0.072-0.665,0.253-1.015,0.374
		c-0.35,0.12-0.722,0.177-1.056,0.294c-0.494,0.173-1.063,0.277-1.559,0.504c-0.171,0.077-0.318,0.211-0.471,0.242
		c-0.081,0.017-0.176-0.008-0.263,0.003c-0.327,0.043-0.681,0.146-1.03,0.149c-0.2,0.002-0.424-0.053-0.645-0.032
		c-0.199,0.018-0.42,0.095-0.591,0.073C20.523,43.58,19.829,43.031,19.535,42.793z"/>
	<path fill="#4D4D4D" d="M36.449,0.892c-0.581-0.305-1.242-0.564-1.699-0.283c-0.184,0.113-0.359,0.337-0.533,0.506
		c-0.064,0.062-0.15,0.077-0.195,0.134c-0.129,0.159-0.205,0.37-0.31,0.555c-0.028-0.202-0.002-0.539,0.177-0.751
		c0.051-0.062,0.188-0.074,0.312-0.161c0.074-0.053,0.119-0.135,0.189-0.18c0.142-0.092,0.338-0.091,0.471-0.177
		c0.053-0.033,0.109-0.137,0.162-0.166c0.055-0.03,0.158-0.018,0.256-0.049c0.166-0.054,0.217-0.164,0.348-0.129
		c0.145,0.04,0.33,0.217,0.463,0.324C36.234,0.63,36.371,0.761,36.449,0.892z"/>
	<path fill="#4D4D4D" d="M34.329,0.561c0.114-0.312,0.501-0.377,0.823-0.391C34.866,0.277,34.624,0.47,34.329,0.561z"/>
	<path fill="#4D4D4D" d="M35.838,0.892c-0.969-0.173-1.617,0.582-1.775,1.723c-0.014,0.107,0.03,0.183,0.011,0.309
		c-0.312-0.334-0.146-1.065,0.174-1.494c0.049-0.064,0.179-0.203,0.272-0.306C34.85,0.768,35.219,0.546,35.838,0.892z"/>
	<path fill="#4D4D4D" d="M33.475,6.967c0.183,0.005,0.33,0.171,0.489,0.244C33.812,7.188,33.615,7.048,33.475,6.967z"/>
	<path fill="#4D4D4D" d="M35.33,1.798c0.092-0.077,0.246-0.034,0.312-0.161c0.146,0.037,0.35,0.153,0.463,0.258
		C35.863,1.893,35.57,1.897,35.33,1.798z"/>
	<path fill="#4D4D4D" d="M35.848,2.227c0.441-0.153,0.648,0.315,0.695,0.616C36.343,2.688,36.093,2.415,35.848,2.227z"/>
	<path fill="#4D4D4D" d="M36.705,2.545c0.016-0.051,0.021-0.02,0.046-0.007c0.116,0.227,0.267,0.436,0.271,0.72
		C36.924,3.017,36.766,2.806,36.705,2.545z"/>
	<path fill="#4D4D4D" d="M22.055,10.376c0.061,0.067,0.025,0.185,0.042,0.275C22.057,10.639,22.049,10.468,22.055,10.376z"/>
	<path fill="#4D4D4D" d="M16.65,29.468c0.029-0.147,0.252-0.417,0.4-0.636c0.304-0.447,0.509-0.848,0.848-1.212
		c0.049-0.054,0.108-0.11,0.189-0.114c0.172-0.34,0.417-0.538,0.602-0.854C18.112,27.661,17.352,28.594,16.65,29.468z"/>
	<path fill="#4D4D4D" d="M18.647,28.21c-0.086,0.306-0.207,0.604-0.371,0.885c-0.075,0.13-0.199,0.24-0.272,0.371
		c-0.114,0.202-0.191,0.451-0.301,0.667c-0.102,0.199-0.25,0.377-0.335,0.569c-0.125,0.278-0.2,0.575-0.319,0.858
		c-0.045,0.107-0.138,0.207-0.193,0.33c-0.05,0.11-0.061,0.256-0.115,0.356c-0.069,0.129-0.221,0.202-0.298,0.317
		c-0.271,0.404-0.344,0.932-0.529,1.446c-0.093,0.257-0.226,0.544-0.28,0.871c-0.076,0.47,0.007,0.979,0.03,1.472
		c0.019,0.4,0.03,0.779,0.053,1.131c0.042,0.652,0.3,1.302,0.362,1.863c-0.531-1.589-0.755-3.384-0.376-5.427
		c0.024-0.129,0.017-0.272,0.042-0.401c0.026-0.139,0.099-0.293,0.12-0.441c0.03-0.212,0.019-0.287,0.119-0.508
		c0.077-0.17,0.137-0.443,0.255-0.659c0.054-0.099,0.171-0.153,0.233-0.253c0.057-0.09,0.062-0.207,0.116-0.291
		c0.058-0.092,0.17-0.164,0.233-0.252c0.203-0.281,0.38-0.633,0.568-0.953c0.182-0.311,0.44-0.571,0.602-0.854
		C18.21,28.92,18.376,28.525,18.647,28.21z"/>
	<path fill="#4D4D4D" d="M26.371,4.207c0.072-0.137,0.312-0.226,0.509-0.23C26.789,4.078,26.506,4.084,26.371,4.207z"/>
	<path fill="#4D4D4D" d="M21.499,24.562c0.035-0.035,0.136,0.372,0.15,0.485c0.121,1.021-0.178,2.284-0.499,3.529
		c-0.106,0.413-0.196,0.852-0.36,1.26c-0.178,0.443-0.472,0.889-0.695,1.35c-0.218,0.448-0.424,0.929-0.689,1.33
		c-0.269,0.407-0.531,0.789-0.735,1.27c-0.21,0.496-0.386,1.014-0.567,1.564c0.009-0.271,0.087-0.552,0.161-0.844
		c0.07-0.273,0.138-0.6,0.26-0.877c0.045-0.102,0.134-0.191,0.181-0.291c0.218-0.475,0.303-0.947,0.562-1.414
		c0.054-0.097,0.145-0.181,0.201-0.283c0.071-0.132,0.093-0.272,0.153-0.41c0.155-0.356,0.422-0.67,0.573-1.039
		c0.269-0.66,0.439-1.394,0.706-2.064c0.33-0.828,0.562-1.646,0.624-2.42C21.553,25.345,21.463,24.925,21.499,24.562z"/>
	<path fill="#4D4D4D" d="M30.02,2.016c0.407,0.068,0.698,0.528,0.864,0.845c0.159,0.3,0.294,0.659,0.466,1.001
		c0.324,0.645,0.476,1.285,0.89,1.856c-0.229-0.193-0.312-0.473-0.443-0.731c-0.043-0.085-0.137-0.144-0.187-0.235
		c-0.12-0.217-0.192-0.492-0.311-0.733c-0.115-0.232-0.275-0.463-0.383-0.712C30.688,2.781,30.479,2.407,30.02,2.016z"/>
	<path fill="#4D4D4D" d="M30.256,3.729c0.156,0.019,0.268,0.205,0.411,0.285c0.019,0.084,0.083,0.144,0.101,0.229
		C30.708,4.146,30.363,3.912,30.256,3.729z"/>
	<path fill="#4D4D4D" d="M32.182,3.714c0.592,0.646,0.857,1.709,1.866,2.214c0.382,0.19,0.91,0.276,1.306,0.419
		c-0.324,0.062-1.388-0.157-1.766-0.414c-0.339-0.231-0.562-0.692-0.794-1.063C32.55,4.481,32.416,4.023,32.182,3.714z"/>
	<path fill="#4D4D4D" d="M32.497,4.841c0.071,0.185,0.204,0.262,0.274,0.438c0.035,0.088,0.01,0.03-0.021-0.006
		C32.699,5.207,32.531,5.008,32.497,4.841z"/>
	<path fill="#4D4D4D" d="M32.318,5.875c0.242,0.294,0.635,0.654,0.983,0.949C32.814,6.656,32.508,6.251,32.318,5.875z"/>
	<path fill="#4D4D4D" d="M32.807,5.377c0.064,0.005,0.117,0.159,0.192,0.214C32.925,5.591,32.872,5.437,32.807,5.377z"/>
	<path fill="#4D4D4D" d="M35.578,1.092c-0.305,0.075-0.656,0.052-0.838,0.364c-0.035,0.056,0.042,0.056,0.008,0.112
		c-0.168,0.081-0.337,0.428-0.375,0.557C34.441,1.38,34.936,0.936,35.578,1.092z"/>
	<path fill="#4D4D4D" d="M34.325,2.546c0.04,0.073,0.004,0.186,0.022,0.27C34.316,2.803,34.281,2.652,34.325,2.546z"/>
	<path fill="#4D4D4D" d="M33.292,5.97c0.505,0.369,1.614,0.812,2.263,0.704C34.943,7.183,33.689,6.487,33.292,5.97z"/>
	<path fill="#4D4D4D" d="M36.293,3.352c0.057,0.117,0.205,0.339,0.211,0.569c0.001,0.061-0.043,0.133-0.045,0.205
		C36.458,4.184,36.5,4.245,36.494,4.29c-0.021,0.18-0.156,0.581-0.229,0.713c-0.031,0.057-0.104,0.079-0.156,0.146
		c-0.137,0.177-0.316,0.517-0.58,0.381c0.012-0.098,0.341-0.218,0.455-0.334C36.216,4.513,36.311,3.935,36.293,3.352z"/>
	<path fill="#4D4D4D" d="M35.893,6.302c-0.088,0.051-0.203,0.053-0.32,0.049C35.668,6.314,35.775,6.297,35.893,6.302z"/>
</g>
<g>
	<path fill="#808080" d="M17.719,19.398c-0.226,1.103-0.325,2.049-0.321,2.974c0.004,0.905,0.167,1.774,0.26,2.66
		c0.057,0.545,0.18,1.149-0.059,1.75c-0.07-0.482-0.05-0.935-0.075-1.4c-0.02-0.366-0.123-0.712-0.177-1.083
		c-0.034-0.236,0.002-0.498-0.042-0.755c-0.04-0.238-0.078-0.467-0.1-0.709c-0.043-0.484-0.125-1.022-0.063-1.505
		C17.227,20.678,17.484,20.103,17.719,19.398z"/>
	<path fill="#808080" d="M24.925,11.362c-0.084,0.305-0.263,0.595-0.403,0.918c-0.143,0.328-0.238,0.694-0.403,0.984
		c-0.103,0.179-0.256,0.32-0.35,0.477c-0.142,0.237-0.225,0.475-0.387,0.662c-0.408,0.471-0.96,0.801-1.413,1.206
		c-0.239,0.213-0.469,0.44-0.696,0.672c-0.566,0.577-1.106,1.179-1.481,2.101c-0.171,0.42-0.247,0.865-0.413,1.286
		c-0.518,1.312-0.794,2.695-0.718,3.939C18.703,24.29,19,25.031,18.667,25.9c-0.104-0.77-0.125-1.595-0.101-2.477
		c0.027-0.986,0.126-2.023,0.268-3.08c0.133-0.994,0.393-2.119,0.927-2.956c0.104-0.163,0.186-0.35,0.277-0.457
		c0.1-0.117,0.253-0.169,0.352-0.28c0.126-0.143,0.19-0.342,0.31-0.49c0.231-0.286,0.596-0.46,0.847-0.733
		c0.258-0.281,0.457-0.557,0.72-0.817c0.121-0.119,0.286-0.19,0.404-0.307c0.061-0.061,0.094-0.153,0.155-0.212
		c0.1-0.094,0.242-0.141,0.339-0.24c0.18-0.184,0.293-0.414,0.44-0.623c0.136-0.194,0.323-0.363,0.48-0.544
		C24.426,12.295,24.593,11.8,24.925,11.362z"/>
	<path fill="#808080" d="M22.335,14.199c0.263-0.408,0.672-0.813,1.026-1.156C23.163,13.581,22.675,13.833,22.335,14.199z"/>
	<path fill="#808080" d="M20.513,20.491c0.069-0.292,0.162-0.578,0.326-0.812c0.049-0.069,0.144-0.11,0.188-0.179
		c0.191-0.294,0.3-0.597,0.51-0.841c0.13-0.151,0.338-0.321,0.494-0.518C21.593,18.928,20.977,19.647,20.513,20.491z"/>
	<path fill="#808080" d="M20.251,22.939c0.078,0.085,0.027,0.237,0.017,0.354c-0.049,0.542-0.156,1.25-0.453,1.819
		C19.817,24.462,20.118,23.657,20.251,22.939z"/>
	<path fill="#808080" d="M18.958,27.786c0.261-0.661,0.67-1.312,0.983-1.978c0.016-0.037,0.05-0.201,0.065-0.133
		C19.797,26.538,19.304,27.086,18.958,27.786z"/>
	<path fill="#808080" d="M21.106,26.467c-0.023,0.204-0.13,0.452-0.169,0.665c-0.02-0.007-0.008-0.028-0.007-0.046
		C20.965,26.893,21.036,26.678,21.106,26.467z"/>
	<path fill="#808080" d="M18.864,41.552c0.011-0.021,0.042-0.005,0.066,0c0.321,0.468,1.162,0.743,1.883,0.865
		c-0.451-0.084-1.251-0.147-1.636-0.481C19.033,41.812,18.979,41.646,18.864,41.552z"/>
	<path fill="#808080" d="M19.372,41.125c0.083-0.016,0.234,0.078,0.31,0.122C19.561,41.216,19.465,41.171,19.372,41.125z"/>
	<path fill="#808080" d="M35.59,2.689c0.221,0.118,0.198,0.459,0.212,0.767c0.005,0.105,0.06,0.206,0.056,0.302
		c-0.01,0.312-0.196,0.587-0.312,0.773c-0.085,0.135-0.136,0.317-0.22,0.41c-0.144,0.16-0.367,0.223-0.528,0.289
		c0.069-0.199,0.312-0.19,0.456-0.333c0.14-0.137,0.272-0.416,0.361-0.648C35.822,3.688,35.709,3.104,35.59,2.689z"/>
	<path fill="#808080" d="M34.922,5.379c0.133-0.113,0.365-0.148,0.523-0.335c0.084-0.1,0.135-0.286,0.225-0.43
		c0.098-0.155,0.291-0.463,0.34-0.786c0.025-0.172-0.107-0.357-0.025-0.532c0.074,0.16,0.049,0.365,0.06,0.565
		c0.021,0.403-0.082,0.727-0.303,1.147C35.49,5.175,35.248,5.358,34.922,5.379z"/>
	<path fill="#808080" d="M36.131,2.907c0.09,0.004,0.127,0.176,0.127,0.281C36.178,3.114,36.2,2.987,36.131,2.907z"/>
	<path fill="#808080" d="M23.902,41.227c0.681-0.668,1.648-1.06,2.387-1.725c0.676-0.314,1.375-0.583,2.256-0.498
		c-0.65,0.107-1.275,0.2-1.843,0.436c-0.483,0.199-0.925,0.565-1.371,0.869c-0.214,0.146-0.473,0.254-0.699,0.408
		C24.383,40.891,24.147,41.105,23.902,41.227z"/>
	<path fill="#808080" d="M36.662,4.038c0.146,0.222-0.014,0.602-0.107,0.948c-0.02-0.037-0.058-0.035-0.072,0.021
		C36.525,4.741,36.622,4.294,36.662,4.038z"/>
	<path fill="#808080" d="M36.23,5.45c-0.021-0.094,0.095-0.203,0.147-0.258C36.406,5.298,36.299,5.419,36.23,5.45z"/>
	<path fill="#808080" d="M25.689,42.999c0.281-0.119,0.686-0.183,1.022-0.326c0.315-0.136,0.64-0.33,0.94-0.418
		c0.332-0.098,0.695-0.073,1.017-0.241c0.354-0.029,0.713-0.052,1.045-0.123c0.363,0.118,0.772,0.029,1.185,0.117
		c0.131,0.027,0.27,0.096,0.416,0.133c0.135,0.035,0.295,0.026,0.414,0.068c0.084,0.029,0.16,0.107,0.238,0.143
		c0.743,0.312,1.44,0.486,1.938,0.904c0.174,0.146,0.312,0.357,0.466,0.521c0.167,0.177,0.392,0.336,0.388,0.561
		c-0.279-0.143-0.4-0.357-0.644-0.512c-0.14-0.09-0.345-0.114-0.517-0.231c-0.101-0.067-0.105-0.165-0.187-0.233
		c-0.472-0.4-1.197-0.504-1.802-0.644c-0.518-0.12-0.94-0.237-1.385-0.248c-1.033-0.024-2.084,0.015-3.021,0.231
		c-0.298,0.068-0.552,0.135-0.892,0.193C26.09,42.934,25.919,43.033,25.689,42.999z"/>
	<path fill="#808080" d="M29.557,43.062c0.883,0.012,1.734-0.035,2.812,0.354C31.463,43.359,30.66,43.505,29.557,43.062z"/>
	<path fill="#808080" d="M31.402,43.566c0.658,0.053,1.589-0.021,2.195,0.44C32.922,43.973,32.156,43.755,31.402,43.566z"/>
	<path fill="#808080" d="M32.385,44.384c0.312-0.054,0.533,0.07,0.896,0.2c0.236,0.084,0.516,0.116,0.713,0.229
		c0.121,0.068,0.213,0.192,0.332,0.26c0.545,0.308,1.061,0.564,1.162,1.072c-0.385-0.34-1.108-0.815-1.807-1.104
		C33.182,44.834,32.688,44.676,32.385,44.384z"/>
	<path fill="#808080" d="M32.801,48.6c0.004-0.035,0.027-0.033,0.053-0.026c0.282,0.196,0.571,0.389,0.967,0.528
		C33.458,49.117,32.836,48.938,32.801,48.6z"/>
	<path fill="#808080" d="M34.062,45.62c0.529,0.212,1.158,0.519,1.377,0.944C34.754,46.366,34.454,45.97,34.062,45.62z"/>
	<path fill="#808080" d="M35.086,46.713c0.5,0.092,0.775,0.439,0.52,0.975C35.451,47.352,35.371,46.98,35.086,46.713z"/>
	<path fill="#808080" d="M35.15,47.605c0.049-0.017,0.125,0.153,0.113,0.256c-0.021,0.188-0.218,0.447-0.234,0.666
		C35.043,48.232,35.141,47.896,35.15,47.605z"/>
	<path fill="#808080" d="M35.176,48.75c-0.029-0.066,0.055-0.193,0.069-0.283C35.271,48.539,35.232,48.684,35.176,48.75z"/>
	<path fill="#808080" d="M17.92,24.418c-0.162-0.534-0.199-1.17-0.263-1.832c-0.061-0.627-0.058-1.343,0.062-2.032
		c0.046-0.267,0.129-0.542,0.174-0.816c0.044-0.266,0.062-0.538,0.123-0.79c0.177-0.745,0.412-1.297,0.775-1.804
		c0.193-0.269,0.377-0.55,0.549-0.829c0.027,0.047-0.036,0.141,0.035,0.165c0.524-0.147,0.731-0.74,1.065-1.143
		c0.167-0.202,0.365-0.397,0.559-0.584c0.196-0.19,0.359-0.411,0.545-0.611c0.326-0.349,0.733-0.624,1.015-0.985
		c0.051,0.039,0.075,0.215,0.179,0.123c-0.169,0.347-0.766,0.82-1.051,1.169c-0.118,0.144-0.178,0.333-0.297,0.45
		c-0.077,0.076-0.216,0.103-0.294,0.168c-0.206,0.171-0.357,0.463-0.57,0.69c-0.107,0.114-0.254,0.179-0.352,0.28
		c-0.204,0.21-0.375,0.49-0.604,0.724c-0.462,0.473-0.879,0.925-1.178,1.63c-0.103,0.244-0.187,0.491-0.268,0.7
		c-0.123,0.317-0.129,0.641-0.187,0.988c-0.091,0.549-0.142,1.04-0.147,1.546c-0.002,0.253-0.029,0.503-0.018,0.737
		c0.016,0.339,0.086,0.68,0.11,1.018C17.909,23.733,17.915,24.075,17.92,24.418z"/>
	<path fill="#808080" d="M16.977,22.259c0.056,0.61,0.149,1.202,0.178,1.826C17.047,23.714,16.964,22.862,16.977,22.259z"/>
	<path fill="#808080" d="M19.677,16.97c-1.235,1.792-1.333,4.724-1.471,6.558c-0.172-1.04-0.221-2.146-0.025-3.458
		C18.36,18.869,18.918,17.683,19.677,16.97z"/>
	<path fill="#808080" d="M20.067,16.571c0.014-0.071,0.154-0.172,0.214-0.26C20.336,16.283,20.152,16.557,20.067,16.571z"/>
	<path fill="#808080" d="M21.002,15.561c0.06-0.109,0.227-0.287,0.357-0.365C21.308,15.319,21.115,15.447,21.002,15.561z"/>
	<path fill="#808080" d="M18.288,26.064c-0.045-0.479-0.159-0.921-0.076-1.465C18.227,25.093,18.375,25.518,18.288,26.064z"/>
	<path fill="#808080" d="M19.586,20.521c0.118-0.625,0.444-1.244,0.764-1.698c0.096-0.137,0.2-0.311,0.311-0.424
		c0.095-0.099,0.246-0.157,0.345-0.26c0.215-0.225,0.276-0.546,0.425-0.715c0.089-0.101,0.243-0.133,0.333-0.221
		c0.171-0.166,0.294-0.392,0.48-0.544c0.141-0.116,0.319-0.178,0.464-0.289c0.404-0.306,0.756-0.67,1.131-1.078
		c0.009-0.01,0.012-0.101,0.059-0.047c-0.32,0.396-0.688,0.947-1.037,1.327c-0.126,0.137-0.295,0.226-0.423,0.366
		c-0.373,0.408-0.748,0.844-1.156,1.223c-0.098,0.091-0.225,0.136-0.313,0.227c-0.137,0.142-0.211,0.335-0.356,0.497
		c-0.104,0.116-0.255,0.188-0.357,0.366C20.033,19.637,19.869,20.105,19.586,20.521z"/>
	<path fill="#808080" d="M19.803,22.839c-0.142-0.667-0.164-1.256,0.042-2.104c0.025-0.102,0.074-0.246,0.147-0.39
		c0.164-0.324,0.381-0.744,0.541-1.005c0.062-0.103,0.23-0.198,0.312-0.293c0.297-0.347,0.504-0.663,0.832-0.89
		c-0.031,0.173-0.203,0.23-0.312,0.358c-0.203,0.241-0.343,0.578-0.542,0.875c-0.16,0.237-0.339,0.459-0.458,0.748
		c-0.149,0.362-0.243,0.797-0.347,1.22c-0.052,0.207-0.157,0.413-0.197,0.613C19.763,22.255,19.846,22.543,19.803,22.839z"/>
	<path fill="#808080" d="M21.958,14.558c-0.013-0.058,0.119-0.11,0.149-0.192C22.126,14.437,21.997,14.493,21.958,14.558z"/>
	<path fill="#808080" d="M19.4,22.732c0.061,0.469,0.335,0.995,0.085,1.708C19.433,23.883,19.394,23.319,19.4,22.732z"/>
	<path fill="#808080" d="M22.791,13.253c-0.031-0.1-0.024-0.219-0.05-0.322c0.514-0.521,1.036-1.028,1.493-1.66
		C23.855,12.001,23.344,12.753,22.791,13.253z"/>
	<path fill="#808080" d="M19.914,41.343c0.956,0.274,1.732,0.205,2.479,0.031c0.513-0.119,1.02-0.16,1.475-0.378
		c-0.212,0.234-0.572,0.336-0.909,0.449c-0.375,0.129-0.823,0.214-1.246,0.277c-0.102,0.017-0.211,0.075-0.308,0.075
		C20.917,41.798,20.426,41.525,19.914,41.343z"/>
	<path fill="#808080" d="M22.384,42.419c0.246-0.121,0.694-0.129,0.943-0.353c0.577-0.153,1.139-0.336,1.616-0.683
		c0.394-0.022,0.696-0.356,1.065-0.53c0.195-0.094,0.428-0.146,0.648-0.252c0.572-0.274,1.195-0.525,1.859-0.69
		c0.387-0.097,0.741-0.091,1.194-0.118c0.42-0.027,0.901-0.115,1.467,0.121c0.31,0.129,0.562,0.345,0.782,0.557
		c-0.641-0.195-1.206-0.295-1.777-0.309c-0.123-0.003-0.228,0.053-0.349,0.062c-0.472,0.036-0.979-0.08-1.317,0.231
		c0.399,0.001,0.838,0.012,1.313-0.015c0.095-0.006,0.196-0.06,0.301-0.058c0.494,0.009,1.109,0.232,1.654,0.356
		c0.088,0.02,0.167,0.014,0.25,0.035c0.756,0.209,0.983,0.711,1.426,1.069c-0.28-0.127-0.504-0.358-0.801-0.497
		c-1.166-0.549-2.613-0.839-3.591-0.584c-0.18,0.047-0.36,0.114-0.536,0.178c-0.132,0.045-0.234,0.144-0.365,0.188
		c-0.073,0.023-0.16,0.016-0.229,0.036c-0.156,0.049-0.276,0.159-0.412,0.194c-0.064,0.018-0.129-0.01-0.196,0.002
		c-0.288,0.059-0.589,0.216-0.817,0.371c-0.197,0.043-0.396,0.112-0.59,0.203c-0.188,0.092-0.379,0.129-0.57,0.211
		c-0.106,0.047-0.191,0.146-0.3,0.188c-0.107,0.042-0.251,0.042-0.373,0.076c-0.56,0.153-1.12,0.409-1.723,0.539
		c-0.287,0.061-0.619,0.063-0.946,0.089c-0.669,0.052-1.271,0.023-2.023-0.43c0.808,0.125,1.497,0.25,2.158,0.146
		c0.511-0.081,0.985-0.285,1.509-0.28c0.254-0.021,0.494-0.098,0.721-0.203c0.292-0.141,0.59-0.241,0.843-0.451
		c0.45-0.01,0.777-0.328,1.164-0.5c0.322-0.141,0.677-0.256,1.017-0.372c0.326-0.112,0.703-0.187,0.955-0.458
		c-0.213-0.071-0.354,0.091-0.531,0.156c-0.355,0.136-0.752,0.199-1.113,0.343c-0.127,0.049-0.25,0.075-0.367,0.122
		c-0.215,0.086-0.389,0.262-0.594,0.354c-0.175,0.08-0.383,0.076-0.57,0.146c-0.091,0.033-0.179,0.121-0.274,0.174
		c-0.432,0.234-0.914,0.425-1.434,0.521C23.065,42.266,22.73,42.354,22.384,42.419z"/>
	<path fill="#808080" d="M20.978,42.448c0.44-0.003,0.904,0.045,1.301-0.04C21.973,42.54,21.455,42.541,20.978,42.448z"/>
	<path fill="#808080" d="M36.766,3.307c-0.024,0.047,0.349,0.471,0.092,0.531C36.854,3.648,36.791,3.487,36.766,3.307z"/>
	<path fill="#808080" d="M32.275,44.043c0.312-0.006,0.613,0.088,0.936,0.146c0.225,0.041,0.469,0,0.672,0.084
		c0.404,0.168,0.674,0.688,1.016,0.916c-0.373-0.131-0.684-0.47-1.099-0.657c-0.228-0.104-0.514-0.209-0.753-0.308
		C32.803,44.124,32.543,44.195,32.275,44.043z"/>
	<path fill="#808080" d="M32.757,48.191c0.095,0.013,0.116,0.205,0.194,0.281c-0.037,0.027-0.096-0.072-0.172-0.078
		C32.756,48.336,32.783,48.251,32.757,48.191z"/>
	<path fill="#808080" d="M33.057,49.096c0.508,0.227,1.098,0.289,1.412-0.048c-0.119,0.204-0.408,0.362-0.645,0.447
		C33.462,49.45,33.256,49.27,33.057,49.096z"/>
	<path fill="#808080" d="M34.545,49.355c0-0.066,0.146-0.119,0.182-0.227C34.747,49.234,34.609,49.309,34.545,49.355z"/>
	<path fill="#808080" d="M34.82,49.312c0.076-0.119,0.275-0.276,0.33-0.549C35.264,48.977,34.943,49.168,34.82,49.312z"/>
</g>
</svg>
