<?xml version="1.0" encoding="utf-8"?>
<!-- Generator: Adobe Illustrator 16.0.0, SVG Export Plug-In . SVG Version: 6.00 Build 0)  -->
<!DOCTYPE svg PUBLIC "-//W3C//DTD SVG 1.1//EN" "http://www.w3.org/Graphics/SVG/1.1/DTD/svg11.dtd">
<svg version="1.1" id="Layer_1" xmlns="http://www.w3.org/2000/svg" xmlns:xlink="http://www.w3.org/1999/xlink" x="0px" y="0px"
	 width="200px" height="200px" viewBox="0 0 200 200" enable-background="new 0 0 200 200" xml:space="preserve">
<path fill="#999999" d="M77.75,61.229c-5.31,0-9.62,4.31-9.62,9.62s4.311,9.62,9.62,9.62s9.62-4.31,9.62-9.62
	S83.06,61.229,77.75,61.229z M77.75,74.448c-1.986,0-3.599-1.612-3.599-3.599c0-1.987,1.612-3.599,3.599-3.599
	s3.599,1.612,3.599,3.599C81.349,72.835,79.736,74.448,77.75,74.448z"/>
<path fill="#333333" d="M97.247,116.243c-5.311,0-9.62,4.309-9.62,9.619s4.31,9.619,9.62,9.619c5.31,0,9.618-4.309,9.618-9.619
	S102.557,116.243,97.247,116.243z M97.247,129.462c-1.987,0-3.6-1.613-3.6-3.6s1.612-3.599,3.6-3.599
	c1.986,0,3.599,1.612,3.599,3.599S99.233,129.462,97.247,129.462z"/>
<path fill="#666666" d="M110.771,120.636c-0.363-1.464-1.068-2.917-1.838-4.178c-0.77-1.26-1.602-2.328-2.809-3.183
	s-2.789-1.495-4.422-1.869c-1.634-0.374-3.322-0.481-5.074-0.14s-3.567,1.133-5.384,2.404c-1.815,1.271-3.632,3.023-5.458,5.096
	c-1.827,2.071-3.664,4.465-5.256,7.188c-1.592,2.725-2.938,5.779-3.995,8.086c-1.058,2.309-1.826,3.867-2.788,6.398
	c-0.961,2.533-2.114,6.037-2.927,8.771c-0.812,2.734-1.282,4.699-1.538,5.885s-0.299,1.592-0.16,2.104
	c0.139,0.514,0.459,1.133,1.303,2.438c0.845,1.303,2.212,3.289,3.952,4.988c1.742,1.697,3.856,3.107,5.833,4.016
	c1.976,0.908,3.813,1.314,5.49,1.357c1.677,0.041,3.194-0.279,4.636-0.898c1.442-0.619,2.81-1.537,3.707-2.264
	c0.896-0.727,1.324-1.262,1.56-1.828c0.234-0.564,0.278-1.164,0.32-2.809c0.043-1.645,0.086-4.336,0.608-6.953
	c0.523-2.617,1.528-5.16,2.66-7.457c1.133-2.297,2.392-4.348,3.867-6.74s3.162-5.127,4.434-7.273
	c1.271-2.148,2.125-3.707,2.67-5.064c0.545-1.355,0.779-2.51,0.887-3.823S111.135,122.099,110.771,120.636z M103.895,134.571
	l-19.06,14.574l1.454-23.283v-0.001v-0.001c0-6.051,4.907-10.957,10.958-10.957c6.05,0,10.956,4.906,10.956,10.957
	C108.203,129.411,106.514,132.569,103.895,134.571z"/>
<path fill="#333333" d="M37.429,55.529c-0.748,1.325-1.475,2.927-1.858,4.668c-0.385,1.741-0.428,3.622,0.063,5.769
	c0.492,2.147,1.518,4.562,3.194,6.826c1.677,2.265,4.006,4.379,6.697,5.971c2.692,1.591,5.747,2.66,9.112,3.6
	c3.364,0.94,7.039,1.752,10.126,2.254c3.087,0.502,5.587,0.694,8.524,0.694s6.312-0.192,9.047-0.694
	c2.734-0.502,4.829-1.314,6.73-2.542c1.9-1.229,3.61-2.874,4.721-4.658c1.111-1.784,1.624-3.707,1.73-5.511
	c0.107-1.806-0.192-3.493-1.004-5.181c-0.812-1.688-2.137-3.375-3.846-4.839s-3.803-2.703-5.875-3.6s-4.123-1.453-6.569-1.912
	c-2.446-0.459-5.287-0.823-8.406-0.929c-3.119-0.107-6.517,0.042-9.048,0.224s-4.197,0.396-6.26,0.257
	c-2.062-0.139-4.519-0.631-6.334-1.411c-1.816-0.779-2.991-1.848-3.738-2.627c-0.748-0.78-1.068-1.271-1.389-1.763
	c-1.111,0.662-2.223,1.325-3.162,2.179C38.945,53.158,38.177,54.205,37.429,55.529L37.429,55.529L37.429,55.529z M74.916,60.401
	c0.903-0.245,1.854-0.375,2.836-0.375c5.978,0,10.824,4.847,10.824,10.824c0,5.978-4.847,10.825-10.824,10.825
	c-2.562,0-4.915-0.891-6.77-2.378L53.88,65.571l21.034-5.17L74.916,60.401z"/>
<path fill="#666666" d="M107.436,35.448c0.193,2.008,0.301,4.786-0.02,7.563c-0.322,2.777-1.07,5.555-2.373,8.065
	s-3.162,4.753-4.859,6.473c-1.699,1.72-3.237,2.917-4.124,3.493s-1.122,0.534-1.741,0.053s-1.624-1.399-3.396-2.393
	c-1.773-0.994-4.316-2.062-7.253-2.97c-2.938-0.908-6.271-1.656-9.357-2.03c-3.087-0.374-5.929-0.374-8.418-0.246
	c-2.488,0.128-4.625,0.385-6.591,0.523c-1.965,0.139-3.76,0.16-5.404-0.032c-1.646-0.192-3.141-0.599-4.529-1.239
	s-2.671-1.517-3.514-2.478c-0.845-0.961-1.251-2.009-1.475-3.013c-0.225-1.004-0.268-1.965,0.085-3.065s1.101-2.339,2.222-3.429
	c1.122-1.09,2.617-2.03,4.519-2.735c1.901-0.705,4.209-1.175,7.082-1.463c2.874-0.288,6.313-0.396,10.03-0.449
	c3.718-0.053,7.713-0.053,11.099-0.31s6.164-0.769,8.311-1.603c2.147-0.833,3.664-1.987,4.785-2.884
	c1.122-0.897,1.849-1.538,2.318-1.955s0.684-0.609,0.908-0.534c0.224,0.075,0.459,0.417,0.577,1.389
	c0.117,0.972,0.117,2.575-0.097,3.942s-0.641,2.5-1.442,3.546c-0.801,1.047-1.976,2.008-3.535,2.841s-3.504,1.538-6.751,1.891
	s-7.798,0.353-11.729,0.171s-7.243-0.545-10.105-0.727s-5.277-0.182-6.794-0.085s-2.137,0.289-2.542,0.62
	c-0.406,0.331-0.599,0.801-0.694,1.389s-0.096,1.292,0.106,1.934c0.203,0.641,0.609,1.218,1.368,1.667
	c0.758,0.448,1.869,0.769,3.941,0.972c2.072,0.203,5.105,0.289,8.449,0.257c3.344-0.032,6.997-0.182,10.244-0.47
	s6.089-0.716,8.802-1.506s5.298-1.944,7.284-3.215c1.987-1.271,3.376-2.66,4.316-4.273c0.939-1.613,1.432-3.451,1.581-5.202
	c0.149-1.752-0.043-3.418-0.62-4.785c-0.576-1.368-1.538-2.436-2.254-3.344c-0.715-0.908-1.186-1.656-1.42-2.382
	c-0.235-0.726-0.235-1.431-0.097-1.933s0.417-0.801,1.432-0.77c1.015,0.032,2.767,0.396,4.401,1.282s3.15,2.296,4.218,3.877
	s1.688,3.333,2.137,4.828C106.967,32.201,107.244,33.44,107.436,35.448L107.436,35.448z"/>
<path fill="#999999" d="M134.691,130.696c-0.934,0.705-1.869,1.41-3.004,2.514c-1.137,1.104-2.477,2.607-3.836,4.379
	s-2.74,3.811-4.16,6.162c-1.418,2.352-2.875,5.014-4.357,7.762s-2.994,5.584-4.637,8.068c-1.645,2.484-3.422,4.623-5.061,6.027
	c-1.637,1.406-3.137,2.084-4.588,2.271s-2.854-0.113-3.957-0.924c-1.101-0.811-1.906-2.131-2.381-3.645
	c-0.478-1.514-0.627-3.221-0.547-5.131c0.08-1.912,0.392-4.027,0.883-5.803c0.492-1.777,1.168-3.217,2.349-5.299
	c1.184-2.082,2.877-4.811,4.209-7.059c1.334-2.25,2.309-4.021,3.379-5.867s2.238-3.77,2.912-5.48
	c0.676-1.713,0.857-3.216,0.932-4.734c0.076-1.52,0.043-3.055-0.111-4.392c-0.156-1.337-0.436-2.475-0.719-3.269
	c-0.283-0.795-0.572-1.246-0.664-1.535c-0.09-0.29,0.018-0.42,0.9-1.063s2.543-1.804,4.176-2.786s3.24-1.787,4.393-2.26
	c0.311-0.127,0.49-0.196,0.744-0.281v-0.002c1.285,3.301,2.57,6.602,3.615,9.086c1.043,2.483,1.844,4.149,2.645,5.816
	c-0.93,0.589-1.875,1.268-2.809,2.02c-2.029,1.635-4.016,3.621-5.918,5.865c-1.9,2.242-3.717,4.742-5.426,7.307
	c-1.709,2.562-3.312,5.191-4.775,7.871c-1.463,2.682-2.787,5.416-3.525,7.543c-0.736,2.125-0.887,3.643-0.672,4.635
	c0.213,0.994,0.789,1.463,1.592,1.527c0.801,0.064,1.826-0.277,2.67-0.961s1.506-1.709,2.104-3.119
	c0.6-1.41,1.133-3.205,1.891-5.299c0.76-2.094,1.742-4.486,3.279-7.307c1.539-2.818,3.633-6.066,5.471-8.758
	c1.836-2.691,3.418-4.828,4.998-6.495c1.58-1.666,3.162-2.862,4.732-3.761c1.57-0.896,3.129-1.494,5.031-1.751
	c1.9-0.257,4.145-0.171,6.217,0.171s3.975,0.939,5.32,1.613c1.346,0.672,2.135,1.42,2.67,2.008c0.533,0.588,0.812,1.016,0.834,1.239
	c0.02,0.224-0.215,0.245-1.336,0.096s-3.131-0.47-5.32-0.384c-2.189,0.085-4.561,0.576-6.826,1.549
	C136.879,129.347,135.777,129.95,134.691,130.696"/>
<path fill="#999999" d="M137.373,120.477c1.461,0.032,2.951,0.194,4.32,0.384c1.699,0.236,3.217,0.514,4.658,1.037
	s2.809,1.293,3.803,2.008c0.992,0.716,1.613,1.379,2.008,1.859s0.566,0.779,0.812,0.832c0.244,0.055,0.566-0.139,0.822-0.641
	s0.447-1.313,0.32-2.809c-0.129-1.496-0.576-3.675-1.902-6.067c-1.324-2.394-3.525-4.999-5.906-6.794
	c-2.383-1.795-4.945-2.777-7.189-3.344c-2.242-0.566-4.166-0.715-6.355-0.619 M132.766,106.323c1.199,3.656,2.4,7.312,3.168,9.672
	s1.105,3.42,1.441,4.481"/>
<path fill="#CCCCCC" d="M136.094,132.169c0.934-0.613,1.867-1.227,2.842-1.732c0.975-0.504,1.992-0.902,2.635-1.148
	c0.643-0.248,0.91-0.344,1.178-0.441c2.334,1.482,4.668,2.965,6.939,4.344c2.27,1.379,4.475,2.656,6.596,3.982
	c2.119,1.326,4.154,2.701,6.045,4.279c1.889,1.578,3.635,3.359,5.092,5.318c1.455,1.959,2.623,4.098,3.41,6.035
	s1.193,3.676,1.461,5.812s0.396,4.67,0.51,7.092c0.111,2.42,0.209,4.729,0.209,7.627s-0.098,6.389-0.209,9.057
	c-0.113,2.668-0.242,4.514-0.482,5.717c-0.24,1.201-0.594,1.76-1.064,2.033c-0.473,0.275-1.061,0.264-2.158-0.17
	c-1.098-0.436-2.705-1.295-4.529-2.938c-1.826-1.643-3.871-4.068-5.713-6.426c-1.842-2.355-3.48-4.643-5.049-7.396
	c-1.57-2.754-3.068-5.975-4.074-8.176c-1.008-2.201-1.521-3.381-2.035-5.131s-1.029-4.07-1.172-6.441
	c-0.145-2.373,0.08-4.799,0.4-6.742s0.74-3.404,1.156-4.863c0.943,0.643,1.885,1.287,2.967,2.035
	c1.082,0.746,2.305,1.596,3.527,2.445h0.002c-0.107,0.383-0.205,0.76-0.287,1.129c-0.492,2.168-0.557,4.068-0.471,5.896
	c0.086,1.826,0.32,3.578,0.77,5.318c0.449,1.742,1.111,3.473,2.137,5.105c1.025,1.635,2.414,3.174,3.471,4.135
	c1.059,0.961,1.785,1.346,2.436,1.389c0.652,0.043,1.229-0.256,1.688-1.186s0.803-2.488,0.93-4.166
	c0.129-1.678,0.043-3.473-0.373-5.459c-0.418-1.986-1.166-4.166-2.682-6.334c-1.518-2.168-3.803-4.326-6.773-6.559
	c-0.373-0.281-0.758-0.564-1.15-0.846c-2.729-1.961-5.85-3.932-8.473-5.574c-3.002-1.879-5.352-3.332-7.402-4.979
	c-0.814-0.652-1.582-1.336-2.301-2.041"/>
<path fill="#CCCCCC" d="M129.373,122.339c-0.885-1.842-1.748-3.856-3.113-7.215c-1.518-3.729-3.654-9.111-5.086-12.722
	c-1.43-3.611-2.156-5.448-3.578-9.016c-0.232-0.587-0.486-1.222-0.752-1.889l0.002,0c1.502-1.045,3.006-2.09,4.059-2.928
	c1.051-0.837,1.652-1.468,2.254-2.098v0c0.445,1.214,0.92,2.513,1.424,3.902c2.51,6.922,5.736,16.087,7.648,21.471
	s2.51,6.986,3.107,8.588c-1.217,0.277-2.434,0.557-3.428,0.873C130.914,121.624,130.145,121.981,129.373,122.339z"/>
<path fill="#CCCCCC" d="M118.896,74.627c-0.957,1.047-1.916,2.093-2.738,2.954c-0.82,0.862-1.506,1.539-2.057,2.018
	c-0.553,0.479-0.969,0.763-1.387,1.045v0c-1.346-3.877-1.924-6.334-2.318-8.685c-0.395-2.35-0.609-4.593-0.523-6.89
	s0.471-4.647,1.314-6.986c0.844-2.339,2.146-4.668,3.941-6.815c1.795-2.146,4.08-4.112,5.811-5.362
	c1.73-1.25,2.906-1.784,3.75-1.987c0.844-0.203,1.355-0.075,1.955,0.374c0.598,0.449,1.281,1.218,2.189,2.5s2.041,3.077,3.002,5.331
	c0.961,2.253,1.752,4.967,2.018,7.573c0.268,2.606,0.012,5.106-0.533,7.424s-1.379,4.455-2.648,6.922
	c-1.271,2.467-2.98,5.267-4.904,7.691c-1.922,2.424-4.059,4.476-6.441,6.387c-2.381,1.912-5.01,3.686-8.32,5.138
	c-3.312,1.453-7.307,2.585-11.13,3.119c-3.824,0.534-7.477,0.47-11.12-0.214c-3.643-0.683-7.274-1.987-10.212-3.557
	c-2.938-1.57-5.181-3.407-7.424-5.245c2.115-0.064,4.229-0.128,6.494-0.395s4.68-0.737,7.093-1.207
	c1.966,0.683,3.932,1.367,6.132,1.741c2.2,0.374,4.636,0.438,7.53,0.075s6.248-1.154,9.059-2.201
	c2.809-1.046,5.074-2.35,7.209-4.166c2.137-1.815,4.145-4.145,5.896-6.559s3.248-4.914,4.135-7.178
	c0.887-2.264,1.164-4.294,1.057-6.024c-0.105-1.73-0.598-3.162-1.143-4.102c-0.545-0.94-1.143-1.389-1.773-1.41
	c-0.629-0.021-1.293,0.384-2.104,1.453c-0.812,1.068-1.773,2.798-2.371,4.743c-0.598,1.944-0.834,4.102-0.748,6.131
	C117.664,70.109,118.006,71.85,118.896,74.627z"/>
</svg>
