<?xml version="1.0" encoding="utf-8"?>
<!-- Generator: Adobe Illustrator 16.0.0, SVG Export Plug-In . SVG Version: 6.00 Build 0)  -->
<!DOCTYPE svg PUBLIC "-//W3C//DTD SVG 1.1//EN" "http://www.w3.org/Graphics/SVG/1.1/DTD/svg11.dtd">
<svg version="1.1" id="Layer_1" xmlns="http://www.w3.org/2000/svg" xmlns:xlink="http://www.w3.org/1999/xlink" x="0px" y="0px"
	 width="100px" height="100px" viewBox="0 0 100 100" enable-background="new 0 0 100 100" xml:space="preserve">
<polygon fill="#333333" points="28.591,62.05 28.591,86.87 50.083,99.277 50.085,74.46 "/>
<polygon fill="#666666" points="71.579,62.05 71.579,86.87 50.086,99.277 50.085,74.46 "/>
<g>
	<polygon fill="#CCCCCC" points="50.084,37.231 7.097,62.051 50.085,86.87 93.073,62.051 	"/>
	<polygon fill="#CCCCCC" points="50.084,24.821 7.097,49.641 50.085,74.46 93.073,49.641 	"/>
	<polygon fill="#CCCCCC" points="50.084,6.207 7.097,31.026 50.085,55.846 93.073,31.026 	"/>
</g>
<polygon fill="#333333" points="39.335,18.614 50.082,24.818 60.828,18.614 50.082,12.409 "/>
<polygon fill="#CCCCCC" points="39.339,6.204 50.086,12.41 60.832,6.204 50.086,0 "/>
<g>
	<polygon fill="#666666" points="7.097,62.051 7.097,68.256 50.085,93.076 50.085,86.87 	"/>
	<polygon fill="#666666" points="7.097,49.641 7.097,55.846 50.085,80.665 50.085,74.46 	"/>
	<polygon fill="#666666" points="7.097,31.026 7.097,43.437 50.085,68.257 50.085,55.846 	"/>
	<polygon fill="#666666" points="39.335,18.614 39.335,31.023 50.082,37.228 50.082,24.818 	"/>
	<polygon fill="#666666" points="39.339,6.204 39.339,12.41 50.086,18.614 50.086,12.409 	"/>
</g>
<g>
	<polygon fill="#999999" points="93.073,62.051 93.073,68.256 50.085,93.076 50.085,86.87 	"/>
	<polygon fill="#999999" points="93.073,49.641 93.073,55.846 50.085,80.665 50.085,74.46 	"/>
	<polygon fill="#999999" points="93.073,31.026 93.073,43.437 50.085,68.257 50.085,55.846 	"/>
	<polygon fill="#999999" points="60.829,18.614 60.829,31.023 50.083,37.228 50.082,24.818 	"/>
	<polygon fill="#999999" points="60.834,6.204 60.834,12.41 50.087,18.614 50.086,12.409 	"/>
</g>
</svg>
