<?xml version="1.0" encoding="utf-8"?>
<!-- Generator: Adobe Illustrator 16.0.0, SVG Export Plug-In . SVG Version: 6.00 Build 0)  -->
<!DOCTYPE svg PUBLIC "-//W3C//DTD SVG 1.1//EN" "http://www.w3.org/Graphics/SVG/1.1/DTD/svg11.dtd">
<svg version="1.1" id="Layer_1" xmlns="http://www.w3.org/2000/svg" xmlns:xlink="http://www.w3.org/1999/xlink" x="0px" y="0px"
	 width="100px" height="100px" viewBox="0 0 100 100" enable-background="new 0 0 100 100" xml:space="preserve">
<path fill="#CCCCCC" d="M80.483,65.694c0.9-2.385-3.057-11.307-11.749-15.053c-8.693-3.745-25.138-6.306-25.35-0.121
	c-0.197,5.74,6.276,15.554,16.163,17.012c5.19,0.766,10.891,1.896,15.546,3.124c4.21,1.111,7.563,2.304,8.906,3.378
	c2.827,2.262,7.562,8.904,8.975,10.318c1.414,1.413,6.361,7.562,6.361,8.551s0.07,1.343-2.191,0S84.069,81.242,82.161,79.97
	c-1.908-1.271-4.381-3.321-8.692-4.593c-4.311-1.272-49.611-6.431-43.039-26.784c6.572-20.354,23.322-10.672,25.583-9.966
	c2.261,0.707,17.314,7.491,20.494,10.743c3.181,3.25,9.471,11.308,9.117,13.922s-2.05,4.806-3.958,5.512
	c-1.908,0.707-0.739,0.409-3.657,1.131c-2.917,0.722-8.548,0.569-4.965-0.636C76.876,68.011,79.988,67.005,80.483,65.694z"/>
<path fill="#FFFFFF" d="M72.21,70.256c0,0,12.284-0.337,11.86-6.159c-0.425-5.822-7.067-14.021-15.407-18.331
	c-8.339-4.312-25.441-9.965-32.438-3.746c-6.997,6.22,0.636,23.888,19.435,27.421s29.463,9.048,35.548,15.478
	c6.219,6.572,7.8,8.864,7.8,8.864l-14.372-5.544c0,0-3.958-9.752-12.015-12.014S-1.195,71.667,0.395,51.914
	c1.59-19.753,24.453-28.976,44.382-24.312c19.93,4.664,45.089,24.523,42.614,36.494c-1.401,6.788-9.428,7.082-11.516,6.99
	C73.979,71.004,72.21,70.256,72.21,70.256z"/>
</svg>
