<?xml version="1.0" encoding="utf-8"?>
<!-- Generator: Adobe Illustrator 16.0.0, SVG Export Plug-In . SVG Version: 6.00 Build 0)  -->
<!DOCTYPE svg PUBLIC "-//W3C//DTD SVG 1.1//EN" "http://www.w3.org/Graphics/SVG/1.1/DTD/svg11.dtd">
<svg version="1.1" id="Layer_1" xmlns="http://www.w3.org/2000/svg" xmlns:xlink="http://www.w3.org/1999/xlink" x="0px" y="0px"
	 width="100px" height="100px" viewBox="0 0 100 100" enable-background="new 0 0 100 100" xml:space="preserve">
<path fill-rule="evenodd" clip-rule="evenodd" d="M17.688,100.023l0.092-0.092L17.688,100.023z"/>
<path fill-rule="evenodd" clip-rule="evenodd" d="M82.626,0.303l0.292-0.292L82.626,0.303z"/>
<g>
	<rect x="11.785" y="39.525" fill="#333333" width="9.569" height="0.329"/>
	<rect x="11.785" y="40.178" fill="#333333" width="9.569" height="0.33"/>
	<rect x="11.785" y="40.83" fill="#333333" width="9.569" height="0.331"/>
	<rect x="11.785" y="41.483" fill="#333333" width="9.569" height="0.331"/>
	<rect x="11.785" y="42.136" fill="#333333" width="9.569" height="0.331"/>
</g>
<g>
	<polygon fill="#666666" points="41.66,30.105 22.153,49.613 26.523,49.613 30.526,45.61 45.938,45.61 61.168,30.382 100,30.382 
		100,30.105 	"/>
	<rect x="11.168" y="49.016" fill="#666666" width="1.26" height="5.039"/>
	<rect x="13.651" y="49.016" fill="#666666" width="1.26" height="5.039"/>
</g>
<g>
	<path d="M37.155,33.056c0,0-24.229,0-32.693,0l0.521,0.521h17.205l0.261-0.261h14.705V33.056z"/>
	<polygon points="37.125,33.301 -0.2,70.626 -0.2,44.772 0.015,44.772 0.015,66.363 3.328,66.363 21.821,47.869 21.821,39.497 
		30.685,39.497 36.971,33.209 	"/>
	<rect x="18.202" y="51.835" width="16.932" height="0.234"/>
	<rect x="16.055" y="53.956" width="19.079" height="0.234"/>
	<rect x="8.683" y="49.016" width="1.261" height="5.039"/>
	<rect x="16.136" y="49.016" width="1.26" height="5.039"/>
</g>
</svg>
