<?xml version="1.0" encoding="utf-8"?>
<!-- Generator: Adobe Illustrator 16.0.0, SVG Export Plug-In . SVG Version: 6.00 Build 0)  -->
<!DOCTYPE svg PUBLIC "-//W3C//DTD SVG 1.1//EN" "http://www.w3.org/Graphics/SVG/1.1/DTD/svg11.dtd">
<svg version="1.1" id="Layer_1" xmlns="http://www.w3.org/2000/svg" xmlns:xlink="http://www.w3.org/1999/xlink" x="0px" y="0px"
	 width="50px" height="50px" viewBox="0 0 50 50" enable-background="new 0 0 50 50" xml:space="preserve">
<path fill-rule="evenodd" clip-rule="evenodd" fill="#808080" d="M31.268,23.534C31.171,23.576,31.275,23.614,31.268,23.534
	c2.611-0.703,4.881,0.783,4.568,3.425c0.398-3.846-5.318-3.495-6.448-1.208c0.948-0.666,2.051-1.757,4.097-1.545
	c0.277,0.037,0.435,0.191,0.74,0.202c0.609,0.439,1.033,1.069,1.207,1.946c0.022,1.08-0.081,0.285-0.201-0.201
	c-1.647-2.558-4.891-0.695-5.506,1.545c-0.573,0.166-1.144,0.334-1.882,0.336c-1.958,0.09-2.788,4.186-0.536,4.635
	c1.334-0.143,1.535-1.422,2.553-1.881c-0.199,0.451-0.463,0.836-0.672,1.273c0.613-0.236,0.732-1.549,1.678-1.678
	c-0.166,0.439-0.58,0.629-0.604,1.209c0.509-0.299,0.731-1.238,1.277-1.275c0.227,0.117-0.517,0.363-0.472,0.738
	c0.334-0.137,0.822-0.699,1.479-0.738c-0.188,0.572-0.956,0.566-1.209,1.076c-0.099,1.775,2.795,0.562,2.35,2.686
	c-0.162-0.551-0.499-0.934-1.074-1.074c0.02,0.406,0.836,0.596,0.738,1.342c-0.457-0.551-0.9-1.111-1.879-1.141
	c0.715,0.402,1.584,0.654,1.611,1.744c-0.408-0.713-1.226-1.367-2.285-1.207c0.904,0.307,1.863,0.555,2.016,1.611
	c-1.412-2.256-4.861-0.527-5.842,0.939c0.221-0.854,0.869-1.279,1.207-2.014c0.059,0.012,0.064-0.027,0.067-0.068
	c0.099-0.039-0.005-0.078,0,0c-0.058-0.012-0.062,0.027-0.067,0.068c-2.174,1.396-2.619,5.578-1.879,8.863
	c-0.729-1.285-0.969-3.061-0.94-5.104c0.097-0.041-0.006-0.08,0,0c-0.728,3.131,0.855,5.496,1.881,7.521
	c-2.803-2.145-3.647-8.08-2.149-12.355c-0.74,1.34-0.912,3.25-1.076,5.172c-0.029,3.723,1.562,5.824,3.225,7.857
	c-2.503-2.287-4.302-5.922-3.829-10.746c-0.937,4.482,1.004,8.27,3.091,10.609c-2.65-2.256-4.549-6.709-3.426-11.482
	c0.064-0.002,0.051-0.082,0.067-0.135c-0.066,0.002-0.052,0.084-0.067,0.135c-1.526,4.428,0.489,9.254,2.888,11.619
	c-2.813-1.955-4.413-5.125-4.434-9.873c-0.626,2.578,0.318,5.258,1.209,6.984c-1.201-1.484-2.117-3.256-2.484-5.574
	c0.057-4.264,2.28-6.361,2.754-10.207c0-0.518,0-1.031,0-1.547c0.131-1.075,0.027-2.387,0.134-3.492
	c0.378-1.658,0.729-3.345,2.282-3.828c-0.569,0.742-1.011,1.774-0.806,3.09c0.305-1.329,0.388-2.882,1.613-3.291
	c-0.162,0.605-0.655,1.22-0.47,1.947c0.472-1.476,0.937-2.958,2.482-3.358c-0.528,0.386-0.943,0.891-0.872,1.881
	c0.266-0.878,0.636-1.648,1.545-1.881c0.105,0.227-0.63,0.752-0.473,1.478c0.521-1.99,3.285-1.732,3.429-4.098
	c0.728,2.442-1.183,3.375-2.486,4.231c0.211,0.074,0.597-0.254,0.806-0.403c0.047,0.34-0.498,0.665-0.401,1.276
	c-2.702-0.123-4.312,1.418-4.702,3.828c0.6-0.453,0.705-1.397,1.275-1.88c-0.302,0.748-0.587,1.517-0.535,2.619
	c0.424-1.634,0.664-3.453,2.283-3.896c-0.666,0.701-1.219,1.514-1.344,2.753c0.639-1.062,0.707-2.695,2.282-2.82
	c-0.473,0.445-0.929,0.906-1.075,1.68c0.531-0.588,0.879-1.361,1.613-1.747c1.339-0.044,2.826-0.473,3.088-1.813
	c0.418,0.784,0.049,1.737-0.536,2.082c-3.175,0.115-3.728,2.853-4.97,4.903c1.048-0.386,1.232-2.212,2.149-2.955
	c-0.294,0.825-0.552,1.687-0.876,2.485c1-0.973,0.77-3.175,2.352-3.56c-0.324,0.546-0.756,0.985-0.871,1.745
	c0.705-1.308,1.83-2.542,3.962-1.879c-0.048,0.151-0.061,0.342-0.136,0.469c1.316,0.365,2.318,1.043,2.486,2.553
	c-0.5-1.229-1.902-1.898-3.693-1.612c2.193,0.141,4.042,1.247,3.627,3.558C36.036,23.857,33.543,22.544,31.268,23.534z
	 M27.307,34.211c0.73-0.682,1.663-1.156,2.82-1.41C28.802,32.621,27.787,33.326,27.307,34.211z M29.052,33.943
	c0.271-0.154,0.722-0.131,0.874-0.402C29.504,33.543,29.04,33.506,29.052,33.943z M26.77,25.481c-0.279,0.293,0.412,0.695,0.47,0.27
	C27.037,25.704,26.881,25.615,26.77,25.481z M25.964,32.4c0.179,0.414,0.788,0.836,1.275,0.537
	C26.719,32.895,26.248,32.451,25.964,32.4z M26.502,33.473c-0.082,0.293,0.614,0.293,0.535,0
	C26.795,33.496,26.713,33.576,26.502,33.473z M26.502,25.951c-0.17,0.325,0.381,0.497,0.401,0.202
	C26.644,26.211,26.663,25.989,26.502,25.951z M26.365,26.557c-0.066,0.305,0.344,0.33,0.336,0.064
	C26.512,26.678,26.529,26.529,26.365,26.557z M25.896,33.34c0.023,1.457-0.653,2.924-0.471,4.096
	C25.691,36.264,26.301,34.734,25.896,33.34z M25.626,26.42c0.106-0.408,0.166-0.864,0.27-1.274
	C25.6,25.321,25.533,26.082,25.626,26.42z M24.216,33.541c0.55-1.848,1.291-3.861,1.142-6.18
	C25.139,29.535,24.387,31.539,24.216,33.541z M24.687,23.466c-0.04,0.242,0.08,0.324,0.133,0.471c0.113,0,0.226,0,0.336,0
	c0.017-0.104,0.259-0.313,0.067-0.403C25.032,23.824,24.843,23.686,24.687,23.466z M24.687,24.206
	c0.008,0.547,0.603,0.126,0.605-0.135C25.003,23.818,25.028,24.305,24.687,24.206z M24.754,25.012
	c0.235,0.168,0.523-0.075,0.469-0.404C24.979,24.653,24.835,24.8,24.754,25.012z M24.82,25.28c-0.091,0.302,0.271,0.326,0.403,0.201
	c0-0.067,0-0.134,0-0.201C25.09,25.28,24.956,25.28,24.82,25.28z M23.948,32.4c0.417-1.486,0.764-3.402,0.671-5.172
	C24.273,28.783,24.24,31.012,23.948,32.4z M21.865,34.549c1.598-2.975,2.299-7.193,1.882-11.956
	C23.728,27.084,23.063,31.068,21.865,34.549z"/>
<path fill-rule="evenodd" clip-rule="evenodd" fill="#E6E6E6" d="M31.74,11.914c-0.566,1.685-2.81,2.375-2.419,4.567
	c-0.317,0.2-0.948,0.085-1.345,0.202c0.26-0.681,0.625-1.256,0.74-2.082c-0.666,0.7-0.811,2.501-2.016,2.889
	c0.318-0.717,1.043-1.372,1.075-2.149c-0.972,0.997-1.15,2.79-2.888,3.022c0.162-0.509,0.566-0.777,0.738-1.277
	c-1.076,0.891-1.689,2.25-2.416,3.492c-3.096,3.198-6.098,6.485-6.113,12.762c0.47-5.465,2.882-9.343,5.912-12.022
	c-0.111,0.382-0.189,0.797-0.27,1.208c-1.633,2.015-3.45,3.847-3.962,6.984c0.909-2.494,2.202-4.602,3.962-6.245
	c-0.097,0.217-0.062,0.562-0.067,0.873c-2.542,2.752-4.637,8.215-2.955,13.297c-0.049,0.99,0.224,1.658,0.404,2.418
	c-1.384-2.145-1.95-5.547-1.612-8.998c-1.558,4.416,0.764,8.658,2.62,11.35c-1.886-1.9-3.093-4.477-3.694-7.656
	c0.035,4.33,2.607,7.287,5.037,9.67c-4.069-2.514-6.354-7.164-6.112-13.768c-0.907,4.539,0.879,8.979,2.889,11.686
	c1.616,2.033,4.247,3.051,6.312,4.635c-4.899-1.906-8.884-5.309-9.872-11.35c-0.057-0.57-0.03-1.223-0.135-1.748
	c-0.117-11.333,9.454-12.977,10.681-22.968c-0.115-1.32-0.425-2.442-0.941-3.358c-0.375-0.452-0.953-0.707-1.881-0.606
	c-2.127,0.254-2.792,4.78-0.335,5.171c0.331,0.043,0.428-0.151,0.671-0.2c-0.167,0.442-0.741,0.785-1.276,0.469
	c-0.342,0.098,0.197,0.323,0,0.47c-0.565,0.26-0.79-0.38-1.342-0.132c-0.207,0.238,0.157,0.24,0,0.469
	c-0.005,0.314-0.154-0.078-0.27-0.066c-0.071,0.223,0.419,0.686,0,0.94c-0.125-0.278-0.132-0.673-0.402-0.806
	c-0.143,0.186,0.312,0.643,0.068,0.94c-0.897-0.228-2.121,0.012-2.083,1.276c-1.009-0.831,0.304-1.749,0.737-2.35
	c-0.02-0.271-0.16-0.422-0.334-0.539c-0.449,0.095-0.776,0.172-1.209,0c-0.033-0.3,0.459-0.077,0.403-0.404
	c-0.542-0.21-1.637,0.061-1.814-0.67c0.02-0.248,0.42-0.118,0.537-0.269c-0.159-0.423-0.799-0.365-0.94-0.805
	c-0.003-0.608,0.213-0.998,0.403-1.412c0.162,0.893,1.974,1.131,2.284,0.201c-0.195-0.788-1.117-0.852-1.141-1.812
	c0.266,0.426,0.668,0.718,1.141,0.939c-0.391-0.638-1.199-0.861-1.208-1.88c0.236,0.39,0.422,0.832,0.872,1.009
	c-0.064-0.519-1.029-1.001-0.671-1.949c0.189,0.212,0.186,0.621,0.538,0.671c0.363,0.051,0.356-0.27,0.604-0.335
	c0.203,0.625,0.419,1.236,0.739,1.747c0.014-1.02-1.088-2.242-0.336-3.426c0.004,0.868-0.053,1.8,0.47,2.148
	c-0.126-0.712-0.541-2.662,0.402-3.021c-0.2,0.427-0.394,1.144-0.201,1.747c0.143-1.067,0.554-1.867,1.344-2.284
	c-0.675,0.565-1.247,3.829,0.738,3.156c-0.605-0.896,0.303-1.425,0.604-2.016c0.905,0.627,2.178,0.321,3.427,0.335
	c1.166,0.805,1.424,2.517,1.477,4.434c0.381,0.624,0.826,1.187,1.006,2.015c-0.086,1.562,0.008,2.822-0.672,3.962
	c1.372-0.935,0.896-3.716,2.151-4.767c0.026,0.745-0.231,1.784-0.269,2.685c0.564-0.978,0.359-3.087,1.273-3.492
	c0.009,0.882-0.25,1.494-0.402,2.216c0.713-1.132,0.947-3.071,1.076-4.567c1.163,1.2,0.584,3.852-0.338,4.836
	c0.629-0.177,0.75-0.864,1.076-1.342c0.031,1.395-1.164,2.15-2.016,2.888c0.608,0.046,1.107-0.595,1.479-1.009
	C31.693,11.914,31.716,11.914,31.74,11.914z M26.635,8.758c1.195,2.193-0.002,5.361-0.469,7.254
	C27.166,14.349,28.121,10.346,26.635,8.758z M25.896,14.869C25.695,14.884,25.96,15.148,25.896,14.869c0.022,0,0.044,0,0.068,0
	c0.699-1.375,1.378-4.013,0.538-5.708C27.025,11.188,26.354,13.217,25.896,14.869z M26.432,9.026
	C26.389,9.071,26.461,8.999,26.432,9.026L26.432,9.026z M24.485,4.46c1.292,0.229,1.681,1.364,1.813,2.754
	C26.784,5.76,25.874,4.256,24.485,4.46z M24.687,17.153c0.489-0.295,0.614-0.953,0.873-1.477
	C25.08,15.98,24.909,16.591,24.687,17.153z M22.806,4.527C24,4.744,24.789,5.365,25.292,6.273
	C25.23,4.967,24.062,4.414,22.806,4.527z M21.999,6.608c0.368-0.929,1.602-0.661,2.486-0.805
	C23.531,5.315,21.953,5.716,21.999,6.608z M22.269,7.146c0.279-0.664,1.211-0.67,2.082-0.739C23.521,6.06,22.151,6.362,22.269,7.146
	z M16.56,29.646c0.877-2.014,1.925-3.853,2.956-5.709c1.53-2.12,3.651-3.646,4.769-6.18c-0.005-0.042-0.011-0.079-0.068-0.067
	C21.442,21.452,17.932,24.48,16.56,29.646z M21.53,11.58c-0.713-1.139-0.477-3.042,0.203-4.03
	C20.741,8.109,20.451,10.87,21.53,11.58z M20.59,6.206c0.012,0.571,0.925,0.579,1.075,0.134C21.249,6.495,20.861,6.495,20.59,6.206z
	 M21.262,7.214c-0.667,0.582-1.23,1.925-1.007,2.955C20.385,8.979,20.817,8.088,21.262,7.214
	C21.464,7.199,21.198,6.934,21.262,7.214z M20.322,7.616c-0.244,0.36-0.432,0.778-0.74,1.075C20.068,8.57,20.281,8.179,20.322,7.616
	C20.522,7.603,20.257,7.336,20.322,7.616z M19.985,11.444c0.037,0.234,0.181,0.358,0.203,0.604
	C20.556,11.984,20.268,11.452,19.985,11.444z M19.716,11.914c0.173,0.075,0.132,0.361,0.135,0.606
	C20.271,12.546,20.013,11.573,19.716,11.914z M19.247,12.048c0.236,0.145,0.117,0.644,0.334,0.806
	C19.81,12.6,19.753,11.958,19.247,12.048z M18.575,11.646c0.603-0.069,0.741-0.605,0.874-1.142
	C19.134,10.862,18.988,11.386,18.575,11.646z M17.568,10.975c0.785,0.047,1.114-0.364,1.343-0.873
	C18.468,10.395,18.118,10.785,17.568,10.975z"/>
<g>
	<path fill-rule="evenodd" clip-rule="evenodd" fill="#4D4D4D" d="M31.806,11.78C31.799,11.699,31.904,11.739,31.806,11.78
		L31.806,11.78z"/>
	<path fill-rule="evenodd" clip-rule="evenodd" fill="#4D4D4D" d="M30.865,21.183C30.895,21.154,30.821,21.227,30.865,21.183
		L30.865,21.183z"/>
	<path fill-rule="evenodd" clip-rule="evenodd" fill="#4D4D4D" d="M29.859,30.787C29.852,30.705,29.956,30.746,29.859,30.787
		L29.859,30.787z"/>
	<path fill-rule="evenodd" clip-rule="evenodd" fill="#4D4D4D" d="M29.321,22.325C29.314,22.243,29.418,22.283,29.321,22.325
		L29.321,22.325z"/>
	<path fill-rule="evenodd" clip-rule="evenodd" fill="#4D4D4D" d="M28.918,30.652c-0.182,0.131-0.347,0.279-0.673,0.27
		c-0.813-0.121-1.089-2.125-0.132-2.283C27.766,29.438,28.064,30.621,28.918,30.652z"/>
	<path fill-rule="evenodd" clip-rule="evenodd" fill="#4D4D4D" d="M28.312,31.256c-1.307,0.891-1.786-1.584-1.006-2.283
		C27.223,29.82,27.219,31.209,28.312,31.256z"/>
	<path fill-rule="evenodd" clip-rule="evenodd" fill="#4D4D4D" d="M27.977,16.683C27.984,16.764,27.879,16.724,27.977,16.683
		L27.977,16.683z"/>
	<path fill-rule="evenodd" clip-rule="evenodd" fill="#4D4D4D" d="M26.701,29.646c-0.126,1.023,0.033,2.037,1.008,2.146
		C26.791,32.719,25.947,30.416,26.701,29.646z"/>
	<path fill-rule="evenodd" clip-rule="evenodd" fill="#4D4D4D" d="M27.44,45.83C27.522,45.824,27.481,45.928,27.44,45.83
		L27.44,45.83z"/>
	<path fill-rule="evenodd" clip-rule="evenodd" fill="#4D4D4D" d="M27.44,45.83C27.359,45.838,27.4,45.734,27.44,45.83L27.44,45.83z
		"/>
	<path fill-rule="evenodd" clip-rule="evenodd" fill="#4D4D4D" d="M27.307,45.629C27.387,45.623,27.349,45.727,27.307,45.629
		L27.307,45.629z"/>
	<path fill-rule="evenodd" clip-rule="evenodd" fill="#4D4D4D" d="M27.239,45.561c0.04,0.006,0.081,0.012,0.067,0.068
		C27.264,45.627,27.227,45.619,27.239,45.561z"/>
	<path fill-rule="evenodd" clip-rule="evenodd" fill="#4D4D4D" d="M27.239,46.234C27.321,46.227,27.279,46.332,27.239,46.234
		L27.239,46.234z"/>
	<path fill-rule="evenodd" clip-rule="evenodd" fill="#4D4D4D" d="M26.971,36.293C27.035,36.572,26.77,36.307,26.971,36.293
		L26.971,36.293z"/>
	<path fill-rule="evenodd" clip-rule="evenodd" fill="#4D4D4D" d="M26.903,46.436C26.984,46.43,26.943,46.533,26.903,46.436
		L26.903,46.436z"/>
	<path fill-rule="evenodd" clip-rule="evenodd" fill="#4D4D4D" d="M26.838,46.367c0.038,0.004,0.076,0.012,0.065,0.068
		C26.862,46.432,26.822,46.426,26.838,46.367z"/>
	<path fill-rule="evenodd" clip-rule="evenodd" fill="#4D4D4D" d="M26.838,46.367c-0.055-0.016-0.134,0-0.137-0.066
		C26.754,46.316,26.834,46.303,26.838,46.367z"/>
	<path fill-rule="evenodd" clip-rule="evenodd" fill="#4D4D4D" d="M26.701,29.646C26.637,29.365,26.903,29.631,26.701,29.646
		L26.701,29.646z"/>
	<path fill-rule="evenodd" clip-rule="evenodd" fill="#4D4D4D" d="M26.701,17.49c-0.004,0.04-0.011,0.08-0.066,0.066
		C26.637,17.515,26.645,17.477,26.701,17.49z"/>
	<path fill-rule="evenodd" clip-rule="evenodd" fill="#4D4D4D" d="M26.635,46.234c0.041,0.004,0.078,0.01,0.066,0.066
		C26.661,46.297,26.621,46.291,26.635,46.234z"/>
	<path fill-rule="evenodd" clip-rule="evenodd" fill="#4D4D4D" d="M26.635,17.556C26.641,17.637,26.537,17.598,26.635,17.556
		L26.635,17.556z"/>
	<path fill-rule="evenodd" clip-rule="evenodd" fill="#4D4D4D" d="M26.567,46.166c0.041,0.004,0.079,0.012,0.067,0.068
		C26.594,46.23,26.554,46.225,26.567,46.166z"/>
	<path fill-rule="evenodd" clip-rule="evenodd" fill="#4D4D4D" d="M26.502,46.098c0.039,0.006,0.078,0.012,0.065,0.068
		C26.526,46.162,26.486,46.156,26.502,46.098z"/>
	<path fill-rule="evenodd" clip-rule="evenodd" fill="#4D4D4D" d="M26.365,21.519C26.358,21.437,26.465,21.476,26.365,21.519
		L26.365,21.519z"/>
	<path fill-rule="evenodd" clip-rule="evenodd" fill="#4D4D4D" d="M26.299,43.211C26.326,43.184,26.256,43.256,26.299,43.211
		L26.299,43.211z"/>
	<path fill-rule="evenodd" clip-rule="evenodd" fill="#4D4D4D" d="M26.232,18.497C26.225,18.415,26.33,18.454,26.232,18.497
		L26.232,18.497z"/>
	<path fill-rule="evenodd" clip-rule="evenodd" fill="#4D4D4D" d="M25.964,46.234C26.044,46.227,26.004,46.332,25.964,46.234
		L25.964,46.234z"/>
	<path fill-rule="evenodd" clip-rule="evenodd" fill="#4D4D4D" d="M25.493,9.968c-0.465-1.057-0.891-2.154-2.082-2.485
		C24.649,7.499,25.396,8.585,25.493,9.968z"/>
	<path fill-rule="evenodd" clip-rule="evenodd" fill="#4D4D4D" d="M25.358,11.847c-0.345-1.579-0.713-3.719-2.687-3.894
		c0.125-0.515,0.67-0.107,1.009-0.067C24.69,8.753,25.324,10.001,25.358,11.847z"/>
	<path fill-rule="evenodd" clip-rule="evenodd" fill="#4D4D4D" d="M25.09,8.086C25.171,8.08,25.131,8.185,25.09,8.086L25.09,8.086z"
		/>
	<path fill-rule="evenodd" clip-rule="evenodd" fill="#4D4D4D" d="M25.09,8.086c-0.163-0.106-0.296-0.24-0.403-0.402
		C24.904,7.735,25.038,7.869,25.09,8.086z"/>
	<path fill-rule="evenodd" clip-rule="evenodd" fill="#4D4D4D" d="M24.956,11.914c-0.087,0.062-0.109-0.513-0.136-0.738
		C24.948,11.339,24.965,11.614,24.956,11.914z"/>
	<path fill-rule="evenodd" clip-rule="evenodd" fill="#4D4D4D" d="M24.888,18.363C24.896,18.443,24.79,18.404,24.888,18.363
		L24.888,18.363z"/>
	<path fill-rule="evenodd" clip-rule="evenodd" fill="#4D4D4D" d="M24.754,10.84C24.959,10.987,24.676,11.27,24.754,10.84
		L24.754,10.84z"/>
	<path fill-rule="evenodd" clip-rule="evenodd" fill="#4D4D4D" d="M24.687,10.638c0.08,0.012,0.073,0.107,0.067,0.202
		C24.676,10.829,24.681,10.734,24.687,10.638z"/>
	<path fill-rule="evenodd" clip-rule="evenodd" fill="#4D4D4D" d="M24.687,7.684C24.604,7.69,24.646,7.586,24.687,7.684
		L24.687,7.684z"/>
	<path fill-rule="evenodd" clip-rule="evenodd" fill="#4D4D4D" d="M24.687,10.638c-0.516-0.957-0.979-2.547-2.552-2.014
		C23.252,7.545,24.547,9.433,24.687,10.638z"/>
	<path fill-rule="evenodd" clip-rule="evenodd" fill="#4D4D4D" d="M22.739,43.346C22.82,43.34,22.781,43.443,22.739,43.346
		L22.739,43.346z"/>
	<path fill-rule="evenodd" clip-rule="evenodd" fill="#4D4D4D" d="M19.716,36.428c-1.08-4.656,0.628-9.443,2.955-11.551
		c0,0.046,0,0.09,0,0.136c-0.019,0.108,0.063,0.114,0.067,0.199c-1.124,2.15-2.514,4.146-2.754,7.255
		C19.883,33.799,19.986,35.135,19.716,36.428z"/>
	<path fill-rule="evenodd" clip-rule="evenodd" fill="#4D4D4D" d="M22.47,26.354c0.056-0.012,0.064,0.025,0.067,0.066
		c0,0.18,0,0.359,0,0.539c-1.08,1.963-1.413,4.676-2.282,6.85C20.183,30.781,21.3,28.361,22.47,26.354z"/>
	<path fill-rule="evenodd" clip-rule="evenodd" fill="#4D4D4D" d="M22.067,28.639C22.269,28.652,22.003,28.916,22.067,28.639
		L22.067,28.639z"/>
	<path fill-rule="evenodd" clip-rule="evenodd" fill="#4D4D4D" d="M21.999,28.973C21.935,28.693,22.201,28.959,21.999,28.973
		L21.999,28.973z"/>
	<path fill-rule="evenodd" clip-rule="evenodd" fill="#4D4D4D" d="M21.999,28.973c-0.032,0.461-0.244,0.74-0.334,1.143
		C21.574,29.799,21.841,29.262,21.999,28.973z"/>
	<path fill-rule="evenodd" clip-rule="evenodd" fill="#4D4D4D" d="M21.53,30.184C21.732,30.195,21.466,30.463,21.53,30.184
		L21.53,30.184z"/>
	<path fill-rule="evenodd" clip-rule="evenodd" fill="#4D4D4D" d="M21.464,30.451C21.49,30.424,21.419,30.494,21.464,30.451
		L21.464,30.451z"/>
	<path fill-rule="evenodd" clip-rule="evenodd" fill="#4D4D4D" d="M21.464,12.854C21.382,12.862,21.422,12.757,21.464,12.854
		L21.464,12.854z"/>
	<path fill-rule="evenodd" clip-rule="evenodd" fill="#4D4D4D" d="M21.128,42.205C21.208,42.197,21.169,42.303,21.128,42.205
		L21.128,42.205z"/>
</g>
</svg>
