<?xml version="1.0" encoding="utf-8"?>
<!-- Generator: Adobe Illustrator 16.0.0, SVG Export Plug-In . SVG Version: 6.00 Build 0)  -->
<!DOCTYPE svg PUBLIC "-//W3C//DTD SVG 1.1//EN" "http://www.w3.org/Graphics/SVG/1.1/DTD/svg11.dtd">
<svg version="1.1" id="Layer_1" xmlns="http://www.w3.org/2000/svg" xmlns:xlink="http://www.w3.org/1999/xlink" x="0px" y="0px"
	 width="1000px" height="1000px" viewBox="0 0 1000 1000" enable-background="new 0 0 1000 1000" xml:space="preserve">
<g>
	<polygon fill="#C5E4DC" points="412.012,349.436 466.01,314.725 392.926,242.548 351.693,235.558 	"/>
</g>
<g>
	<polygon fill="#AEDAD4" points="466.01,314.725 459.481,337.099 412.012,349.436 	"/>
</g>
<polygon fill="#85D5F7" points="459.481,337.099 423.126,391.609 412.012,349.436 "/>
<polygon fill="#7EA3D5" points="392.926,242.548 412.012,100.378 466.01,314.725 "/>
<g>
	<path fill="#4454A5" d="M575.164,600.454l-107.788-104.84l107.788-104.847l78.27,104.847L575.164,600.454z M472.753,495.614
		l101.964,99.173l74.036-99.173l-74.036-99.178L472.753,495.614z"/>
</g>
<g>
	<path fill="#4454A5" d="M652.544,653.754l-2.326-0.575L192.353,540.241l-0.264-1.119l-37.75-161.827l1.959-0.341l496.246-85.604
		V653.754z M195.48,537.152l453.315,111.812V295.803l-489.901,84.51L195.48,537.152z"/>
</g>
<g>
	<path fill="#4454A5" d="M157.572,380.419l-2.201-3.017L508.316,64.462l77.966,62.52l-2.333,1.38L157.572,380.419z M508.44,69.365
		L172.468,367.254l407.237-240.741L508.44,69.365z"/>
</g>
<g>
	<path fill="#4454A5" d="M146.868,382.389l437.045-258.361l69.366,171l-2.291,0.399L146.868,382.389z M582.074,129.469
		l-415.71,245.75l481.694-83.096L582.074,129.469z"/>
</g>
<g>
	<path fill="#4454A5" d="M449.675,934.883L189.753,535.739l464.055,114.463l-1.615,2.248L449.675,934.883z M198.08,541.657
		l251.742,386.582l197.71-275.724L198.08,541.657z"/>
</g>
<g>
	<path fill="#4454A5" d="M609.864,553.763l-143.11-57.456l143.11-145.29V553.763z M473.374,494.923l132.74,53.295V360.165
		L473.374,494.923z"/>
</g>
<g>
	<path fill="#4454A5" d="M444.589,935.538l207.376-289.201l23.675,200.935L444.589,935.538z M649.373,656.384l-194.465,271.2
		l216.667-82.773L649.373,656.384z"/>
</g>
<path fill="#4454A5" d="M376.777,519.883L331.75,399.86l25.842-94.587l184.875,74.326L376.777,519.883z M335.69,399.676
	l42.728,113.9l156.879-132.82l-175.201-70.437L335.69,399.676z"/>
<g>
	<path fill="#4454A5" d="M149.731,896.289l494.464-254.712l-34.21,131.61L445.317,866.73L149.731,896.289z M638.452,648.754
		l-469.48,241.845l275.576-27.56l162.208-92.327L638.452,648.754z"/>
</g>
<path opacity="0.3" fill="#80C7B8" d="M853.132,855.639l-365.344-386.76l1.937-1.215l221.076-138.519l0.659,2.442L853.132,855.639z
	 M493.654,469.626l351.971,372.603L708.502,335.011L493.654,469.626z"/>
</svg>
