<?xml version="1.0" encoding="utf-8"?>
<!-- Generator: Adobe Illustrator 16.0.0, SVG Export Plug-In . SVG Version: 6.00 Build 0)  -->
<!DOCTYPE svg PUBLIC "-//W3C//DTD SVG 1.1//EN" "http://www.w3.org/Graphics/SVG/1.1/DTD/svg11.dtd">
<svg version="1.1" id="Layer_1" xmlns="http://www.w3.org/2000/svg" xmlns:xlink="http://www.w3.org/1999/xlink" x="0px" y="0px"
	 width="1000px" height="1000px" viewBox="0 0 1000 1000" enable-background="new 0 0 1000 1000" xml:space="preserve">
<g>
	<g>
		<path fill="#4454A5" d="M317.659,580.793l-23.903-70.132l46.598-91.398l125.525-102.025L317.659,580.793z M296.409,510.848
			l21.8,63.97l139.224-247.555L342.101,421L296.409,510.848z"/>
	</g>
	<g>
		<path fill="#4454A5" d="M317.659,580.793l-24.39-71.559l59.471,9.178L317.659,580.793z M296.895,512.272l21.314,62.545
			l30.663-54.525L296.895,512.272z"/>
	</g>
	<g opacity="0.7">
		<path fill="#4454A5" d="M295.218,513.188l-24.567-37.271l74.187-60.301L295.218,513.188z M273.917,476.419l21.027,31.901
			l42.471-83.514L273.917,476.419z"/>
	</g>
	<g>
		<path fill="#4454A5" d="M251.602,642.504l19.855-169.814l24.784,37.67l23.106,67.793L251.602,642.504z M273.111,479.646
			l-18.289,156.421l61.701-58.608l-22.55-66.162L273.111,479.646z"/>
	</g>
	<g>
		<path fill="#4454A5" d="M261.548,557.453l9.909-84.764l25.122,38.11L261.548,557.453z M273.111,479.646l-8.077,69.084
			l28.549-38.021L273.111,479.646z"/>
	</g>
	<g opacity="0.5">
		<path fill="#4454A5" d="M247.16,643.346l70.574-67.037l35.939,19.212L247.16,643.346z M318.137,579.304l-58.869,55.922
			l88.85-39.897L318.137,579.304z"/>
	</g>
	<g opacity="0.3">
		<path fill="#4454A5" d="M254.179,641.58l-44.62-34.466l55.37-57.49L254.179,641.58z M213.22,606.847l39.028,30.145l9.402-80.434
			L213.22,606.847z"/>
	</g>
	<g>
		<path fill="#4454A5" d="M174.261,632.922l-47.429-71.944l139.54-9.319l-54.307,56.344L174.261,632.922z M131.193,563.141
			l43.764,66.389l35.644-23.497l49.608-51.507L131.193,563.141z"/>
	</g>
	<g opacity="0.5">
		<path fill="#4454A5" d="M200.556,558.509l73.413-86.208l-9.582,81.945L200.556,558.509z M270.599,480.037l-64.414,75.639
			l56.006-3.737L270.599,480.037z"/>
	</g>
	<g>
		<path fill="#4454A5" d="M257.361,640.941l-86.295-8.848l40.378-26.619L257.361,640.941z M178.15,630.356l70.914,7.271
			l-37.732-29.143L178.15,630.356z"/>
	</g>
	<g>
		<path fill="#4454A5" d="M203.068,559.336l-0.809-1.725l-78.476-167.984l150.389,86.211L203.068,559.336z M129.279,395.598
			l74.395,159.25l66.722-78.351L129.279,395.598z"/>
	</g>
	<g>
		<path fill="#4454A5" d="M203.068,559.336l-0.809-1.725l-78.476-167.984l150.389,86.211L203.068,559.336z M129.279,395.598
			l74.395,159.25l66.722-78.351L129.279,395.598z"/>
	</g>
	<g>
		<path fill="none" stroke="#4454A5" stroke-miterlimit="10" d="M143.45,561.092"/>
	</g>
	<g>
		<path fill="#4454A5" d="M127.808,563.367l-2.584-176.449l80.014,171.276L127.808,563.367z M127.841,398.307l2.378,162.443
			l71.284-4.762L127.841,398.307z"/>
	</g>
	<g opacity="0.3">
		<path fill="#4454A5" d="M247.519,699.21l-76.488-69.583l83.541,8.568L247.519,699.21z M178.184,632.824l67.449,61.357l6.22-53.806
			L178.184,632.824z"/>
	</g>
	<g opacity="0.5">
		<path fill="#4454A5" d="M211.624,608.504l-86.895-47.388l141.643-9.458L211.624,608.504z M133.298,563.002l77.856,42.453
			l49.053-50.93L133.298,563.002z"/>
	</g>
	<g>
		<path fill="#4454A5" d="M338.868,423.627l23.588-81.802l103.896-21.812L338.868,423.627z M364.401,343.921l-21.013,72.878
			l113.571-92.312L364.401,343.921z"/>
	</g>
	<g>
		<path fill="#4454A5" d="M274.735,478.986l-155.525-89.16l130.713,27.395L274.735,478.986z M133.855,395.401l135.975,77.948
			l-21.693-54L133.855,395.401z"/>
	</g>
	<g>
		<path fill="#4454A5" d="M271.767,478.166l-24.564-61.144l97.288,2.035L271.767,478.166z M250.858,419.548L272.8,474.17
			l64.966-52.803L250.858,419.548z"/>
	</g>
</g>
<g>
	<g>
		<path fill="#4454A5" d="M654.316,690.566l-46.502-143.152l0.24-0.46l98.54-187.047l0.202-0.161l258.511-203.995l-3.233,5.567
			L654.316,690.566z M610.461,547.639L654.952,684.6L956.72,165.652L708.518,361.51L610.461,547.639z"/>
	</g>
	<g>
		<path fill="#4454A5" d="M654.316,690.566l-46.968-144.585l119.304,20.178L654.316,690.566z M610.928,549.072L654.952,684.6
			l67.806-116.612L610.928,549.072z"/>
	</g>
	<g opacity="0.7">
		<path fill="#4454A5" d="M609.24,549.962l-48.084-75.277l150.177-118.517L609.24,549.962z M564.416,475.235l44.62,69.855
			l94.742-179.84L564.416,475.235z"/>
	</g>
	<g>
		<path fill="#4454A5" d="M516.614,816.636l45.395-345.167l48.295,75.679L656.04,687.95l-0.575,0.532L516.614,816.636z
			 M563.562,478.451l-43.638,331.798l133.301-123.035l-45.204-139.161L563.562,478.451z"/>
	</g>
	<g>
		<path fill="#4454A5" d="M539.986,638.917l22.022-167.448l48.624,76.124L539.986,638.917z M563.562,478.451l-19.963,151.795
			l64.044-82.786L563.562,478.451z"/>
	</g>
	<g opacity="0.5">
		<path fill="#4454A5" d="M512.156,817.416l142.295-131.333l70.943,39.246L512.156,817.416z M654.813,689.083L524.38,809.468
			l195.464-84.411L654.813,689.083z"/>
	</g>
	<g opacity="0.3">
		<path fill="#4454A5" d="M519.2,815.749l-88.733-70.605L543.48,631.14L519.2,815.749z M434.13,744.928l83.206,66.208l22.768-173.11
			L434.13,744.928z"/>
	</g>
	<g>
		<path fill="#4454A5" d="M354.75,796.024l-94.496-147.938l284.639-14.895L432.958,746.066L354.75,796.024z M264.584,650.311
			l90.912,142.331l76.029-48.564l107.167-108.105L264.584,650.311z"/>
	</g>
	<g opacity="0.5">
		<path fill="#4454A5" d="M414.292,642.478l1.915-2.185l148.319-169.178l-21.651,164.636L414.292,642.478z M561.044,478.805
			L419.959,639.727l120.751-6.314L561.044,478.805z"/>
	</g>
	<g>
		<path fill="#4454A5" d="M522.395,815.157l-170.827-20.009l80.809-51.615l0.687,0.544L522.395,815.157z M358.676,793.518
			l155.469,18.209l-81.924-65.188L358.676,793.518z"/>
	</g>
	<g>
		<path fill="#4454A5" d="M416.789,643.344L259.626,293.891l305.052,180.768L416.789,643.344z M265.037,299.945l152.423,338.915
			l143.431-163.599L265.037,299.945z"/>
	</g>
	<g>
		<path fill="#4454A5" d="M416.789,643.344L259.626,293.891l305.052,180.768L416.789,643.344z M265.037,299.945l152.423,338.915
			l143.431-163.599L265.037,299.945z"/>
	</g>
	<g>
		<path fill="none" stroke="#4454A5" stroke-miterlimit="10" d="M292.457,647.628"/>
	</g>
	<g>
		<path fill="#4454A5" d="M261.194,650.487l-0.089-359.283l157.872,351.027L261.194,650.487z M263.558,302.631l0.086,345.277
			l151.628-7.936L263.558,302.631z"/>
	</g>
	<g opacity="0.3">
		<path fill="#4454A5" d="M503.66,935.103L351.568,792.685l168.075,19.686L503.66,935.103z M358.676,795.981l143.172,134.067
			l15.046-115.535L358.676,795.981z"/>
	</g>
	<g opacity="0.5">
		<path fill="#4454A5" d="M432.51,746.562l-174.362-98.366l286.744-15.005L432.51,746.562z M266.691,650.2l165.395,93.31
			l106.605-107.538L266.691,650.2z"/>
	</g>
	<g>
		<path fill="#4454A5" d="M705.248,364.092l50.021-164.531l210.473-41.029L705.248,364.092z M757.184,201.685l-47.319,155.641
			l246.422-194.454L757.184,201.685z"/>
	</g>
	<g>
		<path fill="#4454A5" d="M565.195,477.812L255.05,294.025l262.042,58.872L565.195,477.812z M269.615,299.811l290.757,172.298
			l-45.096-117.105L269.615,299.811z"/>
	</g>
	<g>
		<path fill="#4454A5" d="M562.239,476.95l-47.865-124.29l196.56,6.943L562.239,476.95z M517.992,355.24l45.338,117.729
			l140.847-111.155L517.992,355.24z"/>
	</g>
</g>
<path opacity="0.3" fill="#80C7B8" d="M395.456,971.854L156.758,719.166l1.266-0.795l144.439-90.5L395.456,971.854z
	 M160.591,719.654l229.957,243.438L300.96,631.704L160.591,719.654z"/>
<path opacity="0.3" fill="#80C7B8" d="M121.097,814.71L84.686,646.586l148.588,35.688L121.097,814.71z M87.906,649.877
	l34.533,159.459l106.394-125.607L87.906,649.877z"/>
</svg>
