<?xml version="1.0" encoding="utf-8"?>
<!-- Generator: Adobe Illustrator 16.0.0, SVG Export Plug-In . SVG Version: 6.00 Build 0)  -->
<!DOCTYPE svg PUBLIC "-//W3C//DTD SVG 1.1//EN" "http://www.w3.org/Graphics/SVG/1.1/DTD/svg11.dtd">
<svg version="1.1" id="Layer_1" xmlns="http://www.w3.org/2000/svg" xmlns:xlink="http://www.w3.org/1999/xlink" x="0px" y="0px"
	 width="100px" height="100px" viewBox="0 0 100 100" enable-background="new 0 0 100 100" xml:space="preserve">
<g>
	<polygon fill="#E6E6E6" points="6.758,62.684 17.57,68.928 28.381,62.684 17.57,56.441 	"/>
	<polygon fill="#E6E6E6" points="71.517,62.684 82.329,68.928 93.141,62.684 82.329,56.441 	"/>
	<polygon fill="#E6E6E6" points="39.19,81.412 50.003,87.654 60.813,81.412 50.002,75.169 	"/>
	<polygon fill="#E6E6E6" points="28.375,50.199 50,62.686 71.622,50.199 49.999,37.716 	"/>
	<polygon fill="#E6E6E6" points="49.999,25.229 28.375,37.713 49.999,50.199 71.625,37.714 	"/>
	<path fill="#E6E6E6" d="M50,12.744L6.75,37.713L50,62.685l43.25-24.971L50,12.744z M49.999,50.199L28.375,37.713l21.624-12.484
		l21.626,12.485L49.999,50.199z"/>
	<polygon fill="#E6E6E6" points="39.176,6.501 49.989,12.744 60.8,6.501 49.988,0.259 	"/>
	<polygon fill="#E6E6E6" points="71.517,25.229 82.329,31.472 93.141,25.229 82.329,18.987 	"/>
	<polygon fill="#E6E6E6" points="39.175,43.956 49.988,50.199 60.799,43.956 49.987,37.714 	"/>
	<polygon fill="#E6E6E6" points="39.175,43.956 39.175,56.441 49.987,62.684 49.988,50.199 	"/>
	<polygon fill="#E6E6E6" points="60.801,43.956 60.801,56.441 49.989,62.684 49.988,50.199 	"/>
	<polygon fill="#E6E6E6" points="6.75,25.229 17.562,31.473 28.374,25.229 17.562,18.987 	"/>
</g>
<g>
	<polygon fill="#999999" points="6.758,62.684 6.758,75.17 17.57,81.412 17.57,68.928 	"/>
	<polygon fill="#999999" points="71.517,62.684 71.517,75.17 82.329,81.412 82.329,68.928 	"/>
	<polygon fill="#999999" points="39.19,81.412 39.19,93.897 50.002,100.139 50.003,87.654 	"/>
	<polygon fill="#999999" points="28.375,50.199 28.375,75.171 49.999,87.654 50,62.686 	"/>
	<polygon fill="#999999" points="6.75,37.713 6.75,50.2 50,75.171 50,62.685 	"/>
	<polygon fill="#999999" points="50.001,37.715 60.812,43.958 71.627,37.715 50.001,25.229 	"/>
	<polygon fill="#999999" points="39.176,6.501 39.176,18.987 49.988,25.229 49.989,12.744 	"/>
	<polygon fill="#999999" points="71.517,25.229 71.517,37.715 82.329,43.957 82.329,31.472 	"/>
	<polygon fill="#999999" points="6.75,25.229 6.75,37.716 17.562,43.957 17.562,31.473 	"/>
</g>
<g>
	<polygon fill="#666666" points="28.383,62.684 28.383,75.17 17.571,81.412 17.57,68.928 	"/>
	<polygon fill="#666666" points="93.142,62.684 93.142,75.17 82.331,81.412 82.329,68.928 	"/>
	<polygon fill="#666666" points="60.815,81.412 60.815,93.897 50.003,100.139 50.003,87.654 	"/>
	<polygon fill="#666666" points="71.625,50.199 71.625,75.171 50.001,87.654 50,62.686 	"/>
	<polygon fill="#666666" points="93.25,37.713 93.25,50.2 50,75.171 50,62.685 	"/>
	<polygon fill="#666666" points="49.999,37.715 39.188,43.958 28.373,37.715 49.999,25.229 	"/>
	<polygon fill="#666666" points="60.802,6.501 60.802,18.987 49.989,25.229 49.989,12.744 	"/>
	<polygon fill="#666666" points="93.142,25.229 93.142,37.715 82.331,43.957 82.329,31.472 	"/>
	<polygon fill="#666666" points="28.375,25.229 28.375,37.716 17.563,43.957 17.562,31.473 	"/>
</g>
</svg>
