<?xml version="1.0" encoding="utf-8"?>
<!-- Generator: Adobe Illustrator 16.0.0, SVG Export Plug-In . SVG Version: 6.00 Build 0)  -->
<!DOCTYPE svg PUBLIC "-//W3C//DTD SVG 1.1//EN" "http://www.w3.org/Graphics/SVG/1.1/DTD/svg11.dtd">
<svg version="1.1" id="Layer_1" xmlns="http://www.w3.org/2000/svg" xmlns:xlink="http://www.w3.org/1999/xlink" x="0px" y="0px"
	 width="100px" height="100px" viewBox="0 0 100 100" enable-background="new 0 0 100 100" xml:space="preserve">
<path d="M89.776,85.531c-0.626-0.426-1.383-0.404-2.04-0.159c-0.033,0.006-0.066,0.012-0.099,0.02
	c-0.051,0.013-0.099,0.031-0.145,0.048c1.041-2.509,1.263-5.854-1.037-8.347c-1.999-2.166-5.259-3.007-7.748-2
	c-1.349,0.546-2.461,1.771-2.838,3.119c-0.308,1.108-0.104,2.214,0.573,3.115c0.675,0.896,1.836,1.437,2.82,1.312
	c0.754-0.098,1.343-0.572,1.661-1.34c0.277-0.675,0.265-1.333-0.034-1.904c-0.305-0.58-0.889-1.024-1.624-1.24l0.003-0.003
	c0.705-1.091,1.812-1.623,3.149-1.503c1.337,0.122,2.635,0.896,3.459,1.976l0.02,0.033c-0.659-0.538-1.464-0.94-2.257-0.917
	c-0.744,0.013-1.388,0.392-1.857,1.097c-0.037,0.054-0.04,0.125-0.009,0.186c0.03,0.057,0.091,0.094,0.157,0.095
	c1.536,0.021,2.932,0.891,3.732,2.326c0.794,1.421,0.8,3.052,0.018,4.361c-1.18,1.971-3.278,3.553-5.479,4.126
	c-4.403,1.15-8.227-1.301-10.33-4.459c0.757,0.512,1.585,0.813,2.441,0.889c0.074,0.005,0.143-0.033,0.176-0.1
	c0.034-0.066,0.024-0.145-0.024-0.201c-0.493-0.56-0.937-1.191-1.303-1.856c1.619,0.945,3.642,1.134,5.333,0.456
	c0.081-0.031,0.127-0.117,0.109-0.202c-0.016-0.085-0.091-0.146-0.177-0.146h-0.001c-2.483,0.012-4.642-0.949-6.42-2.87
	c-2.775-2.997-3.902-7.552-3.863-11.135c0.045,0.178,0.089,0.33,0.125,0.422l-0.015,0.005c0.017,0.065,0.092,0.359,0.198,0.714
	c0.118,0.401,0.286,0.887,0.418,1.208c0.129,0.319,0.472,1.026,0.939,1.632c0.449,0.606,1.083,1.142,1.443,1.219
	c0.012,0.003,0.024,0.004,0.036,0.004c0.05,0,0.098-0.021,0.133-0.059c0.042-0.046,0.06-0.112,0.041-0.173
	c-0.049-0.169-0.173-0.403-0.332-0.701c-0.134-0.251-0.284-0.536-0.419-0.835c-0.237-0.51-0.433-1.05-0.552-1.373l-0.071-0.195
	c-0.219-0.539-0.539-1.646-0.567-1.765c-0.002-0.013-0.006-0.025-0.01-0.037c-0.017-0.062-0.108-0.447-0.206-0.878
	c0.83,1.314,1.969,2.54,3.262,3.233c1.261,0.676,2.553,0.781,3.732,0.303c0.989-0.401,1.824-1.369,2.077-2.404
	c0.191-0.787,0.022-1.542-0.477-2.125c-0.661-0.771-2.003-1.206-3.021-0.559c-0.474,0.302-0.803,0.906-0.8,1.471
	c0.001,0.437,0.202,0.802,0.562,1.027c0.06,0.038,0.139,0.037,0.195-0.002c0.06-0.04,0.091-0.109,0.078-0.18
	c-0.13-0.8-0.167-1.345,0.476-1.635c0.404-0.185,0.848-0.155,1.247,0.082c0.456,0.27,0.764,0.761,0.802,1.28
	c0.079,1.083-0.918,1.966-1.887,2.161c-2.43,0.488-4.989-2.152-5.958-4.09c-1.072-2.146-0.939-4.565-0.812-6.906
	c0.03-0.534,0.061-1.086,0.075-1.623c0.083-2.988-0.037-5.972-0.354-8.885c0.229,0.465,0.468,0.908,0.715,1.327
	c0.725,1.229,1.559,2.314,2.48,3.229c0.358,0.354,0.744,0.684,1.117,1.004c0.511,0.437,1.038,0.889,1.491,1.4
	c0.928,1.053,1.753,2.671,1.508,3.92c-0.126,0.642-0.529,1.135-1.199,1.466c-0.815,0.404-1.951,0.229-2.823-0.431
	c-0.755-0.574-1.116-1.382-0.97-2.164c0.089-0.461,0.349-0.836,0.716-1.026c0.33-0.172,0.715-0.172,1.087-0.002
	c0.63,0.286,0.914,1.012,0.845,2.157c-0.005,0.073,0.038,0.144,0.104,0.175c0.067,0.032,0.147,0.018,0.202-0.033
	c0.497-0.479,0.609-1.164,0.305-1.882c-0.386-0.913-1.308-1.58-2.132-1.551c-0.768,0.027-1.39,0.409-1.752,1.073
	c-0.479,0.875-0.441,2.154,0.088,3.039c0.569,0.955,1.64,1.663,2.792,1.848c1.004,0.161,1.941-0.085,2.642-0.695
	c1.351-1.171,1.381-3.003,0.726-4.471c1.426,1.13,2.976,2.097,4.713,2.941c1.22,0.595,2.788,1.727,3.326,3.757
	c0.02,0.07,0.08,0.123,0.154,0.133c0.075,0.009,0.145-0.028,0.181-0.094c0.506-0.932,0.678-1.96,0.488-2.865
	c2.304,0.133,3.654-0.492,4.021-1.858c0.228-0.848,0.059-1.803-0.478-2.689c-0.599-0.989-1.584-1.741-2.572-1.961
	c-0.072-0.017-0.147,0.014-0.188,0.074c-0.041,0.062-0.041,0.143,0.001,0.203c0.316,0.46,0.385,0.88,0.206,1.254
	c-0.411,0.852-1.985,1.33-2.972,1.4c-2.366,0.162-4.604-0.841-6.538-1.948c0.563-0.031,1.116-0.137,1.628-0.313
	c1.983-0.678,3.227-2.379,3.412-4.665c0.22-2.705-1.12-5.394-3.258-6.539c-1.41-0.755-3.694-0.947-5.15,0.188
	c-0.875,0.685-1.289,1.693-1.053,2.569c0.441,1.643,1.688,2.124,1.741,2.143c0.074,0.028,0.155,0.005,0.205-0.056
	c0.049-0.062,0.052-0.146,0.01-0.212c0,0-0.445-0.677-0.544-0.82c-0.318-0.468-0.432-0.866-0.378-1.33
	c0.131-1.146,1.208-1.717,2.218-1.776c2.41-0.137,4.012,1.87,4.521,3.925c0.424,1.713,0.213,4.044-1.776,4.976
	c-1.532,0.72-3.329,0.521-4.804-0.528c-2.845-2.027-4.403-5.794-5.643-9.168c-0.562-1.537-0.961-3.167-1.346-4.742
	c-0.354-1.454-0.722-2.956-1.22-4.395c-0.511-1.479-1.083-2.957-1.711-4.423c1.145,1.303,2.455,2.032,3.584,2.657
	c0.181,0.101,0.355,0.198,0.525,0.293c1.852,1.057,3.952,2.255,5.281,4.169c0.384,0.554,0.651,1.274,0.872,1.908
	c0.026,0.075,0.096,0.123,0.171,0.123c0.008,0,0.017-0.001,0.023-0.002c0.087-0.012,0.15-0.081,0.156-0.167
	c0.185-2.696-1.085-5.68-3.156-7.424c-0.824-0.694-3.328-2.721-5.817-3.954c1.944,0.118,3.935-0.675,4.762-2.695
	c0.887-2.17-0.124-4.646-2.254-5.516c-1.038-0.424-2.171-0.336-3.026,0.237c-0.794,0.531-1.234,1.389-1.238,2.418
	c-0.004,0.758,0.348,1.34,0.989,1.638c0.715,0.333,1.688,0.246,2.211-0.2c0.29-0.246,0.396-0.57,0.301-0.911
	c-0.018-0.065-0.069-0.116-0.137-0.129c-0.026-0.007-0.056-0.006-0.082,0.002c-0.058-0.006-0.121,0.016-0.173,0.065
	c-0.021,0.021-0.037,0.046-0.047,0.075c-0.08,0.249-0.597,0.547-1.095,0.543c-0.28-0.003-0.779-0.075-0.979-0.535
	c-0.198-0.451-0.085-0.892,0.046-1.183c0.242-0.544,0.737-1.007,1.262-1.18c0.858-0.283,1.709-0.092,2.394,0.539
	c0.877,0.81,1.3,2.162,1.027,3.288c-0.484,2.005-2.698,2.75-4.635,2.449c-2.331-0.362-3.698-2.229-4.827-4.193
	c-0.005-0.006-0.012-0.01-0.015-0.016c0.292-0.23,0.576-0.485,0.847-0.768c1.731-1.807,2.734-4.518,2.613-7.01
	c1.506,1.034,3.357,1.027,4.818-0.05c0.07-0.052,0.093-0.147,0.055-0.226c-0.039-0.079-0.129-0.118-0.213-0.094
	c-2.004,0.589-4.001-1.064-5.201-2.809l-0.343-0.501c-1.115-1.636-2.17-3.182-4.005-4.31c-3.688-2.267-8.373-3.03-12.532-2.04
	c-0.073,0.018-0.125,0.078-0.137,0.147c-1.055-1.007-2.15-2.031-3.289-3.085c-0.351-0.296-0.697-0.61-1.063-0.941
	c-1.24-1.122-2.522-2.282-4.069-2.81c-0.074-0.025-0.159,0.001-0.205,0.066c-0.046,0.064-0.045,0.152,0.004,0.215
	c0.677,0.888,1.662,1.634,2.616,2.356c0.516,0.392,1.004,0.761,1.439,1.147c1.185,1.05,2.352,2.144,3.484,3.257
	c-5.92,2.01-9.385,8.456-8.017,14.687c-0.663-0.669-1.529-1.085-2.512-1.184c-1.532-0.157-3.197,0.468-4.362,1.625
	c-0.386,0.249-0.686,0.083-1.139-0.204c-0.305-0.194-0.651-0.415-1.061-0.415c-0.097,0-0.178,0.078-0.181,0.176
	c-0.017,0.636,0.175,1.137,0.555,1.447c0.32,0.261,0.747,0.368,1.25,0.308c-0.377,1.234-0.231,2.62,0.404,3.688
	c0.598,1.006,1.567,1.646,2.73,1.8c1.246,0.164,2.338-0.432,2.784-1.522c0.225-0.549,0.388-1.394,0.109-1.967
	c-0.135-0.277-0.356-0.461-0.658-0.546c-0.067-0.02-0.138,0.002-0.184,0.054c-0.046,0.052-0.058,0.126-0.031,0.19
	c0.383,0.917,0.331,2.138-0.688,2.656c-0.975,0.496-1.763,0.166-2.252-0.197c-0.962-0.711-1.557-2.16-1.354-3.296
	c0.192-1.084,0.788-1.946,1.677-2.426c0.918-0.496,2.049-0.52,3.104-0.067c1.747,0.75,2.605,2.247,3.514,3.833
	c0.504,0.879,1.026,1.79,1.714,2.57c1.771,2.005,3.99,3.51,6.028,4.724c-0.988,0.049-1.807,0.587-2.605,1.112
	c-0.785,0.517-1.526,1.004-2.418,1.067c-0.089,0.006-0.263-0.002-0.446-0.01c-0.853-0.035-1.418-0.037-1.55,0.273
	c-0.176,0.417,0.298,0.817,0.574,0.971c0.552,0.306,1.326,0.221,1.83,0.116c-1.054,2.048-1.198,4.738,0.803,6.458
	c1.731,1.489,4.743,1.557,6.577,0.149c1.046-0.803,1.727-2.517,1.518-3.821c-0.141-0.888-0.658-1.512-1.491-1.804
	c-1.17-0.413-2.112,0.138-2.439,0.89c-0.281,0.646-0.116,1.529,0.861,2.089c0.02,0.029,0.051,0.054,0.091,0.067
	c0.072,0.1,0.089,0.204,0.05,0.32c-0.099,0.294-0.566,0.654-1.27,0.774c-0.505,0.086-1.793,0.143-2.834-1.193
	c-0.759-0.975-0.53-2.224-0.258-3.311c0.431-1.438,1.465-2.537,2.763-2.938c1.099-0.34,2.251-0.142,3.284,0.555
	c-0.611,0.131-1.217,0.458-1.424,1.067c-0.021,0.059-0.008,0.122,0.028,0.17c0.039,0.049,0.099,0.074,0.159,0.068
	c2.401-0.227,4.674,0.627,6.114,2.248c-0.965-0.332-2.229-0.348-2.922,0.549c-0.037,0.05-0.047,0.114-0.026,0.173
	c0.021,0.058,0.071,0.103,0.133,0.115c0.37,0.079,0.729,0.095,1.078,0.111c0.676,0.033,1.26,0.061,1.797,0.508
	c0.848,0.704,1.588,1.57,1.98,2.317c0.846,1.605,0.52,3.488,0.078,5.247c-0.248-0.945-0.775-1.82-1.674-2.025
	c-0.056-0.012-0.112,0.001-0.155,0.038c-0.044,0.037-0.067,0.09-0.064,0.147c0.03,0.691,0.193,1.373,0.35,2.033
	c0.272,1.138,0.528,2.213,0.153,3.328c-0.408,1.217-1.219,2.362-2.344,3.313c-2.202,1.858-5.227,2.663-7.904,2.105
	c-0.012-0.01-0.025-0.021-0.041-0.026c-3.474-1.376-7.386-1.811-11.362-1.271c0.999-0.789,1.742-1.868,2.464-2.916
	c0.208-0.301,0.412-0.6,0.621-0.886c1.281-1.766,2.273-3.655,0.853-5.51c-0.036-0.048-0.094-0.075-0.154-0.071
	c-0.059,0.004-0.113,0.037-0.144,0.087c-0.245,0.404-0.35,0.849-0.426,1.293c-0.517-3.017-2.776-6.041-5.87-6.253
	c-0.071,0-0.138,0.034-0.171,0.096c-0.034,0.062-0.028,0.138,0.015,0.194c0.272,0.362,0.623,0.637,0.993,0.881
	c-1.08-0.149-2.21-0.037-3.225,0.335c-1.32,0.484-2.11,1.399-2.564,2.968c-0.522,1.808-1.398,4.832,1.115,5.766
	c0.055,0.02,0.118,0.012,0.167-0.022c0.049-0.035,0.078-0.09,0.077-0.15c-0.003-0.37-0.101-0.716-0.22-1.049
	c0.74,0.626,1.78,0.863,2.772,0.565c0.673-0.202,2.001-1.37,1.954-2.245c-0.017-0.301-0.195-0.69-0.954-0.832
	c-0.894-0.168-1.08,0.579-1.204,1.072c-0.068,0.276-0.14,0.563-0.289,0.623c-0.085,0.036-0.265,0.03-0.639-0.196
	c-1.045-0.632-0.96-2.282-0.565-3.253c0.442-1.085,1.275-1.564,1.896-1.775c1.063-0.359,2.358-0.209,3.378,0.391
	c1.852,1.091,2.761,3.384,2.264,5.705c-0.515,2.406-2.118,4.574-4.084,5.524c-0.65,0.314-1.362,0.519-2.051,0.716
	c-0.69,0.198-1.404,0.403-2.073,0.721c-1.122,0.533-2.231,1.254-3.237,2.104c-0.005,0.004-0.009,0.006-0.013,0.009
	c0.133-0.768-0.006-1.543-0.408-2.238c-0.53-0.914-1.44-1.545-2.497-1.726c-0.077-0.016-0.151,0.022-0.189,0.09
	c-0.038,0.066-0.027,0.151,0.024,0.209c2.095,2.313,0.869,4.979-0.317,7.553c-0.182,0.395-0.36,0.782-0.523,1.163
	c-1.225,2.857-2.528,6.193-2.558,9.74c-0.016-0.005-0.034-0.007-0.05-0.012c-0.04-0.013-0.063-0.021-0.07-0.023
	c-0.023-0.005-0.047-0.007-0.07-0.005c-1.307-0.295-2.743-0.084-4.079,0.605c0.038-0.133,0.059-0.274,0.06-0.422
	c0.004-0.804-0.553-1.669-1.072-2.133c-0.792-0.706-2.137-0.92-3.203-0.511c-0.538,0.208-1.147,0.806-1.232,1.448
	c-0.04,0.292,0.012,0.714,0.482,1.06c0.756,0.554,1.242-0.034,1.632-0.508c0.247-0.297,0.5-0.605,0.795-0.646
	c0.601-0.083,1.006,0.006,1.203,0.266c0.508,0.673-0.253,2.416-0.758,3.567c-0.215,0.492-0.385,0.881-0.44,1.13
	c-1.013,4.612,4.047,8.39,7.184,10.489c-3.564-0.606-7.677,0.792-8.787,4.423c-0.696,2.279,0.119,4.857,2.026,6.415
	c1.014,0.825,2.124,1.279,3.11,1.279c0.141,0,0.28-0.009,0.417-0.028c0.695-0.097,1.438-0.562,1.806-1.134
	c0.256-0.399,0.325-0.833,0.201-1.252c-0.021-0.066-0.079-0.117-0.149-0.127c-0.074-0.009-0.14,0.023-0.177,0.083
	c-0.652,1.049-1.308,1.709-2.396,1.537c-1.178-0.188-2.405-1.045-3.202-2.236c-1.324-1.981-1.03-4.524,0.613-6.254
	c-0.343,0.859-0.503,1.927-0.235,2.805c0.209,0.688,0.66,1.18,1.306,1.424c0.062,0.023,0.129,0.012,0.179-0.029
	c0.051-0.041,0.074-0.106,0.063-0.171c-0.029-0.172-0.06-0.341-0.091-0.509c-0.258-1.414-0.48-2.635,0.463-3.853
	c0.882-1.135,2.064-1.66,3.614-1.601c2.225,0.085,4.242,1.137,6.193,2.153c0.479,0.25,0.971,0.507,1.465,0.747
	c-0.644,0.225-1.192,0.657-1.604,1.267c-0.6,0.889-0.826,2.054-0.604,3.116c0.015,0.074,0.074,0.13,0.147,0.142
	s0.146-0.021,0.185-0.086c1.314-2.234,3.807-3.841,6.42-2.391l1.758,0.877c8.146,2.809,17.253,1.598,24.997-3.325
	c5.702-3.968,8.972-9.801,10.847-15.221c-0.009,2.962,0.236,6.536,1.624,9.687c1.97,4.471,6.322,7.382,10.947,7.382
	c0.18,0,0.358-0.005,0.535-0.014c2.521-0.121,4.972-1.155,6.898-2.914c0.33-0.301,0.617-0.65,0.896-0.986
	c0.601-0.727,1.167-1.412,2.089-1.586c0.698-0.131,2.384-0.267,2.986,1.279c0.028,0.07,0.09,0.124,0.177,0.113
	c0.077-0.003,0.145-0.055,0.166-0.128C90.656,88.284,91.085,86.417,89.776,85.531z M62.724,74.327l-0.281,0.374l-0.31,0.383
	l-0.793,0.944l-0.23,0.272l0.359,0.003c0.386,0.004,0.797-0.115,1.08-0.298c-0.078,0.133-0.166,0.266-0.264,0.397
	c-0.451,0.636-1.048,1.242-1.195,1.408l-0.37,0.396c0,0-0.06,0.058-0.382,0.421c-0.113,0.133-0.5,0.553-0.845,1.086l-0.154,0.238
	l0.282,0.021c0.501,0.038,1.061-0.073,1.409-0.329c0.043-0.029,0.082-0.062,0.117-0.093c-0.144,0.247-0.383,0.543-0.686,0.799
	c-0.619,0.521-1.407,0.959-1.597,1.1c-0.425,0.278-0.473,0.327-0.474,0.324c0.004,0.005-0.079,0.039-0.474,0.38
	c-0.111,0.101-0.443,0.382-0.722,0.829l-0.144,0.229l0.27,0.03c0.271,0.029,0.573,0.039,0.869,0.007
	c0.297-0.03,0.584-0.106,0.82-0.204c0.033-0.014,0.063-0.027,0.094-0.042c-0.245,0.192-0.551,0.404-0.886,0.596
	c-0.845,0.483-1.821,0.905-2.064,1.039c-0.538,0.269-0.602,0.315-0.602,0.312c0.002,0.004-0.099,0.038-0.611,0.364
	c-0.127,0.083-0.45,0.292-0.812,0.61l-0.241,0.216l0.316,0.079c0.312,0.078,0.677,0.146,1.051,0.169
	c0.311,0.018,0.623-0.001,0.909-0.053c-0.213,0.098-0.436,0.188-0.674,0.261c-0.613,0.188-1.281,0.275-1.837,0.334l-1.184,0.126
	c-0.796,0.1-0.896,0.144-0.896,0.139c0.003,0.009-0.143-0.001-0.918,0.236c-0.152,0.05-0.49,0.159-0.902,0.36l-0.298,0.145
	l0.292,0.158c0.355,0.191,0.772,0.454,1.228,0.706c0.453,0.25,0.958,0.482,1.456,0.569c0.276,0.055,0.54,0.053,0.774,0.025
	c-0.045,0.035-0.089,0.07-0.133,0.103c-0.255,0.07-0.556,0.117-0.879,0.097c-0.45-0.021-0.93-0.162-1.376-0.335
	c-0.447-0.171-0.869-0.362-1.222-0.504c-0.352-0.144-0.633-0.236-0.767-0.277c-0.377-0.114-0.603-0.146-0.725-0.166
	c-0.124-0.018-0.15-0.017-0.15-0.018c0,0-0.034-0.006-0.168-0.015c-0.135-0.007-0.374-0.025-0.774,0.042
	c-0.083,0.016-0.216,0.041-0.385,0.092l-0.225,0.066l0.134,0.19c0.188,0.269,0.436,0.676,0.731,1.127
	c0.292,0.439,0.646,0.924,1.083,1.284c-0.053-0.027-0.106-0.056-0.159-0.086c-0.559-0.336-1.055-0.83-1.5-1.208
	c-0.439-0.384-0.837-0.645-1.008-0.738c-0.368-0.211-0.604-0.285-0.729-0.326c-0.129-0.04-0.156-0.044-0.156-0.044
	c0,0.007-0.089-0.049-0.575-0.102l-0.318-0.036l0.154,0.286c0.049,0.089,0.101,0.203,0.154,0.344
	c0.067,0.167,0.188,0.593,0.313,1.152c0.09,0.366,0.181,0.795,0.337,1.222c-0.014-0.016-0.026-0.031-0.04-0.046
	c-0.465-0.548-0.937-1.144-1.411-1.571c-0.466-0.437-0.924-0.684-1.115-0.771c-0.415-0.194-0.674-0.242-0.812-0.272
	c-0.14-0.029-0.169-0.031-0.169-0.031c0,0.005-0.091-0.032-0.545-0.048l-0.346-0.012l0.205,0.282c0.072,0.1,0.154,0.229,0.24,0.404
	c0.088,0.17,0.26,0.607,0.406,1.2c0.156,0.59,0.291,1.332,0.589,2.021c0.019,0.041,0.041,0.081,0.06,0.122
	c-0.203-0.237-0.401-0.504-0.584-0.792c-0.44-0.679-0.86-1.424-1.299-1.99c-0.429-0.573-0.874-0.946-1.062-1.087
	c-0.409-0.311-0.676-0.431-0.819-0.501c-0.146-0.069-0.177-0.077-0.177-0.078c-0.001,0.005-0.087-0.055-0.553-0.195l-0.488-0.147
	l0.305,0.414c0.083,0.113,0.178,0.265,0.264,0.478c0.087,0.194,0.229,0.703,0.274,1.39c0.06,0.683,0.04,1.529,0.18,2.357
	l0.002,0.008c-0.041-0.066-0.082-0.136-0.12-0.206c-0.448-0.814-0.8-1.732-1.177-2.46c-0.365-0.733-0.765-1.264-0.949-1.465
	c-0.391-0.445-0.682-0.631-0.835-0.735c-0.157-0.101-0.194-0.114-0.192-0.115c-0.002,0.001-0.034-0.024-0.165-0.089
	c-0.13-0.065-0.362-0.179-0.774-0.288l-0.422-0.111l0.24,0.371c0.053,0.082,0.106,0.178,0.153,0.293
	c0.044,0.11,0.107,0.308,0.129,0.583c0.025,0.273,0.009,0.621-0.048,1.011c-0.104,0.781-0.388,1.717-0.474,2.682
	c-0.016,0.203-0.017,0.408,0,0.611c-0.054-0.098-0.106-0.199-0.152-0.303c-0.375-0.832-0.483-1.797-0.624-2.588
	c-0.127-0.796-0.324-1.422-0.43-1.669c-0.221-0.544-0.424-0.815-0.53-0.964c-0.111-0.147-0.137-0.174-0.137-0.176
	c0,0.002-0.024-0.033-0.13-0.151c-0.108-0.114-0.295-0.321-0.668-0.595l-0.332-0.242l0.065,0.41c0.012,0.076,0.025,0.159,0.03,0.25
	c0.027,0.244-0.005,0.852-0.188,1.62c-0.167,0.77-0.457,1.694-0.582,2.641c-0.058,0.471-0.069,0.953,0.036,1.392
	c0.008,0.04,0.024,0.076,0.036,0.115c-0.198-0.263-0.369-0.558-0.479-0.886c-0.308-0.86-0.246-1.842-0.194-2.64
	c0.061-0.801,0.083-1.449,0.071-1.72c-0.015-0.581-0.083-0.91-0.122-1.091c-0.041-0.181-0.055-0.216-0.055-0.216
	c0,0-0.01-0.043-0.061-0.207c-0.056-0.159-0.148-0.447-0.419-0.871l-0.19-0.299l-0.114,0.34c-0.019,0.056-0.039,0.115-0.063,0.178
	c-0.082,0.233-0.377,0.769-0.896,1.371c-0.502,0.612-1.209,1.293-1.723,2.121c-0.11,0.179-0.205,0.372-0.281,0.568
	c0-0.024-0.002-0.05-0.002-0.075c0-0.891,0.42-1.77,0.702-2.507c0.303-0.737,0.45-1.379,0.469-1.651
	c0.061-0.596-0.048-0.946-0.1-1.136c-0.062-0.193-0.085-0.238-0.085-0.238c-0.002,0.001-0.008-0.037-0.088-0.206
	c-0.086-0.162-0.232-0.479-0.658-0.892c-0.111-0.109-0.326-0.298-0.64-0.494l-0.159-0.098l-0.08,0.167
	c-0.221,0.457-0.634,1.029-1.132,1.617c-0.494,0.59-1.061,1.209-1.527,1.835c-0.231,0.312-0.438,0.628-0.593,0.938
	c-0.086,0.178-0.158,0.345-0.216,0.506c-0.017-0.608,0.045-1.343,0.314-2.035c0.326-0.87,1.056-1.573,1.601-2.188
	c0.564-0.608,0.941-1.18,1.058-1.44c0.276-0.555,0.299-0.937,0.316-1.138c0.011-0.211,0.005-0.263,0.005-0.264
	c-0.002,0.001,0.005-0.038-0.013-0.231c-0.023-0.19-0.051-0.551-0.314-1.108c-0.068-0.146-0.208-0.407-0.442-0.713l-0.113-0.147
	l-0.134,0.129c-0.383,0.365-0.995,0.773-1.694,1.164c-0.609,0.346-1.276,0.692-1.891,1.067c0.01-0.093,0.018-0.183,0.021-0.267
	c0.007-0.139,0.005-0.278,0-0.421c0.579-0.49,1.281-0.84,1.861-1.171c0.772-0.419,1.349-0.851,1.558-1.068
	c0.472-0.444,0.646-0.821,0.737-1.004c0.094-0.204,0.104-0.257,0.108-0.257c0,0,0.017-0.038,0.077-0.232
	c0.052-0.195,0.164-0.56,0.135-1.209c-0.01-0.183-0.042-0.522-0.168-0.947l-0.056-0.188l-0.175,0.082
	c-0.52,0.242-1.274,0.44-2.106,0.595c-0.83,0.159-1.738,0.291-2.56,0.502c-0.594,0.146-1.129,0.358-1.552,0.6
	c-0.06-0.054-0.118-0.11-0.176-0.166c0.334-0.427,0.755-0.86,1.261-1.202c0.814-0.57,1.871-0.751,2.717-0.961
	c0.858-0.189,1.531-0.45,1.791-0.601c0.574-0.299,0.846-0.613,0.982-0.767c0.147-0.17,0.171-0.217,0.174-0.217
	c0,0,0.026-0.031,0.138-0.202c0.103-0.174,0.309-0.493,0.459-1.127c0.04-0.177,0.102-0.515,0.097-0.958l-0.001-0.194l-0.192,0.031
	c-0.566,0.092-1.347,0.076-2.188-0.003c-0.844-0.073-1.752-0.193-2.601-0.216c-0.732-0.027-1.409,0.062-1.924,0.229
	c0.477-0.394,1.084-0.794,1.775-1.035c0.934-0.339,2.001-0.244,2.874-0.229c0.878,0.037,1.593-0.042,1.883-0.119
	c0.634-0.143,0.976-0.377,1.147-0.489c0.186-0.128,0.221-0.168,0.223-0.166c0,0,0.034-0.022,0.187-0.159
	c0.144-0.143,0.425-0.396,0.733-0.972c0.084-0.16,0.23-0.47,0.339-0.899l0.049-0.189l-0.194-0.02
	c-0.569-0.058-1.321-0.271-2.114-0.563c-0.796-0.288-1.642-0.638-2.458-0.876c-0.432-0.134-0.857-0.217-1.246-0.256
	c0.515-0.136,1.096-0.237,1.69-0.233c1.008-0.013,1.992,0.415,2.817,0.72c0.823,0.324,1.525,0.496,1.823,0.53
	c0.645,0.091,1.042,0.019,1.251-0.021c0.214-0.044,0.272-0.063,0.271-0.063c0-0.002,0.042-0.006,0.236-0.071
	c0.19-0.07,0.552-0.186,1.076-0.58c0.158-0.12,0.462-0.368,0.772-0.771l0.13-0.168l-0.191-0.087c-0.539-0.248-1.184-0.7-1.838-1.232
	c-0.658-0.529-1.34-1.129-2.028-1.604c-0.254-0.178-0.511-0.335-0.762-0.466c0.432,0.077,0.887,0.188,1.334,0.346
	c0.965,0.319,1.798,0.982,2.489,1.529c0.688,0.557,1.284,0.955,1.548,1.096c0.562,0.316,0.938,0.422,1.148,0.481
	c0.22,0.059,0.263,0.06,0.265,0.063c0,0,0.037,0.009,0.243,0.045c0.2,0.025,0.566,0.092,1.216,0.033
	c0.238-0.023,0.758-0.089,1.378-0.354l0.242-0.104l-0.196-0.175c-0.466-0.415-0.946-1.035-1.406-1.718
	c-0.463-0.681-0.926-1.414-1.436-2.021c-0.167-0.202-0.341-0.388-0.516-0.553c0.335,0.171,0.674,0.367,1,0.597
	c0.844,0.564,1.468,1.427,1.989,2.14c0.513,0.72,0.979,1.265,1.196,1.471c0.457,0.456,0.79,0.658,0.977,0.771
	c0.195,0.115,0.238,0.127,0.24,0.131c-0.001,0,0.031,0.02,0.221,0.108c0.186,0.079,0.521,0.243,1.162,0.36
	c0.236,0.04,0.755,0.117,1.422,0.029l0.262-0.035l-0.142-0.221c-0.339-0.525-0.632-1.251-0.893-2.031
	c-0.214-0.631-0.42-1.293-0.663-1.905c0.392,0.416,0.854,0.867,1.325,1.327c0.722,0.705,1.443,1.457,1.927,2.155
	c0.492,0.692,0.731,1.319,0.812,1.579c0.18,0.566,0.203,0.916,0.222,1.114l0.014,0.25l0,0.255l-0.002,1.223l0.336-1.171
	c0.056-0.192,0.156-0.523,0.271-1.103c0.053-0.282,0.188-0.97,0.195-1.858c0-0.078-0.001-0.158-0.002-0.238
	c0.263,0.562,0.712,1.231,1.028,1.977c0.17,0.39,0.261,0.804,0.335,1.222c0.074,0.413,0.118,0.814,0.133,1.178
	c0.033,0.729-0.064,1.294-0.116,1.523c-0.078,0.363-0.167,0.607-0.232,0.773l-0.226,0.574l0.487-0.373
	c0.263-0.203,0.316-0.256,0.316-0.255l0.155-0.131c0.125-0.112,0.358-0.309,0.714-0.716c0.11-0.131,0.334-0.396,0.572-0.773
	c-0.046,0.177-0.096,0.423-0.127,0.726c-0.08,0.624-0.089,1.475-0.348,2.285c-0.263,0.804-0.774,1.556-1.341,1.988
	c-0.565,0.442-1.132,0.589-1.355,0.646c-0.315,0.076-0.555,0.104-0.729,0.119l-0.689,0.065l0.636,0.262
	c0.384,0.156,0.476,0.162,0.475,0.166c0,0,0.033,0.013,0.202,0.052c0.169,0.034,0.479,0.104,1.029,0.092
	c0.252-0.005,0.875-0.042,1.61-0.295c0.541-0.181,1.139-0.481,1.674-0.888c-0.248,0.22-0.51,0.46-0.613,0.55l-0.585,0.536
	l-0.609,0.527c-0.188,0.166-0.915,0.806-1.041,0.984c0.204-0.08,0.979-0.669,1.168-0.833c0.21-0.175,0.613-0.531,0.612-0.532
	c0,0,0.393-0.349,0.589-0.539c0.188-0.168,0.863-0.888,0.958-1.087c-0.021,0.014-0.05,0.034-0.082,0.059
	c0.047-0.044,0.097-0.086,0.142-0.132c0.28-0.272,0.513-0.58,0.696-0.894c-0.033,0.178-0.071,0.354-0.114,0.529
	c0-0.082-0.005-0.148-0.015-0.188c-0.033,0.124-0.089,0.471-0.225,0.794c-0.129,0.325-0.326,0.624-0.407,0.745
	c-0.166,0.268-0.575,0.723-0.579,0.72c0.004,0.004-0.439,0.446-0.688,0.647c-0.213,0.203-1.112,0.906-1.285,1.096
	c0.243-0.084,1.19-0.74,1.413-0.945c0.255-0.202,0.708-0.659,0.704-0.663c0.002,0.004,0.428-0.462,0.599-0.746
	c0.013-0.02,0.03-0.047,0.048-0.077c-0.05,0.129-0.102,0.255-0.156,0.382c-0.071,0.161-0.148,0.322-0.228,0.481
	c-0.05,0.091-0.105,0.183-0.168,0.273c-0.197,0.293-0.453,0.545-0.56,0.644c-0.113,0.109-0.291,0.258-0.446,0.371
	c-0.155,0.112-0.287,0.19-0.286,0.19c0.004,0.007-0.541,0.315-0.844,0.419c-0.136,0.056-0.469,0.184-0.812,0.27
	c-0.34,0.093-0.683,0.141-0.809,0.175c0.125,0.028,0.482,0.028,0.84-0.033c0.358-0.056,0.71-0.172,0.852-0.227
	c0.313-0.104,0.88-0.428,0.875-0.435c0-0.001,0.137-0.082,0.299-0.198c0.142-0.102,0.297-0.231,0.414-0.34
	c-0.385,0.58-0.831,1.133-1.327,1.642c-0.063,0.024-0.13,0.044-0.199,0.062c-0.532,0.15-1.125,0.146-1.603,0.097
	c-0.481-0.049-0.856-0.136-1.01-0.173c-0.664-0.17-0.741-0.217-0.742-0.213c0.001-0.002-0.032-0.009-0.151-0.052
	c0.198,0.006,0.384,0.003,0.467-0.011c0.215-0.015,0.622-0.097,0.621-0.102c0,0.005,0.414-0.101,0.613-0.19
	c0.093-0.036,0.313-0.143,0.508-0.277c0.198-0.134,0.367-0.295,0.411-0.371c-0.084,0.027-0.278,0.146-0.484,0.246
	c-0.204,0.101-0.418,0.187-0.508,0.219c-0.189,0.083-0.583,0.186-0.583,0.182c0,0.004-0.39,0.08-0.597,0.098
	c-0.075,0.014-0.237,0.028-0.417,0.044c0.092-0.023,0.184-0.049,0.277-0.085c0.487-0.177,0.958-0.512,1.321-0.88
	c0.733-0.746,1.068-1.575,0.99-1.607c-0.073-0.041-0.479,0.724-1.196,1.394c-0.357,0.334-0.794,0.629-1.231,0.781
	c-0.434,0.162-0.854,0.183-1.132,0.164l-0.775-0.045l0.687,0.363c0.129,0.068,0.229,0.116,0.293,0.146
	c0.656,0.289,0.782,0.298,0.78,0.305c0.001-0.005,0.08,0.049,0.771,0.221c0.16,0.037,0.549,0.128,1.056,0.174
	c0.37,0.033,0.809,0.039,1.247-0.033c-0.068,0.031-0.143,0.068-0.234,0.107c-0.293,0.134-0.704,0.281-1.142,0.374
	c-0.88,0.206-1.853,0.122-2.097,0.079c-0.537-0.08-0.625-0.12-0.626-0.116c0.003-0.005-0.07-0.002-0.583-0.179l-0.094-0.033
	l-0.214-0.08l-0.017,0.226c-0.015,0.202,0.004,0.617,0.284,0.981c0.27,0.365,0.734,0.608,1.182,0.702
	c0.097,0.021,0.192,0.034,0.287,0.044c-0.033,0.013-0.065,0.022-0.099,0.035c0.003-0.005,0.012-0.012,0.01-0.017
	c-0.009-0.087-0.71-0.036-1.43-0.204c-0.72-0.154-1.434-0.524-1.619-0.62l-0.47-0.253l-0.062-0.035l-0.229-0.131l-0.023,0.254
	c-0.007,0.074-0.045,0.218,0.001,0.502c0.018,0.113,0.108,0.441,0.413,0.677c0.153,0.12,0.337,0.209,0.534,0.274
	c-1.743,0.142-2.722-0.602-3.23-1.25c-0.798-1.016-0.935-2.369-0.658-3.182c0.168-0.489,0.394-0.7,0.635-0.925
	c0.286-0.266,0.61-0.567,0.816-1.329c0.121-0.449,0.081-0.839-0.119-1.16c-0.041-0.065-0.086-0.123-0.135-0.177
	c0.506,0.056,1.008,0.012,1.474-0.34c0.423-0.32,0.683-0.805,0.732-1.365c0.057-0.65-0.171-1.322-0.61-1.795
	c-1.357-1.466-4.011-0.962-5.365-0.301c-1.537,0.752-2.598,2.044-3.069,3.736c-0.588,2.115-0.167,4.648,1.101,6.609
	c2.862,4.426,8.781,4.87,12.897,3.042c4.571-2.032,7.308-6.818,6.974-12.192c-0.302-4.843-3.071-9.263-7.279-11.708
	c0.937-0.03,1.817-0.168,2.616-0.43c0.649-0.213,1.247-0.532,1.823-0.84c0.463-0.249,0.942-0.507,1.432-0.696
	c1.055-0.408,2.419-0.338,3.477,0.181c0.596,0.291,1.37,0.854,1.675,1.88c0.208,0.693-0.034,1.246-0.275,1.588
	c-0.478,0.678-1.386,1.165-2.26,1.212c-0.61,0.033-1.493-0.246-1.849-0.755c-0.179-0.256-0.201-0.545-0.066-0.859
	c0.227-0.532,0.738-0.701,1.28-0.879c0.213-0.07,0.432-0.143,0.632-0.238c0.062-0.029,0.102-0.089,0.104-0.156
	c0.002-0.068-0.034-0.132-0.092-0.166c-0.887-0.496-1.807-0.063-2.327,0.584c-0.534,0.668-0.782,1.751-0.063,2.55
	c0.523,0.581,1.251,0.905,2.107,0.936c0.044,0.003,0.087,0.003,0.132,0.003c1.023,0,2.095-0.424,2.825-1.127
	c1.064-1.021,1.264-2.491,0.505-3.744c-0.931-1.54-2.631-2.381-4.432-2.242c1.692-1.812,2.565-4.203,3.411-6.521
	c0.23-0.631,0.448-1.229,0.676-1.798c0.331-0.664,0.995-1.147,1.636-1.614c0.431-0.314,0.876-0.639,1.229-1.022
	c0.042-0.044,0.058-0.107,0.043-0.167c-0.016-0.059-0.06-0.108-0.117-0.126c-1.12-0.383-2.327,0.531-2.948,1.111
	c0.119-1.594-0.295-2.895-1.304-4.156c-1.31-1.834-1.984-4.001-2.064-6.629c-0.003-0.064-0.038-0.122-0.095-0.152
	c-0.056-0.031-0.123-0.03-0.179,0.003c-0.956,0.569-0.972,1.976-0.779,3.001c-1.958-1.594-4.17-2.889-6.314-4.145
	c-1.838-1.077-3.101-3.697-1.974-5.735c0.309-0.559,0.784-0.938,1.374-1.098c0.75-0.203,1.639-0.046,2.435,0.429
	c0.89,0.532,1.717,1.806,1.478,2.783c-0.132,0.548-0.523,0.79-0.977,1.071c-0.24,0.149-0.489,0.303-0.703,0.513
	c-0.047,0.046-0.066,0.114-0.048,0.178c0.018,0.064,0.068,0.112,0.133,0.127c0.667,0.158,1.292-0.042,1.759-0.563
	c0.635-0.709,0.893-1.946,0.585-2.815c-0.62-1.753-2.375-2.924-4.241-2.857c-1.557,0.059-2.333,0.966-2.71,1.718
	c-0.661,1.316-0.598,3.192,0.106,4.605c-0.254-0.158-0.614-0.42-1.125-0.881c-3.417-3.086-5.149-6.059-5.149-8.837
	c0-3.554,2.95-6.516,4.709-7.965c0.05-0.042,0.075-0.108,0.062-0.173s-0.059-0.118-0.122-0.139c-1.04-0.338-2.264,0.227-3.216,0.955
	c1.642-2.09,4.201-3.409,7.362-3.759c0.025-0.003,0.05-0.012,0.07-0.024c2.001,2.125,3.886,4.334,5.622,6.591
	c-0.605,0.275-1.113,0.718-1.488,1.315c-0.781,1.244-0.984,3.153-0.517,4.864c0.556,2.038,2.51,3.549,4.752,3.674
	c0.126,0.008,0.251,0.011,0.377,0.011c1.045,0,2.042-0.246,2.963-0.723c0.004,0.012,0.005,0.024,0.011,0.035
	c1.877,3.329,3.47,6.785,4.732,10.271c4.027,11.121,5.057,23.345,2.899,34.424c-0.115,0.584-0.242,1.157-0.375,1.724
	c-0.001,0-0.002-0.003-0.003-0.003c-0.088-0.005-0.151,0.642-0.419,1.271C63.265,73.567,62.838,74.173,62.724,74.327z"/>
</svg>
