<?xml version="1.0" encoding="utf-8"?>
<!-- Generator: Adobe Illustrator 16.0.0, SVG Export Plug-In . SVG Version: 6.00 Build 0)  -->
<!DOCTYPE svg PUBLIC "-//W3C//DTD SVG 1.1//EN" "http://www.w3.org/Graphics/SVG/1.1/DTD/svg11.dtd">
<svg version="1.1" id="Layer_1" xmlns="http://www.w3.org/2000/svg" xmlns:xlink="http://www.w3.org/1999/xlink" x="0px" y="0px"
	 width="100px" height="100px" viewBox="0 0 100 100" enable-background="new 0 0 100 100" xml:space="preserve">
<path fill="#231F20" d="M71.974,16.937c0-3.205-2.598-5.802-5.802-5.802c-2.9,0-5.298,2.13-5.728,4.911
	c-1.17-0.336-2.405-0.52-3.683-0.52c-0.392,0-0.78,0.021-1.162,0.054c0.111-0.759,0.243-1.409,0.399-1.919
	c1.279-0.554,2.175-1.827,2.175-3.31c0-1.992-1.615-3.606-3.608-3.606c-1.991,0-3.605,1.614-3.605,3.606
	c0,1.579,1.015,2.917,2.427,3.406c0.162,0.559,0.3,1.271,0.411,2.104c-5.935,1.348-10.366,6.653-10.366,12.996
	c0,5.908,3.845,10.916,9.168,12.665c2.829,10.671,1.02,48.126,0.164,52.319c-0.897,4.39,2.09,4.803,2.092,4.803
	c0.001,0,2.988-0.413,2.092-4.803c-0.839-4.11-2.594-40.187,0.002-51.659c2.52-0.035,4.868-0.767,6.865-2.015
	c1.053,7.413,0.183,24.873-0.248,26.982c-0.493,2.413,1.148,2.64,1.148,2.64c0.001,0,1.642-0.227,1.148-2.64
	c-0.466-2.286-1.449-22.595,0.06-28.615c2.564-2.43,4.168-5.865,4.168-9.678c0-2.381-0.628-4.615-1.722-6.55
	C70.484,21.438,71.974,19.363,71.974,16.937z"/>
<circle fill="#231F20" cx="67.896" cy="4.548" r="1.254"/>
<path fill="#231F20" d="M38.257,18.662c-2.166,0-3.921,1.755-3.921,3.921c0,1.662,1.036,3.079,2.495,3.649
	c1.534,5.935,0.544,26.388,0.076,28.684c-0.492,2.411,1.148,2.638,1.149,2.638c0,0,1.641-0.227,1.149-2.638
	c-0.465-2.277-1.442-22.436,0.041-28.544c1.685-0.439,2.931-1.967,2.931-3.79C42.177,20.417,40.422,18.662,38.257,18.662z"/>
</svg>
