<?xml version="1.0" encoding="utf-8"?>
<!-- Generator: Adobe Illustrator 16.0.0, SVG Export Plug-In . SVG Version: 6.00 Build 0)  -->
<!DOCTYPE svg PUBLIC "-//W3C//DTD SVG 1.1//EN" "http://www.w3.org/Graphics/SVG/1.1/DTD/svg11.dtd">
<svg version="1.1" id="Layer_1" xmlns="http://www.w3.org/2000/svg" xmlns:xlink="http://www.w3.org/1999/xlink" x="0px" y="0px"
	 width="100px" height="100px" viewBox="0 0 100 100" enable-background="new 0 0 100 100" xml:space="preserve">
<path fill="#636466" d="M65.729,64.852c-1.685-3.037-7.146-6.254-7.146-6.254l-31.904-1.658v1.469L39.75,64l16.98,4.17
	l11.459,19.001l4.045-6.049C72.234,81.122,67.853,68.683,65.729,64.852z"/>
<path d="M98.251,41.115L63.175,61.788v6.382c0,0-4.594-7.146-8.423-8.168c-3.828-1.021-26.543-1.531-26.543-1.531
	s8.422,3.573,13.271,4.85c4.85,1.275,13.782,2.553,15.825,4.851c2.041,2.296,11.229,18.888,11.229,18.888l-0.958,0.317
	c0,0-8.486-16.335-11.678-18.249c-3.188-1.914-20.672-3.413-25.267-4.881C26.04,62.777,3.835,57.8,1.346,45.837
	c-2.489-11.964,1.34-19.506,4.307-23.631c2.967-4.125,6.891-9.581,6.891-9.581S34.462,36.936,47,39.807
	C59.538,42.679,98.251,41.115,98.251,41.115z"/>
</svg>
