<?xml version="1.0" encoding="utf-8"?>
<!-- Generator: Adobe Illustrator 16.0.0, SVG Export Plug-In . SVG Version: 6.00 Build 0)  -->
<!DOCTYPE svg PUBLIC "-//W3C//DTD SVG 1.1//EN" "http://www.w3.org/Graphics/SVG/1.1/DTD/svg11.dtd">
<svg version="1.1" id="Layer_1" xmlns="http://www.w3.org/2000/svg" xmlns:xlink="http://www.w3.org/1999/xlink" x="0px" y="0px"
	 width="50px" height="50px" viewBox="0 0 50 50" enable-background="new 0 0 50 50" xml:space="preserve">
<g>
	<path fill="#231F20" d="M18.059,1.001C7.507,1.147-1.885,11.754,5.516,18.854c5.377,5.161,15.485-4.724,6.198-8.557
		C9.42,9.35,8.098,10.666,8.098,10.666c-1.624,0.738-2-0.595-0.894-2.808c1.108-2.213,8.863-8.627,15.355-2.208
		c6.494,6.417,3.395,22.283-2.876,29.732C13.411,42.834,8.319,46.449,6.771,47.113c-1.55,0.664-1.255,2.141,0.886,1.477
		c2.14-0.664,18.371-6.713,24.421-22.207C38.128,10.887,28.61,0.854,18.059,1.001z M42.038,17.823c-1.591,0-2.879,1.288-2.879,2.876
		c0,1.59,1.288,2.877,2.879,2.877c1.589,0,2.877-1.287,2.877-2.877C44.915,19.111,43.627,17.823,42.038,17.823z M42.038,11.625
		c1.589,0,2.877-1.287,2.877-2.878c0-1.589-1.288-2.878-2.877-2.878c-1.591,0-2.879,1.289-2.879,2.878
		C39.159,10.339,40.447,11.625,42.038,11.625z"/>
</g>
</svg>
