<?xml version="1.0" encoding="utf-8"?>
<!-- Generator: Adobe Illustrator 16.0.0, SVG Export Plug-In . SVG Version: 6.00 Build 0)  -->
<!DOCTYPE svg PUBLIC "-//W3C//DTD SVG 1.1//EN" "http://www.w3.org/Graphics/SVG/1.1/DTD/svg11.dtd">
<svg version="1.1" id="Layer_1" xmlns="http://www.w3.org/2000/svg" xmlns:xlink="http://www.w3.org/1999/xlink" x="0px" y="0px"
	 width="50px" height="50px" viewBox="0 0 50 50" enable-background="new 0 0 50 50" xml:space="preserve">
<path fill-rule="evenodd" clip-rule="evenodd" fill="#1E1E1E" d="M47.143,48.986c-2.025-1.229-3.879-2.466-5.836-3.513
	c-2.033-1.089-4.175-1.974-6.25-2.985c-4.776-2.327-9.839-3.756-15.042-4.667c-4.044-0.708-8.141-1.108-12.187-1.805
	c-8.171-1.405-15.794-4.119-22.348-9.438c-2.707-2.196-5.338-4.365-7.25-7.371c-1.653-2.598-1.541-5.141-0.732-7.904
	c1.117-3.816,3.88-6.105,7.112-7.993c2.426-1.417,4.96-2.583,7.828-2.706C-3.77,0.441,0.022,0.455,3.661,1.733
	c2.584,0.907,5.162,1.852,7.677,2.934c4.988,2.145,9.391,5.227,13.417,8.834c2.183,1.956,4.251,4.044,6.321,6.123
	c0.633,0.637,1.021,1.515,1.651,2.157c4.454,4.547,7.515,9.954,9.928,15.784c1.187,2.866,2.483,5.687,3.669,8.552
	C46.693,47.009,46.863,47.983,47.143,48.986z"/>
</svg>
