<?xml version="1.0" encoding="utf-8"?>
<!-- Generator: Adobe Illustrator 16.0.0, SVG Export Plug-In . SVG Version: 6.00 Build 0)  -->
<!DOCTYPE svg PUBLIC "-//W3C//DTD SVG 1.1//EN" "http://www.w3.org/Graphics/SVG/1.1/DTD/svg11.dtd">
<svg version="1.1" id="Layer_1" xmlns="http://www.w3.org/2000/svg" xmlns:xlink="http://www.w3.org/1999/xlink" x="0px" y="0px"
	 width="50px" height="50px" viewBox="0 0 50 50" enable-background="new 0 0 50 50" xml:space="preserve">
<path fill-rule="evenodd" clip-rule="evenodd" fill="#1E1E1E" d="M43.92,44.705c-2.273,3.205-5.494,4.608-9.174,5.035
	c-1.888,0.219-3.837,0.353-5.707,0.119c-1.347-0.167-2.611-1.001-3.909-1.545c-0.255-0.106-0.489-0.269-0.748-0.361
	c-4.044-1.452-7.563-3.876-10.929-6.418c-2.28-1.723-4.319-3.87-5.59-6.598c-0.905-1.941-2.12-3.738-3.036-5.676
	c-2.021-4.274-2.952-8.738-2.016-13.477c0.486-2.463,0.773-4.956,2.03-7.221c2.249-4.049,5.64-6.865,9.8-8.586
	c2.987-1.235,6.271-0.866,9.467-0.496c3.192,0.37,5.205,1.948,6.542,4.969c1.754,3.968,2.16,8.056,2.145,12.271
	c-0.016,4.032-0.177,8.067-0.039,12.094c0.232,6.824,3.066,12.108,9.518,15.056C42.846,44.132,43.396,44.438,43.92,44.705z"/>
</svg>
