<?xml version="1.0" encoding="utf-8"?>
<!-- Generator: Adobe Illustrator 16.0.0, SVG Export Plug-In . SVG Version: 6.00 Build 0)  -->
<!DOCTYPE svg PUBLIC "-//W3C//DTD SVG 1.1//EN" "http://www.w3.org/Graphics/SVG/1.1/DTD/svg11.dtd">
<svg version="1.1" id="Layer_1" xmlns="http://www.w3.org/2000/svg" xmlns:xlink="http://www.w3.org/1999/xlink" x="0px" y="0px"
	 width="100px" height="100px" viewBox="0 0 100 100" enable-background="new 0 0 100 100" xml:space="preserve">
<g>
	<path fill="#231F20" d="M32.541,26.51c-2.455,0-4.444,1.99-4.444,4.444c0,2.144,1.518,3.932,3.538,4.351
		c1.501,6.931,0.47,28.091-0.024,30.514c-0.532,2.602,1.239,2.847,1.24,2.847c0.001,0,1.772-0.245,1.24-2.847
		c-0.499-2.445-1.546-23.992,0.019-30.711c1.68-0.634,2.875-2.252,2.875-4.154C36.984,28.5,34.994,26.51,32.541,26.51z"/>
	<circle fill="#231F20" cx="37.493" cy="26.002" r="1.778"/>
</g>
<g>
	<circle fill="#231F20" cx="48.286" cy="13.431" r="6.222"/>
	<circle fill="#231F20" cx="55.902" cy="19.527" r="1.143"/>
	<circle fill="#231F20" cx="42.571" cy="1.623" r="1.27"/>
</g>
<g>
	<path fill="#231F20" d="M65.429,27.653c0-2.454-1.99-4.445-4.446-4.445c-1.246,0-2.369,0.515-3.176,1.34
		c-1.864-1.321-4.142-2.101-6.601-2.101c-6.312,0-11.428,5.117-11.428,11.428c0,5.597,4.023,10.25,9.334,11.231
		c2.797,9.748,1.053,45.962,0.232,49.978c-0.852,4.171,1.986,4.563,1.987,4.563c0.002,0,2.84-0.393,1.988-4.563
		c-0.823-4.023-2.57-40.355,0.245-50.027c5.181-1.088,9.069-5.681,9.069-11.183c0-0.693-0.066-1.371-0.184-2.031
		C64.182,31.236,65.429,29.592,65.429,27.653z"/>
	<path fill="#231F20" d="M69.964,37.43c0-1.403-1.138-2.54-2.541-2.54c-1.402,0-2.54,1.137-2.54,2.54
		c0,1.099,0.701,2.032,1.678,2.385c1.054,5.423,0.298,20.861-0.068,22.653c-0.4,1.953,0.931,2.135,0.931,2.135
		c0.001,0,1.329-0.182,0.932-2.135c-0.366-1.792-1.123-17.229-0.068-22.653C69.264,39.461,69.964,38.529,69.964,37.43z"/>
</g>
</svg>
