<?xml version="1.0" encoding="utf-8"?>
<!-- Generator: Adobe Illustrator 16.0.0, SVG Export Plug-In . SVG Version: 6.00 Build 0)  -->
<!DOCTYPE svg PUBLIC "-//W3C//DTD SVG 1.1//EN" "http://www.w3.org/Graphics/SVG/1.1/DTD/svg11.dtd">
<svg version="1.1" id="Layer_1" xmlns="http://www.w3.org/2000/svg" xmlns:xlink="http://www.w3.org/1999/xlink" x="0px" y="0px"
	 width="50px" height="50px" viewBox="0 0 50 50" enable-background="new 0 0 50 50" xml:space="preserve">
<g id="XMLID_1_">
	<path fill="#1E1E1E" d="M-11.78,65.92c-0.76-0.52-1.51-1.04-2.239-1.6c-1.931-1.471-3.971-2.84-5.69-4.53
		c-1.98-1.93-3.91-3.96-5.2-6.5c-1.39-2.72-3.08-5.3-4.359-8.07c-1.94-4.21-2.57-8.779-3.08-13.35c-0.58-5.23-0.12-10.36,1.51-15.37
		c0.8-2.45,1.88-4.7,3.54-6.74C-24.11,5.86-19.83,3.66-15.32,1.9c2.73-1.061,5.7-1.53,8.5-2.44c6.75-2.19,13.73-3.35,20.66-4.7
		c8.38-1.63,16.141-4.68,23.33-9.26c2.34-1.49,4.78-2.75,7.64-2.9c1.9-0.1,3.73,0.16,5.03,1.69c2.54,3.01,4.351,6.4,4.771,10.39
		C55.3,1.39,53.73,7.7,51.11,13.81c-0.301,0.681-0.761,1.32-1.261,1.881c-3.22,3.6-7.34,5.529-12.02,6.43
		c-1.561,0.3-3.09,0.76-4.66,0.95c-3.27,0.39-6.56,0.899-9.84,0.88c-3.01-0.021-6.021-0.69-9.03-1.05
		c-4.08-0.48-8.16-0.891-12.229-1.44c-2.99-0.4-5.971-0.42-8.721,0.8c-4.05,1.79-6.869,4.91-8.239,9.15
		c-1.98,6.14-2.98,12.43-1.86,18.88c0.63,3.67,0.45,7.53,2.28,10.95c0.729,1.37,1.689,3.01,2.47,4.35
		C-11.94,65.71-11.86,65.82-11.78,65.92z"/>
</g>
</svg>
