<?xml version="1.0" encoding="utf-8"?>
<!-- Generator: Adobe Illustrator 16.0.0, SVG Export Plug-In . SVG Version: 6.00 Build 0)  -->
<!DOCTYPE svg PUBLIC "-//W3C//DTD SVG 1.1//EN" "http://www.w3.org/Graphics/SVG/1.1/DTD/svg11.dtd">
<svg version="1.1" id="Layer_1" xmlns="http://www.w3.org/2000/svg" xmlns:xlink="http://www.w3.org/1999/xlink" x="0px" y="0px"
	 width="100px" height="100px" viewBox="0 0 100 100" enable-background="new 0 0 100 100" xml:space="preserve">
<path fill-rule="evenodd" clip-rule="evenodd" d="M46.515,41.936c0.036,0.265,0.036,0.2,0,0.466
	C46.923,42.495,46.818,41.875,46.515,41.936z"/>
<g>
	<path fill-rule="evenodd" clip-rule="evenodd" d="M55.768,49.456c0.236-0.113,0.377-0.221,0.266-0.532
		C55.592,48.803,55.398,49.342,55.768,49.456z"/>
	<path fill-rule="evenodd" clip-rule="evenodd" d="M54.303,47.592c-0.141,0.452,0.391,1.015,0.998,0.732
		C56.008,47.367,54.533,46.84,54.303,47.592z"/>
	<path fill-rule="evenodd" clip-rule="evenodd" d="M40.791,19.571c0.369-0.405-0.184-0.7-0.533-0.399c0,0.111,0,0.221,0,0.333
		C40.355,19.607,40.599,19.563,40.791,19.571z"/>
	<path fill-rule="evenodd" clip-rule="evenodd" d="M38.793,20.503c-0.365-0.033-0.627,0.038-0.599,0.399
		c0.186,0.059,0.329,0.159,0.533,0.2C39.037,20.996,38.991,20.715,38.793,20.503z"/>
	<path fill-rule="evenodd" clip-rule="evenodd" d="M33.336,57.977c0.179-0.047,0.129,0.137,0.2,0.199
		c0.328-0.005,0.536-0.131,0.799-0.199C34.884,57.233,33.072,56.484,33.336,57.977z"/>
	<path fill-rule="evenodd" clip-rule="evenodd" d="M32.205,17.974c0.834-1.093-1.337-1.677-1.197-0.465
		C31.056,17.937,31.611,18.167,32.205,17.974z"/>
	<path fill-rule="evenodd" clip-rule="evenodd" d="M30.208,54.981c-0.011,0.165,0.104,0.205,0.133,0.332
		c0.403,0.052,0.548-0.244,0.332-0.466C30.442,54.904,30.421,54.846,30.208,54.981z"/>
	<path fill-rule="evenodd" clip-rule="evenodd" d="M60.492,51.188c2.123,2.218,4.766,4.719,7.721,5.524
		c3.061,0.834,6.381-0.799,5.393-4.395c-0.391-1.414-1.283-2.781-2.064-3.926c-2.488-3.644-5.686-6.469-8.119-9.984
		c-2.578-3.195-5.088-7.024-7.123-10.982c-0.986-1.92-1.988-4.088-1.33-6.589c1.32,1.052,2.084,2.662,4.459,2.662
		c0.502-0.991-0.521-1.764-0.467-2.929c-1.432-4.756-1.074-10.597,0.268-15.042c0.395-1.306,1.143-2.436,1.33-3.727
		c-0.527,0.794-0.758,1.683-1.197,2.795c-1.551,3.912-2.289,10.358-1.398,14.776c0.262,1.293,0.902,2.457,0.932,3.661
		c-0.916-0.235-1.473-0.527-2.195-1.131c-0.545-0.454-1.258-1.941-2.064-1.864c-0.961,0.092-0.969,2.228-0.865,3.062
		c0.066,0.534,0.283,1.157,0.4,1.73c0.494,2.44,1.318,4.596,2.195,6.457c0.711,1.506,1.58,3.031,2.463,4.326
		c1.209,1.769,2.441,3.746,3.594,5.391c2.043,2.919,4.561,6.069,6.457,9.252c0.318,0.536,0.801,1.071,0.664,1.596
		c-0.086,0.342-0.553,0.582-0.865,0.601c-0.637,0.037-1.566-0.719-2.195-1.198c-2.053-1.571-3.498-3.395-4.99-5.325
		c-3.004-3.876-5.672-8.211-8.521-12.047c-0.986-1.329-1.971-2.669-3.061-3.794c-2.219-2.291-4.875-4.442-8.454-5.325
		c-0.034-0.736-0.639-1.313-1.064-1.863c0.425-0.204,0.764-0.399,0.799-0.865c0.102-1.384-1.958-1.506-2.397-0.266
		c-2.401-1.244-5.868,0.743-4.992,3.594c-3.755,1.28-4.907,5.936-3.727,9.718c-0.256,0.307-0.147,0.612-0.333,0.931
		c-0.529,0.91-2.097,1.302-1.531,2.529c0.622,0.256,1.143-0.077,1.664,0.133c0.143,1.897-1.185,3.284-2.196,4.459
		c-1.617,1.878-3.465,3.559-5.657,4.726c-1.318,0.7-2.931,1.225-3.461,2.595c1.128,0.847,2.681-0.407,3.595-1.131
		c2.201-1.745,4.278-4.261,6.522-5.857c0.487-0.347,1.22-0.93,1.931-0.532c-0.225,1.034-2.11,1.109-2.064,2.395
		c0.014,0.407,0.488,0.826,1.131,0.6c0.966-0.339,1.736-2.173,3.062-2.197c0.254,0.392,0.491,0.772,0.666,1.198
		c0.744,1.82,1.645,3.442,2.528,4.86c0.864,1.384,1.58,3.007,2.596,4.458c-0.684,0.271-1.41,0.499-1.863,0.999
		c-0.449-0.345-0.59-0.752-1.132-0.799c-0.8-0.069-1.625,1.028-1.398,1.73c0.161,0.495,0.761,0.585,1.266,0.865
		c-0.986,1.982-0.893,5.777,0.999,6.989c-0.371,0.649-0.752,1.289-1.065,1.996c1.989,1.482,3.766,3.229,5.325,5.325
		c0.395,0.53,0.697,1.129,0.998,1.797c0.285,0.635,0.694,1.322,0.866,1.93c1.184,4.189-0.226,9.357-1.797,12.713
		c-0.266,0.568-0.841,1.265-0.732,1.73c0.128,0.547,1.757,1.013,2.33,1.265c0.954,0.422,1.865,0.771,2.729,0.866
		c2.362-3.783,5.877-6.77,9.517-9.053c0.201,2.174-1.094,3.877-0.465,6.058c0.229,0.103,0.584,0.206,0.865,0.065
		c0.469-1.271,0.379-2.991,0.73-4.394c0.346-1.368,0.885-2.937,2.131-3.326c0.525,2.018-0.066,4.624-0.066,7.188
		c0,3.104,0.264,6.495,1.33,8.653c0.359,0.725,0.746,1.492,1.732,1.331c0.312-0.96-0.133-2.052-0.467-2.796
		c-0.807-1.804-1.4-3.533-1.598-5.99c-0.273-3.429,0.375-7.34,1.996-8.853c0.279,0.042,0.545,0.236,0.865,0.133
		c0.559-0.18,0.438-0.836,0.666-1.53c0.211-0.644,0.592-1.017,0.799-1.332c1.85-0.502,3.395-1.309,5.393-1.664
		c0.35-1.718,0.797-3.22,1.529-4.592c0.41-0.769,0.988-1.504,1.133-2.396c-1.635,0.059-2.924,0.609-4.926,0.731
		c1.207-3.112-1.482-5.935-2.795-7.787c-1.207-1.703-2.205-3.199-3.395-4.792c-0.736-0.986-1.521-1.933-2.264-2.929
		c-1.502-2.019-2.885-4.123-4.393-5.991c0.771-0.617,0.484-2.259-0.533-2.396c0.514-0.04,1.062-1.87,1.465-1.864
		c-0.016,0,0.535,0.646,0.732,0.866c0.846,0.949,1.508,1.86,2.264,2.729C58.391,48.982,59.494,50.143,60.492,51.188z"/>
</g>
<path fill-rule="evenodd" clip-rule="evenodd" fill="#808080" d="M54.635,52.252c0.389,0.116,0.994,1.123,1.398,1.664
	c1.268,1.701,2.701,3.78,3.926,5.258c0.938,1.129,1.613,2.445,2.463,3.661c0.951,1.357,2.219,3.193,2.264,5.259
	c-0.303,0.701-1.434,0.574-2.729,0.665c-1.73,0.12-3.211,0.111-5.125,0.133c2.291,0.377,4.473,0.187,6.59,0.466
	c0.072,0.35-0.02,0.444-0.068,0.8c-1.152,0.77-2.17,0.652-3.926,0.864c3.16,0.521,6.754-0.239,9.852-0.399
	c-0.914,1.173-1.426,2.748-1.932,4.326c-9.605,2.753-17.592,7.7-22.962,14.909c-0.97-0.384-2.026-0.681-3.062-0.998
	c1.838-3.58,3.234-8,2.396-12.714c0.949,0.294,1.745,0.741,2.663,1.065c-0.264-0.415-0.864-0.685-1.465-0.998
	c-0.524-0.273-1.421-0.439-1.398-1.197c2.749,1.375,5.405,2.818,8.188,3.992c-1.153-0.849-2.596-1.507-4.127-2.328
	c-0.622-0.335-1.329-0.817-2.062-1.198c-0.633-0.329-1.688-0.596-2.13-1.065c-0.2-0.212-0.368-0.8-0.533-1.198
	c-0.758-1.837-1.951-3.729-3.261-5.059c-0.544-0.552-0.994-1.163-1.597-1.729c-0.168-0.158-0.899-0.483-0.932-0.732
	c0.002,0.017,0.688-1.384,0.732-1.465c0.203-0.372,0.579-0.657,0.599-0.998c3.795,1.663,7.406,3.863,12.181,4.326
	c-1.051-0.357-2.683-0.782-3.729-1.131c0.556-0.239,0.795-0.938,0.601-1.731c2.168,0.455,3.8,0.777,6.255,0.865
	c-2.855-0.622-5.454-1.104-8.186-1.863c-0.191-1.559-0.986-2.776-1.665-4.061c-0.29-0.549-0.775-1.053-0.599-1.464
	c0.116-0.271,1.708-1.254,2.063-1.464c2.309-1.368,4.765-2.324,6.789-3.462C52.738,52.896,53.734,51.982,54.635,52.252z"/>
<path fill-rule="evenodd" clip-rule="evenodd" d="M53.971,51.32c-0.211,0.453-0.814,0.719-1.332,0.997
	c-0.963,0.52-1.891,0.918-2.996,1.532c-0.413,0.229-1.11,0.814-1.464,0.798c-0.914-0.041-0.766-1.448-0.866-2.396
	c1.255-1.009,2.702-1.824,4.062-2.729c0.273,0.024,0.984,0.044,1.33-0.067C53.094,50.069,53.824,50.685,53.971,51.32z"/>
<path fill-rule="evenodd" clip-rule="evenodd" fill="#4D4D4D" d="M54.502,42.867c-1.734-2.036-3.359-4.372-5.192-6.455
	c-0.56-0.636-1.126-1.297-2.129-1.198c-0.823,0.081-0.841,0.609-0.933,1.53c-0.396-0.769-0.505-1.722-0.332-3.061
	c1.247-1.352,2.915,0.567,3.993,1.198c-0.707-0.786-3.686-3.402-4.593-1.598c-0.206,0.41-0.105,1.375-0.066,1.797
	c0.149,1.603,0.936,2.961,1.531,4.392c1.246,2.999,3.562,6.152,4.992,8.719c-0.878,1.37-2.258,1.953-3.661,2.863
	c-0.41,0.267-1.177,0.655-1.331,0.999c-0.324,0.719,0.545,2.285,0.199,3.128c-0.215,0.521-1.514,0.974-2.13,1.265
	c-0.504,0.237-1.82,0.981-2.462,0.798c-0.488-0.14-1.2-1.619-1.598-2.129c-1.655-2.126-2.979-4.405-4.526-6.524
	c-1.087-2.232-2.439-4.316-3.461-6.789c-1.595-3.858-3.035-8.259-1.864-12.379c2.889,0.852,5.264,2.45,7.987,3.261
	c-1.8-0.988-3.883-1.896-5.924-2.862c-0.464-0.22-1.801-0.681-1.73-0.998c0.106-0.468,0.916,0.077,1.199,0.199
	c1.356,0.587,2.739,1.081,3.993,1.664c-0.144-0.336-0.571-0.439-0.865-0.6c-1.217-0.656-2.689-1.157-3.927-1.997
	c1.889-1.914,4.717-3.162,8.188-2.663c2.046,0.295,4.161,1.158,5.724,2.13c1.58,0.984,2.934,2.253,4.192,3.661
	c2.423,2.708,4.673,6.023,6.658,9.186c0.672,1.072,1.514,2.029,2.195,3.061c0.367,0.557,0.699,1.089,1.064,1.598
	c0.367,0.51,0.818,0.901,1.199,1.397c0.328,0.432,0.496,0.923,0.797,1.331c0.83,1.118,2.148,2.026,2.996,3.195
	c1.357,1.065,3.334,2.702,5.324,2.795c0.613,0.029,1.279-0.144,1.531-0.665c-0.551-0.052-0.934,0.277-1.73,0.133
	c0.176-0.399,0.67-0.624,0.6-1.531c-0.043-0.555-0.314-1.216-0.533-1.664c-0.627-1.282-1.73-2.295-2.596-3.528
	c-0.818-1.169-1.711-2.336-2.529-3.593c-0.82-1.263-1.615-2.539-2.463-3.661c-0.945-1.252-1.756-2.479-2.596-3.528
	c-0.492-1.048-1.227-2.174-1.93-3.395c-0.943-1.638-1.91-3.5-2.396-5.458c2.41,5.32,5.744,9.891,9.451,14.443
	c1.357,1.666,2.771,3.571,4.328,5.325c0.73,0.824,1.535,1.68,2.129,2.663c0.869,1.438,2.074,2.889,1.797,5.059
	c-0.076,0.586-1.213,1.659-2.131,1.797c-1.932,0.291-3.723-0.692-4.99-1.464c-0.92-0.559-1.768-1.346-2.598-2.063
	C60.094,49.83,57.354,46.216,54.502,42.867z"/>
<path fill-rule="evenodd" clip-rule="evenodd" d="M44.851,44.664c0.331,0.069,0.815,0.336,0.932,0.4
	C45.578,44.652,45.048,44.412,44.851,44.664z"/>
</svg>
