<?xml version="1.0" encoding="utf-8"?>
<!-- Generator: Adobe Illustrator 16.0.0, SVG Export Plug-In . SVG Version: 6.00 Build 0)  -->
<!DOCTYPE svg PUBLIC "-//W3C//DTD SVG 1.1//EN" "http://www.w3.org/Graphics/SVG/1.1/DTD/svg11.dtd">
<svg version="1.1" id="Layer_1" xmlns="http://www.w3.org/2000/svg" xmlns:xlink="http://www.w3.org/1999/xlink" x="0px" y="0px"
	 width="50px" height="50px" viewBox="0 0 50 50" enable-background="new 0 0 50 50" xml:space="preserve">
<path fill-rule="evenodd" clip-rule="evenodd" fill="#1E1E1E" d="M16.178,103.469c-0.351-0.646-0.702-1.292-1.05-1.94
	c-1.318-2.455-2.676-4.891-3.944-7.372c-2.122-4.153-4.296-8.287-6.242-12.523c-1.643-3.578-2.903-7.33-4.491-10.937
	c-2.548-5.787-3.734-11.964-5.174-18.048c-1.09-4.604-1.705-9.335-2.311-14.037c-0.597-4.628-1.043-9.283-1.327-13.941
	C-8.666,19.65-9.103,14.587-8.771,9.589c0.509-7.667,2.403-15.108,4.802-22.431c1.379-4.208,3.258-8.144,5.35-12.001
	c2.927-5.401,6.399-10.414,11-14.55c2.279-2.049,4.456-4.296,7.013-5.933c3.545-2.27,7.24-4.499,11.167-5.935
	c6.051-2.214,12.365-2.458,18.773-1.023c3.683,0.824,7.17,1.89,10.246,4.083c3.132,2.231,5.758,4.9,7.283,8.532
	c0.754,1.793,1.809,3.469,2.46,5.293c0.384,1.073,0.287,2.332,0.328,3.51c0.205,5.868-2.594,10.693-5.556,15.396
	c-2.532,4.022-5.549,7.679-9.019,10.968c-3.844,3.643-7.448,7.543-11.365,11.103c-3.983,3.621-8.173,7.024-12.364,10.408
	c-3.129,2.526-6.013,5.296-8.376,8.516c-1.69,2.303-2.968,4.912-4.369,7.418c-0.893,1.598-1.835,3.198-2.47,4.904
	c-1.166,3.136-2.312,6.303-3.12,9.543c-1.205,4.836-2.358,9.712-3.056,14.638c-0.465,3.286-0.361,6.716-0.045,10.036
	c0.479,5.035,1.087,10.092,2.153,15.029c1.149,5.327,2.889,10.527,4.368,15.784c0.041,0.145,0.049,0.298,0.072,0.446
	C16.395,103.373,16.286,103.421,16.178,103.469z"/>
</svg>
