<?xml version="1.0" encoding="utf-8"?>
<!-- Generator: Adobe Illustrator 16.0.0, SVG Export Plug-In . SVG Version: 6.00 Build 0)  -->
<!DOCTYPE svg PUBLIC "-//W3C//DTD SVG 1.1//EN" "http://www.w3.org/Graphics/SVG/1.1/DTD/svg11.dtd">
<svg version="1.1" id="Layer_1" xmlns="http://www.w3.org/2000/svg" xmlns:xlink="http://www.w3.org/1999/xlink" x="0px" y="0px"
	 width="50px" height="50px" viewBox="0 0 50 50" enable-background="new 0 0 50 50" xml:space="preserve">
<g>
	<polygon fill="#231F20" points="38.886,27.765 36.232,25.113 38.886,22.461 41.255,24.83 49.613,24.83 38.75,13.968 27.605,25.113 
		38.75,36.257 49.355,25.651 40.999,25.651 	"/>
	<polygon fill="#231F20" points="22.191,24.91 11.25,13.968 0.388,24.83 7.967,24.83 10.53,22.266 13.375,25.113 10.53,27.956 
		8.225,25.651 0.643,25.651 11.25,36.257 22.191,25.315 21.989,25.113 	"/>
	
		<rect x="22.048" y="24.969" transform="matrix(0.7071 -0.7071 0.7071 0.7071 -11.2575 23.047)" fill="#231F20" width="0.287" height="0.286"/>
	<polygon fill="#231F20" points="25.217,50.149 36.232,39.132 25.089,27.989 13.945,39.132 24.395,49.581 24.395,41.882 
		21.929,39.417 24.805,36.54 27.68,39.417 25.217,41.882 	"/>
	<polygon fill="#231F20" points="36.232,11.181 25.217,0.166 25.217,8.343 27.68,10.807 24.805,13.685 21.929,10.807 24.395,8.343 
		24.395,0.733 13.945,11.181 25.089,22.326 	"/>
	<path fill="#231F20" d="M24.805,13.685L13.378,25.113L24.805,36.54l11.427-11.427L24.805,13.685z M24.798,27.921l-2.81-2.808
		l2.81-2.809l2.807,2.809L24.798,27.921z"/>
</g>
</svg>
