<?xml version="1.0" encoding="utf-8"?>
<!-- Generator: Adobe Illustrator 16.0.0, SVG Export Plug-In . SVG Version: 6.00 Build 0)  -->
<!DOCTYPE svg PUBLIC "-//W3C//DTD SVG 1.1//EN" "http://www.w3.org/Graphics/SVG/1.1/DTD/svg11.dtd">
<svg version="1.1" id="Layer_1" xmlns="http://www.w3.org/2000/svg" xmlns:xlink="http://www.w3.org/1999/xlink" x="0px" y="0px"
	 width="50px" height="50px" viewBox="0 0 50 50" enable-background="new 0 0 50 50" xml:space="preserve">
<g>
	<polygon fill="#231F20" points="36.723,15.357 21.973,0.078 12.783,9.436 27.727,24.599 	"/>
	<polygon fill="#231F20" points="24.955,2.833 34.839,13.01 38.232,9.864 28.202,-0.078 	"/>
	<polygon fill="#231F20" points="37.129,34.541 40.191,37.771 49.863,27.984 46.729,24.708 	"/>
	<polygon fill="#231F20" points="49.696,21.392 40.329,12.248 25.433,27.476 34.928,36.418 	"/>
	<polygon fill="#231F20" points="10.085,12.113 0.137,22.181 2.632,24.708 12.783,15.029 	"/>
	<polygon fill="#231F20" points="15.428,37.168 12.783,40.105 22.073,50.078 24.636,46.857 	"/>
	<polygon fill="#231F20" points="13.581,34.882 27.798,49.869 37.645,39.886 22.96,25.467 	"/>
	<polygon fill="#231F20" points="25.099,22.311 15.248,12.51 0.274,27.781 10.016,37.771 	"/>
</g>
</svg>
