<?xml version="1.0" encoding="utf-8"?>
<!-- Generator: Adobe Illustrator 16.0.0, SVG Export Plug-In . SVG Version: 6.00 Build 0)  -->
<!DOCTYPE svg PUBLIC "-//W3C//DTD SVG 1.1//EN" "http://www.w3.org/Graphics/SVG/1.1/DTD/svg11.dtd">
<svg version="1.1" id="Layer_1" xmlns="http://www.w3.org/2000/svg" xmlns:xlink="http://www.w3.org/1999/xlink" x="0px" y="0px"
	 width="50px" height="50px" viewBox="0 0 50 50" enable-background="new 0 0 50 50" xml:space="preserve">
<path fill="#231F20" d="M45.659,29.981h-0.801c0.326-0.758,0.506-1.592,0.506-2.467c0-3.498-2.886-6.335-6.449-6.335
	c-1.478,0-2.837,0.489-3.925,1.31c0-0.014,0.001-0.027,0.001-0.042c0-5.467-4.432-9.899-9.899-9.899
	c-5.466,0-9.899,4.432-9.899,9.899c0,0.014,0.002,0.028,0.002,0.042c-1.088-0.82-2.449-1.31-3.925-1.31
	c-3.562,0-6.451,2.838-6.451,6.335c0,0.875,0.181,1.709,0.507,2.467H4.525c-1.894,0-3.428,1.535-3.428,3.428
	s1.534,3.428,3.428,3.428h41.134c1.894,0,3.428-1.535,3.428-3.428S47.553,29.981,45.659,29.981z"/>
</svg>
