<?xml version="1.0" encoding="utf-8"?>
<!-- Generator: Adobe Illustrator 16.0.0, SVG Export Plug-In . SVG Version: 6.00 Build 0)  -->
<!DOCTYPE svg PUBLIC "-//W3C//DTD SVG 1.1//EN" "http://www.w3.org/Graphics/SVG/1.1/DTD/svg11.dtd">
<svg version="1.1" id="Layer_1" xmlns="http://www.w3.org/2000/svg" xmlns:xlink="http://www.w3.org/1999/xlink" x="0px" y="0px"
	 width="50px" height="50px" viewBox="0 0 50 50" enable-background="new 0 0 50 50" xml:space="preserve">
<path fill="#231F20" d="M28.512,2.589c-0.326,0.179-0.58,0.365-0.804,0.56c-0.359,0.099-0.677,0.212-0.983,0.349
	c-0.436,0.197-0.874,0.429-1.337,0.847c-0.456,0.407-0.943,1.093-1.056,2.067c-0.045,0.414-0.041,0.777-0.013,1.101
	c-0.193,0.292-0.31,0.577-0.378,0.875c-0.069,0.332-0.067,0.693,0.051,1.09c-0.024,0.06-0.049,0.121-0.073,0.184
	c-0.232,0.351-0.457,0.717-0.7,1.189c-0.259,0.514-0.557,1.146-0.779,2.077c-0.215,0.933-0.186,1.711-0.021,2.33
	c0.168,0.62,0.451,1.077,0.788,1.449c0.17,0.187,0.355,0.353,0.563,0.509c0.199,0.148,0.414,0.295,0.652,0.448
	c0.226,0.148,0.478,0.298,0.752,0.469c-0.463,0.501-0.768,0.944-0.928,1.365c-0.186,0.456-0.148,0.885-0.018,1.249
	c0.133,0.369,0.342,0.703,0.633,1.085c0.288,0.389,0.69,0.801,1.105,1.442c0.057,0.088,0.11,0.174,0.161,0.258
	c-0.044,0.073-0.088,0.147-0.133,0.226c-0.658,1.235-0.793,1.968-0.888,2.66c-0.039,0.062-0.078,0.124-0.116,0.187
	c-0.346,0.591-0.729,1.175-1.188,2.479c-0.461,1.308-0.509,2.735-0.273,4.427c0.108,0.851,0.285,1.773,0.45,2.828
	c-0.169,0.244-0.343,0.493-0.519,0.75c-0.337,0.333-0.706,0.671-1.121,1.007c-0.813,0.64-1.84,1.314-3.182,1.503
	c1.341-0.188,2.376-0.845,3.211-1.465c0.308-0.234,0.593-0.47,0.859-0.704c-0.137,0.205-0.276,0.416-0.416,0.633
	c-0.063,0.052-0.127,0.104-0.19,0.156c-0.608,0.51-1.265,1.033-1.909,1.691c-0.082,0.062-0.164,0.127-0.248,0.192
	c-0.778-0.003-1.62-0.121-2.512-0.289c0.879,0.165,1.704,0.293,2.476,0.318c-0.018,0.014-0.035,0.027-0.053,0.041
	c-0.364,0.298-0.761,0.604-1.1,1.016c-0.337,0.407-0.607,0.918-0.718,1.501c-0.085,0.423-0.09,0.863-0.042,1.318
	c-0.919,0.526-1.977,1.036-3.2,1.518c1.214-0.476,2.274-0.959,3.208-1.451c0.063,0.551,0.203,1.126,0.372,1.723
	c-1.438,1.157-3.271,2.334-5.683,3.471c2.386-1.124,4.236-2.23,5.727-3.318c0.045,0.153,0.091,0.308,0.138,0.463
	c-0.047-0.156-0.093-0.311-0.137-0.464c0.513-0.375,0.982-0.747,1.417-1.117c0.005-0.004,0.011-0.009,0.016-0.014
	c-0.188,0.301-0.365,0.625-0.52,0.979c-0.237,0.553-0.342,1.198-0.283,1.871c0.054,0.676,0.251,1.37,0.494,2.093
	c-0.243-0.723-0.436-1.419-0.48-2.094c-0.05-0.672,0.066-1.312,0.314-1.852c0.152-0.327,0.325-0.628,0.511-0.906
	c-0.001,0.005-0.001,0.01-0.002,0.014c-0.04,0.637,0.312,1.261,0.803,1.746c0.966,0.965,2.361,1.598,3.889,2.361
	c-1.526-0.765-2.922-1.402-3.88-2.369c-0.487-0.487-0.831-1.11-0.786-1.736c0.001-0.02,0.002-0.038,0.005-0.058
	c0.041-0.062,0.083-0.122,0.125-0.182c0.087,0.491,0.213,1,0.319,1.539c-0.106-0.541-0.231-1.055-0.312-1.548
	c0.018-0.025,0.035-0.051,0.054-0.075c0.098-0.086,0.192-0.171,0.286-0.256c0.043,0.086,0.091,0.171,0.144,0.254
	c0.038,0.063,0.079,0.127,0.122,0.189c0.066,0.35,0.147,0.708,0.241,1.074c-0.094-0.365-0.175-0.723-0.24-1.073
	c0.324,0.476,0.758,0.906,1.186,1.383c-0.435-0.483-0.871-0.923-1.19-1.409c-0.036-0.194-0.067-0.385-0.093-0.573
	c0.19-0.178,0.374-0.354,0.551-0.53c0.147,0.069,0.298,0.137,0.45,0.203c-0.002,0.061-0.004,0.121-0.005,0.182
	c-0.004,0.533,0.033,1.101,0.206,1.673c0.086,0.283,0.213,0.566,0.396,0.824c0.179,0.257,0.421,0.493,0.731,0.621
	c0.634,0.272,1.383,0.064,2.05-0.253c0.683-0.324,1.335-0.791,2.043-1.266c-0.708,0.475-1.361,0.94-2.044,1.263
	c-0.668,0.315-1.417,0.52-2.044,0.245c-0.308-0.13-0.546-0.365-0.722-0.621c-0.18-0.257-0.303-0.539-0.387-0.821
	c-0.167-0.569-0.199-1.134-0.19-1.663c0.002-0.056,0.004-0.111,0.006-0.166c0.473,0.205,0.972,0.403,1.498,0.6
	c0.196,0.553,0.513,1.132,1.077,1.498c0.146,0.094,0.308,0.178,0.487,0.203c0.18,0.029,0.371-0.044,0.488-0.19
	c0.219-0.279,0.286-0.649,0.338-1.013c-0.052,0.363-0.119,0.733-0.339,1.012c-0.116,0.146-0.309,0.22-0.487,0.188
	c-0.179-0.025-0.34-0.109-0.485-0.203c-0.56-0.365-0.872-0.94-1.065-1.489c0.542,0.201,1.111,0.4,1.709,0.604
	c-0.602-0.205-1.174-0.411-1.715-0.623c-0.009-0.025-0.019-0.053-0.026-0.079c-0.154-0.479-0.234-0.95-0.276-1.405
	c0.171,0.197,0.361,0.385,0.568,0.564c0.594,0.523,1.315,0.971,2.117,1.431c0.42,0.24,0.861,0.484,1.319,0.743
	c-0.458-0.259-0.9-0.506-1.318-0.75c-0.797-0.467-1.509-0.926-2.086-1.46c-0.226-0.203-0.433-0.422-0.611-0.65
	c-0.005-0.062-0.01-0.126-0.014-0.188c-0.017-0.307-0.021-0.604-0.012-0.892c0.11-0.144,0.219-0.288,0.324-0.433
	c0.387-0.479,0.73-0.951,1.034-1.443c0.143,0.207,0.308,0.406,0.497,0.593c0.7,0.709,1.65,1.294,2.746,1.917
	c-1.096-0.622-2.038-1.228-2.71-1.95c-0.191-0.2-0.354-0.412-0.49-0.63c0.087-0.141,0.169-0.283,0.249-0.428
	c0.17-0.321,0.309-0.61,0.423-0.875c0.224-0.429,0.393-0.794,0.562-1.158c0.049-0.112,0.099-0.225,0.149-0.339
	c0.078-0.107,0.153-0.215,0.227-0.322c0.444-0.66,0.805-1.315,1.116-1.995c0.075-0.17,0.145-0.328,0.208-0.479
	c0.229-0.312,0.455-0.64,0.717-1.044c0.237-0.372,0.507-0.808,0.801-1.376c0.098,0.22,0.21,0.442,0.339,0.667
	c0.418,0.731,1.002,1.478,1.756,2.243c-0.754-0.766-1.324-1.525-1.714-2.267c-0.131-0.249-0.241-0.494-0.334-0.736
	c0.061-0.118,0.121-0.242,0.183-0.371c0.378-0.807,0.602-1.438,0.77-1.973c0.166-0.536,0.278-0.975,0.368-1.421
	c0.086-0.446,0.149-0.901,0.156-1.475c0.004-0.478-0.029-1.042-0.167-1.733c0.062-0.445,0.098-0.82,0.135-1.194
	c0.066-0.851,0.139-1.706,0.081-3.414c-0.037-0.799-0.087-1.409-0.144-1.919c0.329-0.475,0.531-0.86,0.694-1.26
	c0.132-0.34,0.24-0.697,0.275-1.155c0.029-0.453-0.008-1.032-0.344-1.688c-0.34-0.649-0.719-1.051-1.024-1.381
	c-0.255-0.268-0.479-0.481-0.694-0.684c0.143-0.776,0.062-1.339-0.046-1.854c-0.194-0.746-0.48-1.507-1.471-2.693
	c-0.101-0.126-0.208-0.238-0.315-0.339c0.193-0.094,0.381-0.163,0.564-0.218c0.323-0.094,0.648-0.141,1.043-0.118
	c0.393,0.025,0.999,0.717,1.465,0.448c3.652-2.106,5.07,1.236,5.984-1.642c0.914-2.877-6.271-3.554-6.271-3.554
	C29.578,2.105,28.967,2.348,28.512,2.589z M27.59,4.485c0.037-0.004,0.075-0.008,0.112-0.012c0.081-0.005,0.162-0.009,0.244-0.01
	c-0.205,0.076-0.409,0.168-0.618,0.291C27.417,4.656,27.503,4.567,27.59,4.485z M27.652,4.744c-0.031,0.021-0.062,0.044-0.092,0.068
	l-0.014-0.018C27.582,4.776,27.617,4.76,27.652,4.744z M25.791,5.017c0.033-0.029,0.066-0.056,0.101-0.082
	c0.202-0.156,0.404-0.271,0.607-0.361c-0.006,0.01-0.014,0.021-0.021,0.031c-0.218,0.11-0.451,0.25-0.688,0.443
	C25.79,5.038,25.79,5.027,25.791,5.017z M25.639,5.161c0.001,0.006,0.001,0.011,0.002,0.017c-0.038,0.036-0.077,0.072-0.115,0.11
	C25.562,5.243,25.6,5.201,25.639,5.161z M25.021,6.587c0.05-0.208,0.142-0.428,0.285-0.654c-0.092,0.177-0.173,0.372-0.242,0.586
	c-0.02,0.063-0.036,0.125-0.053,0.186C25.014,6.666,25.017,6.626,25.021,6.587z M24.209,8.44c0.034-0.167,0.085-0.333,0.163-0.503
	c0.031,0.201,0.07,0.386,0.106,0.559c-0.09,0.162-0.186,0.337-0.282,0.534C24.17,8.821,24.178,8.626,24.209,8.44z M26.251,9.359
	c-0.04-0.135-0.075-0.264-0.106-0.394c-0.019-0.088-0.035-0.178-0.049-0.271c0.005-0.007,0.008-0.015,0.012-0.022
	c0.091-0.168,0.187-0.318,0.284-0.452c0.097,0.154,0.205,0.31,0.323,0.476c0.095,0.128,0.192,0.26,0.294,0.402
	c0.022,0.058,0.045,0.113,0.066,0.168c0.207,0.496,0.411,0.874,0.618,1.248c0.03,0.056,0.062,0.111,0.094,0.167
	c-0.206-0.162-0.433-0.343-0.688-0.552C26.76,9.841,26.481,9.588,26.251,9.359z M27.414,9.708c0.091,0.149,0.187,0.311,0.284,0.489
	c0.104,0.192,0.197,0.371,0.283,0.54c-0.059-0.097-0.114-0.193-0.17-0.289C27.679,10.211,27.546,9.975,27.414,9.708z M24.309,16.595
	c-0.145-0.15-0.262-0.303-0.361-0.463c-0.198-0.321-0.332-0.666-0.403-1.119c-0.066-0.453-0.065-1.026,0.112-1.806
	c0.023-0.099,0.048-0.195,0.073-0.288c0.032,0.1,0.066,0.196,0.102,0.29c0.069,0.179,0.145,0.355,0.231,0.538
	c0.038,0.308,0.09,0.671,0.169,1.131c0.205,1.069,0.372,1.59,0.539,2.11c0.005,0.014,0.01,0.027,0.014,0.041
	C24.603,16.88,24.447,16.737,24.309,16.595z M29.014,19.789c-0.048,0.057-0.096,0.112-0.142,0.165
	c0.019-0.035,0.037-0.07,0.056-0.106c0.025-0.048,0.052-0.1,0.078-0.152C29.008,19.727,29.012,19.758,29.014,19.789z M29.574,19.774
	c0,0.007-0.001,0.013-0.002,0.02c0-0.004-0.001-0.007-0.002-0.011C29.572,19.78,29.573,19.778,29.574,19.774z M27.333,20.351
	c0.127,0.407,0.227,0.754,0.306,1.061c-0.017,0.022-0.034,0.045-0.052,0.068c-0.065-0.186-0.139-0.387-0.226-0.615
	c-0.03-0.142-0.062-0.291-0.097-0.448c-0.063-0.273-0.12-0.522-0.171-0.751c0.003,0.005,0.007,0.009,0.011,0.013
	C27.178,19.882,27.253,20.104,27.333,20.351z M29.042,20.105c0.004,0.043,0.008,0.086,0.012,0.13
	c0.002,0.026,0.003,0.053,0.006,0.08c-0.015,0.028-0.028,0.056-0.042,0.083c-0.025-0.058-0.052-0.117-0.08-0.177
	C28.973,20.184,29.007,20.145,29.042,20.105z M28.179,21.187c0.04,0.07,0.079,0.141,0.117,0.212c0.026,0.052,0.053,0.104,0.08,0.157
	c-0.001,0.004-0.002,0.008-0.002,0.012c-0.019,0.031-0.036,0.061-0.055,0.09c-0.049-0.168-0.096-0.324-0.142-0.468
	C28.178,21.188,28.179,21.188,28.179,21.187z M28.854,19.809c-0.014,0.026-0.028,0.052-0.041,0.077
	c-0.003-0.15-0.007-0.308-0.014-0.476c-0.099-1.475-0.387-2.206-0.663-2.887c-0.083-0.2-0.172-0.398-0.275-0.608
	c-0.029-0.131-0.061-0.267-0.095-0.408c0.058-0.072,0.116-0.146,0.176-0.224c0.212,0.501,0.434,1.115,0.672,2.068
	c0.229,0.983,0.32,1.639,0.377,2.19C28.943,19.635,28.898,19.724,28.854,19.809z M28.413,18.733
	c-0.029-0.158-0.057-0.308-0.083-0.45C28.36,18.421,28.389,18.571,28.413,18.733z M26.215,14.259
	c0.215,0.361,0.401,0.665,0.566,0.931c0.122,0.348,0.228,0.648,0.326,0.929c-0.097,0.114-0.198,0.23-0.308,0.353
	c-0.153-0.296-0.331-0.652-0.562-1.145c-0.056-0.271-0.119-0.572-0.193-0.911c-0.05-0.25-0.093-0.478-0.132-0.69
	C26.004,13.894,26.104,14.071,26.215,14.259z M27.338,13.989c0.105,0.217,0.202,0.417,0.3,0.618c0.079,0.173,0.16,0.346,0.241,0.534
	c-0.052,0.072-0.102,0.141-0.152,0.207C27.629,14.959,27.507,14.521,27.338,13.989z M29.402,18.816
	c0.08-0.216,0.149-0.458,0.188-0.73c0.044-0.329,0.034-0.624-0.006-0.889c0.016,0.049,0.031,0.101,0.046,0.152
	c0.029,0.619,0.019,1.075,0.008,1.53c-0.001,0.025-0.003,0.051-0.004,0.076c-0.02,0.059-0.04,0.119-0.062,0.181
	c-0.024,0.029-0.048,0.058-0.073,0.088c-0.006,0.007-0.013,0.014-0.019,0.022C29.456,19.111,29.431,18.968,29.402,18.816z
	 M29.513,18.075c-0.03,0.214-0.08,0.409-0.14,0.587c-0.076-0.393-0.172-0.852-0.305-1.421c-0.247-0.986-0.424-1.632-0.574-2.173
	c0.024,0.035,0.049,0.07,0.072,0.104c0.117,0.171,0.233,0.344,0.348,0.534c0.067,0.119,0.132,0.236,0.193,0.354
	c0.037,0.071,0.073,0.143,0.108,0.215C29.411,16.715,29.617,17.297,29.513,18.075z M29.212,16.008
	c-0.215-0.435-0.462-0.855-0.812-1.374c0.082-0.126,0.168-0.263,0.255-0.412c0.109,0.119,0.222,0.249,0.337,0.393
	c0.172,0.229,0.312,0.44,0.426,0.64c0.032,0.194,0.063,0.405,0.095,0.632c0.044,0.409,0.075,0.763,0.096,1.076
	C29.49,16.607,29.357,16.305,29.212,16.008z M29.115,14.52c-0.138-0.154-0.267-0.294-0.388-0.424
	c0.102-0.183,0.204-0.384,0.306-0.61c0.104,0.377,0.21,0.8,0.313,1.358C29.276,14.738,29.199,14.631,29.115,14.52z M28.547,14.105
	c-0.074,0.132-0.148,0.255-0.22,0.369c-0.011-0.039-0.021-0.078-0.033-0.117c-0.067-0.226-0.137-0.456-0.221-0.706
	C28.222,13.784,28.38,13.932,28.547,14.105z M25.434,17.516c-0.116-0.245-0.208-0.453-0.297-0.664
	c-0.198-0.488-0.398-0.987-0.598-2.029c-0.018-0.104-0.033-0.202-0.048-0.295c0.018,0.027,0.035,0.056,0.052,0.083
	c0.027,0.176,0.061,0.365,0.101,0.57c0.264,1.203,0.543,1.793,0.805,2.345C25.443,17.522,25.438,17.519,25.434,17.516z
	 M27.316,17.454c-0.157-0.308-0.299-0.566-0.469-0.891c0.105-0.115,0.205-0.224,0.301-0.329c0.055,0.155,0.107,0.307,0.159,0.457
	c0.147,0.44,0.299,0.881,0.452,1.455C27.596,17.885,27.449,17.659,27.316,17.454z M26.952,18.002
	c0.065,0.093,0.129,0.185,0.191,0.275c0.063,0.096,0.129,0.193,0.194,0.292c0.076,0.179,0.162,0.379,0.259,0.607
	c0.021,0.052,0.041,0.103,0.062,0.153c-0.091-0.099-0.187-0.201-0.291-0.305C27.249,18.736,27.116,18.41,26.952,18.002z
	 M26.311,19.192c-0.072-0.135-0.152-0.28-0.24-0.439c-0.007-0.013-0.014-0.025-0.021-0.038c0.012,0.008,0.023,0.016,0.034,0.025
	C26.155,18.878,26.231,19.027,26.311,19.192z M26.065,23.209c-0.421-0.649-0.829-1.065-1.114-1.444
	c-0.291-0.376-0.498-0.699-0.63-1.051c-0.286-0.679-0.05-1.507,0.92-2.54c0.004,0.002,0.007,0.004,0.01,0.006
	c0.11,0.23,0.243,0.491,0.408,0.797c0.523,0.949,0.834,1.385,1.127,1.836c0.041,0.064,0.082,0.128,0.125,0.195
	c0.085,0.417,0.146,0.772,0.193,1.084c-0.262,0.34-0.556,0.747-0.908,1.326C26.154,23.35,26.111,23.281,26.065,23.209z
	 M27.686,21.595c0.015,0.055,0.027,0.109,0.04,0.161c-0.009,0.016-0.019,0.032-0.027,0.048c-0.019-0.053-0.036-0.106-0.055-0.161
	C27.657,21.627,27.672,21.611,27.686,21.595z M27.762,21.912c0.021,0.093,0.04,0.181,0.058,0.267
	c-0.003-0.013-0.008-0.026-0.011-0.039c-0.021-0.065-0.043-0.13-0.064-0.197C27.75,21.933,27.756,21.922,27.762,21.912z
	 M26.243,23.495c0.333-0.544,0.622-0.933,0.883-1.251c0.024,0.18,0.045,0.347,0.061,0.505c-0.14,0.282-0.284,0.606-0.419,0.992
	c-0.052,0.156-0.098,0.306-0.139,0.448C26.521,23.975,26.395,23.745,26.243,23.495z M27.208,22.97
	c0.012,0.126,0.021,0.249,0.028,0.37c-0.119,0.172-0.252,0.361-0.4,0.57c0.014-0.043,0.028-0.087,0.043-0.132
	C26.985,23.475,27.097,23.208,27.208,22.97z M26.064,23.795c0.037-0.064,0.074-0.127,0.11-0.188c0.15,0.25,0.276,0.478,0.383,0.691
	c-0.009,0.013-0.017,0.024-0.026,0.037c-0.612,0.855-0.979,1.391-1.279,1.858C25.331,25.575,25.486,24.88,26.064,23.795z
	 M25.218,26.49c0.001-0.017,0.003-0.031,0.005-0.048c0.305-0.514,0.664-1.071,1.342-2.019c-0.102,0.388-0.165,0.724-0.213,1.025
	c-0.019,0.017-0.035,0.035-0.054,0.053c-0.441,0.424-0.8,0.789-1.092,1.121C25.21,26.578,25.213,26.534,25.218,26.49z M26.661,24.51
	c0.071,0.152,0.133,0.294,0.187,0.431c-0.112,0.121-0.234,0.248-0.364,0.377C26.528,25.075,26.584,24.807,26.661,24.51z
	 M26.322,25.64c-0.065,0.461-0.099,0.838-0.125,1.216c-0.036,0.468-0.046,0.938-0.066,1.57c-0.279,0.798-0.373,1.361-0.439,1.914
	c-0.072,0.603-0.058,1.207,0.011,2.155c-0.025,0.112-0.049,0.222-0.074,0.329c-0.071,0.013-0.144,0.021-0.217,0.027
	c0.108-1.28,0.014-2.407-0.063-3.515c-0.095-1.222-0.17-1.918-0.149-2.537C25.493,26.461,25.861,26.085,26.322,25.64z
	 M25.334,33.833c-0.007-0.044-0.015-0.089-0.022-0.135c0.043-0.286,0.075-0.565,0.099-0.837c0.073-0.005,0.145-0.013,0.215-0.023
	c-0.022,0.099-0.045,0.195-0.067,0.292c-0.062,0.255-0.13,0.508-0.211,0.787C25.343,33.89,25.339,33.861,25.334,33.833z
	 M25.316,34.022c-0.016,0.051-0.031,0.104-0.047,0.156c-0.001,0.003-0.003,0.007-0.005,0.01c-0.019,0.039-0.037,0.079-0.056,0.118
	c0.02-0.106,0.037-0.211,0.055-0.315c0.009-0.051,0.018-0.102,0.025-0.151c0,0.001,0,0.001,0,0.001
	C25.299,33.903,25.309,33.963,25.316,34.022z M25.258,33.43c-0.038-0.176-0.087-0.362-0.146-0.56c0.065,0.001,0.13,0,0.194-0.002
	C25.295,33.052,25.278,33.239,25.258,33.43z M25.614,33.144c0.022-0.104,0.046-0.209,0.069-0.315
	c0.014-0.002,0.028-0.005,0.043-0.008c0.004,0.057,0.009,0.112,0.014,0.17c-0.043,0.171-0.084,0.33-0.126,0.487
	c-0.054,0.108-0.11,0.224-0.171,0.346C25.508,33.586,25.563,33.365,25.614,33.144z M25.938,33.511
	c0.168-0.351,0.303-0.636,0.421-0.892c0.012-0.006,0.023-0.012,0.035-0.018c-0.146,0.361-0.267,0.669-0.384,0.979
	c-0.019,0.05-0.037,0.101-0.056,0.15C25.95,33.66,25.944,33.586,25.938,33.511z M25.687,32.813c0.01-0.045,0.02-0.09,0.028-0.135
	c0.004,0.042,0.007,0.084,0.011,0.127C25.712,32.809,25.699,32.811,25.687,32.813z M26.233,33.655
	c0.117-0.366,0.239-0.734,0.412-1.19c0.066-0.041,0.13-0.084,0.192-0.129c0.036-0.028,0.071-0.056,0.106-0.084
	c-0.024,0.109-0.051,0.223-0.078,0.341c-0.005,0.009-0.01,0.017-0.014,0.025c-0.198,0.354-0.403,0.705-0.626,1.057
	C26.229,33.669,26.23,33.662,26.233,33.655z M26.413,32.556c-0.011,0.006-0.022,0.012-0.033,0.018
	c0.086-0.189,0.164-0.363,0.24-0.539c0.172-0.409,0.357-0.815,0.597-1.435c-0.004,0.031-0.007,0.064-0.011,0.098
	c-0.007,0.015-0.013,0.028-0.019,0.044C26.847,31.519,26.606,32.084,26.413,32.556z M27.132,31.262
	c-0.042,0.268-0.096,0.564-0.169,0.9c-0.049,0.046-0.101,0.091-0.154,0.135c-0.045,0.035-0.091,0.068-0.138,0.102
	C26.794,32.074,26.943,31.706,27.132,31.262z M27.31,32.418c0.168-0.327,0.301-0.61,0.41-0.863c-0.059,0.291-0.132,0.607-0.23,0.972
	c-0.113,0.156-0.236,0.321-0.37,0.495c-0.038,0.05-0.075,0.098-0.112,0.146C27.101,32.947,27.201,32.703,27.31,32.418z
	 M28.35,30.675c0.074-0.263,0.148-0.526,0.223-0.816c0.014,0.085,0.027,0.172,0.043,0.26c-0.137,0.536-0.265,0.939-0.39,1.305
	c-0.063,0.105-0.131,0.215-0.204,0.33C28.145,31.358,28.247,31.017,28.35,30.675z M27.623,31.046
	c-0.089,0.207-0.192,0.434-0.318,0.692c0.162-0.712,0.267-1.224,0.36-1.689c0.14-0.31,0.263-0.579,0.373-0.821
	C27.97,29.705,27.861,30.258,27.623,31.046z M27.11,30.421c0.059-0.226,0.115-0.476,0.169-0.755
	c-0.006,0.12-0.012,0.241-0.019,0.366C27.209,30.171,27.158,30.3,27.11,30.421z M28.716,29.251c0.145-0.448,0.251-0.882,0.33-1.311
	c-0.042,0.306-0.098,0.648-0.174,1.045c-0.045,0.226-0.091,0.433-0.134,0.624C28.729,29.488,28.722,29.368,28.716,29.251z
	 M28.133,28.399c-0.089,0.253-0.188,0.523-0.312,0.835c0.045-0.262,0.088-0.539,0.124-0.861c0.119-0.454,0.19-0.807,0.26-1.159
	c0.003-0.016,0.005-0.03,0.008-0.046C28.195,27.66,28.164,28.04,28.133,28.399z M27.289,29.396c-0.097,0.553-0.205,0.989-0.318,1.36
	c-0.21,0.489-0.391,0.832-0.563,1.179c-0.125,0.248-0.255,0.493-0.408,0.789c0.097-0.496,0.21-1.095,0.376-1.946
	c0.277-1.428,0.481-2.122,0.714-2.81c0.077-0.233,0.156-0.467,0.244-0.727C27.322,28.209,27.306,28.819,27.289,29.396z
	 M26.222,30.747c-0.141,0.723-0.253,1.261-0.354,1.706c-0.008-0.171-0.012-0.33-0.014-0.479c0.089-0.505,0.174-1.117,0.245-1.956
	c0.001-0.018,0.002-0.035,0.003-0.053c0.129-0.494,0.306-1.041,0.632-1.829C26.597,28.776,26.467,29.486,26.222,30.747z
	 M25.854,31.707c0.008-0.523,0.058-0.925,0.146-1.318c0.014-0.062,0.028-0.125,0.044-0.189
	C25.987,30.811,25.922,31.296,25.854,31.707z M25.08,26.686c-0.003,0.031-0.005,0.062-0.006,0.092
	c-0.048,0.057-0.094,0.112-0.137,0.167C24.985,26.857,25.033,26.771,25.08,26.686z M24.565,27.648
	c0.133-0.222,0.297-0.448,0.5-0.692c-0.02,0.592,0.041,1.278,0.127,2.394c0.077,1.11,0.195,2.23,0.115,3.51
	c-0.065,0.004-0.13,0.005-0.196,0.005c-0.095-0.32-0.216-0.672-0.37-1.064c-0.608-1.548-0.774-2.477-0.561-3.279
	C24.316,28.179,24.444,27.896,24.565,27.648z M24.736,35.373c-0.081,0.196-0.16,0.396-0.237,0.603
	c-0.002,0.007-0.005,0.014-0.008,0.021c-0.044,0.05-0.088,0.101-0.134,0.151c-0.106,0.116-0.215,0.235-0.327,0.354
	c-0.005-0.032-0.009-0.063-0.014-0.095C24.265,36.058,24.506,35.716,24.736,35.373z M24.803,35.937
	c-0.007,0.026-0.014,0.054-0.021,0.081c-0.013,0.018-0.025,0.037-0.039,0.057c0.001-0.001,0.001-0.001,0.001-0.002
	C24.764,36.026,24.783,35.981,24.803,35.937z M24.359,36.367c-0.061,0.177-0.12,0.358-0.17,0.548
	c-0.03,0.026-0.061,0.052-0.091,0.077c-0.016-0.109-0.03-0.218-0.045-0.325C24.158,36.565,24.26,36.466,24.359,36.367z
	 M23.997,36.436c0.005,0.029,0.01,0.058,0.014,0.088c-0.095,0.101-0.192,0.203-0.292,0.306
	C23.812,36.696,23.905,36.565,23.997,36.436z M23.41,37.269c0.22-0.197,0.427-0.393,0.625-0.584c0.017,0.105,0.033,0.212,0.049,0.32
	c-0.371,0.313-0.749,0.629-1.142,0.951C23.1,37.72,23.256,37.491,23.41,37.269z M23.639,38.128c0.048-0.036,0.096-0.072,0.144-0.108
	c-0.086,0.118-0.174,0.238-0.263,0.358C23.56,38.292,23.6,38.208,23.639,38.128z M24.077,38.518
	c0.013,0.074,0.027,0.148,0.045,0.223c-0.018,0.027-0.035,0.054-0.053,0.08c-0.04,0.035-0.082,0.068-0.124,0.103
	C23.99,38.786,24.034,38.65,24.077,38.518z M23.938,38.928c-0.058,0.047-0.117,0.091-0.178,0.137
	c0.029-0.105,0.059-0.21,0.088-0.313c0.05-0.059,0.1-0.118,0.147-0.177c0.026-0.029,0.051-0.06,0.076-0.09
	c0.001,0.006,0.001,0.012,0.003,0.017C24.03,38.642,23.985,38.784,23.938,38.928z M24.199,38.332
	c0.021-0.026,0.043-0.052,0.063-0.077c0.011,0.071,0.021,0.145,0.03,0.218c-0.022,0.036-0.046,0.072-0.068,0.108
	C24.213,38.498,24.204,38.414,24.199,38.332z M22.945,38.634c0.19-0.136,0.376-0.271,0.56-0.406c-0.065,0.136-0.132,0.279-0.2,0.431
	c-0.003,0.007-0.006,0.014-0.009,0.02c-0.266,0.354-0.548,0.72-0.851,1.104c-0.194,0.071-0.396,0.131-0.609,0.179
	c-0.026,0.006-0.053,0.012-0.079,0.018c0.135-0.274,0.275-0.534,0.417-0.783C22.436,39.003,22.695,38.818,22.945,38.634z
	 M20.566,42.853c0.037-0.024,0.073-0.05,0.109-0.075c-0.006,0.027-0.013,0.055-0.019,0.083c-0.008,0.043-0.014,0.087-0.019,0.131
	c-0.03-0.022-0.059-0.045-0.088-0.068C20.556,42.899,20.561,42.876,20.566,42.853z M20.517,42.895
	c-0.002-0.001-0.004-0.003-0.005-0.005c0.002-0.001,0.005-0.003,0.008-0.005C20.519,42.889,20.518,42.892,20.517,42.895z
	 M20.705,42.869c0.012-0.047,0.023-0.092,0.036-0.137c0.088-0.062,0.175-0.123,0.26-0.186c-0.014,0.222-0.016,0.449-0.008,0.681
	c-0.107-0.063-0.213-0.133-0.312-0.206C20.687,42.971,20.694,42.92,20.705,42.869z M22.272,40.328
	c0.181-0.195,0.359-0.383,0.532-0.568c0.025-0.01,0.052-0.02,0.077-0.03c-0.159,0.305-0.287,0.638-0.355,1.012
	c-0.006,0.034-0.011,0.068-0.015,0.104c-0.338,0.371-0.711,0.745-1.13,1.121c-0.112,0.101-0.229,0.201-0.348,0.301
	c0.017-0.137,0.037-0.271,0.062-0.403C21.429,41.259,21.876,40.771,22.272,40.328z M21.225,41.339
	c0.133-0.463,0.306-0.889,0.495-1.283c0.044-0.007,0.087-0.015,0.131-0.023c0.167-0.03,0.33-0.068,0.487-0.114
	c-0.034,0.043-0.068,0.087-0.104,0.13C21.929,40.45,21.556,40.859,21.225,41.339z M21.532,42.146
	c0.317-0.251,0.612-0.504,0.89-0.757c-0.038,0.175-0.074,0.353-0.108,0.532c-0.377,0.439-0.772,0.896-1.181,1.387
	c-0.024-0.013-0.049-0.026-0.072-0.041c-0.021-0.012-0.041-0.023-0.062-0.036c-0.008-0.235-0.004-0.465,0.012-0.689
	C21.189,42.41,21.364,42.278,21.532,42.146z M20.838,42.429c0.069-0.187,0.15-0.364,0.241-0.531
	c-0.022,0.124-0.042,0.25-0.055,0.378C20.963,42.327,20.901,42.378,20.838,42.429z M20.751,42.499
	c-0.036,0.029-0.073,0.059-0.111,0.088c0.007-0.019,0.013-0.036,0.019-0.055c0.127-0.336,0.291-0.635,0.475-0.907
	C20.981,41.894,20.849,42.183,20.751,42.499z M20.998,43.344c0.002,0.043,0.005,0.088,0.008,0.131
	c-0.09,0.123-0.177,0.253-0.256,0.39c-0.065-0.238-0.094-0.478-0.081-0.71C20.775,43.222,20.886,43.285,20.998,43.344z
	 M21.003,43.347c0.004,0.002,0.007,0.003,0.01,0.006c0.021,0.01,0.041,0.021,0.062,0.031c-0.021,0.027-0.043,0.057-0.064,0.086
	C21.007,43.428,21.005,43.388,21.003,43.347z M21.167,43.328c0.388-0.459,0.766-0.887,1.126-1.299
	c-0.026,0.142-0.051,0.284-0.073,0.431c-0.261,0.326-0.539,0.655-0.837,0.986C21.31,43.407,21.238,43.367,21.167,43.328z
	 M22.369,41.941c0.07-0.081,0.14-0.161,0.209-0.24c0.019,0.07,0.042,0.139,0.067,0.209c-0.115,0.153-0.234,0.308-0.356,0.463
	C22.313,42.228,22.341,42.083,22.369,41.941z M22.392,41.829c0.036-0.175,0.074-0.346,0.112-0.516
	c0.001-0.001,0.002-0.002,0.003-0.003c0.01,0.107,0.028,0.214,0.054,0.32C22.505,41.697,22.448,41.764,22.392,41.829z
	 M22.633,41.193c0.277-0.265,0.535-0.53,0.776-0.798c-0.013,0.079-0.026,0.159-0.039,0.241c-0.223,0.29-0.46,0.578-0.708,0.873
	C22.645,41.404,22.634,41.298,22.633,41.193z M23.466,40.349c0.003-0.008,0.005-0.017,0.008-0.025
	c0.267-0.3,0.512-0.604,0.739-0.914c-0.233,0.396-0.498,0.775-0.786,1.153C23.439,40.491,23.452,40.42,23.466,40.349z
	 M23.466,40.348c0.001-0.006,0.002-0.013,0.003-0.019c0.002-0.002,0.003-0.004,0.005-0.005
	C23.471,40.332,23.469,40.34,23.466,40.348z M22.72,40.611c0.107-0.382,0.282-0.72,0.487-1.027c0.145-0.071,0.284-0.146,0.418-0.226
	c-0.013,0.055-0.026,0.109-0.039,0.164C23.322,39.887,23.036,40.249,22.72,40.611z M22.105,39.245
	c-0.129,0.236-0.259,0.481-0.382,0.74c-0.22,0.046-0.445,0.077-0.679,0.095C21.396,39.776,21.754,39.503,22.105,39.245z
	 M20.99,40.129c0.238-0.01,0.471-0.031,0.698-0.068c-0.189,0.406-0.361,0.842-0.49,1.317c-0.229,0.337-0.438,0.709-0.586,1.139
	c-0.013,0.04-0.025,0.08-0.036,0.12c-0.062,0.049-0.124,0.097-0.188,0.144c-0.269-0.254-0.461-0.552-0.488-0.888
	c-0.07-0.577,0.336-1.038,0.701-1.407C20.729,40.361,20.859,40.243,20.99,40.129z M18.608,42.698
	c0.123-0.573,0.403-1.062,0.745-1.448c0.248-0.28,0.528-0.509,0.807-0.72c-0.108,0.141-0.21,0.292-0.294,0.458
	c-0.14,0.268-0.229,0.607-0.163,0.93c0.05,0.331,0.235,0.628,0.476,0.857c0.031,0.031,0.064,0.061,0.097,0.089
	c-0.517,0.382-1.092,0.76-1.735,1.13C18.5,43.543,18.515,43.11,18.608,42.698z M20.204,44.655c-0.396,0.376-0.829,0.756-1.304,1.138
	c-0.167-0.601-0.3-1.18-0.354-1.731c0.683-0.36,1.296-0.726,1.853-1.096c0.031,0.023,0.063,0.048,0.096,0.07
	c-0.054,0.392-0.042,0.808,0.009,1.231c0.004,0.028,0.008,0.058,0.012,0.087C20.413,44.454,20.31,44.555,20.204,44.655z
	 M20.528,44.341c-0.001,0.001-0.002,0.001-0.003,0.002c-0.003-0.026-0.006-0.052-0.009-0.078c-0.045-0.416-0.049-0.824,0.01-1.204
	c0.033,0.022,0.067,0.045,0.102,0.067c-0.011,0.253,0.026,0.513,0.104,0.768C20.653,44.036,20.583,44.185,20.528,44.341z
	 M21.174,44.758c-0.037-0.055-0.072-0.111-0.105-0.169c-0.053-0.084-0.1-0.171-0.143-0.259c0.053-0.047,0.104-0.094,0.154-0.141
	C21.106,44.377,21.138,44.566,21.174,44.758z M20.578,44.291c0.048-0.122,0.104-0.239,0.168-0.353
	c0.015,0.045,0.03,0.091,0.048,0.135C20.723,44.146,20.651,44.219,20.578,44.291z M20.811,44.056
	c-0.018-0.049-0.033-0.098-0.048-0.146c0.076-0.133,0.16-0.258,0.247-0.377c0.007,0.096,0.016,0.192,0.025,0.29
	C20.962,43.9,20.887,43.978,20.811,44.056z M21.038,43.819c-0.01-0.098-0.018-0.195-0.024-0.292
	c0.031-0.043,0.062-0.085,0.095-0.126c0.071,0.036,0.144,0.072,0.217,0.108C21.231,43.612,21.136,43.716,21.038,43.819z
	 M21.686,43.604c0.153-0.155,0.303-0.309,0.446-0.464c-0.021,0.216-0.037,0.437-0.046,0.662
	C21.949,43.737,21.815,43.672,21.686,43.604z M23.301,42.952c0.046,0.464,0.129,0.948,0.29,1.438
	c0.008,0.023,0.016,0.046,0.023,0.069c-0.525-0.205-1.021-0.416-1.488-0.638c0.012-0.253,0.032-0.498,0.061-0.738
	c0.233-0.251,0.454-0.504,0.665-0.757C22.978,42.543,23.129,42.752,23.301,42.952z M23.277,42.672
	c0.003,0.051,0.008,0.102,0.012,0.152c-0.145-0.188-0.27-0.382-0.371-0.579c0.115-0.141,0.229-0.281,0.338-0.423
	C23.251,42.098,23.259,42.381,23.277,42.672z M22.731,41.795c-0.021-0.07-0.04-0.14-0.055-0.209c0.234-0.273,0.46-0.542,0.673-0.811
	c-0.01,0.063-0.019,0.127-0.027,0.191C23.132,41.243,22.937,41.518,22.731,41.795z M24.353,39.389
	c-0.16,0.257-0.339,0.538-0.542,0.851c-0.144,0.219-0.288,0.436-0.436,0.652c0.009-0.062,0.019-0.124,0.028-0.185
	c0.347-0.441,0.661-0.887,0.933-1.354C24.341,39.365,24.347,39.377,24.353,39.389z M23.673,39.402
	c0.007-0.029,0.015-0.057,0.021-0.087c0.023-0.014,0.046-0.027,0.069-0.042C23.733,39.316,23.703,39.359,23.673,39.402z
	 M23.398,39.312c0.114-0.153,0.233-0.3,0.353-0.443c-0.022,0.083-0.045,0.166-0.066,0.252C23.592,39.186,23.497,39.25,23.398,39.312
	z M24.415,39.287c-0.006-0.015-0.012-0.029-0.018-0.044c0.074-0.132,0.146-0.267,0.212-0.403c0.095-0.142,0.185-0.286,0.273-0.431
	c0.003-0.005,0.005-0.01,0.009-0.016c0.046-0.044,0.092-0.088,0.137-0.133C24.855,38.562,24.658,38.895,24.415,39.287z
	 M24.481,38.168c-0.062,0.101-0.123,0.2-0.186,0.299c-0.01-0.073-0.02-0.146-0.028-0.219c0.349-0.431,0.665-0.873,0.908-1.358
	c0.01-0.009,0.02-0.017,0.029-0.025C25.016,37.228,24.783,37.648,24.481,38.168z M24.556,36.603
	c-0.001,0.001-0.002,0.001-0.002,0.002c0.03-0.088,0.061-0.177,0.09-0.266c0.021-0.033,0.043-0.064,0.064-0.097
	c-0.01,0.024-0.02,0.048-0.029,0.072C24.639,36.411,24.597,36.507,24.556,36.603z M26.046,36.367
	c-0.025,0.044-0.052,0.088-0.077,0.132c-0.016,0.024-0.03,0.05-0.046,0.075c0.005-0.031,0.01-0.062,0.015-0.093
	c0.012-0.084,0.021-0.168,0.03-0.253c0.017-0.04,0.032-0.081,0.048-0.121c0.104-0.102,0.2-0.199,0.291-0.294
	C26.217,36.014,26.13,36.196,26.046,36.367z M25.396,35.28c-0.001,0.052-0.002,0.104-0.004,0.155
	c-0.05,0.149-0.104,0.308-0.164,0.477c-0.046,0.07-0.094,0.145-0.143,0.221c0.125-0.324,0.225-0.61,0.307-0.869
	c0.002-0.001,0.003-0.003,0.004-0.005C25.396,35.267,25.396,35.273,25.396,35.28z M25.455,35.248c0-0.021,0-0.043,0-0.064
	c0.013-0.017,0.025-0.034,0.038-0.051C25.48,35.171,25.468,35.21,25.455,35.248z M24.003,36.308
	c-0.15-1.046-0.307-1.966-0.394-2.808c-0.195-1.697-0.108-3.083,0.343-4.369c0.032-0.09,0.063-0.176,0.094-0.259
	c-0.075,0.746,0.14,1.618,0.659,2.941c0.151,0.388,0.271,0.733,0.364,1.05c-0.29-0.007-0.591-0.052-0.894-0.13
	c0.304,0.078,0.604,0.125,0.895,0.135c0.073,0.251,0.13,0.482,0.172,0.699c-0.017,0.136-0.034,0.272-0.056,0.412
	c-0.026,0.186-0.057,0.376-0.091,0.569c-0.064,0.141-0.129,0.283-0.191,0.427C24.619,35.42,24.316,35.856,24.003,36.308z
	 M25.757,33.889c0.016-0.032,0.03-0.063,0.046-0.095c0.007,0.112,0.014,0.221,0.019,0.324c-0.034,0.104-0.069,0.211-0.105,0.323
	c-0.046,0.064-0.092,0.13-0.14,0.196C25.648,34.364,25.704,34.121,25.757,33.889z M26.007,34.645c-0.002-0.049-0.004-0.1-0.006-0.15
	c0.009-0.012,0.018-0.023,0.026-0.036c0.091-0.111,0.187-0.231,0.288-0.357C26.219,34.274,26.119,34.451,26.007,34.645z
	 M27.112,33.761c-0.193,0.294-0.371,0.534-0.54,0.752c0.096-0.305,0.197-0.648,0.312-1.064c0.021-0.046,0.04-0.093,0.062-0.141
	c0.066-0.084,0.135-0.171,0.205-0.262c0.11-0.144,0.213-0.28,0.31-0.412C27.368,32.966,27.255,33.337,27.112,33.761z M27.972,31.909
	c0.064-0.096,0.125-0.188,0.183-0.277c-0.021,0.06-0.042,0.12-0.063,0.181c-0.094,0.254-0.187,0.508-0.298,0.794
	c-0.039,0.074-0.078,0.146-0.116,0.215C27.789,32.48,27.886,32.181,27.972,31.909z M28.985,31.437
	c-0.293,0.586-0.575,1.031-0.832,1.4c0.108-0.336,0.19-0.629,0.272-0.919c0.05-0.188,0.1-0.378,0.15-0.58
	c0.078-0.177,0.147-0.34,0.21-0.493C28.843,31.038,28.908,31.236,28.985,31.437z M29.89,27.893
	c-0.008,0.427-0.039,0.857-0.144,1.386c-0.106,0.527-0.286,1.156-0.655,1.941c-0.014,0.031-0.029,0.062-0.044,0.092
	c-0.072-0.232-0.13-0.459-0.176-0.681c0.127-0.322,0.228-0.606,0.331-0.888c0.063-0.197,0.128-0.395,0.191-0.609
	c0.157-0.406,0.321-0.882,0.496-1.497C29.891,27.723,29.891,27.809,29.89,27.893z M29.829,26.519
	c0.024,0.259,0.041,0.493,0.051,0.716c-0.08,0.299-0.156,0.567-0.229,0.812c0.064-0.361,0.121-0.781,0.163-1.288
	c0.005-0.089,0.01-0.175,0.014-0.259C29.828,26.506,29.828,26.512,29.829,26.519z M26.555,27.363
	c-0.148,0.337-0.27,0.637-0.369,0.911c0.024-0.557,0.046-0.985,0.09-1.413c0.037-0.393,0.081-0.785,0.16-1.271
	c0.004-0.023,0.008-0.048,0.013-0.072c0.162-0.159,0.31-0.311,0.446-0.457c0.133,0.354,0.22,0.667,0.302,0.974
	C27.012,26.397,26.802,26.825,26.555,27.363z M27.332,25.74c-0.007,0.025-0.014,0.05-0.021,0.076
	c-0.02,0.037-0.039,0.075-0.059,0.114c-0.073-0.298-0.153-0.605-0.28-0.952c0.118-0.129,0.228-0.252,0.33-0.372
	C27.314,24.93,27.325,25.297,27.332,25.74z M27.294,24.438c-0.112,0.132-0.234,0.271-0.368,0.417c-0.062-0.16-0.134-0.33-0.22-0.51
	c0.018-0.064,0.036-0.13,0.056-0.196c0.181-0.251,0.341-0.471,0.484-0.668c0.001,0.013,0.001,0.025,0.002,0.038
	C27.264,23.812,27.279,24.104,27.294,24.438z M29.148,24.468c-0.014-0.146-0.03-0.305-0.051-0.482
	c-0.008-0.141-0.016-0.278-0.024-0.414c-0.014-0.155-0.026-0.309-0.04-0.467c0.003-0.008,0.007-0.017,0.01-0.025
	c0.044,0.122,0.089,0.251,0.134,0.388c0.001,0.273,0.002,0.519,0.002,0.744C29.17,24.293,29.16,24.379,29.148,24.468z
	 M30.638,20.148c0.058,1.702-0.024,2.555-0.101,3.401c-0.031,0.287-0.062,0.573-0.104,0.892c-0.009-0.038-0.018-0.075-0.026-0.113
	c-0.177-0.665-0.357-1.194-0.539-1.635c-0.024-0.795-0.076-1.355-0.136-1.833c0.203-0.827,0.289-1.383,0.373-1.938
	c0.004-0.027,0.007-0.054,0.011-0.082c0.143-0.181,0.269-0.348,0.38-0.505C30.554,18.821,30.603,19.402,30.638,20.148z
	 M30.168,18.393c0.052-0.501,0.081-1.074,0.025-1.891c0.019,0.089,0.037,0.178,0.056,0.266c0.069,0.383,0.141,0.767,0.204,1.233
	C30.367,18.125,30.272,18.254,30.168,18.393z M30.045,12.867c0.31,0.313,0.688,0.702,1.015,1.325c0.32,0.628,0.35,1.174,0.314,1.604
	c-0.041,0.435-0.152,0.772-0.287,1.094c-0.142,0.321-0.31,0.63-0.555,0.996c-0.054-0.424-0.111-0.782-0.168-1.139
	c-0.086-0.457-0.16-0.924-0.319-1.512c-0.194-1.17-0.424-1.814-0.646-2.449c-0.019-0.051-0.038-0.102-0.058-0.153
	c0.032-0.113,0.062-0.222,0.086-0.328C29.622,12.471,29.823,12.649,30.045,12.867z M29.182,12.098
	c0.037,0.031,0.075,0.063,0.113,0.095c-0.015,0.063-0.03,0.128-0.047,0.195c-0.045-0.113-0.09-0.229-0.14-0.349
	C29.133,12.059,29.157,12.078,29.182,12.098z M28.58,12.077c0.121,0.32,0.212,0.603,0.302,0.883
	c0.027,0.095,0.056,0.191,0.084,0.287c-0.114,0.274-0.232,0.515-0.349,0.73c-0.25-0.265-0.467-0.482-0.664-0.671
	c-0.17-0.462-0.399-1.008-0.757-1.727c-0.332-0.67-0.559-1.168-0.722-1.583c0.13,0.118,0.271,0.242,0.426,0.372
	c0.519,0.425,0.93,0.732,1.276,0.983C28.303,11.57,28.436,11.806,28.58,12.077z M27.874,7.586c0.979,1.171,1.246,1.921,1.427,2.647
	c0.094,0.48,0.163,0.996,0.045,1.698c-0.003-0.003-0.006-0.006-0.01-0.009c-0.14-0.128-0.284-0.25-0.439-0.375
	c-0.192-0.428-0.439-0.932-0.789-1.578c-0.369-0.676-0.712-1.175-0.964-1.562c-0.146-0.233-0.264-0.443-0.354-0.643
	c0.138-0.132,0.275-0.24,0.408-0.332c0.115-0.079,0.228-0.146,0.338-0.206C27.649,7.332,27.764,7.448,27.874,7.586z M25.472,6.934
	c-0.102,0.142-0.196,0.279-0.289,0.417c-0.045,0.067-0.09,0.136-0.135,0.205c-0.005-0.019-0.01-0.037-0.015-0.056
	c-0.009-0.071-0.016-0.143-0.021-0.217c0.013-0.088,0.027-0.18,0.047-0.272c0.146-0.144,0.315-0.292,0.512-0.449
	C25.533,6.691,25.5,6.815,25.472,6.934z M25.892,5.698c-0.045,0.1-0.088,0.204-0.132,0.314c-0.021,0.054-0.04,0.107-0.06,0.16
	c-0.017,0.012-0.033,0.023-0.051,0.036c-0.179,0.134-0.341,0.263-0.486,0.389c0.004-0.014,0.008-0.027,0.012-0.041
	c0.145-0.451,0.348-0.807,0.574-1.086C25.791,5.549,25.839,5.625,25.892,5.698z M25.963,5.538c-0.039-0.064-0.074-0.13-0.104-0.197
	c0.074-0.082,0.149-0.155,0.227-0.221c0.047-0.033,0.094-0.065,0.141-0.094C26.139,5.182,26.051,5.352,25.963,5.538z M31.373,5.443
	c-0.265,0.042-0.503,0.083-0.719,0.123l-0.029-0.209c0.034,0,0.069,0,0.104,0.001C30.927,5.365,31.14,5.387,31.373,5.443z
	 M28.785,4.528c-0.204,0.119-0.405,0.249-0.612,0.396c-0.019,0.006-0.038,0.012-0.057,0.018c-0.115,0.042-0.231,0.085-0.351,0.13
	l-0.119-0.151c0.193-0.145,0.399-0.244,0.613-0.312c0.139-0.042,0.278-0.075,0.424-0.097C28.717,4.518,28.751,4.523,28.785,4.528z
	 M15.318,45.523c-0.062,0.023-0.124,0.049-0.187,0.072C15.194,45.572,15.256,45.547,15.318,45.523z"/>
</svg>
