<?xml version="1.0" encoding="utf-8"?>
<!-- Generator: Adobe Illustrator 16.0.0, SVG Export Plug-In . SVG Version: 6.00 Build 0)  -->
<!DOCTYPE svg PUBLIC "-//W3C//DTD SVG 1.1//EN" "http://www.w3.org/Graphics/SVG/1.1/DTD/svg11.dtd">
<svg version="1.1" id="Layer_1" xmlns="http://www.w3.org/2000/svg" xmlns:xlink="http://www.w3.org/1999/xlink" x="0px" y="0px"
	 width="100px" height="100px" viewBox="0 0 100 100" enable-background="new 0 0 100 100" xml:space="preserve">
<path fill="#9BDBF8" d="M5.964,25.718c0.312,0.774,0.376,2.15,0.222,2.736c2.351,3.672,3.014,9.021,6.169,11.876
	c0.402,2.976,3.326,4.553,5.019,5.481c1.923,1.971,5.651,3.317,5.258,6.849c-3.822-1.253-7.657-2.779-11.88-2.51
	c-1.107-0.906-2.104-1.911-3.877-1.594c-1.714,1.971-0.5,4.8,1.363,5.246c0.06,1.629,1.129,1.894,1.834,2.731
	c0.411,0.509,0.564,1.206,0.911,1.616c0.419,0.475,1.159,0.671,1.595,1.137c0.658,0.692,1.193,1.749,1.83,2.51
	c0.727,0.854,1.432,1.616,2.057,2.505c-0.492,1.343-0.872,2.792-1.142,4.344c2.971,4.091,7.507,2.343,10.965,0.915
	c-0.179-0.864,0.59-0.778,0.911-1.142c2.245-1.351,3.771-0.863,5.25,0.68c0.402,0.432,0.808,0.786,1.141,1.15
	c1.766,1.906,3.903,3.6,5.703,4.561c1.116,0.599,1.659,1.219,2.745,1.142c2.728,2.74,7.229,2.959,12.338,4.566
	c1.304-0.967,2.967-1.582,2.958-3.878c-1.291-1.915-4.792-1.812-4.339-4.339c3.065-0.342,5.1,0.889,7.541,1.142
	c0.561,0.056,1.266-0.086,2.052,0c1.663,0.179,2.63,0.029,4.34-1.142c2.967,0.29,6.13-0.372,8.896-0.915
	c0.863-1.577,1.308-3.565,2.291-5.015c3.6,0.633,10.055,1.462,14.616,1.59c1.42,0.043,3.86,0,4.788-1.372
	c1.604-2.355-1.526-3.296-3.877-3.877c-1.783-0.437-3.895-0.881-5.481-0.915c-1.944-0.03-4.369,0.282-6.391-1.138
	c-0.547-2.047-3.121-2.061-3.886-3.886c-2.33-0.795-3.48-1.975-5.708-2.061c-1.731-0.06-3.967,0.184-5.707,0.688
	c-1.047,0.299-2.27,1.111-3.197,1.372c-0.304,0.086-0.872-0.099-1.142,0c-0.363,0.133-0.534,0.573-0.911,0.688
	c-0.371,0.103-1.291-0.146-1.603,0c-0.248,0.106,0.038,0.354-0.453,0.453c-6.523,1.257-10.795-0.475-15.527-3.651
	c-1.889-3.073-5.386-4.51-7.079-7.763c-2.381-1.504-5.725-2.03-6.161-5.476c2.266,0.167,3.138-1.33,2.967-3.664
	c-0.953-0.12-1.158-1.056-2.287-1.826c0.06,0.043-0.107,0.355-0.222,0.235c-0.064-0.06,0.06-0.419,0-0.462
	c-0.77-0.402-2.774-1.082-3.433-1.826c-0.09-0.106-0.556,0.077-0.68,0c-0.496-0.299-0.872-0.632-1.372-0.915
	c-0.996-0.573-1.12-0.466-2.274-0.919c-0.461-0.162-0.748-0.748-1.15-0.902c-2.745-1.086-5.203-0.97-7.075-0.462
	c-1.881-0.842-1.89-2.629-2.292-4.565C9.431,23.4,6.302,19.75,2.531,20.006c-0.214,0.773-0.928,1.043-1.133,1.83
	C2.159,23.892,4.254,24.61,5.964,25.718z"/>
</svg>
