<?xml version="1.0" encoding="utf-8"?>
<!-- Generator: Adobe Illustrator 16.0.0, SVG Export Plug-In . SVG Version: 6.00 Build 0)  -->
<!DOCTYPE svg PUBLIC "-//W3C//DTD SVG 1.1//EN" "http://www.w3.org/Graphics/SVG/1.1/DTD/svg11.dtd">
<svg version="1.1" id="Layer_1" xmlns="http://www.w3.org/2000/svg" xmlns:xlink="http://www.w3.org/1999/xlink" x="0px" y="0px"
	 width="50px" height="50px" viewBox="0 0 50 50" enable-background="new 0 0 50 50" xml:space="preserve">
<path fill="#231F20" d="M21.631,12.531c0.031,0.079,0.063,0.157,0.094,0.235c-2.767-4.758-6.712-8.807-11.387-11.668
	c4.634,2.954,8.491,7.073,11.148,11.854c1.35,2.408,2.418,4.963,3.211,7.601c-1.693-3.668-3.854-7.095-6.254-10.322
	c2.302,3.261,4.36,6.705,5.948,10.355c-0.879-0.451-1.84-0.878-2.402-1.722c0.56,0.869,1.543,1.311,2.43,1.788
	c0.04,0.091,0.08,0.182,0.119,0.273c0.294,0.706,0.571,1.422,0.826,2.146c0.378,1.629,0.653,3.281,0.829,4.941
	c-0.158,0.218-0.308,0.444-0.444,0.678c-0.059-0.306-0.116-0.61-0.18-0.912c-0.356-1.626-0.75-3.275-1.536-4.752
	c0.75,1.495,1.102,3.145,1.418,4.774c0.066,0.361,0.125,0.724,0.183,1.086c-0.183,0.325-0.342,0.665-0.478,1.016
	c-0.281-0.173-0.584-0.301-0.912-0.365c0.328,0.068,0.629,0.202,0.908,0.376c-0.155,0.403-0.278,0.822-0.36,1.252
	c-0.207,1.061-0.183,2.163,0.035,3.217c0.186,1.058,0.668,2.068,1.011,3.027c0.021,0.062,0.041,0.122,0.061,0.184
	c-0.028,0.145-0.061,0.285-0.093,0.428c-0.01,0.022-0.021,0.046-0.03,0.068c-0.72-0.339-1.495-0.489-2.281-0.522
	c0-0.226-0.002-0.446-0.007-0.67c-0.004,0.224-0.009,0.444-0.019,0.669c-0.812-0.03-1.635,0.068-2.413,0.228
	c-1.688,0.352-3.298,0.982-4.845,1.711c-0.165,0.08-0.33,0.16-0.495,0.241c-0.898,0.136-1.652,0.617-2.307,1.067
	c-0.279,0.207-0.548,0.423-0.807,0.645c-0.172,0.104-0.344,0.207-0.515,0.312c-0.309,0.021-0.617,0.083-0.906,0.185
	c-0.661-0.204-1.438-0.178-2.055,0.17c-0.844,0.448-1.404,1.11-1.865,1.898c0,0-2.07,4.033,3.662,1.599
	c1.139,0.44,2.335,0.671,3.534,0.715c0.004,0.004,0.009,0.01,0.013,0.015c1.055,1.181,2.488,2.237,4.153,2.293
	c1.65,0.079,3.207-1.076,3.625-2.6c-0.52,1.497-2.101,2.473-3.607,2.301c-1.359-0.133-2.51-0.985-3.399-2.005
	c0.586-0.018,1.17-0.079,1.747-0.184c0.349,0.229,0.726,0.41,1.141,0.527c0.553,0.175,1.136,0.141,1.671-0.034
	c0.02,0.035,0.039,0.071,0.059,0.105c0.169,0.221,0.22,0.493,0.685,0.657c0.317,0.039,0.472-0.216,0.525-0.33
	c0.071-0.141,0.107-0.273,0.139-0.403c0.061-0.364,0.104-0.729,0.136-1.089c0.21-0.236,0.396-0.49,0.563-0.756
	c0.152,0.017,0.306,0.026,0.461,0.027c0.017,0,0.033-0.001,0.051-0.001c0.044,0.04,0.09,0.076,0.134,0.118
	c0.337,0.282,0.718,0.56,1.214,0.666c0.5,0.127,1.078-0.109,1.381-0.474c0.626-0.722,0.833-1.581,1.028-2.402
	c0.063-0.331,0.117-0.663,0.164-0.995c0.101-0.305,0.174-0.616,0.222-0.936c0.382-0.223,0.755-0.461,1.118-0.714
	c0.021,0.033,0.046,0.071,0.064,0.108c0.427,0.727,0.798,1.517,1.468,2.116c0.085,0.072,0.195,0.136,0.326,0.157
	c0.141,0.027,0.29-0.069,0.353-0.175c0.122-0.216,0.146-0.44,0.166-0.656c0.029-0.435-0.004-0.862-0.054-1.287
	c-0.079-0.67-0.207-1.331-0.361-1.989c0.458-0.516,0.863-1.083,1.178-1.706c0.606-1.155,0.872-2.472,0.819-3.765
	c-0.121-2.606-1.291-4.992-2.641-7.12c-0.038-0.059-0.073-0.115-0.109-0.173c0.247-0.184,0.501-0.36,0.76-0.526
	c0.226-0.148,0.454-0.317,0.589-0.578c0.147-0.267,0.063-0.605-0.104-0.818c-0.536-0.635-1.245-1.013-1.962-1.363
	c-0.092-0.383-0.191-0.763-0.308-1.139c-0.534-1.723-1.271-3.436-2.48-4.788c1.172,1.386,1.852,3.106,2.338,4.83
	c0.091,0.33,0.171,0.664,0.242,0.998c-0.173-0.083-0.346-0.166-0.515-0.252c-0.359-0.17-0.728-0.333-1.092-0.498
	c-0.431-0.729-0.854-1.461-1.271-2.199c-0.382-0.68-0.757-1.364-1.122-2.053c-0.542-1.295-1.154-2.559-1.836-3.785
	c-0.14-0.316-0.274-0.639-0.405-0.959c-0.947-2.339-1.672-4.806-1.748-7.348C20.012,7.696,20.708,10.176,21.631,12.531z
	 M29.417,38.006c-0.409,0.473-0.871,0.903-1.373,1.275c-0.147,0.113-0.297,0.224-0.445,0.331c-0.202-0.278-0.435-0.537-0.69-0.771
	c0.226-0.485,0.423-0.979,0.599-1.479c0.32-0.957,0.573-1.928,0.768-2.908c0.458,1.117,0.823,2.27,1.117,3.44
	C29.398,37.931,29.407,37.969,29.417,38.006z M25.015,43.207c-0.583,0.649-1.4,1.066-2.258,1.142
	c-0.125-0.113-0.254-0.225-0.388-0.329c0.619-0.359,1.201-0.779,1.729-1.255c0.088-0.036,0.172-0.079,0.249-0.128
	c0.5-0.33,0.823-0.755,1.077-1.199c0.182-0.09,0.363-0.183,0.541-0.276c-0.03,0.224-0.064,0.447-0.104,0.668
	C25.664,42.332,25.387,42.799,25.015,43.207z M20.904,45.519c-0.231,0.225-0.496,0.408-0.778,0.548
	c-0.101-0.258-0.191-0.525-0.277-0.793c0.407-0.181,0.804-0.382,1.188-0.605c0.012-0.006,0.024-0.011,0.038-0.016
	c0.011,0.004,0.021,0.008,0.032,0.011c-0.025,0.252-0.057,0.5-0.092,0.748C20.979,45.449,20.943,45.482,20.904,45.519z
	 M22.004,42.199c0.011,0.009,0.023,0.019,0.036,0.026c-0.226,0.071-0.451,0.142-0.676,0.208c-0.01-0.22-0.021-0.438-0.032-0.654
	C21.567,41.897,21.793,42.039,22.004,42.199z M21.444,42.975c0.288-0.088,0.575-0.182,0.861-0.276
	c-0.191,0.153-0.389,0.304-0.591,0.444c-0.104,0.074-0.21,0.147-0.317,0.221c-0.002-0.125-0.006-0.247-0.01-0.37
	C21.405,42.987,21.425,42.98,21.444,42.975z M12.994,42.943c0.139-0.056,0.277-0.105,0.418-0.155
	c0.035,0.019,0.069,0.035,0.104,0.054c-0.104,0.026-0.208,0.06-0.311,0.089c-0.093,0.028-0.186,0.058-0.278,0.087
	C12.949,42.991,12.972,42.968,12.994,42.943z M14.317,42.526c0.561-0.128,1.134-0.189,1.699-0.161
	c-0.533,0.053-1.064,0.138-1.586,0.25C14.394,42.585,14.355,42.554,14.317,42.526z M13.397,43.746
	c0.319-0.104,0.641-0.196,0.965-0.279c0.113,0.105,0.225,0.222,0.333,0.34c-0.383,0.053-0.766,0.101-1.149,0.145
	C13.498,43.881,13.448,43.813,13.397,43.746z M15.116,43.295c1.028-0.202,2.069-0.285,3.112-0.207
	c0.057,0.006,0.112,0.013,0.169,0.019c0.016,0.011,0.033,0.021,0.049,0.031c0.002,0.006,0.004,0.013,0.006,0.021
	c-0.996,0.212-2,0.391-3.008,0.541C15.341,43.562,15.23,43.428,15.116,43.295z M19.729,44.164c-0.063,0.017-0.127,0.03-0.192,0.045
	c-0.03-0.116-0.061-0.232-0.09-0.353c0.139,0.094,0.281,0.185,0.428,0.27C19.827,44.139,19.778,44.152,19.729,44.164z
	 M21.206,43.262c-0.091-0.048-0.182-0.094-0.274-0.14c0.095-0.025,0.189-0.054,0.284-0.08
	C21.212,43.116,21.208,43.187,21.206,43.262z M20.748,43.762c-0.071,0.039-0.144,0.078-0.215,0.117
	c-0.262-0.131-0.515-0.28-0.756-0.447c0.026-0.008,0.052-0.016,0.078-0.021C20.16,43.508,20.458,43.624,20.748,43.762z
	 M18.13,42.317c-0.463-0.23-0.956-0.402-1.466-0.473c-0.49-0.089-0.985-0.105-1.475-0.068c0.737-0.232,1.486-0.417,2.24-0.518
	C17.708,41.539,17.944,41.913,18.13,42.317z M14.794,44.419c0.125-0.019,0.25-0.038,0.374-0.058
	c0.027,0.035,0.055,0.068,0.083,0.105C15.098,44.452,14.946,44.438,14.794,44.419z M15.979,44.423
	c-0.042-0.057-0.083-0.111-0.125-0.172c0.932-0.155,1.859-0.338,2.782-0.546c0.07,0.212,0.14,0.427,0.211,0.644
	c-0.919,0.153-1.855,0.205-2.794,0.17C16.03,44.486,16.005,44.454,15.979,44.423z M26.062,40.413
	c-0.006,0.054-0.014,0.105-0.02,0.16c-0.043,0.023-0.087,0.047-0.13,0.068C25.962,40.566,26.012,40.49,26.062,40.413z M26.38,33.401
	c-0.022-0.225-0.04-0.449-0.062-0.674c-0.067-0.679-0.15-1.356-0.245-2.032c0.077,0.086,0.154,0.173,0.229,0.261
	c0.031,0.038,0.062,0.077,0.093,0.115C26.414,31.849,26.41,32.627,26.38,33.401z M21.233,42.472
	c-0.377,0.106-0.757,0.208-1.139,0.304c-0.33-0.116-0.668-0.209-1.011-0.279c-0.032-0.109-0.067-0.219-0.104-0.327
	c-0.118-0.335-0.262-0.668-0.45-0.991c0.95-0.017,1.893,0.154,2.718,0.56C21.244,41.98,21.239,42.228,21.233,42.472z M26.939,37.157
	c-0.1,0.262-0.206,0.521-0.316,0.775c0.6-1.604,0.917-3.31,0.955-4.992c0.027,0.055,0.058,0.109,0.086,0.165
	c0.087,0.177,0.171,0.353,0.253,0.528C27.681,34.837,27.36,36.015,26.939,37.157z M27.717,33.079
	c-0.044-0.088-0.091-0.173-0.137-0.258c0.052-1.866-0.16-3.707-0.559-5.508c0.409-0.465,0.862-0.894,1.339-1.284
	c0.025-0.021,0.055-0.042,0.081-0.062c0.012,0.205,0.021,0.406,0.024,0.611c0.044,2.319-0.093,4.671-0.529,6.947
	C27.864,33.375,27.792,33.226,27.717,33.079z M28.43,25.752c-0.062,0.046-0.121,0.092-0.183,0.14
	c-0.452,0.356-0.886,0.75-1.281,1.177c-0.229-0.989-0.513-1.964-0.839-2.925c-0.225-1.023-0.486-2.038-0.789-3.04
	c0.249,0.118,0.497,0.232,0.744,0.349c0.755,1.315,1.53,2.618,2.319,3.914C28.414,25.493,28.422,25.623,28.43,25.752z
	 M26.228,28.351c0.005,0.053,0.012,0.105,0.017,0.155c0.073,0.836,0.126,1.675,0.147,2.513c-0.021-0.026-0.044-0.057-0.066-0.083
	c-0.082-0.097-0.169-0.192-0.259-0.285c-0.075-0.536-0.158-1.072-0.253-1.603C25.938,28.81,26.079,28.577,26.228,28.351z
	 M25.694,29.282c0.057,0.382,0.107,0.768,0.154,1.153c-0.149-0.143-0.31-0.276-0.478-0.398
	C25.464,29.78,25.572,29.527,25.694,29.282z M25.134,34.313c-0.226-1.02-0.262-2.077-0.077-3.101
	c0.069-0.396,0.173-0.782,0.309-1.158c0.171,0.125,0.334,0.266,0.487,0.412c0.093,0.759,0.167,1.521,0.229,2.282
	c0.061,0.909,0.109,1.827,0.139,2.743c-0.042,0.384-0.092,0.765-0.15,1.146c-0.014,0.087-0.029,0.172-0.043,0.259
	C25.679,36.025,25.308,35.215,25.134,34.313z M25.672,38.309c-0.597,1.292-1.392,2.479-2.378,3.489
	c-0.075,0.027-0.149,0.057-0.224,0.082c-0.006-0.003-0.013-0.007-0.02-0.012c0.308-1.326,0.427-2.682,0.439-4.035
	C24.246,37.857,24.988,37.994,25.672,38.309z M21.113,38.082c0.76-0.163,1.557-0.269,2.341-0.25
	c-0.063,1.328-0.232,2.649-0.572,3.922c-0.101-0.073-0.209-0.165-0.328-0.27c-0.393-0.312-0.824-0.561-1.278-0.749
	c-0.003-0.062-0.006-0.121-0.009-0.183c-0.001,0.06-0.002,0.118-0.003,0.178c-0.909-0.384-1.909-0.543-2.865-0.528
	c-0.223,0.002-0.443,0.015-0.664,0.028c-0.313-0.244-0.689-0.432-1.101-0.495c-0.024-0.005-0.048-0.006-0.072-0.009
	C18.021,39.028,19.537,38.43,21.113,38.082z M18.257,46.215c-0.182-0.06-0.358-0.133-0.526-0.224
	c0.525-0.127,1.043-0.288,1.547-0.483c0.1,0.252,0.204,0.502,0.322,0.751C19.159,46.373,18.696,46.368,18.257,46.215z
	 M20.797,46.559c-0.025,0.17-0.156,0.335-0.188,0.388c-0.043-0.056-0.215-0.26-0.293-0.449c-0.01-0.021-0.019-0.042-0.03-0.062
	c0.228-0.117,0.439-0.262,0.629-0.425C20.877,46.194,20.84,46.377,20.797,46.559z M21.378,45.006c0.004-0.09,0.009-0.18,0.012-0.269
	c0.054,0.012,0.109,0.022,0.165,0.035C21.498,44.852,21.438,44.929,21.378,45.006z M24.752,44.791
	c-0.412,0.48-1.001,0.348-1.518-0.026c0.816-0.181,1.572-0.631,2.114-1.252c0.061-0.069,0.119-0.142,0.174-0.212
	C25.347,43.863,25.113,44.403,24.752,44.791z M26.614,40.247c0.017-0.268,0.017-0.535,0-0.806c0.064-0.126,0.13-0.253,0.19-0.381
	c0.226,0.203,0.429,0.431,0.611,0.674C27.153,39.912,26.888,40.084,26.614,40.247z M29.85,40.397
	c0.044,0.42,0.069,0.845,0.036,1.261c-0.02,0.203-0.054,0.416-0.146,0.571c-0.093,0.159-0.268,0.103-0.423-0.026
	c-0.604-0.552-0.982-1.345-1.399-2.083c-0.022-0.044-0.05-0.085-0.072-0.129c0.16-0.113,0.319-0.233,0.477-0.357
	c0.429-0.342,0.837-0.719,1.21-1.125C29.67,39.135,29.781,39.763,29.85,40.397z M31.271,32.935c0.095,1.829-0.607,3.572-1.76,4.956
	c-0.002-0.01-0.004-0.018-0.006-0.023c-0.315-1.21-0.712-2.398-1.205-3.547c0.491-2.557,0.588-5.173,0.471-7.756
	c-0.016-0.229-0.028-0.454-0.05-0.682c0.014,0.021,0.024,0.042,0.039,0.062C30.077,28.074,31.188,30.434,31.271,32.935z
	 M30.014,23.785c0.37,0.441-0.008,0.952-0.456,1.188c-0.264,0.164-0.519,0.334-0.768,0.513c-0.044-0.067-0.085-0.134-0.127-0.201
	c-0.102-0.944-0.253-1.884-0.469-2.809C28.877,22.824,29.545,23.207,30.014,23.785z M27.403,22.072
	c0.191,0.1,0.384,0.196,0.578,0.292c0.168,0.801,0.29,1.609,0.37,2.422c-0.655-1.054-1.302-2.112-1.937-3.182
	C26.747,21.762,27.075,21.917,27.403,22.072z M24.921,19.384c0.36,0.658,0.729,1.314,1.102,1.964
	c-0.235-0.105-0.472-0.211-0.706-0.318c-0.25-0.822-0.526-1.639-0.827-2.444C24.631,18.853,24.775,19.118,24.921,19.384z"/>
</svg>
