<?xml version="1.0" encoding="utf-8"?>
<!-- Generator: Adobe Illustrator 16.0.0, SVG Export Plug-In . SVG Version: 6.00 Build 0)  -->
<!DOCTYPE svg PUBLIC "-//W3C//DTD SVG 1.1//EN" "http://www.w3.org/Graphics/SVG/1.1/DTD/svg11.dtd">
<svg version="1.1" id="Layer_1" xmlns="http://www.w3.org/2000/svg" xmlns:xlink="http://www.w3.org/1999/xlink" x="0px" y="0px"
	 width="50px" height="50px" viewBox="0 0 50 50" enable-background="new 0 0 50 50" xml:space="preserve">
<path fill="#231F20" d="M12.765,16.312c0,0,0.016-0.033,0.04-0.086C13.002,15.723,12.765,16.312,12.765,16.312z M9.732,22.991
	l-0.031,0.006C9.701,22.997,9.686,23.016,9.732,22.991z M9.993,0.738c0.001,0,0.001,0,0.001,0c0.083-0.058,0.177-0.108,0.279-0.15
	c-0.021,0-0.042,0-0.063,0.001C10.135,0.632,10.062,0.681,9.993,0.738z M20.624,6.291c-0.227-0.306-0.479-0.573-0.764-0.792
	C20.125,5.751,20.38,6.016,20.624,6.291z M31.759,26.883c0.255,0.333,0.471,0.71,0.633,1.148
	C32.26,27.606,32.04,27.225,31.759,26.883z M33.424,37.345c-0.156-0.517-0.428-1.004-0.701-1.489
	c-0.045-0.564-0.117-1.163-0.223-1.805c0,0-0.617-1.207-1.536-3.044c0.1-0.324,0.185-0.667,0.185-0.973
	c-0.012-1.065-0.206-1.96-0.587-2.713c-0.021-0.58-0.123-1.139-0.345-1.673c0.598,0.333,1.135,0.742,1.542,1.235
	c-0.444-0.577-1.008-1.02-1.62-1.409c-0.35-0.746-0.939-1.443-1.873-2.083c-0.41-0.274-0.876-0.464-1.348-0.639
	c-0.616-1.295-1.216-2.577-1.756-3.769c0.006-0.191,0.008-0.4,0.003-0.625c-0.016,0.196-0.03,0.373-0.044,0.535
	c-0.697-1.541-1.293-2.926-1.697-3.989c-0.012-0.272-0.033-0.571-0.065-0.89c0.003,0.264,0.007,0.514,0.011,0.748
	c-0.212-0.57-0.365-1.039-0.444-1.38c0.088-0.279,0.149-0.638,0.143-1.112c0.144,0.61,0.235,1.205,0.291,1.745
	c-0.004-0.373-0.007-0.771-0.007-1.18c0-0.333,0.002-0.603,0-0.838c0.716,0.743,0.794,1.363,1.366,3.386
	c0.321,1.135,0.431,2.16,0.448,2.976c0.013-0.135,0.024-0.276,0.037-0.429c0.152-1.729-0.333-3.669-0.97-5.035
	c-0.175-0.374-0.504-0.808-0.891-1.24c-0.05-0.874-0.29-1.363-1.384-3.462c-0.352-0.676-0.813-1.313-1.333-1.902
	c0.529,0.711,0.93,1.637,1.324,2.679c-0.289-0.425-0.632-0.873-1.027-1.367c0.61,0.859,1.126,1.99,1.642,3.2
	c0.012,0.027,0.022,0.054,0.033,0.081c-0.407-0.396-0.812-0.756-1.125-1.025c-0.564-1.16-1.289-2.492-2.155-3.77
	c0.154,0.121,0.334,0.256,0.547,0.406c0.203,0.143,0.395,0.315,0.578,0.511c-0.748-0.918-1.251-1.339-1.557-1.532
	c-0.173-0.237-0.349-0.471-0.532-0.7c0.275,0.073,0.611,0.202,1.025,0.416c0.171,0.088,0.331,0.192,0.482,0.309
	c-0.688-0.656-1.434-1.231-2.155-1.705c-0.159-0.403-0.37-0.783-0.671-1.119c-0.509-0.569-1.176-1.021-1.863-1.348
	c-0.688-0.326-1.312-0.742-1.988-1.082c-0.894-0.449-1.825-0.186-2.749,0.037c-0.828,0.2-1.425,0.435-1.879,1.081
	c-0.218,0-0.447,0.042-0.674,0.156c0,0-3.084,3.185-4.196,3.782c0,0-1.103,0.465-1.628,1.618c0,0-0.496,2.336,0.051,3.256
	c0,0,0.181,0.212,0.11,0.971c0,0-0.01,2.204,2.528,3.417c0.041-0.424-0.116-0.86-0.116-0.86c-0.897-0.695-0.607-1.866-0.607-1.866
	c0.023-0.235,0.073-2.146,0.086-2.678c0.955,1.09,2.559,2.221,2.891,3.008c0.88,2.094,1.578,3.944,2.64,5.976
	c0.667,1.275,1.122,2.639,0.879,4.065c1.001-2.124-0.85-4.278-1.759-6.037c-1.031-2.002-0.971-4.55-2.305-6.249
	C6.17,9.569,5.791,9.16,5.399,8.748c0.158,0.017,0.319,0.031,0.483,0.044c1.045,0.672,2.434,1.307,2.969,1.403
	c0.524,0.019,1.231,0.025,1.882,0.028c0.652,1.024,1.373,2.101,1.373,2.101c1.022,1.275,1.052,2.064,1.052,2.064
	c0.145,0.645-0.23,1.558-0.354,1.836c-0.015,0.036-0.031,0.078-0.05,0.126c-0.284,0.718,0.83,0.415,0.83,0.415
	c0.323,0.344,0.415,1.902,0.415,1.902c-0.102,0.961-1.143,2.113-1.143,2.113c-1.771,1.396-2.002,1.396-2.002,1.396
	c-0.791,0.601-1.043,0.771-1.121,0.813l0.837-0.154l2.752-0.256c-0.203,0.637-0.402,1.26-0.581,1.871
	c-0.093,0.072-0.187,0.145-0.281,0.217c-1.15,0.158-2.333,0.246-3.183,0.634c-0.364,0.152-0.607,0.364-0.88,0.667
	c0.852-0.4,2.032-0.499,3.213-0.628c-0.672,0.568-1.288,1.233-1.666,2.206c-0.364,0.939-0.425,1.972-0.273,2.942
	c0.698-1.79,1.244-3.731,2.67-5.157c0.032-0.032,0.068-0.062,0.103-0.093c0.027-0.004,0.054-0.009,0.083-0.012
	c-0.684,2.602-0.854,5.044,0.847,7.739c0.16,0.253,0.326,0.49,0.498,0.717c0.025,0.088,0.051,0.176,0.078,0.265
	c-0.009-0.065-0.017-0.131-0.025-0.195c0.516,0.667,1.088,1.23,1.73,1.74c-0.002,0.152-0.004,0.306-0.007,0.458
	c-0.309,0.074-0.69,0.117-1.164,0.099c0,0,0.514,0.164,1.157,0.146c-0.006,0.182-0.013,0.362-0.022,0.544
	c-0.031,0.454-0.273,1.03-0.456,1.456c0.298-0.619,0.505-1.298,0.592-2.005c0.22-0.015,0.453-0.052,0.683-0.125
	c0.312,0.212,0.638,0.418,0.98,0.623c-0.26-0.231-0.509-0.468-0.751-0.708c0.543-0.236,1.045-0.701,1.307-1.579
	c0,0,0.105-0.947-0.087-1.929c0,0-0.14-0.808,0.123-1.912c0,0-0.123,2.333,0.631,3.543c0,0,0.005,0.008,0.013,0.021
	c-0.51,3.68-4.132,6.854-2.459,10.835c0.395,0.94,1.396,2.093,2.215,2.7c-1.336-1.28-1.788-2.622-1.772-3.996
	c0.067,0.126,0.144,0.249,0.232,0.366c0,0-0.118-0.183-0.229-0.495c0.037-1.17,0.403-2.363,0.841-3.562
	c0.519-0.634,1.474-1.906,1.861-3.116c0,0,0.26,1.125-0.751,2.904c0,0-2.184,2.427-0.121,6.391c0,0,2.216,3.361,3.118,1.719
	c1.184,1.754,3.6,2.725,4.951,0.577c0.227-0.363,0.267-1.015,0.247-1.548c0.789-0.356,1.534-0.904,1.965-1.744
	c0.286,0.115,0.558,0.127,0.833,0.048c-0.248,0.006-0.514-0.034-0.796-0.128c0.125-0.261,0.221-0.547,0.278-0.865
	c0,0,0.439-0.095,1.016-0.47c0.021-0.001,0.042-0.003,0.063-0.004c-0.014-0.003-0.028-0.006-0.044-0.01
	c0.271-0.178,0.57-0.419,0.869-0.738c0.014,0.197,0.014,0.39-0.005,0.576c-0.246,0.108-0.53,0.16-0.82,0.172
	c0.274,0.055,0.536,0.069,0.788,0.046c-0.088,0.438-0.312,0.833-0.785,1.146c-0.194,0.129-0.38,0.222-0.564,0.274
	c0.941-0.021,1.636-0.695,2.029-1.591c0.445-0.188,0.856-0.525,1.235-1.02C33.817,41.258,33.878,38.861,33.424,37.345z M9.978,1.649
	L9.833,1.802c0,0-0.217-0.165-0.546-0.292C9.471,1.337,9.787,1.518,9.978,1.649z M9.789,1.034c0.345,0.005,0.419-0.003,0.76,0.122
	c-0.129,0.069-0.261,0.155-0.342,0.252l-0.11,0.116C9.961,1.296,10.049,1.171,9.789,1.034z M4.956,8.284
	c-0.102-0.107-0.203-0.212-0.3-0.315C4.69,7.938,4.727,7.91,4.768,7.882c0.133,0.169,0.337,0.353,0.585,0.542
	C5.217,8.385,5.084,8.338,4.956,8.284z M5.496,8.463C5.251,8.227,5.161,7.966,5.277,7.675c0.039-0.008,0.079-0.015,0.12-0.021
	c0,0,0.704-0.389,0.993-0.566c0.689,0.428,1.553,0.607,2.443,0.675C9.399,8.12,9.709,8.481,9.709,8.481
	c0.014,0.039,0.04,0.096,0.074,0.165c-1.15-0.004-2.646-0.017-3.388-0.059C6.096,8.578,5.791,8.537,5.496,8.463z M5.975,8.799
	c1.587,0.123,3.38,0.126,3.959,0.123c0.171,0.3,0.419,0.702,0.688,1.125C8.805,9.735,6.966,9.344,5.975,8.799z M12.236,0.889
	c-0.209-0.124-0.411-0.232-0.555-0.307c-0.381-0.196-0.966-0.174-1.408,0.006c0.418-0.004,0.918,0.079,1.153,0.151
	c0.134,0.041,0.262,0.092,0.387,0.148c-0.29,0.01-0.583,0.041-0.881,0.099c0,0-0.128,0.044-0.284,0.118
	c-0.188-0.166-0.398-0.3-0.653-0.367C9.989,0.743,9.982,0.747,9.976,0.751c0.006-0.005,0.012-0.009,0.018-0.014
	C9.905,0.715,9.811,0.699,9.711,0.694c0.111-0.067,0.292-0.098,0.499-0.105c0.292-0.166,0.623-0.238,0.959-0.287
	c0.521-0.076,1.136,0.016,1.622,0.228c0.29,0.126,0.524,0.352,0.814,0.487c0.301,0.141,0.601,0.229,0.882,0.414
	c0.059,0.04,0.118,0.082,0.176,0.125C13.896,1.168,13.086,0.928,12.236,0.889z M14.102,24.073c0.083-0.058,0.165-0.115,0.245-0.176
	c-0.002,0.118-0.004,0.238-0.005,0.359c-0.124,0.044-0.251,0.084-0.381,0.121C14.007,24.276,14.054,24.174,14.102,24.073z
	 M13.21,29.407c-0.273-1.881,0.016-3.225,0.489-4.418c0.222-0.062,0.436-0.133,0.637-0.219c-0.008,0.991-0.002,2.026,0.032,2.797
	c-0.472,0.966-0.813,2.002-0.851,3.303C13.383,30.401,13.278,29.915,13.21,29.407z M13.838,31.818
	c0.047-1.16,0.274-2.224,0.619-3.258c0.013,0.066,0.027,0.12,0.042,0.157c0,0,0.265,1.137,0.795,2.2
	c0.246,1.299,0.349,2.622,0.36,3.948C14.893,33.936,14.274,32.93,13.838,31.818z M15.781,35.916
	c0.008-0.104,0.014-0.209,0.017-0.312c0.091,0.069,0.184,0.139,0.278,0.207C15.987,35.849,15.89,35.884,15.781,35.916z
	 M16.78,35.296c0,0-0.111,0.184-0.418,0.37c-0.194-0.204-0.381-0.411-0.56-0.623c0.017-0.789,0.104-1.991,0.051-3.207
	c0.194,0.256,0.41,0.477,0.646,0.636C16.499,32.472,18.13,33.331,16.78,35.296z M18.485,37.249c0.187-0.558,0.346-1.114,0.452-1.667
	C18.911,36.045,18.791,36.604,18.485,37.249z M20.611,47.932c0,0-2.669-1.456-2.426-4.975c0,0,0.081-1.456,2.062-2.953
	c0,0-2.953,5.905-0.365,7.037c0,0-1.293-0.768-0.323-3.963c0,0-0.246,2.515,1.52,3.78c0.109,0.32,0.262,0.632,0.449,0.924
	C21.348,47.925,21.034,48.081,20.611,47.932z M22.857,13.093c-0.089-0.246-0.412-1.122-0.947-2.302
	c0.091,0.069,0.188,0.144,0.29,0.223c0.223,0.172,0.416,0.326,0.587,0.467C22.931,12.1,22.915,12.663,22.857,13.093z M23.14,47.547
	c0.174,0.014,0.354,0.022,0.546,0.021c0,0,1.48,0,2.896-0.58c-0.753,1.134-2.301,1.181-3.398,0.637
	C23.169,47.599,23.155,47.573,23.14,47.547z M24.99,49.023c-0.704,0.042-1.15-0.376-1.514-0.918
	c0.804,0.261,1.708,0.173,2.545-0.355c0.263-0.167,0.469-0.473,0.622-0.788c0.002-0.001,0.005-0.002,0.008-0.004
	C26.422,47.864,25.84,48.948,24.99,49.023z M26.984,22.891c1.461,0.435,2.283,1.244,2.695,2.303
	c-0.735-0.429-1.51-0.817-2.212-1.294C27.306,23.563,27.145,23.228,26.984,22.891z M27.988,24.978
	c-0.039-0.08-0.077-0.159-0.116-0.239c0.624,0.161,1.274,0.381,1.885,0.672c0.106,0.323,0.178,0.667,0.222,1.03
	C29.478,25.847,28.814,25.368,27.988,24.978z M29.931,28.937c-0.086-0.174-0.174-0.35-0.262-0.528
	c-0.098-0.243-0.21-0.47-0.338-0.684c-0.313-0.635-0.636-1.294-0.964-1.967c0.314,0.116,0.619,0.267,0.9,0.454
	c0.29,0.194,0.537,0.395,0.746,0.602C30.058,27.475,30.019,28.188,29.931,28.937z M30.298,29.676
	c0.162-0.749,0.271-1.474,0.267-2.169c0.586,0.975,0.55,2.091,0.338,3.38C30.713,30.508,30.51,30.102,30.298,29.676z M31.82,43.021
	c0.138-0.503,0.191-1.039,0.153-1.55c0.409-0.877,0.717-2.025,0.791-3.529C33.097,39.823,33.086,41.878,31.82,43.021z M20.47,7.041
	c0.157,0.194,0.308,0.38,0.451,0.562c-0.153-0.217-0.312-0.418-0.479-0.597C20.451,7.017,20.46,7.028,20.47,7.041z"/>
</svg>
