<?xml version="1.0" encoding="utf-8"?>
<!-- Generator: Adobe Illustrator 16.0.0, SVG Export Plug-In . SVG Version: 6.00 Build 0)  -->
<!DOCTYPE svg PUBLIC "-//W3C//DTD SVG 1.1//EN" "http://www.w3.org/Graphics/SVG/1.1/DTD/svg11.dtd">
<svg version="1.1" id="Layer_1" xmlns="http://www.w3.org/2000/svg" xmlns:xlink="http://www.w3.org/1999/xlink" x="0px" y="0px"
	 width="50px" height="50px" viewBox="0 0 50 50" enable-background="new 0 0 50 50" xml:space="preserve">
<path fill="#231F20" d="M49.035,14.92c0.233-0.437,1.252-2.503,0.888-4.711c0.076,0.539,0.137,1.934-0.896,3.407
	c-0.025-0.182-0.06-0.356-0.103-0.523c0.093-0.435,0.23-1.646-0.52-3.376c0,0,0.528,1.483,0.227,2.306
	c-0.443-1.313-1.331-2.954-3.024-4.878c0.965,1.143,1.958,2.579,2.541,4.153C47.434,9.75,44.885,6.491,36.116,0.615
	c1.424,0.96,8.815,6.051,11.021,9.739c-0.454-0.517-0.943-1-1.478-1.468c-1.159-0.985-2.53-1.833-4.113-2.206
	c-0.248-0.061-0.499-0.107-0.753-0.142c-0.733-0.352-1.509-0.627-2.322-0.79c-1.037-0.247-3.569-0.696-6.456-0.091
	c0,0,2.143-0.429,4.618-0.07c-0.485,0.016-0.968,0.08-1.438,0.188c-0.733,0.056-2.418,0.342-4.707,1.7
	c0.28-0.162,1.632-0.902,3.413-1.286c-0.141,0.058-0.278,0.12-0.414,0.186c-1.139,0.562-2.084,1.303-2.974,2.139
	C30.248,8.761,30,9.024,29.767,9.299c-0.999,0.818-1.838,1.83-2.36,3.022c-0.341,0.717-0.541,1.479-0.646,2.253
	c-0.327,0.898-0.483,1.853-0.544,2.783c-0.017,0.337-0.084,0.667-0.191,0.983c-1.352-0.356-2.681-0.932-4.123-1.131
	c-0.474-0.046-0.983-0.057-1.444,0.156c-0.425,0.182-0.743,0.548-0.926,0.951c-0.088-0.064-0.176-0.128-0.262-0.193
	c-0.262-0.157-0.449-0.347-0.871-0.444c-0.098-0.025-0.298-0.001-0.418,0.129c-0.101,0.118-0.132,0.238-0.143,0.327
	c-0.029,0.188-0.013,0.34,0.001,0.494c0.071,0.602,0.233,1.157,0.34,1.709c0.204,1.094,0.376,2.284-0.062,3.289
	c-0.222,0.502-0.641,0.787-1.136,0.948c-0.306-0.122-0.603-0.264-0.883-0.393c0.275,0.13,0.565,0.274,0.863,0.399
	c-0.422,0.133-0.897,0.178-1.354,0.192c-0.005-0.001-0.01-0.003-0.014-0.004c0.004,0.001,0.008,0.003,0.013,0.004
	c-0.135,0.004-0.269,0.005-0.398,0.005c-0.571,0.016-1.16-0.004-1.721,0.171c-0.601,0.146-0.927,0.775-0.888,1.345
	c-0.012-0.577,0.329-1.163,0.909-1.279c0.548-0.148,1.128-0.107,1.7-0.1c0.272,0.006,0.548,0.011,0.824,0
	c0.677,0.202,1.395,0.289,2.101,0.166c0.288-0.045,0.562-0.148,0.811-0.294c0.021-0.007,0.042-0.013,0.063-0.021
	c0.066-0.038,0.123-0.084,0.171-0.134c0.117-0.087,0.225-0.186,0.326-0.292c-0.05,0.35-0.19,0.688-0.481,0.904
	c-0.368,0.285-0.846,0.389-1.306,0.442c0.461-0.042,0.942-0.132,1.327-0.416c0.331-0.231,0.485-0.622,0.533-1.011
	c0.205-0.235,0.367-0.507,0.472-0.801c0.319-0.822,0.359-1.713,0.314-2.576c-0.02-0.43-0.058-0.85,0.001-1.258
	c1,0.683,2.107,1.271,3.324,1.507c-1.058,0.806-2.213,1.546-3.023,2.688c-0.596,0.84-0.776,1.931-0.594,2.919
	c0.112,0.614,0.281,1.213,0.502,1.791c0.072,2.037,1.347,3.802,2.865,5.027c-1.396-1.179-2.549-2.816-2.71-4.648
	c0.095,0.222,0.198,0.44,0.309,0.654c0.678,1.299,1.681,2.443,2.905,3.24c-0.104,0.347-0.254,0.675-0.468,0.944
	c-0.462-0.042-0.924-0.126-1.373-0.239c-1.377-0.344-2.699-0.906-4.026-1.455c-0.209-0.084-0.418-0.17-0.628-0.254
	c-0.318-0.566-0.558-1.179-0.715-1.797c0.14,0.603,0.355,1.206,0.648,1.769c-1.102-0.448-2.224-0.882-3.432-1.017
	c-0.721-0.069-1.511,0.029-2.119,0.475c-0.13,0.09-0.249,0.191-0.358,0.303c-0.023-0.001-0.047-0.002-0.07-0.002
	c-0.302-0.117-0.611-0.217-0.929-0.293c-0.652-0.149-1.377-0.164-2.003,0.141c-0.629,0.304-1.053,0.887-1.346,1.479
	c-0.601,1.155-0.73,2.678-1.963,3.312c-0.62,0.293-1.298-0.118-1.723-0.59c-0.45-0.481-0.801-1.054-1.086-1.648
	c0.275,0.602,0.617,1.179,1.061,1.672c0.417,0.479,1.108,0.927,1.775,0.629c1.296-0.644,1.449-2.203,2.059-3.312
	c0.297-0.576,0.712-1.118,1.298-1.387c0.582-0.271,1.257-0.249,1.882-0.096c0.145,0.038,0.29,0.081,0.432,0.129
	c-0.277,0.038-0.554,0.11-0.828,0.226c-0.71,0.36-1.056,1.093-1.335,1.752c-0.283,0.683-0.443,1.413-0.486,2.146
	c-0.002,0.054-0.004,0.106-0.005,0.159C7.903,36.44,7.7,37.072,7.589,37.716c-0.163,0.788-0.097,1.589-0.252,2.331
	c-0.283,1.521-1.354,2.811-2.72,3.544c-1.362,0.751-2.923,1.124-4.48,1.219c1.561-0.056,3.135-0.387,4.538-1.113
	c1.405-0.706,2.561-2.014,2.897-3.598c0.183-0.792,0.135-1.581,0.312-2.326c0.077-0.389,0.189-0.77,0.335-1.134
	c0.088,1.147,0.44,2.271,1.008,3.263c-0.571-1.055-0.899-2.244-0.936-3.438c0.122-0.28,0.263-0.55,0.425-0.807
	c0.356-0.57,0.834-1.045,1.386-1.407c-0.302,0.952-0.482,1.943-0.457,2.944c0.018,0.705,0.152,1.421,0.412,2.081
	c-0.519,0.35-0.999,0.753-1.425,1.204c-1.003,1.055-1.835,2.24-3,3.112c-1.119,0.862-2.484,1.621-3.948,1.488
	c1.462,0.156,2.851-0.583,3.99-1.435c1.182-0.854,2.053-2.05,3.054-3.068c0.421-0.431,0.891-0.814,1.395-1.144
	c0.266,0.619,0.645,1.185,1.15,1.637c-0.5-0.462-0.869-1.033-1.123-1.654c1.891-1.229,4.264-1.693,6.428-1.009
	c0.572,0.166,1.124,0.392,1.653,0.662c-0.466,0.187-0.926,0.383-1.381,0.598c-1.266,0.597-2.498,1.33-3.482,2.344
	c-0.993,1.006-1.664,2.272-2.119,3.586c0.503-1.296,1.218-2.526,2.228-3.476c1.001-0.958,2.231-1.631,3.5-2.172
	c0.554-0.236,1.118-0.447,1.688-0.645c0.577,0.33,1.125,0.713,1.642,1.134c0.224,0.181,0.441,0.37,0.655,0.564
	c-0.087,0.101-0.175,0.203-0.26,0.308c-2.021,1.391-3.893,3.019-5.688,4.642c1.661-1.377,3.354-2.738,5.148-3.93
	c-0.784,1.105-1.398,2.33-1.828,3.612c-0.41,0.261-0.812,0.535-1.2,0.83c-0.982,0.718-1.939,1.777-1.845,3.08
	c-0.067-1.305,0.897-2.327,1.887-3.025c0.359-0.263,0.731-0.508,1.109-0.743c-0.04,0.126-0.079,0.251-0.116,0.378
	c0.04-0.128,0.08-0.255,0.124-0.382c0.675-0.419,1.374-0.803,2.074-1.181c0.988-0.448,1.944-1.01,2.813-1.683
	c0.182,0.091,0.372,0.166,0.573,0.221c1.594,0.434,3.052-0.614,4.013-1.657c1.011-1.087,1.781-2.348,2.451-3.644
	c1.31-2.61,2.268-5.394,2.699-8.309c0.073-0.546,0.124-1.098,0.12-1.661c0.585-1.766,0.639-3.695,0.313-5.499
	c0.102-0.455,0.219-0.907,0.354-1.352c0.832-2.671,2.222-5.306,4.383-6.997c0.3-0.247,0.628-0.427,0.975-0.549
	c0.069-0.01,0.141-0.014,0.213-0.011c0.256,0.071,0.511,0.152,0.764,0.241c0.667,0.348,0.931,0.865,0.549,1.494
	c-0.076,0.125-0.073,0.42,0.004,0.808c-0.234-0.38-0.169-0.821-0.169-0.821c-0.101,0.425,0.049,0.832,0.137,1.021
	c-0.399-0.397-0.451-0.957-0.451-0.957c0.004,0.538,0.294,0.985,0.462,1.199c-0.395-0.357-0.738-0.498-0.738-0.498
	c0.582,0.397,0.895,0.81,1.047,1.062c-0.891-0.78-2.123-0.997-2.123-0.997c1.252,0.365,2.071,1.237,2.508,1.839
	c0.93,1.804,2.692,3.519,4.977,1.62C48.111,17.908,48.866,16.299,49.035,14.92z M27.957,11.951c0.203-0.365,0.438-0.709,0.698-1.032
	c-0.057,0.103-0.111,0.206-0.165,0.311C28.3,11.459,28.121,11.7,27.957,11.951z M32.991,20.516c-0.03-0.167-0.058-0.334-0.084-0.501
	c0.147-0.823,0.285-1.644,0.438-2.461c0.065-0.368,0.132-0.736,0.2-1.102c0.182-0.396,0.363-0.79,0.549-1.18
	c0.613-0.897,1.411-1.671,2.346-2.148c0.394-0.036,0.799-0.034,1.207,0.004c-0.05,0.039-0.099,0.079-0.146,0.121
	C35.187,15.135,33.836,17.797,32.991,20.516z M24.163,32.945c0.122,0.072,0.245,0.143,0.371,0.209
	c-0.026,0.214-0.053,0.421-0.086,0.619c-0.232,0.013-0.468,0.011-0.704-0.002C23.925,33.522,24.062,33.239,24.163,32.945z
	 M25.161,32.288c0.112-0.632,0.307-1.237,0.626-1.771c0.003-0.005,0.007-0.009,0.01-0.015c0.1,0.82,0.143,1.641,0.086,2.452
	c-0.013,0.185-0.033,0.369-0.059,0.554c-0.275,0.097-0.559,0.167-0.847,0.211c0.019-0.111,0.034-0.22,0.045-0.328
	c0.101,0.044,0.203,0.087,0.306,0.126c-0.103-0.043-0.204-0.088-0.304-0.134C25.063,33.006,25.074,32.649,25.161,32.288z
	 M26.476,28.872c-0.006-0.04-0.012-0.081-0.018-0.12c-0.062-0.433-0.146-0.881-0.213-1.305c0.171,0.139,0.348,0.271,0.535,0.396
	c0.204,0.13,0.417,0.255,0.651,0.36C27.098,28.4,26.774,28.621,26.476,28.872z M25.205,35.479c-0.075,0.139-0.156,0.271-0.246,0.401
	c-0.16,0.039-0.323,0.06-0.491,0.061c-0.428,0.019-0.868-0.034-1.305-0.127c0.013-0.004,0.026-0.01,0.039-0.015
	C23.875,35.749,24.545,35.645,25.205,35.479z M24.532,34.809c0.115-0.157,0.216-0.329,0.299-0.519
	c0.02-0.057,0.038-0.111,0.053-0.167c0.291-0.032,0.58-0.087,0.863-0.167c-0.038,0.183-0.084,0.363-0.137,0.541
	C25.258,34.621,24.898,34.725,24.532,34.809z M26.569,29.559c0.27-0.252,0.569-0.475,0.888-0.674
	c-0.183,0.332-0.275,0.7-0.367,1.049c-0.161,0.746-0.27,1.499-0.378,2.249C26.742,31.299,26.678,30.422,26.569,29.559z
	 M31.004,23.411c-0.011-0.182-0.028-0.366-0.05-0.55c0.062-0.589,0.123-1.175,0.188-1.756c0.053-0.079,0.104-0.16,0.155-0.24
	c-0.098,0.888-0.185,1.774-0.289,2.654C31.007,23.483,31.006,23.447,31.004,23.411z M31.505,19.161
	c-0.045,0.091-0.09,0.181-0.137,0.272c0.083-0.46,0.182-0.917,0.303-1.364C31.609,18.432,31.555,18.796,31.505,19.161z
	 M36.476,7.212c-0.627,0.282-1.211,0.63-1.753,1.024c-0.694,0.04-1.384,0.147-2.054,0.331C33.842,7.771,35.141,7.236,36.476,7.212z
	 M30.885,10.061c0.07-0.04,0.141-0.08,0.212-0.118c0.781-0.413,1.628-0.679,2.499-0.818c-0.892,0.22-1.761,0.525-2.61,0.914
	c-0.05,0.023-0.099,0.048-0.148,0.072C30.854,10.094,30.869,10.078,30.885,10.061z M29.744,11.556
	c0.477-0.351,0.992-0.651,1.534-0.894c0.439-0.193,0.896-0.362,1.362-0.507c-1.817,2.071-3.048,4.541-3.765,7.138
	c-0.113,0.412-0.209,0.83-0.29,1.251c-0.205,0.05-0.418,0.077-0.635,0.084c-0.014-0.041-0.026-0.083-0.04-0.125
	c0.226-1.177,0.303-2.3,0.52-3.389C28.658,13.835,29.095,12.625,29.744,11.556z M26.804,18.369c-0.001,0.05-0.005,0.099-0.012,0.146
	c-0.107-0.02-0.215-0.042-0.321-0.065c0.121-0.338,0.2-0.69,0.227-1.05c0.002-0.032,0.006-0.063,0.009-0.095
	C26.731,17.665,26.766,18.021,26.804,18.369z M26.944,16.883c0.024,0.113,0.052,0.227,0.082,0.338
	c0.016,0.066,0.032,0.131,0.05,0.197c-0.02,0.193-0.041,0.383-0.065,0.571C26.98,17.619,26.957,17.25,26.944,16.883z M26.672,18.896
	c-0.097,0.184-0.243,0.333-0.42,0.449c-0.072,0.002-0.145,0.003-0.217,0.001c0.106-0.17,0.203-0.348,0.287-0.532
	C26.438,18.843,26.555,18.871,26.672,18.896z M25.396,20.164c0.11-0.114,0.215-0.234,0.314-0.359c0.064-0.014,0.128-0.03,0.192-0.05
	c0.027,0.001,0.055,0.004,0.083,0.005c0.159,0.008,0.319,0.007,0.479,0c-0.264,0.359-0.641,0.594-1.17,0.64
	c-0.051,0.007-0.102,0.014-0.152,0.02C25.229,20.336,25.313,20.251,25.396,20.164z M26.648,19.316
	c0.043-0.047,0.083-0.097,0.12-0.149c-0.017,0.047-0.034,0.094-0.054,0.14C26.692,19.31,26.672,19.314,26.648,19.316z
	 M21.868,17.483c1.365,0.218,2.65,0.813,4.018,1.212c-0.099,0.22-0.218,0.432-0.355,0.634c-0.68-0.049-1.359-0.196-2.03-0.376
	c-0.584-0.129-1.151-0.365-1.769-0.451c-0.352-0.277-0.685-0.71-1.23-0.7c-0.204,0.012-0.375,0.085-0.521,0.193
	C20.431,17.5,21.178,17.346,21.868,17.483z M25.018,19.667c-0.14-0.001-0.279-0.012-0.412-0.034c-0.688-0.08-1.37-0.282-1.996-0.592
	c0.266,0.085,0.532,0.173,0.796,0.243C23.931,19.44,24.468,19.58,25.018,19.667z M21.457,18.475c-0.177-0.01-0.357-0.005-0.545,0.02
	c-0.249,0.049-0.431,0.201-0.558,0.392c-0.21-0.139-0.417-0.281-0.621-0.426c0.188-0.282,0.443-0.508,0.772-0.516
	C20.888,17.937,21.161,18.209,21.457,18.475z M18.118,25.015c-0.674,0.136-1.375,0.076-2.044-0.098
	c0.29-0.013,0.581-0.043,0.87-0.111c0.113-0.024,0.227-0.058,0.336-0.102c0.421,0.148,0.855,0.235,1.288,0.176
	C18.424,24.94,18.274,24.986,18.118,25.015z M18.694,24.822c-0.457,0.103-0.929,0.025-1.389-0.127
	c0.441-0.178,0.839-0.505,1.056-0.942c0.535-1.119,0.381-2.352,0.224-3.486c-0.089-0.577-0.227-1.136-0.268-1.678
	c-0.007-0.131-0.01-0.268,0.01-0.363c-0.001-0.015,0-0.025,0.004-0.033c0.145,0.034,0.411,0.226,0.619,0.38
	c0.124,0.098,0.25,0.198,0.377,0.296c-0.076,0.257-0.13,0.518-0.163,0.782c-0.144,0.731-0.136,1.489-0.061,2.225
	c0.047,0.508,0.175,1.009,0.268,1.503c0.05,0.333,0.063,0.731-0.09,1.033C19.108,24.576,18.91,24.716,18.694,24.822z M19.375,24.318
	c0.111-0.295,0.099-0.651,0.057-0.948c-0.087-0.508-0.206-0.997-0.246-1.505c-0.026-0.284-0.04-0.572-0.041-0.86
	c0.006,0.077,0.014,0.155,0.022,0.231c0.088,0.937,0.346,1.849,0.357,2.777c0,0.045-0.001,0.09-0.003,0.135
	C19.475,24.208,19.426,24.264,19.375,24.318z M20.156,20.898c0.066,0.845,0.05,1.715-0.236,2.513
	c-0.076,0.23-0.188,0.447-0.329,0.643c0-0.013,0.001-0.025,0.001-0.039c0.011-0.947-0.226-1.864-0.289-2.791
	c-0.063-0.75-0.029-1.518,0.189-2.229c0.209,0.161,0.425,0.32,0.645,0.477c-0.005,0.04-0.011,0.079-0.013,0.117
	C20.071,20.033,20.125,20.475,20.156,20.898z M20.57,19.026c0.097-0.137,0.229-0.235,0.403-0.263
	c0.312-0.038,0.635,0.005,0.963,0.084c0.792,0.527,1.701,0.865,2.647,0.988c0.172,0.019,0.349,0.03,0.526,0.029
	c-0.006,0.007-0.012,0.014-0.018,0.02c-0.177,0.199-0.367,0.386-0.566,0.564C23.149,20.425,21.816,19.819,20.57,19.026z
	 M20.891,23.978c0.851-1.156,2.132-1.873,3.309-2.766c0.391,0.042,0.793,0.047,1.205,0.005c0.626-0.053,1.345-0.342,1.778-0.917
	c0.181-0.228,0.312-0.469,0.414-0.713c0.055-0.014,0.108-0.031,0.162-0.046c0.04,0.175,0.07,0.35,0.086,0.524
	c0.105,0.953-0.876,1.525-1.769,1.848c-0.944,0.325-1.894,0.763-2.708,1.373c-1.527,1.093-2.696,2.836-2.794,4.734
	C20.134,26.639,20.004,25.154,20.891,23.978z M21.158,29.504c-0.159-0.347-0.314-0.713-0.451-1.091
	c-0.008-1.995,1.217-3.811,2.82-4.904c0.809-0.575,1.712-0.968,2.668-1.273c0.479-0.172,0.963-0.375,1.384-0.719
	c0.431-0.322,0.727-0.914,0.678-1.467c-0.016-0.223-0.051-0.438-0.095-0.647c0.101-0.039,0.2-0.079,0.299-0.123
	c-0.112,0.774-0.168,1.56-0.155,2.351c0.01,0.491,0.049,0.986,0.127,1.478c-0.267,0.168-0.547,0.312-0.846,0.405
	c-0.396,0.147-0.903,0.179-1.381,0.412c-0.979,0.429-1.502,1.455-1.696,2.387c-0.407,1.913-0.143,3.823-0.396,5.673
	c-0.035,0.26-0.087,0.526-0.163,0.784C22.756,31.951,21.795,30.795,21.158,29.504z M24.386,32.028
	c0.301-1.894,0.09-3.821,0.525-5.618c0.212-0.881,0.684-1.715,1.495-2.046c0.38-0.183,0.844-0.199,1.342-0.359
	c0.276-0.081,0.539-0.197,0.791-0.334c0.013,0.059,0.025,0.117,0.039,0.176c0.162,0.661,0.293,1.314,0.342,1.953
	c0.064,0.609-0.043,1.314-0.246,1.445c-0.125,0.173-0.805,0.021-1.315-0.317c-0.268-0.163-0.528-0.355-0.776-0.564
	c-0.143-0.104-0.176-0.196-0.504-0.4c-0.07-0.027-0.262-0.162-0.599-0.015c-0.302,0.192-0.298,0.394-0.321,0.466
	c-0.029,0.186-0.015,0.287-0.007,0.393c0.098,0.779,0.269,1.414,0.392,2.102c0.05,0.261,0.096,0.521,0.138,0.783
	c-0.134,0.173-0.258,0.354-0.368,0.548c-0.55,0.88-0.66,1.944-0.776,2.894c-0.124-0.069-0.244-0.143-0.363-0.217
	C24.273,32.62,24.34,32.316,24.386,32.028z M17.967,32.312c1.317,0.568,2.639,1.157,4.048,1.533
	c0.365,0.098,0.743,0.178,1.125,0.234c-0.092,0.069-0.192,0.131-0.301,0.182c-0.827,0.377-1.835,0.244-2.701-0.044
	c-1.035-0.368-1.857-1.114-2.456-2.027C17.777,32.229,17.872,32.271,17.967,32.312z M11.925,31.373
	c0.573-0.404,1.308-0.486,2.001-0.41c1.271,0.16,2.471,0.679,3.663,1.188c0.584,0.967,1.416,1.776,2.501,2.195
	c0.889,0.314,1.905,0.49,2.836,0.103c0.193-0.086,0.361-0.2,0.509-0.332c0.308,0.033,0.619,0.048,0.929,0.041
	c-0.136,0.318-0.348,0.584-0.61,0.8c-0.756,0.116-1.53,0.158-2.298,0.141c-0.21-0.007-0.42-0.018-0.631-0.032
	c-0.821-0.326-1.631-0.697-2.44-1.067c-1.324-0.608-2.645-1.241-4.019-1.761c-0.837-0.29-1.746-0.626-2.664-0.692
	C11.772,31.484,11.847,31.426,11.925,31.373z M19.18,34.84c-0.744-0.152-1.468-0.382-2.145-0.701
	c-0.862-0.515-1.865-0.923-2.905-1.099c-0.025-0.016-0.05-0.031-0.074-0.047c-0.617-0.406-1.251-0.807-1.921-1.136
	c0.722,0.137,1.444,0.411,2.119,0.668c1.343,0.545,2.642,1.205,3.953,1.845C18.531,34.528,18.854,34.686,19.18,34.84z M8.411,35.465
	c-0.033,0.057-0.064,0.113-0.095,0.17c0.065-0.698,0.235-1.387,0.519-2.027c0.293-0.651,0.645-1.328,1.283-1.627
	c0.37-0.148,0.753-0.207,1.142-0.209c-0.295,0.371-0.509,0.805-0.685,1.229c-0.09,0.207-0.175,0.418-0.255,0.63
	C9.536,34.065,8.863,34.693,8.411,35.465z M10.492,33.54c0.066-0.163,0.136-0.325,0.208-0.484c0.196-0.453,0.429-0.899,0.749-1.26
	c0.727,0.312,1.414,0.728,2.079,1.171c-0.37-0.029-0.741-0.026-1.111,0.014C11.747,33.04,11.091,33.234,10.492,33.54z
	 M18.611,38.922c-0.623-0.327-1.276-0.594-1.958-0.779c-2.238-0.67-4.662-0.152-6.565,1.113c-0.246-0.659-0.366-1.367-0.374-2.062
	c-0.009-1.039,0.204-2.062,0.545-3.04c0.664-0.4,1.422-0.643,2.199-0.693c0.738-0.055,1.461,0.035,2.162,0.235
	c1.995,1.28,4.207,2.361,6.664,2.433c0.274,0.004,0.562-0.013,0.852-0.053c0.04,0.014,0.078,0.027,0.117,0.04
	c0.69,0.217,1.409,0.395,2.173,0.392c-0.001,0-0.001,0.001-0.002,0.001c-0.924,0.953-2.323,1.197-3.653,1.65
	C20.048,38.397,19.325,38.647,18.611,38.922z M20.521,40.168c-0.462-0.364-0.95-0.699-1.46-0.997
	c0.612-0.203,1.229-0.39,1.849-0.569c1.288-0.394,2.807-0.583,3.937-1.64c0.213-0.187,0.404-0.393,0.575-0.61
	c0.136-0.047,0.269-0.101,0.397-0.161c-0.003,0.007-0.005,0.016-0.009,0.024c-0.383,0.98-1.01,1.905-1.943,2.42
	c-0.945,0.52-1.803,1.191-2.546,1.97c-0.038,0.04-0.074,0.081-0.112,0.122C20.991,40.526,20.764,40.335,20.521,40.168z
	 M26.396,38.279c-0.146,0.093-0.299,0.178-0.463,0.252c-1.616,0.594-3.131,1.401-4.571,2.339c-0.032-0.03-0.063-0.061-0.095-0.091
	c0.038-0.04,0.074-0.08,0.112-0.119c0.747-0.763,1.604-1.418,2.545-1.919c0.973-0.521,1.633-1.471,2.036-2.467
	c0.026-0.063,0.05-0.128,0.074-0.191c0.223-0.119,0.435-0.254,0.632-0.391c0.233-0.181,0.454-0.371,0.664-0.57
	C27.126,36.205,26.823,37.268,26.396,38.279z M27.791,34.646c0.19-0.212,0.371-0.433,0.54-0.659c0.131-0.108,0.258-0.223,0.38-0.342
	c-0.277,1.591-0.7,3.24-1.832,4.266C27.3,36.86,27.595,35.761,27.791,34.646z M28.008,33.055c0.017-0.166,0.031-0.333,0.044-0.5
	c0.002-0.013,0.002-0.024,0.003-0.037c0.295-0.282,0.566-0.584,0.816-0.905c-0.148,0.352-0.312,0.694-0.493,1.026
	C28.264,32.783,28.141,32.924,28.008,33.055z M30.483,29.109c0.103-0.411,0.192-0.822,0.272-1.232
	c0.004-0.021,0.007-0.045,0.012-0.068c0.122-0.398,0.229-0.801,0.319-1.2c0.029-0.13,0.057-0.261,0.083-0.392
	c0.146-0.279,0.271-0.564,0.388-0.85c0.048,1.07,0.104,2.133,0.054,3.173c-0.034,0.247-0.082,0.513-0.216,0.661
	c-0.123,0.146-0.348,0.134-0.582,0.059C30.7,29.217,30.592,29.166,30.483,29.109z M29.049,30.137
	c0.034,0.017,0.069,0.035,0.104,0.053c-0.005,0.055-0.011,0.108-0.016,0.163c-0.017,0.026-0.031,0.054-0.048,0.081
	c-0.296,0.482-0.625,0.96-0.995,1.397c0.016-0.386,0.029-0.766,0.079-1.125c0.037-0.282,0.123-0.605,0.252-0.705
	C28.504,29.907,28.782,29.994,29.049,30.137z M27.615,32.908c-0.014,0.181-0.029,0.36-0.047,0.541
	c-0.297,0.237-0.623,0.445-0.968,0.624c0.036-0.175,0.071-0.352,0.104-0.528C27.027,33.354,27.33,33.14,27.615,32.908z
	 M26.417,35.096c-0.026,0.021-0.052,0.043-0.078,0.064c0.004-0.013,0.009-0.026,0.012-0.039
	C26.373,35.113,26.395,35.104,26.417,35.096z M26.109,35.325c-0.032,0.021-0.063,0.042-0.096,0.063
	c0.028-0.059,0.054-0.117,0.08-0.176c0.018-0.007,0.034-0.013,0.052-0.018C26.134,35.238,26.121,35.282,26.109,35.325z
	 M21.045,41.077c-0.042,0.029-0.084,0.058-0.126,0.085c0.032-0.036,0.065-0.073,0.098-0.11
	C21.026,41.062,21.036,41.068,21.045,41.077z M20.301,44.472c-0.66,0.371-1.318,0.749-1.957,1.156
	c0.462-1.321,1.122-2.578,1.958-3.699c0.325-0.214,0.654-0.422,0.987-0.623c0.201,0.191,0.398,0.387,0.589,0.588
	c0.322,0.342,0.691,0.668,1.114,0.914C22.167,43.46,21.256,44.014,20.301,44.472z M23.327,42.531
	c-0.637-0.32-1.163-0.874-1.715-1.419c1.395-0.821,2.856-1.522,4.414-2.037c-0.091,0.18-0.185,0.357-0.285,0.533
	C25.125,40.735,24.294,41.706,23.327,42.531z M32.203,29.65c-0.386,2.735-1.271,5.431-2.478,7.933
	c-0.634,1.274-1.368,2.516-2.313,3.563c-0.912,1.021-2.211,1.939-3.554,1.585c-0.112-0.028-0.22-0.064-0.325-0.107
	c0.97-0.809,1.813-1.767,2.444-2.877c0.165-0.277,0.318-0.56,0.46-0.847c0.945-0.484,1.751-1.336,2.177-2.311
	c0.497-1.052,0.756-2.156,0.983-3.251c0.084-0.43,0.161-0.859,0.233-1.29c0.02-0.047,0.04-0.094,0.06-0.14
	c0.174-0.409,0.287-0.839,0.352-1.272c0.233,0.046,0.479,0.055,0.74-0.006C31.552,30.475,31.924,30.074,32.203,29.65z M32.55,21.884
	c0.016,0.059,0.029,0.119,0.043,0.178c-0.216,1.011-0.351,2.039-0.387,3.076c-0.025,0.736,0.014,1.489,0.087,2.211
	c0.025,0.264,0.035,0.531,0.031,0.803c-0.104,0.279-0.225,0.555-0.358,0.824c-0.264,0.518-0.628,1.025-1.111,1.156
	c-0.178,0.049-0.363,0.042-0.555,0.001c0.009-0.132,0.015-0.264,0.018-0.396c0.031-0.11,0.062-0.222,0.091-0.332
	c0.099,0.051,0.199,0.099,0.306,0.14c0.254,0.095,0.659,0.149,0.913-0.133c0.226-0.261,0.259-0.558,0.307-0.831
	c0.085-1.424-0.012-2.813-0.037-4.194c0.263-0.832,0.472-1.673,0.651-2.515C32.549,21.876,32.549,21.879,32.55,21.884z
	 M29.254,28.365c-0.04-0.019-0.082-0.036-0.124-0.053c0.041-0.02,0.081-0.039,0.121-0.062
	C29.251,28.289,29.253,28.327,29.254,28.365z M28.587,28.449c0.227,0.026,0.464,0.122,0.676,0.238
	c0.002,0.074,0.004,0.148,0.007,0.221c-0.021,0.258-0.045,0.514-0.068,0.771c-0.26-0.115-0.646-0.334-1.069-0.038
	c-0.338,0.335-0.342,0.686-0.4,1.004c-0.067,0.577-0.051,1.124-0.078,1.667c-0.266,0.265-0.552,0.504-0.858,0.708
	c0.169-1.018,0.304-2.039,0.531-3.028c0.132-0.502,0.294-1.037,0.646-1.362c0.109-0.104,0.237-0.161,0.374-0.181
	C28.425,28.455,28.505,28.455,28.587,28.449z M39.144,11.429c-0.774-0.143-1.584-0.214-2.401-0.161
	c0.405-0.325,0.873-0.562,1.34-0.639c0.252,0.119,0.491,0.266,0.715,0.436c0.15,0.116,0.292,0.245,0.429,0.381
	C39.198,11.441,39.171,11.435,39.144,11.429z M40.718,16.581c0.008,0.001,0.017,0.003,0.026,0.005
	c0.004,0.01,0.007,0.021,0.011,0.032C40.742,16.605,40.73,16.593,40.718,16.581z M45.606,7.145c-1.363-1.617-2.67-2.646-2.67-2.646
	C43.997,5.431,44.877,6.314,45.606,7.145z M49.879,9.973c0.017,0.079,0.03,0.157,0.044,0.235
	C49.901,10.058,49.879,9.973,49.879,9.973z M36.116,0.615c-0.153-0.104-0.238-0.16-0.238-0.16
	C35.958,0.509,36.037,0.562,36.116,0.615z M30.487,7.476c-0.035,0.02-0.054,0.031-0.054,0.031
	C30.452,7.496,30.47,7.486,30.487,7.476z"/>
</svg>
