<?xml version="1.0" encoding="utf-8"?>
<!-- Generator: Adobe Illustrator 16.0.0, SVG Export Plug-In . SVG Version: 6.00 Build 0)  -->
<!DOCTYPE svg PUBLIC "-//W3C//DTD SVG 1.1//EN" "http://www.w3.org/Graphics/SVG/1.1/DTD/svg11.dtd">
<svg version="1.1" id="Layer_1" xmlns="http://www.w3.org/2000/svg" xmlns:xlink="http://www.w3.org/1999/xlink" x="0px" y="0px"
	 width="50px" height="50px" viewBox="0 0 50 50" enable-background="new 0 0 50 50" xml:space="preserve">
<path fill="#231F20" d="M6.243,5.332C6.236,5.914,6.24,6.281,6.281,6.754c0,0-0.013,0.274,0.042,0.389
	c0.038,0.286,0.09,0.571,0.162,0.851C6.55,8.562,6.671,9.126,6.87,9.684c0.22,0.581,0.573,1.183,1.17,1.531
	c0.6,0.351,1.313,0.32,1.9,0.15c0.431-0.137,0.796-0.301,1.177-0.39c0.207,0.045,0.417,0.082,0.625,0.109
	c0.341,0.045,0.682,0.068,1.022,0.071c0.137,0.072,0.269,0.16,0.388,0.262c0.43,0.365,0.727,0.894,0.844,1.459
	c0.114,0.555,0.076,1.206-0.334,1.649c0.438-0.418,0.523-1.085,0.438-1.667c-0.087-0.593-0.361-1.169-0.807-1.596
	c-0.04-0.04-0.082-0.078-0.126-0.113c0.124-0.005,0.247-0.013,0.369-0.023c0.245-0.013,0.509-0.05,0.766-0.091
	c0.473,0.305,0.855,0.715,1.15,1.186c-0.344,0.7-0.56,1.464-0.668,2.229c0.122-0.753,0.349-1.501,0.697-2.181
	c0.129,0.211,0.242,0.435,0.338,0.666c-0.256,0.365-0.449,0.774-0.561,1.201c-0.521,2.028,0.181,4.089,1.023,5.895
	c-0.807-1.821-1.453-3.898-0.902-5.859c0.109-0.382,0.283-0.743,0.507-1.066c0.141,0.378,0.24,0.774,0.298,1.168
	c-0.05-0.402-0.142-0.806-0.28-1.194c0.279-0.393,0.634-0.729,1.047-0.973c0.193,1.003,0.264,2.068,0.022,3.066
	c-0.107,0.072-0.199,0.171-0.256,0.307c-0.067,0.19-0.064,0.367-0.03,0.53c-0.013,0.026-0.024,0.053-0.036,0.079
	c0.012-0.025,0.025-0.049,0.037-0.074c0.025,0.121,0.065,0.236,0.106,0.341c0.204,0.448,0.464,0.846,0.752,1.218
	c-0.043,0.527-0.097,1.051-0.159,1.574c0.077-0.5,0.148-1.004,0.208-1.51c0.195,0.247,0.402,0.481,0.613,0.712
	c-0.124,0.847-0.218,1.697-0.271,2.551c-0.059,1.024-0.064,2.052,0.043,3.072c0.007,0.056,0.014,0.112,0.021,0.168
	c-0.177,0.162-0.348,0.332-0.51,0.508c-1.191,1.271-1.897,2.963-2.026,4.689c-0.135,1.727,0.182,3.474,0.844,5.063
	c-0.643-1.598-0.937-3.347-0.781-5.059c0.149-1.711,0.868-3.369,2.055-4.608c0.141-0.149,0.288-0.293,0.439-0.432
	c0.123,0.904,0.312,1.822,0.814,2.593c-0.497-0.783-0.671-1.713-0.781-2.624c0.227-0.206,0.466-0.4,0.714-0.583
	c0.178,1.381,0.385,2.784,0.812,4.11c-0.239,0.313-0.517,0.597-0.841,0.831c0.325-0.22,0.608-0.489,0.854-0.79
	c0.168,0.515,0.368,1.018,0.614,1.503c-0.016,0.36-0.037,0.72-0.063,1.076c-0.012,0.163-0.026,0.328-0.04,0.492
	c-1.089,1.809-2.115,3.673-2.862,5.662c-0.805,2.12-1.235,4.398-1.155,6.665c0.081,2.269,0.639,4.494,1.496,6.58
	c-0.812-2.104-1.317-4.333-1.349-6.583c-0.029-2.25,0.444-4.48,1.284-6.557c0.67-1.673,1.542-3.252,2.487-4.791
	c-0.129,1.12-0.311,2.234-0.549,3.336c-0.354,1.579-0.794,3.154-1.515,4.614c0.778-1.43,1.282-2.996,1.698-4.57
	c0.344-1.335,0.605-2.691,0.789-4.059c0.093-0.15,0.188-0.3,0.283-0.449c0.926-1.259,1.417-2.758,1.662-4.291
	c0.162,0.55,0.336,1.094,0.518,1.636c-0.175-0.593-0.341-1.19-0.495-1.789c0.106-0.7,0.161-1.406,0.184-2.097
	c0.018-0.631,0.008-1.265-0.028-1.895c0.256,0.208,0.514,0.414,0.771,0.62c-0.259-0.221-0.517-0.443-0.774-0.667
	c-0.028-0.487-0.071-0.975-0.131-1.459c0.808-1.135,1.188-2.58,0.988-3.969c-0.008-0.079-0.021-0.159-0.033-0.237
	c0.069-0.029,0.138-0.061,0.204-0.098c0.53-0.28,0.902-0.757,1.159-1.244c0.197-0.387,0.343-0.783,0.453-1.188
	c0.137-0.016,0.273-0.041,0.407-0.075c0.573-0.131,1.106-0.358,1.607-0.64c0.167-0.017,0.332-0.049,0.496-0.104
	c0.623-0.197,1.113-0.636,1.472-1.118c0.019-0.016,0.041-0.029,0.056-0.048c1.407-1.976-4.29-9.222-12.646-9.944
	C8.23,1.433,6.266,3.288,6.243,5.332z M16.617,10.132c-0.031-0.01-0.061-0.021-0.091-0.029c-0.045-0.116-0.091-0.23-0.141-0.343
	c0.004,0.001,0.008,0.004,0.013,0.006C16.476,9.884,16.548,10.006,16.617,10.132z M15.149,9.939
	c-0.057,0.006-0.113,0.011-0.167,0.017c0.129-0.039,0.256-0.078,0.375-0.112c0.004,0.029,0.005,0.059,0.008,0.088
	C15.292,9.932,15.221,9.935,15.149,9.939z M15.782,9.763c0.127-0.013,0.256-0.018,0.385-0.016c0.048,0.098,0.094,0.196,0.137,0.295
	c-0.182-0.044-0.368-0.077-0.557-0.095C15.758,9.886,15.771,9.825,15.782,9.763z M15.317,9.445
	c-0.427,0.109-0.762,0.239-1.157,0.295c-0.589,0.099-1.191,0.066-1.766-0.08c0.146,0.005,0.295-0.002,0.44-0.023
	c0.524,0.054,1.039-0.081,1.48-0.274c0.153-0.067,0.308-0.126,0.463-0.172c0.184,0.043,0.358,0.091,0.523,0.141
	C15.307,9.37,15.312,9.407,15.317,9.445z M12.649,8.961c-0.11-0.031-0.215-0.079-0.316-0.142c0.344,0.066,0.682,0.114,1.007,0.143
	c0.074,0.006,0.146,0.014,0.217,0.021C13.244,9.049,12.932,9.051,12.649,8.961z M19.907,10.586c-0.064-0.033-0.17-0.079-0.291-0.111
	c0.124-0.047,0.256-0.096,0.4-0.149c0.114-0.041,0.229-0.077,0.346-0.108c0.182,0.09,0.367,0.188,0.555,0.283
	c-0.213,0.061-0.423,0.136-0.628,0.231C20.16,10.687,20.032,10.638,19.907,10.586z M21.159,10.439
	c-0.193-0.081-0.384-0.174-0.573-0.275c1.019-0.219,2.102-0.087,3.021,0.192c-0.424-0.051-0.854-0.074-1.292-0.062
	C21.937,10.308,21.546,10.351,21.159,10.439z M18.253,11.061c0.059-0.031,0.154-0.08,0.295-0.145
	c-0.064,0.081-0.119,0.167-0.168,0.255C18.338,11.132,18.295,11.097,18.253,11.061z M18.91,11.083
	c0.023,0.088,0.043,0.177,0.062,0.267c-0.099,0.002-0.198,0.007-0.296,0.015C18.747,11.261,18.825,11.164,18.91,11.083z
	 M19.192,11.351c-0.025-0.138-0.055-0.274-0.091-0.41c0.044-0.024,0.088-0.042,0.133-0.054c0.121,0.083,0.24,0.172,0.357,0.261
	c-0.087,0.066-0.17,0.135-0.249,0.209C19.293,11.354,19.243,11.352,19.192,11.351z M7.242,6.418L7.242,6.418L7.242,6.418
	L7.242,6.418z M7.307,6.47c0.181,0.141,0.37,0.266,0.565,0.376C8.07,7.009,8.282,7.164,8.504,7.31
	c0.245,0.333,0.51,0.652,0.797,0.948C9.043,8.251,8.784,8.279,8.528,8.335C8.002,7.785,7.57,7.125,7.307,6.47z M9.676,7.96
	c0.479,0.224,0.98,0.414,1.485,0.568c0.272,0.459,0.675,0.814,1.178,0.996c-0.255-0.027-0.505-0.096-0.734-0.209
	c-0.286-0.117-0.502-0.305-0.75-0.507c-0.213-0.175-0.459-0.314-0.722-0.406C9.976,8.262,9.823,8.114,9.676,7.96z M9.598,8.549
	c0.577,0.538,1.232,0.986,1.977,1.301c0.306,0.126,0.625,0.22,0.951,0.281c-0.214-0.015-0.427-0.037-0.638-0.069
	c-1.035-0.158-2.014-0.567-2.811-1.222C8.982,8.764,8.887,8.682,8.795,8.598C9.059,8.545,9.331,8.525,9.598,8.549z M7.499,9.575
	C7.488,9.542,7.477,9.51,7.467,9.477c-0.081-0.271-0.14-0.553-0.183-0.839c0.329,0.391,0.699,0.746,1.108,1.07
	c0.229,0.18,0.47,0.343,0.721,0.489c-0.177,0.011-0.351,0.01-0.521-0.013C8.16,10.127,7.785,9.896,7.499,9.575z M8.315,10.765
	c-0.254-0.167-0.45-0.41-0.604-0.692c0.254,0.171,0.542,0.288,0.851,0.32c0.285,0.041,0.578,0.011,0.851-0.031
	c0.327,0.169,0.667,0.311,1.015,0.426c-0.206,0.06-0.404,0.123-0.589,0.167C9.297,11.079,8.734,11.049,8.315,10.765z M14.421,11.016
	c0.292-0.048,0.571-0.099,0.791-0.121c0.057-0.006,0.113-0.008,0.168-0.01c-0.003,0.154-0.009,0.306-0.018,0.46
	c0.049-0.152,0.099-0.306,0.145-0.461c0.254,0.004,0.505,0.042,0.752,0.111c-0.312,0.358-0.57,0.755-0.782,1.176
	C15.206,11.724,14.856,11.326,14.421,11.016z M15.839,12.906c-0.093-0.237-0.204-0.466-0.333-0.686
	c0.228-0.435,0.504-0.841,0.835-1.202c0.125,0.038,0.249,0.083,0.371,0.136c0.072,0.24,0.136,0.481,0.191,0.724
	c0.003,0.012,0.005,0.025,0.008,0.037C16.49,12.168,16.125,12.509,15.839,12.906z M17.062,12.043
	c0.055-0.03,0.111-0.059,0.168-0.084c0.018-0.009,0.035-0.016,0.052-0.023c0.022,0.094,0.045,0.19,0.065,0.285
	c0.183,0.914,0.269,1.843,0.289,2.777c-0.045,0.001-0.09,0.003-0.135,0.007c-0.15,0.012-0.333,0.052-0.49,0.146
	C17.276,14.149,17.231,13.066,17.062,12.043z M18.03,12.056C18.03,12.056,18.03,12.056,18.03,12.056S18.03,12.056,18.03,12.056
	S18.03,12.056,18.03,12.056z M21.98,12.662c-0.059,0.112-0.11,0.227-0.156,0.344c-0.122-0.169-0.249-0.335-0.379-0.497
	c0.06-0.039,0.121-0.074,0.184-0.106C21.749,12.483,21.866,12.57,21.98,12.662z M21.947,12.269c0.11-0.037,0.223-0.067,0.338-0.087
	c-0.055,0.072-0.105,0.145-0.154,0.22C22.07,12.356,22.009,12.312,21.947,12.269z M22.013,13.278
	c0.057-0.145,0.125-0.285,0.202-0.418c0.14,0.125,0.275,0.259,0.405,0.399c0.101,0.099,0.21,0.188,0.325,0.269
	c-0.148,0.196-0.288,0.399-0.417,0.607C22.371,13.841,22.199,13.555,22.013,13.278z M22.356,14.426
	c-0.205,0.366-0.381,0.748-0.526,1.139c-0.068-0.423-0.089-0.852-0.05-1.278c0.016-0.219,0.054-0.438,0.112-0.652
	C22.061,13.892,22.217,14.155,22.356,14.426z M21.706,13.359c-0.086,0.302-0.131,0.612-0.136,0.914
	c-0.018,0.523,0.048,1.036,0.176,1.533c-0.037,0.109-0.072,0.22-0.104,0.33c-0.106-0.027-0.213-0.061-0.32-0.098
	c-0.256-0.736-0.555-1.461-0.919-2.157c0.175-0.461,0.432-0.874,0.795-1.185C21.375,12.91,21.545,13.131,21.706,13.359z
	 M20.774,22.195c-0.084,0.063-0.171,0.124-0.257,0.184c-0.072-0.575-0.16-1.151-0.264-1.724c-0.023-0.119-0.047-0.238-0.071-0.357
	c0.111,0.102,0.223,0.201,0.335,0.301C20.628,21.126,20.718,21.658,20.774,22.195z M20.835,20.88
	c0.156,0.135,0.311,0.27,0.467,0.403c0.015,0.144,0.03,0.29,0.047,0.435c-0.12,0.112-0.244,0.217-0.371,0.319
	C20.946,21.65,20.897,21.263,20.835,20.88z M19.881,22.788c-0.123,0.074-0.247,0.147-0.373,0.22
	c-0.207,0.128-0.409,0.263-0.606,0.405c-0.007-0.067-0.014-0.133-0.021-0.199c-0.129-1.472-0.199-2.949-0.268-4.429
	c0.023,0.023,0.044,0.047,0.067,0.071c0.144,0.147,0.291,0.293,0.438,0.439c0.144,0.499,0.274,1.003,0.391,1.512
	C19.656,21.462,19.78,22.123,19.881,22.788z M20.794,22.398c0.07,0.842,0.065,1.698-0.065,2.532
	c-0.035-0.788-0.096-1.575-0.189-2.359C20.625,22.514,20.709,22.457,20.794,22.398z M20.132,20.054
	c-0.128-0.608-0.274-1.211-0.44-1.811c-0.213-0.767-0.391-1.542-0.483-2.316c-0.01-0.077-0.019-0.154-0.027-0.231
	c0.161,0.054,0.32,0.112,0.479,0.174c0.017,1.079,0.21,2.137,0.472,3.165c0.122,0.449,0.238,0.896,0.338,1.345
	C20.356,20.274,20.244,20.163,20.132,20.054z M20.344,15.648c-0.087-0.034-0.174-0.067-0.262-0.099
	c0.007-0.14,0.019-0.28,0.035-0.42C20.194,15.3,20.271,15.473,20.344,15.648z M17.79,13.19c0.021,0.13,0.04,0.261,0.059,0.392
	c0.01,0.346,0.054,0.689,0.132,1.024c0.016,0.134,0.03,0.269,0.044,0.403c-0.079-0.006-0.159-0.011-0.24-0.012
	c0.015-0.942-0.039-1.884-0.191-2.824c-0.003-0.026-0.009-0.052-0.013-0.078C17.661,12.458,17.728,12.825,17.79,13.19z
	 M18.261,12.29c0.085,0.089,0.169,0.182,0.25,0.275c-0.125,0.291-0.212,0.59-0.264,0.884c-0.013-0.107-0.026-0.214-0.041-0.321
	c-0.02-0.132-0.039-0.264-0.06-0.396C18.178,12.583,18.216,12.435,18.261,12.29z M19.285,13.605
	c0.172,0.266,0.333,0.542,0.484,0.825c-0.06,0.324-0.092,0.652-0.104,0.971c-0.171-0.058-0.343-0.111-0.518-0.162
	C19.12,14.675,19.157,14.113,19.285,13.605z M17.089,16.242c-0.083-0.222-0.127-0.468-0.055-0.628
	c0.064-0.152,0.266-0.23,0.499-0.242c0.036-0.001,0.071-0.002,0.107-0.002c0.002,0.592-0.021,1.185-0.062,1.777
	C17.386,16.857,17.218,16.556,17.089,16.242z M17.642,17.241c0.066-0.621,0.114-1.244,0.134-1.868
	c0.096,0.005,0.192,0.015,0.289,0.03c0.036,0.371,0.069,0.743,0.1,1.115c0.039,0.47,0.073,0.941,0.108,1.413
	c-0.005,0.037-0.012,0.073-0.017,0.11C18.038,17.783,17.83,17.516,17.642,17.241z M18.547,17.363
	c0.098,0.381,0.209,0.756,0.329,1.127c0.042,0.132,0.083,0.266,0.124,0.4c-0.055-0.06-0.11-0.119-0.165-0.18
	c-0.078-0.088-0.157-0.178-0.235-0.268C18.582,18.083,18.564,17.724,18.547,17.363z M18.04,24.108
	c-0.005-0.047-0.01-0.093-0.015-0.14c-0.095-1.017-0.075-2.043-0.003-3.062c0.062-0.817,0.162-1.629,0.289-2.437
	c0.114,1.586,0.223,3.176,0.402,4.762c0.013,0.097,0.024,0.194,0.038,0.291C18.504,23.707,18.268,23.9,18.04,24.108z M18.919,23.583
	c0.219-0.154,0.442-0.303,0.672-0.441c0.106-0.058,0.211-0.118,0.317-0.179c0.181,1.228,0.286,2.469,0.324,3.714
	c-0.164,0.379-0.364,0.742-0.607,1.071C19.231,26.398,19.063,24.979,18.919,23.583z M19.638,27.792
	c0.232-0.291,0.431-0.612,0.599-0.948c0.021,0.824,0.012,1.649-0.024,2.477C19.979,28.824,19.791,28.313,19.638,27.792z
	 M20.553,30.208c0.167-1.573,0.237-3.16,0.194-4.747c0.253-1.004,0.312-2.051,0.256-3.083c-0.003-0.042-0.005-0.085-0.009-0.128
	c0.133-0.099,0.261-0.201,0.385-0.31c0.022,0.176,0.049,0.351,0.075,0.527c0.132,0.849,0.308,1.687,0.516,2.518
	C21.877,26.817,21.53,28.651,20.553,30.208z M21.997,24.207c-0.002,0.094-0.004,0.189-0.007,0.283
	c-0.134-0.681-0.244-1.363-0.326-2.051c-0.027-0.229-0.051-0.458-0.07-0.688c0.039-0.039,0.078-0.077,0.117-0.115
	c0.002-0.001,0.003-0.003,0.005-0.004c0.053,0.044,0.105,0.088,0.159,0.132C21.959,22.576,22.001,23.392,21.997,24.207z
	 M21.864,21.669c-0.033-0.029-0.065-0.059-0.098-0.088c0.027-0.025,0.053-0.05,0.08-0.076
	C21.852,21.559,21.858,21.615,21.864,21.669z M21.815,21.256c-0.061,0.068-0.126,0.133-0.191,0.198
	c-0.02-0.019-0.04-0.037-0.06-0.055c-0.044-0.625-0.061-1.254-0.039-1.877C21.644,20.095,21.741,20.674,21.815,21.256z
	 M23.163,16.882c0.193,1.259-0.101,2.559-0.778,3.629c-0.14-1.038-0.349-2.068-0.624-3.082c0.047-0.233,0.102-0.468,0.165-0.698
	c0.046,0.009,0.095,0.016,0.143,0.023c0.163,0.383,0.357,0.753,0.57,1.104c-0.188-0.352-0.356-0.718-0.493-1.095
	c0.323,0.036,0.663,0.022,0.987-0.067C23.145,16.757,23.154,16.819,23.163,16.882z M21.052,17.628
	c0.07,0.242,0.136,0.481,0.201,0.725c-0.076,0.934-0.052,1.871,0.037,2.799c-0.163-0.15-0.324-0.299-0.484-0.451
	c-0.102-0.585-0.229-1.166-0.367-1.737c-0.214-0.964-0.365-1.95-0.368-2.926c0.109,0.045,0.215,0.092,0.323,0.141
	c0.064,0.029,0.13,0.059,0.197,0.09C20.761,16.717,20.913,17.173,21.052,17.628z M23.018,16.14c-0.291,0.1-0.615,0.119-0.94,0.08
	c0.145-0.43,0.325-0.846,0.542-1.241C22.782,15.355,22.917,15.743,23.018,16.14z M24.5,14.091c-0.083,0.31-0.187,0.609-0.32,0.893
	c-0.206,0.426-0.493,0.805-0.876,1.024c-0.014,0.008-0.029,0.015-0.043,0.024c-0.114-0.464-0.273-0.917-0.468-1.354
	c0.188-0.308,0.398-0.601,0.628-0.875C23.759,13.961,24.126,14.057,24.5,14.091z M23.656,13.539
	c0.323-0.346,0.681-0.656,1.073-0.921c0.005,0.001,0.01,0.005,0.015,0.007c-0.034,0.375-0.084,0.75-0.161,1.114
	C24.265,13.723,23.95,13.657,23.656,13.539z M25.781,13.141c0.192,0.075,0.396,0.137,0.606,0.179
	c-0.282,0.127-0.572,0.234-0.872,0.318c-0.074,0.02-0.148,0.037-0.223,0.051c0.052-0.237,0.093-0.474,0.128-0.713
	C25.535,13.033,25.653,13.088,25.781,13.141z M26.514,12.395c0.208,0.105,0.431,0.194,0.672,0.242c0.002,0,0.004,0,0.005,0.001
	c-0.373,0.062-0.777-0.001-1.168-0.138c-0.165-0.06-0.337-0.141-0.516-0.229c0.002-0.033,0.005-0.066,0.008-0.099
	C25.83,12.265,26.168,12.347,26.514,12.395z M24.075,12.35c-0.337,0.278-0.646,0.588-0.925,0.923
	c-0.112-0.075-0.22-0.158-0.321-0.25c-0.14-0.147-0.292-0.29-0.449-0.423c0.121-0.172,0.26-0.329,0.414-0.466
	C23.222,12.13,23.661,12.21,24.075,12.35z M20.852,12.302c-0.33,0.305-0.571,0.661-0.749,1.043
	c-0.135-0.228-0.278-0.452-0.431-0.672c0.171-0.264,0.388-0.489,0.657-0.657c0.051-0.032,0.102-0.062,0.154-0.09
	C20.61,12.049,20.733,12.174,20.852,12.302z M21.104,12.093c-0.003,0.003-0.005,0.005-0.009,0.006
	c-0.005-0.006-0.012-0.013-0.017-0.019C21.086,12.085,21.096,12.089,21.104,12.093z M21.719,11.762
	c-0.117,0.046-0.232,0.099-0.344,0.161c-0.138-0.072-0.278-0.14-0.421-0.199c0.109-0.037,0.222-0.068,0.336-0.094
	C21.432,11.675,21.576,11.72,21.719,11.762z M22.838,11.549c-0.031,0.001-0.064,0.001-0.094,0.004l0.001-0.012
	C22.776,11.544,22.807,11.546,22.838,11.549z M19.014,11.578c0.006,0.038,0.012,0.076,0.017,0.115
	c-0.021,0.026-0.042,0.054-0.062,0.081c-0.057-0.065-0.115-0.129-0.174-0.192C18.867,11.579,18.94,11.577,19.014,11.578z
	 M17.234,11.746c-0.03,0.014-0.06,0.028-0.088,0.042c-0.04,0.02-0.08,0.042-0.118,0.062c-0.041-0.206-0.088-0.41-0.141-0.614
	c0.081,0.04,0.16,0.083,0.239,0.128C17.165,11.49,17.201,11.618,17.234,11.746z M30.106,10.281l-0.017-0.005
	c0.031-0.026,0.061-0.053,0.09-0.08C30.154,10.224,30.13,10.252,30.106,10.281z"/>
</svg>
