<?xml version="1.0" encoding="utf-8"?>
<!-- Generator: Adobe Illustrator 16.0.0, SVG Export Plug-In . SVG Version: 6.00 Build 0)  -->
<!DOCTYPE svg PUBLIC "-//W3C//DTD SVG 1.1//EN" "http://www.w3.org/Graphics/SVG/1.1/DTD/svg11.dtd">
<svg version="1.1" id="Layer_1" xmlns="http://www.w3.org/2000/svg" xmlns:xlink="http://www.w3.org/1999/xlink" x="0px" y="0px"
	 width="100px" height="100px" viewBox="0 0 100 100" enable-background="new 0 0 100 100" xml:space="preserve">
<path fill="#9BDBF8" d="M80.954,41.371c-0.573-0.21-1.166-0.905-1.875-1.312c-2.167-1.264-4.582-2.689-6.004-4.691
	c-1.552-0.323-2.707-1.04-3.367-2.254c0.843-1.334,2.355-0.52,3.746-0.562c0.801-0.014,1.818-0.344,2.63-0.562
	c0.763-0.204,2.233-0.119,2.065-1.308c-0.885-1.397-3.389-0.2-5.074-0.941c0.702-0.987,3.017-0.941,2.254-2.816
	c-0.102-0.119-0.218-0.186-0.323-0.235c-0.218-0.011-0.438-0.024-0.664-0.024c-0.41,0.102-0.835,0.365-1.267,0.453
	c0.221-0.144,0.404-0.298,0.559-0.453c-0.302,0.014-0.604,0.031-0.909,0.062c-2.036,0.257-5.032,0.271-8.062,0.376
	c-2.995,0.109-5.899,0.973-9.188,0.562c-2.496-0.298-4.859-1.927-7.313-1.682c-2.75,0.274-5.189,2.251-7.306,3.375
	c-2.493,1.312-5.716,2.926-9.003,3.376c-1.692,0.225-3.237,0.091-4.501-0.38c-1.113-0.414-2.25-0.442-3.946-0.751
	c-1.327-0.239-3.026-0.887-5.242-0.555c-2.307,0.337-4.75,2.5-7.313,2.057c1.095,0.526,2.033,0.632,2.247,1.692
	c0.913,4.473-8.022,1.685-8.434,5.239c3.125,0.091,5.505,0.702,7.124,2.443c0.703,0.766,0.738,2.079,1.5,2.816
	c0.829,0.794,2.482,0.604,3.374,1.306c0.277,0.225,0.499,0.484,0.688,0.772c0.316-0.099,0.625-0.197,0.969-0.197
	c1.552,0.014,3.16,0.576,5.07,0.373c1.994-0.204,4.221-1.187,6.187-1.678c0.586-0.148,1.299-0.092,1.875-0.197
	c0.667-0.105,1.32-0.379,1.875-0.372c3.954,0.063,5.403,3.244,7.503,5.814c1.355,1.657,2.605,3.076,4.312,4.129
	c0.544,0.33,1.166,0.449,1.685,0.751c1.538,0.871,3.725,3.167,4.129,5.246c0.174,0.898-0.116,1.839,0,2.626
	c0.136,0.969,0.748,1.825,1.126,2.815c0.878,2.324,1.243,3.477,2.623,5.253c0.555,0.701,1.33,1.328,1.878,2.064
	c1.4,0.099,2.044,0.856,3.374,0.935c3.655,0.203,6.415-2.641,8.437-4.501c1.209,0.407,2.985,1.495,4.685,1.502
	c0.52,0,1.544-0.399,2.254-0.562c2.037-0.477,2.753-0.919,3.191-3.377c-0.568-1.812-1.295-3.462-1.881-5.252
	c-0.731-0.583-1.492-1.131-1.872-2.064c-3.265-0.296-5.105-2.022-7.689-2.999c-0.568-1.117-1.479-1.896-2.437-2.627
	c2.355-0.743,4.494-1.108,6.935-0.743c2.903,0.429,5.754,2.184,8.44,2.619c0.418,0.063,1.067-0.056,1.688,0
	c0.856,0.077,2.146,0.372,3.002,0.189c2.819-0.598,4.371-3.49,6.941-4.691c1.06-0.498,2.092-0.435,3.374-0.934
	c0.453-1.854,0.586-2.577,0.376-4.128c-1.362-1.103-3.785-1.637-5.066-2.254c0.614-2.191,4.238-0.576,4.122-3.181
	c-0.909-1.018-2.24-0.204-3.186,0c-1.456,0.301-3.588,1.074-5.624,0.751c-0.649-0.105-1.281-0.695-2.064-0.941
	C82.73,41.477,81.649,41.617,80.954,41.371z"/>
</svg>
