<?xml version="1.0" encoding="utf-8"?>
<!-- Generator: Adobe Illustrator 16.0.0, SVG Export Plug-In . SVG Version: 6.00 Build 0)  -->
<!DOCTYPE svg PUBLIC "-//W3C//DTD SVG 1.1//EN" "http://www.w3.org/Graphics/SVG/1.1/DTD/svg11.dtd">
<svg version="1.1" id="Layer_1" xmlns="http://www.w3.org/2000/svg" xmlns:xlink="http://www.w3.org/1999/xlink" x="0px" y="0px"
	 width="1000px" height="1000px" viewBox="0 0 1000 1000" enable-background="new 0 0 1000 1000" xml:space="preserve">
<path fill="#E6E6E6" d="M441.833,705.834c-14.667-1.333-8.667-20-9.333-28s-30-27.334-35.333-31.334s-14-12-10.635-16.666
	s1.302-28.667-4.031-34.667s-12.667-16-9.111-21.333S387.167,490.5,386.5,482.5s-23.333-47.333-25.333-81.333
	c-0.978-16.628-1-35.326-0.766-50.095c-15.06,6.23-24.818,10.705-24.818,10.705s-4.072,43.438,0,70.587
	c4.072,27.148,8.826,42.022,16.291,47.82c7.465,5.799,11.389,9.192,11.802,14.622c0.414,5.431,0.414,14.21-3.659,24.752
	c-4.071,10.542-23.303,41.086-26.244,46.515c-2.941,5.432-10.407,16.97-10.407,16.97s6.787,12.896,15.61,17.646
	c8.823,4.752,28.507,3.395,31.221,8.146c2.716,4.751,3.395,19.005,0,19.005s-6.107,7.466-2.714,10.182
	c3.394,2.715,19.683,16.968,19.683,16.968s-0.679,9.672,2.8,13.065c3.479,3.394,9.842,6.278,12.047,5.771
	c2.206-0.511,3.903,0.509,3.903,0.509l13.659,17.646c0,0-3.733,17.646-1.696,25.962c2.036,8.314,17.477,21.721,32.239,18.666
	c14.763-3.056,69.06-26.98,100.622-50.396c31.561-23.417,85.52-60.747,90.271-77.376c0.589-2.062,0.993-7.414,1.25-15.203
	c-4.129,1.357-8.965,2.98-14.425,4.867C608.688,605.116,456.5,707.167,441.833,705.834z"/>
</svg>
