<?xml version="1.0" encoding="utf-8"?>
<!-- Generator: Adobe Illustrator 16.0.0, SVG Export Plug-In . SVG Version: 6.00 Build 0)  -->
<!DOCTYPE svg PUBLIC "-//W3C//DTD SVG 1.1//EN" "http://www.w3.org/Graphics/SVG/1.1/DTD/svg11.dtd">
<svg version="1.1" id="Layer_1" xmlns="http://www.w3.org/2000/svg" xmlns:xlink="http://www.w3.org/1999/xlink" x="0px" y="0px"
	 width="1000px" height="1000px" viewBox="0 0 1000 1000" enable-background="new 0 0 1000 1000" xml:space="preserve">
<g>
	<g>
		<g>
			<polygon fill="#FCDE60" points="671.794,1026.497 719.135,973.77 788.118,74.003 729.956,-25.547 			"/>
			<polygon fill="#FCDE60" points="755.04,943.185 727.6,969.281 778.978,257.029 			"/>
		</g>
	</g>
	<g>
		<g>
			<polygon fill="#FCDE60" points="270.044,-25.547 211.881,74.003 280.865,973.77 328.206,1026.497 			"/>
			<polygon fill="#FCDE60" points="221.022,257.029 272.4,969.281 244.959,943.185 			"/>
		</g>
	</g>
</g>
<polygon opacity="0.5" fill="#7CFCDA" enable-background="new    " points="258.24,-17.012 319.757,1018.048 683.426,1018.048 
	739.721,-18.048 "/>
<line fill="none" stroke="#7CFCDA" stroke-width="40" stroke-miterlimit="10" x1="500" y1="268.353" x2="500" y2="82.611"/>
<polyline fill="none" stroke="#7CFCDA" stroke-width="40" stroke-miterlimit="10" points="445.2,82.611 445.2,209.5 
	385.424,269.276 385.424,438.676 "/>
<polyline fill="none" stroke="#7CFCDA" stroke-width="40" stroke-miterlimit="10" points="569.5,62.5 569.5,233.5 612.948,276.948 
	612.948,539.75 "/>
<circle fill="#7CFCDA" cx="500" cy="-77" r="175"/>
<circle fill="none" stroke="#7CFCDA" stroke-width="20" stroke-miterlimit="10" enable-background="new    " cx="500" cy="326.85" r="58.497"/>
<circle fill="none" stroke="#7CFCDA" stroke-width="20" stroke-miterlimit="10" enable-background="new    " cx="386.703" cy="491.571" r="58.497"/>
<circle fill="none" stroke="#7CFCDA" stroke-width="20" stroke-miterlimit="10" enable-background="new    " cx="613.298" cy="591.301" r="58.497"/>
</svg>
