<?xml version="1.0" encoding="utf-8"?>
<!-- Generator: Adobe Illustrator 16.0.0, SVG Export Plug-In . SVG Version: 6.00 Build 0)  -->
<!DOCTYPE svg PUBLIC "-//W3C//DTD SVG 1.1//EN" "http://www.w3.org/Graphics/SVG/1.1/DTD/svg11.dtd">
<svg version="1.1" id="Layer_1" xmlns="http://www.w3.org/2000/svg" xmlns:xlink="http://www.w3.org/1999/xlink" x="0px" y="0px"
	 width="100px" height="100px" viewBox="0 0 100 100" enable-background="new 0 0 100 100" xml:space="preserve">
<path fill-rule="evenodd" clip-rule="evenodd" d="M91.985,62.428c-0.121-0.401-0.242-0.806-0.412-1.371
	c0.509,0,0.788,0.045,1.047-0.011c0.402-0.087,0.79-0.241,1.185-0.369c-0.171-0.383-0.235-0.939-0.53-1.121
	c-1.412-0.867-1.729-2.083-1.613-3.653c0.124-1.687-0.186-1.79-3.199-1.203c0.386-0.902,0.627-1.577,0.953-2.208
	c0.886-1.714,0.635-2.202-1.208-2.138c-1.241,0.044-1.995-0.393-1.959-1.742c0.034-1.274,0.812-1.747,1.942-1.118
	c0.482,0.268,0.873,0.716,1.27,1.116c0.349,0.351,0.647,0.75,1.454,1.096c0.089-0.716,0.289-1.44,0.236-2.146
	c-0.055-0.725-0.512-1.433-0.501-2.143c0.009-0.582,0.445-1.156,0.692-1.734c0.428,0.487,1.162,0.941,1.217,1.467
	c0.098,0.921-0.175,1.895-0.383,2.826c-0.172,0.771-0.501,1.42,0.772,1.565c0.385,0.044,0.802,0.849,0.993,1.38
	c1.491,4.165,3.562,8.007,6.27,11.505C97.469,62.428,94.728,62.428,91.985,62.428z"/>
<path fill-rule="evenodd" clip-rule="evenodd" d="M84.104,62.428c-1.755-1.6-3.476-3.237-5.272-4.787
	c-1.448-1.249-2.423-2.74-2.561-4.649c-0.04-0.562,0.367-1.158,0.569-1.737c0.354,0.452,0.786,0.865,1.048,1.366
	c0.536,1.026,0.98,2.102,1.464,3.158c0.246-0.075,0.491-0.151,0.737-0.227c0-0.651-0.15-1.354,0.041-1.943
	c0.203-0.623,0.65-1.496,1.14-1.607c0.502-0.115,1.399,0.413,1.741,0.919c0.626,0.925,1.059,2.012,1.413,3.085
	c0.611,1.847,0.204,2.359-1.737,2.445c-0.217,0.01-0.432,0.06-1.013,0.143c1.14,1.403,2.127,2.62,3.114,3.835
	C84.56,62.428,84.331,62.428,84.104,62.428z"/>
<path fill-rule="evenodd" clip-rule="evenodd" d="M77.623,42.937c1.323,0.823,2.822,1.465,3.883,2.54
	c0.529,0.536,0.256,1.864,0.346,2.833c-0.631-0.123-1.332-0.113-1.876-0.401c-0.793-0.422-1.518-1.008-2.193-1.612
	C76.662,45.293,76.65,44.252,77.623,42.937z"/>
<path fill-rule="evenodd" clip-rule="evenodd" d="M25.839,62.428c-5.088-7.263-4.645-15.489-4.155-23.731
	c0.12-2.017,0.276-3.854,2.159-5.277c0.774-0.585,0.842-2.13,1.188-3.252c0.494-1.598,0.931-3.214,1.442-4.807
	c0.062-0.191,0.572-0.448,0.634-0.394c0.364,0.312,0.869,0.675,0.929,1.081c0.137,0.917,0.043,1.869,0.043,3.188
	c0.645-0.472,0.989-0.823,1.408-1.007c0.707-0.313,1.479-0.757,2.186-0.698c0.566,0.048,1.417,0.698,1.51,1.199
	c0.084,0.454-0.607,1.154-1.101,1.579c-0.333,0.288-0.916,0.285-1.689,0.494c1.018,1.443,4.698,2.249,1.455,4.188
	c0.617,2.585,1.23,4.986,1.758,7.404c1.011,4.632,2.89,8.886,5.5,12.822c1.605,2.423,3.263,4.809,4.897,7.211
	C37.949,62.428,31.894,62.428,25.839,62.428z"/>
<path fill-rule="evenodd" clip-rule="evenodd" d="M61.482,62.428c-1.847-2.233-3.885-4.338-5.494-6.731
	c-2.189-3.257-4.114-6.7-6.022-10.135c-0.586-1.055-0.744-2.348-1.152-3.71c3.382-0.581,4.094-2.726,3.792-5.58
	c-0.059-0.55,0.214-1.284,0.596-1.682c0.295-0.308,1.068-0.408,1.496-0.248c0.294,0.109,0.443,0.814,0.503,1.272
	c0.04,0.304-0.245,0.636-0.287,0.968c-0.053,0.421-0.006,0.854-0.002,1.283c0.466-0.064,0.946-0.074,1.393-0.203
	c0.898-0.261,1.779-0.833,2.662-0.82c0.993,0.014,1.444,0.763,0.545,1.613c-0.777,0.734-1.658,1.359-2.508,2.043
	c1.51,1.11,2.539,1.061,5.24-0.305c0.614,1.01,1.237,2.036,2.077,3.419c-0.973,0.062-1.553,0.062-2.119,0.148
	c-0.353,0.053-0.896,0.162-0.973,0.38c-0.103,0.292,0.073,0.787,0.295,1.061c0.312,0.388,0.862,0.59,1.155,0.986
	c0.401,0.539,1.064,1.394,0.887,1.742c-0.329,0.646-1.14,1.336-1.835,1.441c-1.139,0.173-2.346-0.107-3.601-0.203
	c-0.082,1.405,0.849,1.923,1.806,2.194c1.08,0.307,2.23,0.411,3.358,0.488c1.871,0.129,2.404,0.981,1.584,2.708
	c-0.331,0.696-0.705,1.372-1.238,2.404c2.179-0.224,3.361-1.22,4.195-2.705c0.333-0.592,0.435-1.334,0.836-1.86
	c0.303-0.397,0.936-0.801,1.379-0.757c0.395,0.039,1.022,0.672,1.04,1.067c0.076,1.572-0.009,3.157-0.114,4.731
	c-0.038,0.585-0.294,1.154-0.507,1.936c2.382-0.665,2.404-2.826,3.479-4.446c2.753,2.549,5.425,5.025,8.097,7.5
	C75.192,62.428,68.338,62.428,61.482,62.428z"/>
<path fill-rule="evenodd" clip-rule="evenodd" d="M45.718,62.428c-2.527-3.845-5.196-7.606-7.523-11.569
	c-1.256-2.14-1.957-4.61-2.849-6.955c-0.399-1.047-0.359-1.904,1.167-1.937c0.65-0.014,1.332-0.292,1.934-0.585
	c1.97-0.959,2.701-0.533,2.754,1.685c0.012,0.502,0.002,1.006,0.002,1.691c1.668-0.315,2.275-1.367,2.212-2.67
	c-0.054-1.104-0.644-2.177-0.756-3.288c-0.075-0.737,0.042-1.719,0.486-2.234c0.767-0.889,1.695-0.434,1.855,0.769
	c0.066,0.496,0.122,0.994,0.209,1.486c0.013,0.075,0.176,0.123,0.468,0.311c0.357-0.531,0.689-1.086,1.084-1.593
	c0.365-0.468,0.796-0.885,1.199-1.323c0.487,0.511,1.188,0.947,1.404,1.555c0.246,0.689,0.057,1.534,0.057,2.311
	c-0.214,0.023-0.429,0.046-0.643,0.069c-0.272-0.852-0.545-1.703-0.818-2.555c-0.146,0.012-0.292,0.023-0.439,0.036
	c0,1.518-0.254,3.089,0.045,4.545c1.081,5.241,3.734,9.781,6.869,14.021c1.621,2.194,3.547,4.161,5.336,6.23
	C55.085,62.428,50.401,62.428,45.718,62.428z"/>
<path fill-rule="evenodd" clip-rule="evenodd" d="M13.501,62.428c-0.033-0.167-0.033-0.349-0.103-0.5
	c-2.481-5.354-2.572-11.06-2.183-16.751c0.321-4.677,1.379-9.246,3.852-13.348c0.425-0.704,0.984-1.328,1.595-2.141
	c0.667,1.597-0.214,2.462-0.816,3.467c-0.411,0.687-0.555,1.534-0.818,2.31c1.109-0.15,2.348-0.049,3.283-0.535
	c0.678-0.352,0.985-1.464,1.395-2.269c0.256-0.503,0.294-1.143,0.618-1.581c0.292-0.396,0.842-0.601,1.277-0.89
	c0.211,0.519,0.754,1.225,0.583,1.528c-1.666,2.946-1.893,6.216-2.073,9.436c-0.302,5.408-0.257,10.849,1.502,16.051
	c0.626,1.851,1.885,3.487,2.854,5.223C20.813,62.428,17.157,62.428,13.501,62.428z"/>
<path fill-rule="evenodd" clip-rule="evenodd" d="M7.675,62.428c-1.361-2.846-3.023-5.592-4.018-8.562
	c-1.709-5.102-1.93-10.433-0.65-15.669c1.307-5.344,5.191-8.386,10.183-10.133c0.72-0.252,1.604-0.035,2.645-0.035
	c-1.116,2.199-2.104,4.094-3.047,6.011c-1.894,3.848-2.671,7.941-2.838,12.21c-0.04,1.037-0.734,2.047-1.008,2.761
	c0.418,0.857,1.093,1.59,1.07,2.299c-0.118,3.597,0.45,7.021,1.997,10.28c0.116,0.244,0.085,0.558,0.123,0.838
	C10.645,62.428,9.16,62.428,7.675,62.428z"/>
<path fill-rule="evenodd" clip-rule="evenodd" d="M38.07,26.034c-0.033-0.069,0.042,0.027,0.058,0.132
	c0.104,0.661,0.196,1.324,0.291,1.986c0.67-0.476,1.499-0.83,1.976-1.454c0.873-1.14,0.759-2.453,0.111-3.715
	c-0.286-0.556-0.818-1.143-0.772-1.675c0.073-0.829,0.39-1.753,0.914-2.375c0.25-0.296,1.31-0.184,1.836,0.079
	c1.28,0.639,1.284,1.531,0.257,2.587c-0.371,0.382-0.569,0.933-0.846,1.406c0.723,0.159,1.55,0.616,2.145,0.408
	c0.932-0.325,1.676-1.151,2.559-1.661c0.382-0.22,0.915-0.179,1.378-0.256c0.063,0.532,0.18,1.065,0.164,1.595
	c-0.007,0.245-0.218,0.569-0.434,0.709c-2.183,1.429-3.078,3.75-4.149,5.942c-1.229,2.516-3.132,3.833-6.01,3.578
	c-0.987-0.086-1.957-0.103-2.276,1.221c-0.068,0.281-0.656,0.438-1.004,0.652c-0.152-0.389-0.344-0.768-0.437-1.17
	c-0.045-0.196,0.048-0.458,0.154-0.649C35.341,30.918,36.712,28.468,38.07,26.034z"/>
<path fill-rule="evenodd" clip-rule="evenodd" d="M23.772,28.093c-0.417-0.854-0.872-1.438-0.753-1.603
	c0.582-0.801,1.317-1.489,1.998-2.217c0.127,0.117,0.255,0.234,0.383,0.351C24.94,25.604,24.481,26.583,23.772,28.093z"/>
</svg>
