<?xml version="1.0" encoding="utf-8"?>
<!-- Generator: Adobe Illustrator 16.0.0, SVG Export Plug-In . SVG Version: 6.00 Build 0)  -->
<!DOCTYPE svg PUBLIC "-//W3C//DTD SVG 1.1//EN" "http://www.w3.org/Graphics/SVG/1.1/DTD/svg11.dtd">
<svg version="1.1" id="Layer_1" xmlns="http://www.w3.org/2000/svg" xmlns:xlink="http://www.w3.org/1999/xlink" x="0px" y="0px"
	 width="100px" height="100px" viewBox="0 0 100 100" enable-background="new 0 0 100 100" xml:space="preserve">
<g>
	<path fill-rule="evenodd" clip-rule="evenodd" fill="#1A1A1A" d="M36.689,24.988c2.155-3.151,5.7-5.56,9.162-7.651
		c0.937-0.564,1.927-0.864,2.795-1.466c0.268-0.185,0.461-0.46,0.732-0.64c0.64-0.427,1.392-0.657,2.017-1.1
		c0.436-0.31,0.868-0.741,1.283-1.146c0.41-0.404,0.894-0.757,1.282-1.146c0.326-0.328,0.615-0.821,1.007-1.237
		c0.528-0.559,1.309-1.053,1.237-2.061c-0.043-0.633-0.675-1.155-1.189-1.512c-1.066-0.736-2.257-1.331-3.62-1.65
		c-1.425-0.333-3.06-0.332-4.399-0.274c-5.919,0.25-10.952,2.337-14.109,5.726c-0.522,0.56-1.069,1.141-1.557,1.741
		c-0.502,0.614-1.095,1.22-1.467,1.832c-0.609,1.003-1.115,2.178-1.649,3.253c-0.545,1.1-1.143,2.246-1.237,3.664
		c-0.741,0.449-1.612,0.77-2.52,1.054c-0.033-1.922,0.449-3.674,1.237-5.177c0.774-1.469,1.346-3.028,2.199-4.305
		c0.407-0.609,0.986-1.157,1.466-1.742c1.38-1.678,2.944-3.477,4.811-4.672c1.239-0.793,2.692-1.472,4.214-2.106
		c0.732-0.306,1.542-0.577,2.383-0.78c0.828-0.199,1.694-0.503,2.52-0.642c1.367-0.227,2.932-0.288,4.398-0.32
		c2.425-0.051,4.898,0.327,6.688,1.146c0.99,0.452,2.214,1.217,2.978,1.925c0.693,0.642,1.508,1.836,1.374,3.251
		c-0.076,0.812-0.549,1.809-1.007,2.383c-0.308,0.384-0.812,0.696-1.192,1.146c-0.351,0.416-0.646,0.91-1.052,1.281
		c-0.392,0.359-0.83,0.723-1.238,1.101c-0.415,0.383-0.883,0.836-1.283,1.053c-0.287,0.157-0.619,0.237-0.916,0.412
		c-0.875,0.52-1.985,0.964-2.978,1.466c-1.34,0.679-2.42,1.807-3.619,2.613c-0.314,0.21-0.645,0.385-0.962,0.594
		c-0.317,0.211-0.597,0.486-0.915,0.641c-1.179,0.577-2.409,0.958-3.529,1.605C38.913,23.895,37.72,24.368,36.689,24.988z"/>
	<path fill-rule="evenodd" clip-rule="evenodd" fill="#1A1A1A" d="M84.974,20.085c0.065,0.8,0.141,1.751,0.093,2.52
		c-0.904,0.118-1.805,0.274-2.382,0.733c-0.392,0.311-0.569,0.695-0.963,1.146c-0.308,0.352-0.869,0.873-0.916,1.19
		c-0.103,0.707,0.714,1.691,1.283,1.787c0.464,0.078,1.04-0.178,1.374-0.366c0.322-0.18,0.656-0.535,1.009-0.87
		c0.323-0.31,0.732-0.609,0.962-0.917c0.472-0.632,0.938-1.884,1.007-2.702c0.05-0.609-0.106-1.292-0.138-1.97
		c-0.019-0.457-0.035-0.73-0.137-1.191c-0.153-0.699-0.328-1.366-0.549-2.017c-0.291-0.853-0.551-1.808-0.963-2.472
		c-0.872-1.408-2.389-1.973-4.17-2.567c-1.392-0.464-2.739-0.794-4.214-0.549c-1.083,0.182-2.204,0.642-3.206,1.008
		c-1.022,0.373-1.875,0.933-2.704,1.512c-0.967-0.301-2.001-0.534-3.206-0.596c-0.098-0.093,0.184-0.243,0.321-0.366
		c1.635-1.459,3.554-2.612,6-3.39c1.056-0.335,2.072-0.712,3.208-0.779c1.422-0.083,2.958,0.239,4.214,0.642
		c1.99,0.64,3.393,1.1,4.72,2.335c1.276,1.193,1.747,2.449,2.427,4.399c0.392,1.122,0.817,2.572,0.825,3.803
		c0.008,1.392-0.104,3.163-0.505,4.305c-0.314,0.897-0.498,1.648-1.053,2.337c-0.333,0.41-0.867,0.861-1.328,1.283
		c-0.869,0.792-1.686,1.442-3.069,1.649c-0.738,0.109-1.345,0.054-1.971-0.183c-0.608-0.232-1.594-0.995-2.061-1.788
		c-0.53-0.897-0.851-2.596-0.276-3.71c0.257-0.498,0.751-0.93,1.191-1.465c0.386-0.469,0.73-1.097,1.19-1.467
		C81.95,20.599,83.374,20.202,84.974,20.085z"/>
	<path fill-rule="evenodd" clip-rule="evenodd" fill="#1A1A1A" d="M48.556,14.131c-0.742,0.28-1.297,0.75-1.971,1.1
		c-0.821-0.34-1.394-0.751-2.474-0.688c-0.823,0.049-1.752,0.376-2.611,0.642c-0.833,0.26-1.624,0.627-2.243,1.008
		c-1.337,0.819-2.714,1.694-3.849,2.611c-1.191,0.959-2.295,2.036-3.528,2.93c-0.91,0.661-1.971,1.251-3.071,1.788
		c-1.441,0.705-3.601,1.339-5.724,1.466c-0.98,0.058-2.292-0.038-2.199-1.008c0.243-0.334,0.701-0.164,1.007-0.183
		c0.338-0.021,0.677-0.075,1.009-0.091c0.333-0.016,0.647,0.054,0.96,0.046c0.464-0.013,1.009-0.192,1.42-0.321
		c1.76-0.552,3.247-1.578,4.855-2.52c0.756-0.442,1.33-1.051,2.017-1.648c1.361-1.183,2.588-2.255,4.123-3.253
		c1.494-0.972,2.77-1.997,4.628-2.701c1.27-0.484,2.711-1.004,4.306-0.825C46.479,12.624,47.957,13.227,48.556,14.131z"/>
	<path fill-rule="evenodd" clip-rule="evenodd" fill="#1A1A1A" d="M64.038,19.031c0.794-0.28,1.728-0.505,2.749-0.32
		c-0.491,1.197-0.45,3.375,0.275,4.26c0.807,0.193,1.851,0.563,2.748,0.276c1.146-0.368,1.965-2.226,1.192-3.62
		c-0.401-0.72-1.449-1.438-2.291-1.787c-0.407-0.169-1.101-0.381-1.558-0.413c-0.227-0.015-0.453,0.084-0.688,0.093
		c-0.269,0.008-0.53-0.068-0.825-0.047c-2.763,0.195-5.932,2.004-7.055,4.077c-0.276,0.509-0.428,1.193-0.642,1.879
		c-0.282,0.913-0.689,1.761-0.366,2.703c0.212,0.616,0.845,1.108,1.421,1.604c0.598,0.513,1.183,1.057,1.74,1.374
		c1.22,0.693,2.782,1.083,4.307,1.466c1.602,0.402,3.324,0.547,4.993,0.78c1.55,0.214,3.097,0.743,4.398,1.374
		c1.094,0.53,2.358,1.75,2.932,2.839c0.355,0.678,0.651,1.617,0.962,2.521c0.575,1.674,1.179,3.373,0.779,5.68
		c-0.182,1.044-0.904,1.799-1.559,2.612c-1.121,1.396-2.36,2.628-3.756,3.804c-0.532,0.447-0.889,0.762-1.604,1.006
		c0.109-0.881,0.351-2.111,0.048-2.976c1.125-1.121,2.334-2.13,3.389-3.484c0.345-0.44,0.801-0.899,0.915-1.373
		c0.121-0.489,0.186-1.643,0.048-2.429c-0.112-0.639-0.462-1.401-0.733-2.153c-0.543-1.501-1.049-2.861-2.291-3.619
		c-0.447-0.272-1.069-0.458-1.648-0.688c-1.64-0.645-3.801-0.81-5.817-1.099c-1.274-0.182-2.525-0.463-3.758-0.87
		c-1.141-0.377-2.329-0.821-3.208-1.374c-0.48-0.304-0.915-0.769-1.374-1.146c-0.482-0.397-1-0.729-1.374-1.1
		c-0.809-0.799-1.625-2.127-1.465-3.985c0.066-0.784,0.386-1.637,0.642-2.429c0.522-1.622,0.975-2.604,2.015-3.756
		c1.036-1.146,2.212-1.985,3.803-2.657c1.832-0.772,4.072-1.369,6.734-0.962c2.359,0.362,4.952,2.09,5.59,4.353
		c0.811,2.885-1.123,5.745-3.299,6.321c-1.313,0.35-3.573,0.063-4.766-0.641c-0.895-0.529-1.535-2.125-1.694-3.297
		C63.816,20.857,63.955,20.047,64.038,19.031z"/>
	<path fill-rule="evenodd" clip-rule="evenodd" fill="#1A1A1A" d="M9.753,38.136c-0.625-0.613-0.958-1.515-1.42-2.292
		c0.688-1.375,1.786-2.542,2.749-3.802c0.929-1.215,1.905-2.502,2.61-3.894c0.235-0.459,0.401-1.027,0.642-1.558
		c0.225-0.494,0.556-1.051,0.641-1.558c0.097-0.58,0.13-1.785,0-2.382c-0.105-0.488-0.447-1.101-0.688-1.694
		c-0.486-1.207-0.982-3.019-2.84-2.383c-0.585,0.203-1.282,0.653-1.787,1.054c-0.819,0.65-1.735,1.77-2.335,2.886
		c-0.302,0.562-0.541,1.209-0.78,1.832c-0.257,0.671-0.604,1.329-0.733,1.879c-0.26,1.112-0.176,2.331-0.092,3.573
		c0.087,1.256,0.157,2.528,0.459,3.573c0.297,1.037,0.661,2.068,1.007,3.023c0.366,1.014,0.715,1.97,1.284,2.75
		c0.311,0.428,0.815,0.771,1.189,1.235c1.051,1.306,2.566,2.219,3.986,3.16c-0.475,0.675-0.91,1.383-1.191,2.248
		c-0.642-0.308-1.198-0.816-1.832-1.238c-0.592-0.396-1.278-0.765-1.742-1.283c-0.223-0.253-0.402-0.586-0.688-0.871
		c-0.241-0.242-0.564-0.465-0.776-0.731c-0.375-0.471-0.641-1.098-1.009-1.65c-0.217-0.326-0.522-0.594-0.733-0.916
		c-0.898-1.371-1.564-3.533-2.016-5.36c-0.521-2.11-0.719-4.58-0.549-6.551c0.149-1.743,0.68-2.901,1.282-4.399
		c0.792-1.959,1.898-3.414,3.346-4.718c0.805-0.726,1.917-1.582,3.114-1.924c2-0.573,3.777,0.479,4.627,1.741
		c0.335,0.5,0.613,1.292,0.916,2.015c0.326,0.784,0.733,1.543,0.871,2.062c0.24,0.904,0.191,2.529,0.045,3.435
		c-0.17,1.053-0.825,2.096-1.236,3.116c-0.409,1.014-0.994,1.975-1.558,2.794c-0.587,0.855-1.154,1.752-1.786,2.565
		C11.641,35.271,10.528,36.504,9.753,38.136z"/>
	<path fill-rule="evenodd" clip-rule="evenodd" fill="#1A1A1A" d="M49.791,19.399c0.037,0.009,0.048,0.046,0.092,0.046
		c-0.551,1.139-0.926,2.271-1.648,3.206c-1.406,1.82-3.721,2.809-5.955,3.849c-1.078,0.501-2.215,1.027-3.345,1.557
		c-0.536,0.252-1.136,0.549-1.696,0.733c-0.655,0.215-1.271,0.279-1.832,0.597c-0.318,0.179-0.571,0.434-0.871,0.595
		c-0.321,0.171-0.667,0.258-1.008,0.412c-1.911,0.859-3.769,2.047-5.589,2.978c0.058-1.041,0.168-2.031,0.458-2.839
		c1.336-0.853,2.779-1.627,4.307-2.384c1.489-0.738,3.138-1.203,4.672-1.97c2.237-1.117,4.583-2.005,6.78-3.208
		c0.719-0.393,1.48-0.764,2.063-1.237C47.323,20.841,48.083,19.582,49.791,19.399z"/>
	<path fill-rule="evenodd" clip-rule="evenodd" fill="#1A1A1A" d="M90.015,21.507c0.038-0.01,0.043,0.017,0.045,0.044
		c0.89,0.426,1.531,1.437,2.52,2.154c1.222,0.886,2.489,1.522,2.932,2.931c0.188,0.599,0.264,1.337,0.093,2.017
		c-0.087,0.344-0.511,0.897-0.778,1.283c-1.407,2.012-2.809,3.888-4.353,5.726c-0.636,0.758-1.384,1.466-1.832,2.199
		c-0.627,1.023-1.536,3.5-0.413,4.673c1.062,1.109,3.052,0.725,4.581,0.275c0.626-0.185,1.539-0.343,2.062-0.641
		c0.652-0.373,0.844-1.537,1.327-2.107c0.229-0.271,0.642-0.659,1.146-0.643c0.741,0.027,1.154,0.914,1.146,1.512
		c-0.006,0.459-0.319,0.812-0.549,1.282c-0.501,1.027-1.091,1.944-2.153,2.383c-0.587,0.244-1.482,0.434-2.337,0.688
		c-1.106,0.331-2.054,0.673-3.16,0.597c-2.594-0.182-4.535-1.494-5.085-3.804c-0.481-2.024,0.461-4.364,1.419-5.818
		c0.451-0.683,1.156-1.363,1.741-2.061c1.181-1.403,2.256-2.608,3.345-4.214c0.22-0.325,0.45-0.745,0.733-1.146
		c0.3-0.426,0.656-0.795,0.641-1.146c-0.025-0.618-1.048-1.323-1.512-1.649c-0.265-0.187-0.6-0.36-0.963-0.642
		c-0.198-0.154-0.728-0.545-0.777-0.778c-0.099-0.455,0.205-1.027,0.229-1.512C90.082,22.624,90.027,21.963,90.015,21.507z"/>
	<path fill-rule="evenodd" clip-rule="evenodd" fill="#1A1A1A" d="M26.703,25.583c0.053,1.022-0.066,2.126,0,3.299
		c0.067,1.175,0.211,2.363,0.137,3.574c-0.034,0.555-0.175,1.098-0.183,1.649c-0.032,1.861,0.336,3.718,0.183,5.497
		c-0.085,0.984-0.428,1.893-0.597,2.794c-0.176,0.944-0.269,1.877-0.686,2.702c-0.684-0.324-1.302-0.711-2.198-0.822
		c0.256-0.813,0.38-1.675,0.549-2.567c0.157-0.827,0.444-1.678,0.504-2.563c0.05-0.743-0.094-1.518-0.047-2.291
		c0.105-1.72,0.272-3.407,0.138-5.132c-0.151-1.945-0.487-3.883-0.229-5.726C25.118,25.891,25.933,25.76,26.703,25.583z"/>
	<path fill-rule="evenodd" clip-rule="evenodd" fill="#1A1A1A" d="M35.865,31.172c0.039-0.008,0.043,0.018,0.046,0.046
		c-0.52,1.854-1.117,3.966-0.55,6.047c0.125,0.452,0.415,0.991,0.642,1.511c0.225,0.513,0.425,1.084,0.687,1.467
		c0.44,0.647,1.369,1.322,2.153,1.925c0.824,0.631,1.62,1.318,2.337,1.741c0.864,0.506,1.558,0.61,2.704,0.366
		c0.368-0.079,0.811-0.099,1.146-0.185c0.221-0.059,0.395-0.272,0.64-0.366c0.865-0.329,1.81-0.42,2.656-0.825
		c1.106-0.529,2.643-1.838,3.347-2.839c0.576-0.822,1.521-2.375,1.053-3.848c-0.369-1.161-1.851-1.976-3.526-1.559
		c-0.58,0.145-1.615,0.96-2.018,1.375c-0.805,0.835-1.453,2.212-1.877,3.482c-0.31,0.928-0.52,1.901-0.594,2.885
		c-0.838,0.02-1.628,0.553-2.383,0.229c0.298-4.659,2.216-8.369,5.451-9.985c1.4-0.699,4.07-0.53,5.314,0.32
		c0.921,0.629,2.038,1.946,2.152,3.391c0.123,1.544-0.428,3.037-1.052,4.123c-1.02,1.764-2.412,3.168-4.308,4.306
		c-0.711,0.427-1.547,0.692-2.427,0.963c-0.905,0.274-1.865,0.529-2.748,0.594c-0.734,0.057-1.488-0.032-2.153,0.047
		c-0.696,0.082-0.98,0.287-1.741,0c-1.163-0.438-2.137-1.394-3.253-2.244c-0.858-0.658-1.793-1.375-2.382-2.017
		c-0.526-0.576-0.932-1.445-1.328-2.337c-0.3-0.675-0.652-1.395-0.779-1.877c-0.465-1.781-0.204-3.79,0.092-5.499
		C34.13,32.064,35.014,31.634,35.865,31.172z"/>
	<path fill-rule="evenodd" clip-rule="evenodd" fill="#1A1A1A" d="M21.572,49.268c0.781,0.197,1.65,0.305,2.154,0.779
		c-0.505,0.932-0.994,1.877-1.65,2.748c-0.566,0.752-1.325,1.686-2.198,2.154c-0.923,0.492-2.439,0.895-3.757,1.006
		c-2,0.168-3.454-0.586-4.077-1.877c-0.746-1.541-0.13-4.021,0.457-5.496c0.155-0.389,0.261-0.839,0.414-1.147
		c0.247-0.504,0.668-0.832,0.871-1.282c0.15-0.335,0.213-0.694,0.366-1.009c0.999-2.059,2.203-4.124,3.619-5.863
		c1.156-1.421,2.68-2.793,4.079-4.078c0.527-0.484,1.073-0.945,1.603-1.374c0.04,0.888-0.056,2.561-0.322,3.252
		c-0.081,0.214-0.446,0.553-0.732,0.825c-0.771,0.734-1.667,1.498-2.336,2.244c-0.976,1.084-1.757,2.487-2.566,3.573
		c-0.419,0.564-0.852,1.185-1.236,1.832c-0.389,0.657-0.622,1.387-0.917,2.154c-0.266,0.704-0.573,1.407-0.869,2.2
		c-0.343,0.916-0.937,3.115,0.045,3.619c0.269,0.139,0.854,0.141,1.146,0.139c1.109-0.021,2.514-0.42,3.207-0.826
		C20.214,52.053,20.72,50.441,21.572,49.268z"/>
	<path fill-rule="evenodd" clip-rule="evenodd" fill="#1A1A1A" d="M5.583,41.296c0.215,0.188,0.405,0.725,0.779,1.19
		c0.3,0.376,1.033,0.825,1.099,1.147c0.039,0.18-0.147,0.756-0.228,1.145c-0.237,1.124-0.418,2.373-0.459,3.575
		c-0.029,0.848-0.008,1.713-0.092,2.564c-0.084,0.859-0.192,1.713-0.138,2.611c0.086,1.371,0.585,3.24,0.824,4.672
		c0.084,0.498,0.066,0.92,0.184,1.328c0.175,0.613,0.487,1.311,0.733,2.016c0.614,1.76,1.411,3.066,2.336,4.535
		c0.388,0.619,0.92,1.428,2.016,1.145c0.685-0.174,1.706-1.502,1.647-2.426c-0.052-0.863-1.081-1.412-1.604-1.926
		c-1.039-0.182-1.825-0.617-2.84-0.824c-0.229-0.822-0.761-1.346-0.779-2.383c1.272-0.135,2.144,0.174,3.163,0.506
		c0.545,0.178,1.158,0.324,1.602,0.549c0.293,0.148,0.629,0.502,0.963,0.779c1.129,0.936,2.227,2.467,1.649,4.533
		c-0.138,0.494-0.365,1.086-0.551,1.422c-0.322,0.586-1.161,1.334-1.739,1.695c-1.356,0.848-3.73,0.352-4.718-0.504
		c-0.394-0.34-0.801-1.074-1.192-1.65c-0.784-1.156-1.377-2.291-1.923-3.711c-0.262-0.678-0.6-1.393-0.779-2.016
		c-0.204-0.705-0.291-1.514-0.503-2.334c-0.561-2.141-1.106-5.115-0.871-7.697c0.161-1.765,0.084-3.481,0.32-5.085
		C4.731,44.478,5.157,42.859,5.583,41.296z"/>
	<path fill-rule="evenodd" clip-rule="evenodd" fill="#1A1A1A" d="M54.646,67.5c-0.034-0.146,0.15-0.445,0.276-0.734
		c0.322-0.736,0.83-1.533,1.053-2.379c2.297-0.9,4.284-2.061,6.003-3.529c0.679-0.58,1.207-1.432,1.786-2.154
		c0.59-0.736,1.091-1.555,1.603-2.334c0.532-0.68,1.129-1.451,1.648-2.291c0.251-0.406,0.416-0.875,0.643-1.33
		c0.453-0.912,1.328-1.869,1.054-3.39c-0.085-0.469-0.559-1.107-0.778-1.694c-0.342-0.909-0.562-1.837-0.918-2.52
		c-0.159-0.311-0.525-0.736-0.823-0.823c-2.135-0.625-4.176,0-4.901,1.558c-0.107,0.23-0.302,0.767-0.275,1.007
		c0.05,0.464,1.021,1.475,1.374,1.742c1.175,0.889,3.073,1.664,4.948,1.236c-0.079,1.158-0.579,1.894-1.054,2.658
		c-1.307,0.078-2.627-0.297-3.712-0.826c-1.27-0.619-2.142-1.326-3.022-2.38c-0.7-0.84-1.335-1.765-1.008-3.299
		c0.359-1.698,1.702-3.266,3.343-3.985c0.553-0.242,1.118-0.465,1.833-0.504c2.423-0.135,4.448,0.571,5.361,2.014
		c0.329,0.525,0.496,1.176,0.778,1.879c0.141,0.35,0.287,0.734,0.412,1.101c0.354,1.032,0.849,1.799,0.777,2.979
		c-0.036,0.609-0.096,1.39-0.229,1.832c-0.232,0.775-0.82,1.309-0.778,2.381c-0.701,1.688-1.796,3.117-2.793,4.537
		c-1.005,1.424-2.019,2.826-3.209,4.076C61.551,64.691,58.452,66.449,54.646,67.5z"/>
	<path fill-rule="evenodd" clip-rule="evenodd" fill="#1A1A1A" d="M18.412,44.869c2.313-0.025,4.305,0.564,5.863,1.329
		c0.552,0.27,1.118,0.456,1.65,0.688c0.454,0.198,0.922,0.594,1.373,0.962c0.432,0.348,0.977,0.762,1.192,1.145
		c0.252,0.449,0.642,1.587,0.733,2.152c0.173,1.072-0.141,1.873-0.414,2.842c-0.173,0.629-0.315,1.268-0.549,1.742
		c-0.437,0.889-1.32,1.957-1.968,2.746c-0.342,0.418-0.645,0.91-0.962,1.377c-0.325,0.475-0.72,0.943-0.916,1.418
		c-0.276,0.664-0.432,1.805-0.504,2.705c-0.025,0.307-0.021,0.652,0,0.914c0.167,2.094,0.754,4.086,1.694,5.543
		c0.217,0.338,0.488,0.404,0.688,0.916c-0.841,0.307-1.538,0.754-2.291,1.146c-1.604-1.906-2.441-4.75-2.657-7.605
		c-0.02-0.262-0.017-0.562,0-0.824c0.077-1.33,0.346-3.199,0.915-4.26c0.25-0.463,0.623-0.926,0.918-1.375
		c0.601-0.914,1.356-1.639,1.969-2.564c0.593-0.896,0.898-1.449,1.236-2.656c0.276-0.986,0.465-1.824-0.045-2.752
		c-0.262-0.474-0.931-0.839-1.421-1.281c-0.511-0.459-1.126-0.752-1.648-1.006c-1.93-0.469-4.096-0.699-6.232-0.963
		C17.382,46.314,17.924,45.62,18.412,44.869z"/>
	<path fill-rule="evenodd" clip-rule="evenodd" fill="#1A1A1A" d="M42.69,51.834c0,0.865,0.208,1.74-0.045,2.473
		c-1.327,0.123-2.651,0.428-3.848,0.871c-1.683,0.623-2.954,1.508-3.94,2.795c-0.501,0.652-1.155,1.5-0.732,2.703
		c0.189,0.539,1.178,1.457,1.74,1.648c0.669,0.229,1.503,0.236,2.154,0.184c0.479-0.039,1.125-0.176,1.556-0.365
		c1.353-0.605,2.346-1.994,3.208-3.482c0.742-1.279,1.403-3.312,1.419-5.223c0.019-2.029-0.903-3.751-1.099-5.543
		c0.732,0.096,1.699-0.259,2.336-0.093c0.259,0.067,0.381,1.041,0.459,1.375c0.301,1.312,0.752,3.169,0.777,4.582
		c0.028,1.459-0.41,3.037-0.916,4.443c-0.232,0.643-0.526,1.234-0.872,1.832c-0.733,1.281-1.395,2.189-2.517,3.162
		c-1.173,1.014-2.568,1.781-4.72,1.787c-0.925,0-2.104-0.115-2.932-0.459c-0.747-0.311-1.981-1.436-2.427-2.109
		c-0.7-1.053-0.968-3.422-0.229-4.762c0.208-0.377,0.544-0.807,0.825-1.193C34.837,53.779,38.383,52.244,42.69,51.834z"/>
	<path fill-rule="evenodd" clip-rule="evenodd" fill="#1A1A1A" d="M47.868,51.789c0.039-0.01,0.043,0.016,0.045,0.045
		c0.94,0.025,1.766,0.4,2.657,0.732c1.074,0.402,1.908,0.619,2.611,1.145c0.844,0.635,1.169,1.527,1.603,2.705
		c0.21,0.566,0.493,1.158,0.597,1.646c0.329,1.562,0.197,3.75-0.321,5.223c-0.092,0.262-0.287,0.529-0.413,0.826
		c-0.36,0.85-0.738,1.674-1.099,2.52c-0.225,0.527-0.604,1.023-0.869,1.557c-0.139,0.277-0.263,0.559-0.414,0.824
		c-0.156,0.281-0.231,0.598-0.365,0.826c-0.224,0.377-0.637,0.781-0.963,1.145c-0.956,1.07-2.249,2-3.389,2.932
		c-0.782,0.641-1.641,1.219-2.566,1.65c-0.493,0.229-1.045,0.33-1.558,0.547c-1.43,0.609-2.665,1.383-4.626,1.65
		c-1.26,0.174-2.589,0.469-3.802,0.412c-2.643-0.125-4.716-0.594-6.459-1.832c0.904-0.516,1.969-0.871,2.933-1.328
		c1.262,0.451,2.659,0.729,4.351,0.596c0.76-0.059,1.507-0.27,2.246-0.367c0.789-0.104,1.477-0.199,2.151-0.457
		c0.624-0.24,1.192-0.549,1.788-0.824c0.597-0.277,1.239-0.469,1.832-0.732c2.372-1.064,4.117-2.977,5.771-4.582
		c0.413-1.086,1.215-1.824,1.743-2.979c0.229-0.504,0.359-1.1,0.594-1.648c0.229-0.535,0.468-1.02,0.641-1.559
		c0.782-2.414,0.19-4.939-0.869-6.779c-1.188-0.477-2.327-1.002-3.619-1.375C48.134,53.355,48.01,52.561,47.868,51.789z"/>
	<path fill-rule="evenodd" clip-rule="evenodd" fill="#1A1A1A" d="M15.983,82.525c0.712,0.314,1.721,0.326,2.29,0.781
		c-0.794,1.791-2.845,3.238-2.793,5.59c0.018,0.789,0.189,1.738,0.458,2.473c0.234,0.639,0.856,1.654,1.374,2.107
		c0.362,0.316,0.925,0.582,1.42,0.871c0.964,0.564,1.868,1.162,3.207,1.328c1.515,0.188,2.847,0.156,3.39-1.1
		c0.166-0.385,0.286-0.986,0.411-1.51c0.133-0.559,0.285-1.176,0.321-1.607c0.083-0.982-0.141-2.018-0.275-2.932
		c-0.287-1.979-1.198-2.73-2.382-3.848c-0.544-0.514-1.085-1.082-1.604-1.42c-0.814-0.529-1.865-0.859-2.794-1.328
		c-1.973-0.998-5.012-1.252-7.65-1.648c-1.062-0.16-2.177-0.463-3.251-0.734c-2.029-0.514-3.198-1.387-4.078-3.068
		c-0.622-1.191-0.892-2.447-1.1-4.17c-0.176-1.459-0.335-2.77-0.322-4.26c0.009-0.768,0.004-1.471,0.139-2.061
		c0.152-0.658,0.608-1.322,0.872-2.061c0.302-0.857,0.616-1.457,1.052-2.02c0.135,0.643,1.113,2.186,1.1,3.025
		c-0.009,0.615-0.539,1.115-0.641,1.604c-0.162,0.756-0.15,2.062-0.092,3.023c0.04,0.641,0.188,1.395,0.275,2.107
		c0.183,1.488,0.29,2.43,0.824,3.525c0.316,0.648,0.953,1.396,1.42,1.65c0.316,0.174,0.817,0.217,1.283,0.32
		c0.41,0.092,0.849,0.223,1.238,0.32c2.542,0.646,5.58,0.768,7.877,1.561c0.37,0.125,0.72,0.391,1.1,0.549
		c1.14,0.469,2.521,0.801,3.62,1.33c1.145,0.549,2.172,1.82,3.114,2.656c0.836,0.738,1.683,1.652,2.108,2.885
		c0.253,0.732,0.34,1.732,0.458,2.658c0.12,0.951,0.25,2.014,0.137,2.887c-0.053,0.404-0.267,1.014-0.412,1.648
		c-0.283,1.234-0.507,2.285-1.191,3.068c-0.908,1.045-2.102,1.502-3.94,1.467c-2.131-0.041-3.32-0.473-4.856-1.375
		c-1.248-0.732-2.283-1.184-3.023-2.107c-0.208-0.26-0.394-0.617-0.595-0.916c-0.372-0.555-0.703-1.023-0.916-1.65
		c-0.595-1.742-0.788-4.053-0.092-5.771c0.286-0.707,0.776-1.355,1.191-2.016C15.047,83.738,15.437,83.08,15.983,82.525z"/>
	<path fill-rule="evenodd" clip-rule="evenodd" fill="#1A1A1A" d="M49.242,65.896c0.232,0.035-0.061,0.264-0.092,0.322
		c-0.534,0.984-1.373,1.883-2.015,2.748c-1.156,0.133-2.229,0.531-3.345,0.824c-2.235,0.59-4.8,0.605-6.78,1.514
		c-0.469,0.213-0.979,0.387-1.467,0.596c-0.492,0.207-0.986,0.484-1.466,0.594c-0.258,0.059-0.523,0.021-0.777,0.092
		c-0.685,0.191-1.254,0.631-1.878,0.916c-0.867,0.393-1.764,0.678-2.613,1.053c-0.84,0.375-1.615,0.742-2.381,1.285
		c-1.462,1.035-2.73,2.105-4.031,3.25c-0.718-0.41-1.66-0.598-2.474-0.916c-0.054-0.186,0.48-0.551,0.732-0.777
		c0.575-0.516,1.152-1.08,1.787-1.604c0.33-0.271,0.61-0.609,0.918-0.779c0.183-0.102,0.405-0.137,0.595-0.229
		c0.355-0.172,0.654-0.451,1.008-0.688c0.659-0.436,1.411-0.814,2.155-1.236c0.347-0.199,0.655-0.506,1.006-0.688
		c0.71-0.367,1.598-0.582,2.428-1.008c0.992-0.51,1.787-0.834,2.932-1.1c1.299-0.301,2.671-1.275,3.985-1.648
		c0.417-0.119,0.914-0.139,1.374-0.23c1.24-0.242,2.614-0.391,3.94-0.732c0.839-0.217,1.666-0.436,2.474-0.641
		c0.896-0.229,1.747-0.336,2.612-0.506C48.299,66.225,48.802,66.004,49.242,65.896z"/>
</g>
</svg>
