<?xml version="1.0" encoding="utf-8"?>
<!-- Generator: Adobe Illustrator 16.0.0, SVG Export Plug-In . SVG Version: 6.00 Build 0)  -->
<!DOCTYPE svg PUBLIC "-//W3C//DTD SVG 1.1//EN" "http://www.w3.org/Graphics/SVG/1.1/DTD/svg11.dtd">
<svg version="1.1" id="Layer_1" xmlns="http://www.w3.org/2000/svg" xmlns:xlink="http://www.w3.org/1999/xlink" x="0px" y="0px"
	 width="100px" height="100px" viewBox="-25 -25 100 100" enable-background="new -25 -25 100 100" xml:space="preserve">
<g>
	<path fill="#4D4D4D" d="M35.148,0.181c-0.766-0.711-1.699,2.337-2.599,2.309c-0.987-0.025-1.844-3.045-2.708-2.252
		c-2.304,2.113-3.985,6.825-4.135,12.336c-0.208,7.57,2.56,13.786,6.186,13.88c3.622,0.099,6.721-5.96,6.926-13.53
		c0.057-2.079-0.113-4.062-0.462-5.837C37.754,4.011,36.607,1.535,35.148,0.181"/>
</g>
<g>
	<g>
		<path fill="#E6E6E6" d="M31.055,22.927c24.739-6.297,29.967-2.441,29.967-2.441s-4.417-3.825-28.965,0.767L31.055,22.927z"/>
		<circle fill="#E6E6E6" cx="60.958" cy="20.013" r="1.551"/>
	</g>
	<g>
		<path fill="#E6E6E6" d="M31.326,21.634C50.997,16.5,53.163,11.8,53.163,11.8s-1.607,4.365-20.493,10.612L31.326,21.634z"/>
		<path fill="#E6E6E6" d="M53.257,13.39c-0.683-0.026-1.215-0.601-1.189-1.283c0.033-0.681,0.599-1.211,1.283-1.186
			c0.681,0.023,1.213,0.599,1.185,1.278C54.512,12.881,53.938,13.414,53.257,13.39z"/>
	</g>
	<path fill="#E6E6E6" d="M30.945,23.262c24.469-8.729,31.02-6.231,31.02-6.231s-5.685-2.585-30.402,4.689L30.945,23.262z"/>
</g>
<g>
	<path fill="#666666" d="M55.127,22.229c-1.512-1.892-4.414-3.413-7.999-4.184c2.08-4.125,2.454-8.444,1.089-11.485
		c-0.532-1.188-3.245,0.691-4.303-0.022c-1.158-0.773-0.587-4.003-2.025-3.987c-3.845,0.04-8.32,2.761-11.395,7.339
		c-3.574,5.322-4.098,11.442-1.593,14.924c0.296,3.87,6.12,7.139,13.403,7.408c5.684,0.211,10.624-1.465,12.802-4.031
		c0.393-0.471-0.341-1.005-1.075-1.552c-0.61-0.457-1.217-0.925-1.199-1.385c0.037-1.013,2.59-1.89,2.415-2.78
		C55.229,22.394,55.194,22.312,55.127,22.229"/>
</g>
<g>
	<path fill="#B3B3B3" d="M-13.996,46.882c0,0,4.958-8.854,18.285-11.449c13.331-2.588,20.112-9.673,20.112-9.673
		c-0.384-8.487,7.702-21.018,5.275-13.517c-6.768,13.209,5.528,1.344,2.834,5.821c-2.689,4.479,0.325,6.169,5.13,10.878
		c4.806,4.706-5.826,4.8-12.627-0.522c0,0-5.512,4.206-20.727,7.567c-15.217,3.354-18.76,12.817-18.76,12.817L-13.996,46.882z"/>
</g>
</svg>
