<?xml version="1.0" encoding="utf-8"?>
<!-- Generator: Adobe Illustrator 16.0.0, SVG Export Plug-In . SVG Version: 6.00 Build 0)  -->
<!DOCTYPE svg PUBLIC "-//W3C//DTD SVG 1.1//EN" "http://www.w3.org/Graphics/SVG/1.1/DTD/svg11.dtd">
<svg version="1.1" id="Layer_1" xmlns="http://www.w3.org/2000/svg" xmlns:xlink="http://www.w3.org/1999/xlink" x="0px" y="0px"
	 width="100px" height="100px" viewBox="0 0 100 100" enable-background="new 0 0 100 100" xml:space="preserve">
<path fill="#231F20" d="M92.44,50.229c1.973-0.542,3.202-1.467,4.228-2.369c2.479-2.184,4.436-6.544,3.271-9.779
	c-0.019-0.056-0.069-0.095-0.128-0.101c-0.06-0.005-0.116,0.024-0.146,0.076c-0.989,1.716-2.258,3.263-3.67,4.508
	c2.149-2.625,3.476-5.956,3.466-8.899c-0.008-2.351-0.869-4.402-2.49-5.933c-0.687-0.647-1.544-1.187-2.373-1.708
	c-1.245-0.782-2.527-1.591-3.272-2.786c-0.47-0.884-0.599-1.689-0.371-2.392c0.349-1.083,1.427-1.568,1.438-1.573
	c0.056-0.024,0.092-0.08,0.091-0.141c-0.002-0.062-0.04-0.116-0.097-0.139c-0.545-0.212-1.023-0.214-1.424-0.006
	c-0.224,0.117-0.393,0.284-0.519,0.455c-0.012,0.011-0.022,0.023-0.034,0.035c0.057-0.939,0.397-2.599,2.085-2.789
	c0.893-0.102,1.76,0.23,2.598,0.552l0.081,0.031c0.067,0.026,0.138,0.054,0.209,0.083c0.548,0.22,1.231,0.495,1.805,0.081
	c0.512-0.369,0.735-0.869,0.651-1.443c-0.139-0.947-1.11-1.887-1.929-2.171c-1.075-0.372-2.474-0.186-3.74,0.5
	c-1.822,0.986-2.898,3.16-2.811,5.672c0.072,2.043,0.892,3.814,2.205,4.888c-1.723-0.433-3.807-0.437-5.47,0.629
	c-1.625,1.042-2.592,2.82-2.586,4.757c0.006,1.846,0.894,3.463,2.435,4.438c0.96,0.607,2.211,0.677,3.314,0.737l0.054,0.003
	c1.879,0.105,3.173-0.316,3.946-1.285c0.789-0.988,1.266-2.985,0.063-4.013c-0.371-0.316-1.071-0.576-1.69-0.461
	c-0.366,0.068-0.646,0.262-0.809,0.561c-0.25,0.461-0.038,0.885,0.149,1.258c0.05,0.1,0.1,0.2,0.139,0.298
	c0.353,0.873,0.109,1.721-0.619,2.16c-1.521,0.917-3.7,0.231-4.78-0.986c-1.115-1.258-1.379-2.917-0.707-4.437
	c0.726-1.638,2.346-2.711,4.129-2.733c1.261-0.021,2.467,0.249,3.486,0.581c-1.358-0.065-2.695,0.355-3.183,1.72
	c-0.018,0.051-0.007,0.108,0.027,0.149c0.036,0.041,0.088,0.061,0.143,0.051c2.361-0.431,4.733-0.014,6.344,1.118
	c0.701,0.493,1.251,1.099,1.648,1.815c-0.137-0.117-0.282-0.215-0.438-0.292c-0.636-0.313-1.379-0.261-2.149,0.151
	c-0.049,0.026-0.079,0.076-0.08,0.131c-0.001,0.055,0.027,0.106,0.075,0.134c1.927,1.127,2.444,2.961,2.54,4.302
	c0.185,2.583-1.024,5.572-2.916,7.31c0.398-1.036,0.388-2.226-0.097-3.326c-0.025-0.059-0.086-0.096-0.147-0.091
	c-0.063,0.004-0.118,0.047-0.137,0.108c-0.519,1.728-1.585,3.354-2.923,4.462c-2.073,1.716-4.71,1.685-7.262,1.654
	c-0.737-0.01-1.503-0.018-2.239,0.016c-4.446,0.204-7.921,1.297-10.62,3.341c-2.558,1.938-6.167,7.823-5.914,11.987
	c0.075,1.243,0.32,2.545,0.737,3.948c-0.07-0.1-0.142-0.198-0.214-0.299c-0.171-0.236-0.343-0.476-0.51-0.721
	c-0.04-0.058-0.114-0.08-0.179-0.057c-0.065,0.024-0.105,0.09-0.099,0.159c0.039,0.344,0.099,0.686,0.155,1.017
	c0.108,0.629,0.212,1.226,0.19,1.854c-0.085-0.723-0.284-1.41-0.494-2.02c-0.392-1.139-0.477-2.813-0.477-2.831
	c-0.003-0.055-0.036-0.104-0.087-0.129c-0.05-0.024-0.108-0.019-0.154,0.014c-0.336,0.245-0.567,0.643-0.728,1.054
	c-0.028-0.854-0.123-1.828-0.328-2.941c-1.088-5.861-6.129-8.362-9.502-9.73c0.011-0.011,0.023-0.018,0.03-0.032
	c0.343-0.644,0.868-1.227,1.52-1.688c0.046-0.033,0.07-0.088,0.062-0.144c-0.007-0.056-0.045-0.104-0.098-0.123
	c-1.424-0.531-3.174-0.217-4.359,0.783c-1.137-0.664-1.588-1.521-1.372-2.604c0.131-0.653,0.82-0.818,1.25-0.77
	c0.063,0.007,0.119,0.02,0.17,0.035l0.155,0.062c0.079,0.039,0.134,0.083,0.169,0.115c-0.132,0.527,0.182,1.062,0.566,1.313
	c0.353,0.23,0.736,0.22,1.003-0.027c0.419-0.392,0.53-0.848,0.312-1.284c-0.403-0.807-1.792-1.301-3.033-1.08
	c-0.872,0.155-1.556,0.957-1.701,1.996c-0.14,0.996,0.249,2.311,1.661,3.258c-0.834,1.557-0.516,3.419,0.104,4.776
	c-0.648-0.713-1.282-1.439-1.893-2.182c-0.733-0.89-1.5-1.87-2.238-2.928c0.001-0.035-0.006-0.071-0.028-0.102
	c-0.007-0.01-0.014-0.019-0.021-0.029c0,0,0,0,0-0.002c-0.053-0.35-0.172-0.656-0.299-0.95c0.002-0.02,0.003-0.037-0.002-0.057
	c-0.034-0.124-0.067-0.245-0.1-0.366c-0.006-0.233,0.002-0.476,0.041-0.732c0.177-1.195,0.83-2.421,1.586-2.98
	c0.878-0.649,1.83-0.759,2.838-0.873c0.133-0.016,0.267-0.03,0.4-0.047c0.777-0.096,0.945-0.383,0.949-0.607
	c0.008-0.401-0.554-0.809-1.278-0.926c-2.068-0.337-4.112,1.273-4.82,2.957c-0.046,0.107-0.084,0.219-0.122,0.331
	c0.076-0.996,0.482-1.922,1.458-2.888c0.226-0.225,0.561-0.426,0.914-0.638c0.599-0.36,1.218-0.733,1.431-1.293
	c0.155-0.408,0.131-0.715-0.073-0.91c-0.404-0.387-1.353-0.13-1.798,0.061c-1.374,0.587-2.356,1.812-2.769,3.451
	c-0.14,0.561-0.204,1.146-0.202,1.731c-0.215-1.054-0.244-2.354-0.073-3.421c0.243-1.512,1-2.934,2.024-3.802
	c0.401-0.34,0.854-0.462,1.336-0.592c0.39-0.104,0.796-0.213,1.162-0.448c0.602-0.387,0.599-0.808,0.544-1.024
	c-0.114-0.447-0.637-0.792-1.272-0.837c-1.259-0.093-2.282,0.861-2.782,1.436c-1.145,1.317-1.738,3.011-1.867,5.332
	c-0.064,1.155,0.071,2.154,0.31,3.119c-0.035-0.079-0.071-0.156-0.105-0.237c-1.267-3.894-0.485-8.895,3.094-11.616
	c0.804-0.611,2.173-0.863,3.185-0.895c0.123-0.004,0.263,0.004,0.409,0.011c0.471,0.026,1.005,0.056,1.278-0.255
	c0.148-0.168,0.195-0.413,0.139-0.727c-0.081-0.447-0.396-0.773-0.909-0.943c-1.313-0.435-3.923,0.221-5.715,1.892
	c0.164-0.232,0.335-0.461,0.522-0.686c0.894-1.074,2.23-2.015,3.667-2.581l0.058-0.023c1.038-0.41,2.775-1.096,3.859-0.618
	c0.241,0.107,0.471,0.289,0.713,0.481c0.461,0.367,0.984,0.782,1.653,0.63c0.541-0.122,0.733-0.437,0.798-0.68
	c0.16-0.592-0.245-1.37-0.707-1.802c-1.29-1.205-3.645-1.067-5.418-0.536c-1.447,0.434-2.836,1.248-4.05,2.302
	c1.306-1.437,2.891-2.669,4.701-3.604c1.855-0.606,5.585-1.087,7.784,0.185c0.858,0.496,1.391,1.216,1.581,2.139
	c0.027,0.136,0.048,0.309,0.068,0.492c0.065,0.585,0.148,1.313,0.594,1.636c0.149,0.108,0.328,0.163,0.532,0.163
	c0.089,0,0.182-0.01,0.279-0.031c0.365-0.076,0.68-0.301,0.909-0.652c0.32-0.493,0.451-1.216,0.325-1.801
	c-0.465-2.17-3.341-3.244-4.211-3.521c-0.53-0.17-1.065-0.288-1.6-0.358c1.021-0.068,2.052-0.039,3.074,0.083
	c1.498,0.327,3.13,1.251,3.839,2.215c1.217,1.655,1.751,3.249,1.59,4.739c-0.034,0.319-0.241,0.586-0.46,0.868
	c-0.294,0.378-0.599,0.77-0.476,1.308c0.093,0.404,0.349,0.676,0.722,0.766c0.089,0.022,0.183,0.033,0.281,0.033
	c0.474,0,1.018-0.243,1.339-0.623c1.44-1.706,0.818-4.178-0.247-5.923c-0.587-0.963-1.085-1.538-1.755-2.038
	c0.567,0.259,1.118,0.551,1.645,0.874c1.185,0.932,2.156,2.455,2.411,3.887c0.178,1.003,0.217,2.255,0.1,3.271
	c-0.1,0.869-0.357,1.066-0.827,1.424c-0.164,0.125-0.352,0.267-0.559,0.458c-0.394,0.361-0.549,0.944-0.386,1.45
	c0.151,0.471,0.539,0.777,1.063,0.84c0.05,0.006,0.099,0.008,0.147,0.008c0.887,0,1.689-0.961,2.121-1.824
	c1.004-2.006,0.328-4.282-0.267-5.819l-0.044-0.114c-0.032-0.085-0.064-0.171-0.1-0.259c2.649,3.646,3.409,8.94,0.387,12.6
	c-1.183,1.098-2.962,1.572-4.149,1.547c-0.8-0.019-1.554-0.149-1.659-0.96c-0.04-0.302,0.028-0.555,0.199-0.729
	c0.022-0.023,0.053-0.039,0.077-0.06c0.113-0.05,0.228-0.083,0.294-0.102c-0.008,0.021-0.017,0.043-0.021,0.066
	c-0.065,0.332,0.146,0.734,0.506,0.956c0.108,0.067,0.223,0.111,0.34,0.137c-0.009,0.004-0.021,0.01-0.028,0.013
	c0.024,0.005,0.07,0.005,0.122,0.002c0.294,0.034,0.602-0.058,0.885-0.278c0.471-0.367,0.724-0.955,0.694-1.613
	c-0.028-0.646-0.328-1.228-0.782-1.521c-1.125-0.725-2.456-0.626-3.477,0.258c-1.127,0.979-1.498,2.567-0.904,3.862
	c0.202,0.438,0.5,0.809,0.88,1.111c-2.353-0.153-5.173-1.168-6.135-3.646c-0.416-1.074-0.432-2.808,0.357-3.908
	c0.113-0.159,0.24-0.296,0.377-0.413c0.021-0.015,0.043-0.029,0.065-0.042c0.35-0.221,0.74-0.363,1.009-0.438
	c-0.494,0.483-0.702,1.194-0.536,1.924c0.064,0.283,0.185,0.534,0.342,0.752c0.028,0.067,0.063,0.139,0.114,0.202
	c0.11,0.144,0.26,0.226,0.348,0.254c0.271,0.188,0.591,0.31,0.942,0.338c0.651,0.054,1.278-0.18,1.812-0.676
	c0.798-0.739,1.353-2.053,1.347-3.194c-0.005-1.284-0.644-2.38-1.793-3.085c-1.53-0.937-3.78-1.043-5.35-0.252
	c-3.596,1.812-3.223,6.806-1.84,9.61c1.689,3.427,5.243,5.568,9.072,5.568c0.371,0,0.745-0.02,1.12-0.061
	c4.387-0.48,8.22-3.381,9.763-7.389c1.57-4.073,0.8-9.123-2.011-13.178c-4.722-6.815-14.123-8.023-20.972-5.695
	c-4.693,1.596-8.717,4.873-11.091,9.011c-1.854-4.176-6.356-7.002-12.264-7.663c-0.024-0.017-0.051-0.031-0.083-0.032
	c-0.491-0.025-0.943-0.247-1.209-0.594c-0.235-0.305-0.314-0.681-0.228-1.085c0.017-0.082-0.036-0.162-0.117-0.18
	c-0.083-0.017-0.164,0.035-0.181,0.117c0,0.002,0,0.004,0,0.006c-0.33,0.228-0.548,0.546-0.643,0.896
	c-0.014,0.031-0.024,0.059-0.03,0.078c-0.025,0.076-0.052,0.194-0.057,0.298c-0.008,0.104,0.004,0.188,0.004,0.188
	c0-0.001,0.005,0.072,0.03,0.164c-3.188-0.014-6.217,0.605-8.771,1.795c-1.187,0.553-2.34,1.263-3.427,2.11
	c-0.442,0.344-0.86,0.73-1.264,1.103c-0.551,0.508-1.122,1.033-1.75,1.451c-1.942,1.293-4.252,1.413-5.882,0.308
	c-1.86-1.262-1.691-3.692-1.533-4.677c0.266-1.645,1.22-3.554,3.104-3.982c0.917-0.209,1.818,0.098,2.351,0.801
	c0.492,0.648,0.537,1.495,0.12,2.263c-0.035,0.062-0.021,0.14,0.033,0.187c0.053,0.047,0.132,0.05,0.189,0.009
	c0.7-0.508,1.086-1.27,1.058-2.089C9.775,20.418,9.33,19.669,8.58,19.2c-1.499-0.94-3.269-0.333-4.509,0.759
	c0.063-0.545-0.096-1.059-0.462-1.462c-0.5-0.549-1.298-0.795-1.984-0.613c-0.642,0.17-1.085,0.675-1.25,1.421
	c-0.014,0.064,0.014,0.13,0.071,0.164c0.056,0.033,0.127,0.027,0.178-0.017c0.375-0.329,0.89-0.426,1.377-0.261
	c0.5,0.169,0.859,0.58,0.961,1.081c0.057,0.633-0.016,1.276-0.14,1.916c-0.013,0.052-0.021,0.096-0.026,0.135
	c-0.092,0.446-0.207,0.892-0.321,1.331c-0.396,1.522-0.805,3.098-0.229,4.679c0.827,1.818,2.961,2.712,5.09,2.712
	c0.887,0,1.768-0.16,2.558-0.467c-1.645,4.575,0.373,10.502,4.486,13.409c0.012,0.017,0.026,0.031,0.044,0.042
	c0.03,0.017,2.886,1.745,2.598,4.466c-0.174,1.636-1.192,2.332-1.785,2.601c-0.839,0.383-1.83,0.367-2.409-0.038
	c-0.613-0.429-0.783-0.986-0.816-1.377c-0.048-0.532,0.138-1.093,0.473-1.427c0.317-0.317,0.845-0.424,1.283-0.26
	c0.184,0.069,0.496,0.244,0.522,0.648c0.004,0.069,0.056,0.127,0.124,0.139c0.068,0.013,0.137-0.021,0.165-0.085
	c0.015-0.029,0.328-0.727,0.015-1.362c-0.208-0.422-0.636-0.709-1.272-0.852c-0.968-0.219-1.948,0.082-2.558,0.788
	c-0.66,0.764-0.787,1.854-0.349,2.994c0.334,0.866,0.934,1.481,1.787,1.826c0.506,0.207,1.068,0.293,1.605,0.293
	c0.663,0,1.289-0.132,1.731-0.336c0.975-0.45,2.092-1.543,2.388-2.967c0.261-1.26-0.157-2.595-1.21-3.876
	c1.33,0.472,2.807,0.706,4.315,0.706c2.438,0,4.95-0.604,7.022-1.767c1.875-1.054,4.235-3.027,4.833-6.449
	c0.363-2.076-0.151-4.366-1.343-5.977c-0.936-1.265-2.213-2.03-3.694-2.215c-1.91-0.239-4.215,0.556-4.93,2.534
	c-0.322,0.892-0.225,1.967,0.255,2.803c0.417,0.726,1.074,1.204,1.851,1.346c0.898,0.164,2.38-0.152,3.159-0.885
	c0.42-0.396,0.608-0.881,0.545-1.403c-0.067-0.56-0.574-1.148-1.154-1.338c-0.406-0.134-0.785-0.055-1.079,0.216
	c-0.014,0.009-0.03,0.018-0.039,0.025c0.003,0,0.01,0,0.013,0c-0.01,0.01-0.021,0.019-0.032,0.03
	c-0.226,0.239-0.489,1.123-0.237,1.503c0.028,0.043,0.073,0.095,0.14,0.133c-0.438,0.281-0.973,0.284-1.492-0.007
	c-0.657-0.369-1.199-1.188-0.964-2.041c0.452-1.639,2.75-1.888,4.092-1.66c1.136,0.192,2.001,0.8,2.574,1.805
	c0.993,1.746,0.803,4.207,0.206,5.755c-1.657,4.3-6.528,5.972-10.588,5.48c0.049-0.015,0.1-0.026,0.148-0.047
	c0.411-0.169,0.779-0.576,0.685-1.026c-0.051-0.242-0.197-0.354-0.312-0.404c-0.26-0.114-0.605-0.03-0.833,0.105
	c-0.123,0.074-0.235,0.159-0.343,0.243c-0.076,0.058-0.152,0.116-0.231,0.169c-0.188,0.126-0.384,0.21-0.584,0.252
	c-0.375,0.076-0.777,0.033-1.167-0.009l-0.05-0.004c-0.023-0.003-0.044,0.001-0.064,0.007c-0.465-0.189-0.911-0.409-1.327-0.661
	c0.234,0.047,0.473,0.081,0.715,0.081c0.046,0,0.091-0.001,0.138-0.003c0.679-0.034,1.438-0.366,1.502-1.019
	c0.028-0.293-0.156-0.544-0.448-0.609c-0.333-0.075-0.674,0.058-0.948,0.164c-0.069,0.026-0.138,0.054-0.208,0.082
	c-0.255,0.104-0.498,0.202-0.755,0.249c-0.287,0.054-0.576,0.03-0.857-0.068c-0.638-0.223-0.853-0.415-1.01-0.556
	c-0.055-0.049-0.102-0.093-0.155-0.13c-0.015-0.01-0.031-0.016-0.047-0.021c-0.462-0.45-0.835-1.03-1.119-1.574
	c0.223,0.176,0.446,0.321,0.643,0.439c0.648,0.394,1.347,0.751,2.085,0.751c0.062,0,0.123-0.002,0.186-0.008
	c0.478-0.04,0.892-0.257,1.133-0.595c0.208-0.291,0.308-0.712,0.066-0.995c-0.232-0.274-0.642-0.255-0.938-0.24l-0.105,0.006
	c-0.469,0.015-1.022,0.011-1.565-0.133c-0.547-0.146-1.076-0.408-1.528-0.756c-0.369-0.283-0.663-0.634-0.881-0.914
	c0.002-0.017,0.004-0.035,0-0.052c-0.205-0.935-0.278-1.909-0.221-2.867c0.238,0.669,0.647,1.286,1.165,1.939
	c0.59,0.746,1.228,1.184,1.895,1.302c0.098,0.018,0.197,0.026,0.299,0.026c0.435,0,0.888-0.166,1.095-0.574
	c0.189-0.374,0.046-0.813-0.357-1.093c-0.271-0.188-0.582-0.295-0.882-0.398c-0.127-0.044-0.255-0.088-0.377-0.138
	c-0.425-0.172-0.772-0.408-1.057-0.721c-0.306-0.333-0.551-0.72-0.771-1.089c-0.222-0.374-0.411-0.711-0.482-1.078
	c-0.062-0.323-0.007-0.651,0.067-1.016c0.006-0.033,0-0.062-0.012-0.091c0.023-0.017,0.042-0.04,0.054-0.069
	c0.355-0.928,0.858-1.793,1.469-2.54c-0.367,1.137-0.687,2.532,0.098,3.694c0.327,0.483,0.775,0.822,1.231,0.93
	c0.08,0.019,0.163,0.029,0.244,0.029c0.278,0,0.542-0.119,0.631-0.416c0.116-0.391-0.112-0.82-0.235-1.051
	c-0.11-0.211-0.24-0.414-0.363-0.609c-0.091-0.144-0.182-0.288-0.267-0.435c-0.382-0.666-0.541-1.362-0.471-2.073
	c0.038-0.393,0.138-0.725,0.297-0.989c0.156-0.257,0.386-0.454,0.608-0.633c0.028-0.023,0.044-0.055,0.051-0.088
	c0.468-0.313,0.96-0.6,1.468-0.861c-0.161,0.194-0.308,0.405-0.497,0.686c-0.39,0.583-0.439,1.32-0.455,1.965
	c-0.017,0.643,0.151,1.229,0.471,1.651c0.097,0.129,0.416,0.501,0.828,0.501c0.064,0,0.13-0.009,0.199-0.029
	c0.368-0.109,0.496-0.486,0.493-0.803c-0.004-0.384-0.162-0.749-0.301-1.071l-0.017-0.04c-0.137-0.316-0.279-0.643-0.314-0.981
	c-0.034-0.322,0.026-0.664,0.179-1.018c0.261-0.603,0.722-1.149,1.41-1.668c0.021-0.016,0.036-0.038,0.045-0.061
	c0.609-0.208,1.24-0.375,1.886-0.507c-0.399,0.247-0.758,0.573-1.041,0.957c-0.353,0.475-0.537,0.938-0.547,1.377
	c-0.008,0.336,0.117,0.755,0.492,0.925c0.094,0.043,0.195,0.064,0.296,0.064c0.206,0,0.409-0.086,0.56-0.246
	c0.235-0.25,0.287-0.599,0.307-0.876c0.006-0.087,0.01-0.176,0.013-0.263c0.008-0.219,0.016-0.426,0.067-0.626
	c0.067-0.261,0.215-0.497,0.438-0.704c0.427-0.392,1.242-0.766,1.854-0.948c0.022,0.012,0.045,0.02,0.07,0.02
	c0.002,0,0.004,0,0.007,0c0.24-0.012,0.481-0.017,0.722-0.019c-0.281,0.189-0.553,0.414-0.678,0.738
	c-0.126,0.326-0.048,0.714,0.183,0.903c0.093,0.076,0.201,0.114,0.316,0.114c0.12,0,0.248-0.041,0.375-0.123
	c0.268-0.172,0.412-0.426,0.55-0.672c0.105-0.188,0.206-0.365,0.354-0.494c0.265-0.229,0.692-0.27,1.067-0.307l0.113-0.011
	c0.012-0.001,0.021-0.006,0.032-0.01c4.626,0.591,8.466,2.994,10.277,6.433c1.262,2.398,1.533,5.115,1.796,7.741
	c0.197,1.975,0.4,4.017,1.019,5.931c0.982,3.036,2.844,5.971,5.531,8.729c-0.035-0.01-0.071-0.021-0.106-0.03
	c-2.054-0.832-3.738-0.303-5.505,0.255c-0.711,0.225-1.446,0.457-2.223,0.604c-2.172,0.41-3.701-0.965-4.317-1.661
	c0.257,0.054,0.571,0.075,0.843-0.038c0.232-0.096,0.396-0.274,0.489-0.527c0.101-0.272,0.123-0.726-0.144-1.106
	c-0.202-0.289-0.646-0.635-1.617-0.635c-0.83,0-1.622,0.484-2.07,1.265c-0.67,1.169-0.495,2.798,0.482,4.467
	c1.198,2.044,3.792,2.9,6.582,2.9c1.63,0,3.326-0.293,4.847-0.81c0.354-0.121,0.709-0.223,1.062-0.309
	c-0.863,0.566-1.997,1.707-2.363,3.892c-0.292,1.735,0.045,3.269,0.948,4.319c0.682,0.792,1.655,1.26,2.616,1.26
	c0.015,0,0.032,0,0.047,0c0.951-0.016,1.577-0.212,1.914-0.598c0.236-0.271,0.324-0.627,0.267-1.09
	c-0.043-0.37-0.386-0.707-0.892-0.883c-0.471-0.162-1.162-0.195-1.67,0.183c-0.036-0.031-0.068-0.064-0.091-0.092
	c-0.04-0.041-0.134-0.135-0.225-0.241c-0.165-0.356-0.199-0.806-0.097-1.348c0.106-0.564,0.483-1.053,1.12-1.453
	c1.394-0.876,3.635-1.049,4.913-0.705c0.807,0.217,1.713,0.578,2.631,1.041c-0.847-0.156-1.921-0.184-2.832,0.345
	c-0.997,0.577-1.579,1.701-1.731,3.339c-0.006,0.055,0.019,0.107,0.063,0.139s0.102,0.036,0.151,0.014
	c0.034-0.016,3.468-1.569,6.5-0.48c2.031,0.729,3.639,1.604,5.017,2.741c-1.347-0.694-3.443-1.282-5.903-0.263
	c-0.062,0.026-0.101,0.09-0.093,0.157s0.059,0.121,0.125,0.133c0.076,0.013,7.599,1.342,10.742,5.227
	c0.018,0.021,0.039,0.034,0.063,0.044c3.552,4.299,6.036,8.173,7.786,12.149c0.521,1.185,1.062,2.41,1.361,3.687
	c0.073,0.312,0.115,0.637,0.16,0.98c0.093,0.716,0.188,1.455,0.587,2.078c0.146,0.229,0.36,0.514,0.604,0.514
	c0.037,0,0.074-0.006,0.11-0.02c0.582-0.213,0.385-2.261,0.382-2.282c-0.119-0.904-0.354-1.788-0.656-2.652
	c-0.011-0.041-0.021-0.081-0.032-0.122c-0.215-0.764-0.417-1.484-0.006-2.203c0.038-0.066,0.021-0.151-0.041-0.196
	c-0.061-0.047-0.147-0.039-0.2,0.016c-0.062,0.065-0.128,0.125-0.193,0.184c-0.079,0.072-0.158,0.145-0.231,0.225
	c0.003-0.184,0.058-0.361,0.116-0.558c0.044-0.146,0.09-0.301,0.117-0.463c0.092-0.575,0.098-1.228,0.087-1.676
	c-0.002-0.067-0.047-0.125-0.113-0.143c-0.065-0.017-0.134,0.011-0.169,0.068c-0.091,0.151-0.201,0.301-0.309,0.443
	c-0.063,0.086-0.125,0.172-0.188,0.261l-0.142-0.539c-0.006-0.021-0.015-0.038-0.026-0.054c0.015-0.066,0.027-0.132,0.041-0.196
	l0.039-0.181c0.215-1.021,0.16-1.972-0.167-2.825c-0.021-0.052-0.068-0.089-0.125-0.096s-0.111,0.018-0.143,0.064l-0.138,0.2
	c-0.078,0.111-0.156,0.225-0.231,0.34c-0.201-0.714-0.425-1.46-0.682-2.273c0.126-0.571,0.37-1.125,0.802-1.651
	c0.04-0.046,0.046-0.111,0.02-0.164c-0.027-0.054-0.083-0.088-0.144-0.083c-0.425,0.021-0.806,0.214-1.128,0.504
	c-0.173-0.522-0.368-1.089-0.614-1.777c-0.016-0.045-0.051-0.076-0.094-0.091c-0.085-0.893-0.373-1.784-0.854-2.603
	c-0.009-0.014-0.022-0.021-0.034-0.03c-1.417-3.98-3.313-9.387-1.141-13.572c1.565-3.013,5.186-5.14,9.225-5.417
	c3.653-0.25,6.659,1.423,8.015,4.417c0.021,0.062,0.039,0.126,0.06,0.189l0.188,0.562c0.053,0.165,0.089,0.304,0.109,0.383
	c0.047,0.172,0.097,0.427,0.102,0.637c0.011,0.208-0.023,0.366-0.023,0.366c0.001,0-0.016,0.1-0.064,0.229
	c-0.019,0.017-0.039,0.032-0.062,0.046c-0.159,0.089-0.334,0.006-0.604-0.145c-0.157-0.087-0.322-0.178-0.496-0.21
	c-0.487-0.087-1.184,0.01-1.541,0.573c-0.208,0.328-0.246,0.706-0.108,1.091c0.179,0.504,0.645,0.961,1.163,1.135
	c1.035,0.348,2.178-0.203,2.8-0.861c1.449-1.53,1.509-4.279,1.118-6.169c-0.047-0.229-0.106-0.457-0.174-0.683
	c0.061-0.005,0.116-0.059,0.13-0.123c0.008-0.049,0.007-0.119,0-0.203c0.014-0.11,0.059-0.209,0.108-0.318
	c0.004-0.009,0.008-0.017,0.013-0.026c0.013,0.094,0.008,0.196,0.002,0.32l-0.007,0.138c-0.008,0.258,0.046,0.478,0.098,0.69
	c0.033,0.141,0.065,0.273,0.08,0.415c0.002,0.021,0.003,0.041,0.007,0.062c0.01,0.077,0.074,0.134,0.148,0.134
	c0.007,0,0.011,0,0.016-0.002c0.082-0.008,0.143-0.078,0.137-0.16c0-0.02-0.003-0.038-0.005-0.057
	c-0.005-0.169,0.08-0.271,0.225-0.423c0.114-0.12,0.246-0.263,0.301-0.47c0.116,0.219-0.008,0.526-0.183,0.897
	c-0.026,0.056-0.051,0.109-0.073,0.161c-0.198,0.448-0.119,0.79-0.042,1.119c0.04,0.171,0.081,0.35,0.088,0.553
	c0.003,0.072,0.055,0.132,0.125,0.146c0.01,0.001,0.019,0.002,0.026,0.002c0.062,0,0.117-0.036,0.141-0.095l0.022-0.051
	c0.169-0.423,0.221-0.55,0.635-0.825c0.131-0.087,0.287-0.192,0.405-0.322c-0.061,0.351-0.348,0.777-0.528,1.045l-0.087,0.131
	c-0.524,0.802-0.466,1.574-0.323,2.266c0.001,0.005,0.002,0.012,0.003,0.017c0.001,0.082,0.07,0.164,0.151,0.164
	c0.083,0,0.151-0.084,0.153-0.166c0-0.011-0.001-0.022-0.003-0.034l-0.004-0.013c-0.024-0.343,0.478-0.778,0.781-1.04
	c0.051-0.043,0.097-0.084,0.137-0.119c0.328-0.295,0.527-0.574,0.713-0.896c0.078,0.504-0.327,1.132-0.66,1.649
	c-0.107,0.167-0.207,0.32-0.281,0.457c-0.304,0.552-0.503,1.012-0.646,1.493c-0.122,0.404-0.083,0.732-0.047,1.051
	c0.023,0.191,0.048,0.391,0.038,0.614c-0.002,0.066,0.039,0.128,0.104,0.15c0.015,0.005,0.03,0.008,0.048,0.008
	c0.048,0,0.095-0.023,0.124-0.064c0.407-0.574,1.17-1.483,2.163-1.921c-0.457,0.387-0.865,0.925-1.052,1.367
	c-0.091,0.215-0.148,0.445-0.205,0.669c-0.162,0.648-0.292,1.161-1.1,1.111c-0.067-0.004-0.131,0.038-0.153,0.102
	c-0.021,0.063,0.001,0.135,0.057,0.175c0.356,0.251,0.848,0.382,1.376,0.382c0.336,0,0.688-0.054,1.027-0.161
	c0.442-0.139,0.812-0.354,1.091-0.619c-0.247,0.417-0.741,0.703-1.267,0.949l-0.169,0.078c-0.436,0.203-0.93,0.433-1.313,0.739
	c-0.125,0.099-0.24,0.239-0.36,0.389c-0.172,0.21-0.365,0.447-0.549,0.493c-0.079,0.02-0.13,0.102-0.11,0.182
	c0.02,0.081,0.097,0.131,0.18,0.113c0.479-0.107,1.014,0.097,1.529,0.294c0.403,0.153,0.829,0.316,1.234,0.316
	c0.045,0,0.091-0.004,0.136-0.009c-1.008,0.66-2.568,0.391-4.024,0.046c-0.064-0.016-0.132,0.014-0.166,0.071
	c-0.033,0.058-0.025,0.13,0.021,0.18l0.164,0.177c0.334,0.356,0.623,0.664,0.843,1.146c0.048,0.103,0.095,0.201,0.146,0.299
	c-0.779-0.542-1.537-0.635-2.338-0.729c-0.315-0.036-0.642-0.074-0.98-0.142c-0.062-0.011-0.121,0.014-0.155,0.063
	c-0.033,0.051-0.035,0.116-0.003,0.167c0.12,0.188,0.263,0.35,0.398,0.505c0.2,0.229,0.389,0.443,0.521,0.737
	c0.098,0.218,0.167,0.442,0.241,0.681c0.035,0.114,0.073,0.231,0.113,0.35c-0.148-0.191-0.289-0.368-0.425-0.514
	c-1.005-1.004-1.874-1.132-3.209-1.257c-0.07-0.007-0.137,0.037-0.158,0.104c-0.021,0.068,0.007,0.142,0.067,0.177
	c0.526,0.307,0.852,0.838,1.032,1.23c0.132,0.269,0.24,0.567,0.354,0.883c0.258,0.712,0.539,1.484,1.118,1.912
	c-0.701-0.239-1.291-0.816-1.829-1.427c-0.717-0.78-1.474-1.373-2.274-1.999c-0.203-0.159-0.408-0.319-0.616-0.485
	c-0.055-0.043-0.13-0.044-0.187-0.001c-0.055,0.042-0.075,0.116-0.048,0.181c0.136,0.315,0.209,0.882,0.287,1.481
	c0.121,0.944,0.262,2.029,0.695,2.712c-0.876-0.45-1.782-1.277-2.206-2.059c-0.188-0.361-0.257-0.784-0.321-1.192
	c-0.082-0.519-0.167-1.055-0.505-1.463c-0.041-0.051-0.109-0.068-0.17-0.046c-0.062,0.022-0.102,0.083-0.099,0.147
	c0.014,0.402-0.222,0.971-0.449,1.52c-0.264,0.635-0.531,1.282-0.501,1.814c-0.422-0.6-0.403-1.321-0.382-2.078
	c0.017-0.582,0.033-1.184-0.151-1.753c-0.021-0.064-0.082-0.118-0.148-0.104c-0.067,0.001-0.125,0.047-0.143,0.111
	c-0.07,0.257-0.208,0.561-0.354,0.882c-0.217,0.481-0.451,1.002-0.518,1.49c-0.207-0.582-0.122-1.183-0.027-1.85
	c0.064-0.456,0.131-0.928,0.104-1.421c-0.004-0.066-0.049-0.122-0.112-0.139c-0.062-0.019-0.129,0.007-0.166,0.062
	c-0.118,0.179-0.305,0.339-0.5,0.508c-0.162,0.139-0.331,0.284-0.467,0.448c0.1-0.308,0.257-0.621,0.417-0.941
	c0.252-0.502,0.513-1.022,0.545-1.539c0.003-0.059-0.027-0.114-0.08-0.143c-0.05-0.029-0.114-0.023-0.162,0.011
	c-0.452,0.332-0.896,0.694-1.16,1.166c0.002-0.068,0.002-0.137,0.006-0.206c0.139-2.438,1.485-3.05,2.058-3.199
	c0.815-0.214,1.695,0.041,2.047,0.591c0.268,0.419,0.179,0.936-0.25,1.456c-0.051,0.062-0.107,0.125-0.17,0.188
	c-0.033,0.035-0.05,0.086-0.039,0.135c0.009,0.049,0.042,0.09,0.088,0.109c0.016,0.008,1.624,0.696,2.778-0.456
	c0.507-0.507,0.761-1.129,0.734-1.801c-0.03-0.787-0.445-1.564-1.169-2.185c-0.52-0.444-1.387-0.667-2.322-0.594
	c-0.532,0.042-1.044,0.173-1.511,0.379c-0.001,0-0.001,0-0.002,0c-0.253,0.085-0.493,0.223-0.584,0.288
	c-0.074,0.047-0.165,0.121-0.25,0.196c-0.106,0.078-0.208,0.16-0.305,0.248c0.056-0.604,0.018-1.634-0.726-2.334
	c-0.681-0.64-1.708-0.973-2.612-0.847c-0.62,0.086-1.5,0.425-2.174,1.547c-0.549,0.915-0.593,1.874-0.121,2.631
	c0.397,0.64,1.103,1,1.841,0.937c0.913-0.075,1.627-0.836,1.627-1.729c0-0.453-0.271-0.884-0.689-1.1
	c-0.313-0.161-0.658-0.179-0.986-0.061c-0.131,0.01-0.259,0.063-0.371,0.17c-0.033,0.031-0.048,0.074-0.045,0.117
	c-0.005,0.038,0.002,0.078,0.026,0.111c0.049,0.068,0.143,0.083,0.211,0.035c0.078-0.055,0.158-0.099,0.239-0.133
	c0.042,0.004,0.085,0.014,0.129,0.037c0.24,0.13,0.462,0.541,0.398,0.898c-0.047,0.266-0.24,0.424-0.572,0.472
	c-0.354,0.051-0.61-0.073-0.766-0.368c-0.249-0.473-0.157-1.251,0.193-1.634c0.362-0.396,0.883-0.562,1.427-0.456
	c0.574,0.111,1.052,0.504,1.245,1.022c0.364,0.972,0.406,2.139,0.118,3.106c-0.034,0.085-0.831,2.107-0.189,4.496
	c0.824,3.054,4.082,6.18,9.367,6.179c0.281,0,0.571-0.009,0.865-0.026c4.94-0.31,10.907-2.55,11.279-11.466
	c0.113-2.724-0.378-5.163-1.466-7.308c1.173,0.787,3.435,2.625,3.529,5.122c0.003,0.063,0.043,0.117,0.102,0.138
	c0.016,0.006,0.033,0.009,0.05,0.009c0.044,0,0.085-0.019,0.115-0.053c1.767-2.03,1.641-5.718,0.416-7.885
	C97.845,51.665,94.856,50.866,92.44,50.229z"/>
</svg>
