<?xml version="1.0" encoding="utf-8"?>
<!-- Generator: Adobe Illustrator 16.0.0, SVG Export Plug-In . SVG Version: 6.00 Build 0)  -->
<!DOCTYPE svg PUBLIC "-//W3C//DTD SVG 1.1//EN" "http://www.w3.org/Graphics/SVG/1.1/DTD/svg11.dtd">
<svg version="1.1" id="Layer_1" xmlns="http://www.w3.org/2000/svg" xmlns:xlink="http://www.w3.org/1999/xlink" x="0px" y="0px"
	 width="50px" height="50px" viewBox="0 0 50 50" enable-background="new 0 0 50 50" xml:space="preserve">
<g>
	<path fill="#231F20" d="M25.146,1.652c-12.736,0-23.063,10.326-23.063,23.063c0,12.736,10.327,23.062,23.063,23.062
		c12.738,0,23.063-10.325,23.063-23.062C48.21,11.979,37.885,1.652,25.146,1.652z M25.425,45.742
		c-11.611,0-21.024-9.414-21.024-21.026c0-11.612,9.413-21.027,21.024-21.027c11.614,0,21.027,9.416,21.027,21.027
		C46.452,36.328,37.039,45.742,25.425,45.742z"/>
	<g>
		<path fill="#231F20" d="M21.146,10.575c0,0-1.724-2.132,0.903-3.459c2.332-1.179,2.332-1.179,2.72-3.063
			c2.506,1.13,3.626,1.885,4.423,5.943c0.973,4.958-6.018,2.971-6.018,2.971L21.146,10.575z"/>
		<path fill="#231F20" d="M37.008,34.065c0,0,3.758-0.572,2.838,2.225c-0.816,2.48-2.001,2.467-0.941,4.074
			c-3.262-0.941-4.422,1.523-7.828-0.146c-4.54-2.22,2.806-6.408,2.806-6.408L37.008,34.065z"/>
		<path fill="#231F20" d="M21.819,39.275c0,0-1.228,2.539-5.239,1.539c-1.267-0.316-2.399-0.717-3.479-0.305
			c0.507-2.031-2.698-3.267-1.088-6.7c2.148-4.573,9.807,0.096,9.807,0.096V39.275z"/>
		<path fill="#231F20" d="M12.593,21.595c0,0,0.781,2.465-3.27,1.651c-2.093-0.42-1.949-3.611-4.195-4.699
			c2.024-0.524,2.974-3.542,6.761-3.77c5.043-0.299,1.5,5.944,1.5,5.944L12.593,21.595z"/>
		<path fill="#231F20" d="M36.366,18.114c0,0,1.354-1.718,4.285-1.451c2.384,0.218,2.304,1.451,4.188,1.838
			c-1.515,1.35,0.008,6.28-4.849,7.003c-4.998,0.748-3.817-4.71-3.817-4.71L36.366,18.114z"/>
		<path fill="#231F20" d="M24.937,22.6c0.286,0,0.56,0.05,0.815,0.138c-0.03-2.644-0.139-8.229-0.524-11.302
			c-0.466-3.726-5.787-3.092-8.54-2.729c-2.755,0.362-3.369,0-3.369,0s0.405,1.42-0.292,2.521c-0.967,1.532-1.946,4.929-1.957,6.959
			c-0.02,3.3,7.429,4.948,11.728,5.625C23.236,23.085,24.029,22.6,24.937,22.6z"/>
		<path fill="#231F20" d="M38.54,14.054c-1.069-2.249-0.662-4.444-0.662-4.444s-1.785,0.443-3.758-0.411
			c-2.683-1.162-9.076-0.006-8.82,3.045c0.152,1.836,0.327,7.484,0.414,10.48c0.687,0.224,1.241,0.736,1.522,1.396
			c2.666-0.951,8.239-2.984,10.553-4.182C39.608,18.995,39.735,16.562,38.54,14.054z"/>
		<path fill="#231F20" d="M43.324,27.68c-0.361-2.32-2.173-6.574-5.535-7.742c-1.772,0.852-7.592,2.955-10.623,4.036
			c0.17,0.338,0.268,0.718,0.268,1.123c0,0.668-0.261,1.269-0.688,1.718c1.699,2.456,4.586,6.354,7.013,8.261
			c2.858,2.242,6.229,0.36,7.538-1.265c1.308-1.626,4.131-2.505,4.131-2.505S43.688,30,43.324,27.68z"/>
		<path fill="#231F20" d="M33.758,35.074c-1.942-1.741-5.078-5.829-6.939-8.341c-0.457,0.523-1.13,0.859-1.881,0.859
			c-0.545,0-1.049-0.178-1.459-0.477c-1.5,2.042-3.615,4.888-5.06,6.707c-2.26,2.843,0.989,7.223,3.815,8.207
			c1.969,0.686,3.943,2.354,3.943,2.354s0.945-1.512,3.107-2.425C31.448,41.046,34.192,39.35,33.758,35.074z"/>
		<path fill="#231F20" d="M22.441,25.096c0-0.458,0.125-0.884,0.338-1.251c-2.522-0.418-6.408-1.232-9.082-2.576
			c-3.245-1.632-6.366,2.158-6.308,5.149c0.073,3.77-1.611,5.079-1.611,5.079s1.452,0.305,3.481,1.766
			c1.906,1.372,5.339,3.164,7.428,2.536c1.989-1.468,4.921-5.745,6.798-8.677C22.853,26.671,22.441,25.932,22.441,25.096z"/>
		<path fill="#231F20" d="M24.85,27.586v3.058c0,0.244,0.196,0.442,0.441,0.442c0.245,0,0.443-0.198,0.443-0.442v-3.185
			c-0.25,0.082-0.518,0.134-0.797,0.134C24.908,27.593,24.879,27.586,24.85,27.586z"/>
		<path fill="#231F20" d="M30.956,25.455l-3.522-0.373c0,0.004,0,0.008,0,0.014c0,0.427-0.107,0.83-0.298,1.182l3.693,0.389
			c0.275,0.029,0.529-0.218,0.563-0.554C31.428,25.776,31.231,25.484,30.956,25.455z"/>
		<path fill="#231F20" d="M22.443,25.008l-3.508,0.758c-0.272,0.06-0.436,0.373-0.364,0.7c0.069,0.33,0.347,0.548,0.619,0.492
			l3.509-0.759c-0.164-0.332-0.258-0.705-0.258-1.104C22.441,25.064,22.443,25.037,22.443,25.008z"/>
		<path fill="#231F20" d="M22.926,20.159c-0.144-0.239-0.494-0.294-0.782-0.12c-0.289,0.171-0.409,0.505-0.264,0.746l1.438,2.413
			c0.31-0.264,0.683-0.455,1.096-0.544L22.926,20.159z"/>
		<path fill="#231F20" d="M28.912,20.537c-0.243-0.232-0.599-0.257-0.79-0.057l-2.212,2.316c0.384,0.163,0.719,0.418,0.976,0.743
			l2.117-2.216C29.194,21.121,29.155,20.771,28.912,20.537z"/>
	</g>
</g>
</svg>
