<?xml version="1.0" encoding="utf-8"?>
<!-- Generator: Adobe Illustrator 16.0.0, SVG Export Plug-In . SVG Version: 6.00 Build 0)  -->
<!DOCTYPE svg PUBLIC "-//W3C//DTD SVG 1.1//EN" "http://www.w3.org/Graphics/SVG/1.1/DTD/svg11.dtd">
<svg version="1.1" id="Layer_1" xmlns="http://www.w3.org/2000/svg" xmlns:xlink="http://www.w3.org/1999/xlink" x="0px" y="0px"
	 width="100px" height="100px" viewBox="0 0 100 100" enable-background="new 0 0 100 100" xml:space="preserve">
<path fill="#63CCF5" d="M85.998,63.703c0.633-0.234,1.217-0.767,1.819-1.209c0.946-0.702,1.642-1.492,2.722-2.123
	c1.017-0.192,1.741-0.54,2.722-0.906c0.287-0.106,0.643-0.272,0.912-0.303c0.396-0.037,0.82,0.272,1.31,0.303
	c0.984,0.061,1.976-0.099,2.926-0.404c-0.319-0.88-1.06-0.903-2.218-0.91c-1.674,0-3.328-0.582-4.438-1.205
	c-0.437-0.355-0.537-0.96-0.911-1.417c-0.439-0.533-1.106-0.967-1.612-1.613c-0.222-0.283-0.576-0.665-0.707-0.906
	c-0.548-1.046-0.625-2.419-2.02-2.727c-0.279-0.423-0.54-0.869-0.603-1.511c-0.468-0.606-0.969-1.186-1.517-1.711
	c-1.824-0.425-3.233-0.327-4.337-0.71c-0.555-0.195-1.379-0.757-1.611-1.211c-0.275-0.533-0.011-1.139-0.2-2.016
	c-0.134-0.619-0.551-0.855-0.812-1.515c-0.972,0-1.95,0-2.919,0c-0.603-0.521-1.101-1.283-1.717-1.916
	c-0.192-0.196-0.531-0.306-0.708-0.506c-0.513-0.565-0.752-1.09-1.312-1.615c-0.354-0.327-1.041-0.661-1.816-0.907
	c-1.304-0.416-2.407-0.472-3.635-0.805c-1.528,0.518-3.028,0.283-4.337,0.502c-0.473,0.078-1.071,0.178-1.513,0.402
	c-0.483,0.248-1.398,1.043-1.413,1.617c-0.022,0.855,1.504,1.473,1.009,2.52c-0.41,0.871-2.262,0.744-3.124,0.404
	c-0.774-0.302-2.521-0.672-3.23-0.606c-0.416,0.04-0.799,0.263-1.209,0.304c-0.299,0.032-0.614-0.13-0.909-0.102
	c-0.646,0.064-1.426,0.302-2.123,0.404c-0.708,0.104-1.371,0.266-1.914,0.302c-0.965,0.062-1.998-0.202-2.826,0
	c-0.416,0.102-0.589,0.499-1.11,0.909c-1.846,1.454-4.226,2.236-6.561,3.228c-1.632,0.693-2.743,1.262-4.635,1.713
	c-0.646-0.291-1.403,0.213-2.221,0.306c-1.111,0.125-2.522,0.144-2.62-0.705c0.146-0.591,0.922-0.44,1.413-0.606
	c0.423-0.149,0.784-0.518,1.207-0.504c0.693-0.654,1.594-1.098,1.917-2.122c0.059-1.029-0.417-1.471-0.697-2.199
	c-0.348,0.006-0.693,0-1.028-0.007c-0.362,0.355-0.769,0.344-1.099,0.896c-2.431,0.462-4.218,1.567-6.86,1.815
	c-0.686,0.393-1.576,0.578-2.324,0.907c-1.749,1.762-2.274,3.948-5.546,3.532c-0.474-0.059-0.942-0.304-1.411-0.304
	c-0.559,0.502-1.213,0.776-1.819,1.211c-0.559,0.408-1.008,1.024-1.611,1.417c-1.881,1.212-4.479,1.057-6.657,2.115
	c0.465,0.744,1.999,0.419,2.718,0.91c1.269-0.566,2.828,0.064,3.532,0.706c0,0.503,0,1.009,0,1.512
	c0.355,0.279,0.875,0.098,1.312,0.306c0.363,0.166,1.914,1.749,2.116,2.319c0.128,0.348,0.095,0.774,0.102,1.111
	c0.03,0.037,0.066,0.079,0.098,0.12c2.201-1.363,3.612-3.15,6.058-4.261c0.61-0.276,1.387-0.786,1.815-0.805
	c0.635-0.03,1.332,0.476,1.917,0.805c0.805,0.453,1.485,0.959,2.624,0.906c2.244,1.009,6.152,0.012,9.078,0.204
	c0.757,0.386,1.292,1.088,1.415,1.969c0.315-0.113,0.633-0.234,0.922-0.371c0.929-0.434,2.225-1.299,3.028-2.017
	c0.591-0.537,1.031-1.179,1.509-1.719c0.539-0.2,1.515-0.503,1.917-0.503c0.78,0.03,1.092,0.325,1.717,0.604
	c0.701,0.317,1.403,0.491,1.819,1.114c1.88-0.469,2.222,1.47,3.325,2.116c0.82,0.12,1.494,0.389,1.915,0.91
	c1.714,0.098,2.915,0.948,5.246,0.702c1.07-0.109,2.969-0.536,3.935-0.906c0.138-0.053,0.261-0.117,0.385-0.188
	c-0.263-0.11-0.468-0.261-0.595-0.495c-0.338,0-0.676,0-1.011,0c-0.497-0.163-0.722-0.661-1.213-0.911
	c-0.292-0.15-0.689-0.102-1.008-0.306c-0.238-0.151-0.616-0.612-1.009-1.009c-0.835-0.839-1.092-1.114-1.718-2.319
	c-0.29-0.562-0.599-1.035-0.5-1.511c0.051-0.258,0.261-0.349,0.603-0.708c1.039-1.107,2.222-1.596,4.337-1.819
	c0.784-0.081,1.688-0.14,2.323-0.098c0.33,0.021,0.729,0.24,1.205,0.3c1.245,0.166,2.563,0.191,3.233,0.811
	c0.248,0.227,0.401,0.634,0.606,0.907c0.2,0.268,0.414,0.551,0.606,0.808c1.067,1.432,2.849,2.41,3.427,3.933
	c1.045,1.012,1.721,2.35,2.93,3.229c0.461,0.34,1.067,0.34,1.509,0.805c0.776-0.57,1.366-0.378,2.324-0.2
	c0.438,0.079,0.973,0.079,1.311,0.2c0.608,0.223,0.942,0.839,1.513,1.209c0.973,0.646,2.812,1.152,4.135,1.719
	C84.518,63.703,84.902,64.107,85.998,63.703z"/>
</svg>
