<?xml version="1.0" encoding="utf-8"?>
<!-- Generator: Adobe Illustrator 16.0.0, SVG Export Plug-In . SVG Version: 6.00 Build 0)  -->
<!DOCTYPE svg PUBLIC "-//W3C//DTD SVG 1.1//EN" "http://www.w3.org/Graphics/SVG/1.1/DTD/svg11.dtd">
<svg version="1.1" id="Layer_1" xmlns="http://www.w3.org/2000/svg" xmlns:xlink="http://www.w3.org/1999/xlink" x="0px" y="0px"
	 width="100px" height="100px" viewBox="0 0 100 100" enable-background="new 0 0 100 100" xml:space="preserve">
<g>
	<polygon fill="#CCCCCC" points="6.998,56.508 28.52,68.936 50.039,56.508 28.519,44.084 	"/>
	<polygon fill="#CCCCCC" points="50.044,56.51 71.566,68.938 93.086,56.51 71.565,44.085 	"/>
	<polygon fill="#CCCCCC" points="39.284,68.828 50.045,75.043 60.805,68.828 50.044,62.617 	"/>
</g>
<polygon fill="#CCCCCC" points="50.044,44.083 7,68.936 50.044,93.787 93.089,68.936 "/>
<polygon fill="#CCCCCC" points="60.805,62.725 71.565,68.938 82.325,62.725 71.564,56.512 "/>
<polygon fill="#CCCCCC" points="17.758,62.725 28.519,68.936 39.278,62.725 28.518,56.512 "/>
<polygon fill="#CCCCCC" points="17.759,50.297 28.52,56.512 39.28,50.297 28.52,44.085 "/>
<polygon fill="#CCCCCC" points="60.806,50.299 71.566,56.512 82.326,50.299 71.566,44.086 "/>
<g>
	<polygon fill="#808080" points="60.805,62.725 60.805,75.15 71.564,81.363 71.565,68.938 	"/>
	<polygon fill="#808080" points="17.758,62.725 17.758,75.15 28.518,81.361 28.519,68.936 	"/>
	<polygon fill="#808080" points="17.759,50.297 17.759,56.512 28.52,62.725 28.52,56.512 	"/>
	<polygon fill="#808080" points="60.806,50.298 60.806,56.512 71.566,62.725 71.566,56.512 	"/>
</g>
<g>
	<polygon fill="#4D4D4D" points="82.326,62.725 82.326,75.15 71.566,81.363 71.565,68.938 	"/>
	<polygon fill="#4D4D4D" points="39.28,62.725 39.28,75.15 28.519,81.361 28.519,68.936 	"/>
	<polygon fill="#4D4D4D" points="39.281,50.297 39.281,56.512 28.521,62.725 28.52,56.512 	"/>
	<polygon fill="#4D4D4D" points="82.328,50.298 82.328,56.512 71.567,62.725 71.566,56.512 	"/>
</g>
<g>
	<polygon fill="#CCCCCC" points="6.998,37.81 28.52,50.238 50.039,37.81 28.519,25.386 	"/>
	<polygon fill="#CCCCCC" points="50.044,37.81 71.566,50.238 93.086,37.81 71.565,25.386 	"/>
</g>
<g>
	<polygon fill="#CCCCCC" points="17.759,31.599 28.52,37.813 39.28,31.599 28.52,25.387 	"/>
	<polygon fill="#CCCCCC" points="60.806,31.599 71.566,37.813 82.326,31.599 71.566,25.387 	"/>
	<polygon fill="#CCCCCC" points="39.284,19.169 50.045,25.383 60.805,19.169 50.044,12.957 	"/>
</g>
<g>
	<polygon fill="#808080" points="17.759,31.599 17.759,37.813 28.52,44.025 28.52,37.812 	"/>
	<polygon fill="#808080" points="60.806,31.599 60.806,37.813 71.566,44.025 71.566,37.812 	"/>
	<g>
		<polygon fill="#808080" points="7,68.936 7,75.148 50.044,100 50.044,93.787 		"/>
		<polygon fill="#808080" points="6.998,56.508 6.998,62.721 28.519,75.145 28.52,68.936 		"/>
		<polygon fill="#808080" points="6.998,37.81 6.998,44.023 28.519,56.447 28.52,50.238 		"/>
		<polygon fill="#808080" points="50.044,56.51 50.044,62.723 71.565,75.146 71.566,68.938 		"/>
		<polygon fill="#808080" points="50.044,37.81 50.044,44.023 71.565,56.447 71.566,50.238 		"/>
		<polygon fill="#808080" points="39.284,68.828 39.284,75.043 50.044,81.254 50.045,75.041 		"/>
		<polygon fill="#808080" points="39.284,19.169 39.284,25.383 50.044,31.595 50.045,25.382 		"/>
	</g>
</g>
<g>
	<polygon fill="#4D4D4D" points="39.281,31.599 39.281,37.813 28.521,44.025 28.52,37.812 	"/>
	<polygon fill="#4D4D4D" points="82.328,31.599 82.328,37.813 71.567,44.025 71.566,37.812 	"/>
	<g>
		<polygon fill="#4D4D4D" points="93.089,68.936 93.089,75.148 50.044,100 50.044,93.787 		"/>
		<polygon fill="#4D4D4D" points="50.042,56.508 50.042,62.721 28.521,75.145 28.52,68.936 		"/>
		<polygon fill="#4D4D4D" points="50.042,37.81 50.042,44.023 28.521,56.447 28.52,50.238 		"/>
		<polygon fill="#4D4D4D" points="93.089,56.51 93.089,62.723 71.567,75.146 71.566,68.938 		"/>
		<polygon fill="#4D4D4D" points="93.089,37.81 93.089,44.023 71.567,56.447 71.566,50.238 		"/>
		<polygon fill="#4D4D4D" points="60.806,68.828 60.806,75.043 50.045,81.254 50.045,75.041 		"/>
		<polygon fill="#4D4D4D" points="60.806,19.169 60.806,25.383 50.045,31.595 50.045,25.382 		"/>
	</g>
</g>
</svg>
