<?xml version="1.0" encoding="utf-8"?>
<!-- Generator: Adobe Illustrator 16.0.0, SVG Export Plug-In . SVG Version: 6.00 Build 0)  -->
<!DOCTYPE svg PUBLIC "-//W3C//DTD SVG 1.1//EN" "http://www.w3.org/Graphics/SVG/1.1/DTD/svg11.dtd">
<svg version="1.1" id="Layer_1" xmlns="http://www.w3.org/2000/svg" xmlns:xlink="http://www.w3.org/1999/xlink" x="0px" y="0px"
	 width="640px" height="480px" viewBox="0 0 640 480" enable-background="new 0 0 640 480" xml:space="preserve">
<g>
	<path fill="#BCBCBC" d="M173.972,396.049c2.719-10.115,3.502-18.396,11.197-24.023c2.205-1.613,2.151-6.092,3.569-9.047
		c8.571-17.871,18.671-34.709,32.611-49.065c6.847-7.052,12.293-15.722,19.904-21.71c9.917-7.812,20.974-14.449,32.257-20.186
		c10.678-5.424,22.109-9.551,33.517-13.312c15.896-5.242,32.088-9.592,48.14-14.36c4.551-1.351,6.153,1.004,6.646,5
		c1.38,11.195-4.443,19.396-11.431,26.981c-10.875,11.808-25.835,16.183-40.048,22.131c-20.873,8.728-42.56,16.367-61.778,27.979
		c-23.488,14.193-46.259,30.364-60.821,55.058c-2.294,3.896-5.701,7.149-8.709,10.601
		C178.115,393.132,176.827,393.844,173.972,396.049z"/>
	<path fill="#BCBCBC" d="M474.608,33.43c4.604,38.813,7.896,77.397-17.811,111.049c-12.082,15.822-26.456,29.236-44.258,38.7
		c-5.3,2.819-10.028,6.704-15.271,9.656c-19.271,10.861-38.643,21.554-58.006,32.237c-1.396,0.769-3.111,0.946-5.196,0.673
		c33.722-23.214,67.14-46.654,91.123-80.62C449.122,111.245,463.939,73.34,474.608,33.43z"/>
</g>
<g>
	<path fill="#4D4E4E" d="M166.397,447c2.584-13.55,3.604-27.281,11.337-39.695c12.952-20.798,27.213-40.406,46.437-55.593
		c11.398-9.003,24.283-16.21,36.888-23.563c7.008-4.088,9.655-2.238,9.334,6.109c-0.491,12.698-5.076,24.626-13.263,33.779
		c-12.633,14.12-26.456,27.318-40.793,39.739c-12.354,10.696-26.188,19.684-39.234,29.602
		C173.296,440.274,169.954,443.778,166.397,447z"/>
	<path fill="#4D4E4E" d="M323.02,242.848c9.432-6.427,17.932-13.875,29.969-16.515c7.125-1.567,13.312-7.342,19.969-11.139
		c9.602-5.481,19.564-10.397,28.808-16.426c15.073-9.83,31.279-18.701,44.064-31.029c14.512-13.994,28.498-29.56,33.673-50.396
		c0.599-2.415,2.021-4.625,3.645-6.668c-1.613,20.091-7.493,38.893-20.509,54.231c-11.643,13.717-24.104,27.141-38.062,38.386
		c-18.504,14.904-40.422,24.225-63.35,30.765c-12.445,3.556-24.908,7.06-37.367,10.585
		C323.577,244.045,323.296,243.445,323.02,242.848z"/>
</g>
</svg>
