<?xml version="1.0" encoding="utf-8"?>
<!-- Generator: Adobe Illustrator 16.0.0, SVG Export Plug-In . SVG Version: 6.00 Build 0)  -->
<!DOCTYPE svg PUBLIC "-//W3C//DTD SVG 1.1//EN" "http://www.w3.org/Graphics/SVG/1.1/DTD/svg11.dtd">
<svg version="1.1" id="Layer_1" xmlns="http://www.w3.org/2000/svg" xmlns:xlink="http://www.w3.org/1999/xlink" x="0px" y="0px"
	 width="640px" height="480px" viewBox="0 0 640 480" enable-background="new 0 0 640 480" xml:space="preserve">
<path fill="#4D4E4E" d="M401.756,38.225c6.521,2,18.188,3.737,28.019,8.926c23.238,12.268,27.058,31.2,10.084,51.137
	c-8.527,10.037-18.946,19.563-30.446,25.786c-33.786,18.292-66.037,0.359-70.377-38.349c-0.618-5.609,1.188-12.406,4.112-17.336
	C352.969,51.824,377.999,38.402,401.756,38.225z"/>
<g>
	<path fill="#BCBCBC" d="M357.242,320.111c1.67-15.202,17.705-30.713,25.688-26.863c6.389,3.083,10.146,11.635,15.068,17.768
		c-9.587,7.543-18.84,15.655-29.251,21.838C367.606,333.525,359.857,323.073,357.242,320.111z"/>
	<path fill="#BCBCBC" d="M239.37,248.58c2.1-7.944,2.221-14.24,5.287-18.335c2.904-3.865,8.843-7.213,13.565-7.341
		c3.106-0.093,8.641,5.569,9.164,9.222c1.416,9.771,2.718,20.446-0.046,29.539c-1.167,3.885-15.297,8.498-18.551,6.08
		C243.328,263.68,241.866,254.249,239.37,248.58z"/>
	<path fill="#BCBCBC" d="M282.637,424.984c-5.964,16.592-25.327,30.243-29.117,24.278c-4.321-6.786-6.408-19.417-2.885-25.974
		C262.933,400.329,269.145,432.462,282.637,424.984z"/>
</g>
</svg>
