<?xml version="1.0" encoding="utf-8"?>
<!-- Generator: Adobe Illustrator 16.0.0, SVG Export Plug-In . SVG Version: 6.00 Build 0)  -->
<!DOCTYPE svg PUBLIC "-//W3C//DTD SVG 1.1//EN" "http://www.w3.org/Graphics/SVG/1.1/DTD/svg11.dtd">
<svg version="1.1" id="Layer_1" xmlns="http://www.w3.org/2000/svg" xmlns:xlink="http://www.w3.org/1999/xlink" x="0px" y="0px"
	 width="50px" height="50px" viewBox="0 0 50 50" enable-background="new 0 0 50 50" xml:space="preserve">
<g>
	<g>
		<path d="M20.877,46.86c0,0,0.031,0.006,0.088,0.017c0.057,0.01,0.141,0.025,0.249,0.037c0.215,0.027,0.521,0.065,0.89,0.112
			c0.184,0.022,0.385,0.032,0.597,0.051c0.212,0.015,0.436,0.036,0.667,0.047c0.231,0.006,0.471,0.012,0.714,0.018
			c0.122,0.002,0.245,0.008,0.368,0.009c0.123-0.003,0.247-0.007,0.371-0.01c0.247-0.006,0.495-0.013,0.738-0.019
			c0.243-0.019,0.482-0.037,0.712-0.055c0.116-0.009,0.229-0.018,0.342-0.025c0.11-0.009,0.22-0.027,0.325-0.039
			c0.211-0.027,0.41-0.052,0.595-0.075c0.092-0.013,0.18-0.021,0.263-0.035c0.085-0.015,0.163-0.029,0.237-0.043
			c0.148-0.026,0.277-0.049,0.385-0.068c0.213-0.038,0.335-0.061,0.335-0.061s-0.048,0.172-0.096,0.343
			c-0.05,0.171-0.1,0.342-0.1,0.342s-0.126,0.022-0.346,0.062c-0.109,0.019-0.242,0.046-0.396,0.068
			c-0.154,0.02-0.328,0.042-0.517,0.066c-0.19,0.023-0.396,0.052-0.613,0.074c-0.219,0.018-0.448,0.035-0.687,0.054
			c-0.119,0.008-0.24,0.018-0.362,0.026s-0.247,0.009-0.372,0.013c-0.25,0.007-0.504,0.013-0.759,0.019
			c-0.254,0.002-0.508-0.01-0.759-0.015c-0.25-0.007-0.498-0.008-0.735-0.031c-0.477-0.038-0.922-0.062-1.299-0.12
			c-0.19-0.023-0.364-0.045-0.518-0.065c-0.077-0.01-0.149-0.02-0.215-0.028c-0.066-0.012-0.127-0.022-0.182-0.031
			c-0.219-0.04-0.345-0.062-0.345-0.062s0.107-0.143,0.214-0.285C20.772,47.004,20.877,46.86,20.877,46.86z"/>
		<path d="M21.994,45.511c0,0,0.114,0.016,0.314,0.04c0.201,0.016,0.489,0.038,0.834,0.064c0.086,0.006,0.176,0.017,0.269,0.02
			c0.093,0.002,0.19,0.004,0.29,0.006c0.198,0.006,0.407,0.011,0.624,0.017c0.216,0.005,0.44-0.009,0.667-0.012
			c0.227-0.009,0.458-0.005,0.688-0.028c0.23-0.017,0.46-0.035,0.688-0.052c0.112-0.007,0.225-0.021,0.335-0.035
			c0.11-0.014,0.22-0.027,0.326-0.042c0.215-0.029,0.424-0.048,0.618-0.084c0.195-0.034,0.38-0.067,0.551-0.098
			c0.342-0.055,0.621-0.126,0.818-0.171c0.196-0.046,0.308-0.071,0.308-0.071s-0.034,0.172-0.069,0.345
			c-0.037,0.172-0.074,0.344-0.074,0.344s-0.116,0.027-0.318,0.075c-0.202,0.053-0.496,0.095-0.848,0.16
			c-0.35,0.071-0.765,0.114-1.207,0.173c-0.221,0.033-0.45,0.045-0.684,0.063c-0.234,0.016-0.471,0.041-0.708,0.049
			c-0.238,0.006-0.476,0.013-0.71,0.018c-0.117,0.002-0.233,0.01-0.348,0.006c-0.114-0.002-0.228-0.006-0.339-0.009
			c-0.223-0.005-0.438-0.011-0.643-0.016c-0.204-0.012-0.397-0.03-0.575-0.042c-0.177-0.014-0.341-0.026-0.485-0.037
			c-0.145-0.014-0.269-0.033-0.373-0.045c-0.207-0.026-0.325-0.042-0.325-0.042s0.095-0.148,0.191-0.297
			C21.901,45.66,21.994,45.511,21.994,45.511z"/>
		<path opacity="0.5" d="M8.935,36.129c0,0,0.059,0.083,0.169,0.239c0.105,0.158,0.282,0.375,0.502,0.655
			c0.054,0.07,0.112,0.144,0.172,0.222c0.062,0.076,0.132,0.152,0.202,0.233c0.142,0.161,0.29,0.339,0.456,0.523
			c0.171,0.179,0.353,0.37,0.545,0.571c0.197,0.196,0.413,0.394,0.631,0.606c0.225,0.206,0.47,0.408,0.716,0.626
			c0.256,0.205,0.523,0.415,0.8,0.629c0.567,0.408,1.173,0.829,1.838,1.202c0.654,0.393,1.369,0.726,2.098,1.051
			c0.186,0.072,0.373,0.146,0.56,0.22l0.281,0.111l0.287,0.097c0.192,0.064,0.384,0.13,0.576,0.196l0.585,0.166
			c1.562,0.446,3.188,0.651,4.712,0.682c1.528,0.031,2.951-0.124,4.144-0.368c1.194-0.242,2.158-0.57,2.826-0.81
			c0.331-0.13,0.591-0.232,0.768-0.303c0.174-0.077,0.266-0.12,0.266-0.12l0.173,0.39c0,0-0.095,0.043-0.272,0.124
			c-0.181,0.07-0.446,0.176-0.784,0.31c-0.683,0.244-1.669,0.579-2.892,0.827c-1.22,0.249-2.674,0.409-4.236,0.376
			c-1.559-0.031-3.221-0.24-4.818-0.697l-0.599-0.171c-0.196-0.066-0.393-0.133-0.588-0.199l-0.293-0.099l-0.288-0.114
			c-0.191-0.075-0.382-0.15-0.573-0.225c-0.747-0.332-1.477-0.674-2.146-1.074c-0.68-0.382-1.299-0.812-1.878-1.229
			c-0.283-0.219-0.557-0.433-0.818-0.643c-0.252-0.223-0.502-0.43-0.732-0.641c-0.224-0.218-0.444-0.42-0.646-0.62
			c-0.196-0.206-0.382-0.401-0.557-0.584c-0.17-0.188-0.322-0.37-0.466-0.534c-0.071-0.083-0.142-0.161-0.206-0.24
			c-0.062-0.079-0.121-0.154-0.177-0.226c-0.225-0.286-0.405-0.508-0.513-0.671c-0.113-0.158-0.173-0.243-0.173-0.243L8.935,36.129z
			"/>
		<path d="M30.801,43.067c0,0,0.021-0.007,0.056-0.019c0.035-0.013,0.086-0.027,0.146-0.054c0.12-0.047,0.278-0.109,0.438-0.172
			c0.157-0.065,0.319-0.121,0.436-0.176c0.116-0.054,0.194-0.089,0.194-0.089l0.173,0.39c0,0-0.08,0.037-0.199,0.091
			c-0.118,0.056-0.284,0.113-0.446,0.18c-0.163,0.063-0.324,0.129-0.447,0.177c-0.06,0.025-0.112,0.041-0.148,0.053
			c-0.036,0.013-0.058,0.02-0.058,0.02L30.801,43.067z"/>
		<path d="M17.926,45.722c0,0,0.091,0.034,0.231,0.072c0.14,0.04,0.328,0.094,0.514,0.146c0.187,0.053,0.372,0.111,0.515,0.14
			c0.142,0.033,0.237,0.055,0.237,0.055s-0.089,0.116-0.221,0.29c-0.134,0.172-0.317,0.409-0.501,0.631
			c-0.369,0.449-0.763,0.891-0.763,0.891s-0.103-0.028-0.257-0.073c-0.077-0.021-0.167-0.047-0.263-0.074
			c-0.096-0.03-0.197-0.066-0.298-0.1c-0.404-0.138-0.809-0.273-0.809-0.273s0.426-0.418,0.829-0.844
			C17.545,46.156,17.926,45.722,17.926,45.722z"/>
		<path d="M15.89,44.96c0,0,0.022,0.011,0.061,0.027c0.039,0.018,0.093,0.045,0.161,0.07c0.136,0.054,0.316,0.124,0.497,0.195
			c0.182,0.069,0.36,0.146,0.498,0.192c0.138,0.047,0.23,0.077,0.23,0.077s-0.101,0.108-0.25,0.268
			c-0.151,0.16-0.355,0.372-0.562,0.575c-0.413,0.409-0.85,0.81-0.85,0.81s-0.099-0.039-0.248-0.098
			c-0.15-0.057-0.345-0.145-0.54-0.232c-0.194-0.089-0.389-0.176-0.535-0.242c-0.073-0.033-0.133-0.061-0.176-0.08
			c-0.042-0.021-0.065-0.033-0.065-0.033s0.115-0.089,0.288-0.231c0.173-0.141,0.399-0.33,0.622-0.521
			C15.467,45.354,15.89,44.96,15.89,44.96z"/>
		<path d="M13.942,43.995c0,0,0.084,0.049,0.21,0.122c0.129,0.065,0.302,0.155,0.475,0.244c0.172,0.088,0.345,0.177,0.475,0.243
			c0.132,0.061,0.221,0.1,0.221,0.1s-0.11,0.097-0.276,0.241c-0.167,0.145-0.389,0.329-0.616,0.512
			c-0.453,0.366-0.928,0.722-0.928,0.722s-0.383-0.19-0.75-0.41c-0.185-0.106-0.37-0.213-0.508-0.293
			c-0.07-0.038-0.126-0.074-0.166-0.1c-0.039-0.025-0.062-0.04-0.062-0.04s0.123-0.078,0.308-0.198
			c0.185-0.121,0.431-0.288,0.671-0.457C13.481,44.345,13.942,43.995,13.942,43.995z"/>
		<path d="M12.102,42.839c0,0,0.079,0.057,0.198,0.141c0.116,0.089,0.284,0.187,0.446,0.293c0.164,0.105,0.327,0.21,0.45,0.289
			c0.061,0.039,0.113,0.07,0.15,0.091c0.037,0.021,0.057,0.034,0.057,0.034s-0.119,0.084-0.299,0.211
			c-0.179,0.123-0.418,0.285-0.663,0.445c-0.488,0.32-0.998,0.625-0.998,0.625s-0.089-0.058-0.224-0.145
			c-0.131-0.093-0.305-0.215-0.479-0.339c-0.173-0.123-0.347-0.248-0.477-0.341c-0.126-0.1-0.21-0.165-0.21-0.165
			s0.13-0.066,0.327-0.166c0.193-0.1,0.455-0.24,0.712-0.384C11.607,43.142,12.102,42.839,12.102,42.839z"/>
		<path d="M10.387,41.505c0,0,0.073,0.062,0.184,0.158c0.055,0.047,0.12,0.103,0.189,0.162c0.071,0.057,0.147,0.116,0.224,0.176
			c0.153,0.12,0.305,0.24,0.42,0.331c0.058,0.044,0.105,0.082,0.139,0.108c0.034,0.025,0.054,0.039,0.054,0.039
			c0-0.001-0.127,0.074-0.316,0.177c-0.19,0.104-0.446,0.242-0.706,0.377c-0.518,0.271-1.057,0.524-1.057,0.524
			s-0.021-0.018-0.057-0.046c-0.037-0.029-0.089-0.07-0.149-0.123c-0.121-0.105-0.282-0.245-0.444-0.385
			c-0.159-0.141-0.325-0.275-0.438-0.389c-0.116-0.11-0.193-0.184-0.193-0.184s0.137-0.053,0.342-0.133
			c0.206-0.083,0.473-0.189,0.745-0.31C9.864,41.755,10.387,41.505,10.387,41.505z"/>
		<path opacity="0.5" d="M8.814,40.004c0,0,0.067,0.07,0.168,0.176c0.101,0.104,0.231,0.248,0.375,0.379
			c0.281,0.268,0.562,0.536,0.562,0.536s-0.527,0.232-1.073,0.449c-0.543,0.218-1.105,0.417-1.105,0.417s-0.021-0.019-0.052-0.053
			c-0.032-0.033-0.079-0.081-0.133-0.14c-0.111-0.115-0.258-0.27-0.405-0.424c-0.073-0.078-0.147-0.154-0.216-0.228
			c-0.065-0.075-0.126-0.146-0.179-0.205C6.651,40.79,6.581,40.71,6.581,40.71s0.571-0.154,1.125-0.329
			C8.268,40.203,8.814,40.004,8.814,40.004z"/>
		<path opacity="0.5" d="M7.4,38.354c0,0,0.06,0.076,0.15,0.189c0.092,0.114,0.208,0.271,0.333,0.418
			c0.254,0.293,0.508,0.588,0.508,0.588s-0.548,0.179-1.114,0.34c-0.282,0.081-0.567,0.157-0.783,0.213
			c-0.216,0.058-0.358,0.09-0.358,0.09s-0.264-0.335-0.527-0.671c-0.134-0.165-0.254-0.342-0.348-0.472
			c-0.093-0.13-0.155-0.218-0.155-0.218s0.584-0.097,1.154-0.215c0.283-0.058,0.571-0.125,0.784-0.176
			C7.259,38.388,7.4,38.354,7.4,38.354z"/>
		<path d="M6.159,36.569c0,0,0.21,0.326,0.419,0.653c0.225,0.316,0.449,0.633,0.449,0.633s-0.565,0.125-1.145,0.229
			c-0.289,0.052-0.583,0.102-0.8,0.134C4.865,38.249,4.72,38.27,4.72,38.27s-0.23-0.359-0.46-0.719
			c-0.113-0.181-0.215-0.368-0.297-0.506c-0.079-0.139-0.133-0.231-0.133-0.231s0.592-0.038,1.171-0.1
			C5.578,36.658,6.159,36.569,6.159,36.569z"/>
		<path opacity="0.5" d="M7.523,33.787c0,0,0.039,0.077,0.098,0.191c0.059,0.112,0.132,0.269,0.221,0.414
			c0.17,0.297,0.341,0.594,0.341,0.594l-0.365,0.22c0,0-0.174-0.304-0.349-0.606c-0.091-0.15-0.166-0.308-0.227-0.424
			c-0.06-0.117-0.099-0.195-0.099-0.195L7.523,33.787z"/>
		<path opacity="0.5" d="M6.465,31.268c0,0,0.027,0.081,0.068,0.202c0.041,0.122,0.093,0.285,0.16,0.442
			c0.125,0.319,0.25,0.637,0.25,0.637l-0.393,0.165c0,0-0.128-0.326-0.256-0.651c-0.068-0.16-0.121-0.327-0.163-0.451
			s-0.069-0.207-0.069-0.207L6.465,31.268z"/>
		<path opacity="0.5" d="M10.296,12.588c0,0-0.19,0.221-0.522,0.607c-0.157,0.2-0.347,0.444-0.565,0.724
			c-0.103,0.145-0.212,0.298-0.328,0.46c-0.058,0.081-0.117,0.164-0.177,0.249c-0.056,0.089-0.114,0.178-0.172,0.271
			c-0.969,1.45-1.981,3.578-2.522,5.843c-0.272,1.129-0.447,2.284-0.502,3.375c-0.058,1.091-0.021,2.114,0.059,2.982
			c0.022,0.218,0.053,0.425,0.077,0.623c0.026,0.196,0.043,0.385,0.08,0.559c0.032,0.174,0.061,0.338,0.087,0.488
			c0.027,0.151,0.049,0.289,0.081,0.413c0.114,0.496,0.18,0.779,0.18,0.779l-0.413,0.105c0,0-0.067-0.289-0.184-0.796
			c-0.033-0.126-0.056-0.269-0.083-0.423s-0.057-0.321-0.089-0.499c-0.037-0.179-0.055-0.37-0.082-0.572
			c-0.024-0.202-0.056-0.413-0.078-0.635c-0.082-0.889-0.119-1.934-0.061-3.049c0.056-1.116,0.235-2.296,0.513-3.452
			c0.553-2.315,1.589-4.492,2.58-5.974c0.06-0.094,0.119-0.186,0.176-0.276c0.062-0.087,0.122-0.172,0.181-0.255
			c0.118-0.166,0.23-0.323,0.335-0.471c0.22-0.288,0.418-0.535,0.578-0.74c0.34-0.394,0.534-0.619,0.534-0.619L10.296,12.588z"/>
		<polygon points="9.938,13.003 10.296,12.588 9.979,12.305 9.612,12.728 		"/>
		<polygon points="6.844,32.294 6.944,32.549 6.551,32.714 6.449,32.454 		"/>
		<path d="M2.248,17.023c0,0,0.11,0.085,0.275,0.214c0.167,0.128,0.391,0.297,0.616,0.463c0.449,0.333,0.904,0.649,0.904,0.649
			s0.041-0.12,0.102-0.299c0.056-0.181,0.15-0.415,0.243-0.65c0.095-0.234,0.181-0.471,0.26-0.644
			c0.078-0.173,0.129-0.288,0.129-0.288s-0.195-0.213-0.388-0.434S4.006,15.59,4.006,15.59s0.026-0.057,0.074-0.164
			c0.054-0.104,0.132-0.257,0.231-0.451c0.05-0.098,0.105-0.205,0.165-0.322c0.031-0.059,0.062-0.12,0.094-0.183
			c0.035-0.062,0.072-0.125,0.109-0.192c0.154-0.263,0.318-0.564,0.516-0.882c0.783-1.275,1.984-2.887,3.416-4.281
			C8.792,8.942,8.972,8.77,9.152,8.599c0.18-0.172,0.373-0.328,0.556-0.491c0.365-0.329,0.754-0.617,1.121-0.908
			c0.184-0.144,0.376-0.272,0.558-0.404c0.092-0.065,0.183-0.129,0.272-0.193c0.089-0.064,0.179-0.126,0.27-0.183
			c0.181-0.116,0.357-0.229,0.527-0.337c0.084-0.055,0.168-0.108,0.25-0.161c0.084-0.049,0.167-0.097,0.248-0.144
			c0.163-0.093,0.318-0.183,0.466-0.268c0.074-0.042,0.146-0.084,0.216-0.124s0.142-0.073,0.208-0.109
			c0.271-0.139,0.507-0.26,0.702-0.359c0.194-0.099,0.354-0.163,0.46-0.214c0.106-0.048,0.163-0.073,0.163-0.073
			s0.221,0.192,0.436,0.387c0.216,0.194,0.426,0.392,0.426,0.392s0.04-0.018,0.118-0.047c0.077-0.031,0.19-0.075,0.334-0.132
			c0.145-0.057,0.32-0.126,0.521-0.205c0.204-0.07,0.435-0.148,0.686-0.234c0.126-0.041,0.256-0.089,0.394-0.13
			c0.138-0.039,0.28-0.08,0.426-0.121c0.146-0.042,0.297-0.085,0.451-0.128c0.154-0.045,0.314-0.075,0.476-0.114
			c0.324-0.073,0.657-0.159,1.001-0.213c0.344-0.059,0.691-0.132,1.044-0.169c1.404-0.194,2.826-0.235,3.888-0.181
			c0.133,0,0.26,0.011,0.381,0.021c0.121,0.009,0.235,0.018,0.343,0.026c0.216,0.017,0.403,0.029,0.558,0.043
			c0.309,0.04,0.483,0.062,0.483,0.062s-0.087-0.547-0.19-1.098c-0.052-0.274-0.106-0.55-0.149-0.755
			c-0.043-0.204-0.072-0.34-0.072-0.34s-0.121-0.009-0.348-0.026c-0.113-0.009-0.253-0.019-0.418-0.032
			c-0.164-0.013-0.354-0.028-0.565-0.03c-0.424-0.008-0.939-0.036-1.529-0.01c-0.591,0.004-1.257,0.057-1.981,0.125
			c-1.448,0.15-3.127,0.476-4.857,1.05c-0.216,0.073-0.433,0.147-0.652,0.221c-0.218,0.078-0.433,0.168-0.651,0.252
			c-0.109,0.043-0.218,0.086-0.328,0.129L15.23,3.435l-0.162,0.072c-0.216,0.098-0.433,0.196-0.651,0.294
			c-0.219,0.095-0.432,0.207-0.646,0.316c-0.214,0.11-0.43,0.219-0.644,0.332c-0.21,0.12-0.42,0.241-0.63,0.362l-0.315,0.182
			l-0.308,0.196l-0.612,0.393C11.062,5.717,10.866,5.861,10.668,6c-0.399,0.273-0.771,0.58-1.147,0.874
			C9.426,6.946,9.334,7.022,9.245,7.101c-0.09,0.078-0.18,0.155-0.269,0.233c-0.178,0.157-0.36,0.305-0.53,0.467
			S8.108,8.123,7.941,8.282c-0.083,0.08-0.167,0.159-0.249,0.239C7.613,8.604,7.534,8.687,7.456,8.769
			c-1.267,1.307-2.293,2.672-3.064,3.906c-0.203,0.303-0.367,0.611-0.535,0.897c-0.082,0.145-0.165,0.283-0.239,0.422
			c-0.072,0.14-0.142,0.275-0.209,0.407c-0.067,0.131-0.132,0.259-0.195,0.382c-0.032,0.062-0.062,0.122-0.093,0.182
			c-0.028,0.061-0.055,0.12-0.081,0.179c-0.105,0.233-0.203,0.448-0.291,0.641c-0.09,0.192-0.159,0.37-0.219,0.523
			c-0.061,0.153-0.112,0.285-0.154,0.391C2.292,16.91,2.248,17.023,2.248,17.023z"/>
		<path d="M30.18,4.493c0,0-0.094-0.026-0.234-0.066c-0.139-0.044-0.33-0.083-0.519-0.127c-0.188-0.044-0.378-0.087-0.52-0.12
			c-0.143-0.035-0.238-0.05-0.238-0.05s-0.047-0.55-0.111-1.102c-0.063-0.552-0.144-1.107-0.144-1.107s0.105,0.019,0.264,0.046
			c0.156,0.03,0.367,0.062,0.576,0.107c0.417,0.096,0.833,0.191,0.833,0.191s0.01,0.139,0.023,0.347
			c0.013,0.208,0.028,0.484,0.039,0.765C30.173,3.938,30.18,4.493,30.18,4.493z"/>
		<path d="M32.241,5.179c0,0-0.09-0.035-0.227-0.089c-0.066-0.026-0.146-0.06-0.231-0.089c-0.086-0.029-0.179-0.061-0.271-0.091
			c-0.184-0.062-0.367-0.125-0.505-0.171c-0.069-0.023-0.127-0.042-0.167-0.056s-0.064-0.02-0.064-0.02s0.009-0.551,0.001-1.107
			C30.771,3,30.748,2.441,30.748,2.441s0.102,0.029,0.257,0.073c0.153,0.046,0.36,0.097,0.562,0.167
			c0.405,0.137,0.809,0.274,0.809,0.274s-0.004,0.139-0.012,0.347c-0.007,0.207-0.022,0.487-0.039,0.767
			C32.291,4.627,32.241,5.179,32.241,5.179z"/>
		<path opacity="0.5" d="M34.224,6.072c0,0-0.087-0.044-0.217-0.111c-0.064-0.033-0.141-0.072-0.222-0.113
			c-0.081-0.041-0.17-0.079-0.259-0.119c-0.354-0.16-0.708-0.32-0.708-0.32s0.017-0.137,0.04-0.344
			c0.021-0.206,0.049-0.48,0.073-0.757c0.05-0.553,0.084-1.112,0.084-1.112s0.1,0.04,0.248,0.098
			c0.148,0.061,0.35,0.133,0.543,0.225c0.389,0.176,0.778,0.352,0.778,0.352s-0.02,0.138-0.048,0.344
			c-0.03,0.208-0.073,0.486-0.118,0.761C34.329,5.528,34.224,6.072,34.224,6.072z"/>
		<path d="M38.815,9.234c0,0-0.293-0.255-0.588-0.508c-0.144-0.131-0.301-0.245-0.414-0.336c-0.114-0.09-0.191-0.15-0.191-0.15
			s0.206-0.516,0.398-1.042c0.098-0.264,0.189-0.526,0.257-0.723c0.065-0.197,0.11-0.329,0.11-0.329s0.088,0.06,0.217,0.156
			c0.126,0.099,0.293,0.23,0.46,0.362c0.168,0.133,0.338,0.261,0.46,0.366c0.12,0.104,0.201,0.174,0.201,0.174
			s-0.216,0.518-0.443,1.024C39.055,8.738,38.815,9.234,38.815,9.234z"/>
		<path d="M40.356,10.767c0,0-0.268-0.281-0.535-0.562c-0.067-0.07-0.134-0.14-0.197-0.206c-0.065-0.063-0.128-0.122-0.18-0.171
			c-0.105-0.101-0.176-0.167-0.176-0.167s0.256-0.492,0.499-0.995c0.122-0.251,0.241-0.505,0.33-0.696
			c0.086-0.19,0.144-0.316,0.144-0.316s0.081,0.069,0.196,0.18c0.115,0.11,0.27,0.257,0.424,0.405
			c0.155,0.147,0.311,0.293,0.418,0.412c0.111,0.116,0.185,0.193,0.185,0.193s-0.266,0.493-0.542,0.974
			c-0.139,0.24-0.279,0.479-0.387,0.656C40.428,10.649,40.356,10.767,40.356,10.767z"/>
		<path d="M46.985,24.699c-0.004-0.165-0.01-0.365-0.015-0.594c-0.013-0.229-0.035-0.487-0.057-0.769
			c-0.011-0.141-0.022-0.288-0.034-0.44c-0.02-0.151-0.038-0.307-0.059-0.468c-0.043-0.321-0.078-0.661-0.147-1.008
			c-0.065-0.347-0.116-0.709-0.208-1.07c-0.087-0.361-0.158-0.731-0.27-1.092c-0.105-0.362-0.197-0.729-0.322-1.078
			c-0.123-0.351-0.229-0.701-0.365-1.027c-0.064-0.165-0.129-0.326-0.191-0.485c-0.031-0.079-0.062-0.157-0.093-0.234
			c-0.034-0.076-0.067-0.151-0.102-0.225c-0.133-0.295-0.257-0.576-0.378-0.831c-0.261-0.502-0.465-0.927-0.638-1.208
			c-0.164-0.286-0.258-0.45-0.258-0.45s-0.376,0.414-0.761,0.813c-0.384,0.4-0.776,0.786-0.776,0.786s0.084,0.138,0.21,0.391
			c0.125,0.253,0.323,0.606,0.514,1.051c0.406,0.879,0.869,2.09,1.188,3.343c0.326,1.251,0.504,2.535,0.575,3.5
			c0.017,0.242,0.041,0.463,0.045,0.66c0.006,0.197,0.01,0.369,0.013,0.51c0.008,0.283,0.012,0.444,0.012,0.444
			s-0.011,0.393-0.028,1.079c-0.053,0.684-0.112,1.666-0.348,2.82c-0.224,1.155-0.589,2.482-1.146,3.844
			c-0.034,0.086-0.065,0.173-0.104,0.257c-0.039,0.085-0.077,0.17-0.115,0.255c-0.077,0.17-0.154,0.341-0.232,0.514
			c-0.077,0.173-0.171,0.339-0.256,0.51c-0.089,0.171-0.173,0.343-0.265,0.513c-0.38,0.672-0.782,1.346-1.241,1.982
			c-0.907,1.28-1.954,2.462-3.054,3.438c-1.097,0.982-2.225,1.776-3.235,2.377c-1.008,0.609-1.91,1.002-2.537,1.278
			c-0.319,0.126-0.569,0.225-0.74,0.292c-0.085,0.035-0.151,0.059-0.197,0.072c-0.045,0.016-0.068,0.023-0.068,0.023
			s-0.099,0.596-0.23,1.202c-0.063,0.304-0.135,0.607-0.194,0.829c-0.061,0.226-0.1,0.375-0.1,0.375s0.108-0.031,0.313-0.089
			c0.202-0.064,0.497-0.167,0.873-0.293c0.189-0.06,0.394-0.143,0.616-0.23c0.222-0.09,0.465-0.179,0.718-0.289
			c0.252-0.114,0.521-0.234,0.803-0.362c0.28-0.131,0.567-0.286,0.871-0.439c1.201-0.637,2.549-1.492,3.857-2.578
			c1.306-1.088,2.571-2.401,3.664-3.848c1.086-1.454,1.989-3.04,2.665-4.601c0.683-1.56,1.116-3.096,1.389-4.428
			c0.271-1.335,0.36-2.467,0.416-3.258c0.019-0.396,0.021-0.708,0.027-0.92c0.005-0.212,0.008-0.326,0.008-0.326
			S46.994,25.028,46.985,24.699z"/>
	</g>
	<g>
		<path opacity="0.5" d="M40.242,19.89c0,0-0.008-0.024-0.023-0.071c-0.017-0.045-0.037-0.115-0.071-0.204
			c-0.07-0.175-0.168-0.435-0.303-0.762c-0.28-0.648-0.72-1.562-1.384-2.575c-0.657-1.018-1.563-2.114-2.675-3.141
			c-0.563-0.505-1.173-0.999-1.829-1.447c-0.66-0.443-1.356-0.854-2.083-1.208c-0.728-0.347-1.479-0.651-2.237-0.891
			c-0.188-0.06-0.38-0.11-0.57-0.166c-0.095-0.026-0.188-0.053-0.283-0.08c-0.095-0.022-0.19-0.044-0.286-0.066
			c-0.189-0.043-0.377-0.091-0.565-0.127c-0.189-0.034-0.377-0.067-0.563-0.101c-0.186-0.037-0.373-0.056-0.557-0.08
			c-0.186-0.021-0.367-0.051-0.549-0.064c-0.363-0.025-0.718-0.064-1.064-0.064c-0.173-0.005-0.344-0.009-0.513-0.013
			c-0.168,0.003-0.334,0.008-0.498,0.012c-0.082,0.002-0.162,0.004-0.242,0.006c-0.04,0.001-0.08,0.002-0.12,0.003
			c-0.04,0.003-0.079,0.006-0.118,0.009c-0.157,0.012-0.311,0.023-0.462,0.035c-1.208,0.102-2.197,0.326-2.878,0.507
			c-0.34,0.098-0.609,0.168-0.786,0.233c-0.18,0.061-0.275,0.093-0.275,0.093s0.276,0.442,0.538,0.89
			c0.263,0.447,0.51,0.899,0.51,0.899s0.02-0.007,0.059-0.018c0.04-0.011,0.097-0.027,0.173-0.048
			c0.075-0.022,0.168-0.048,0.278-0.079c0.054-0.016,0.113-0.033,0.176-0.051c0.063-0.017,0.131-0.03,0.203-0.047
			c0.142-0.033,0.3-0.07,0.472-0.109c0.172-0.036,0.361-0.065,0.562-0.103c0.2-0.041,0.417-0.062,0.644-0.092
			c0.113-0.013,0.229-0.034,0.35-0.041c0.12-0.009,0.242-0.019,0.368-0.028c0.062-0.005,0.125-0.009,0.189-0.015
			c0.064-0.006,0.128-0.01,0.194-0.01c0.13-0.003,0.264-0.006,0.399-0.01c0.271-0.014,0.551,0.004,0.839,0.008
			c0.145,0,0.29,0.014,0.437,0.025s0.296,0.022,0.447,0.034c0.149,0.019,0.301,0.038,0.454,0.058
			c0.154,0.019,0.309,0.037,0.462,0.067c0.154,0.028,0.311,0.056,0.467,0.083c0.156,0.029,0.312,0.071,0.47,0.105
			c0.317,0.064,0.628,0.166,0.946,0.252c0.156,0.05,0.312,0.105,0.47,0.157l0.236,0.08l0.231,0.091
			c0.154,0.062,0.312,0.12,0.466,0.186l0.457,0.207c0.603,0.289,1.196,0.604,1.744,0.971c0.069,0.044,0.139,0.089,0.208,0.133
			c0.066,0.048,0.133,0.095,0.2,0.143c0.132,0.095,0.267,0.188,0.396,0.283c0.252,0.203,0.511,0.391,0.743,0.603
			c0.482,0.403,0.904,0.841,1.299,1.26c0.381,0.432,0.727,0.852,1.017,1.263c0.587,0.816,0.991,1.552,1.248,2.078
			c0.018,0.032,0.033,0.063,0.05,0.095c0.014,0.031,0.027,0.062,0.041,0.092c0.026,0.059,0.053,0.115,0.075,0.167
			c0.047,0.104,0.087,0.192,0.119,0.263c0.033,0.072,0.059,0.126,0.071,0.165c0.015,0.038,0.023,0.057,0.023,0.057
			s0.543-0.006,1.098,0.018c0.278,0.011,0.559,0.028,0.764,0.046C40.104,19.877,40.242,19.89,40.242,19.89z"/>
		<path d="M8.865,26.489l0.034,0.446c0,0,0.151-0.071,0.303-0.142c0.151-0.068,0.303-0.136,0.303-0.136l-0.033-0.429
			c0,0-0.151,0.063-0.303,0.128C9.016,26.423,8.865,26.489,8.865,26.489z"/>
		<path d="M7.966,27.029l0.059,0.472c0,0,0.148-0.078,0.295-0.155c0.148-0.076,0.296-0.151,0.296-0.151s-0.015-0.113-0.029-0.228
			C8.579,26.854,8.57,26.74,8.57,26.74s-0.151,0.071-0.302,0.143C8.117,26.956,7.966,27.029,7.966,27.029z"/>
		<path d="M8.829,25.818c0,0,0.003,0.112,0.006,0.224c0.001,0.057,0.003,0.112,0.007,0.154c0.003,0.041,0.005,0.069,0.005,0.069
			S9,26.201,9.151,26.138c0.153-0.062,0.308-0.124,0.308-0.124l-0.011-0.43c0,0-0.155,0.058-0.31,0.115
			C8.984,25.759,8.829,25.818,8.829,25.818z"/>
		<path d="M7.912,26.321l0.036,0.473c0,0,0.151-0.072,0.303-0.144c0.151-0.069,0.303-0.139,0.303-0.139s-0.009-0.113-0.017-0.227
			c-0.004-0.058-0.01-0.114-0.011-0.157c-0.001-0.043-0.001-0.071-0.001-0.071s-0.154,0.065-0.308,0.13
			C8.063,26.254,7.912,26.321,7.912,26.321z"/>
		<path opacity="0.5" d="M8.821,25.147c0,0,0,0.028-0.001,0.07s-0.004,0.098-0.001,0.153c0.002,0.112,0.005,0.224,0.005,0.224
			s0.155-0.058,0.311-0.115c0.154-0.056,0.309-0.11,0.309-0.11s-0.001-0.027,0-0.068c0-0.04,0.002-0.094,0.003-0.148
			c0.003-0.107,0.005-0.215,0.005-0.215S9.293,24.99,9.136,25.04C8.979,25.094,8.821,25.147,8.821,25.147z"/>
		<path d="M7.886,25.611l0.012,0.474c0,0,0.154-0.065,0.309-0.131c0.154-0.062,0.31-0.126,0.31-0.126l-0.012-0.457
			c0,0-0.155,0.06-0.31,0.118C8.041,25.55,7.886,25.611,7.886,25.611z"/>
		<path opacity="0.5" d="M8.839,24.476c0,0-0.002,0.027-0.002,0.07c-0.001,0.042-0.003,0.097-0.004,0.153
			c-0.003,0.112-0.005,0.224-0.005,0.224s0.157-0.051,0.315-0.102c0.158-0.049,0.315-0.098,0.315-0.098s0.001-0.107,0.006-0.215
			c0.009-0.107,0.017-0.215,0.017-0.215s-0.16,0.044-0.32,0.089C9,24.429,8.839,24.476,8.839,24.476z"/>
		<path d="M7.889,24.901c0,0-0.003,0.118-0.006,0.236C7.882,25.196,7.88,25.255,7.879,25.3c0,0.044,0.001,0.074,0.001,0.074
			s0.154-0.061,0.312-0.118c0.157-0.057,0.315-0.113,0.315-0.113l0.011-0.456c0,0-0.157,0.052-0.315,0.104
			C8.047,24.846,7.889,24.901,7.889,24.901z"/>
		<path d="M8.89,23.806l-0.034,0.446c0,0,0.16-0.044,0.32-0.089c0.16-0.042,0.319-0.084,0.319-0.084s0.008-0.108,0.017-0.215
			c0.006-0.107,0.021-0.214,0.021-0.214s-0.163,0.038-0.324,0.076C9.049,23.766,8.89,23.806,8.89,23.806z"/>
		<path d="M7.921,24.19c0,0-0.009,0.118-0.018,0.236c-0.006,0.119-0.008,0.237-0.008,0.237s0.158-0.052,0.315-0.104
			c0.158-0.05,0.317-0.1,0.317-0.1l0.034-0.455c0,0-0.16,0.045-0.32,0.09C8.081,24.143,7.921,24.19,7.921,24.19z"/>
		<path d="M8.969,23.139l-0.056,0.444c0,0,0.162-0.038,0.324-0.075c0.162-0.036,0.324-0.071,0.324-0.071l0.054-0.427
			c0,0-0.161,0.031-0.322,0.062C9.13,23.105,8.969,23.139,8.969,23.139z"/>
		<path d="M7.98,23.482c0,0-0.017,0.117-0.024,0.235c-0.009,0.119-0.018,0.237-0.018,0.237s0.16-0.045,0.32-0.091
			c0.16-0.043,0.32-0.086,0.32-0.086s0.007-0.114,0.023-0.227c0.015-0.114,0.029-0.227,0.029-0.227S8.468,23.361,8.306,23.4
			C8.144,23.441,7.98,23.482,7.98,23.482z"/>
		<path opacity="0.5" d="M9.075,22.476c0,0-0.02,0.11-0.04,0.22c-0.01,0.056-0.02,0.111-0.027,0.152
			c-0.008,0.041-0.012,0.069-0.012,0.069s0.164-0.03,0.327-0.062c0.165-0.028,0.328-0.056,0.328-0.056l0.076-0.424
			c0,0-0.163,0.024-0.326,0.048C9.239,22.45,9.075,22.476,9.075,22.476z"/>
		<path d="M9.208,21.817c0,0-0.025,0.109-0.05,0.218c-0.014,0.054-0.025,0.109-0.031,0.151c-0.008,0.042-0.013,0.068-0.013,0.068
			s0.163-0.024,0.326-0.048c0.165-0.021,0.329-0.043,0.329-0.043l0.097-0.419c0,0-0.164,0.017-0.328,0.034
			C9.373,21.798,9.208,21.817,9.208,21.817z"/>
		<path d="M9.369,21.165c0,0-0.032,0.107-0.059,0.216c-0.026,0.109-0.051,0.218-0.051,0.218s0.165-0.017,0.329-0.034
			c0.164-0.014,0.328-0.029,0.328-0.029s0.005-0.027,0.017-0.065c0.011-0.039,0.026-0.091,0.041-0.143
			c0.029-0.103,0.059-0.207,0.059-0.207s-0.166,0.01-0.331,0.02C9.534,21.153,9.369,21.165,9.369,21.165z"/>
		<path d="M9.556,20.52c0,0-0.009,0.026-0.022,0.066c-0.013,0.04-0.027,0.094-0.042,0.147C9.46,20.842,9.43,20.95,9.43,20.95
			s0.165-0.01,0.33-0.02c0.165-0.008,0.33-0.016,0.33-0.016s0.007-0.026,0.018-0.065c0.011-0.039,0.026-0.09,0.044-0.141
			c0.035-0.102,0.069-0.203,0.069-0.203s-0.166,0.002-0.332,0.005C9.723,20.515,9.556,20.52,9.556,20.52z"/>
		<path d="M9.771,19.883l-0.143,0.424c0,0,0.166-0.002,0.331-0.005c0.166,0,0.331-0.001,0.331-0.001s0.035-0.102,0.069-0.204
			c0.037-0.101,0.078-0.2,0.078-0.2s-0.166-0.005-0.332-0.009C9.938,19.886,9.771,19.883,9.771,19.883z"/>
		<path d="M8.739,20.012c0,0-0.039,0.112-0.076,0.225c-0.02,0.056-0.038,0.112-0.048,0.156c-0.013,0.042-0.021,0.071-0.021,0.071
			s0.166-0.011,0.332-0.022c0.165-0.01,0.333-0.017,0.333-0.017l0.146-0.433c0,0-0.166,0.004-0.333,0.008
			C8.906,20.006,8.739,20.012,8.739,20.012z"/>
		<path d="M10.017,19.258l-0.164,0.417c0,0,0.167,0.004,0.333,0.008c0.166,0.007,0.331,0.013,0.331,0.013s0.039-0.1,0.078-0.2
			c0.038-0.101,0.083-0.198,0.083-0.198s-0.166-0.012-0.332-0.023C10.182,19.267,10.017,19.258,10.017,19.258z"/>
		<path opacity="0.5" d="M8.977,19.341c0,0-0.044,0.11-0.086,0.221c-0.038,0.113-0.076,0.225-0.076,0.225s0.166-0.004,0.332-0.007
			c0.166-0.002,0.331-0.003,0.331-0.003s0.009-0.027,0.025-0.066c0.016-0.04,0.036-0.093,0.057-0.146
			c0.042-0.107,0.083-0.213,0.083-0.213s-0.166-0.003-0.333-0.007C9.144,19.343,8.977,19.341,8.977,19.341z"/>
		<path opacity="0.5" d="M16.397,10.702c0,0-0.154,0.088-0.423,0.244c-0.131,0.083-0.291,0.185-0.474,0.302
			c-0.185,0.114-0.383,0.257-0.6,0.412c-0.107,0.079-0.224,0.155-0.336,0.244c-0.113,0.089-0.23,0.181-0.35,0.275
			c-0.245,0.184-0.482,0.402-0.736,0.619l-0.094,0.083l-0.092,0.087c-0.061,0.058-0.123,0.117-0.185,0.176
			c-0.124,0.12-0.253,0.235-0.373,0.362c-0.241,0.255-0.493,0.506-0.72,0.779c-0.474,0.531-0.895,1.107-1.275,1.653
			c-0.09,0.141-0.179,0.278-0.265,0.414c-0.086,0.135-0.173,0.266-0.247,0.4c-0.076,0.133-0.15,0.261-0.222,0.386
			c-0.036,0.063-0.072,0.124-0.105,0.185c-0.032,0.062-0.063,0.123-0.093,0.182c-0.061,0.119-0.119,0.233-0.175,0.341
			c-0.056,0.107-0.108,0.21-0.151,0.31c-0.089,0.198-0.167,0.37-0.231,0.512c-0.066,0.141-0.106,0.257-0.138,0.334
			C9.08,19.079,9.063,19.12,9.063,19.12s0.167,0.004,0.333,0.007c0.166,0.006,0.332,0.011,0.332,0.011s0.015-0.04,0.044-0.114
			c0.034-0.074,0.083-0.181,0.144-0.317c0.063-0.136,0.133-0.305,0.227-0.491c0.095-0.186,0.203-0.395,0.32-0.624
			c0.129-0.222,0.264-0.466,0.416-0.718c0.08-0.124,0.161-0.251,0.244-0.381c0.042-0.065,0.084-0.131,0.127-0.197
			s0.091-0.129,0.137-0.196c0.093-0.13,0.188-0.264,0.283-0.398c0.096-0.135,0.204-0.263,0.307-0.396
			c0.203-0.27,0.433-0.524,0.656-0.783c0.912-1.024,1.973-1.904,2.817-2.489c0.206-0.153,0.409-0.272,0.584-0.387
			c0.087-0.057,0.17-0.109,0.246-0.158c0.079-0.045,0.15-0.087,0.215-0.124c0.26-0.149,0.408-0.235,0.408-0.235
			s-0.125-0.107-0.251-0.216C16.525,10.809,16.397,10.702,16.397,10.702z"/>
		<path d="M38.742,19.457c0,0,0.044-0.045,0.112-0.113c0.067-0.068,0.153-0.158,0.241-0.25c0.175-0.184,0.347-0.373,0.347-0.373
			s-0.038-0.082-0.107-0.234c-0.063-0.154-0.179-0.371-0.32-0.649c-0.291-0.551-0.73-1.333-1.373-2.189
			c-0.64-0.858-1.481-1.79-2.5-2.658c-0.063-0.054-0.127-0.108-0.191-0.164c-0.065-0.052-0.133-0.104-0.199-0.157
			c-0.133-0.104-0.269-0.21-0.404-0.316c-0.14-0.1-0.281-0.2-0.423-0.301c-0.07-0.05-0.142-0.101-0.213-0.151
			c-0.073-0.047-0.147-0.094-0.222-0.142c-0.148-0.094-0.297-0.189-0.445-0.285c-0.153-0.088-0.308-0.176-0.461-0.265
			c-0.078-0.044-0.153-0.09-0.232-0.131l-0.237-0.122c-0.16-0.081-0.316-0.165-0.478-0.241c-1.292-0.607-2.658-1.058-3.978-1.292
			c-1.315-0.245-2.57-0.307-3.638-0.263c-1.07,0.043-1.953,0.188-2.566,0.306c-0.305,0.066-0.543,0.125-0.706,0.161
			c-0.082,0.018-0.144,0.034-0.186,0.046S20.5,9.69,20.5,9.69s-0.039,0.255-0.071,0.507c-0.033,0.253-0.06,0.504-0.06,0.504
			s-0.033,0.009-0.091,0.025c-0.058,0.017-0.14,0.039-0.237,0.074c-0.097,0.032-0.211,0.071-0.333,0.112
			c-0.121,0.042-0.253,0.081-0.379,0.134c-0.127,0.051-0.254,0.101-0.375,0.148c-0.119,0.046-0.231,0.09-0.325,0.134
			c-0.187,0.084-0.312,0.141-0.312,0.141s-0.261-0.311-0.533-0.617c-0.136-0.154-0.272-0.302-0.375-0.414
			c-0.104-0.111-0.174-0.186-0.174-0.186s0.027-0.013,0.079-0.04c0.051-0.028,0.13-0.064,0.233-0.11
			c0.103-0.046,0.229-0.104,0.379-0.171c0.075-0.033,0.154-0.071,0.241-0.106c0.088-0.035,0.181-0.072,0.278-0.11
			c0.781-0.315,1.93-0.703,3.356-0.949c0.089-0.016,0.179-0.032,0.27-0.048c0.091-0.017,0.184-0.025,0.276-0.038
			c0.187-0.023,0.377-0.048,0.57-0.072c0.194-0.02,0.392-0.032,0.592-0.048c0.1-0.008,0.201-0.015,0.303-0.022
			c0.102-0.003,0.205-0.005,0.308-0.008c0.826-0.036,1.7,0.008,2.597,0.114c0.112,0.014,0.225,0.029,0.338,0.043l0.169,0.022
			l0.17,0.029c0.226,0.041,0.453,0.082,0.682,0.123c0.227,0.052,0.454,0.104,0.684,0.157c0.115,0.024,0.228,0.059,0.341,0.091
			c0.114,0.032,0.229,0.064,0.343,0.097c0.909,0.271,1.811,0.622,2.675,1.047c1.734,0.846,3.293,2.023,4.558,3.31
			c0.637,0.641,1.188,1.321,1.671,1.993c0.06,0.085,0.119,0.168,0.178,0.251c0.029,0.042,0.06,0.083,0.088,0.125
			c0.027,0.042,0.055,0.085,0.081,0.127c0.109,0.169,0.216,0.336,0.321,0.5c0.102,0.167,0.193,0.334,0.289,0.497
			c0.047,0.082,0.093,0.163,0.139,0.242c0.042,0.082,0.084,0.163,0.125,0.243c0.67,1.283,1.061,2.431,1.283,3.242
			c0.029,0.102,0.057,0.198,0.082,0.288c0.026,0.091,0.043,0.177,0.062,0.257c0.036,0.159,0.068,0.295,0.093,0.405
			c0.025,0.11,0.047,0.194,0.056,0.252c0.01,0.058,0.016,0.087,0.016,0.087l-1.534,0.299c0,0-0.008-0.047-0.023-0.129
			c-0.018-0.082-0.045-0.198-0.076-0.337c-0.034-0.139-0.066-0.303-0.114-0.476c-0.049-0.172-0.102-0.356-0.153-0.539
			c-0.024-0.093-0.056-0.183-0.087-0.272c-0.029-0.089-0.06-0.176-0.087-0.261c-0.029-0.084-0.057-0.167-0.083-0.245
			c-0.027-0.078-0.058-0.148-0.083-0.215C38.811,19.635,38.742,19.457,38.742,19.457z"/>
		<path d="M24.916,42.106c0.156-0.005,0.385-0.007,0.676-0.021c0.582-0.041,1.416-0.102,2.398-0.303
			c0.979-0.198,2.109-0.517,3.262-1.008c1.149-0.492,2.319-1.152,3.394-1.942c1.075-0.791,2.043-1.72,2.854-2.672
			c0.81-0.952,1.455-1.933,1.933-2.812c0.478-0.881,0.79-1.655,0.999-2.2c0.101-0.275,0.17-0.493,0.221-0.642
			c0.026-0.073,0.044-0.131,0.058-0.17c0.013-0.037,0.019-0.058,0.019-0.058l-1.493-0.461c0,0-0.005,0.018-0.017,0.052
			c-0.013,0.035-0.029,0.087-0.052,0.153c-0.047,0.135-0.11,0.333-0.199,0.581c-0.19,0.494-0.475,1.197-0.907,1.996
			c-0.432,0.797-1.018,1.686-1.754,2.55c-0.734,0.863-1.613,1.708-2.589,2.424c-0.975,0.717-2.034,1.315-3.077,1.763
			c-1.044,0.445-2.067,0.734-2.957,0.914c-0.89,0.182-1.646,0.235-2.174,0.274c-0.265,0.012-0.473,0.013-0.614,0.018
			c-0.142,0.003-0.217,0.006-0.217,0.006s-0.164-0.005-0.41-0.011c-0.123-0.005-0.267-0.005-0.42-0.013
			c-0.154-0.012-0.317-0.025-0.481-0.037c-0.082-0.006-0.164-0.013-0.244-0.019c-0.08-0.01-0.159-0.02-0.235-0.03
			c-0.152-0.019-0.295-0.037-0.417-0.052c-0.123-0.013-0.223-0.035-0.293-0.047c-0.071-0.013-0.111-0.02-0.111-0.02
			s-0.135,0.213-0.276,0.427c-0.141,0.213-0.289,0.424-0.289,0.424s-0.015-0.002-0.045-0.008c-0.03-0.005-0.073-0.015-0.13-0.028
			c-0.114-0.025-0.281-0.065-0.494-0.114c-0.426-0.1-1.026-0.273-1.732-0.524c-0.702-0.263-1.504-0.615-2.322-1.073
			c-0.817-0.456-1.648-1.019-2.417-1.657c-0.771-0.636-1.477-1.349-2.077-2.066c-0.602-0.719-1.096-1.442-1.485-2.082
			c-0.186-0.325-0.362-0.62-0.495-0.895c-0.069-0.135-0.134-0.262-0.194-0.379c-0.054-0.121-0.104-0.23-0.15-0.33
			c-0.088-0.2-0.163-0.354-0.206-0.463c-0.043-0.109-0.066-0.168-0.066-0.168s0.179-0.184,0.361-0.362
			c0.182-0.178,0.365-0.35,0.365-0.35s-0.021-0.05-0.054-0.14c-0.031-0.091-0.075-0.22-0.126-0.374
			c-0.053-0.154-0.117-0.335-0.169-0.532c-0.027-0.098-0.056-0.199-0.085-0.303c-0.029-0.103-0.062-0.206-0.083-0.314
			c-0.049-0.212-0.098-0.424-0.144-0.622c-0.036-0.201-0.069-0.389-0.098-0.55c-0.014-0.08-0.028-0.153-0.039-0.22
			c-0.008-0.066-0.015-0.123-0.021-0.171C9.582,27.353,9.574,27.3,9.574,27.3s-0.374,0.156-0.746,0.324
			c-0.374,0.168-0.738,0.347-0.738,0.347s0.016,0.091,0.047,0.263c0.033,0.17,0.067,0.423,0.146,0.738
			c0.036,0.158,0.077,0.333,0.121,0.523c0.054,0.188,0.111,0.392,0.172,0.608c0.057,0.22,0.141,0.444,0.221,0.686
			c0.042,0.119,0.079,0.244,0.128,0.368c0.049,0.123,0.099,0.25,0.15,0.38c0.053,0.128,0.1,0.263,0.16,0.395
			c0.06,0.131,0.121,0.266,0.182,0.402c0.118,0.275,0.267,0.548,0.411,0.832c0.07,0.144,0.152,0.282,0.233,0.424
			c0.082,0.141,0.164,0.285,0.247,0.43c0.091,0.141,0.182,0.284,0.273,0.428c0.092,0.143,0.184,0.289,0.287,0.429
			c0.102,0.142,0.203,0.284,0.305,0.428c0.103,0.144,0.217,0.279,0.326,0.422c0.215,0.285,0.459,0.553,0.697,0.829
			c0.121,0.138,0.25,0.267,0.376,0.4l0.19,0.198c0.063,0.067,0.132,0.129,0.199,0.193c0.133,0.128,0.267,0.255,0.401,0.383
			c0.138,0.123,0.279,0.242,0.419,0.364l0.21,0.182l0.218,0.172c0.146,0.114,0.291,0.229,0.437,0.341
			c0.15,0.108,0.3,0.215,0.45,0.321c0.076,0.052,0.148,0.107,0.226,0.158c0.077,0.049,0.154,0.098,0.23,0.147
			c0.607,0.405,1.244,0.74,1.866,1.051c1.256,0.598,2.499,0.998,3.584,1.238c0.27,0.067,0.533,0.109,0.782,0.155
			c0.125,0.021,0.246,0.045,0.364,0.062c0.119,0.016,0.235,0.03,0.347,0.045c0.448,0.065,0.84,0.087,1.163,0.112
			c0.162,0.015,0.307,0.014,0.433,0.018c0.125,0.004,0.233,0.007,0.32,0.009c0.173,0.004,0.266,0.007,0.266,0.007
			S24.759,42.109,24.916,42.106z"/>
		<path d="M41.031,29.134c0,0-0.039,0.174-0.08,0.348c-0.045,0.172-0.095,0.342-0.095,0.342l-1.506-0.419
			c0,0,0.046-0.154,0.087-0.31c0.036-0.157,0.072-0.314,0.072-0.314L41.031,29.134z"/>
		<polygon points="41.22,28.204 41.137,28.671 39.605,28.361 39.681,27.937 		"/>
		<polygon points="41.297,27.736 41.326,27.501 39.777,27.3 39.75,27.513 		"/>
	</g>
</g>
</svg>
