<?xml version="1.0" encoding="utf-8"?>
<!-- Generator: Adobe Illustrator 16.0.0, SVG Export Plug-In . SVG Version: 6.00 Build 0)  -->
<!DOCTYPE svg PUBLIC "-//W3C//DTD SVG 1.1//EN" "http://www.w3.org/Graphics/SVG/1.1/DTD/svg11.dtd">
<svg version="1.1" id="Layer_1" xmlns="http://www.w3.org/2000/svg" xmlns:xlink="http://www.w3.org/1999/xlink" x="0px" y="0px"
	 width="50px" height="50px" viewBox="0 0 50 50" enable-background="new 0 0 50 50" xml:space="preserve">
<g>
	<path opacity="0.5" d="M5.204,23.473c0,0-0.001,0.042-0.003,0.124c0.002,0.082,0.005,0.203,0.01,0.362
		c0.003,0.158,0.008,0.354,0.014,0.584c0.017,0.229,0.037,0.492,0.059,0.788c0.007,0.147,0.029,0.302,0.05,0.463
		s0.042,0.332,0.064,0.508c0.005,0.044,0.011,0.089,0.016,0.134c0.008,0.044,0.017,0.09,0.025,0.136
		c0.017,0.091,0.033,0.185,0.05,0.278c0.036,0.188,0.063,0.386,0.109,0.586c0.171,0.805,0.42,1.699,0.767,2.65
		c0.7,1.894,1.869,3.994,3.562,5.886c1.679,1.899,3.905,3.539,6.375,4.624c1.234,0.545,2.527,0.954,3.832,1.207
		c1.303,0.256,2.615,0.364,3.884,0.348c2.542-0.036,4.876-0.587,6.741-1.366c1.873-0.769,3.301-1.703,4.234-2.424
		c0.231-0.185,0.442-0.343,0.619-0.49c0.173-0.15,0.32-0.279,0.44-0.382c0.06-0.052,0.112-0.097,0.158-0.137
		c0.045-0.041,0.081-0.077,0.111-0.104c0.059-0.057,0.089-0.086,0.089-0.086l0.296,0.317c0,0-0.031,0.029-0.092,0.087
		c-0.029,0.028-0.066,0.066-0.112,0.107c-0.047,0.041-0.102,0.087-0.163,0.141c-0.122,0.104-0.273,0.236-0.451,0.39
		c-0.179,0.151-0.396,0.313-0.633,0.502c-0.954,0.737-2.414,1.693-4.334,2.481c-1.908,0.797-4.298,1.361-6.897,1.396
		c-1.299,0.02-2.641-0.094-3.975-0.355c-1.335-0.258-2.659-0.678-3.922-1.234c-2.528-1.111-4.806-2.789-6.524-4.732
		c-1.732-1.935-2.927-4.085-3.645-6.023c-0.356-0.974-0.609-1.889-0.785-2.713c-0.046-0.204-0.074-0.406-0.112-0.6
		c-0.017-0.097-0.034-0.192-0.051-0.285c-0.008-0.046-0.017-0.093-0.025-0.139c-0.006-0.046-0.011-0.091-0.017-0.137
		c-0.023-0.181-0.045-0.354-0.065-0.52c-0.022-0.166-0.044-0.323-0.052-0.475c-0.022-0.302-0.042-0.571-0.06-0.806
		c-0.006-0.235-0.011-0.435-0.014-0.598c-0.004-0.162-0.008-0.287-0.01-0.371C4.769,23.513,4.77,23.47,4.77,23.47L5.204,23.473z"/>
	<path d="M34.336,38.839c0,0,0.137-0.098,0.341-0.242c0.051-0.036,0.105-0.074,0.164-0.115c0.057-0.046,0.116-0.093,0.178-0.14
		c0.123-0.097,0.254-0.2,0.385-0.304c0.134-0.101,0.259-0.213,0.376-0.313c0.119-0.104,0.229-0.198,0.324-0.279
		c0.047-0.042,0.09-0.08,0.129-0.112c0.036-0.035,0.068-0.067,0.094-0.092c0.054-0.051,0.084-0.079,0.084-0.079l0.296,0.317
		c0,0-0.03,0.029-0.085,0.081c-0.026,0.025-0.06,0.057-0.097,0.093c-0.039,0.033-0.084,0.073-0.133,0.114
		c-0.096,0.084-0.209,0.182-0.33,0.287c-0.121,0.104-0.248,0.219-0.385,0.321c-0.135,0.105-0.269,0.211-0.394,0.31
		c-0.063,0.049-0.125,0.097-0.182,0.142c-0.061,0.043-0.117,0.082-0.169,0.12c-0.209,0.148-0.348,0.247-0.348,0.247L34.336,38.839z"
		/>
	<path d="M42.411,35.702c0,0-0.055,0.085-0.135,0.21c-0.077,0.128-0.197,0.289-0.312,0.452c-0.116,0.163-0.23,0.326-0.318,0.448
		c-0.044,0.062-0.08,0.112-0.106,0.146c-0.027,0.034-0.043,0.054-0.043,0.054s-0.532-0.201-1.054-0.416
		c-0.522-0.213-1.034-0.439-1.034-0.439s0.223-0.284,0.446-0.568C40.062,35.295,40.271,35,40.271,35s0.133,0.048,0.332,0.119
		c0.199,0.069,0.469,0.163,0.733,0.248C41.869,35.542,42.411,35.702,42.411,35.702z"/>
	<path d="M41.473,33.03c0,0,0.544,0.128,1.097,0.239c0.551,0.115,1.109,0.213,1.109,0.213s-0.182,0.355-0.363,0.711
		c-0.199,0.347-0.398,0.693-0.398,0.693s-0.546-0.135-1.087-0.288c-0.547-0.153-1.082-0.321-1.082-0.321"/>
	<path d="M42.437,30.936c0,0,0.558,0.064,1.12,0.112c0.281,0.025,0.567,0.047,0.776,0.062c0.211,0.013,0.352,0.021,0.352,0.021
		s-0.009,0.023-0.022,0.064c-0.013,0.042-0.036,0.1-0.063,0.17c-0.056,0.14-0.129,0.326-0.202,0.512
		c-0.074,0.185-0.143,0.374-0.208,0.509c-0.061,0.137-0.102,0.228-0.102,0.228s-0.562-0.073-1.118-0.162
		c-0.556-0.088-1.104-0.191-1.104-0.191"/>
	<path d="M45.404,28.678c0,0-0.022,0.097-0.056,0.244c-0.018,0.071-0.037,0.157-0.059,0.248c-0.025,0.091-0.053,0.187-0.08,0.282
		c-0.109,0.385-0.219,0.77-0.219,0.77s-0.568-0.009-1.134-0.034c-0.564-0.024-1.123-0.064-1.123-0.064s0.029-0.085,0.072-0.213
		c0.041-0.129,0.108-0.297,0.152-0.472c0.099-0.348,0.196-0.693,0.196-0.693s0.565,0,1.125-0.018S45.404,28.678,45.404,28.678z"/>
	<path d="M43.614,26.483c0,0,0.555-0.063,1.111-0.146c0.558-0.082,1.116-0.18,1.116-0.18s-0.051,0.396-0.102,0.793
		c-0.068,0.394-0.138,0.788-0.138,0.788s-0.562,0.058-1.12,0.099c-0.562,0.042-1.126,0.065-1.126,0.065"/>
	<path d="M43.808,24.185c0,0,0.545-0.128,1.091-0.274c0.547-0.144,1.094-0.305,1.094-0.305s-0.011,0.4-0.02,0.8
		c-0.004,0.199-0.009,0.399-0.025,0.548c-0.012,0.149-0.019,0.249-0.019,0.249s-0.554,0.122-1.105,0.227
		c-0.552,0.105-1.103,0.195-1.103,0.195"/>
	<path d="M20.091,43.338c0,0,0.061,0.011,0.175,0.031c0.115,0.019,0.282,0.055,0.497,0.086c0.216,0.026,0.477,0.06,0.777,0.099
		c0.149,0.022,0.31,0.03,0.479,0.044c0.169,0.013,0.347,0.026,0.533,0.04c0.185,0.021,0.379,0.017,0.58,0.022
		c0.201,0.006,0.408,0.012,0.622,0.018c0.213-0.006,0.433-0.012,0.656-0.018c0.112-0.003,0.225-0.006,0.34-0.008
		c0.114-0.005,0.229-0.017,0.345-0.025c0.231-0.018,0.468-0.035,0.706-0.054c0.237-0.03,0.479-0.06,0.72-0.091
		c0.121-0.017,0.244-0.027,0.364-0.051c0.122-0.021,0.242-0.043,0.363-0.064c0.122-0.022,0.244-0.043,0.366-0.064l0.184-0.033
		l0.181-0.042c0.241-0.056,0.482-0.111,0.723-0.167c0.239-0.061,0.475-0.133,0.71-0.198c0.117-0.034,0.235-0.063,0.35-0.101
		c0.115-0.039,0.229-0.078,0.343-0.116c0.112-0.039,0.225-0.076,0.337-0.114c0.111-0.038,0.224-0.073,0.331-0.119
		c0.216-0.084,0.429-0.168,0.637-0.251c0.052-0.02,0.104-0.041,0.156-0.06c0.05-0.023,0.1-0.046,0.149-0.069
		c0.099-0.045,0.197-0.089,0.295-0.134c0.097-0.043,0.192-0.087,0.287-0.129s0.188-0.085,0.275-0.132
		c0.179-0.093,0.352-0.181,0.516-0.265c0.657-0.349,1.189-0.67,1.551-0.909c0.183-0.118,0.329-0.205,0.421-0.276
		c0.095-0.066,0.146-0.104,0.146-0.104s0.216,0.181,0.432,0.36c0.218,0.177,0.437,0.354,0.437,0.354s-0.054,0.037-0.153,0.108
		c-0.102,0.07-0.243,0.181-0.436,0.305c-0.192,0.123-0.427,0.272-0.695,0.444c-0.271,0.165-0.586,0.34-0.925,0.537
		c-0.694,0.362-1.512,0.779-2.43,1.124c-0.114,0.045-0.229,0.091-0.344,0.137c-0.117,0.046-0.236,0.081-0.356,0.123
		c-0.239,0.08-0.479,0.165-0.724,0.243c-0.496,0.139-0.995,0.293-1.508,0.4c-0.507,0.129-1.025,0.203-1.531,0.298
		c-0.255,0.032-0.509,0.064-0.759,0.097c-0.125,0.014-0.249,0.034-0.373,0.043c-0.125,0.01-0.248,0.02-0.37,0.028
		c-0.245,0.017-0.485,0.042-0.72,0.051c-0.236,0.006-0.467,0.011-0.692,0.017c-0.113,0.002-0.223,0.008-0.332,0.008
		c-0.11-0.003-0.216-0.006-0.322-0.009c-0.211-0.005-0.415-0.01-0.612-0.015c-0.098-0.001-0.193-0.008-0.287-0.016
		s-0.185-0.015-0.273-0.021c-0.179-0.013-0.348-0.026-0.507-0.038c-0.159-0.009-0.305-0.034-0.443-0.05
		c-0.137-0.017-0.262-0.033-0.376-0.048c-0.227-0.028-0.405-0.05-0.525-0.073c-0.122-0.023-0.186-0.033-0.186-0.033
		s-0.026-0.281-0.054-0.562C20.115,43.617,20.091,43.338,20.091,43.338z"/>
	<path opacity="0.75" d="M33.217,7.651c0,0-0.229-0.131-0.626-0.36c-0.205-0.104-0.453-0.231-0.737-0.377
		c-0.143-0.072-0.301-0.137-0.464-0.212c-0.164-0.072-0.333-0.157-0.517-0.229c-0.727-0.301-1.596-0.6-2.548-0.849
		c-0.952-0.243-1.991-0.412-3.039-0.5l-0.393-0.03l-0.195-0.015L24.5,5.075c-0.261-0.006-0.522-0.013-0.782-0.019
		c-0.259,0.006-0.516,0.013-0.771,0.02c-0.127,0-0.252,0.011-0.377,0.021c-0.125,0.009-0.25,0.019-0.372,0.028
		c-0.123,0.01-0.245,0.019-0.365,0.028c-0.12,0.016-0.239,0.031-0.357,0.046c-0.117,0.015-0.233,0.03-0.348,0.044
		s-0.229,0.027-0.339,0.05c-0.222,0.04-0.438,0.078-0.646,0.115c-0.105,0.017-0.207,0.04-0.306,0.064
		c-0.101,0.023-0.198,0.045-0.294,0.067c-0.096,0.022-0.189,0.043-0.281,0.064c-0.092,0.02-0.181,0.042-0.267,0.068
		c-0.172,0.049-0.335,0.095-0.49,0.139c-0.31,0.08-0.569,0.182-0.788,0.251c-0.218,0.073-0.389,0.13-0.501,0.179
		c-0.115,0.045-0.175,0.069-0.175,0.069l-0.157-0.405c0,0,0.062-0.025,0.179-0.071c0.115-0.05,0.291-0.108,0.513-0.182
		c0.224-0.072,0.491-0.176,0.807-0.258c0.158-0.045,0.325-0.093,0.501-0.143c0.087-0.027,0.179-0.049,0.273-0.069
		c0.094-0.021,0.19-0.043,0.289-0.065c0.098-0.023,0.197-0.046,0.301-0.07C19.847,5.023,19.952,5,20.059,4.983
		c0.213-0.038,0.435-0.078,0.662-0.119c0.113-0.023,0.229-0.037,0.347-0.051c0.117-0.015,0.236-0.03,0.356-0.045
		c0.121-0.016,0.242-0.031,0.366-0.047c0.123-0.01,0.248-0.02,0.373-0.029c0.126-0.01,0.252-0.02,0.381-0.029
		c0.128-0.011,0.256-0.022,0.386-0.022c0.259-0.007,0.522-0.014,0.788-0.02c0.266,0.006,0.532,0.012,0.8,0.019l0.202,0.005
		l0.201,0.015l0.402,0.031c1.073,0.089,2.135,0.264,3.111,0.512c0.975,0.255,1.864,0.562,2.608,0.87
		c0.188,0.072,0.359,0.16,0.529,0.233c0.165,0.077,0.327,0.144,0.473,0.218c0.291,0.149,0.546,0.278,0.754,0.386
		c0.408,0.234,0.642,0.368,0.642,0.368L33.217,7.651z"/>
	<path d="M15.101,7.195c0,0,0.296-0.152,0.593-0.304c0.303-0.137,0.606-0.274,0.606-0.274l-0.174-0.397c0,0-0.31,0.141-0.621,0.281
		c-0.303,0.155-0.608,0.311-0.608,0.311L15.101,7.195z"/>
	<path d="M9.411,6.612c0,0-0.302,0.262-0.604,0.524c-0.29,0.275-0.579,0.551-0.579,0.551s0.261,0.498,0.538,0.988
		c0.28,0.494,0.57,0.974,0.57,0.974s0.061-0.064,0.155-0.163c0.091-0.101,0.228-0.22,0.357-0.345c0.129-0.125,0.26-0.25,0.358-0.343
		c0.049-0.048,0.093-0.083,0.123-0.109c0.029-0.026,0.047-0.041,0.047-0.041S10.121,8.15,9.881,7.64
		C9.639,7.132,9.411,6.612,9.411,6.612z"/>
	<path d="M11.189,5.255c0,0-0.326,0.231-0.651,0.463c-0.163,0.115-0.316,0.245-0.436,0.335C9.984,6.146,9.906,6.208,9.906,6.208
		s0.211,0.524,0.436,1.037c0.111,0.255,0.23,0.516,0.319,0.707c0.089,0.192,0.149,0.319,0.149,0.319s0.068-0.059,0.17-0.148
		c0.106-0.083,0.249-0.195,0.389-0.307c0.143-0.111,0.285-0.223,0.392-0.306c0.11-0.079,0.184-0.13,0.184-0.13
		s-0.202-0.521-0.391-1.053C11.365,5.795,11.189,5.255,11.189,5.255z"/>
	<path d="M29.521,2.126c0,0-0.065-0.019-0.189-0.054C29.205,2.043,29.021,2,28.788,1.945c-0.235-0.051-0.518-0.128-0.85-0.18
		c-0.165-0.03-0.34-0.061-0.524-0.094c-0.093-0.016-0.188-0.033-0.285-0.05c-0.098-0.012-0.198-0.025-0.3-0.038
		c-0.204-0.026-0.418-0.053-0.638-0.081c-0.056-0.007-0.111-0.014-0.168-0.021c-0.055-0.004-0.112-0.008-0.17-0.012
		c-0.114-0.009-0.229-0.018-0.347-0.027c-0.236-0.015-0.478-0.042-0.725-0.049c-0.248-0.006-0.501-0.013-0.759-0.019
		c-0.257-0.013-0.519,0-0.784,0.006c-0.133,0.003-0.266,0.007-0.4,0.01c-0.134,0.002-0.269,0.006-0.404,0.019
		c-0.27,0.021-0.542,0.042-0.814,0.062c-0.137,0.007-0.273,0.027-0.409,0.044l-0.409,0.052l-0.409,0.052
		c-0.136,0.021-0.271,0.047-0.406,0.07c-0.269,0.05-0.539,0.092-0.803,0.148c-0.264,0.061-0.525,0.121-0.784,0.181
		c-0.064,0.015-0.128,0.03-0.192,0.044c-0.063,0.018-0.127,0.036-0.189,0.053c-0.126,0.036-0.251,0.072-0.375,0.107
		c-0.499,0.13-0.967,0.302-1.416,0.452c-0.224,0.074-0.435,0.167-0.642,0.246c-0.206,0.083-0.408,0.155-0.596,0.241
		c-0.188,0.085-0.369,0.166-0.539,0.243c-0.171,0.079-0.335,0.147-0.484,0.227c-0.297,0.153-0.558,0.286-0.771,0.396
		c-0.211,0.116-0.373,0.212-0.485,0.276C12.6,4.367,12.54,4.401,12.54,4.401s0.135,0.548,0.284,1.088
		c0.074,0.269,0.155,0.543,0.215,0.745c0.062,0.203,0.103,0.337,0.103,0.337s0.052-0.034,0.15-0.097
		c0.097-0.063,0.247-0.144,0.434-0.253c0.19-0.105,0.413-0.249,0.685-0.38c0.135-0.068,0.277-0.142,0.428-0.219
		c0.077-0.038,0.153-0.08,0.233-0.118c0.081-0.036,0.164-0.074,0.248-0.112c0.169-0.077,0.346-0.157,0.529-0.24
		c0.183-0.082,0.379-0.151,0.576-0.232c0.392-0.166,0.822-0.299,1.261-0.451c0.22-0.074,0.451-0.13,0.68-0.198
		c0.114-0.033,0.229-0.066,0.345-0.099c0.118-0.029,0.236-0.055,0.356-0.083c0.238-0.052,0.476-0.115,0.719-0.162
		c0.244-0.043,0.487-0.086,0.731-0.13L20.7,3.766l0.186-0.023c0.123-0.016,0.246-0.032,0.368-0.046
		c0.123-0.016,0.244-0.032,0.367-0.047c0.121-0.018,0.244-0.021,0.366-0.032c0.243-0.019,0.485-0.037,0.724-0.056
		c0.239-0.006,0.476-0.012,0.708-0.018c0.116-0.003,0.232-0.006,0.347-0.009c0.114,0.003,0.227,0.006,0.339,0.009
		c0.224,0.006,0.443,0.011,0.656,0.017c0.213,0.016,0.419,0.031,0.62,0.046c0.199,0.018,0.394,0.022,0.577,0.051
		c0.186,0.023,0.362,0.046,0.53,0.067c0.168,0.022,0.328,0.038,0.477,0.068c0.297,0.053,0.558,0.1,0.77,0.138
		c0.214,0.042,0.378,0.085,0.492,0.11C28.339,4.069,28.4,4.083,28.4,4.083s0.264-0.496,0.545-0.987
		c0.141-0.248,0.284-0.489,0.393-0.669C29.448,2.247,29.521,2.126,29.521,2.126z"/>
	<path opacity="0.5" d="M16.914,47.039c0,0,0.147,0.042,0.425,0.12c0.275,0.086,0.689,0.175,1.213,0.297
		c1.051,0.224,2.572,0.487,4.413,0.541c0.229,0.006,0.463,0.012,0.703,0.018c0.239,0.003,0.482-0.009,0.73-0.014
		c0.125-0.004,0.249-0.006,0.375-0.01c0.125-0.002,0.253-0.005,0.381-0.017c0.255-0.021,0.515-0.039,0.778-0.06
		c0.132-0.012,0.264-0.017,0.396-0.034c0.134-0.018,0.267-0.033,0.4-0.051c0.27-0.035,0.542-0.065,0.815-0.108
		c0.546-0.1,1.106-0.184,1.666-0.324c0.14-0.033,0.281-0.065,0.423-0.099l0.211-0.049l0.212-0.06
		c0.281-0.08,0.565-0.161,0.851-0.241c0.284-0.086,0.565-0.187,0.85-0.281c0.142-0.049,0.284-0.096,0.426-0.147
		c0.141-0.055,0.28-0.11,0.422-0.166c0.141-0.056,0.281-0.11,0.423-0.166l0.211-0.084l0.209-0.093
		c0.277-0.126,0.557-0.252,0.835-0.378c0.546-0.276,1.099-0.546,1.625-0.861c0.268-0.153,0.535-0.304,0.791-0.474
		c0.258-0.167,0.519-0.328,0.771-0.499c0.249-0.178,0.498-0.354,0.745-0.531c0.127-0.085,0.245-0.181,0.364-0.273
		c0.119-0.094,0.239-0.188,0.356-0.281c0.943-0.754,1.828-1.555,2.608-2.401c0.099-0.104,0.198-0.209,0.295-0.313
		c0.094-0.106,0.187-0.214,0.279-0.32c0.185-0.215,0.373-0.423,0.546-0.639c0.343-0.436,0.683-0.857,0.981-1.293
		c0.076-0.108,0.152-0.214,0.228-0.32c0.076-0.105,0.149-0.212,0.218-0.32c0.139-0.217,0.274-0.429,0.408-0.639
		c0.138-0.206,0.255-0.421,0.375-0.628c0.119-0.208,0.236-0.412,0.351-0.611c0.104-0.205,0.208-0.406,0.309-0.603
		c0.051-0.098,0.1-0.194,0.149-0.291c0.023-0.048,0.049-0.095,0.072-0.143c0.022-0.048,0.043-0.097,0.065-0.145
		c0.087-0.191,0.171-0.378,0.253-0.559c0.08-0.183,0.166-0.356,0.232-0.532c0.136-0.349,0.264-0.675,0.382-0.977
		c0.104-0.307,0.2-0.589,0.286-0.844c0.091-0.253,0.152-0.485,0.211-0.687c0.057-0.201,0.105-0.372,0.146-0.51
		c0.038-0.14,0.069-0.245,0.084-0.317c0.018-0.073,0.026-0.11,0.026-0.11l0.421,0.105c0,0-0.009,0.037-0.026,0.11
		c-0.016,0.075-0.048,0.183-0.087,0.323c-0.04,0.142-0.089,0.316-0.147,0.521s-0.121,0.44-0.213,0.698
		c-0.089,0.259-0.186,0.546-0.291,0.858c-0.122,0.308-0.252,0.641-0.392,0.994c-0.066,0.181-0.154,0.355-0.235,0.542
		c-0.082,0.184-0.169,0.374-0.257,0.569c-0.022,0.048-0.045,0.097-0.066,0.146c-0.025,0.048-0.051,0.097-0.075,0.146
		c-0.049,0.097-0.1,0.195-0.151,0.296c-0.102,0.199-0.207,0.404-0.314,0.612c-0.116,0.204-0.235,0.412-0.355,0.623
		c-0.123,0.211-0.242,0.43-0.383,0.64c-0.137,0.214-0.274,0.43-0.415,0.649c-0.069,0.11-0.145,0.219-0.222,0.326
		s-0.154,0.217-0.231,0.326c-0.304,0.442-0.651,0.872-0.999,1.315c-0.176,0.221-0.367,0.432-0.555,0.649
		c-0.094,0.109-0.188,0.218-0.284,0.328c-0.1,0.105-0.2,0.211-0.301,0.317c-0.795,0.86-1.694,1.677-2.654,2.443
		c-0.12,0.096-0.241,0.191-0.363,0.285c-0.121,0.096-0.242,0.192-0.369,0.28c-0.253,0.181-0.506,0.359-0.76,0.54
		c-0.258,0.175-0.523,0.34-0.785,0.509c-0.26,0.172-0.533,0.325-0.804,0.481c-0.537,0.321-1.1,0.596-1.655,0.877
		c-0.284,0.129-0.567,0.257-0.85,0.384l-0.212,0.095l-0.216,0.085c-0.145,0.058-0.288,0.114-0.432,0.171
		c-0.143,0.056-0.286,0.112-0.429,0.168c-0.145,0.054-0.289,0.101-0.433,0.149c-0.291,0.097-0.576,0.2-0.865,0.286
		c-0.29,0.083-0.579,0.165-0.866,0.247l-0.214,0.059l-0.216,0.051c-0.145,0.035-0.288,0.067-0.431,0.1
		c-0.57,0.144-1.141,0.229-1.695,0.331c-0.278,0.044-0.557,0.074-0.83,0.11c-0.137,0.017-0.271,0.034-0.407,0.051
		c-0.135,0.019-0.27,0.023-0.403,0.036c-0.269,0.02-0.533,0.04-0.792,0.061c-0.13,0.011-0.259,0.014-0.388,0.017
		c-0.128,0.004-0.255,0.007-0.382,0.01c-0.251,0.006-0.5,0.018-0.743,0.015c-0.243-0.006-0.482-0.013-0.716-0.018
		c-1.872-0.057-3.421-0.324-4.49-0.552c-0.534-0.124-0.955-0.215-1.235-0.302c-0.282-0.08-0.433-0.122-0.433-0.122L16.914,47.039z"
		/>
	<path d="M46.347,32.848c0,0,0.08-0.204,0.201-0.511c0.128-0.304,0.262-0.722,0.403-1.138c0.035-0.104,0.07-0.208,0.105-0.31
		c0.031-0.104,0.059-0.207,0.088-0.306c0.056-0.198,0.107-0.383,0.153-0.541c0.043-0.159,0.084-0.29,0.106-0.384
		c0.021-0.094,0.034-0.146,0.034-0.146l0.421,0.105c0,0-0.013,0.054-0.035,0.148c-0.021,0.096-0.062,0.229-0.107,0.391
		c-0.046,0.161-0.1,0.35-0.156,0.551c-0.03,0.101-0.058,0.204-0.091,0.311c-0.035,0.104-0.071,0.211-0.105,0.315
		c-0.145,0.423-0.281,0.85-0.411,1.158c-0.123,0.312-0.205,0.521-0.205,0.521L46.347,32.848z"/>
</g>
</svg>
