<?xml version="1.0" encoding="utf-8"?>
<!-- Generator: Adobe Illustrator 16.0.0, SVG Export Plug-In . SVG Version: 6.00 Build 0)  -->
<!DOCTYPE svg PUBLIC "-//W3C//DTD SVG 1.1//EN" "http://www.w3.org/Graphics/SVG/1.1/DTD/svg11.dtd">
<svg version="1.1" id="Layer_1" xmlns="http://www.w3.org/2000/svg" xmlns:xlink="http://www.w3.org/1999/xlink" x="0px" y="0px"
	 width="100px" height="100px" viewBox="-25 -25 100 100" enable-background="new -25 -25 100 100" xml:space="preserve">
<g>
	<path fill="#1E1E1E" d="M7.767,39.994c-0.129-0.715-0.436-1.449-0.358-2.143c0.443-3.994,0.719-8.033,1.545-11.953
		c1.064-5.047,3.401-9.659,6.396-13.831c1.443-2.009,3.509-3.578,5.325-5.312c2.438-2.328,5.271-3.993,8.545-4.854
		c2.441-0.642,4.886-0.654,7.319,0.09c2.091,0.639,2.939,2.382,3.589,4.2c1.032,2.887,0.916,5.541-1.057,8.224
		c-2.337,3.178-5.515,5.128-8.739,7.091c-3.711,2.258-7.581,4.272-11.183,6.69c-3.852,2.584-7.103,5.89-9.876,9.633
		c-0.522,0.705-1.028,1.423-1.537,2.139C7.741,39.973,7.767,39.994,7.767,39.994z"/>
	<path fill="#1E1E1E" d="M16.952,40.033c2.488-3.292,5.381-5.67,9.61-5.877c3.228-0.157,6.386,0.018,9.211,1.88
		c2.361,1.556,3.901,5.13,3.03,7.739c-0.323,0.969-1.146,1.916-1.987,2.541c-2.416,1.798-5.188,1.771-7.685,0.049
		c-1.993-1.375-3.888-2.898-5.899-4.247c-1.673-1.122-3.527-1.849-5.599-1.853C17.456,40.266,17.278,40.148,16.952,40.033z"/>
</g>
</svg>
