<?xml version="1.0" encoding="utf-8"?>
<!-- Generator: Adobe Illustrator 16.0.0, SVG Export Plug-In . SVG Version: 6.00 Build 0)  -->
<!DOCTYPE svg PUBLIC "-//W3C//DTD SVG 1.1//EN" "http://www.w3.org/Graphics/SVG/1.1/DTD/svg11.dtd">
<svg version="1.1" id="Layer_1" xmlns="http://www.w3.org/2000/svg" xmlns:xlink="http://www.w3.org/1999/xlink" x="0px" y="0px"
	 width="50px" height="50px" viewBox="0 0 50 50" enable-background="new 0 0 50 50" xml:space="preserve">
<g>
	<path fill-rule="evenodd" clip-rule="evenodd" fill="#808080" d="M12.684,23.803c0.01-0.046-0.02-0.05-0.051-0.053
		C12.622,23.795,12.653,23.8,12.684,23.803c0.861,0.812,2.025,1.323,3.453,1.57c-1.854,0.057-3.352-0.692-4.5-1.518
		c0.216,0.555,1.113,0.874,1.78,1.152c-1.561-0.116-2.78-1.022-3.924-1.727c0.705,0.883,1.751,1.423,2.982,1.779
		c-0.323,0.146-0.902-0.179-1.204-0.052c0.702,0.43,2.017,0.248,2.983,0.417c-1.113,0.269-2.597,0.341-3.715,0.054
		c1.414,0.927,3.732-0.187,5.44,0.208c-0.578,0.24-1.276,0.364-1.831,0.629c1.034,0.021,1.942-0.536,3.139-0.524
		c-0.868,0.475-1.857,0.829-2.928,1.098c1.847,0.018,2.918-1.196,4.915-1.204c-1.908,0.586-3.23,1.758-5.492,1.989
		c3.488-0.053,5.394-2.593,9.731-2.145c-3.064,0.283-5.202,1.497-7.692,2.354c2.455-0.248,4.051-1.811,6.854-1.884
		c-2.531,0.748-4.889,1.667-7.217,2.619c-1.284,0.246-2.722,0.041-3.454-0.578c0.418-0.174,0.849-0.336,0.89-0.889
		c-0.025-0.355-0.597-0.271-0.89-0.209c-1.292,0.021-2.067-0.48-2.72-1.098c-0.108-0.275-0.333-0.434-0.419-0.732
		c0.218,0.107,0.492,0.02,0.628-0.104c0.013-0.041,0.002-0.104,0.051-0.105c-0.136-1.065-1.234-1.171-1.307-2.301
		c0.021-0.713-0.083-1.55,0.419-1.78c0.327,1.145,1.495,2.483,2.877,1.884c-0.036-0.382-0.285-0.553-0.575-0.681
		c2.017-0.687,2.517,2.313,4.185,1.464c0.122-0.522-0.375-0.706-0.419-0.887c1.958-0.04,3.247,1.042,4.762,1.621
		c-0.501,0.013-1.098-0.333-1.623-0.472c0.457,0.572,1.698,0.814,2.616,1.1c-1.411-0.019-2.664-0.649-3.976-0.941
		c0.78,0.598,2.313,0.895,3.558,1.203c-2.112,0.322-4.012-0.397-5.494-1.046c0.376,0.392,0.947,0.586,1.516,0.785
		c0.509,0.26,1.183,0.352,1.833,0.471c0.518-0.037,0.518,0.088,0,0.053c-2.17-0.045-3.677-0.75-5.128-1.518
		c-0.002-0.032-0.007-0.062-0.052-0.052C12.717,23.803,12.701,23.803,12.684,23.803z M9.021,23.646
		c-0.032-0.491-0.58-1.142-0.523-1.727C8.219,22.595,8.737,23.204,9.021,23.646z M12.003,22.182c0,0.017,0,0.034,0,0.052
		c0.281,0.172,0.54,0.367,0.837,0.522c0.033,0.077,0.064-0.006,0,0C12.637,22.49,12.354,22.303,12.003,22.182
		C11.972,22.105,11.94,22.186,12.003,22.182z M11.376,23.122c0.176,0.138,0.417-0.009,0.524-0.104
		c-0.002-0.155,0.003-0.318-0.158-0.313C11.844,23.067,11.513,22.997,11.376,23.122z M9.284,22.808c0,0.036,0,0.071,0,0.104
		c0.052,0,0.104,0,0.156,0c0-0.051,0-0.104,0-0.156c-0.033,0-0.069,0-0.104,0C9.333,22.789,9.327,22.818,9.284,22.808z
		 M17.655,23.593c-0.615-0.292-1.193-0.621-1.938-0.785C16.187,23.183,17.137,23.615,17.655,23.593z M11.901,23.332
		c0.199,0.079,0.379-0.302,0.156-0.313C12.034,23.154,11.901,23.175,11.901,23.332z M13.887,23.75c0.035,0,0.071,0,0.106,0
		c0-0.052,0-0.104,0-0.156c-0.054,0-0.106,0-0.157,0C13.832,23.665,13.859,23.708,13.887,23.75z M14.882,23.959
		c0.222,0.223,0.675-0.229,0.364-0.366C15.22,23.81,15.068,23.903,14.882,23.959z M15.404,24.064
		c0.078,0.078,0.271,0.005,0.261-0.157C15.543,23.925,15.44,23.961,15.404,24.064z M15.927,24.17c0.047-0.094,0.176-0.164,0-0.211
		C15.913,23.992,15.798,24.162,15.927,24.17z M9.808,25.007c0.307,0.09,0.359-0.455,0.105-0.471
		C9.963,24.779,9.844,24.852,9.808,25.007z M10.226,24.901c0.19,0.051,0.111-0.292,0-0.262
		C10.194,24.808,10.324,24.801,10.226,24.901z M10.539,24.797C10.6,25.003,10.6,24.589,10.539,24.797L10.539,24.797z M12.161,26.471
		c-1.145,0.012-1.83-0.438-2.512-0.889C10.057,26.273,11.013,26.695,12.161,26.471z M13.155,26.576
		c0.207-0.014,0.16,0.223,0.364,0.209C13.579,26.547,13.199,26.391,13.155,26.576z M13.259,26.994
		c0.002-0.16-0.229-0.359-0.366-0.209C13.11,26.762,13.089,26.973,13.259,26.994z M12.736,28.145
		c0.537,0.465,1.881,0.357,2.407-0.053C14.476,28.359,13.156,28.186,12.736,28.145z"/>
	<path fill-rule="evenodd" clip-rule="evenodd" fill="#808080" d="M28.17,32.643c-0.045-0.008-0.049,0.021-0.053,0.053
		C28.16,32.705,28.165,32.676,28.17,32.643c0.501-0.314,0.825-0.812,1.255-1.203c-0.22,0.896-1.349,1.338-1.569,2.406
		c0.52-0.387,0.63-1.184,1.254-1.463c-0.338,1.369-0.509,2.906-1.621,3.504c0.59,0.029,0.75-0.367,1.1-0.574
		c0.184,1.16,0.554,2.207-0.157,3.033c0.466-0.092,0.632-0.484,0.786-0.889c0.575,1.01,1.386,1.785,2.876,1.883
		c-2.137-0.615-3.586-2.744-3.035-5.387c0.35,1.689,2.19,1.891,3.767,2.354c-1.344-0.924-3.689-0.846-3.661-3.139
		c0.125-0.486,0.245-0.977,0.523-1.309c0.085,0.906,0.572,1.414,1.098,1.883c-0.256-0.615-1.049-1.148-0.941-2.303
		c0.396-0.877,1.085-1.461,1.673-2.145c0.682-0.314,1.32-0.668,2.041-0.941c0.82-0.068,1.6-0.18,2.407-0.262c0.295,0,0.592,0,0.89,0
		c0.286,0.055-0.206,0.062-0.315,0.053c-0.21,0.053-0.457,0.064-0.73,0.053c-0.705,0.098-1.436,0.17-1.988,0.42
		c1.283-0.076,3.191-0.432,4.551,0c-1.477,0.195-2.895,0.453-3.924,1.098c0.073-0.451,0.53-0.518,0.733-0.836
		c-1.011-0.02-0.937,1.504-1.833,1.777c0.012-0.514,0.311-0.736,0.421-1.152c-0.718,0.174-0.553,1.682-1.047,2.25
		c-0.043-0.443-0.139-1.16,0.053-1.518c-0.282-0.123-0.314,0.408-0.366,0.682c0.128,1.404,0.463,2.605,1.779,2.824
		c-0.469,0.969-2.107,0.441-2.199-0.471c-1.568,1.23,0.771,2.414,1.569,2.877c0.169,0.506,0.22,0.959,0.159,1.465
		c-0.178-0.744-2.053-1.117-2.356-0.209c0.178,2.072,3.479,1.023,3.82,2.93c-1.739-0.457-4.949,0.467-5.65-1.568
		c-0.94,0.709-2.953,0.811-3.4-0.42c0.701,0.232,1.893,0.059,1.937-0.836c0.052-1.469-2.146-0.68-2.198-2.041
		c0.232,0.148,1.606,0.562,1.464-0.523c-0.111-0.586-0.683-0.711-0.836-1.254c0.118-1.785,1.507-2.297,2.614-3.088
		c-0.91-0.021-1.61,0.898-2.145,1.256c-0.047-1.705,1.537-1.777,2.513-2.459c-0.698-0.018-1.412,0.402-1.936,0.732
		c0.622-0.93,1.887-1.215,3.033-1.621c-0.761-0.115-1.436,0.307-2.04,0.521c1.155-0.797,2.718-1.188,4.498-1.359
		c-0.538,0.352-1.322,0.455-1.778,0.889c1.944-0.738,5.125-1.707,7.376-0.576c-3.779-0.803-7.649,0.43-8.944,3.09
		c-0.726,0.283-1.084,0.939-1.517,1.514C28.17,32.609,28.17,32.627,28.17,32.643z M30.262,29.924
		c0.287-0.445,0.61-0.857,0.993-1.203C30.609,28.771,30.351,29.49,30.262,29.924z M30.784,32.59
		c0.063-1.887,1.365-2.818,2.354-3.607C31.733,29.529,30.677,30.705,30.784,32.59z M31.15,34.842
		c-0.892-0.346-1.4-1.076-1.569-2.146C29.368,33.906,30.237,34.758,31.15,34.842z"/>
</g>
<g>
	<path fill-rule="evenodd" clip-rule="evenodd" fill="#1A1A1A" d="M25.082,19.461c0.615,0.236,0.021,1.229-0.576,0.889
		c0.107-0.209,0.461-0.168,0.576-0.366C25.137,19.771,25.068,19.736,25.082,19.461z"/>
	<path fill-rule="evenodd" clip-rule="evenodd" fill="#1A1A1A" d="M25.501,19.776c0.053,0,0.104,0,0.157,0
		c0.103,0.33,0.086,0.803-0.366,0.731C25.452,20.299,25.523,20.035,25.501,19.776z"/>
	<path fill-rule="evenodd" clip-rule="evenodd" fill="#1A1A1A" d="M25.972,20.089c0.165-0.025,0.204,0.074,0.313,0.104
		c0.038,0.353-0.057,0.57-0.418,0.523C25.891,20.478,26.14,20.366,25.972,20.089z"/>
	<path fill-rule="evenodd" clip-rule="evenodd" fill="#1A1A1A" d="M26.652,20.455c0.125,0.141,0.008,0.356-0.105,0.417
		C26.36,20.833,26.46,20.434,26.652,20.455z"/>
	<path fill-rule="evenodd" clip-rule="evenodd" fill="#1A1A1A" d="M27.02,20.664c0.053,0,0.104,0,0.154,0
		c0.023,0.177-0.014,0.297-0.209,0.261C26.951,20.804,26.974,20.724,27.02,20.664z"/>
	<path fill-rule="evenodd" clip-rule="evenodd" fill="#1A1A1A" d="M27.385,20.872c0.063,0.023,0.106,0.068,0.104,0.158
		C27.307,21.076,27.311,20.95,27.385,20.872z"/>
	<path fill-rule="evenodd" clip-rule="evenodd" fill="#1A1A1A" d="M27.542,26.104c0.068,0,0.138,0,0.209,0
		c0.016,0.121-0.009,0.201-0.051,0.262C27.534,26.391,27.531,26.254,27.542,26.104z"/>
	<path fill-rule="evenodd" clip-rule="evenodd" fill="#1A1A1A" d="M26.912,26.156c0.135,0.008,0.205,0.076,0.211,0.209
		c-0.047,0.041-0.119,0.057-0.211,0.055C26.846,26.35,26.846,26.225,26.912,26.156z"/>
	<path fill-rule="evenodd" clip-rule="evenodd" fill="#1A1A1A" d="M26.6,26.262c0.006,0.094-0.063,0.109-0.053,0.209
		c-0.195,0.039-0.255-0.059-0.262-0.209C26.352,26.189,26.534,26.189,26.6,26.262z"/>
	<path fill-rule="evenodd" clip-rule="evenodd" fill="#1A1A1A" d="M25.71,26.262c0.086,0,0.174,0,0.261,0
		c0.009,0.131,0.01,0.254-0.104,0.262C25.703,26.547,25.701,26.41,25.71,26.262z"/>
	<path fill-rule="evenodd" clip-rule="evenodd" fill="#1A1A1A" d="M25.448,26.42c0.026,0.162-0.044,0.232-0.208,0.207
		C25.076,26.482,25.305,26.254,25.448,26.42z"/>
	<path fill-rule="evenodd" clip-rule="evenodd" fill="#1A1A1A" d="M24.246,26.471c0.215-0.051,0.249,0.215,0.155,0.314
		C24.225,26.797,24.132,26.59,24.246,26.471z"/>
	<path fill-rule="evenodd" clip-rule="evenodd" fill="#1A1A1A" d="M24.664,26.471c0.07,0,0.139,0,0.21,0c0,0.07,0,0.139,0,0.209
		C24.694,26.721,24.624,26.65,24.664,26.471z"/>
	<path fill-rule="evenodd" clip-rule="evenodd" fill="#1A1A1A" d="M23.67,26.523c0.265-0.084,0.364,0.352,0.157,0.418
		C23.663,26.916,23.566,26.652,23.67,26.523z"/>
	<path fill-rule="evenodd" clip-rule="evenodd" fill="#1A1A1A" d="M23.043,26.627c0.268-0.004,0.322,0.201,0.312,0.473
		c-0.123,0.016-0.096,0.182-0.261,0.156C23.049,27.084,22.956,26.764,23.043,26.627z"/>
	<path fill-rule="evenodd" clip-rule="evenodd" fill="#1A1A1A" d="M22.205,26.785c0.035,0,0.071,0,0.104,0
		c0.337,0.051,0.37,0.758-0.104,0.68C22.266,27.188,22.097,26.945,22.205,26.785z"/>
	<path fill-rule="evenodd" clip-rule="evenodd" fill="#1A1A1A" d="M21.629,26.994c0.25,0.201,0.281,0.752-0.104,0.836
		c-0.015-0.334-0.151-0.545-0.262-0.783C21.33,26.973,21.491,26.994,21.629,26.994z"/>
	<path fill-rule="evenodd" clip-rule="evenodd" fill="#1A1A1A" d="M20.742,28.039c-0.008-0.357-0.278-0.455-0.474-0.625
		C20.52,26.789,21.448,27.842,20.742,28.039z"/>
	<path fill-rule="evenodd" clip-rule="evenodd" fill="#1A1A1A" d="M20.217,27.883c-0.076,0.203-0.023,0.535-0.261,0.576
		c-0.087-0.385-0.396-0.547-0.576-0.838C19.716,27.459,20.12,27.639,20.217,27.883z"/>
	<path fill-rule="evenodd" clip-rule="evenodd" fill="#1A1A1A" d="M19.12,29.033c-0.097-0.355-0.383-0.697-0.628-1.047
		C19.218,27.584,19.623,28.682,19.12,29.033z"/>
	<path fill-rule="evenodd" clip-rule="evenodd" fill="#1A1A1A" d="M17.863,28.197c0.729-0.064,0.752,1.291,0.156,1.412
		c0.155-0.672-0.116-0.881-0.522-1.098C17.541,28.328,17.706,28.266,17.863,28.197z"/>
	<path fill-rule="evenodd" clip-rule="evenodd" fill="#1A1A1A" d="M16.451,28.721c0.209,0,0.419,0,0.627,0
		c0.537,0.186,0.651,1.295,0.053,1.516C17.455,29.338,16.683,29.221,16.451,28.721z"/>
</g>
<g>
	<path fill-rule="evenodd" clip-rule="evenodd" fill="#CCCCCC" d="M29.109,28.197c-2.018,0.924-4.589,2.57-3.661,5.441
		c-1.371-1.068-1.649,1.066-0.836,1.83c-0.623,0.332-0.957-0.451-1.36-0.68c-0.874,0.98,0.027,2.836,1.413,2.721
		c-0.247,0.293-0.934,0.232-1.255,0.051c-0.07,0.158,0.301,0.324,0.627,0.262c-0.502,0.312-1.003-0.24-1.255-0.521
		c0.007,0.342,0.217,0.479,0.471,0.574c-0.726,0.168-0.933-0.637-1.203-1.1c-0.952,0.486-0.782,2.414,0.157,2.775
		c-0.086,0.262-0.32,0.375-0.367,0.678c-1.433-0.627-2.312-2.074-2.145-4.133c0.072,1.656,0.704,2.75,1.728,3.455
		c-1.269-0.928-1.94-3.691-0.839-5.338c-0.028,0.494-0.33,0.715-0.314,1.256c0.104-0.088,0.143-0.244,0.158-0.42
		c0.177,0.227,0.101,0.701,0.157,1.047c0.062-1.453,0.402-2.633,1.203-3.348c-0.08,0.426-0.271,0.742-0.312,1.205
		c-0.078,0.029,0.003,0.061,0,0c0.508-1.305,1.216-2.41,2.3-3.139c-0.399,0.662-0.896,1.232-1.151,2.037
		c0.977-1.549,2.165-3.344,4.08-4.131c-1.543,1.373-3.365,3.008-3.085,5.857c0.233-3.254,1.906-5.066,4.288-6.172
		c-0.425,0.344-0.967,0.566-1.359,0.943C27.406,29.178,28.117,28.408,29.109,28.197z M24.716,32.643
		c0.328-1.188,0.835-2.199,1.569-2.98C25.296,30.154,24.75,31.369,24.716,32.643z M22.257,35.521c-0.18-0.789,0.203-1.75,0.105-2.25
		C22.119,33.777,21.948,34.955,22.257,35.521z M22.886,33.846c0.092,0.047,0.152,0.168,0.262,0.055
		C23.197,33.707,22.891,33.691,22.886,33.846z M22.886,34.369c0.188,0.016,0.361,0.014,0.313-0.207
		C23.034,34.17,22.886,34.197,22.886,34.369z M22.886,34.684c0.139,0,0.279,0,0.418,0C23.382,34.355,22.83,34.438,22.886,34.684z
		 M23.67,34.684C23.73,34.891,23.73,34.477,23.67,34.684L23.67,34.684z M21.368,35.049c0,0.035,0,0.07,0,0.105
		c0.033,0.004,0.062,0.008,0.054,0.053c0.033,0,0.068,0,0.104,0c0.003-0.031,0.008-0.062,0.052-0.053c0-0.035,0-0.07,0-0.105
		c-0.032-0.002-0.063-0.006-0.052-0.051c-0.036,0-0.071,0-0.104,0C21.417,35.029,21.414,35.061,21.368,35.049z M21.316,35.627
		c0.117-0.041,0.408,0.092,0.365-0.105C21.605,35.361,21.311,35.418,21.316,35.627z M22.257,35.627
		C22.291,35.66,22.235,35.604,22.257,35.627L22.257,35.627z M21.421,35.939c0.044,0.109,0.363,0.055,0.417,0
		C21.886,35.695,21.388,35.742,21.421,35.939z M21.107,38.451c-0.412-0.654-0.639-1.49-0.787-2.406
		C20.147,37.074,20.554,37.973,21.107,38.451z M21.316,36.307c0.209,0.133,0.417-0.047,0.628,0.051
		C22.013,36.006,21.34,36.127,21.316,36.307z M21.368,36.775c0.192,0.084,0.451-0.16,0.733-0.156
		C21.993,36.268,21.406,36.559,21.368,36.775z"/>
	<path fill-rule="evenodd" clip-rule="evenodd" fill="#CCCCCC" d="M19.12,36.619c0.229,1.953,0.912,3.447,2.719,3.818
		c-0.111,0.584,0.388,0.834,0.419,1.1C19.725,41.676,18.429,39.197,19.12,36.619z"/>
</g>
<g>
	<path fill-rule="evenodd" clip-rule="evenodd" fill="#4D4D4D" d="M26.859,13.654c-0.109-0.255-0.174-0.558-0.417-0.682
		c-1.562,0.092-3.471,0.01-4.291,1.1c-0.076,0.031,0.007,0.064,0,0c0.879-0.412,1.676-0.906,3.036-0.836
		c-0.836,0.611-2.469,0.424-3.036,1.306c0.547-0.186,1.257-0.661,2.094-0.731c-0.369,0.572-2.182,0.608-2.408,1.674
		c0.496-0.568,1.199-0.929,2.041-1.151c-0.003,0.102-0.138,0.522-0.261,0.68c-0.293-0.042-0.444-0.12-0.732-0.053
		c-2.021,1.056-1,5.12,1.203,5.18c0.387-0.048,0.641-0.23,0.786-0.524c0.138-1.341-1.513-0.893-1.413-2.196
		c0.178-0.023,0.34,0.381,0.68,0.368c0.177-0.051,0.321-0.134,0.366-0.316c-0.558-0.657-0.764-1.964,0.368-2.146
		c-0.43,0.371-0.106,1.119,0.366,1.204c0.666-0.568,1.514-1.405,2.877-0.941c-0.455,0.14-0.994,0.19-1.152,0.627
		c-0.049,1.095,1.271-0.047,1.623,0.574c-0.846,0.026-1.243,0.502-1.516,1.101c0.047,1.135,0.936,1.432,1.463,2.092
		c3.851,2.531,9.413,3.351,12.502,6.643c0.253,0.463,0.719,0.715,0.942,1.203c-1.002-0.811-1.78-1.845-3.087-2.353
		c0.01-0.045-0.02-0.049-0.051-0.054c0.009-0.044-0.021-0.048-0.053-0.051c-0.033-0.076-0.065,0.005,0,0
		c-0.011,0.044,0.021,0.049,0.053,0.051c-0.011,0.046,0.02,0.051,0.051,0.054c1.448,1.203,2.967,2.333,4.028,3.923
		c-1.176-1.195-2.373-2.369-3.976-3.139c1.011,0.977,2.707,1.723,3.506,3.088c-1.43-1.346-2.976-2.572-4.97-3.351
		c1.492,1.23,3.555,1.886,4.707,3.455c-1.272-1.098-2.745-1.998-4.446-2.668c0.448,0.545,1.227,0.762,1.882,1.098
		c-5.012-1.978-11.696-2.74-18.046-3.557c-2.722-0.4-3.544-2.701-5.599-3.768c0.767,0.387,1.765,0.537,2.459,0.995
		c-0.566-1.072-2.537-0.741-2.93-1.989c0.519,0.474,1.125,0.864,2.04,0.943c-0.716-0.521-1.809-0.668-2.091-1.623
		c0.374,0.241,0.8,0.694,1.359,0.577c-0.491-0.346-1.158-0.517-1.359-1.151c0.269,0.113,0.401,0.365,0.837,0.314
		c-0.709-0.321-1.032-1.026-1.519-1.571c0.607,0.128,1.315,0.604,1.884,0.942c-0.578-1.008-2.534-1.093-2.878-2.51
		c0.518,0.616,1.236,1.031,2.093,1.306c-0.709-0.738-2.08-0.814-2.093-2.249c0.29,0.652,0.69,1.195,1.517,1.309
		c-0.886-0.245-1.807-1.907-0.783-2.511c-0.342,1.911,1.916,1.222,2.406,2.302c0.02-0.492-0.346-0.597-0.627-0.786
		c0.549,0.009,0.985,0.584,1.202,1.1c0.263-0.324-0.204-0.755-0.418-0.943c0.331,0.02,0.651,0.5,0.993,0.681
		c0.317-0.82-0.776-1.094-0.731-1.988c0.136,0.388,0.399,0.647,0.731,0.836c-0.1-0.405-0.643-0.82-0.731-1.412
		c0.201,0.167,0.288,0.445,0.627,0.471c-0.027-0.261-0.678-0.539-0.522-0.994c0.097-0.23,0.261,0.314,0.522,0.262
		c-0.614-0.729-0.669-2.467-2.509-2.145c1.478-0.557,2.688,0.286,2.929,1.465c-0.051,0.452,0.118,0.683,0.313,0.89
		c0.711,0.215,1.224-0.152,1.413-0.628c0.05-0.957-0.687-1.126-1.047-1.673c0.246-0.036,0.648,0.223,1.047,0.208
		c-0.424-0.376-1.459-0.599-1.832-1.202c0.333,0.156,0.596,0.381,1.046,0.418c-0.539-0.453-1.272-0.714-1.568-1.412
		c0.187-0.158,0.42,0.513,0.836,0.471c-0.281-0.33-0.601-0.619-0.836-0.994c0.108-0.38,0.242-0.954,0.104-1.412
		c0.564,0.161,0.207,1.034,0.628,1.254c1.175-0.164,0.739-2.521-0.42-2.354c0.738-0.548,2.245,0.142,1.675,1.047
		c0.325,0.011,0.325-0.304,0.315-0.628c0.221,0.15,0.369,0.675,0.156,0.942c0.354,0.011,0.268-0.481,0.209-0.732
		c0.634,0.452,0.135,1.133,0.053,1.831c0.229,0.575,1.007,0.812,0.889,1.569c0.438-0.71-0.466-1.125-0.731-1.623
		c0.067-0.333,0.182-0.617,0.313-0.888c0.264,0.38,0.742,0.547,0.994,0.942c-0.013,0.161-0.055,0.294-0.106,0.417
		C22,8.756,22.091,8.459,22.101,8.265c-0.162-0.708-1.083-0.661-0.889-1.726c0.086,0.425,0.479,0.803,0.889,0.732
		c-0.42-0.207-0.842-0.575-0.626-1.256c0.148,0.199,0.086,0.609,0.47,0.576c-0.619-0.489,0.246-2.433-0.942-2.616
		c0.841-0.012,1.458,0.655,1.936,1.046c0.053,0.334-0.058,0.5-0.157,0.681c0.237,0.01,0.298-0.155,0.313-0.366
		c0.316,0.392-0.186,0.807-0.366,1.046c0.292,0.063,0.384-0.346,0.523-0.262c-0.12,1.113-0.039,2.109,0.995,2.196
		c-0.345,0.388-0.739,0.727-1.256,0.942c0.916,0.202,1.073-0.811,1.83-0.942c0.239,0.062-0.234,0.231-0.156,0.471
		c0.363-0.371,0.907-0.715,1.674-0.523c-0.552,0.145-1.16,0.235-1.046,1.046c0.291,0.887,1.97,0.065,2.459,0.732
		c0.016,0.524,0.299,0.782,0.261,1.361c-0.221-1.464-1.695-0.41-2.824-0.734c0.146,0.291,0.548,0.325,0.993,0.313
		c-0.206,0.32-0.638,0.41-1.15,0.42c0.114,0.213,0.628,0.076,0.837,0.052c-0.219,0.523-0.786,0.583-1.361,0.418
		C25.127,12.744,27.088,12.119,26.859,13.654z M18.962,8.422c0.372,0.056,0.669-0.52,0.26-0.628
		C19.231,8.099,18.971,8.136,18.962,8.422z M19.38,8.631c0.154,0.138,0.488-0.123,0.314-0.314C19.525,8.358,19.42,8.464,19.38,8.631
		z M19.694,8.946c0.052,0,0.104,0,0.156,0c0-0.035,0-0.07,0-0.104c-0.052,0-0.104,0-0.156,0C19.694,8.876,19.694,8.911,19.694,8.946
		z M25.188,9.835c-0.021-0.294-0.079-0.55-0.263-0.679C24.729,9.339,24.863,9.85,25.188,9.835z M24.768,9.835
		c-0.014-0.213-0.027-0.426-0.262-0.418C24.503,9.648,24.515,9.861,24.768,9.835z M24.141,9.835c0.072,0,0.139,0,0.209,0
		c0.062-0.147,0.031-0.335-0.209-0.314C24.141,9.626,24.141,9.73,24.141,9.835z M20.897,13.025c0.711-0.893,1.022-2.463,1.465-3.452
		C21.545,10.395,21.476,11.964,20.897,13.025z M20.95,10.933c-0.036-0.68-0.554-1.155-1.152-1.098
		C20.38,10.004,20.696,10.436,20.95,10.933z M22.309,11.613C22.232,11.646,22.316,11.676,22.309,11.613
		c0.614-0.398,1.526-0.498,2.197-0.836C23.649,10.72,22.757,11.085,22.309,11.613z M21.316,13.025
		c-0.089-0.019-0.099,0.042-0.105,0.105c-0.075,0.032,0.004,0.063,0,0C21.259,13.108,21.304,13.086,21.316,13.025
		c0.865-0.632,1.954-1.044,2.876-1.62C22.969,11.681,21.993,12.205,21.316,13.025z M24.297,12.66
		c0.186,0.012,0.795,0.038,1.048-0.053C25.111,12.547,24.445,12.465,24.297,12.66z M20.637,15.171
		c0.592-1.343,1.859-2.011,3.348-2.459C22.307,12.728,20.921,13.763,20.637,15.171z M19.014,13.549
		c0.204,0.191,1.045,0.195,0.941-0.261c-0.067-0.003-0.071-0.068-0.158-0.052C19.774,13.577,19.131,13.299,19.014,13.549z
		 M19.485,14.072c0.261,0.137,0.642-0.007,0.628-0.313c-0.083-0.022-0.046-0.166-0.21-0.105
		C19.96,13.989,19.486,13.794,19.485,14.072z M19.746,14.49c0.209,0,0.39-0.027,0.367-0.261
		C19.933,14.26,19.731,14.266,19.746,14.49z M19.38,17.524c1.205,2.53,3.498,4.248,6.331,4.971c-3.146-1.388-6.02-3.048-6.54-7.062
		c-0.179-0.31-0.364-0.61-0.522-0.942c-0.062,0.008-0.148-0.008-0.157,0.052C18.919,15.405,19.169,16.448,19.38,17.524z
		 M20.897,16.479c0.034-0.769,0.333-1.271,0.732-1.675C21.091,15.011,20.682,15.859,20.897,16.479z M25.816,17.682
		c-0.297-1.179,0.667-1.473,1.204-1.988C26.09,15.728,25.232,16.821,25.816,17.682z M21.421,16.113
		c-0.124,0.038-0.161,0.428-0.054,0.523C21.333,16.408,21.457,16.34,21.421,16.113C21.578,16.103,21.371,15.895,21.421,16.113z
		 M20.95,18.519c-0.509-0.608-0.61-1.621-0.995-2.354C20.125,17.078,20.342,18.219,20.95,18.519z M19.798,18.833
		c-0.63-0.816-1.152-1.742-1.727-2.616C18.419,17.319,18.953,18.231,19.798,18.833z M27.959,23.697
		c-4.604-1.183-8.657-2.92-10.723-6.644c-0.247-0.102-0.3-0.397-0.576-0.47C18.674,20.672,22.839,22.89,27.959,23.697z
		 M26.547,17.63c0.07-0.349,0.426-0.411,0.576-0.68c-0.011-0.041-0.045-0.06-0.104-0.052c-0.443,0.151-0.6,0.586-0.734,1.046
		c0.95,2.152,3.089,3.398,5.494,3.922C29.699,21.058,27.035,20.02,26.547,17.63z M27.174,19.932
		c-0.873-0.817-1.62-1.762-2.249-2.827C25.268,18.456,26.066,19.349,27.174,19.932z M18.125,17.472
		C18.159,17.508,18.103,17.451,18.125,17.472L18.125,17.472z M22.729,19.828c-0.547-0.709-1.172-1.34-1.412-2.355
		C21.404,18.64,22.06,19.241,22.729,19.828z M22.101,21.343c-1.541-1.039-2.828-2.333-3.923-3.819
		C18.992,19.29,20.39,20.475,22.101,21.343z M29.109,21.292c-1.638-0.714-2.975-1.733-4.289-2.773
		C25.79,19.869,27.438,20.819,29.109,21.292z M23.774,22.861c-2.619-0.607-4.309-2.143-5.964-3.715
		C19.15,20.999,21.105,22.514,23.774,22.861z M32.511,23.227c-4.507-0.62-8.668-1.584-11.299-4.081
		C23.589,21.828,28.057,22.973,32.511,23.227z M25.082,19.984c-0.115,0.198-0.469,0.157-0.576,0.366
		c0.597,0.34,1.19-0.653,0.576-0.889C25.068,19.736,25.137,19.771,25.082,19.984z M25.292,20.507
		c0.453,0.071,0.469-0.401,0.366-0.731c-0.053,0-0.104,0-0.157,0C25.523,20.035,25.452,20.299,25.292,20.507z M20.897,22.39
		c-0.99-0.701-1.933-1.45-2.772-2.301C18.687,21.218,19.734,21.862,20.897,22.39z M25.867,20.717
		c0.361,0.046,0.456-0.17,0.418-0.523c-0.109-0.03-0.148-0.129-0.313-0.104C26.14,20.366,25.891,20.478,25.867,20.717z
		 M26.547,20.872c0.113-0.061,0.23-0.276,0.105-0.417C26.46,20.434,26.36,20.833,26.547,20.872z M24.35,20.769
		c0.147,0.185,0.423,0.241,0.575,0.418c4.517,1.203,9.749,1.692,13.236,3.924c-3.302-2.785-9.603-2.849-13.968-4.394
		C24.26,20.718,24.266,20.783,24.35,20.769z M26.965,20.925c0.195,0.036,0.232-0.084,0.209-0.261c-0.051,0-0.102,0-0.154,0
		C26.974,20.724,26.951,20.804,26.965,20.925z M27.488,21.03c0.003-0.09-0.04-0.134-0.104-0.158
		C27.311,20.95,27.307,21.076,27.488,21.03z M21.368,23.697c-1.137-0.448-2.165-1.008-2.981-1.779
		C18.907,22.985,19.983,23.495,21.368,23.697z M25.188,24.064c4.539,0.324,8.535,1.473,12.137,2.562
		c-3.455-1.619-7.721-2.427-12.399-2.824c-1.783-0.378-3.956-0.368-5.127-1.36C20.871,23.708,23.285,23.629,25.188,24.064z
		 M26.859,22.808c2.75,0.671,5.962,1.155,8.477,1.883c-2.437-1.121-5.68-1.434-8.633-2.04
		C26.694,22.766,26.747,22.818,26.859,22.808z M38.58,25.895c-1.748-0.938-3.297-2.074-5.599-2.459
		C34.967,24.102,36.789,25.21,38.58,25.895z M37.114,26.156c-2.108-1.448-5.374-2.019-8.475-2.301
		C31.613,24.475,34.654,25.024,37.114,26.156z M28.378,24.691c-1.948-0.303-4.201-0.576-6.173-0.68
		C24.075,24.358,26.461,24.742,28.378,24.691z M29.529,25.111c1.512,0.371,3.618,0.601,5.18,1.098
		C33.401,25.458,31.354,25.168,29.529,25.111z"/>
	<path fill-rule="evenodd" clip-rule="evenodd" fill="#4D4D4D" d="M18.125,9.626C18.062,9.632,18.091,9.549,18.125,9.626
		L18.125,9.626z"/>
	<path fill-rule="evenodd" clip-rule="evenodd" fill="#4D4D4D" d="M18.125,9.626c0.031,0.002,0.062,0.007,0.052,0.053
		C18.145,9.674,18.116,9.67,18.125,9.626z"/>
	<path fill-rule="evenodd" clip-rule="evenodd" fill="#4D4D4D" d="M18.177,9.679c0.03,0.002,0.062,0.007,0.052,0.051
		C18.197,9.727,18.167,9.722,18.177,9.679z"/>
	<path fill-rule="evenodd" clip-rule="evenodd" fill="#4D4D4D" d="M18.229,9.73c0.031,0.003,0.062,0.008,0.052,0.052
		C18.249,9.779,18.22,9.775,18.229,9.73z"/>
	<path fill-rule="evenodd" clip-rule="evenodd" fill="#4D4D4D" d="M15.458,10.724C15.394,10.882,15.178,10.667,15.458,10.724
		L15.458,10.724z"/>
	<path fill-rule="evenodd" clip-rule="evenodd" fill="#4D4D4D" d="M26.859,13.654C26.924,13.648,26.895,13.73,26.859,13.654
		L26.859,13.654z"/>
	<path fill-rule="evenodd" clip-rule="evenodd" fill="#4D4D4D" d="M13.782,15.485C13.625,15.474,13.832,15.266,13.782,15.485
		L13.782,15.485z"/>
	<path fill-rule="evenodd" clip-rule="evenodd" fill="#4D4D4D" d="M15.458,18.31C15.394,18.315,15.424,18.234,15.458,18.31
		L15.458,18.31z"/>
	<path fill-rule="evenodd" clip-rule="evenodd" fill="#4D4D4D" d="M15.509,19.564C15.448,19.57,15.477,19.489,15.509,19.564
		L15.509,19.564z"/>
	<path fill-rule="evenodd" clip-rule="evenodd" fill="#4D4D4D" d="M15.875,20.455C15.812,20.461,15.843,20.378,15.875,20.455
		L15.875,20.455z"/>
	<path fill-rule="evenodd" clip-rule="evenodd" fill="#4D4D4D" d="M15.875,20.455c0.032,0.001,0.061,0.008,0.052,0.052
		C15.896,20.504,15.865,20.499,15.875,20.455z"/>
	<path fill-rule="evenodd" clip-rule="evenodd" fill="#4D4D4D" d="M15.927,20.507c0.032,0.002,0.062,0.008,0.052,0.051
		C15.947,20.556,15.918,20.551,15.927,20.507z"/>
	<path fill-rule="evenodd" clip-rule="evenodd" fill="#4D4D4D" d="M19.538,24.326C19.514,24.304,19.571,24.361,19.538,24.326
		L19.538,24.326z"/>
	<path fill-rule="evenodd" clip-rule="evenodd" fill="#4D4D4D" d="M13.468,25.111C13.48,24.953,13.685,25.162,13.468,25.111
		L13.468,25.111z"/>
	<path fill-rule="evenodd" clip-rule="evenodd" fill="#4D4D4D" d="M30.313,26.156c0.297,0.035,0.731-0.068,0.941,0.053
		C30.958,26.174,30.524,26.279,30.313,26.156z"/>
	<path fill-rule="evenodd" clip-rule="evenodd" fill="#4D4D4D" d="M28.796,26.732C28.858,26.572,29.073,26.789,28.796,26.732
		L28.796,26.732z"/>
	<path fill-rule="evenodd" clip-rule="evenodd" fill="#4D4D4D" d="M28.012,27.1c-3.344,0.822-6.692,1.641-8.945,3.557
		c1.634-0.775,2.984-1.83,4.97-2.25c-0.852,0.457-1.854,0.764-2.511,1.412c-0.078,0.033,0.005,0.062,0,0
		c1.264-0.516,2.368-1.189,3.819-1.518c-3.097,1.369-5.849,3.08-7.535,5.861c-0.076,0.031,0.006,0.062,0,0
		c1.983-2.326,4.326-4.291,7.482-5.441c-2.03,1.389-4.022,2.814-5.649,4.602c0.398-0.158,0.581-0.533,0.94-0.732
		c-0.142,0.33-0.41,0.531-0.521,0.893c1.619-1.854,3.642-3.752,6.171-4.865c-3.517,2.41-6.893,4.961-8.107,9.678
		c-0.095,1.732,0.543,2.734,1.202,3.713c0.835,0.85,3.13,1.387,4.134,0.314c0.174,0.053,0.163,0.289,0.418,0.262
		c-0.153-0.912-1.334-0.795-1.57-1.623c0-0.191,0-0.383,0-0.574c1.206-1.793,4.542-0.682,4.763,1.256
		c-0.033,0.324-0.006,0.725-0.053,1.152c-0.969,1.773-2.248,3.225-5.075,3.137c-3.89-0.578-6.229-3.416-5.65-7.951
		c0.117-0.582,0.415-0.979,0.576-1.518c-1.078,0.756-1.506,2.609-1.988,4.133c0.117,2.846,1.412,4.516,3.347,5.547
		c-0.272-0.027-0.757-0.059-1.151,0.051c-0.075-0.24-0.166-0.463-0.366-0.576c-0.177,0.033-0.269,0.15-0.524,0.105
		c-0.568-0.162-0.787-0.678-0.941-1.256c-0.324-0.443-1.04-0.494-1.464-0.838c-0.846-0.713-0.364-2.541-0.731-3.504
		c-0.092,0.658-0.629,0.871-1.047,1.201c0.272-0.041,0.495-0.131,0.68-0.262c0.028,0.447-0.8,0.488-0.995,0.891
		c-0.075,0.033,0.006,0.062,0,0c0.24-0.041,0.365-0.193,0.628-0.209c-0.237,0.459-0.965,0.43-1.046,1.049
		c0.121-0.059,0.335-0.469,0.681-0.473c-0.438,0.426-0.016,1.209-0.263,1.779c0.129,0.156,0.152-0.23,0.314-0.209
		c0.036,0.293,0.081,0.488,0.158,0.836c-0.46,0.277-1.536,0.246-1.308-0.312c-0.479-0.062-0.679-0.404-0.837-0.787
		c0.194-0.379,0.231-1.057-0.156-1.254c-0.596,0.795-2.816,0.799-3.192-0.211c0.361,0.334,1.224,0.674,1.884,0.369
		c-0.875,0.008-1.877-0.232-2.198-0.945c0.331,0.176,0.603,0.41,1.098,0.42c-0.375-0.375-1.047-0.453-1.308-0.943
		c0.185-0.061,0.474,0.227,0.785,0.211c-0.253-0.271-0.73-0.316-0.89-0.68c0.063-0.182,0.451,0.162,0.681,0.156
		c-0.413-0.336-0.919-0.58-1.256-0.992c-0.197-0.014-1.2-0.068-0.367-0.158c1.086,0.1,1.472,1.18,2.827,0.836
		c0.346,0.158,0.59,0.645,1.044,0.523c-0.19-0.33-0.634-0.41-0.732-0.836c0.26,0.287,0.806,0.549,1.361,0.365
		c-0.754-0.021-1.417-0.387-1.414-0.992c0.211,0.027,0.439,0.459,0.891,0.418c-0.174-0.158-0.452-0.211-0.629-0.365
		c-0.066-0.189-0.108-0.621,0.053-0.734c0.096,0.15,0.059,0.43,0.263,0.471c0.012-0.037-0.309-0.676,0.103-0.68
		c0.458,1.688,2.722,0.371,3.245-0.365c-0.316,0.574-0.896,0.883-1.361,1.309c1.81-0.756,2.529-2.6,3.663-4.029
		c-0.926,0.523-1.444,1.906-2.774,2.197c0.133-0.234,0.568-0.166,0.628-0.471c-0.2,0.055-1.19,0.584-1.412,0
		c0.235,0.066,0.59,0.186,0.784,0c-0.332-0.068-0.728-0.074-0.94-0.264c0-0.156,0-0.312,0-0.471c0.139,0.088,0.17,0.285,0.366,0.314
		c0.156,0,0.314,0,0.47,0c2.15-1.182,3.24-3.422,4.814-5.178c3.122-2.617,7.109-4.365,12.293-4.918
		c-0.695,0.193-1.502,0.275-2.145,0.523C27.006,27.418,27.492,27.102,28.012,27.1z M21.578,28.721
		c1.428-0.541,3.167-0.775,4.551-1.359C24.438,27.639,22.816,27.988,21.578,28.721z M17.078,31.701
		C17.002,31.734,17.084,31.766,17.078,31.701c1.107-1.004,2.52-1.701,3.767-2.562C19.303,29.709,18.031,30.545,17.078,31.701z
		 M17.287,33.795c1.049-1.342,2.402-2.379,3.663-3.504C19.447,31.141,18.04,32.367,17.287,33.795z M15.09,34.736
		C15.014,34.77,15.097,34.799,15.09,34.736c1.182-1.312,2.438-2.549,3.715-3.768C17.263,31.922,16.114,33.268,15.09,34.736z
		 M14.62,35.939C14.543,35.971,14.626,36.004,14.62,35.939c1.298-1.771,2.972-3.166,4.447-4.76
		C17.314,32.494,15.782,34.035,14.62,35.939z M13.363,36.096C13.287,36.129,13.369,36.16,13.363,36.096
		c1.143-0.934,1.864-2.285,2.773-3.453C14.983,33.564,14.346,35.004,13.363,36.096z M18.387,36.619
		c0.227-0.992,1.065-1.652,1.204-2.562C19.116,34.805,18.343,35.529,18.387,36.619z M17.078,37.666
		c0.465-1.158,1.353-2.447,1.674-3.4C18.031,35.203,17.102,36.205,17.078,37.666z M7.558,41.434
		C7.525,41.357,7.494,41.438,7.558,41.434c1.135,0.883,3.05-0.092,3.819-0.523c-0.377,0.678-0.74,1.992-0.209,2.719
		c0.033,0.078,0.064-0.004,0,0c-0.235-0.482,0.027-0.879-0.104-1.465c0.215-0.41,0.415-0.84,0.574-1.307
		c1.891-1.736,3.228-4.027,4.814-6.068C13.571,36.969,12.697,42.207,7.558,41.434z M16.607,35.207
		c-0.045-0.01-0.05,0.02-0.052,0.053c-1.271,1.502-2.679,3.146-2.826,5.598c0.443-2.365,1.743-3.873,2.826-5.598
		C16.601,35.27,16.604,35.238,16.607,35.207C16.684,35.174,16.602,35.145,16.607,35.207z M17.025,35.836
		c0.14,0.033,0.249,0.1,0.367,0.156C17.633,35.682,17.062,35.484,17.025,35.836z M16.817,36.096
		c0.154,0.039,0.226,0.158,0.314,0.262C17.353,36.146,16.931,35.811,16.817,36.096z M15.039,38.92
		c0.314-1.098,0.993-1.83,1.568-2.666c-0.067-0.002-0.073-0.068-0.156-0.053C15.862,36.955,15.031,37.746,15.039,38.92z
		 M14.097,36.828c-0.052,0.002-0.041,0.064-0.054,0.105c-1.004,1.4-2.228,2.584-3.871,3.348c1.86-0.547,3.053-1.76,3.871-3.348
		C14.094,36.932,14.084,36.869,14.097,36.828C14.17,36.797,14.091,36.766,14.097,36.828z M17.706,40.857
		c-0.231-0.85-0.125-2.039-0.313-2.93C17.102,38.795,17.201,40.301,17.706,40.857z M19.485,44.311
		c-1.583-1.186-2.765-3.01-2.615-5.756C16.063,40.961,17.749,43.602,19.485,44.311z M15.039,42.846
		c-0.333-0.889-0.125-2.318-0.263-3.402C14.645,40.461,14.49,42.184,15.039,42.846z M10.382,39.551
		c-0.359,0.158-0.949,0.129-1.257-0.053C9.178,39.928,10.272,39.928,10.382,39.551z M26.338,42.062
		c0.8-1.27-0.716-2.307-2.041-2.303C25.259,40.211,26.668,40.49,26.338,42.062z M23.147,40.281c0.08-0.287,0.516-0.215,0.626-0.469
		C23.392,39.76,23.06,40.035,23.147,40.281z M8.081,40.752c-0.263,0.035-0.662-0.068-0.837,0.051
		C7.424,40.965,7.929,40.922,8.081,40.752z M8.969,41.172c0.069,0.105,0.477-0.082,0.21-0.158
		C9.165,41.123,8.984,41.064,8.969,41.172z M13.573,41.326c0.017-0.068,0.075-0.098,0.052-0.207
		C13.43,41.098,13.465,41.275,13.573,41.326z M18.071,41.801c0.007-0.234-0.06-0.395-0.261-0.42
		C17.825,41.592,17.838,41.807,18.071,41.801z M14.043,43.055c-0.509-0.137-0.337-0.953-0.575-1.361
		C13.383,42.186,13.505,43.188,14.043,43.055z M8.184,42.062C8.173,41.904,7.969,42.111,8.184,42.062
		c0.617,0.264,1.613,0.104,1.989-0.316C9.567,41.908,9.028,42.135,8.184,42.062z M22.519,44.57
		c-2.146-0.049-3.388-1.285-4.394-2.301C18.974,43.584,20.38,44.895,22.519,44.57z M24.401,44.729
		c0.778-0.201,1.485-0.748,1.57-1.465C25.641,43.943,25.006,44.322,24.401,44.729z M14.359,43.525
		c0.093,0.014,0.293,0.188,0.364,0.051C14.595,43.553,14.414,43.314,14.359,43.525z M10.958,43.943
		c-0.264-0.084-0.497-0.201-0.68-0.367C10.249,43.914,10.788,44.145,10.958,43.943z M16.712,45.355
		c-0.306-0.551-1.073-1.088-1.466-1.727C15.466,44.473,16.127,44.879,16.712,45.355z M11.689,44.467
		c-0.209,0.033-0.555-0.068-0.68,0.053C11.111,44.615,11.687,44.758,11.689,44.467z M16.294,45.408
		c-0.035-0.219-0.399-0.537-0.681-0.68C15.749,45.047,15.939,45.311,16.294,45.408z M23.774,44.99
		c-1.158,0.303-2.701,0.041-3.609-0.158C20.812,45.4,23.18,45.652,23.774,44.99z"/>
	<path fill-rule="evenodd" clip-rule="evenodd" fill="#4D4D4D" d="M28.012,27.1C28.127,26.938,28.348,27.158,28.012,27.1
		L28.012,27.1z"/>
	<path fill-rule="evenodd" clip-rule="evenodd" fill="#4D4D4D" d="M27.02,27.727C27.029,27.57,27.235,27.775,27.02,27.727
		L27.02,27.727z"/>
	<path fill-rule="evenodd" clip-rule="evenodd" fill="#4D4D4D" d="M30.628,27.777C30.638,27.621,30.845,27.828,30.628,27.777
		L30.628,27.777z"/>
	<path fill-rule="evenodd" clip-rule="evenodd" fill="#4D4D4D" d="M29.896,27.936c0.162-0.117,0.417-0.143,0.68-0.158
		C30.412,27.896,30.159,27.92,29.896,27.936z"/>
	<path fill-rule="evenodd" clip-rule="evenodd" fill="#4D4D4D" d="M41.979,27.83c0.032,0.004,0.062,0.008,0.053,0.053
		C42.001,27.881,41.971,27.875,41.979,27.83z"/>
	<path fill-rule="evenodd" clip-rule="evenodd" fill="#4D4D4D" d="M42.032,27.883c0.031,0.002,0.062,0.01,0.052,0.053
		C42.053,27.934,42.023,27.926,42.032,27.883z"/>
	<path fill-rule="evenodd" clip-rule="evenodd" fill="#4D4D4D" d="M26.285,27.986C26.264,27.967,26.32,28.023,26.285,27.986
		L26.285,27.986z"/>
	<path fill-rule="evenodd" clip-rule="evenodd" fill="#4D4D4D" d="M29.896,27.936C29.833,28.096,29.618,27.879,29.896,27.936
		L29.896,27.936z"/>
	<path fill-rule="evenodd" clip-rule="evenodd" fill="#4D4D4D" d="M39.678,27.986C39.656,27.967,39.712,28.023,39.678,27.986
		L39.678,27.986z"/>
	<path fill-rule="evenodd" clip-rule="evenodd" fill="#4D4D4D" d="M42.084,27.936c0.032,0.002,0.063,0.008,0.053,0.051
		C42.104,27.986,42.075,27.979,42.084,27.936z"/>
	<path fill-rule="evenodd" clip-rule="evenodd" fill="#4D4D4D" d="M26.181,28.039C26.16,28.02,26.215,28.074,26.181,28.039
		L26.181,28.039z"/>
	<path fill-rule="evenodd" clip-rule="evenodd" fill="#4D4D4D" d="M29.581,28.039C29.56,28.02,29.616,28.074,29.581,28.039
		L29.581,28.039z"/>
	<path fill-rule="evenodd" clip-rule="evenodd" fill="#4D4D4D" d="M42.137,27.986c0.033,0.004,0.062,0.01,0.052,0.053
		C42.157,28.037,42.127,28.033,42.137,27.986z"/>
	<path fill-rule="evenodd" clip-rule="evenodd" fill="#4D4D4D" d="M25.972,28.092C25.982,27.936,26.188,28.141,25.972,28.092
		L25.972,28.092z"/>
	<path fill-rule="evenodd" clip-rule="evenodd" fill="#4D4D4D" d="M29.373,28.092C29.384,27.936,29.59,28.141,29.373,28.092
		L29.373,28.092z"/>
	<path fill-rule="evenodd" clip-rule="evenodd" fill="#4D4D4D" d="M39.888,28.092C39.865,28.07,39.922,28.127,39.888,28.092
		L39.888,28.092z"/>
	<path fill-rule="evenodd" clip-rule="evenodd" fill="#4D4D4D" d="M42.188,28.039C42.253,28.035,42.222,28.115,42.188,28.039
		L42.188,28.039z"/>
	<path fill-rule="evenodd" clip-rule="evenodd" fill="#4D4D4D" d="M25.345,28.301c0.136-0.123,0.351-0.172,0.575-0.209
		C25.783,28.217,25.568,28.264,25.345,28.301z"/>
	<path fill-rule="evenodd" clip-rule="evenodd" fill="#4D4D4D" d="M29.217,28.145c0.007-0.061,0.081-0.057,0.156-0.053
		C29.364,28.154,29.289,28.148,29.217,28.145z"/>
	<path fill-rule="evenodd" clip-rule="evenodd" fill="#4D4D4D" d="M24.716,28.197C24.694,28.174,24.75,28.23,24.716,28.197
		L24.716,28.197z"/>
	<path fill-rule="evenodd" clip-rule="evenodd" fill="#4D4D4D" d="M29.109,28.197c0.014-0.041,0.045-0.061,0.107-0.053
		C29.204,28.186,29.172,28.205,29.109,28.197z"/>
	<path fill-rule="evenodd" clip-rule="evenodd" fill="#4D4D4D" d="M24.559,28.248C24.57,28.094,24.777,28.299,24.559,28.248
		L24.559,28.248z"/>
	<path fill-rule="evenodd" clip-rule="evenodd" fill="#4D4D4D" d="M28.273,28.248C28.254,28.227,28.307,28.283,28.273,28.248
		L28.273,28.248z"/>
	<path fill-rule="evenodd" clip-rule="evenodd" fill="#4D4D4D" d="M24.401,28.301C24.413,28.145,24.619,28.352,24.401,28.301
		L24.401,28.301z"/>
	<path fill-rule="evenodd" clip-rule="evenodd" fill="#4D4D4D" d="M28.117,28.301C28.127,28.145,28.333,28.352,28.117,28.301
		L28.117,28.301z"/>
	<path fill-rule="evenodd" clip-rule="evenodd" fill="#4D4D4D" d="M28.012,28.354c0.012-0.039,0.044-0.061,0.105-0.053
		C28.105,28.342,28.072,28.363,28.012,28.354z"/>
	<path fill-rule="evenodd" clip-rule="evenodd" fill="#4D4D4D" d="M24.088,28.406C24.098,28.25,24.306,28.457,24.088,28.406
		L24.088,28.406z"/>
	<path fill-rule="evenodd" clip-rule="evenodd" fill="#4D4D4D" d="M27.906,28.406c0.013-0.041,0.045-0.061,0.105-0.053
		C28,28.396,27.967,28.416,27.906,28.406z"/>
	<path fill-rule="evenodd" clip-rule="evenodd" fill="#4D4D4D" d="M26.6,28.459C26.577,28.436,26.633,28.492,26.6,28.459
		L26.6,28.459z"/>
	<path fill-rule="evenodd" clip-rule="evenodd" fill="#4D4D4D" d="M26.442,28.512C26.452,28.355,26.66,28.561,26.442,28.512
		L26.442,28.512z"/>
	<path fill-rule="evenodd" clip-rule="evenodd" fill="#4D4D4D" d="M27.123,28.512C27.118,28.447,27.199,28.479,27.123,28.512
		L27.123,28.512z"/>
	<path fill-rule="evenodd" clip-rule="evenodd" fill="#4D4D4D" d="M26.338,28.562c0.011-0.039,0.045-0.061,0.104-0.051
		C26.43,28.551,26.399,28.57,26.338,28.562z"/>
	<path fill-rule="evenodd" clip-rule="evenodd" fill="#4D4D4D" d="M27.02,28.562c0.01-0.039,0.043-0.061,0.104-0.051
		C27.112,28.551,27.078,28.57,27.02,28.562z"/>
	<path fill-rule="evenodd" clip-rule="evenodd" fill="#4D4D4D" d="M25.554,28.617C25.564,28.459,25.77,28.664,25.554,28.617
		L25.554,28.617z"/>
	<path fill-rule="evenodd" clip-rule="evenodd" fill="#4D4D4D" d="M26.232,28.617c0.014-0.041,0.047-0.061,0.105-0.055
		C26.327,28.605,26.295,28.623,26.232,28.617z"/>
	<path fill-rule="evenodd" clip-rule="evenodd" fill="#4D4D4D" d="M26.912,28.617c0.012-0.041,0.046-0.061,0.107-0.055
		C27.006,28.605,26.974,28.623,26.912,28.617z"/>
	<path fill-rule="evenodd" clip-rule="evenodd" fill="#4D4D4D" d="M25.397,28.668c0.01-0.061,0.081-0.057,0.157-0.051
		C25.544,28.676,25.47,28.672,25.397,28.668z"/>
	<path fill-rule="evenodd" clip-rule="evenodd" fill="#4D4D4D" d="M26.808,28.668c0.013-0.041,0.044-0.061,0.104-0.051
		C26.901,28.656,26.869,28.676,26.808,28.668z"/>
	<path fill-rule="evenodd" clip-rule="evenodd" fill="#4D4D4D" d="M25.292,28.721c0.012-0.043,0.043-0.061,0.105-0.053
		C25.385,28.709,25.354,28.729,25.292,28.721z"/>
	<path fill-rule="evenodd" clip-rule="evenodd" fill="#4D4D4D" d="M26.703,28.721c0.014-0.043,0.045-0.061,0.104-0.053
		C26.797,28.709,26.765,28.729,26.703,28.721z"/>
	<path fill-rule="evenodd" clip-rule="evenodd" fill="#4D4D4D" d="M28.431,29.086c0.011-0.041,0.044-0.061,0.104-0.053
		C28.524,29.074,28.492,29.096,28.431,29.086z"/>
	<path fill-rule="evenodd" clip-rule="evenodd" fill="#4D4D4D" d="M28.431,29.086C28.437,29.15,28.354,29.119,28.431,29.086
		L28.431,29.086z"/>
	<path fill-rule="evenodd" clip-rule="evenodd" fill="#4D4D4D" d="M42.451,29.35c0.032,0,0.062,0.008,0.053,0.051
		C42.471,29.396,42.44,29.393,42.451,29.35z"/>
	<path fill-rule="evenodd" clip-rule="evenodd" fill="#4D4D4D" d="M42.504,29.4C42.565,29.395,42.535,29.477,42.504,29.4
		L42.504,29.4z"/>
	<path fill-rule="evenodd" clip-rule="evenodd" fill="#4D4D4D" d="M42.921,29.4C43.129,29.414,42.912,29.631,42.921,29.4
		L42.921,29.4z"/>
	<path fill-rule="evenodd" clip-rule="evenodd" fill="#4D4D4D" d="M42.188,29.453c0.032,0.002,0.062,0.008,0.053,0.051
		C42.21,29.502,42.179,29.496,42.188,29.453z"/>
	<path fill-rule="evenodd" clip-rule="evenodd" fill="#4D4D4D" d="M42.241,29.504c0.032,0.004,0.062,0.01,0.052,0.053
		C42.261,29.555,42.232,29.549,42.241,29.504z"/>
	<path fill-rule="evenodd" clip-rule="evenodd" fill="#4D4D4D" d="M42.293,29.557C42.357,29.553,42.326,29.633,42.293,29.557
		L42.293,29.557z"/>
	<path fill-rule="evenodd" clip-rule="evenodd" fill="#4D4D4D" d="M34.394,29.766c0.003-0.031,0.009-0.061,0.053-0.051
		C34.443,29.744,34.439,29.775,34.394,29.766z"/>
	<path fill-rule="evenodd" clip-rule="evenodd" fill="#4D4D4D" d="M34.394,29.766C34.4,29.83,34.317,29.799,34.394,29.766
		L34.394,29.766z"/>
	<path fill-rule="evenodd" clip-rule="evenodd" fill="#4D4D4D" d="M27.229,29.869C27.223,29.809,27.303,29.84,27.229,29.869
		L27.229,29.869z"/>
	<path fill-rule="evenodd" clip-rule="evenodd" fill="#4D4D4D" d="M27.542,30.133C27.545,30.197,27.465,30.166,27.542,30.133
		L27.542,30.133z"/>
	<path fill-rule="evenodd" clip-rule="evenodd" fill="#4D4D4D" d="M23.879,30.709C23.874,30.645,23.955,30.676,23.879,30.709
		L23.879,30.709z"/>
	<path fill-rule="evenodd" clip-rule="evenodd" fill="#4D4D4D" d="M33.347,30.656C33.354,30.719,33.271,30.688,33.347,30.656
		L33.347,30.656z"/>
	<path fill-rule="evenodd" clip-rule="evenodd" fill="#4D4D4D" d="M23.827,30.762c0.003-0.033,0.008-0.064,0.052-0.053
		C23.877,30.74,23.871,30.771,23.827,30.762z"/>
	<path fill-rule="evenodd" clip-rule="evenodd" fill="#4D4D4D" d="M23.774,30.814c0.004-0.033,0.009-0.062,0.053-0.053
		C23.824,30.793,23.819,30.822,23.774,30.814z"/>
	<path fill-rule="evenodd" clip-rule="evenodd" fill="#4D4D4D" d="M21.944,32.486C21.938,32.424,22.02,32.455,21.944,32.486
		L21.944,32.486z"/>
	<path fill-rule="evenodd" clip-rule="evenodd" fill="#4D4D4D" d="M21.944,32.486C21.948,32.551,21.867,32.52,21.944,32.486
		L21.944,32.486z"/>
	<path fill-rule="evenodd" clip-rule="evenodd" fill="#4D4D4D" d="M20.583,32.59C20.578,32.529,20.658,32.559,20.583,32.59
		L20.583,32.59z"/>
	<path fill-rule="evenodd" clip-rule="evenodd" fill="#4D4D4D" d="M21.838,32.695C21.789,32.479,21.997,32.686,21.838,32.695
		L21.838,32.695z"/>
	<path fill-rule="evenodd" clip-rule="evenodd" fill="#4D4D4D" d="M21.786,32.748c0.004-0.031,0.009-0.061,0.053-0.053
		C21.836,32.727,21.832,32.758,21.786,32.748z"/>
	<path fill-rule="evenodd" clip-rule="evenodd" fill="#4D4D4D" d="M20.897,33.584C20.893,33.523,20.975,33.553,20.897,33.584
		L20.897,33.584z"/>
	<path fill-rule="evenodd" clip-rule="evenodd" fill="#4D4D4D" d="M20.897,33.584c-0.011,0.041-0.001,0.104-0.052,0.107
		C20.857,33.648,20.847,33.588,20.897,33.584z"/>
	<path fill-rule="evenodd" clip-rule="evenodd" fill="#4D4D4D" d="M20.845,33.691c-0.012,0.039-0.002,0.104-0.051,0.104
		C20.804,33.752,20.795,33.691,20.845,33.691z"/>
	<path fill-rule="evenodd" clip-rule="evenodd" fill="#4D4D4D" d="M20.793,33.795c0.012,0.152-0.118,0.16-0.104,0.312
		c-0.019,0-0.037,0-0.053,0c-0.026-0.164,0.074-0.203,0.105-0.312C20.758,33.795,20.775,33.795,20.793,33.795z"/>
	<path fill-rule="evenodd" clip-rule="evenodd" fill="#4D4D4D" d="M20.637,34.107c-0.013,0.041-0.003,0.105-0.054,0.105
		C20.596,34.172,20.584,34.111,20.637,34.107z"/>
	<path fill-rule="evenodd" clip-rule="evenodd" fill="#4D4D4D" d="M18.648,37.301c0.108,0.078,0.072,0.453-0.105,0.418
		C18.551,37.551,18.661,37.488,18.648,37.301z"/>
	<path fill-rule="evenodd" clip-rule="evenodd" fill="#4D4D4D" d="M12.37,37.875C12.365,37.812,12.446,37.844,12.37,37.875
		L12.37,37.875z"/>
	<path fill-rule="evenodd" clip-rule="evenodd" fill="#4D4D4D" d="M12.37,37.875c0.003,0.09-0.041,0.135-0.105,0.158
		c-0.001-0.072,0.026-0.115,0.053-0.158C12.335,37.875,12.354,37.875,12.37,37.875z"/>
	<path fill-rule="evenodd" clip-rule="evenodd" fill="#4D4D4D" d="M18.595,37.928c0.149,0.006,0.096,0.219,0.105,0.367
		c-0.067,0.072-0.258,0.021-0.262,0.156C18.285,38.275,18.533,38.059,18.595,37.928z"/>
	<path fill-rule="evenodd" clip-rule="evenodd" fill="#4D4D4D" d="M12.265,38.033c-0.012,0.041-0.001,0.102-0.051,0.104
		C12.225,38.096,12.215,38.033,12.265,38.033z"/>
	<path fill-rule="evenodd" clip-rule="evenodd" fill="#4D4D4D" d="M12.161,38.189c0.002-0.031,0.007-0.062,0.052-0.053
		C12.21,38.168,12.205,38.197,12.161,38.189z"/>
	<path fill-rule="evenodd" clip-rule="evenodd" fill="#4D4D4D" d="M12.109,38.242c0.001-0.031,0.007-0.064,0.052-0.053
		C12.157,38.221,12.153,38.25,12.109,38.242z"/>
	<path fill-rule="evenodd" clip-rule="evenodd" fill="#4D4D4D" d="M18.648,38.555c0.074,0.062,0.099,0.18,0.104,0.314
		c-0.099-0.1-0.272-0.006-0.314,0.104c-0.113,0.01-0.024-0.186-0.052-0.262C18.521,38.705,18.57,38.615,18.648,38.555z"/>
	<path fill-rule="evenodd" clip-rule="evenodd" fill="#4D4D4D" d="M18.857,39.234c-0.2,0.01-0.345,0.074-0.366,0.264
		C18.268,39.268,18.827,38.754,18.857,39.234z"/>
	<path fill-rule="evenodd" clip-rule="evenodd" fill="#4D4D4D" d="M19.014,39.602c-0.123,0.139-0.387,0.137-0.419,0.365
		C18.412,39.723,18.871,39.223,19.014,39.602z"/>
	<path fill-rule="evenodd" clip-rule="evenodd" fill="#4D4D4D" d="M19.014,39.863c0.138-0.016,0.135,0.109,0.157,0.209
		c-0.231,0.012-0.374,0.115-0.418,0.314C18.528,40.262,18.882,39.965,19.014,39.863z"/>
	<path fill-rule="evenodd" clip-rule="evenodd" fill="#4D4D4D" d="M8.237,40.125C8.081,40.113,8.287,39.906,8.237,40.125
		L8.237,40.125z"/>
	<path fill-rule="evenodd" clip-rule="evenodd" fill="#4D4D4D" d="M19.274,40.229c0.252,0.207-0.355,0.348-0.364,0.629
		C18.647,40.609,19.068,40.334,19.274,40.229z"/>
	<path fill-rule="evenodd" clip-rule="evenodd" fill="#4D4D4D" d="M19.485,40.543c0.067,0.02,0.082,0.092,0.157,0.105
		c-0.116,0.27-0.459,0.309-0.42,0.732C18.918,41.092,19.331,40.711,19.485,40.543z"/>
	<path fill-rule="evenodd" clip-rule="evenodd" fill="#4D4D4D" d="M19.956,40.961c-0.169,0.27-0.415,0.459-0.418,0.891
		C19.213,41.564,19.55,40.809,19.956,40.961z"/>
	<path fill-rule="evenodd" clip-rule="evenodd" fill="#4D4D4D" d="M20.113,41.172c0.229,0.209-0.385,0.611-0.158,0.992
		C19.569,41.916,19.988,41.402,20.113,41.172z"/>
	<path fill-rule="evenodd" clip-rule="evenodd" fill="#4D4D4D" d="M20.374,41.381c0.281,0.172-0.275,0.654-0.053,0.941
		C19.97,42.348,20.277,41.562,20.374,41.381z"/>
	<path fill-rule="evenodd" clip-rule="evenodd" fill="#4D4D4D" d="M20.742,41.537c0.083-0.016,0.089,0.049,0.155,0.051
		c-0.142,0.299-0.26,0.58-0.155,0.996C20.303,42.447,20.656,41.793,20.742,41.537z"/>
	<path fill-rule="evenodd" clip-rule="evenodd" fill="#4D4D4D" d="M21.159,41.693c0.182,0.061-0.181,0.752,0.105,0.943
		C20.766,42.809,20.988,41.889,21.159,41.693z"/>
	<path fill-rule="evenodd" clip-rule="evenodd" fill="#4D4D4D" d="M21.838,41.746c0.166,0.219,0.123,0.922,0.262,0.994
		C21.715,42.684,21.771,42.111,21.838,41.746z"/>
	<path fill-rule="evenodd" clip-rule="evenodd" fill="#4D4D4D" d="M22.257,41.746c0.22,0.199,0.02,0.818,0.417,0.838
		c-0.005,0.115-0.221,0.021-0.312,0.053C22.151,42.428,22.122,42.062,22.257,41.746z"/>
	<path fill-rule="evenodd" clip-rule="evenodd" fill="#4D4D4D" d="M21.525,41.801c0.146,0.236-0.079,0.844,0.26,0.887
		c-0.006,0.115-0.22,0.023-0.312,0.053C21.393,42.453,21.394,42.021,21.525,41.801z"/>
	<path fill-rule="evenodd" clip-rule="evenodd" fill="#4D4D4D" d="M22.623,41.852c0.3,0.086,0.521,0.244,0.786,0.365
		c-0.104,0.193-0.345,0.248-0.577,0.316C22.701,42.334,22.508,42.152,22.623,41.852z"/>
	<path fill-rule="evenodd" clip-rule="evenodd" fill="#4D4D4D" d="M11.952,42.322C11.946,42.258,12.026,42.291,11.952,42.322
		L11.952,42.322z"/>
</g>
</svg>
