<?xml version="1.0" encoding="utf-8"?>
<!-- Generator: Adobe Illustrator 16.0.0, SVG Export Plug-In . SVG Version: 6.00 Build 0)  -->
<!DOCTYPE svg PUBLIC "-//W3C//DTD SVG 1.1//EN" "http://www.w3.org/Graphics/SVG/1.1/DTD/svg11.dtd">
<svg version="1.1" id="Layer_1" xmlns="http://www.w3.org/2000/svg" xmlns:xlink="http://www.w3.org/1999/xlink" x="0px" y="0px"
	 width="100px" height="100px" viewBox="0 0 100 100" enable-background="new 0 0 100 100" xml:space="preserve">
<g>
	<path fill="#4C4C4C" d="M50.496,40.927c0.863,0.655,1.83,1.391,2.861,1.135c0.439-0.111,0.168-2.478,0.023-3.612
		c-0.104-0.855-0.208-1.742-0.216-2.525c-0.008-0.272-0.104-0.337-0.208-0.384c-1.167-0.511-5.076,1.375-5.682,1.902
		c-0.089,0.056-1.136,0.695-1.255,1.759c-0.009,0.104-0.009,0.208-0.009,0.311l0.783-0.232c-0.023-0.063-0.047-0.095-0.047-0.095
		c0.16,0.175,1.023,0.511,1.606,0.718C49.178,40.231,50.024,40.56,50.496,40.927z"/>
	<path fill="#4C4C4C" d="M47.324,46.089c0.248-0.208,0.263-0.639,0.239-0.959c-0.072-0.943-3.22-2.613-4.251-3.164l-0.479-0.256
		c-0.312-0.16-0.607-0.256-0.848-0.256c-0.136,0-0.264,0.033-0.352,0.097c-0.256,0.144-0.312,0.463-0.312,0.703l-0.016,0.168
		c-0.551,1.686-0.935,3.58-0.918,4.851c0.04-0.047,0.088-0.088,0.135-0.128c1.184-0.975,5.02-1.103,5.922-0.927
		C46.668,46.265,47.083,46.314,47.324,46.089z"/>
	<path fill="#4C4C4C" d="M63.908,52.021c0.759,0,1.35-0.193,1.789-0.642c1.391-1.374,1.111-4.563,0.998-5.921
		c-0.016-0.216-0.03-0.392-0.03-0.503c-0.017-0.336-0.153-0.624-0.408-0.848c-0.384-0.343-1.007-0.511-1.687-0.463
		c-0.975-0.032-2.869,0.321-4.123,0.544c-0.809,0.144-1.184,0.208-1.352,0.208c-0.367,0-0.664,0.088-0.783,0.224
		c-0.033,0.032-0.129,0.144-0.08,0.448v0.063v0.063c-0.071,0.576,1.854,1.623,2.484,1.966l0.121,0.065
		c1.471,0.815,3.229,2.046,3.268,3.317c0.01,0.303-0.078,0.702-0.438,1.087C63.764,51.756,63.843,51.893,63.908,52.021z"/>
	<path fill="#4C4C4C" d="M56.154,52.484c0.072,0.662,0.185,1.324,0.279,1.979c0.104,0.695,0.209,1.367,0.289,2.015
		c0.342,0.729,0.733,0.785,0.861,0.808c1.423,0.217,3.837-2.502,4.859-3.668c0.216-0.24,0.384-0.438,0.527-0.575
		c0.088-0.111,0.104-0.176,0.096-0.248c-0.049-0.583-1.264-1.559-1.918-2.078c-0.312-0.248-0.584-0.456-0.744-0.616
		c-0.75-0.751-4.012-2.829-4.737-2.829c-0.241,0.16-0.385,1.663-0.065,3.197l-0.021,0.016C55.986,51.156,56.1,52.084,56.154,52.484z
		"/>
	<path fill="#4C4C4C" d="M59.773,36.611c-0.965-0.432-1.693-0.472-2.276-0.256c1.551,1.087,1.135,2.718,0.808,4.021
		c-0.225,0.871-0.432,1.702-0.096,2.246c0.08,0.12,0.184,0.192,0.328,0.208c0.814,0.12,2.716-0.975,4.786-2.781
		c0.016-0.023,0.081-0.08,0.048-0.264C63.275,39.136,62.212,37.698,59.773,36.611z"/>
	<path fill="#4C4C4C" d="M42.216,55.281c1.04,1.566,2.014,3.035,2.878,3.115c0.319,0.033,0.671-0.158,1.078-0.56
		c2.07-2.126,3.821-4.739,4.244-5.944c0.4-1.104,0.439-2.159,0.191-2.367c-0.088-0.081-0.471-0.081-1.271,0.399
		c-0.479,0.272-0.863,0.527-1.19,0.759c-1.359,0.92-2.103,1.416-5.843,1.551l-0.032-0.791c-0.535,0.24-1.078,0.593-1.262,1.062
		c-0.176,0.424-0.048,0.952,0.375,1.561C41.673,54.482,41.945,54.881,42.216,55.281z"/>
	<path fill="#4C4C4C" d="M53.396,61.684c0.863,0.022,1.463-0.16,1.83-0.584c0.951-1.062,0.561-3.692,0.145-6.475
		c-0.096-0.654-0.2-1.326-0.288-1.997c-0.159-1.343-0.502-1.854-0.728-1.896c-0.592-0.088-1.941,1.494-2.844,3.334
		c-2.312,5.834-2.951,6.098-3.158,6.186l-0.408-0.991c0.232-0.217,0.959-1.774,1.735-3.549c-0.096-0.032-0.168-0.063-0.249-0.096
		c-0.255,0.352-0.527,0.702-0.806,1.056c-0.064,0.159-0.168,0.535-0.281,0.975c-0.183,0.688-0.423,1.599-0.75,2.639
		c-0.121,0.383-0.024,0.511,0.007,0.561c0.439,0.639,2.79,0.719,5.505,0.821L53.396,61.684z"/>
</g>
<g>
	<path fill="#1A1A1A" d="M28.486,33.989c-0.488,0.312-0.735,0.704-0.76,1.207c-0.08,2.079,1.798,2.774,2.813,3.141l0.168,0.065
		c2.046-0.209,4.316-0.097,6.066,0.079c-3.325-2.502-4.1-3.484-4.205-4.228c-0.048-0.327,0.056-0.583,0.16-0.759
		C31.531,33.27,29.581,33.31,28.486,33.989z"/>
	<path fill="#1A1A1A" d="M39.378,46.105c0.168-1.629,0.672-3.308,0.88-3.932c0.008-0.383,0.112-0.704,0.263-0.975
		c-0.711-0.497-1.382-0.976-1.965-1.406c-3.917-0.672-11.005-0.783-11.676,1.398c-0.153,0.528-0.081,1.046,0.223,1.575
		c0.927,1.55,4.003,3.101,7.856,3.916v0.008C36.327,46.226,38.012,46.154,39.378,46.105z"/>
	<path fill="#1A1A1A" d="M55.387,44.476c0.049,0.095,0.09,0.128,0.09,0.128c0.215-0.033,0.871-0.879,1.157-1.231
		c0.168-0.216,0.32-0.416,0.479-0.576c-0.312-0.839-0.088-1.773,0.152-2.685c0.008-0.016,0.008-0.04,0.016-0.064
		c-1.383-0.806-2.277-0.799-2.717-0.687c0.08,0.783,0.136,1.503,0.08,2.093l0.056-0.007C55.066,43.004,55.323,44.188,55.387,44.476z
		"/>
	<path fill="#1A1A1A" d="M47.148,41.614c0.223-0.255,0.519-0.479,0.862-0.688c-0.016,0-0.032-0.016-0.047-0.016
		c-0.903-0.352-1.495-0.592-1.846-0.864C46.276,40.542,46.628,41.071,47.148,41.614z"/>
	<path fill="#1A1A1A" d="M45.333,37.938c-1.286-1.431-4.379-4.309-7.384-5.043l-0.208,0.287c-0.12-0.087-0.264-0.231-0.423-0.423
		c-0.191-0.016-0.383-0.041-0.567-0.048c-1.223-0.04-2.214,0.367-3.061,1.263c-0.072,0.079-0.064,0.112-0.064,0.128
		c0.104,0.736,2.95,2.941,5.347,4.683c0.04,0,0.081,0,0.112,0.016l-0.016,0.047c0.903,0.656,1.742,1.239,2.325,1.663
		c0.568-0.191,1.248-0.111,1.943,0.264l0.471,0.249c0.943,0.495,1.87,1.006,2.662,1.533c0.007-0.032,0.016-0.048,0.039-0.072
		c-1.157-1.142-1.67-2.293-1.549-3.404C45.013,38.641,45.157,38.265,45.333,37.938z"/>
	<path fill="#1A1A1A" d="M53.021,46.442c-0.535-0.04-1.15-0.081-1.646-0.064l0.033,0.047c-0.018,0.017-1.711,0.8-2.854,2.718
		c0.079-0.047,0.144-0.096,0.231-0.144c0.415-0.239,1.67-0.99,2.51-0.295c0.863,0.727,0.495,2.405,0.247,3.196
		c0.392-0.584,0.871-1.176,1.384-1.614c-0.072-1.007,0.104-2.917,0.191-3.844C53.078,46.442,53.055,46.442,53.021,46.442z"/>
	<path fill="#1A1A1A" d="M54.628,46.474c-0.128,0.016-0.271,0.016-0.438,0.016c-0.088,0.863-0.209,2.286-0.209,3.221
		c0.145-0.041,0.289-0.048,0.433-0.041c-0.095-0.878-0.119-2.125,0.288-2.853C54.66,46.697,54.637,46.584,54.628,46.474z"/>
	<path fill="#1A1A1A" d="M54.581,45.418c-0.226-0.607-1.24-1.942-1.981-2.262c-1.088-0.12-2.022-0.823-2.742-1.383
		c-0.121-0.088-0.296-0.176-0.497-0.271c-1.27,0.352-1.814,1.231-2.021,1.694c0.743,0.606,1.247,1.214,1.294,1.854
		c0.049,0.59-0.072,1.006-0.216,1.326c0.72-0.543,1.55-0.815,1.966-0.943c0.64-0.207,1.687-0.135,2.71-0.063
		C53.564,45.394,54.229,45.443,54.581,45.418z"/>
	<path fill="#1A1A1A" d="M45.956,50.677c-0.12-0.191-0.215-0.375-0.302-0.583l-0.081,0.135c-0.624,0.56-1.263,0.783-1.902,0.783
		c-0.072,0-0.152-0.016-0.232-0.016l0.016,0.062c-0.081,0.008-0.185,0.032-0.312,0.064C44.502,51.045,45.326,50.9,45.956,50.677z"/>
	<path fill="#1A1A1A" d="M46.26,47.272c-0.023,0.671,0.041,1.999,0.656,2.894c0.151-0.463,0.335-0.895,0.543-1.279l-0.327,0.008
		c-0.017-0.727,0.207-1.294,0.551-1.75C47.283,47.329,46.795,47.369,46.26,47.272z"/>
	<path fill="#1A1A1A" d="M41.145,48.024l-0.703-0.04c0.063,0.344,0.176,0.583,0.367,0.695l0.128,0.096
		c1.686,1.031,2.79,1.623,3.86,0.719l0.472-0.815c-0.088-0.583-0.097-1.111-0.08-1.47C43.687,47.241,41.417,47.568,41.145,48.024z"
		/>
	<path fill="#1A1A1A" d="M57.506,38.944c0.039-0.295,0.039-0.56,0-0.799c-0.152,0.063-0.376,0.208-0.664,0.488
		C57.059,38.713,57.273,38.816,57.506,38.944z"/>
	<path fill="#1A1A1A" d="M55.645,38.29c0.023,0,0.047,0,0.07,0.016c0.448-0.56,0.855-0.879,1.199-1.055
		c-0.016-0.016-0.031-0.032-0.057-0.047l0.576-0.832C56.658,36.674,56.139,37.426,55.645,38.29z"/>
	<path fill="#1A1A1A" d="M67.84,58.67c-0.057-0.04-0.129-0.08-0.199-0.128c0.088,0.095,0.176,0.183,0.264,0.278
		c0.216,0.119,0.512,0.217,0.879,0.312C68.423,59.014,68.111,58.861,67.84,58.67z"/>
	<path fill="#1A1A1A" d="M71.539,60.7c-0.79-0.097-1.51-0.209-2.135-0.328c1.416,1.446,2.808,2.821,3.365,3.315
		c0.248,0.207,0.607,0.447,0.977,0.695c0.136,0.088,0.264,0.176,0.393,0.264c-0.607-0.975-1.337-2.094-2.207-3.355
		C71.779,61.051,71.65,60.867,71.539,60.7z"/>
	<path fill="#1A1A1A" d="M67.128,51.173c-0.176,0.367-0.392,0.703-0.672,0.976c-0.615,0.606-1.397,0.91-2.351,0.943
		c-0.056,0.256-0.176,0.486-0.367,0.688c-0.118,0.136-0.295,0.318-0.486,0.543c-0.32,0.367-0.712,0.808-1.15,1.264
		c1.83,0.288,4.891,1.182,6.354,2.205c1.574,1.119,6.539,0.982,8.432,0.504c0.695-0.177,0.992-0.439,1.096-0.584
		c0,0-0.016,0-0.023,0c-0.574,0-1.91-0.814-5.914-3.438C70.173,53.043,68.256,51.779,67.128,51.173z"/>
	<path fill="#1A1A1A" d="M77.143,59.325c-0.808,0.223-2.381,0.397-4.061,0.397c-0.256,0-0.535,0-0.799-0.016
		c1.767,0.2,3.818,0.368,5.865,0.527l1.278,0.096c2.479,0.209,2.733-0.288,2.733-0.288c0.064-0.159-0.215-0.976-2.254-2.493
		c-1.318-0.975-4.012-2.453-6.547-3.691c1.928,1.264,4.174,2.711,4.629,2.781l0,0c0.679,0,1.048,0.439,1.104,0.863
		C79.165,58.094,78.708,58.925,77.143,59.325z"/>
	<path fill="#1A1A1A" d="M61.206,42.965c1.206-0.216,2.532-0.425,3.341-0.392c0.84-0.065,1.661,0.167,2.253,0.615
		c3.413-0.632,7.106-4.228,7.153-4.276c0.186-0.224,0.216-0.375,0.208-0.416c-0.527-0.878-6.347-0.64-10.198,0
		c0.247,0.384,0.416,0.767,0.463,1.127c0.081,0.504-0.062,0.936-0.398,1.222C63.3,41.487,62.252,42.317,61.206,42.965z"/>
	<path fill="#1A1A1A" d="M61.148,48.663c-0.03,0.176-0.088,0.352-0.184,0.511c0.08,0.065,0.152,0.128,0.208,0.176
		c0.136,0.128,0.367,0.312,0.632,0.528c0.359,0.279,0.768,0.607,1.135,0.95c0.088-0.12,0.096-0.217,0.096-0.248
		C63.02,50.117,62.293,49.399,61.148,48.663z"/>
	<path fill="#1A1A1A" d="M57.05,44.571c0.048-0.007,0.104-0.016,0.152-0.016c0.022-0.111,0.055-0.216,0.095-0.304
		C57.218,44.347,57.13,44.459,57.05,44.571z"/>
	<path fill="#1A1A1A" d="M57.666,43.788c0.039-0.032,0.088-0.08,0.135-0.111c-0.008,0-0.023,0-0.031-0.016
		C57.736,43.708,57.697,43.749,57.666,43.788z"/>
	<path fill="#1A1A1A" d="M55.764,46.217c0.975,0.065,3.021,1.343,4.323,2.278c0.04-0.151,0.04-0.311,0.022-0.448
		c-1.135-0.615-2.572-1.43-2.885-2.429c-0.455,0.023-1.189,0.216-1.447,0.551C55.771,46.177,55.764,46.202,55.764,46.217z"/>
	<path fill="#1A1A1A" d="M88.076,38.026c0.007,0.216-0.065,0.471-0.281,0.711c-0.238,0.272-0.551,0.655-0.902,1.103
		c-0.248,0.32-0.543,0.687-0.847,1.055c1.445-0.832,2.877-1.503,3.572-1.359c0.256,0.048,0.463,0.184,0.565,0.4
		c0.457,0.822-0.078,2.653-1.015,4.251c2.485-0.839,6.603-3.756,6.874-4.82C95.686,38.753,91.279,38.162,88.076,38.026z"/>
	<path fill="#1A1A1A" d="M15.739,74.294c0.183-1.287,0.839-2.692,1.438-3.556c0.056-0.44,0.112-0.881,0.168-1.247
		c0.191-1.185,1.351-2.64,2.717-4.013c-1.591,0.703-3.029,1.183-3.581,1.23c-0.344,0.032-0.647,0.039-0.967,0.039
		c-2.989,3.701-4.755,7.152-4.116,8.064C12.118,75.837,14.524,75.046,15.739,74.294z"/>
	<path fill="#1A1A1A" d="M79.7,38.33c-0.849,0.912-1.791,1.758-2.774,2.445c1.545,0.121,2.901,0.44,3.342,1.048
		c0.224,0.319,0.256,0.695,0.063,1.038c-0.19,0.384-0.383,0.704-0.593,1.023c0.426,0.063,0.855,0.151,1.328,0.248
		c0.336-0.167,0.695-0.407,1.047-0.679v-0.007c0-0.009,0.048-0.041,0.119-0.088c1.398-1.136,2.813-2.902,3.828-4.188
		c0.344-0.424,0.641-0.8,0.888-1.087C86.148,37.554,81.794,37.331,79.7,38.33z"/>
	<path fill="#1A1A1A" d="M49.642,75.421c0-0.063-0.009-0.128-0.009-0.176h0.056c0.016-0.05,0.024-0.08,0.024-0.128
		c-0.232-0.551-0.424-1.088-0.567-1.582c-0.336,0.861-0.751,1.639-1.248,2.27c-1.494,1.895-1.861,2.926-2.077,3.532
		c-0.167,0.447-0.311,0.849-0.824,1.071c-0.104,0.031-0.2,0.056-0.311,0.056c-0.296,0.009-0.623-0.176-0.983-0.511
		c-0.4-0.376-0.808-0.969-1.152-1.655c-0.319,3.165,0.056,7.704,1.415,9.397c0.376,0.457,0.783,0.674,1.263,0.641
		c0.943-0.16,1.04-0.768,1.023-1.998c0-0.199,0-0.383,0.007-0.543c0.024-0.576,0.729-2.638,1.895-5.97
		C48.722,78.193,49.401,76.252,49.642,75.421z"/>
	<path fill="#1A1A1A" d="M40.521,13.242c1.327,0.42,2.135,0.808,2.966,1.746c0.24-2.929,0.887-5.378,1.59-6.997
		c-1.136-5.279-2.837-5.135-3.661-5.063C40.658,3.399,40.354,9.29,40.521,13.242z"/>
	<path fill="#1A1A1A" d="M55.229,86.354c-0.104,0.049-0.232,0.08-0.385,0.08c-0.224,0-0.472-0.062-0.775-0.271
		c-0.15-0.096-0.303-0.239-0.463-0.415c-0.543,3.077-1.088,5.771-1.67,6.683c-0.207,0.334-0.479,0.559-0.793,0.67
		c0.729,2.846,1.512,4.379,2.353,4.563c0.63-1.056,1.726-7.345,1.981-10.837C55.387,86.65,55.309,86.498,55.229,86.354z"/>
	<path fill="#1A1A1A" d="M17.8,57.583c-0.288,0.017-0.599,0.031-0.911,0.031c-1.862,0-3.924-0.271-5.738-0.673
		c-1.798,1.104-4.724,5.724-4.683,6.482c0.207,0.455,0.999,0.896,5.034,0.711C12.478,61.643,15.57,59.134,17.8,57.583z"/>
	<path fill="#1A1A1A" d="M18.12,12.65c-0.216,0.128-0.319,0.304-0.383,0.572c-0.272,1.31,1.159,4.076,2.725,6.325
		c1.375,0.32,2.597,0.776,3.165,1.219c0.439-0.011,0.911,0.084,1.366,0.193c0.656,0.151,1.91,0.586,3.317,1.166
		c-1.198-1.71-2.005-3.385-2.533-4.903c-0.36-0.3-0.751-0.628-1.159-0.979C22.571,14.485,19.486,11.835,18.12,12.65z"/>
	<path fill="#1A1A1A" d="M45.35,89.393C45.294,89.4,45.229,89.4,45.182,89.4c-0.815,0-1.503-0.359-2.054-1.049
		c-0.16-0.19-0.295-0.422-0.432-0.67c-0.495,1.286-0.95,2.285-1.357,3.068c0.799,2.189,2.676,3.916,3.348,4.188
		c0.376-0.758,0.799-3.819,0.783-5.578C45.422,89.375,45.389,89.393,45.35,89.393z"/>
	<path fill="#1A1A1A" d="M86.518,70.816c-0.017-0.016-0.024-0.016-0.031-0.031c0.007,0.017,0.007,0.031,0.016,0.041L86.518,70.816z"
		/>
	<path fill="#1A1A1A" d="M87.477,70.657c1.056-0.159,2.502-0.384,3.748,0.185c0.455,0.2,0.735,0.239,0.896,0.231
		c-0.416-0.335-0.911-1.087-1.688-2.286c-0.646-1.023-1.463-2.27-2.015-2.766c-0.265,0.017-0.512,0.017-0.733,0.017
		c-0.112,0-0.217,0-0.32,0c0.688,0.879,1.016,1.55,0.935,1.981c-0.079,0.479-0.271,0.823-0.575,1.039
		c-0.238,0.168-0.519,0.225-0.8,0.225c-0.263,0-0.534-0.049-0.79-0.096c-0.185-0.033-0.367-0.072-0.552-0.08
		c-0.056,0-0.12-0.01-0.208-0.01c0.376,0.496,0.76,1.063,1.087,1.655C86.629,70.785,87.107,70.705,87.477,70.657z"/>
	<path fill="#1A1A1A" d="M78.965,83.35c0.223-0.879-1.23-4.938-2.492-7.881c0.485,1.504,0.606,2.861-0.13,3.613
		c-0.263,0.255-0.639,0.383-1.127,0.383c-0.03,0-0.071,0-0.128,0c-1.422-0.062-3.972-1.294-6.218-3.037
		c2.325,2.398,6.489,5.852,8.991,6.762C78.484,83.404,78.82,83.396,78.965,83.35z"/>
	<path fill="#1A1A1A" d="M63.18,89.775c1.03,1.629,1.822,2.517,2.223,2.845c0.145-0.623,0.305-2.286,0.287-4.093
		c-0.91-0.807-1.83-1.887-2.717-3.084C63.102,87.042,63.195,88.527,63.18,89.775z"/>
	<path fill="#1A1A1A" d="M61.613,92.292c0.199-0.022,0.822-0.599,0.256-7.248c-0.057-0.552-0.096-1.017-0.104-1.312
		c-1.439-2.157-2.693-4.396-3.511-5.931c-0.088,0.654-0.207,1.246-0.397,1.671c-0.049,0.088-0.098,0.168-0.146,0.231
		c0.009,3.036-0.504,4.987-1.591,6.024c0.097,0.271,0.248,0.576,0.434,0.912l0,0l0,0C57.801,88.896,60.566,92.396,61.613,92.292z"/>
	<path fill="#1A1A1A" d="M67.111,76.061c0.888,2.767,1.502,4.972,1.943,6.729c2.483,2.966,6.864,4.429,7.76,4.5
		c0.144-0.399,0.049-1.886-0.631-3.731C73.178,81.927,68.967,78.273,67.111,76.061z"/>
	<path fill="#1A1A1A" d="M68.773,88.928c0.304-0.512,0.121-3.709-2.66-12.467c-0.143,0.039-0.303,0.079-0.465,0.079
		c-0.455,0-0.976-0.169-1.582-0.479c-0.207,0.289-0.471,0.526-0.791,0.672c-0.271,0.111-0.551,0.184-0.863,0.184
		c-1.143,0-2.572-0.854-4.251-2.549c0.063,0.383,0.104,0.783,0.128,1.175C60.366,79.855,66.177,89.535,68.773,88.928z"/>
	<path fill="#1A1A1A" d="M65.33,16.682c-0.023,0.808-0.033,1.483-0.049,2.014c0.951-1.034,1.895-1.965,2.742-2.641
		c0.326-1.303,0.016-5.978-0.545-8.359c-0.111-0.436-0.271-0.707-0.432-0.715c-0.312-0.024-0.936,0.547-1.238,1.118
		c0.041,0.308-0.063,0.708-0.19,1.195C65.441,9.933,65.369,14.157,65.33,16.682z"/>
	<path fill="#1A1A1A" d="M70.293,22.233c-0.367,2.046-0.775,4.295-1.559,5.993c0.455-0.167,0.902-0.343,1.357-0.486
		c0.104-0.137,0.271-0.304,0.496-0.513c0.566-0.966,0.543-3.624,0.527-5.23l-0.01-0.743c0-1.387,0.447-2.637,1.023-4.216
		c0.176-0.492,0.36-0.996,0.544-1.559c0.177-0.515,0.111-0.667,0.111-0.667c-0.16-0.051-0.847,0.18-1.591,0.667
		c0.08,0.089,0.152,0.193,0.209,0.309c0.392,0.695,0.486,1.886-0.192,2.825C70.854,19.124,70.589,20.634,70.293,22.233z"/>
	<path fill="#1A1A1A" d="M8.097,45.083C10,45.818,15.066,47.8,16.489,47.32l0.024,0.056c0.416-0.248,0.776-0.455,1.064-0.615
		c-0.033-0.209-0.049-0.457-0.024-0.729c0.104-1.43,2.342-2.318,4.179-2.813c-1.965-0.583-4.363-1.623-7.24-3.141
		c-3.253,0.656-8.137,2.374-8.24,3.438c-0.072,0.759-0.009,0.982,0.016,1.031c-0.016-0.024,0.079-0.024,0.135-0.008
		c0.105,0.008,0.225,0.024,0.353,0.049C6.938,44.626,7.298,44.763,8.097,45.083z"/>
	<path fill="#1A1A1A" d="M19.942,56.145c0.007-0.039,0.007-0.063,0.016-0.111c0.128-0.607,0.655-1.199,1.422-1.76
		c-0.927-0.03-1.949-0.159-2.917-0.271c-0.848-0.095-1.663-0.207-2.158-0.207c-1.775,0-4.165-0.168-4.5-1.719
		c-0.072-0.344,0.088-0.76,0.408-1.19c-2.334,0.816-4.78,2.878-4.962,3.599C8.122,55.281,16.266,57.415,19.942,56.145z"/>
	<path fill="#1A1A1A" d="M59.911,35.524c0.104,0.032,0.198,0.072,0.304,0.112c1.184,0.536,2.197,1.215,2.941,1.926
		c0.949-0.152,3.787-0.576,6.457-0.68h-0.008c2.029-1.023,5.586-7.417,5.402-9.08c-1.312-0.591-11.101,3.142-13.777,5.259
		C60.751,34.045,60.287,34.933,59.911,35.524z"/>
	<path fill="#1A1A1A" d="M80.866,28.579c0.536-0.672,2.766-5.343,3.261-6.466c0.191-0.431,0.176-0.806,0.111-0.918
		c-0.03-0.044-0.159-0.044-0.199-0.044c-0.799,0.035-3.796,0.962-5.348,1.773c0.072,0.165,0.104,0.325,0.113,0.4
		c0.135,1.15-0.607,4.351-1.6,6.973C78.357,29.689,79.62,29.059,80.866,28.579z"/>
	<path fill="#1A1A1A" d="M76.494,45.713c1.271-0.855,2.104-1.83,2.895-3.333C79.005,41.869,75,41.525,71.9,41.965
		c-1.248,0.862-2.789,1.742-4.356,2.149c0.112,0.248,0.177,0.503,0.185,0.792c0.008,0.104,0.024,0.271,0.031,0.463
		c0.081,0.912,0.217,2.573-0.072,4.132C71.02,49.03,75.495,46.393,76.494,45.713z"/>
	<path fill="#1A1A1A" d="M85.902,31.032c-0.2,0.08-0.568,0.192-0.633,0.288c-0.071,0.095-0.145,0.255-0.248,0.432
		c-0.438,0.815-1.166,2.109-2.414,2.582c-0.397,0.774-0.949,1.63-1.621,2.5c1.095-0.223,2.373-0.311,3.548-0.271
		c1.903-0.816,6.555-5.699,7.129-6.825c-0.535-0.249-2.612-0.249-4.556,0.304C87.021,30.648,86.325,30.897,85.902,31.032z"/>
	<path fill="#1A1A1A" d="M88.229,56.191c-0.008,0-0.018,0.017-0.024,0.023c1.606,0.057,4.987-0.664,6.307-1.207
		c0.2-0.088,0.392-0.152,0.567-0.207c0.639-0.24,0.646-0.24,0.646-0.76c-0.406-0.861-7.152-4.053-9.728-4.053
		c-0.017,0.008-0.017,0.017-0.022,0.017c-0.832,0.527-1.8,1.149-2.966,1.726c2.365,0.447,5.562,1.392,5.962,2.854
		C89.082,54.993,89.051,55.602,88.229,56.191z"/>
	<path fill="#1A1A1A" d="M73.841,15.092c-0.022,0.216-0.063,0.455-0.159,0.724c-0.176,0.567-0.375,1.09-0.552,1.585
		c-0.534,1.482-0.959,2.653-0.959,3.853l0.009,0.727c0.023,1.463,0.008,2.857-0.146,3.997c1.286-1.063,2.926-2.254,4.253-2.938
		c0.814-1.066,1.287-6.081,1.51-8.515c0.088-0.932,0.153-1.606,0.209-1.894c0.049-0.216,0.096-0.408,0.137-0.58
		c0.15-0.62,0.158-0.755,0.006-0.931C77.422,11.315,74.96,13.574,73.841,15.092z"/>
	<path fill="#1A1A1A" d="M85.207,57.936c-0.92,0.422-1.751,0.727-2.391,0.91c0.607,0.879,0.424,1.357,0.352,1.573
		c-0.119,0.328-0.375,0.567-0.768,0.735c1.679,1.463,2.998,2.693,3.957,3.732c1.471,0.336,6.267-0.209,6.912-0.927
		c-0.15-0.608-2.006-2.206-3.996-3.63c-0.008,0-0.008,0-0.008,0v-0.007C87.779,59.261,86.213,58.316,85.207,57.936z"/>
	<path fill="#1A1A1A" d="M33.336,57.854c-0.703,0.193-1.438,0.336-2.174,0.465c-1.303,1.463-3.117,2.59-4.931,3.438
		c-2.27,2.732-4.076,5.617-3.956,6.312c0.024,0.129,0.041,0.209,0.056,0.257c0.088-0.017,0.216-0.048,0.32-0.081
		c0.304-0.079,0.703-0.191,1.215-0.271l0.439-0.057c3.805-0.535,5.339-0.951,5.914-1.255c-0.319-0.999,0.528-2.501,1.487-3.916
		C31.099,61.092,31.962,59.389,33.336,57.854z"/>
	<path fill="#1A1A1A" d="M65.938,75.374c1.096-0.929-0.504-6.843-1.797-10.007c-1.023-0.561-1.929-1.088-2.688-1.6
		c1.639,3.35,3.182,7.049,3.324,8.769c0.089,0.983,0,1.86-0.23,2.55C65.209,75.453,65.723,75.564,65.938,75.374z"/>
	<path fill="#1A1A1A" d="M16.394,65.639c0.711-0.049,3.349-1.055,5.459-2.229c-0.488,0.15-0.911,0.264-1.239,0.359l-0.392,0.11
		c-0.648,0.192-1.398,0.319-2.11,0.319c-0.799,0-1.542-0.159-2.021-0.535c-0.384-0.312-0.591-0.743-0.567-1.247
		c0.047-0.918,0.958-2.181,2.014-3.315c-2.662,1.998-5.571,4.748-5.259,6.824l0.007,0.064l-0.007,0.048c0,0.017,0,0.03,0,0.048
		c0.048-0.023,0.088-0.031,0.128-0.048c0.176-0.048,0.383-0.112,0.615-0.177c0.743-0.185,1.406-0.19,2.11-0.176
		C15.523,65.688,15.938,65.688,16.394,65.639z"/>
	<path fill="#1A1A1A" d="M97.729,56.919c-0.047-0.312-0.854-0.942-2.309-1.11c-0.16,0.047-0.312,0.111-0.513,0.191
		c-0.048,0.016-3.796,1.271-6.33,1.271c-0.623,0-1.175-0.088-1.573-0.279c-0.199,0.111-0.385,0.224-0.583,0.318
		c0.927,0.479,2.108,1.199,3.284,2.016c1.831,0.525,5.051-0.92,6.802-1.711c0.327-0.145,0.599-0.271,0.839-0.368
		C97.538,57.15,97.746,57.023,97.729,56.919z"/>
	<path fill="#1A1A1A" d="M8.857,30.544c0.095,0.265,0.327,0.648,0.703,0.967c0.368,0.32,0.783,0.824,1.278,1.407
		c0.729,0.855,1.935,2.293,2.511,2.333L13.34,35.3c1.343-0.416,2.957-0.8,4.428-0.992c1.838-0.256,4.363,0.128,6.801,0.655
		c-1.238-1.134-2.509-2.669-3.572-4.131c-2.182-1.382-5.907-0.839-8.625-0.439C10.512,30.665,9.457,30.809,8.857,30.544z"/>
	<path fill="#1A1A1A" d="M32.77,13.233c-0.352-0.775-1.055-1.21-1.238-1.154c-0.056,0.012-0.296,0.364-0.104,1.614l0.143,1.039
		c0.353,2.45,0.632,4.32,1.719,5.782c0.104-0.212,0.24-0.392,0.416-0.523c0.855-0.655,2.062-0.081,2.901,0.404
		c1.111,0.555,2.246,1.407,3.341,2.421c-0.216-1.083-0.52-2.386-0.792-3.58c-0.063-0.296-0.128-0.572-0.191-0.835
		c-1.136-1.598-2.646-2.486-3.853-3.197C34.056,14.588,33.145,14.053,32.77,13.233z"/>
	<path fill="#1A1A1A" d="M39.339,13.129c-0.535-0.747-1.615-1.538-2.414-2.133c-0.423-0.308-0.743-0.548-0.951-0.743
		c-0.239-0.228-0.511-0.348-0.606-0.296c-0.041,0.017-0.68,0.396-0.24,4.024c0.168,0.097,0.344,0.2,0.52,0.3
		c0.871,0.515,1.886,1.122,2.854,1.993c-0.128-0.592-0.2-0.987-0.2-1.17c0-0.5,0-1.343,0.607-1.787
		C39.036,13.217,39.187,13.166,39.339,13.129z"/>
	<path fill="#1A1A1A" d="M29.198,3.907c-0.384,1.104,0.351,7.396,1.118,9.419c-0.128-1.595,0.399-2.126,0.912-2.271
		c0.902-0.275,2.045,0.68,2.518,1.738c0.055,0.104,0.136,0.204,0.223,0.304C33.8,11.016,34,9.753,34.616,9.202
		C31.124,4.646,29.765,3.879,29.198,3.907z"/>
	<path fill="#1A1A1A" d="M26.671,16.575c0.016,0.012,0.024,0.02,0.04,0.032l-0.016,0.024c0.591,1.833,1.694,4.047,3.636,6.39
		c1.238,0.576,2.438,1.218,3.364,1.842c-0.095-0.316-0.191-0.627-0.263-0.955c-0.208-0.787-0.328-1.451-0.36-2.005
		c-1.79-1.787-2.142-4.1-2.557-6.994l-0.368-0.3c-0.847-0.683-3.412-2.741-4.02-2.561C25.984,12.715,25.969,14.373,26.671,16.575z"
		/>
	<path fill="#1A1A1A" d="M13.372,22.169c-0.239,0.3,0,0.899,0.16,1.231c1.12,2.293,3.069,4.915,3.549,5.475
		c0.976,0,1.935,0.112,2.83,0.351c-0.744-1.15-1.264-2.118-1.383-2.544c-0.063-0.228-0.128-0.44-0.191-0.641
		c-0.136-0.467-0.256-0.89-0.256-1.278c-0.383-0.523-1.134-1.271-1.814-1.934c-0.383-0.384-0.703-0.704-0.952-0.967
		C14.636,21.753,13.66,21.798,13.372,22.169z"/>
	<path fill="#1A1A1A" d="M17.017,22.062c0.567,0.551,1.134,1.11,1.566,1.614c0.152-0.1,0.335-0.191,0.56-0.251
		c0.894-0.244,2.541,0.515,3.868,1.266c-0.384-0.675-0.648-1.215-0.72-1.519c-0.144-0.615-0.248-1.357,0.144-1.882
		c-1.494-0.667-5.347-1.539-6.753-1.007c-0.041,0.012-0.184,0.072-0.216,0.125C15.634,20.699,16.434,21.486,17.017,22.062z"/>
	<path fill="#1A1A1A" d="M63.898,3.567c-0.16,0.004-0.566,0.176-0.975,0.963c-0.304,0.568-0.822,1.327-1.408,2.206
		c-1.029,1.502-2.277,3.353-2.564,4.483c0.216,0.651,0.416,1.287,0.561,1.891c1.246-2.177,3.182-4.871,4.555-5.531
		c0.145-0.067,0.289-0.108,0.416-0.135c-0.008-1.299-0.15-3.041-0.352-3.645C64.1,3.719,64.043,3.583,63.898,3.567z"/>
	<path fill="#1A1A1A" d="M59.352,15.871L59.352,15.871c0.017,0.056,0.024,0.1,0.031,0.152c0.01,0.192,0.065,0.643,0.112,1.267
		c0.36,3.796,0.601,6.682,0.592,8.168c0.687-1.175,2.302-3.384,4.084-5.487c0.032-0.423,0.058-1.881,0.08-3.309
		c0.08-3.9,0.144-6.933,0.312-7.584c0.072-0.24,0.129-0.451,0.151-0.6c-0.04,0.009-0.112,0.028-0.185,0.064
		C62.844,9.354,59.773,14.46,59.352,15.871z"/>
	<path fill="#1A1A1A" d="M46.955,6.872c-0.639,0.527-2.229,4.017-2.46,9.155c0.559,0.616,1.254,1.471,1.909,2.562
		c0.409-2.01,1.431-4.351,2.302-6.321c0.144-0.309,0.264-0.604,0.384-0.892l-0.081-0.22C47.811,8.023,47.227,7.112,46.955,6.872z"/>
	<path fill="#1A1A1A" d="M55.604,5.805c-0.151-0.423-0.279-0.607-0.336-0.695c-0.392,0.4-0.896,2.166-1.07,2.773l-0.008,0.036
		c0.695,1.363,1.278,3.676,0.935,5.407c-0.063,0.344,0.024,1.062,0.121,1.822c0.063,0.495,0.127,1.035,0.167,1.602
		c0.264-0.427,0.52-0.767,0.688-0.95c0.271-0.288,0.48-0.647,0.664-0.955c0.303-0.528,0.655-1.124,1.303-0.979
		c0.216,0.044,0.399,0.151,0.56,0.292c-0.239-1.702-1.174-3.896-1.989-5.85C56.251,7.432,55.898,6.58,55.604,5.805z"/>
	<path fill="#1A1A1A" d="M47.276,20.239c0.215,0.488,0.408,1.031,0.575,1.59c0.472-0.711,1.04-1.339,1.726-1.87
		c0.208-0.152,0.639-0.336,1.343,0.023c0.616,0.335,1.318,1.004,1.975,1.979c0.344-1.015,0.871-2.202,1.424-3.266
		c0.15-1.07,0-2.321-0.129-3.416c-0.129-0.923-0.217-1.65-0.121-2.163c0.408-2.03-0.728-4.882-1.229-5.342
		c-0.815,0.152-1.583,1.127-2.262,2.83c-0.239,0.615-0.552,1.331-0.887,2.098c-1.087,2.446-2.43,5.491-2.397,7.537H47.276z"/>
	<path fill="#1A1A1A" d="M52.902,1.973c-0.783,0.756-2.935,6.422-3.229,7.944c0.009,0.016,0.016,0.032,0.016,0.044
		c0.855-2.034,1.911-3.149,3.149-3.273c0.191-0.012,0.359,0.064,0.535,0.184c0.337-1.075,0.656-1.938,1.079-2.434
		C54.27,2.152,53.484,1.98,52.902,1.973z"/>
	<path fill="#1A1A1A" d="M74.784,7.2c-0.687,0.144-3.069,2.066-5.626,5.027c0.072,1.127,0.088,2.202,0.04,3.037
		c0.319-0.168,0.592-0.244,0.84-0.26c0.782-0.616,2.437-1.655,3.348-1.059c0.288-0.34,0.664-0.756,1.071-1.18l-0.016-0.007
		C75.168,10.849,75.128,7.847,74.784,7.2z"/>
	<path fill="#1A1A1A" d="M50.017,91.166c0.088,0.591,0.36,0.919,0.583,0.975c0.199,0.032,0.352-0.16,0.433-0.287
		c0.573-0.902,1.278-4.938,1.686-7.258c-1.11-1.701-2.237-4.348-2.772-6.681c-0.209,0.64-0.464,1.374-0.776,2.254
		c-0.719,2.077-1.694,4.858-1.823,5.546c0.097,0.159,0.208,0.354,0.353,0.6C48.73,88.072,49.841,90.029,50.017,91.166z"/>
	<path fill="#1A1A1A" d="M36.966,79.449c0.335-1.135,3.875-3.98,4.755-4.637c0.016-0.592,0.112-1.189,0.32-1.773
		c-0.671-1.742-1.231-4.123-1.519-7.113c-0.12,0.112-0.248,0.192-0.375,0.297c-0.375,1.016-1.846,3.411-3.508,6.002l0.032,0.016
		c-0.966,2.23-1.926,6.234-1.254,7.674c0.151,0.335,0.32,0.416,0.432,0.447C36.358,80.424,36.766,80.12,36.966,79.449z"/>
	<path fill="#1A1A1A" d="M55.986,80.408c-1.238,0-2.373-0.432-3.412-1.264c-0.646-0.511-1.207-1.158-1.67-1.838
		c0.695,3.563,3.125,7.992,3.938,8.071c1.136-0.526,1.728-2.188,1.8-5.034C56.41,80.376,56.193,80.408,55.986,80.408z"/>
	<path fill="#1A1A1A" d="M11.119,39.856c0.718-0.224,1.406-0.408,1.958-0.544c-0.112-0.063-0.224-0.126-0.344-0.191
		c-0.248-0.135-0.415-0.223-0.504-0.279l-0.319-0.16c-0.783-0.392-1.535-0.776-1.574-1.431c-0.024-0.367,0.176-0.671,0.567-0.943
		c0.272-0.176,0.671-0.367,1.15-0.56c-0.615-0.479-1.27-1.23-2.037-2.141c-0.081-0.097-0.16-0.193-0.248-0.288
		c-2.797-0.056-5.099,0.559-5.443,1.182c-0.024,0.049-0.088,0.16,0.088,0.416C5.564,36.579,9.648,39.6,11.119,39.856z"/>
	<path fill="#1A1A1A" d="M85.512,80.089c0.422-0.496-1.049-3.373-3.55-6.371c-1.591-0.216-3.245-0.694-4.412-1.541
		c-0.264,0.271-0.614,0.526-1.135,0.654c0.495,0.992,1.278,2.75,2.006,4.596C81.322,79.521,85.055,80.648,85.512,80.089z"/>
	<path fill="#1A1A1A" d="M94.948,49.918c-2.382-1.655-5.554-3.845-6.794-4.309c-0.039,0.048-0.088,0.112-0.127,0.16
		c0.359,0.225,0.646,0.56,0.76,0.976c0.16,0.567,0.016,1.422-1.359,2.341c3.029,0.616,7.625,2.837,8.887,4.061
		c0.129,0.137,0.226,0.256,0.305,0.375c1.623,0.08,2.343-0.256,2.455-0.584c0.07-0.19-0.049-0.422-0.137-0.502
		C98.585,52.402,97.971,51.996,94.948,49.918z"/>
	<path fill="#1A1A1A" d="M77.453,68.557c0.432,1.047,0.646,1.949,0.553,2.637c2.223,1.799,7.057,1.75,8.04,1.463
		c-0.009-0.328-0.337-1.471-2.054-3.596C80.771,68.979,78.701,68.818,77.453,68.557z"/>
	<path fill="#1A1A1A" d="M38.572,92.572c0.448-0.032,1.742-1.415,3.524-6.338c-0.912-2.934-0.871-7.217-0.376-9.614
		c-0.583,0.526-1.303,1.263-1.542,1.741c-0.432,0.912-2.583,3.246-3.852,4.349C36.118,85.348,37.668,92.229,38.572,92.572z"/>
	<path fill="#1A1A1A" d="M35.926,81.423c-0.104,0-0.191,0-0.295-0.024c-0.576-0.16-0.952-0.51-1.191-1.029
		c-0.528-1.159-0.328-3.125,0.095-4.947c-0.151,0.191-0.335,0.385-0.543,0.592v0.016c-1.191,1.791-3.861,8.393-3.485,9.304
		c0.52,0.146,2.885-1.71,3.661-2.312c0.408-0.318,0.768-0.599,0.991-0.742c0.248-0.176,0.623-0.494,1.046-0.896
		C36.11,81.398,36.023,81.423,35.926,81.423z"/>
	<path fill="#1A1A1A" d="M7.53,52.5c1.447-1.318,3.916-2.806,6.001-2.99c0.457-0.399,0.96-0.783,1.471-1.134
		c-1.734-0.256-4.156-1.087-6.649-2.046c-2.869,0.687-7.425,2.757-7.448,3.556C1.049,50.732,4.917,52.243,7.53,52.5z"/>
	<path fill="#1A1A1A" d="M25.593,79.161c-0.184-0.575-0.216-1.304-0.056-2.246c0.24-1.366,1.079-3.173,2.039-4.897
		c-1.911,1.453-4.188,2.797-6.202,3.73l0.032,0.018c-1.087,1.573-2.238,6.385-1.838,7.023
		C20.158,82.958,23.811,80.952,25.593,79.161z"/>
	<path fill="#1A1A1A" d="M17.137,75.934c1.055,0.438,9.224-3.31,12.508-7.259c0.224-0.319,0.431-0.623,0.624-0.878
		c-0.112,0.049-0.24,0.079-0.368,0.127c-0.912,1.256-4.683,3.047-8.16,4.637c-0.576,0.271-1.007,0.463-1.215,0.574
		c-0.416,0.208-0.695,0.641-0.983,1.071c-0.32,0.504-0.664,1.022-1.263,1.135c-0.048,0-0.104,0.017-0.151,0.017
		c-0.225,0-0.424-0.096-0.576-0.256c-0.312-0.304-0.457-0.942-0.496-1.719c-0.265,0.792-0.391,1.559-0.256,2.096
		C16.889,75.788,17.042,75.885,17.137,75.934z"/>
	<path fill="#1A1A1A" d="M35.447,85.986l0.041,0.016c-0.128-0.927-0.208-1.789-0.24-2.469c-0.128,0.104-0.255,0.207-0.415,0.326
		c-1.799,1.406-3.31,2.512-4.332,2.512c-0.024,0-0.049-0.018-0.081-0.018c-0.392,1.574-0.295,3.805-0.024,4.349
		C31.41,90.454,35.071,87.537,35.447,85.986z"/>
	<path fill="#1A1A1A" d="M30.204,81.902c0.495-1.43,1.159-2.965,1.726-4.195c-0.831,0.607-1.718,1.214-2.534,1.768
		c-0.878,0.599-1.638,0.895-2.269,0.895c-0.2,0-0.376-0.039-0.56-0.104c-0.448,1.693-0.927,4.389-0.791,5.146
		C26.615,85.146,29.772,82.727,30.204,81.902z"/>
	<path fill="#1A1A1A" d="M36.11,21.334c-1.278-0.728-1.663-0.563-1.742-0.497c-0.097,0.065-0.504,0.52,0.095,2.797
		c1.039,3.945,2.542,6.95,3.429,8.148c3.277,0.687,6.634,3.693,8.112,5.307c0.335-0.32,0.624-0.511,0.646-0.527
		c0.168-0.144,0.776-0.513,1.567-0.896c-0.072-0.184-0.136-0.367-0.216-0.56l-0.032,0.024C47.907,35.029,41.681,24.107,36.11,21.334
		z"/>
	<path fill="#1A1A1A" d="M12.861,51.876c0.056,0.239,0.504,0.847,3.445,0.847c0.567,0,1.366,0.098,2.286,0.209
		c1.694,0.207,4.036,0.495,4.962,0.096l0.009,0.017c1.942-0.911,4.292-1.679,6.121-2.214c-2.053-0.327-4.699-1.015-7.496-1.758
		c-1.183-0.311-2.398-0.632-2.63-0.648c-0.663,0-1.182-0.191-1.526-0.559c-0.024-0.032-0.041-0.064-0.072-0.104
		C16.065,48.719,12.893,51.156,12.861,51.876z"/>
	<path fill="#1A1A1A" d="M26.592,77.091c-0.191,1.119-0.104,1.911,0.232,2.134c0.255,0.168,0.896,0.112,1.877-0.574
		c1.838-1.246,4.491-3.037,5.204-4.164l0.503-0.774c0.888-1.375,2.877-4.437,4.005-6.41c-1.487,0.673-2.974,0.832-3.989,0.832
		c-0.055,0-0.104,0-0.16,0c-0.959-0.009-1.893-0.159-2.622-0.392c-0.199,0.263-0.527,0.695-0.903,1.238l0.032,0.016
		c-0.079,0.111-0.183,0.225-0.263,0.328C29.054,71.473,26.959,74.989,26.592,77.091z"/>
	<path fill="#1A1A1A" d="M16.753,62.825c0.487,0.384,1.911,0.399,3.165,0.032l0.4-0.112c1.798-0.511,6.225-1.774,9.071-4.203
		c-1.438,0.144-2.829,0.19-3.965,0.19c-1.182,0-2.093-0.047-2.5-0.062c-0.065-0.009-0.152,0-0.248,0
		c-0.592,0.016-1.711,0.031-2.358-0.704c-1.646,1.351-3.676,3.501-3.717,4.509C16.585,62.626,16.625,62.729,16.753,62.825z"/>
	<path fill="#1A1A1A" d="M18.232,74.182c0.128-0.127,0.279-0.357,0.423-0.566c0.32-0.479,0.72-1.094,1.382-1.438
		c0.2-0.112,0.656-0.319,1.264-0.592c1.47-0.671,4.339-1.981,6.169-3.093c-0.831,0.15-1.83,0.312-3.004,0.479l-0.448,0.063
		c-0.448,0.071-0.799,0.168-1.079,0.239c-0.256,0.072-0.495,0.137-0.72,0.137c-0.168,0-0.328-0.032-0.479-0.128
		c-0.335-0.208-0.447-0.624-0.52-1.022c-0.144-0.863,0.76-2.494,1.791-3.996c-2.102,1.758-4.381,3.979-4.612,5.387
		C17.992,72.288,18.096,73.711,18.232,74.182z"/>
	<path fill="#1A1A1A" d="M40.377,49.687l-0.126-0.08c-0.695-0.423-0.92-1.359-0.927-2.43c-1.887,0.064-4.365,0.184-5.371,1.319
		c-0.376,0.407-0.52,0.936-0.472,1.606c0.056,0.639,0.208,2.574,0.729,2.981c0.16,0.119,0.383,0.136,0.855,0.063
		c0.039-0.008,3.117-0.487,4.818-0.199c0-0.288,0.024-0.575,0.137-0.848c0.319-0.783,1.07-1.295,1.758-1.615
		C41.305,50.246,40.834,49.958,40.377,49.687z"/>
	<path fill="#1A1A1A" d="M40.506,54.674c-0.151-0.209-0.264-0.424-0.36-0.632l-0.055,0.056c-0.056-0.031-0.161-0.062-0.304-0.097
		c-0.231,0.179-0.528,0.385-0.911,0.657c-2.223,1.564-7.417,5.201-6.098,7.928c0.288,0.592,0.687,0.928,1.222,1.023
		c1.807,0.352,4.827-1.84,6.377-3.215c0.056-1.652,0.185-3.42,0.425-5.289C40.698,54.962,40.609,54.825,40.506,54.674z"/>
	<path fill="#1A1A1A" d="M80.059,15.056c-0.494,0.296-0.935,0.556-1.31,0.771c-0.248,2.47-0.526,4.832-0.976,6.395
		c1.15-0.7,3.174-1.415,4.644-1.819c1.229-1.842,2.054-6.537,1.767-7.384C83.504,12.975,81.193,14.364,80.059,15.056z"/>
	<path fill="#1A1A1A" d="M50.152,20.843c-3.229,2.529-3.589,7.648-0.958,14.394c0.623-0.264,1.278-0.496,1.91-0.655
		c0.496-1.015,1.672-2.669,2.926-4.228c0.089-4.395-1.518-7.552-2.94-8.911C50.561,20.943,50.233,20.822,50.152,20.843z"/>
	<path fill="#1A1A1A" d="M62.102,27.18c-0.121-0.144-0.521-0.16-0.832-0.184c-0.392-0.023-0.791-0.032-1.086-0.264
		c-0.256-0.191-0.688-0.024-1.967,0.767c-1.07,0.655-4.438,4.62-5.787,6.906c0.36-0.008,0.695,0.032,0.961,0.16
		c0.526,0.231,0.838,0.703,0.846,1.334c0.018,0.695,0.104,1.542,0.201,2.365c0.791-1.454,1.934-3.461,4.41-3.053
		c0.721-1.062,2.719-5.059,3.237-7.184C62.229,27.42,62.133,27.228,62.102,27.18z"/>
	<path fill="#1A1A1A" d="M85.119,29.034c-1.936-0.687-5.803,1.359-8.128,2.574l-0.448,0.239c-0.057,0.097-0.096,0.209-0.145,0.312
		c2.484-0.887,5.131-1.447,6.219-0.952c0.367,0.16,0.599,0.457,0.662,0.815c0.023,0.144,0.009,0.312-0.016,0.497
		c0.353-0.432,0.623-0.92,0.822-1.28c0.121-0.223,0.217-0.399,0.297-0.527c0.271-0.384,0.751-0.544,1.166-0.688
		c0.145-0.048,0.368-0.111,0.487-0.183C85.846,29.466,85.542,29.187,85.119,29.034z"/>
	<path fill="#1A1A1A" d="M19.151,24.599c-0.088,0.148,0.08,0.695,0.216,1.131c0.056,0.208,0.135,0.436,0.2,0.68
		c0.329,1.234,4.404,7.261,7.098,8.811c0-0.024,0-0.04,0-0.063c0.032-0.855,0.463-1.583,1.262-2.079
		c0.311-0.191,0.671-0.335,1.055-0.448c-1.383-1.263-3.269-3.74-4.7-5.898c-1.278-0.923-4.116-2.474-4.858-2.277
		C19.254,24.507,19.167,24.559,19.151,24.599z"/>
	<path fill="#1A1A1A" d="M72.322,27.068c1.359-0.343,2.471-0.475,3.062-0.264c0.502,0.176,0.63,0.536,0.671,0.727
		c0.207,1.103-0.695,3.389-1.957,5.547c0.207-0.095,0.416-0.176,0.639-0.279c1.502-1.726,3.117-7.949,3.021-9.268
		C76.831,23.751,74.12,25.577,72.322,27.068z"/>
	<path fill="#1A1A1A" d="M75.616,67.174c-0.138,0.256-0.36,0.495-0.704,0.702c-0.721,0.424-1.646,0.616-2.621,0.616
		c-1.512,0-3.148-0.456-4.499-1.137c2.237,2.07,5.626,4.404,7.735,4.492c0.615,0.023,1.048-0.136,1.326-0.496
		C77.158,70.961,77.07,69.857,75.616,67.174z"/>
	<path fill="#1A1A1A" d="M87.948,54.865c-0.257-0.896-4.125-2.096-6.857-2.35c-1.64,0.592-3.581,1.006-5.946,1.039
		c2.197,1.118,4.308,2.334,5.412,3.141c0.623,0.472,1.103,0.888,1.469,1.255c0.824-0.16,3.35-1.009,5.572-2.621
		C87.716,55.232,87.971,55.033,87.948,54.865z"/>
	<path fill="#1A1A1A" d="M85.639,68.036c0.223,0.016,0.463,0.048,0.694,0.097c0.287,0.057,0.672,0.128,0.784,0.047
		c0.023-0.016,0.088-0.088,0.127-0.334c0-0.562-2.158-3.007-6.153-6.41c-0.192,0.017-0.376,0.017-0.601,0.017
		c-0.352,0-0.735-0.017-1.143-0.05l-1.287-0.104c-1.838-0.145-3.58-0.279-5.115-0.439c1.543,2.271,2.98,4.5,3.939,6.41l0,0
		c0.288,0.248,1.91,0.606,7.857,0.752C85.174,68.021,85.494,68.027,85.639,68.036z"/>
	<path fill="#1A1A1A" d="M82.873,44.219c-0.121,0.088-0.23,0.16-0.344,0.24c0.423,0.111,0.839,0.208,1.238,0.304
		c1.287,0.32,2.604,0.655,3.045,0.655c0.017,0,0.023,0,0.023,0c1.614-1.343,2.581-4.052,2.454-4.835
		C88.243,40.671,84.191,43.18,82.873,44.219z"/>
	<path fill="#1A1A1A" d="M82.4,28.091c1.144-0.295,2.205-0.367,3.076-0.063c0.545,0.191,0.983,0.527,1.297,0.998
		c0.767-0.215,1.678-0.392,2.58-0.464c0.336-0.327,1.15-1.229,1.758-1.921c1.08-1.203,1.744-1.946,2.07-2.206
		c0.504-0.4,1.184-1.016,1.463-1.831c-1.215-0.427-7.146-0.144-9.862,0.632C84.264,24.367,83.2,26.613,82.4,28.091z"/>
	<path fill="#1A1A1A" d="M86.9,36.228c-0.231,0.191-0.447,0.367-0.672,0.527c0.256,0.047,0.479,0.104,0.688,0.176
		c0.799,0.016,8.695,0.207,9.967,1.838c0.145,0.191,0.198,0.4,0.198,0.615c0.536-0.447,0.976-0.966,1.224-1.446
		C97.291,37.171,90.688,36.163,86.9,36.228z"/>
	<path fill="#1A1A1A" d="M44.646,79.354c0.04-0.047,0.081-0.16,0.16-0.375c0.223-0.641,0.648-1.799,2.254-3.828
		c2.253-2.861,2.557-9.399,2.35-12.629c-0.088-0.017-0.184-0.031-0.272-0.039c-0.192,2.598-1.184,13.818-3.916,14.162
		c-0.049,0.008-0.104,0.008-0.16,0.008c-0.353,0-0.839-0.145-1.375-0.688c-0.288-0.288-0.6-0.719-0.904-1.277
		c-0.063,1.351,0.432,2.549,0.695,3.094C43.919,78.666,44.414,79.201,44.646,79.354z"/>
	<path fill="#1A1A1A" d="M50.152,54.593c-0.032,0.05-0.056,0.081-0.088,0.128c0.009,0,0.024,0,0.032,0.018
		C50.112,54.689,50.128,54.643,50.152,54.593z"/>
	<path fill="#1A1A1A" d="M75.145,78.395c0.279,0.008,0.399-0.041,0.433-0.08c0.592-0.584-0.058-2.908-1.552-5.674
		c-2.868-0.912-6.394-3.772-8.215-5.755c0.646,1.878,1.438,4.571,1.525,6.649C69.598,76.141,73.418,78.314,75.145,78.395z"/>
	<path fill="#1A1A1A" d="M45.094,75.581c1.247-0.16,2.757-8.345,2.989-13.299c-0.624-0.185-1.079-0.433-1.351-0.815
		c-0.288-0.416-0.335-0.92-0.16-1.494c0.167-0.527,0.311-1.016,0.439-1.463c-0.032,0.032-0.056,0.049-0.079,0.08
		c-0.567,0.583-1.167,0.879-1.767,0.879c-0.056,0-0.112,0-0.168-0.009c-1.222-0.119-2.205-1.397-3.276-2.997
		c-1.055,9.959,0.896,16.92,2.725,18.75C44.693,75.469,44.925,75.598,45.094,75.581z"/>
	<path fill="#1A1A1A" d="M62.828,75.757c0.664-0.304,1.015-1.534,0.887-3.133c-0.247-2.99-5.146-12.581-6.625-14.379
		c-0.072-0.031-0.16-0.047-0.225-0.088c0.072,1.543-0.088,2.821-0.838,3.661c-0.553,0.623-1.383,0.927-2.454,0.927
		c-0.072,0-0.146,0-0.216,0l-0.289-0.009c-0.455-0.022-0.895-0.038-1.301-0.055c0.807,1.887,3.283,6.937,6.961,10.74
		C60.525,75.277,62.021,76.124,62.828,75.757z"/>
</g>
<g>
	<path fill="#B2B2B2" d="M21.005,56.256c-0.095,0.455-0.056,0.799,0.112,0.99c0.295,0.376,1.111,0.354,1.535,0.344
		c0.144-0.007,0.248-0.007,0.335,0c1.343,0.088,8.24,0.408,12.275-1.558c0.983-0.815,1.982-1.534,2.774-2.095
		c-0.904,0.031-1.935,0.129-2.813,0.271c-0.193,0.032-0.409,0.048-0.616,0.048c-0.375,0-0.727-0.079-1.062-0.336
		c-0.535-0.423-0.839-1.229-1.023-2.749C27.999,52.195,21.333,54.658,21.005,56.256z"/>
	<path fill="#B2B2B2" d="M26.376,43.58c-0.416,0.135-0.871,0.208-1.415,0.208c-0.223,0-0.471-0.016-0.711-0.048l0.009,0.048
		c-2.894,0.4-5.579,1.511-5.643,2.317c-0.023,0.344-0.007,0.8,0.208,1.024c0.135,0.16,0.375,0.223,0.734,0.223
		c0.32,0,1.127,0.216,2.909,0.688c2.565,0.687,8.392,2.253,9.951,1.886c-0.016-0.847,0.223-1.575,0.736-2.142
		c0.111-0.128,0.239-0.232,0.383-0.335C31.41,46.888,27.846,45.658,26.376,43.58z"/>
	<path fill="#B2B2B2" d="M73.49,40.751c0.471-0.032,0.958-0.032,1.47-0.049c3.965-1.958,7.466-7.32,7.267-8.511
		c-0.567-0.583-6.012,0.711-9.281,2.693c-0.551,0.768-1.103,1.454-1.637,1.982c1.814,0.056,3.332,0.351,3.765,1.103
		c0.206,0.335,0.312,0.911-0.353,1.679C74.673,39.712,74.21,40.16,73.49,40.751z"/>
	<path fill="#B2B2B2" d="M60.159,61.202c0.407,1.017,3.659,2.774,5.595,3.829c0.758,0.406,1.438,0.783,1.934,1.087
		c1.941,1.166,5.084,1.79,6.674,0.831c0.271-0.16,0.336-0.288,0.336-0.319c0.016-0.319-0.999-0.991-1.543-1.358
		c-0.406-0.265-0.782-0.527-1.086-0.783c-1.127-0.975-5.428-5.362-6.891-7.032c-1.67-0.562-3.451-0.929-4.06-0.911
		c-0.854,0.783-1.798,1.471-2.702,1.727c0.48,0.72,1.079,1.758,1.719,2.94L60.159,61.202z"/>
	<path fill="#B2B2B2" d="M61.325,25.93c0.513,0.028,1.215,0.06,1.631,0.611c0.304,0.407,0.353,0.975,0.176,1.742
		c-0.2,0.792-0.614,1.879-1.087,2.99c1.326-0.736,3.148-1.615,5.059-2.398c1.168-1.471,1.711-4.432,2.135-6.829
		c0.344-1.866,0.607-3.35,1.111-4.052c0.385-0.536,0.352-1.283,0.127-1.694c-0.088-0.147-0.19-0.251-0.264-0.244h-0.07l-0.064-0.007
		c-1.159-0.208-7.209,6.661-9.031,9.867C61.134,25.925,61.246,25.93,61.325,25.93z"/>
	<path fill="#B2B2B2" d="M39.54,14.181c-0.161,0.12-0.161,0.727-0.161,0.923c0,0.308,0.44,2.213,0.816,3.892
		c0.423,1.854,0.902,3.949,1.11,5.159c2.183,2.311,4.181,5.087,5.571,7.197c-0.72-3.197-0.632-5.938,0.239-8.104
		c-0.791-3.933-3.316-6.438-4.148-7.266c-0.128-0.123-0.216-0.216-0.272-0.283c-0.711-0.8-1.357-1.095-2.645-1.487
		C39.771,14.122,39.603,14.137,39.54,14.181z"/>
	<path fill="#B2B2B2" d="M58.312,16.099c-0.039-0.651-0.225-1.002-0.377-1.134c-0.062,0.107-0.166,0.283-0.248,0.419
		c-0.207,0.339-0.455,0.775-0.822,1.155c-0.646,0.667-2.829,4.675-3.213,6.725c0.734,1.53,1.312,3.5,1.431,5.833
		c1.032-1.182,2.007-2.165,2.583-2.513c0.463-0.295,0.918-0.567,1.342-0.759c0.088-1.443-0.392-6.455-0.574-8.432
		C58.377,16.754,58.328,16.291,58.312,16.099z"/>
	<path fill="#B2B2B2" d="M40.418,64.48c-0.048-0.84-0.072-1.735-0.063-2.662c-1.399,1.143-3.877,2.894-5.938,2.894
		c-0.216,0-0.416-0.009-0.607-0.049c-0.616-0.127-1.103-0.423-1.503-0.878c-1.27,1.98-1.134,2.509-1.046,2.621
		c0.191,0.207,1.575,0.734,3.533,0.654C36.438,66.997,38.732,66.484,40.418,64.48z"/>
	<path fill="#B2B2B2" d="M17.92,35.364c-2.661,0.367-5.586,1.278-6.425,1.838c-0.008,0-0.008,0.007-0.016,0.007
		c0.207,0.152,0.639,0.375,0.918,0.512l0.312,0.167c0.104,0.049,0.287,0.153,0.535,0.296c7.625,4.26,11.077,4.819,12.636,4.436
		c-0.185-0.576-0.193-1.151-0.024-1.742c0.335-1.096,1.462-1.759,2.941-2.142c-0.767-0.432-1.566-1.087-1.926-2.126
		C24.882,36.1,20.469,35.013,17.92,35.364z"/>
	<path fill="#B2B2B2" d="M24.745,21.997c-1.214-0.288-1.438-0.1-1.47-0.076c-0.008,0.016-0.144,0.18,0.056,1.002
		c0.335,1.375,5.331,8.556,7.025,9.419c1.263-0.127,2.525,0.024,3.268,0.272c0.864-0.631,1.838-0.95,2.909-0.959
		c-0.695-1.134-1.494-2.829-2.221-4.892l-0.024,0.016C33.273,25.238,26.808,22.485,24.745,21.997z"/>
	<path fill="#B2B2B2" d="M87.756,47.032c-0.07-0.287-0.527-0.551-0.943-0.551c-0.543,0-1.604-0.255-3.293-0.671
		c-1.558-0.392-3.291-0.808-4.498-0.943c-0.545,0.664-1.158,1.206-1.92,1.734c-1.086,0.734-5.435,3.3-8.967,3.917h0.016
		c0.863,0.19,2.646,0.926,4.621,1.869c6.537,0.607,10.054-1.631,12.627-3.277c0.408-0.272,0.783-0.511,1.15-0.727
		C87.557,47.8,87.828,47.297,87.756,47.032z"/>
	<path fill="#B2B2B2" d="M49.801,71.537c0.079,1.247,1.159,4.939,3.445,6.777c1.047,0.847,2.213,1.158,3.477,0.959
		c-0.023,0.016,0.063-0.064,0.16-0.256c0.605-1.295,0.414-4.925-0.185-6.162l0.063-0.024c-3.396-3.987-5.578-8.632-6.162-10.205
		c-0.048-0.009-0.072-0.009-0.112-0.009c0.112,2.015,0.064,5.707-0.728,8.927L49.801,71.537z"/>
</g>
</svg>
