<?xml version="1.0" encoding="utf-8"?>
<!-- Generator: Adobe Illustrator 16.0.0, SVG Export Plug-In . SVG Version: 6.00 Build 0)  -->
<!DOCTYPE svg PUBLIC "-//W3C//DTD SVG 1.1//EN" "http://www.w3.org/Graphics/SVG/1.1/DTD/svg11.dtd">
<svg version="1.1" id="Layer_1" xmlns="http://www.w3.org/2000/svg" xmlns:xlink="http://www.w3.org/1999/xlink" x="0px" y="0px"
	 width="100px" height="100px" viewBox="0 0 100 100" enable-background="new 0 0 100 100" xml:space="preserve">
<path fill-rule="evenodd" clip-rule="evenodd" d="M17.688,100.023l0.092-0.092L17.688,100.023z"/>
<path fill-rule="evenodd" clip-rule="evenodd" d="M82.626,0.303l0.292-0.292L82.626,0.303z"/>
<path fill-rule="evenodd" clip-rule="evenodd" d="M97.8,19.207l0.373-0.386L97.8,19.207z"/>
<path fill-rule="evenodd" clip-rule="evenodd" d="M91.703,13.292l0.868-0.895L91.703,13.292z"/>
<path fill-rule="evenodd" clip-rule="evenodd" d="M94.874,16.37l0.577-0.595L94.874,16.37z"/>
<g>
	<polygon fill-rule="evenodd" clip-rule="evenodd" fill="#CCCCCC" points="35.055,59.25 35.123,63.652 34.376,64.424 34.31,60.023 	
		"/>
	<polygon fill-rule="evenodd" clip-rule="evenodd" fill="#CCCCCC" points="33.579,65.246 32.779,66.068 32.713,61.67 33.511,60.848 
			"/>
	<polygon fill-rule="evenodd" clip-rule="evenodd" fill="#CCCCCC" points="28.411,70.572 27.611,71.395 23.237,71.461 
		24.033,70.639 	"/>
	<polygon fill-rule="evenodd" clip-rule="evenodd" fill="#CCCCCC" points="26.814,72.217 25.976,73.082 21.646,73.105 
		22.441,72.283 	"/>
</g>
<g>
	<polygon fill-rule="evenodd" clip-rule="evenodd" fill="#4D4D4D" points="1.423,86.584 6.817,81.025 11.1,76.611 11.143,76.568 
		11.201,76.566 13.396,76.545 22.852,76.455 23.195,76.451 22.956,76.695 7.525,92.506 7.425,92.406 7.322,92.307 7.324,92.305 
		22.513,76.744 20.486,76.764 20.459,76.764 18.812,78.459 6.341,91.312 6.32,91.334 6.216,91.234 6.115,91.137 6.141,91.111 
		20.058,76.766 18.124,76.785 18.137,76.797 16.602,78.377 5.185,90.146 5.142,90.191 5.039,90.092 4.937,89.994 4.984,89.945 
		17.749,76.789 15.577,76.811 15.604,76.836 14.218,78.264 3.924,88.875 3.856,88.943 3.754,88.844 3.651,88.746 3.724,88.672 
		15.229,76.812 13.25,76.832 13.265,76.846 12.013,78.137 2.746,87.686 2.656,87.779 2.554,87.682 2.452,87.582 2.545,87.482 
		12.698,77.02 12.878,76.836 11.263,76.85 7.983,80.232 1.736,86.668 1.628,86.781 1.525,86.684 	"/>
	<polygon fill-rule="evenodd" clip-rule="evenodd" fill="#4D4D4D" points="39.695,44.781 36.156,48.428 36.103,44.847 	"/>
	<polygon fill-rule="evenodd" clip-rule="evenodd" fill="#4D4D4D" points="46.893,44.69 42.042,44.74 36.354,50.604 36.426,55.477 	
		"/>
</g>
<g>
	<polygon fill-rule="evenodd" clip-rule="evenodd" fill="#808080" points="31.982,66.891 29.208,69.752 24.828,69.816 
		31.916,62.494 	"/>
	<polygon fill-rule="evenodd" clip-rule="evenodd" fill="#808080" points="32.203,74.527 59.308,46.527 55.334,46.568 
		28.152,74.582 	"/>
</g>
<g>
	<polygon fill-rule="evenodd" clip-rule="evenodd" points="38.289,62.283 53.58,46.462 49.605,46.504 38.227,58.23 	"/>
	<polygon fill-rule="evenodd" clip-rule="evenodd" points="61.284,44.438 62.713,42.966 91.601,13.193 91.703,13.292 91.706,13.296 
		91.804,13.392 65.17,40.844 63.885,42.168 61.624,44.497 61.651,44.497 67.47,44.409 80.854,30.613 94.772,16.271 94.874,16.37 
		94.877,16.373 94.976,16.468 82.026,29.815 70.91,41.272 67.871,44.403 67.897,44.403 73.232,44.322 97.59,19.218 97.697,19.109 
		97.719,19.131 97.8,19.207 97.9,19.306 73.394,44.562 73.354,44.605 73.294,44.605 60.011,44.806 49.398,44.966 36.775,57.975 
		36.742,60.648 36.7,64.041 36.7,64.098 36.661,64.139 26.556,74.553 26.515,74.594 26.455,74.596 16.03,74.752 10.557,74.834 
		0.204,85.506 0.101,85.406 0,85.307 10.395,74.594 10.435,74.553 10.494,74.549 16.458,74.461 26.393,74.311 36.417,63.98 
		36.456,60.844 36.492,57.914 36.492,57.855 36.531,57.816 49.233,44.724 49.275,44.683 49.334,44.681 60.438,44.514 61.351,44.501 
			"/>
</g>
</svg>
