<?xml version="1.0" encoding="utf-8"?>
<!-- Generator: Adobe Illustrator 16.0.0, SVG Export Plug-In . SVG Version: 6.00 Build 0)  -->
<!DOCTYPE svg PUBLIC "-//W3C//DTD SVG 1.1//EN" "http://www.w3.org/Graphics/SVG/1.1/DTD/svg11.dtd">
<svg version="1.1" id="Layer_1" xmlns="http://www.w3.org/2000/svg" xmlns:xlink="http://www.w3.org/1999/xlink" x="0px" y="0px"
	 width="50px" height="50px" viewBox="0 0 50 50" enable-background="new 0 0 50 50" xml:space="preserve">
<path fill-rule="evenodd" clip-rule="evenodd" fill="#1E1E1E" d="M-39.748,134.883c0.109-4.617-0.091-9.27,0.425-13.841
	c0.424-3.756,1.97-7.325,3.896-10.628c3.205-5.494,6.818-10.707,11.414-15.144c2.266-2.188,4.725-4.175,7.118-6.227
	c3.333-2.855,6.735-5.633,10.019-8.545c3.009-2.668,5.93-5.438,8.828-8.226c1.869-1.797,3.765-3.597,5.401-5.597
	c2.314-2.829,4.423-5.829,6.58-8.784c3.237-4.437,5.711-9.312,8.094-14.237c1.757-3.631,2.521-7.557,3.515-11.424
	c1.725-6.711,2.164-13.546,2.185-20.431c0.011-3.629,0.053-7.261-0.063-10.887C27.602-1.03,27.287-2.971,26.997-4.9
	c-0.625-4.169-1.201-8.351-2.004-12.487c-0.535-2.751-1.35-5.457-2.183-8.138c-0.77-2.479-1.696-4.912-2.618-7.341
	c-0.811-2.137-1.771-4.219-2.557-6.364c-1.46-3.988-2.908-7.982-4.237-12.014c-1.541-4.676-1.679-9.563-1.953-14.427
	c-0.14-2.47,0.667-4.674,1.469-6.94c0.822-2.325,1.911-4.444,3.425-6.388c2.954-3.792,6.832-5.901,11.547-6.554
	c4.632-0.642,8.859,0.404,12.691,3.075c1.959,1.365,3.113,3.364,4.327,5.34c4.669,7.597,7.511,15.93,9.946,24.433
	c2.455,8.568,3.855,17.347,3.994,26.215c0.131,8.376-0.422,16.773-2.013,25.052c-0.7,3.645-1.038,7.379-2.007,10.946
	c-1.377,5.066-3.133,10.033-4.823,15.01c-1.568,4.619-3.5,9.093-5.959,13.312c-0.779,1.337-1.897,2.471-2.773,3.757
	c-1.683,2.475-3.132,5.128-4.991,7.458c-2.531,3.173-5.29,6.172-8.073,9.132c-2.214,2.355-4.654,4.496-6.916,6.809
	c-5.069,5.18-10.545,9.892-16.403,14.142c-4.781,3.469-9.768,6.658-14.502,10.187c-2.58,1.922-4.792,4.332-7.23,6.451
	c-3.938,3.419-7.547,7.184-10.581,11.385c-3.609,4.996-7.148,10.109-8.817,16.197c-1.052,3.837-2.107,7.673-3.161,11.51
	C-39.521,134.864-39.634,134.874-39.748,134.883z"/>
</svg>
