<?xml version="1.0" encoding="utf-8"?>
<!-- Generator: Adobe Illustrator 16.0.0, SVG Export Plug-In . SVG Version: 6.00 Build 0)  -->
<!DOCTYPE svg PUBLIC "-//W3C//DTD SVG 1.1//EN" "http://www.w3.org/Graphics/SVG/1.1/DTD/svg11.dtd">
<svg version="1.1" id="Layer_1" xmlns="http://www.w3.org/2000/svg" xmlns:xlink="http://www.w3.org/1999/xlink" x="0px" y="0px"
	 width="150px" height="150px" viewBox="231.039 179.039 150 150" enable-background="new 231.039 179.039 150 150"
	 xml:space="preserve">
<path fill="#4D4E4E" d="M314.88,263.661c-0.102,2.518-0.483,5.017-0.76,7.521c-0.55,4.981-3.994,6.943-8.312,8.269
	c-10.583,3.247-22.978-4.015-23.198-13.974c-0.04-1.902,1.073-4.362,2.487-5.664c4.461-4.109,8.915-7.877,9.807-14.551
	c0.501-3.733,7.893-5.397,11.937-2.709c1.99,1.321,4.03,3.407,4.769,5.581C313.305,253.116,314.951,261.917,314.88,263.661z"/>
<path fill="#808080" d="M264.241,248.748c-0.099-6.43,5.251-11.649,13.151-12.816c0.553-0.082,1.126-0.052,1.672-0.16
	c3.162-0.624,6.446-1.659,8.661,1.875c2.616,4.171,2.766,8.759,0.166,12.678c-2.504,3.781-5.826,6.907-10.824,7.99
	C269.898,259.869,264.352,256.018,264.241,248.748z"/>
<g>
	<path fill="#BCBCBC" d="M318.186,250.027c-3.688-4.379-5.997-9.207-6.229-13.536c2.58-0.774,5.076-1.184,6.763-0.395
		c1.894,0.884,3.644,4.228,3.608,6.473C322.288,244.812,319.968,247.019,318.186,250.027z"/>
	<path fill="#BCBCBC" d="M342.208,266.947c-4.026-0.025-8.601-3.384-8.77-6.437c-0.127-2.357,3.084-4.668,6.45-4.639
		c4.589,0.042,8.757,2.586,8.897,5.433C348.93,264.117,345.604,266.97,342.208,266.947z"/>
	<path fill="#BCBCBC" d="M323.023,316.444c-2.91-0.009-5.363-2.891-5.327-6.251c0.032-2.517,5.1-7.592,7.504-6.551
		c3.029,1.314,5.927,3.893,7.746,6.67C334.013,311.94,326.771,316.455,323.023,316.444z"/>
	<path fill="#BCBCBC" d="M341.613,205.868c2.056-2.765,4.182-6.716,6.752-8.866c1.15-0.962,4.038,0.155,6.135,0.328
		c-0.381,1.892-0.14,4.358-1.259,5.559c-2.634,2.822-7.222,3.355-10.051,3.433C342.61,206.336,341.968,206.174,341.613,205.868z"/>
</g>
</svg>
